<svg width="1920" height="1080" viewBox="0 0 1920 1080" fill="none" xmlns="http://www.w3.org/2000/svg">
<g clip-path="url(#clip0_624_50)">
<path d="M1920 0H0V1080H1920V0Z" fill="url(#paint0_linear_624_50)" fill-opacity="0.5"/>
<path d="M544.027 178.324C539.572 178.324 535.691 177.244 532.383 175.085C529.103 172.926 526.561 169.687 524.757 165.368C522.953 161.049 522.051 155.637 522.051 149.132C522.051 144.267 522.694 140.016 523.978 136.381C525.29 132.746 527.053 129.712 529.267 127.279C531.509 124.846 534.037 123.029 536.852 121.826C539.695 120.623 542.633 120.022 545.667 120.022C549.357 120.022 552.419 120.555 554.851 121.621C557.284 122.66 559.607 124.19 561.821 126.213L557.516 130.682C555.794 129.069 553.977 127.88 552.063 127.115C550.177 126.35 548.059 125.967 545.708 125.967C543.658 125.967 541.677 126.363 539.763 127.156C537.85 127.949 536.128 129.247 534.597 131.051C533.094 132.828 531.891 135.192 530.989 138.144C530.115 141.096 529.677 144.759 529.677 149.132C529.677 154.571 530.238 158.999 531.358 162.416C532.506 165.833 534.187 168.347 536.401 169.96C538.643 171.545 541.403 172.338 544.683 172.338C546.651 172.338 548.51 172.106 550.259 171.641C552.036 171.176 553.758 170.507 555.425 169.632V152.412H544.314L543.453 146.508H562.477V173.404C559.935 174.771 557.229 175.932 554.359 176.889C551.489 177.846 548.045 178.324 544.027 178.324ZM581.141 158.234C581.278 161.569 581.92 164.302 583.068 166.434C584.216 168.539 585.733 170.097 587.619 171.108C589.505 172.092 591.555 172.584 593.769 172.584C595.983 172.584 597.979 172.256 599.755 171.6C601.559 170.944 603.404 169.974 605.29 168.689L608.529 173.24C606.507 174.825 604.197 176.069 601.6 176.971C599.031 177.873 596.393 178.324 593.687 178.324C589.505 178.324 585.938 177.381 582.986 175.495C580.034 173.609 577.779 170.985 576.221 167.623C574.691 164.234 573.925 160.311 573.925 155.856C573.925 151.483 574.704 147.601 576.262 144.212C577.82 140.823 580.007 138.158 582.822 136.217C585.638 134.276 588.959 133.306 592.785 133.306C596.421 133.306 599.55 134.167 602.174 135.889C604.798 137.584 606.807 140.016 608.201 143.187C609.623 146.33 610.333 150.089 610.333 154.462C610.333 155.2 610.32 155.897 610.292 156.553C610.265 157.182 610.224 157.742 610.169 158.234H581.141ZM592.867 138.964C589.669 138.964 586.991 140.098 584.831 142.367C582.699 144.636 581.483 148.148 581.182 152.904H603.691C603.609 148.285 602.598 144.813 600.657 142.49C598.717 140.139 596.12 138.964 592.867 138.964ZM659.173 175.208C657.697 176.192 655.907 176.957 653.802 177.504C651.698 178.051 649.634 178.324 647.611 178.324C642.965 178.324 639.384 177.108 636.869 174.675C634.355 172.242 633.097 169.113 633.097 165.286V139.538H623.175V134.208H633.097V124.409L639.985 123.589V134.208H654.909L654.089 139.538H639.985V165.204C639.985 167.609 640.614 169.441 641.871 170.698C643.156 171.955 645.274 172.584 648.226 172.584C649.839 172.584 651.329 172.393 652.695 172.01C654.062 171.627 655.333 171.135 656.508 170.534L659.173 175.208ZM708.341 175.208C706.865 176.192 705.075 176.957 702.97 177.504C700.866 178.051 698.802 178.324 696.779 178.324C692.133 178.324 688.552 177.108 686.037 174.675C683.523 172.242 682.265 169.113 682.265 165.286V139.538H672.343V134.208H682.265V124.409L689.153 123.589V134.208H704.077L703.257 139.538H689.153V165.204C689.153 167.609 689.782 169.441 691.039 170.698C692.324 171.955 694.442 172.584 697.394 172.584C699.007 172.584 700.497 172.393 701.863 172.01C703.23 171.627 704.501 171.135 705.676 170.534L708.341 175.208ZM745.086 134.208V171.928H757.263V177.381H724.873V171.928H738.198V139.661H725.283V134.208H745.086ZM739.592 113.995C741.123 113.995 742.339 114.46 743.241 115.389C744.171 116.318 744.635 117.453 744.635 118.792C744.635 120.186 744.171 121.361 743.241 122.318C742.339 123.247 741.123 123.712 739.592 123.712C738.144 123.712 736.955 123.247 736.025 122.318C735.096 121.361 734.631 120.186 734.631 118.792C734.631 117.453 735.096 116.318 736.025 115.389C736.955 114.46 738.144 113.995 739.592 113.995ZM772.401 177.381V134.208H778.264L778.797 140.194C780.546 137.98 782.733 136.285 785.357 135.11C788.008 133.907 790.578 133.306 793.065 133.306C797.302 133.306 800.377 134.427 802.29 136.668C804.231 138.909 805.201 142.025 805.201 146.016V177.381H798.313V151.1C798.313 148.148 798.149 145.77 797.821 143.966C797.493 142.135 796.81 140.809 795.771 139.989C794.732 139.142 793.12 138.718 790.933 138.718C789.238 138.718 787.639 139.087 786.136 139.825C784.66 140.563 783.334 141.492 782.159 142.613C781.011 143.706 780.054 144.813 779.289 145.934V177.381H772.401ZM856.665 129.616L858.797 136.094C856.966 136.668 855.011 137.023 852.934 137.16C850.857 137.297 848.602 137.365 846.169 137.365C848.656 138.513 850.529 140.003 851.786 141.834C853.043 143.638 853.672 145.77 853.672 148.23C853.672 151.073 853.03 153.601 851.745 155.815C850.46 158.029 848.602 159.765 846.169 161.022C843.764 162.279 840.853 162.908 837.436 162.908C835.987 162.908 834.771 162.84 833.787 162.703C832.83 162.566 831.901 162.361 830.999 162.088C830.343 162.525 829.796 163.127 829.359 163.892C828.949 164.657 828.744 165.45 828.744 166.27C828.744 167.309 829.154 168.17 829.974 168.853C830.794 169.536 832.311 169.878 834.525 169.878H842.315C845.212 169.878 847.809 170.397 850.105 171.436C852.428 172.475 854.246 173.869 855.558 175.618C856.897 177.367 857.567 179.363 857.567 181.604C857.567 185.841 855.763 189.093 852.155 191.362C848.574 193.631 843.504 194.765 836.944 194.765C832.352 194.765 828.73 194.287 826.079 193.33C823.428 192.401 821.528 190.966 820.38 189.025C819.259 187.112 818.699 184.693 818.699 181.768H824.931C824.931 183.435 825.259 184.816 825.915 185.909C826.571 187.002 827.76 187.809 829.482 188.328C831.204 188.875 833.678 189.148 836.903 189.148C840.074 189.148 842.657 188.875 844.652 188.328C846.675 187.809 848.164 187.016 849.121 185.95C850.105 184.911 850.597 183.613 850.597 182.055C850.597 180.005 849.668 178.461 847.809 177.422C845.95 176.383 843.627 175.864 840.839 175.864H833.131C829.414 175.864 826.667 175.044 824.89 173.404C823.141 171.764 822.266 169.878 822.266 167.746C822.266 166.352 822.662 164.999 823.455 163.687C824.275 162.375 825.464 161.213 827.022 160.202C824.535 158.89 822.703 157.264 821.528 155.323C820.353 153.382 819.765 151.032 819.765 148.271C819.765 145.346 820.489 142.763 821.938 140.522C823.387 138.253 825.409 136.477 828.006 135.192C830.603 133.907 833.596 133.265 836.985 133.265C840.62 133.238 843.572 133.087 845.841 132.814C848.11 132.513 850.05 132.09 851.663 131.543C853.303 130.996 854.97 130.354 856.665 129.616ZM836.985 138.308C833.514 138.308 830.944 139.251 829.277 141.137C827.637 142.996 826.817 145.374 826.817 148.271C826.817 151.196 827.664 153.601 829.359 155.487C831.054 157.373 833.65 158.316 837.149 158.316C840.21 158.316 842.534 157.428 844.119 155.651C845.732 153.874 846.538 151.401 846.538 148.23C846.538 144.977 845.732 142.517 844.119 140.85C842.534 139.155 840.156 138.308 836.985 138.308ZM934.583 172.625C937.89 172.625 940.501 172.01 942.414 170.78C944.355 169.523 945.325 167.855 945.325 165.778C945.325 164.466 945.079 163.332 944.587 162.375C944.122 161.418 943.152 160.557 941.676 159.792C940.2 159.027 937.931 158.261 934.87 157.496C931.891 156.758 929.294 155.911 927.08 154.954C924.893 153.97 923.185 152.699 921.955 151.141C920.752 149.583 920.151 147.56 920.151 145.073C920.151 142.64 920.834 140.549 922.201 138.8C923.595 137.023 925.522 135.67 927.982 134.741C930.442 133.784 933.298 133.306 936.551 133.306C940.022 133.306 943.043 133.771 945.612 134.7C948.209 135.602 950.409 136.723 952.213 138.062L949.179 142.736C947.539 141.615 945.735 140.7 943.767 139.989C941.799 139.251 939.421 138.882 936.633 138.882C933.244 138.882 930.838 139.415 929.417 140.481C927.996 141.52 927.285 142.873 927.285 144.54C927.285 145.797 927.627 146.85 928.31 147.697C929.021 148.517 930.21 149.269 931.877 149.952C933.544 150.608 935.84 151.332 938.765 152.125C941.58 152.863 944.027 153.751 946.104 154.79C948.209 155.829 949.849 157.195 951.024 158.89C952.199 160.585 952.787 162.771 952.787 165.45C952.787 168.511 951.912 170.999 950.163 172.912C948.414 174.798 946.145 176.178 943.357 177.053C940.596 177.9 937.672 178.324 934.583 178.324C930.674 178.324 927.34 177.764 924.579 176.643C921.846 175.495 919.55 174.115 917.691 172.502L921.627 167.951C923.322 169.345 925.262 170.479 927.449 171.354C929.663 172.201 932.041 172.625 934.583 172.625ZM1003.35 175.208C1001.87 176.192 1000.08 176.957 997.978 177.504C995.873 178.051 993.81 178.324 991.787 178.324C987.14 178.324 983.56 177.108 981.045 174.675C978.53 172.242 977.273 169.113 977.273 165.286V139.538H967.351V134.208H977.273V124.409L984.161 123.589V134.208H999.085L998.265 139.538H984.161V165.204C984.161 167.609 984.79 169.441 986.047 170.698C987.332 171.955 989.45 172.584 992.402 172.584C994.015 172.584 995.504 172.393 996.871 172.01C998.238 171.627 999.509 171.135 1000.68 170.534L1003.35 175.208ZM1049.16 167.951C1049.16 169.673 1049.44 170.93 1050.02 171.723C1050.59 172.516 1051.48 173.103 1052.68 173.486L1051 178.324C1049.14 178.078 1047.52 177.49 1046.12 176.561C1044.73 175.604 1043.72 174.169 1043.09 172.256C1041.53 174.251 1039.59 175.768 1037.27 176.807C1034.94 177.818 1032.37 178.324 1029.56 178.324C1025.24 178.324 1021.84 177.108 1019.35 174.675C1016.86 172.242 1015.62 169.017 1015.62 164.999C1015.62 160.544 1017.35 157.127 1020.82 154.749C1024.3 152.371 1029.31 151.182 1035.87 151.182H1042.23V147.574C1042.23 144.458 1041.31 142.258 1039.48 140.973C1037.68 139.661 1035.16 139.005 1031.94 139.005C1030.51 139.005 1028.85 139.183 1026.93 139.538C1025.02 139.866 1022.94 140.426 1020.7 141.219L1018.9 136.012C1021.55 135.028 1024.04 134.331 1026.36 133.921C1028.68 133.511 1030.9 133.306 1033 133.306C1038.39 133.306 1042.42 134.563 1045.1 137.078C1047.8 139.565 1049.16 142.955 1049.16 147.246V167.951ZM1031.32 173.076C1033.45 173.076 1035.49 172.543 1037.43 171.477C1039.37 170.384 1040.97 168.88 1042.23 166.967V155.856H1035.99C1031.24 155.856 1027.88 156.676 1025.91 158.316C1023.97 159.956 1023 162.156 1023 164.917C1023 167.596 1023.68 169.632 1025.05 171.026C1026.44 172.393 1028.53 173.076 1031.32 173.076ZM1067.82 177.381V172.092H1074.54V139.497H1067.82V134.208H1079.79L1081.06 144.417C1082.73 140.864 1084.75 138.117 1087.13 136.176C1089.51 134.235 1092.65 133.265 1096.56 133.265C1097.76 133.265 1098.83 133.361 1099.76 133.552C1100.71 133.716 1101.68 133.935 1102.67 134.208L1100.66 140.358C1099.76 140.112 1098.94 139.934 1098.2 139.825C1097.46 139.688 1096.61 139.62 1095.66 139.62C1092.35 139.62 1089.51 140.795 1087.13 143.146C1084.75 145.497 1082.85 149.05 1081.43 153.806V172.092H1090.2V177.381H1067.82ZM1096.03 148.804V139.415L1096.72 134.208H1102.67L1101.68 148.804H1096.03ZM1150.85 175.208C1149.38 176.192 1147.59 176.957 1145.48 177.504C1143.38 178.051 1141.31 178.324 1139.29 178.324C1134.64 178.324 1131.06 177.108 1128.55 174.675C1126.03 172.242 1124.78 169.113 1124.78 165.286V139.538H1114.85V134.208H1124.78V124.409L1131.66 123.589V134.208H1146.59L1145.77 139.538H1131.66V165.204C1131.66 167.609 1132.29 169.441 1133.55 170.698C1134.84 171.955 1136.95 172.584 1139.91 172.584C1141.52 172.584 1143.01 172.393 1144.37 172.01C1145.74 171.627 1147.01 171.135 1148.19 170.534L1150.85 175.208ZM1171.16 158.234C1171.29 161.569 1171.94 164.302 1173.08 166.434C1174.23 168.539 1175.75 170.097 1177.63 171.108C1179.52 172.092 1181.57 172.584 1183.78 172.584C1186 172.584 1187.99 172.256 1189.77 171.6C1191.57 170.944 1193.42 169.974 1195.31 168.689L1198.54 173.24C1196.52 174.825 1194.21 176.069 1191.62 176.971C1189.05 177.873 1186.41 178.324 1183.7 178.324C1179.52 178.324 1175.95 177.381 1173 175.495C1170.05 173.609 1167.79 170.985 1166.24 167.623C1164.71 164.234 1163.94 160.311 1163.94 155.856C1163.94 151.483 1164.72 147.601 1166.28 144.212C1167.84 140.823 1170.02 138.158 1172.84 136.217C1175.65 134.276 1178.97 133.306 1182.8 133.306C1186.44 133.306 1189.57 134.167 1192.19 135.889C1194.81 137.584 1196.82 140.016 1198.22 143.187C1199.64 146.33 1200.35 150.089 1200.35 154.462C1200.35 155.2 1200.34 155.897 1200.31 156.553C1200.28 157.182 1200.24 157.742 1200.18 158.234H1171.16ZM1182.88 138.964C1179.68 138.964 1177.01 140.098 1174.85 142.367C1172.71 144.636 1171.5 148.148 1171.2 152.904H1193.71C1193.62 148.285 1192.61 144.813 1190.67 142.49C1188.73 140.139 1186.14 138.964 1182.88 138.964ZM1240.74 115.963L1247.63 116.824V177.381H1241.6L1240.95 171.682C1239.34 173.978 1237.48 175.659 1235.37 176.725C1233.29 177.791 1231.07 178.324 1228.69 178.324C1224.94 178.324 1221.86 177.381 1219.42 175.495C1216.99 173.609 1215.19 170.985 1214.01 167.623C1212.84 164.234 1212.25 160.311 1212.25 155.856C1212.25 151.537 1212.92 147.683 1214.26 144.294C1215.6 140.877 1217.52 138.199 1220.04 136.258C1222.58 134.29 1225.63 133.306 1229.18 133.306C1231.67 133.306 1233.85 133.743 1235.74 134.618C1237.63 135.465 1239.29 136.723 1240.74 138.39V115.963ZM1230.98 138.841C1227.38 138.841 1224.6 140.249 1222.66 143.064C1220.72 145.879 1219.75 150.143 1219.75 155.856C1219.75 159.573 1220.15 162.689 1220.94 165.204C1221.73 167.719 1222.89 169.605 1224.42 170.862C1225.98 172.119 1227.88 172.748 1230.12 172.748C1232.58 172.748 1234.67 172.051 1236.4 170.657C1238.15 169.263 1239.59 167.691 1240.74 165.942V144.376C1239.57 142.627 1238.15 141.274 1236.48 140.317C1234.81 139.333 1232.98 138.841 1230.98 138.841ZM1345.23 177.381H1335.47L1329.89 145.688L1323.83 177.381H1314.31L1306.44 134.208H1313.49L1318.99 173.117L1325.88 139.702H1334.04L1340.55 173.117L1346.05 134.208H1352.77L1345.23 177.381ZM1384.27 134.208V171.928H1396.45V177.381H1364.06V171.928H1377.38V139.661H1364.47V134.208H1384.27ZM1378.78 113.995C1380.31 113.995 1381.52 114.46 1382.42 115.389C1383.35 116.318 1383.82 117.453 1383.82 118.792C1383.82 120.186 1383.35 121.361 1382.42 122.318C1381.52 123.247 1380.31 123.712 1378.78 123.712C1377.33 123.712 1376.14 123.247 1375.21 122.318C1374.28 121.361 1373.81 120.186 1373.81 118.792C1373.81 117.453 1374.28 116.318 1375.21 115.389C1376.14 114.46 1377.33 113.995 1378.78 113.995ZM1445.86 175.208C1444.38 176.192 1442.59 176.957 1440.49 177.504C1438.39 178.051 1436.32 178.324 1434.3 178.324C1429.65 178.324 1426.07 177.108 1423.56 174.675C1421.04 172.242 1419.78 169.113 1419.78 165.286V139.538H1409.86V134.208H1419.78V124.409L1426.67 123.589V134.208H1441.6L1440.78 139.538H1426.67V165.204C1426.67 167.609 1427.3 169.441 1428.56 170.698C1429.84 171.955 1431.96 172.584 1434.91 172.584C1436.53 172.584 1438.02 172.393 1439.38 172.01C1440.75 171.627 1442.02 171.135 1443.2 170.534L1445.86 175.208ZM1467.64 116.168V140.112C1469.34 137.843 1471.41 136.149 1473.87 135.028C1476.36 133.88 1478.87 133.306 1481.42 133.306C1485.63 133.306 1488.7 134.427 1490.64 136.668C1492.58 138.909 1493.55 142.025 1493.55 146.016V177.381H1486.66V146.18C1486.66 143.583 1486.06 141.697 1484.86 140.522C1483.66 139.319 1481.77 138.718 1479.2 138.718C1477.56 138.718 1476 139.087 1474.53 139.825C1473.05 140.563 1471.73 141.479 1470.55 142.572C1469.38 143.665 1468.41 144.786 1467.64 145.934V177.381H1460.75V116.906L1467.64 116.168Z" fill="#9CC1E4"/>
<path d="M455.031 312.63H432.686L428.176 327.021H421.165L439.533 270.564H448.635L467.003 327.021H459.541L455.031 312.63ZM434.531 306.726H453.186L443.92 276.55L434.531 306.726ZM493.703 266.464V316.361C493.703 318.493 494.359 320.01 495.671 320.912C497.011 321.787 498.733 322.224 500.837 322.224C502.149 322.224 503.393 322.087 504.568 321.814C505.744 321.541 506.919 321.172 508.094 320.707L509.939 325.75C508.764 326.324 507.302 326.83 505.552 327.267C503.83 327.732 501.876 327.964 499.689 327.964C495.863 327.964 492.76 326.912 490.382 324.807C488.004 322.675 486.815 319.737 486.815 315.992V271.917H473.572V266.464H493.703ZM561.157 279.256L563.289 285.734C561.458 286.308 559.504 286.663 557.426 286.8C555.349 286.937 553.094 287.005 550.661 287.005C553.149 288.153 555.021 289.643 556.278 291.474C557.536 293.278 558.164 295.41 558.164 297.87C558.164 300.713 557.522 303.241 556.237 305.455C554.953 307.669 553.094 309.405 550.661 310.662C548.256 311.919 545.345 312.548 541.928 312.548C540.48 312.548 539.263 312.48 538.279 312.343C537.323 312.206 536.393 312.001 535.491 311.728C534.835 312.165 534.289 312.767 533.851 313.532C533.441 314.297 533.236 315.09 533.236 315.91C533.236 316.949 533.646 317.81 534.466 318.493C535.286 319.176 536.803 319.518 539.017 319.518H546.807C549.705 319.518 552.301 320.037 554.597 321.076C556.921 322.115 558.738 323.509 560.05 325.258C561.39 327.007 562.059 329.003 562.059 331.244C562.059 335.481 560.255 338.733 556.647 341.002C553.067 343.271 547.996 344.405 541.436 344.405C536.844 344.405 533.223 343.927 530.571 342.97C527.92 342.041 526.02 340.606 524.872 338.665C523.752 336.752 523.191 334.333 523.191 331.408H529.423C529.423 333.075 529.751 334.456 530.407 335.549C531.063 336.642 532.252 337.449 533.974 337.968C535.696 338.515 538.17 338.788 541.395 338.788C544.566 338.788 547.149 338.515 549.144 337.968C551.167 337.449 552.657 336.656 553.613 335.59C554.597 334.551 555.089 333.253 555.089 331.695C555.089 329.645 554.16 328.101 552.301 327.062C550.443 326.023 548.119 325.504 545.331 325.504H537.623C533.906 325.504 531.159 324.684 529.382 323.044C527.633 321.404 526.758 319.518 526.758 317.386C526.758 315.992 527.155 314.639 527.947 313.327C528.767 312.015 529.956 310.853 531.514 309.842C529.027 308.53 527.196 306.904 526.02 304.963C524.845 303.022 524.257 300.672 524.257 297.911C524.257 294.986 524.982 292.403 526.43 290.162C527.879 287.893 529.902 286.117 532.498 284.832C535.095 283.547 538.088 282.905 541.477 282.905C545.113 282.878 548.065 282.727 550.333 282.454C552.602 282.153 554.543 281.73 556.155 281.183C557.795 280.636 559.463 279.994 561.157 279.256ZM541.477 287.948C538.006 287.948 535.437 288.891 533.769 290.777C532.129 292.636 531.309 295.014 531.309 297.911C531.309 300.836 532.157 303.241 533.851 305.127C535.546 307.013 538.143 307.956 541.641 307.956C544.703 307.956 547.026 307.068 548.611 305.291C550.224 303.514 551.03 301.041 551.03 297.87C551.03 294.617 550.224 292.157 548.611 290.49C547.026 288.795 544.648 287.948 541.477 287.948ZM591.67 282.946C595.743 282.946 599.146 283.875 601.879 285.734C604.64 287.565 606.704 290.162 608.07 293.524C609.464 296.886 610.161 300.849 610.161 305.414C610.161 309.815 609.451 313.71 608.029 317.099C606.608 320.488 604.517 323.153 601.756 325.094C599.023 327.007 595.634 327.964 591.588 327.964C587.543 327.964 584.14 327.035 581.379 325.176C578.619 323.317 576.528 320.707 575.106 317.345C573.712 313.956 573.015 310.006 573.015 305.496C573.015 301.041 573.726 297.118 575.147 293.729C576.569 290.34 578.66 287.702 581.42 285.816C584.208 283.903 587.625 282.946 591.67 282.946ZM591.67 288.563C587.953 288.563 585.138 289.943 583.224 292.704C581.338 295.437 580.395 299.701 580.395 305.496C580.395 311.181 581.325 315.404 583.183 318.165C585.069 320.926 587.871 322.306 591.588 322.306C595.306 322.306 598.094 320.926 599.952 318.165C601.838 315.404 602.781 311.154 602.781 305.414C602.781 299.674 601.852 295.437 599.993 292.704C598.135 289.943 595.36 288.563 591.67 288.563ZM624.807 327.021V321.732H631.531V289.137H624.807V283.848H636.779L638.05 294.057C639.718 290.504 641.74 287.757 644.118 285.816C646.496 283.875 649.64 282.905 653.548 282.905C654.751 282.905 655.817 283.001 656.746 283.192C657.703 283.356 658.673 283.575 659.657 283.848L657.648 289.998C656.746 289.752 655.926 289.574 655.188 289.465C654.45 289.328 653.603 289.26 652.646 289.26C649.339 289.26 646.496 290.435 644.118 292.786C641.74 295.137 639.841 298.69 638.419 303.446V321.732H647.193V327.021H624.807ZM653.015 298.444V289.055L653.712 283.848H659.657L658.673 298.444H653.015ZM695.418 283.848V321.568H707.595V327.021H675.205V321.568H688.53V289.301H675.615V283.848H695.418ZM689.924 263.635C691.455 263.635 692.671 264.1 693.573 265.029C694.503 265.958 694.967 267.093 694.967 268.432C694.967 269.826 694.503 271.001 693.573 271.958C692.671 272.887 691.455 273.352 689.924 273.352C688.476 273.352 687.287 272.887 686.357 271.958C685.428 271.001 684.963 269.826 684.963 268.432C684.963 267.093 685.428 265.958 686.357 265.029C687.287 264.1 688.476 263.635 689.924 263.635ZM757.009 324.848C755.533 325.832 753.743 326.597 751.638 327.144C749.534 327.691 747.47 327.964 745.447 327.964C740.801 327.964 737.22 326.748 734.705 324.315C732.191 321.882 730.933 318.753 730.933 314.926V289.178H721.011V283.848H730.933V274.049L737.821 273.229V283.848H752.745L751.925 289.178H737.821V314.844C737.821 317.249 738.45 319.081 739.707 320.338C740.992 321.595 743.11 322.224 746.062 322.224C747.675 322.224 749.165 322.033 750.531 321.65C751.898 321.267 753.169 320.775 754.344 320.174L757.009 324.848ZM778.789 265.808V289.752C780.484 287.483 782.561 285.789 785.021 284.668C787.508 283.52 790.023 282.946 792.565 282.946C796.774 282.946 799.849 284.067 801.79 286.308C803.731 288.549 804.701 291.665 804.701 295.656V327.021H797.813V295.82C797.813 293.223 797.212 291.337 796.009 290.162C794.806 288.959 792.92 288.358 790.351 288.358C788.711 288.358 787.153 288.727 785.677 289.465C784.201 290.203 782.875 291.119 781.7 292.212C780.525 293.305 779.554 294.426 778.789 295.574V327.021H771.901V266.546L778.789 265.808ZM849.523 282.946C850.917 282.946 852.243 283.247 853.5 283.848C854.785 284.449 855.837 285.611 856.657 287.333C857.477 289.055 857.887 291.57 857.887 294.877V327.021H851.491V295.984C851.491 293.278 851.327 291.324 850.999 290.121C850.671 288.918 849.728 288.317 848.17 288.317C846.885 288.317 845.601 288.727 844.316 289.547C843.059 290.34 841.829 291.652 840.626 293.483V327.021H834.189V295.984C834.189 293.278 834.025 291.324 833.697 290.121C833.369 288.918 832.426 288.317 830.868 288.317C829.529 288.317 828.23 288.727 826.973 289.547C825.743 290.34 824.527 291.652 823.324 293.483V327.021H816.969V283.848H822.381L822.791 288.85C823.966 287.183 825.278 285.789 826.727 284.668C828.203 283.52 830.021 282.946 832.18 282.946C833.82 282.946 835.364 283.342 836.813 284.135C838.262 284.9 839.328 286.404 840.011 288.645C841.186 286.95 842.512 285.584 843.988 284.545C845.464 283.479 847.309 282.946 849.523 282.946ZM884.915 322.265C888.222 322.265 890.833 321.65 892.746 320.42C894.687 319.163 895.657 317.495 895.657 315.418C895.657 314.106 895.411 312.972 894.919 312.015C894.454 311.058 893.484 310.197 892.008 309.432C890.532 308.667 888.263 307.901 885.202 307.136C882.223 306.398 879.626 305.551 877.412 304.594C875.225 303.61 873.517 302.339 872.287 300.781C871.084 299.223 870.483 297.2 870.483 294.713C870.483 292.28 871.166 290.189 872.533 288.44C873.927 286.663 875.854 285.31 878.314 284.381C880.774 283.424 883.63 282.946 886.883 282.946C890.354 282.946 893.375 283.411 895.944 284.34C898.541 285.242 900.741 286.363 902.545 287.702L899.511 292.376C897.871 291.255 896.067 290.34 894.099 289.629C892.131 288.891 889.753 288.522 886.965 288.522C883.576 288.522 881.17 289.055 879.749 290.121C878.328 291.16 877.617 292.513 877.617 294.18C877.617 295.437 877.959 296.49 878.642 297.337C879.353 298.157 880.542 298.909 882.209 299.592C883.876 300.248 886.172 300.972 889.097 301.765C891.912 302.503 894.359 303.391 896.436 304.43C898.541 305.469 900.181 306.835 901.356 308.53C902.531 310.225 903.119 312.411 903.119 315.09C903.119 318.151 902.244 320.639 900.495 322.552C898.746 324.438 896.477 325.818 893.689 326.693C890.928 327.54 888.004 327.964 884.915 327.964C881.006 327.964 877.672 327.404 874.911 326.283C872.178 325.135 869.882 323.755 868.023 322.142L871.959 317.591C873.654 318.985 875.594 320.119 877.781 320.994C879.995 321.841 882.373 322.265 884.915 322.265ZM990.426 283.848V321.568H1002.6V327.021H970.213V321.568H983.538V289.301H970.623V283.848H990.426ZM984.932 263.635C986.463 263.635 987.679 264.1 988.581 265.029C989.51 265.958 989.975 267.093 989.975 268.432C989.975 269.826 989.51 271.001 988.581 271.958C987.679 272.887 986.463 273.352 984.932 273.352C983.483 273.352 982.294 272.887 981.365 271.958C980.436 271.001 979.971 269.826 979.971 268.432C979.971 267.093 980.436 265.958 981.365 265.029C982.294 264.1 983.483 263.635 984.932 263.635ZM1017.74 327.021V283.848H1023.6L1024.14 289.834C1025.89 287.62 1028.07 285.925 1030.7 284.75C1033.35 283.547 1035.92 282.946 1038.41 282.946C1042.64 282.946 1045.72 284.067 1047.63 286.308C1049.57 288.549 1050.54 291.665 1050.54 295.656V327.021H1043.65V300.74C1043.65 297.788 1043.49 295.41 1043.16 293.606C1042.83 291.775 1042.15 290.449 1041.11 289.629C1040.07 288.782 1038.46 288.358 1036.27 288.358C1034.58 288.358 1032.98 288.727 1031.48 289.465C1030 290.203 1028.67 291.132 1027.5 292.253C1026.35 293.346 1025.39 294.453 1024.63 295.574V327.021H1017.74ZM1135.84 276.673V327.021H1128.75V276.673H1111.12V270.564H1153.71L1152.98 276.673H1135.84ZM1201.16 283.848L1185.99 327.308C1184.98 330.233 1183.69 332.911 1182.14 335.344C1180.61 337.777 1178.6 339.786 1176.11 341.371C1173.65 342.984 1170.52 343.981 1166.72 344.364L1165.65 338.87C1168.63 338.378 1170.98 337.626 1172.71 336.615C1174.43 335.604 1175.78 334.305 1176.77 332.72C1177.78 331.135 1178.67 329.235 1179.43 327.021H1177.13L1162.05 283.848H1169.43L1181.81 321.773L1194.03 283.848H1201.16ZM1233.72 282.946C1237.55 282.946 1240.6 283.875 1242.87 285.734C1245.16 287.593 1246.82 290.217 1247.83 293.606C1248.84 296.968 1249.34 300.904 1249.34 305.414C1249.34 309.76 1248.73 313.641 1247.5 317.058C1246.3 320.447 1244.47 323.112 1242.01 325.053C1239.55 326.994 1236.44 327.964 1232.7 327.964C1227.97 327.964 1224.17 326.297 1221.3 322.962V343.544L1214.41 344.405V283.848H1220.28L1220.85 289.875C1222.44 287.661 1224.32 285.953 1226.51 284.75C1228.72 283.547 1231.13 282.946 1233.72 282.946ZM1232.08 288.481C1229.71 288.481 1227.6 289.205 1225.77 290.654C1223.97 292.075 1222.48 293.661 1221.3 295.41V316.812C1222.42 318.479 1223.83 319.805 1225.52 320.789C1227.25 321.746 1229.13 322.224 1231.18 322.224C1234.76 322.224 1237.45 320.857 1239.26 318.124C1241.06 315.391 1241.96 311.14 1241.96 305.373C1241.96 301.601 1241.61 298.471 1240.9 295.984C1240.19 293.469 1239.11 291.597 1237.66 290.367C1236.21 289.11 1234.35 288.481 1232.08 288.481ZM1268.99 307.874C1269.13 311.209 1269.77 313.942 1270.92 316.074C1272.07 318.179 1273.58 319.737 1275.47 320.748C1277.36 321.732 1279.41 322.224 1281.62 322.224C1283.83 322.224 1285.83 321.896 1287.61 321.24C1289.41 320.584 1291.26 319.614 1293.14 318.329L1296.38 322.88C1294.36 324.465 1292.05 325.709 1289.45 326.611C1286.88 327.513 1284.24 327.964 1281.54 327.964C1277.36 327.964 1273.79 327.021 1270.84 325.135C1267.89 323.249 1265.63 320.625 1264.07 317.263C1262.54 313.874 1261.78 309.951 1261.78 305.496C1261.78 301.123 1262.56 297.241 1264.11 293.852C1265.67 290.463 1267.86 287.798 1270.67 285.857C1273.49 283.916 1276.81 282.946 1280.64 282.946C1284.27 282.946 1287.4 283.807 1290.03 285.529C1292.65 287.224 1294.66 289.656 1296.05 292.827C1297.47 295.97 1298.18 299.729 1298.18 304.102C1298.18 304.84 1298.17 305.537 1298.14 306.193C1298.12 306.822 1298.08 307.382 1298.02 307.874H1268.99ZM1280.72 288.604C1277.52 288.604 1274.84 289.738 1272.68 292.007C1270.55 294.276 1269.33 297.788 1269.03 302.544H1291.54C1291.46 297.925 1290.45 294.453 1288.51 292.13C1286.57 289.779 1283.97 288.604 1280.72 288.604ZM1348.5 311.4C1348.5 314.625 1347.69 317.495 1346.08 320.01C1344.47 322.497 1342.13 324.452 1339.07 325.873C1336.01 327.267 1332.28 327.964 1327.88 327.964C1323.75 327.964 1320.01 327.335 1316.64 326.078C1313.31 324.821 1310.45 323.044 1308.07 320.748L1312.3 315.992C1314.27 317.823 1316.52 319.286 1319.06 320.379C1321.6 321.445 1324.58 321.978 1328 321.978C1330.3 321.978 1332.44 321.609 1334.44 320.871C1336.43 320.106 1338.05 318.958 1339.28 317.427C1340.51 315.869 1341.12 313.901 1341.12 311.523C1341.12 309.692 1340.77 308.134 1340.05 306.849C1339.34 305.564 1338.09 304.43 1336.28 303.446C1334.48 302.435 1331.96 301.451 1328.74 300.494C1325.02 299.401 1321.8 298.171 1319.06 296.804C1316.36 295.41 1314.25 293.702 1312.75 291.679C1311.27 289.656 1310.53 287.155 1310.53 284.176C1310.53 281.361 1311.31 278.86 1312.87 276.673C1314.43 274.486 1316.58 272.778 1319.31 271.548C1322.07 270.291 1325.24 269.662 1328.82 269.662C1332.73 269.662 1336.12 270.222 1338.99 271.343C1341.89 272.436 1344.51 274.022 1346.86 276.099L1342.68 280.732C1340.66 278.928 1338.48 277.63 1336.16 276.837C1333.84 276.017 1331.47 275.607 1329.07 275.607C1327.02 275.607 1325.13 275.921 1323.41 276.55C1321.71 277.151 1320.35 278.067 1319.31 279.297C1318.3 280.5 1317.79 282.044 1317.79 283.93C1317.79 285.543 1318.23 286.937 1319.1 288.112C1319.98 289.287 1321.45 290.367 1323.53 291.351C1325.61 292.308 1328.44 293.319 1332.02 294.385C1334.94 295.232 1337.65 296.298 1340.14 297.583C1342.65 298.84 1344.67 300.562 1346.2 302.749C1347.74 304.908 1348.5 307.792 1348.5 311.4ZM1381.43 322.019C1383.59 322.019 1385.6 321.664 1387.46 320.953C1389.35 320.242 1391.08 319.34 1392.67 318.247L1396.03 322.757C1394.14 324.37 1391.87 325.641 1389.22 326.57C1386.57 327.499 1383.97 327.964 1381.43 327.964C1377.14 327.964 1373.48 327.048 1370.44 325.217C1367.44 323.358 1365.14 320.762 1363.56 317.427C1361.97 314.065 1361.18 310.129 1361.18 305.619C1361.18 301.3 1361.97 297.433 1363.56 294.016C1365.17 290.572 1367.48 287.866 1370.49 285.898C1373.52 283.93 1377.2 282.946 1381.51 282.946C1384.28 282.946 1386.86 283.37 1389.26 284.217C1391.7 285.037 1393.92 286.281 1395.95 287.948L1392.58 292.54C1390.75 291.255 1388.91 290.299 1387.05 289.67C1385.22 289.014 1383.35 288.686 1381.43 288.686C1377.72 288.686 1374.65 290.08 1372.25 292.868C1369.84 295.656 1368.64 299.906 1368.64 305.619C1368.64 309.446 1369.19 312.575 1370.28 315.008C1371.4 317.413 1372.92 319.19 1374.83 320.338C1376.77 321.459 1378.97 322.019 1381.43 322.019ZM1411.49 327.021V321.732H1418.22V289.137H1411.49V283.848H1423.47L1424.74 294.057C1426.41 290.504 1428.43 287.757 1430.81 285.816C1433.18 283.875 1436.33 282.905 1440.24 282.905C1441.44 282.905 1442.5 283.001 1443.43 283.192C1444.39 283.356 1445.36 283.575 1446.34 283.848L1444.34 289.998C1443.43 289.752 1442.61 289.574 1441.88 289.465C1441.14 289.328 1440.29 289.26 1439.33 289.26C1436.03 289.26 1433.18 290.435 1430.81 292.786C1428.43 295.137 1426.53 298.69 1425.11 303.446V321.732H1433.88V327.021H1411.49ZM1439.7 298.444V289.055L1440.4 283.848H1446.34L1445.36 298.444H1439.7ZM1482.11 283.848V321.568H1494.28V327.021H1461.89V321.568H1475.22V289.301H1462.3V283.848H1482.11ZM1476.61 263.635C1478.14 263.635 1479.36 264.1 1480.26 265.029C1481.19 265.958 1481.65 267.093 1481.65 268.432C1481.65 269.826 1481.19 271.001 1480.26 271.958C1479.36 272.887 1478.14 273.352 1476.61 273.352C1475.16 273.352 1473.97 272.887 1473.04 271.958C1472.12 271.001 1471.65 269.826 1471.65 268.432C1471.65 267.093 1472.12 265.958 1473.04 265.029C1473.97 264.1 1475.16 263.635 1476.61 263.635ZM1528.73 282.946C1532.56 282.946 1535.61 283.875 1537.87 285.734C1540.17 287.593 1541.82 290.217 1542.84 293.606C1543.85 296.968 1544.35 300.904 1544.35 305.414C1544.35 309.76 1543.74 313.641 1542.51 317.058C1541.31 320.447 1539.47 323.112 1537.01 325.053C1534.55 326.994 1531.45 327.964 1527.71 327.964C1522.98 327.964 1519.18 326.297 1516.31 322.962V343.544L1509.42 344.405V283.848H1515.28L1515.86 289.875C1517.44 287.661 1519.33 285.953 1521.52 284.75C1523.73 283.547 1526.14 282.946 1528.73 282.946ZM1527.09 288.481C1524.71 288.481 1522.61 289.205 1520.78 290.654C1518.97 292.075 1517.48 293.661 1516.31 295.41V316.812C1517.43 318.479 1518.84 319.805 1520.53 320.789C1522.25 321.746 1524.14 322.224 1526.19 322.224C1529.77 322.224 1532.46 320.857 1534.27 318.124C1536.07 315.391 1536.97 311.14 1536.97 305.373C1536.97 301.601 1536.62 298.471 1535.91 295.984C1535.2 293.469 1534.12 291.597 1532.67 290.367C1531.22 289.11 1529.36 288.481 1527.09 288.481ZM1592.86 324.848C1591.39 325.832 1589.6 326.597 1587.49 327.144C1585.39 327.691 1583.33 327.964 1581.3 327.964C1576.66 327.964 1573.08 326.748 1570.56 324.315C1568.05 321.882 1566.79 318.753 1566.79 314.926V289.178H1556.87V283.848H1566.79V274.049L1573.68 273.229V283.848H1588.6L1587.78 289.178H1573.68V314.844C1573.68 317.249 1574.31 319.081 1575.56 320.338C1576.85 321.595 1578.97 322.224 1581.92 322.224C1583.53 322.224 1585.02 322.033 1586.39 321.65C1587.75 321.267 1589.02 320.775 1590.2 320.174L1592.86 324.848Z" fill="white"/>
<g filter="url(#filter0_d_624_50)">
<g filter="url(#filter1_d_624_50)">
<path fill-rule="evenodd" clip-rule="evenodd" d="M254 643V649.252V993H542V643H254ZM266.522 655.504H529.478V880.51H266.522V655.504ZM366.696 674.188V667.935H429.304V717.953H404.408V755.417H479.538V802.87L508.715 832.031L473.302 867.395L437.864 832.031L467.016 802.919V767.922H404.408H329.277V806.363C340.022 809.174 348.06 818.922 348.06 830.492C348.06 844.231 336.773 855.501 323.016 855.501C309.259 855.501 297.973 844.231 297.973 830.492C297.973 818.922 306.01 809.174 316.755 806.363V755.417H391.886V717.953H366.696V674.188ZM379.217 680.44H416.783V705.449H379.217V680.44ZM491.008 832.031L473.302 814.349L455.571 832.031L473.302 849.713L491.008 832.031ZM323.016 817.988C330.006 817.988 335.538 823.512 335.538 830.492C335.538 837.472 330.006 842.997 323.016 842.997C316.027 842.997 310.495 837.472 310.495 830.492C310.495 823.512 316.027 817.988 323.016 817.988ZM391.739 893.014H266.522V980.496H391.739V893.014ZM404.261 893.014H529.478V980.496H404.261V893.014ZM279.043 918.023V905.518H379.217V918.023H279.043ZM423.043 905.518V918.023H510.696V905.518H423.043ZM423.043 943.031V930.527H510.696V943.031H423.043ZM279.043 955.536V968.04H379.217V955.536H279.043ZM423.043 968.04V955.536H510.696V968.04H423.043Z" fill="url(#paint1_linear_624_50)"/>
</g>
</g>
<g filter="url(#filter2_d_624_50)">
<g clip-path="url(#clip1_624_50)">
<path d="M1688.53 640H1404.47C1385.43 640 1370 655.434 1370 674.473V958.527C1370 977.566 1385.43 993 1404.47 993H1688.53C1707.57 993 1723 977.566 1723 958.527V674.473C1723 655.434 1707.57 640 1688.53 640Z" fill="url(#paint2_linear_624_50)"/>
<path fill-rule="evenodd" clip-rule="evenodd" d="M1588.56 920.607V955.08C1594.14 957.976 1600.97 960.113 1608.55 961.561C1616.13 963.009 1624.41 963.698 1632.68 963.698C1640.96 963.698 1648.54 962.94 1656.12 961.354C1663.71 959.768 1669.91 957.148 1675.43 953.77C1681.01 950.116 1685.77 945.497 1688.53 939.291C1691.29 933.086 1693.42 926.192 1693.42 917.229C1693.42 910.955 1692.46 905.508 1690.6 900.682C1688.73 895.856 1686.05 891.719 1682.32 888.272C1678.81 884.618 1674.74 881.377 1669.91 878.62C1665.09 875.862 1659.57 872.966 1653.37 870.346C1648.81 868.485 1645.09 866.692 1640.96 864.899C1637.37 863.107 1634.27 861.314 1631.99 859.522C1629.44 857.66 1627.51 855.73 1626.13 853.73C1624.75 851.662 1624.06 849.387 1624.06 846.836C1624.06 844.492 1624.68 842.354 1625.93 840.424C1627.17 838.493 1628.89 836.908 1631.1 835.529C1633.3 834.15 1636.06 833.116 1639.37 832.357C1642.61 831.599 1646.19 831.254 1650.4 831.254C1653.3 831.254 1656.33 831.468 1659.36 831.902C1662.53 832.337 1665.78 833.005 1669.02 833.902C1672.26 834.798 1675.43 835.901 1678.67 837.28C1681.7 838.659 1684.53 840.245 1686.94 842.037V809.633C1681.7 807.633 1675.91 806.117 1669.71 805.151C1663.5 804.186 1656.61 803.704 1648.33 803.704C1640.06 803.704 1632.47 804.6 1624.89 806.324C1617.31 808.047 1611.1 810.805 1605.59 814.597C1600 818.32 1595.93 822.87 1592.49 829.075C1589.25 834.867 1587.66 841.486 1587.66 849.759C1587.66 860.101 1590.63 869.064 1596.62 875.958C1602.55 883.542 1611.79 889.058 1623.51 894.574C1628.27 896.504 1632.47 898.434 1636.61 900.296C1640.75 902.158 1644.2 904.088 1646.95 906.087C1649.92 908.087 1652.26 910.293 1653.85 912.637C1655.57 914.981 1656.47 917.739 1656.47 920.911C1656.47 923.117 1655.93 925.185 1654.88 927.116C1653.83 929.046 1652.19 930.701 1649.99 932.08C1647.78 933.459 1645.09 934.562 1641.71 935.389C1638.47 936.148 1634.82 936.561 1629.99 936.561C1622.41 936.561 1614.82 935.251 1607.93 932.631C1600.35 930.011 1593.45 926.082 1587.25 920.911L1588.56 920.607ZM1530.64 835.805H1574.77V807.537H1451.36V835.805H1495.48V961.974H1530.64V835.805Z" fill="white"/>
</g>
</g>
</g>
<defs>
<filter id="filter0_d_624_50" x="250" y="643" width="296" height="358" filterUnits="userSpaceOnUse" color-interpolation-filters="sRGB">
<feFlood flood-opacity="0" result="BackgroundImageFix"/>
<feColorMatrix in="SourceAlpha" type="matrix" values="0 0 0 0 0 0 0 0 0 0 0 0 0 0 0 0 0 0 127 0" result="hardAlpha"/>
<feOffset dy="4"/>
<feGaussianBlur stdDeviation="2"/>
<feComposite in2="hardAlpha" operator="out"/>
<feColorMatrix type="matrix" values="0 0 0 0 0 0 0 0 0 0 0 0 0 0 0 0 0 0 0.25 0"/>
<feBlend mode="normal" in2="BackgroundImageFix" result="effect1_dropShadow_624_50"/>
<feBlend mode="normal" in="SourceGraphic" in2="effect1_dropShadow_624_50" result="shape"/>
</filter>
<filter id="filter1_d_624_50" x="242" y="631" width="328" height="390" filterUnits="userSpaceOnUse" color-interpolation-filters="sRGB">
<feFlood flood-opacity="0" result="BackgroundImageFix"/>
<feColorMatrix in="SourceAlpha" type="matrix" values="0 0 0 0 0 0 0 0 0 0 0 0 0 0 0 0 0 0 127 0" result="hardAlpha"/>
<feOffset dx="8" dy="8"/>
<feGaussianBlur stdDeviation="10"/>
<feColorMatrix type="matrix" values="0 0 0 0 0 0 0 0 0 0 0 0 0 0 0 0 0 0 0.5 0"/>
<feBlend mode="normal" in2="BackgroundImageFix" result="effect1_dropShadow_624_50"/>
<feBlend mode="normal" in="SourceGraphic" in2="effect1_dropShadow_624_50" result="shape"/>
</filter>
<filter id="filter2_d_624_50" x="1370" y="640" width="361" height="361" filterUnits="userSpaceOnUse" color-interpolation-filters="sRGB">
<feFlood flood-opacity="0" result="BackgroundImageFix"/>
<feColorMatrix in="SourceAlpha" type="matrix" values="0 0 0 0 0 0 0 0 0 0 0 0 0 0 0 0 0 0 127 0" result="hardAlpha"/>
<feOffset dx="4" dy="4"/>
<feGaussianBlur stdDeviation="2"/>
<feColorMatrix type="matrix" values="0 0 0 0 0 0 0 0 0 0 0 0 0 0 0 0 0 0 0.25 0"/>
<feBlend mode="normal" in2="BackgroundImageFix" result="effect1_dropShadow_624_50"/>
<feBlend mode="normal" in="SourceGraphic" in2="effect1_dropShadow_624_50" result="shape"/>
</filter>
<linearGradient id="paint0_linear_624_50" x1="960" y1="0" x2="960" y2="1080" gradientUnits="userSpaceOnUse">
<stop stop-color="#323232"/>
<stop offset="1"/>
</linearGradient>
<linearGradient id="paint1_linear_624_50" x1="398" y1="643" x2="398" y2="993" gradientUnits="userSpaceOnUse">
<stop stop-color="#B32BD5"/>
<stop offset="1" stop-color="#DA3C8E"/>
</linearGradient>
<linearGradient id="paint2_linear_624_50" x1="1546.5" y1="640" x2="1546.5" y2="993" gradientUnits="userSpaceOnUse">
<stop stop-color="#B32BD5"/>
<stop offset="1" stop-color="#DA3C8E"/>
</linearGradient>
<clipPath id="clip0_624_50">
<rect width="1920" height="1080" fill="white"/>
</clipPath>
<clipPath id="clip1_624_50">
<rect width="353" height="353" fill="white" transform="translate(1370 640)"/>
</clipPath>
</defs>
</svg>
