<svg width="2172" height="1166" viewBox="0 0 2172 1166" fill="none" xmlns="http://www.w3.org/2000/svg">
<rect width="2172" height="1166" rx="20" fill="#1B1C1E"/>
<rect width="2172" height="1166" rx="20" fill="#1B1C1E"/>
<path d="M206.145 394.205L187.655 384.96V380.66L206.145 371.415V375.156L192.815 381.692C192.27 381.95 191.754 382.179 191.267 382.38C190.808 382.552 190.464 382.667 190.235 382.724C190.493 382.781 190.866 382.91 191.353 383.111C191.84 383.283 192.328 383.498 192.815 383.756L206.145 390.335V394.205ZM265.005 394.205V390.464L278.335 383.928C278.879 383.67 279.381 383.455 279.84 383.283C280.327 383.082 280.685 382.953 280.915 382.896C280.657 382.839 280.284 382.724 279.797 382.552C279.309 382.351 278.822 382.122 278.335 381.864L265.005 375.285V371.415L283.495 380.66V384.96L265.005 394.205ZM257.711 473.205L239.221 463.96V459.66L257.711 450.415V454.156L244.381 460.692C243.837 460.95 243.321 461.179 242.833 461.38C242.375 461.552 242.031 461.667 241.801 461.724C242.059 461.781 242.432 461.91 242.919 462.111C243.407 462.283 243.894 462.498 244.381 462.756L257.711 469.335V473.205ZM316.571 473.205V469.464L329.901 462.928C330.446 462.67 330.947 462.455 331.406 462.283C331.893 462.082 332.252 461.953 332.481 461.896C332.223 461.839 331.85 461.724 331.363 461.552C330.876 461.351 330.388 461.122 329.901 460.864L316.571 454.285V450.415L335.061 459.66V463.96L316.571 473.205ZM309.278 552.205L290.788 542.96V538.66L309.278 529.415V533.156L295.948 539.692C295.403 539.95 294.887 540.179 294.4 540.38C293.941 540.552 293.597 540.667 293.368 540.724C293.626 540.781 293.998 540.91 294.486 541.111C294.973 541.283 295.46 541.498 295.948 541.756L309.278 548.335V552.205ZM393.921 552.205V548.464L407.251 541.928C407.795 541.67 408.297 541.455 408.756 541.283C409.243 541.082 409.601 540.953 409.831 540.896C409.573 540.839 409.2 540.724 408.713 540.552C408.225 540.351 407.738 540.122 407.251 539.864L393.921 533.285V529.415L412.411 538.66V542.96L393.921 552.205ZM443.552 559.73L445.401 554.871L421.622 542.96V538.66L440.112 529.415V533.285L426.782 539.778C426.295 540.036 425.85 540.251 425.449 540.423C425.048 540.595 424.747 540.71 424.546 540.767C424.747 540.824 425.048 540.939 425.449 541.111C425.85 541.283 426.295 541.498 426.782 541.756L446.605 551.646L458.817 519.31H462.902L447.637 559.73H443.552ZM548.62 552.205V548.464L561.95 541.928C562.495 541.67 562.996 541.455 563.455 541.283C563.942 541.082 564.301 540.953 564.53 540.896C564.272 540.839 563.899 540.724 563.412 540.552C562.925 540.351 562.437 540.122 561.95 539.864L548.62 533.285V529.415L567.11 538.66V542.96L548.62 552.205ZM263.07 638.73L264.919 633.871L241.14 621.96V617.66L259.63 608.415V612.285L246.3 618.778C245.812 619.036 245.368 619.251 244.967 619.423C244.565 619.595 244.264 619.71 244.064 619.767C244.264 619.824 244.565 619.939 244.967 620.111C245.368 620.283 245.812 620.498 246.3 620.756L266.123 630.646L278.335 598.31H282.42L267.155 638.73H263.07ZM342.354 631.205V627.464L355.684 620.928C356.229 620.67 356.731 620.455 357.189 620.283C357.677 620.082 358.035 619.953 358.264 619.896C358.006 619.839 357.634 619.724 357.146 619.552C356.659 619.351 356.172 619.122 355.684 618.864L342.354 612.285V608.415L360.844 617.66V621.96L342.354 631.205ZM257.711 710.205L239.221 700.96V696.66L257.711 687.415V691.156L244.381 697.692C243.837 697.95 243.321 698.179 242.833 698.38C242.375 698.552 242.031 698.667 241.801 698.724C242.059 698.781 242.432 698.91 242.919 699.111C243.407 699.283 243.894 699.498 244.381 699.756L257.711 706.335V710.205ZM316.571 710.205V706.464L329.901 699.928C330.446 699.67 330.947 699.455 331.406 699.283C331.893 699.082 332.252 698.953 332.481 698.896C332.223 698.839 331.85 698.724 331.363 698.552C330.876 698.351 330.388 698.122 329.901 697.864L316.571 691.285V687.415L335.061 696.66V700.96L316.571 710.205ZM366.202 717.73L368.051 712.871L344.272 700.96V696.66L362.762 687.415V691.285L349.432 697.778C348.945 698.036 348.501 698.251 348.099 698.423C347.698 698.595 347.397 698.71 347.196 698.767C347.397 698.824 347.698 698.939 348.099 699.111C348.501 699.283 348.945 699.498 349.432 699.756L369.255 709.646L381.467 677.31H385.552L370.287 717.73H366.202ZM445.487 710.205V706.464L458.817 699.928C459.362 699.67 459.863 699.455 460.322 699.283C460.809 699.082 461.168 698.953 461.397 698.896C461.139 698.839 460.766 698.724 460.279 698.552C459.792 698.351 459.304 698.122 458.817 697.864L445.487 691.285V687.415L463.977 696.66V700.96L445.487 710.205ZM211.503 796.73L213.352 791.871L189.573 779.96V775.66L208.063 766.415V770.285L194.733 776.778C194.246 777.036 193.802 777.251 193.4 777.423C192.999 777.595 192.698 777.71 192.497 777.767C192.698 777.824 192.999 777.939 193.4 778.111C193.802 778.283 194.246 778.498 194.733 778.756L214.556 788.646L226.768 756.31H230.853L215.588 796.73H211.503ZM290.788 789.205V785.464L304.118 778.928C304.662 778.67 305.164 778.455 305.623 778.283C306.11 778.082 306.468 777.953 306.698 777.896C306.44 777.839 306.067 777.724 305.58 777.552C305.092 777.351 304.605 777.122 304.118 776.864L290.788 770.285V766.415L309.278 775.66V779.96L290.788 789.205Z" fill="#6C6E72"/>
<path d="M222.64 397.43C219.917 397.43 217.738 396.627 216.104 395.022C214.47 393.388 213.653 391.181 213.653 388.4V373.35H217.523V388.4C217.523 390.177 217.982 391.568 218.899 392.571C219.817 393.546 221.064 394.033 222.64 394.033C224.246 394.033 225.507 393.546 226.424 392.571C227.37 391.568 227.843 390.177 227.843 388.4V373.35H231.713V388.4C231.713 391.181 230.882 393.388 229.219 395.022C227.557 396.627 225.364 397.43 222.64 397.43ZM251.691 397C250.315 397 249.111 396.728 248.079 396.183C247.047 395.638 246.245 394.864 245.671 393.861C245.098 392.858 244.811 391.682 244.811 390.335V369.136H236.856V365.61H248.681V390.335C248.681 391.31 248.954 392.084 249.498 392.657C250.043 393.202 250.774 393.474 251.691 393.474H259.216V397H251.691ZM248.423 792.43C245.7 792.43 243.521 791.627 241.887 790.022C240.253 788.388 239.436 786.181 239.436 783.4V768.35H243.306V783.4C243.306 785.177 243.765 786.568 244.682 787.571C245.6 788.546 246.847 789.033 248.423 789.033C250.029 789.033 251.29 788.546 252.207 787.571C253.153 786.568 253.626 785.177 253.626 783.4V768.35H257.496V783.4C257.496 786.181 256.665 788.388 255.002 790.022C253.34 791.627 251.147 792.43 248.423 792.43ZM277.475 792C276.099 792 274.895 791.728 273.863 791.183C272.831 790.638 272.028 789.864 271.455 788.861C270.881 787.858 270.595 786.682 270.595 785.335V764.136H262.64V760.61H274.465V785.335C274.465 786.31 274.737 787.084 275.282 787.657C275.826 788.202 276.557 788.474 277.475 788.474H285V792H277.475Z" fill="#44E61C"/>
<path d="M277.475 476C276.099 476 274.895 475.728 273.863 475.183C272.831 474.638 272.028 473.864 271.455 472.861C270.881 471.858 270.595 470.682 270.595 469.335V448.136H262.64V444.61H274.465V469.335C274.465 470.31 274.737 471.084 275.282 471.657C275.826 472.202 276.557 472.474 277.475 472.474H285V476H277.475ZM290.788 476V472.474H299.173V455.876H291.863V452.35H303.043V472.474H310.998V476H290.788ZM300.678 448.093C299.732 448.093 298.986 447.849 298.442 447.362C297.897 446.875 297.625 446.215 297.625 445.384C297.625 444.524 297.897 443.85 298.442 443.363C298.986 442.847 299.732 442.589 300.678 442.589C301.624 442.589 302.369 442.847 302.914 443.363C303.458 443.85 303.731 444.524 303.731 445.384C303.731 446.215 303.458 446.875 302.914 447.362C302.369 447.849 301.624 448.093 300.678 448.093ZM303.258 634C301.882 634 300.678 633.728 299.646 633.183C298.614 632.638 297.811 631.864 297.238 630.861C296.664 629.858 296.378 628.682 296.378 627.335V606.136H288.423V602.61H300.248V627.335C300.248 628.31 300.52 629.084 301.065 629.657C301.609 630.202 302.34 630.474 303.258 630.474H310.783V634H303.258ZM316.571 634V630.474H324.956V613.876H317.646V610.35H328.826V630.474H336.781V634H316.571ZM326.461 606.093C325.515 606.093 324.77 605.849 324.225 605.362C323.68 604.875 323.408 604.215 323.408 603.384C323.408 602.524 323.68 601.85 324.225 601.363C324.77 600.847 325.515 600.589 326.461 600.589C327.407 600.589 328.152 600.847 328.697 601.363C329.242 601.85 329.514 602.524 329.514 603.384C329.514 604.215 329.242 604.875 328.697 605.362C328.152 605.849 327.407 606.093 326.461 606.093ZM277.475 713C276.099 713 274.895 712.728 273.863 712.183C272.831 711.638 272.028 710.864 271.455 709.861C270.881 708.858 270.595 707.682 270.595 706.335V685.136H262.64V681.61H274.465V706.335C274.465 707.31 274.737 708.084 275.282 708.657C275.826 709.202 276.557 709.474 277.475 709.474H285V713H277.475ZM290.788 713V709.474H299.173V692.876H291.863V689.35H303.043V709.474H310.998V713H290.788ZM300.678 685.093C299.732 685.093 298.986 684.849 298.442 684.362C297.897 683.875 297.625 683.215 297.625 682.384C297.625 681.524 297.897 680.85 298.442 680.363C298.986 679.847 299.732 679.589 300.678 679.589C301.624 679.589 302.369 679.847 302.914 680.363C303.458 680.85 303.731 681.524 303.731 682.384C303.731 683.215 303.458 683.875 302.914 684.362C302.369 684.849 301.624 685.093 300.678 685.093ZM406.391 713C405.015 713 403.811 712.728 402.779 712.183C401.747 711.638 400.944 710.864 400.371 709.861C399.797 708.858 399.511 707.682 399.511 706.335V685.136H391.556V681.61H403.381V706.335C403.381 707.31 403.653 708.084 404.198 708.657C404.742 709.202 405.473 709.474 406.391 709.474H413.916V713H406.391ZM419.704 713V709.474H428.089V692.876H420.779V689.35H431.959V709.474H439.914V713H419.704ZM429.594 685.093C428.648 685.093 427.902 684.849 427.358 684.362C426.813 683.875 426.541 683.215 426.541 682.384C426.541 681.524 426.813 680.85 427.358 680.363C427.902 679.847 428.648 679.589 429.594 679.589C430.54 679.589 431.285 679.847 431.83 680.363C432.374 680.85 432.647 681.524 432.647 682.384C432.647 683.215 432.374 683.875 431.83 684.362C431.285 684.849 430.54 685.093 429.594 685.093Z" fill="#F1D900"/>
<path d="M324.44 555.43C322.089 555.43 320.183 554.642 318.721 553.065C317.288 551.488 316.571 549.353 316.571 546.658V539.735C316.571 537.012 317.288 534.862 318.721 533.285C320.154 531.708 322.061 530.92 324.44 530.92C326.389 530.92 327.952 531.45 329.127 532.511C330.302 533.572 330.89 534.991 330.89 536.768L330.116 535.865H330.976L330.89 530.49V523.61H334.76V555H330.89V550.485H330.116L330.89 549.582C330.89 551.388 330.302 552.821 329.127 553.882C327.952 554.914 326.389 555.43 324.44 555.43ZM325.73 552.076C327.335 552.076 328.597 551.574 329.514 550.571C330.431 549.568 330.89 548.177 330.89 546.4V539.95C330.89 538.173 330.431 536.782 329.514 535.779C328.597 534.776 327.335 534.274 325.73 534.274C324.096 534.274 322.806 534.761 321.86 535.736C320.914 536.711 320.441 538.115 320.441 539.95V546.4C320.441 548.235 320.914 549.639 321.86 550.614C322.806 551.589 324.096 552.076 325.73 552.076ZM342.354 555V551.474H350.739V534.876H343.429V531.35H354.609V551.474H362.564V555H342.354ZM352.244 527.093C351.298 527.093 350.553 526.849 350.008 526.362C349.464 525.875 349.191 525.215 349.191 524.384C349.191 523.524 349.464 522.85 350.008 522.363C350.553 521.847 351.298 521.589 352.244 521.589C353.19 521.589 353.936 521.847 354.48 522.363C355.025 522.85 355.297 523.524 355.297 524.384C355.297 525.215 355.025 525.875 354.48 526.362C353.936 526.849 353.19 527.093 352.244 527.093ZM374.759 555L366.847 531.35H370.803L376.049 547.26C376.365 548.206 376.651 549.123 376.909 550.012C377.167 550.872 377.354 551.546 377.468 552.033C377.612 551.546 377.812 550.872 378.07 550.012C378.328 549.123 378.601 548.206 378.887 547.26L384.004 531.35H387.917L380.005 555H374.759ZM479.139 555.43C476.789 555.43 474.882 554.642 473.42 553.065C471.987 551.488 471.27 549.353 471.27 546.658V539.735C471.27 537.012 471.987 534.862 473.42 533.285C474.854 531.708 476.76 530.92 479.139 530.92C481.089 530.92 482.651 531.45 483.826 532.511C485.002 533.572 485.589 534.991 485.589 536.768L484.815 535.865H485.675L485.589 530.49V523.61H489.459V555H485.589V550.485H484.815L485.589 549.582C485.589 551.388 485.002 552.821 483.826 553.882C482.651 554.914 481.089 555.43 479.139 555.43ZM480.429 552.076C482.035 552.076 483.296 551.574 484.213 550.571C485.131 549.568 485.589 548.177 485.589 546.4V539.95C485.589 538.173 485.131 536.782 484.213 535.779C483.296 534.776 482.035 534.274 480.429 534.274C478.795 534.274 477.505 534.761 476.559 535.736C475.613 536.711 475.14 538.115 475.14 539.95V546.4C475.14 548.235 475.613 549.639 476.559 550.614C477.505 551.589 478.795 552.076 480.429 552.076ZM497.053 555V551.474H505.438V534.876H498.128V531.35H509.308V551.474H517.263V555H497.053ZM506.943 527.093C505.997 527.093 505.252 526.849 504.707 526.362C504.163 525.875 503.89 525.215 503.89 524.384C503.89 523.524 504.163 522.85 504.707 522.363C505.252 521.847 505.997 521.589 506.943 521.589C507.889 521.589 508.635 521.847 509.179 522.363C509.724 522.85 509.996 523.524 509.996 524.384C509.996 525.215 509.724 525.875 509.179 526.362C508.635 526.849 507.889 527.093 506.943 527.093ZM529.459 555L521.547 531.35H525.503L530.749 547.26C531.064 548.206 531.351 549.123 531.609 550.012C531.867 550.872 532.053 551.546 532.168 552.033C532.311 551.546 532.512 550.872 532.77 550.012C533.028 549.123 533.3 548.206 533.587 547.26L538.704 531.35H542.617L534.705 555H529.459Z" fill="#FF00C7"/>
<rect x="236.5" y="425.5" width="844" height="322" rx="18.5" stroke="#F1D900" stroke-width="3"/>
<rect x="185.5" y="313.5" width="940" height="538" rx="18.5" stroke="#44E61C" stroke-width="3"/>
<rect x="288.5" y="502.5" width="725" height="78" rx="18.5" stroke="#FF00C7" stroke-width="3"/>
<path d="M943.524 359.43C941.173 359.43 939.267 358.642 937.805 357.065C936.372 355.488 935.655 353.353 935.655 350.658V343.735C935.655 341.012 936.372 338.862 937.805 337.285C939.238 335.708 941.145 334.92 943.524 334.92C945.473 334.92 947.036 335.45 948.211 336.511C949.386 337.572 949.974 338.991 949.974 340.768L949.2 339.865H950.06L949.974 334.49V327.61H953.844V359H949.974V354.485H949.2L949.974 353.582C949.974 355.388 949.386 356.821 948.211 357.882C947.036 358.914 945.473 359.43 943.524 359.43ZM944.814 356.076C946.419 356.076 947.681 355.574 948.598 354.571C949.515 353.568 949.974 352.177 949.974 350.4V343.95C949.974 342.173 949.515 340.782 948.598 339.779C947.681 338.776 946.419 338.274 944.814 338.274C943.18 338.274 941.89 338.761 940.944 339.736C939.998 340.711 939.525 342.115 939.525 343.95V350.4C939.525 352.235 939.998 353.639 940.944 354.614C941.89 355.589 943.18 356.076 944.814 356.076ZM970.683 359.43C968.82 359.43 967.186 359.057 965.781 358.312C964.405 357.567 963.33 356.52 962.556 355.173C961.811 353.797 961.438 352.206 961.438 350.4V343.95C961.438 342.115 961.811 340.524 962.556 339.177C963.33 337.83 964.405 336.783 965.781 336.038C967.186 335.293 968.82 334.92 970.683 334.92C972.547 334.92 974.166 335.293 975.542 336.038C976.947 336.783 978.022 337.83 978.767 339.177C979.541 340.524 979.928 342.115 979.928 343.95V348.121H965.222V350.4C965.222 352.263 965.695 353.697 966.641 354.7C967.587 355.675 968.935 356.162 970.683 356.162C972.174 356.162 973.378 355.904 974.295 355.388C975.213 354.843 975.772 354.041 975.972 352.98H979.842C979.584 354.958 978.61 356.535 976.918 357.71C975.256 358.857 973.177 359.43 970.683 359.43ZM976.144 345.541V343.95C976.144 342.087 975.671 340.653 974.725 339.65C973.808 338.647 972.461 338.145 970.683 338.145C968.935 338.145 967.587 338.647 966.641 339.65C965.695 340.653 965.222 342.087 965.222 343.95V345.197H976.445L976.144 345.541ZM987.522 366.74V335.35H991.392V339.865H992.166L991.392 340.768C991.392 338.962 991.98 337.543 993.155 336.511C994.359 335.45 995.936 334.92 997.885 334.92C1000.26 334.92 1002.16 335.708 1003.56 337.285C1004.99 338.833 1005.71 340.969 1005.71 343.692V350.615C1005.71 352.421 1005.38 353.983 1004.72 355.302C1004.09 356.621 1003.19 357.638 1002.01 358.355C1000.87 359.072 999.491 359.43 997.885 359.43C995.965 359.43 994.402 358.9 993.198 357.839C991.994 356.778 991.392 355.359 991.392 353.582L992.166 354.485H991.306L991.392 359.86V366.74H987.522ZM996.595 356.076C998.229 356.076 999.505 355.589 1000.42 354.614C1001.37 353.639 1001.84 352.235 1001.84 350.4V343.95C1001.84 342.115 1001.37 340.711 1000.42 339.736C999.505 338.761 998.229 338.274 996.595 338.274C995.019 338.274 993.757 338.776 992.811 339.779C991.865 340.782 991.392 342.173 991.392 343.95V350.4C991.392 352.177 991.865 353.568 992.811 354.571C993.757 355.574 995.019 356.076 996.595 356.076ZM1024.83 359C1022.79 359 1021.2 358.455 1020.06 357.366C1018.94 356.277 1018.38 354.743 1018.38 352.765V338.876H1011.71V335.35H1018.38V328.685H1022.25V335.35H1031.71V338.876H1022.25V352.765C1022.25 354.571 1023.11 355.474 1024.83 355.474H1031.28V359H1024.83ZM1039.09 359V327.61H1042.96V335.35V339.865H1043.78L1042.96 340.768C1042.96 338.905 1043.52 337.471 1044.64 336.468C1045.75 335.436 1047.3 334.92 1049.28 334.92C1051.66 334.92 1053.55 335.651 1054.96 337.113C1056.36 338.575 1057.06 340.567 1057.06 343.09V359H1053.19V343.52C1053.19 341.829 1052.73 340.524 1051.82 339.607C1050.93 338.661 1049.71 338.188 1048.16 338.188C1046.56 338.188 1045.28 338.69 1044.33 339.693C1043.42 340.696 1042.96 342.115 1042.96 343.95V359H1039.09Z" fill="#007ACC"/>
<path d="M1099.6 359.43C1097.68 359.43 1096 359.057 1094.57 358.312C1093.16 357.538 1092.07 356.463 1091.3 355.087C1090.53 353.682 1090.14 352.048 1090.14 350.185V336.425C1090.14 334.533 1090.53 332.899 1091.3 331.523C1092.07 330.147 1093.16 329.086 1094.57 328.341C1096 327.567 1097.68 327.18 1099.6 327.18C1101.55 327.18 1103.23 327.567 1104.63 328.341C1106.03 329.086 1107.12 330.147 1107.9 331.523C1108.67 332.899 1109.06 334.533 1109.06 336.425V350.185C1109.06 352.048 1108.67 353.682 1107.9 355.087C1107.12 356.463 1106.02 357.538 1104.59 358.312C1103.18 359.057 1101.52 359.43 1099.6 359.43ZM1099.6 356.119C1101.32 356.119 1102.7 355.574 1103.73 354.485C1104.79 353.367 1105.32 351.934 1105.32 350.185V336.425C1105.32 334.676 1104.79 333.257 1103.73 332.168C1102.7 331.05 1101.32 330.491 1099.6 330.491C1097.88 330.491 1096.49 331.05 1095.43 332.168C1094.4 333.257 1093.88 334.676 1093.88 336.425V350.185C1093.88 351.934 1094.4 353.367 1095.43 354.485C1096.49 355.574 1097.88 356.119 1099.6 356.119ZM1099.6 345.842C1098.83 345.842 1098.19 345.598 1097.71 345.111C1097.25 344.624 1097.02 343.979 1097.02 343.176C1097.02 342.402 1097.25 341.786 1097.71 341.327C1098.19 340.84 1098.83 340.596 1099.6 340.596C1100.37 340.596 1100.99 340.84 1101.45 341.327C1101.94 341.786 1102.18 342.402 1102.18 343.176C1102.18 343.979 1101.94 344.624 1101.45 345.111C1100.99 345.598 1100.37 345.842 1099.6 345.842Z" fill="#44E61C"/>
<path d="M901.524 471.43C899.173 471.43 897.267 470.642 895.805 469.065C894.372 467.488 893.655 465.353 893.655 462.658V455.735C893.655 453.012 894.372 450.862 895.805 449.285C897.238 447.708 899.145 446.92 901.524 446.92C903.473 446.92 905.036 447.45 906.211 448.511C907.386 449.572 907.974 450.991 907.974 452.768L907.2 451.865H908.06L907.974 446.49V439.61H911.844V471H907.974V466.485H907.2L907.974 465.582C907.974 467.388 907.386 468.821 906.211 469.882C905.036 470.914 903.473 471.43 901.524 471.43ZM902.814 468.076C904.419 468.076 905.681 467.574 906.598 466.571C907.515 465.568 907.974 464.177 907.974 462.4V455.95C907.974 454.173 907.515 452.782 906.598 451.779C905.681 450.776 904.419 450.274 902.814 450.274C901.18 450.274 899.89 450.761 898.944 451.736C897.998 452.711 897.525 454.115 897.525 455.95V462.4C897.525 464.235 897.998 465.639 898.944 466.614C899.89 467.589 901.18 468.076 902.814 468.076ZM928.683 471.43C926.82 471.43 925.186 471.057 923.781 470.312C922.405 469.567 921.33 468.52 920.556 467.173C919.811 465.797 919.438 464.206 919.438 462.4V455.95C919.438 454.115 919.811 452.524 920.556 451.177C921.33 449.83 922.405 448.783 923.781 448.038C925.186 447.293 926.82 446.92 928.683 446.92C930.547 446.92 932.166 447.293 933.542 448.038C934.947 448.783 936.022 449.83 936.767 451.177C937.541 452.524 937.928 454.115 937.928 455.95V460.121H923.222V462.4C923.222 464.263 923.695 465.697 924.641 466.7C925.587 467.675 926.935 468.162 928.683 468.162C930.174 468.162 931.378 467.904 932.295 467.388C933.213 466.843 933.772 466.041 933.972 464.98H937.842C937.584 466.958 936.61 468.535 934.918 469.71C933.256 470.857 931.177 471.43 928.683 471.43ZM934.144 457.541V455.95C934.144 454.087 933.671 452.653 932.725 451.65C931.808 450.647 930.461 450.145 928.683 450.145C926.935 450.145 925.587 450.647 924.641 451.65C923.695 452.653 923.222 454.087 923.222 455.95V457.197H934.445L934.144 457.541ZM945.522 478.74V447.35H949.392V451.865H950.166L949.392 452.768C949.392 450.962 949.98 449.543 951.155 448.511C952.359 447.45 953.936 446.92 955.885 446.92C958.265 446.92 960.157 447.708 961.561 449.285C962.995 450.833 963.711 452.969 963.711 455.692V462.615C963.711 464.421 963.382 465.983 962.722 467.302C962.092 468.621 961.189 469.638 960.013 470.355C958.867 471.072 957.491 471.43 955.885 471.43C953.965 471.43 952.402 470.9 951.198 469.839C949.994 468.778 949.392 467.359 949.392 465.582L950.166 466.485H949.306L949.392 471.86V478.74H945.522ZM954.595 468.076C956.229 468.076 957.505 467.589 958.422 466.614C959.368 465.639 959.841 464.235 959.841 462.4V455.95C959.841 454.115 959.368 452.711 958.422 451.736C957.505 450.761 956.229 450.274 954.595 450.274C953.019 450.274 951.757 450.776 950.811 451.779C949.865 452.782 949.392 454.173 949.392 455.95V462.4C949.392 464.177 949.865 465.568 950.811 466.571C951.757 467.574 953.019 468.076 954.595 468.076ZM982.83 471C980.794 471 979.203 470.455 978.057 469.366C976.939 468.277 976.38 466.743 976.38 464.765V450.876H969.715V447.35H976.38V440.685H980.25V447.35H989.71V450.876H980.25V464.765C980.25 466.571 981.11 467.474 982.83 467.474H989.28V471H982.83ZM997.089 471V439.61H1000.96V447.35V451.865H1001.78L1000.96 452.768C1000.96 450.905 1001.52 449.471 1002.64 448.468C1003.75 447.436 1005.3 446.92 1007.28 446.92C1009.66 446.92 1011.55 447.651 1012.96 449.113C1014.36 450.575 1015.06 452.567 1015.06 455.09V471H1011.19V455.52C1011.19 453.829 1010.73 452.524 1009.82 451.607C1008.93 450.661 1007.71 450.188 1006.16 450.188C1004.56 450.188 1003.28 450.69 1002.33 451.693C1001.42 452.696 1000.96 454.115 1000.96 455.95V471H997.089Z" fill="#007ACC"/>
<path d="M1048.57 471V467.474H1057.08V442.835L1048.57 449.199V444.899L1055.66 439.61H1060.95V467.474H1067.92V471H1048.57Z" fill="#F1D900"/>
<path d="M832.524 549.43C830.173 549.43 828.267 548.642 826.805 547.065C825.372 545.488 824.655 543.353 824.655 540.658V533.735C824.655 531.012 825.372 528.862 826.805 527.285C828.238 525.708 830.145 524.92 832.524 524.92C834.473 524.92 836.036 525.45 837.211 526.511C838.386 527.572 838.974 528.991 838.974 530.768L838.2 529.865H839.06L838.974 524.49V517.61H842.844V549H838.974V544.485H838.2L838.974 543.582C838.974 545.388 838.386 546.821 837.211 547.882C836.036 548.914 834.473 549.43 832.524 549.43ZM833.814 546.076C835.419 546.076 836.681 545.574 837.598 544.571C838.515 543.568 838.974 542.177 838.974 540.4V533.95C838.974 532.173 838.515 530.782 837.598 529.779C836.681 528.776 835.419 528.274 833.814 528.274C832.18 528.274 830.89 528.761 829.944 529.736C828.998 530.711 828.525 532.115 828.525 533.95V540.4C828.525 542.235 828.998 543.639 829.944 544.614C830.89 545.589 832.18 546.076 833.814 546.076ZM859.683 549.43C857.82 549.43 856.186 549.057 854.781 548.312C853.405 547.567 852.33 546.52 851.556 545.173C850.811 543.797 850.438 542.206 850.438 540.4V533.95C850.438 532.115 850.811 530.524 851.556 529.177C852.33 527.83 853.405 526.783 854.781 526.038C856.186 525.293 857.82 524.92 859.683 524.92C861.547 524.92 863.166 525.293 864.542 526.038C865.947 526.783 867.022 527.83 867.767 529.177C868.541 530.524 868.928 532.115 868.928 533.95V538.121H854.222V540.4C854.222 542.263 854.695 543.697 855.641 544.7C856.587 545.675 857.935 546.162 859.683 546.162C861.174 546.162 862.378 545.904 863.295 545.388C864.213 544.843 864.772 544.041 864.972 542.98H868.842C868.584 544.958 867.61 546.535 865.918 547.71C864.256 548.857 862.177 549.43 859.683 549.43ZM865.144 535.541V533.95C865.144 532.087 864.671 530.653 863.725 529.65C862.808 528.647 861.461 528.145 859.683 528.145C857.935 528.145 856.587 528.647 855.641 529.65C854.695 530.653 854.222 532.087 854.222 533.95V535.197H865.445L865.144 535.541ZM876.522 556.74V525.35H880.392V529.865H881.166L880.392 530.768C880.392 528.962 880.98 527.543 882.155 526.511C883.359 525.45 884.936 524.92 886.885 524.92C889.265 524.92 891.157 525.708 892.561 527.285C893.995 528.833 894.711 530.969 894.711 533.692V540.615C894.711 542.421 894.382 543.983 893.722 545.302C893.092 546.621 892.189 547.638 891.013 548.355C889.867 549.072 888.491 549.43 886.885 549.43C884.965 549.43 883.402 548.9 882.198 547.839C880.994 546.778 880.392 545.359 880.392 543.582L881.166 544.485H880.306L880.392 549.86V556.74H876.522ZM885.595 546.076C887.229 546.076 888.505 545.589 889.422 544.614C890.368 543.639 890.841 542.235 890.841 540.4V533.95C890.841 532.115 890.368 530.711 889.422 529.736C888.505 528.761 887.229 528.274 885.595 528.274C884.019 528.274 882.757 528.776 881.811 529.779C880.865 530.782 880.392 532.173 880.392 533.95V540.4C880.392 542.177 880.865 543.568 881.811 544.571C882.757 545.574 884.019 546.076 885.595 546.076ZM913.83 549C911.794 549 910.203 548.455 909.057 547.366C907.939 546.277 907.38 544.743 907.38 542.765V528.876H900.715V525.35H907.38V518.685H911.25V525.35H920.71V528.876H911.25V542.765C911.25 544.571 912.11 545.474 913.83 545.474H920.28V549H913.83ZM928.089 549V517.61H931.959V525.35V529.865H932.776L931.959 530.768C931.959 528.905 932.518 527.471 933.636 526.468C934.754 525.436 936.302 524.92 938.28 524.92C940.659 524.92 942.551 525.651 943.956 527.113C945.36 528.575 946.063 530.567 946.063 533.09V549H942.193V533.52C942.193 531.829 941.734 530.524 940.817 529.607C939.928 528.661 938.71 528.188 937.162 528.188C935.556 528.188 934.281 528.69 933.335 529.693C932.417 530.696 931.959 532.115 931.959 533.95V549H928.089Z" fill="#007ACC"/>
<path d="M979.655 549V545.044L989.244 534.853C990.878 533.104 992.068 531.556 992.813 530.209C993.559 528.833 993.931 527.514 993.931 526.253C993.931 524.504 993.444 523.128 992.469 522.125C991.523 521.122 990.219 520.62 988.556 520.62C986.722 520.62 985.274 521.136 984.213 522.168C983.181 523.2 982.665 524.619 982.665 526.425H978.795C978.853 524.533 979.283 522.899 980.085 521.523C980.917 520.118 982.049 519.043 983.482 518.298C984.944 517.553 986.636 517.18 988.556 517.18C990.448 517.18 992.082 517.553 993.458 518.298C994.863 519.015 995.938 520.047 996.683 521.394C997.429 522.741 997.801 524.347 997.801 526.21C997.801 527.987 997.328 529.75 996.382 531.499C995.436 533.248 993.888 535.24 991.738 537.476L983.998 545.474H998.317V549H979.655Z" fill="#FF00C7"/>
<path d="M1448.57 449.034H1431.23V437.051H1448.57C1451.12 437.051 1453.18 436.625 1454.72 435.772C1456.3 434.92 1457.45 433.752 1458.18 432.268C1458.94 430.752 1459.32 429.047 1459.32 427.152C1459.32 425.195 1458.94 423.379 1458.18 421.706C1457.45 420 1456.3 418.627 1454.72 417.585C1453.18 416.543 1451.12 416.022 1448.57 416.022H1436.82V473H1421.38V404.039H1448.57C1454.06 404.039 1458.76 405.034 1462.68 407.023C1466.63 409.012 1469.64 411.743 1471.73 415.217C1473.84 418.659 1474.9 422.605 1474.9 427.058C1474.9 431.51 1473.84 435.378 1471.73 438.662C1469.64 441.945 1466.63 444.503 1462.68 446.334C1458.76 448.134 1454.06 449.034 1448.57 449.034ZM1498.34 433.688V473H1483.57V421.753H1497.44L1498.34 433.688ZM1513.64 421.374L1513.41 435.157C1512.77 435.062 1511.95 434.983 1510.94 434.92C1509.93 434.825 1509.06 434.778 1508.34 434.778C1506.44 434.778 1504.8 435.015 1503.41 435.488C1502.05 435.93 1500.92 436.593 1500 437.478C1499.12 438.362 1498.45 439.467 1498.01 440.793C1497.57 442.088 1497.35 443.587 1497.35 445.292L1494.56 443.919C1494.56 440.54 1494.89 437.446 1495.55 434.636C1496.21 431.826 1497.18 429.394 1498.44 427.342C1499.7 425.258 1501.25 423.647 1503.08 422.511C1504.91 421.374 1507 420.806 1509.33 420.806C1510.09 420.806 1510.86 420.853 1511.65 420.948C1512.44 421.042 1513.11 421.185 1513.64 421.374ZM1542.91 473.947C1538.84 473.947 1535.19 473.3 1531.97 472.005C1528.75 470.711 1526.02 468.927 1523.78 466.653C1521.57 464.348 1519.88 461.696 1518.71 458.696C1517.54 455.697 1516.96 452.492 1516.96 449.082V447.282C1516.96 443.461 1517.49 439.94 1518.57 436.72C1519.64 433.499 1521.2 430.705 1523.26 428.336C1525.34 425.937 1527.9 424.09 1530.93 422.795C1533.96 421.469 1537.42 420.806 1541.3 420.806C1544.93 420.806 1548.17 421.406 1551.01 422.605C1553.85 423.774 1556.25 425.463 1558.21 427.673C1560.17 429.852 1561.65 432.489 1562.66 435.583C1563.71 438.646 1564.23 442.088 1564.23 445.908V451.971H1522.93V442.451H1549.73V441.314C1549.73 439.514 1549.4 437.935 1548.74 436.578C1548.11 435.22 1547.16 434.178 1545.9 433.452C1544.67 432.694 1543.1 432.315 1541.21 432.315C1539.41 432.315 1537.91 432.694 1536.71 433.452C1535.51 434.209 1534.55 435.283 1533.82 436.672C1533.12 438.03 1532.62 439.625 1532.3 441.456C1531.99 443.256 1531.83 445.198 1531.83 447.282V449.082C1531.83 451.071 1532.1 452.886 1532.64 454.528C1533.17 456.17 1533.96 457.575 1535 458.744C1536.05 459.912 1537.31 460.828 1538.79 461.491C1540.28 462.154 1541.97 462.485 1543.86 462.485C1546.2 462.485 1548.42 462.043 1550.54 461.159C1552.65 460.243 1554.49 458.823 1556.03 456.896L1562.95 464.806C1561.91 466.322 1560.44 467.79 1558.54 469.211C1556.68 470.6 1554.44 471.737 1551.82 472.621C1549.2 473.505 1546.23 473.947 1542.91 473.947ZM1597.48 421.753V432.125H1567.07V421.753H1597.48ZM1574.03 409.06H1588.86V456.944C1588.86 458.365 1589.03 459.454 1589.38 460.212C1589.72 460.97 1590.29 461.507 1591.08 461.822C1591.87 462.106 1592.88 462.249 1594.11 462.249C1595 462.249 1595.75 462.217 1596.39 462.154C1597.02 462.091 1597.6 462.012 1598.14 461.917V472.621C1596.88 473.032 1595.53 473.347 1594.11 473.568C1592.69 473.821 1591.14 473.947 1589.47 473.947C1586.28 473.947 1583.52 473.426 1581.18 472.384C1578.88 471.342 1577.11 469.7 1575.88 467.458C1574.65 465.185 1574.03 462.233 1574.03 458.602V409.06ZM1630.63 421.753V432.125H1600.22V421.753H1630.63ZM1607.19 409.06H1622.01V456.944C1622.01 458.365 1622.18 459.454 1622.53 460.212C1622.88 460.97 1623.45 461.507 1624.24 461.822C1625.03 462.106 1626.04 462.249 1627.27 462.249C1628.15 462.249 1628.91 462.217 1629.54 462.154C1630.17 462.091 1630.76 462.012 1631.29 461.917V472.621C1630.03 473.032 1628.69 473.347 1627.27 473.568C1625.85 473.821 1624.3 473.947 1622.63 473.947C1619.44 473.947 1616.67 473.426 1614.34 472.384C1612.03 471.342 1610.26 469.7 1609.03 467.458C1607.8 465.185 1607.19 462.233 1607.19 458.602V409.06ZM1653.17 467.08L1666.58 421.753H1682.49L1661.89 480.673C1661.45 481.967 1660.85 483.357 1660.09 484.841C1659.36 486.325 1658.37 487.746 1657.11 489.104C1655.87 490.461 1654.3 491.566 1652.37 492.419C1650.44 493.271 1648.08 493.698 1645.27 493.698C1643.84 493.698 1642.74 493.619 1641.95 493.461C1641.19 493.335 1640.18 493.114 1638.92 492.798L1638.87 482.046C1639.28 482.046 1639.64 482.046 1639.96 482.046C1640.31 482.078 1640.66 482.094 1641 482.094C1642.77 482.094 1644.19 481.904 1645.27 481.525C1646.37 481.146 1647.22 480.578 1647.82 479.82C1648.45 479.094 1648.96 478.163 1649.34 477.026L1653.17 467.08ZM1648.68 421.753L1659.28 458.223L1661.08 473.9L1651.09 474.421L1632.76 421.753H1648.68ZM1726.26 431.604V492.703H1711.48V421.753H1725.26L1726.26 431.604ZM1758.23 446.808V447.803C1758.23 451.529 1757.8 454.986 1756.95 458.175C1756.1 461.333 1754.82 464.096 1753.11 466.464C1751.44 468.832 1749.37 470.679 1746.91 472.005C1744.44 473.3 1741.59 473.947 1738.33 473.947C1735.24 473.947 1732.56 473.3 1730.28 472.005C1728.04 470.679 1726.15 468.848 1724.6 466.511C1723.08 464.143 1721.85 461.443 1720.9 458.412C1719.99 455.349 1719.28 452.081 1718.77 448.608V446.666C1719.28 442.972 1720 439.546 1720.95 436.388C1721.9 433.231 1723.13 430.499 1724.65 428.194C1726.16 425.858 1728.04 424.042 1730.28 422.748C1732.52 421.453 1735.19 420.806 1738.29 420.806C1741.51 420.806 1744.36 421.421 1746.86 422.653C1749.35 423.884 1751.44 425.653 1753.11 427.958C1754.82 430.231 1756.1 432.962 1756.95 436.151C1757.8 439.34 1758.23 442.893 1758.23 446.808ZM1743.4 447.803V446.808C1743.4 444.724 1743.24 442.814 1742.93 441.077C1742.61 439.309 1742.11 437.778 1741.41 436.483C1740.72 435.157 1739.8 434.131 1738.67 433.404C1737.53 432.678 1736.14 432.315 1734.5 432.315C1732.73 432.315 1731.23 432.599 1730 433.167C1728.77 433.736 1727.77 434.573 1727.01 435.678C1726.26 436.751 1725.7 438.077 1725.36 439.656C1725.04 441.235 1724.87 443.035 1724.84 445.056V450.266C1724.87 452.634 1725.2 454.749 1725.83 456.612C1726.49 458.444 1727.52 459.88 1728.91 460.922C1730.33 461.933 1732.22 462.438 1734.59 462.438C1736.27 462.438 1737.66 462.075 1738.76 461.349C1739.9 460.591 1740.8 459.533 1741.46 458.175C1742.15 456.818 1742.64 455.255 1742.93 453.486C1743.24 451.718 1743.4 449.824 1743.4 447.803ZM1780.91 433.688V473H1766.14V421.753H1780.01L1780.91 433.688ZM1796.21 421.374L1795.98 435.157C1795.34 435.062 1794.52 434.983 1793.51 434.92C1792.5 434.825 1791.63 434.778 1790.91 434.778C1789.01 434.778 1787.37 435.015 1785.98 435.488C1784.62 435.93 1783.49 436.593 1782.57 437.478C1781.69 438.362 1781.02 439.467 1780.58 440.793C1780.14 442.088 1779.92 443.587 1779.92 445.292L1777.12 443.919C1777.12 440.54 1777.46 437.446 1778.12 434.636C1778.78 431.826 1779.75 429.394 1781.01 427.342C1782.27 425.258 1783.82 423.647 1785.65 422.511C1787.48 421.374 1789.57 420.806 1791.9 420.806C1792.66 420.806 1793.43 420.853 1794.22 420.948C1795.01 421.042 1795.68 421.185 1796.21 421.374ZM1817.86 421.753V473H1803.03V421.753H1817.86ZM1802.13 408.491C1802.13 406.344 1802.89 404.592 1804.41 403.234C1805.92 401.845 1807.91 401.15 1810.37 401.15C1812.84 401.15 1814.83 401.845 1816.34 403.234C1817.89 404.592 1818.66 406.344 1818.66 408.491C1818.66 410.607 1817.89 412.359 1816.34 413.749C1814.83 415.106 1812.84 415.785 1810.37 415.785C1807.91 415.785 1805.92 415.106 1804.41 413.749C1802.89 412.359 1802.13 410.607 1802.13 408.491ZM1843.01 432.694V473H1828.18V421.753H1842.11L1843.01 432.694ZM1841.06 445.577L1837.37 445.671C1837.37 441.819 1837.84 438.362 1838.79 435.299C1839.74 432.236 1841.08 429.631 1842.82 427.484C1844.59 425.305 1846.69 423.647 1849.12 422.511C1851.58 421.374 1854.3 420.806 1857.26 420.806C1859.66 420.806 1861.86 421.153 1863.85 421.848C1865.84 422.542 1867.54 423.663 1868.96 425.21C1870.41 426.726 1871.52 428.747 1872.28 431.273C1873.04 433.767 1873.41 436.846 1873.41 440.509V473H1858.54V440.461C1858.54 438.314 1858.24 436.657 1857.64 435.488C1857.04 434.32 1856.16 433.499 1854.99 433.025C1853.85 432.552 1852.46 432.315 1850.82 432.315C1849.09 432.315 1847.6 432.662 1846.37 433.357C1845.14 434.02 1844.13 434.951 1843.34 436.151C1842.55 437.351 1841.96 438.756 1841.59 440.367C1841.24 441.977 1841.06 443.714 1841.06 445.577ZM1909.13 421.753V432.125H1878.72V421.753H1909.13ZM1885.68 409.06H1900.51V456.944C1900.51 458.365 1900.68 459.454 1901.03 460.212C1901.37 460.97 1901.94 461.507 1902.73 461.822C1903.52 462.106 1904.53 462.249 1905.76 462.249C1906.65 462.249 1907.41 462.217 1908.04 462.154C1908.67 462.091 1909.25 462.012 1909.79 461.917V472.621C1908.53 473.032 1907.18 473.347 1905.76 473.568C1904.34 473.821 1902.8 473.947 1901.12 473.947C1897.93 473.947 1895.17 473.426 1892.83 472.384C1890.53 471.342 1888.76 469.7 1887.53 467.458C1886.3 465.185 1885.68 462.233 1885.68 458.602V409.06ZM1423.51 574.78V552.804C1423.51 551.257 1423.27 549.93 1422.8 548.825C1422.33 547.72 1421.58 546.852 1420.57 546.22C1419.56 545.589 1418.25 545.273 1416.64 545.273C1415.28 545.273 1414.1 545.51 1413.09 545.983C1412.11 546.457 1411.35 547.136 1410.82 548.02C1410.31 548.904 1410.06 549.993 1410.06 551.288H1395.28C1395.28 548.983 1395.8 546.836 1396.84 544.847C1397.89 542.857 1399.37 541.105 1401.3 539.589C1403.25 538.074 1405.59 536.905 1408.31 536.084C1411.02 535.232 1414.07 534.806 1417.45 534.806C1421.46 534.806 1425.03 535.485 1428.15 536.842C1431.31 538.168 1433.8 540.174 1435.64 542.857C1437.47 545.51 1438.38 548.857 1438.38 552.898V574.354C1438.38 577.448 1438.56 579.88 1438.9 581.648C1439.28 583.385 1439.82 584.9 1440.51 586.195V587H1425.59C1424.9 585.516 1424.38 583.685 1424.03 581.506C1423.68 579.296 1423.51 577.054 1423.51 574.78ZM1425.36 555.74L1425.45 563.887H1418.11C1416.47 563.887 1415.05 564.092 1413.85 564.502C1412.68 564.913 1411.73 565.481 1411.01 566.208C1410.28 566.902 1409.74 567.723 1409.4 568.67C1409.08 569.586 1408.92 570.597 1408.92 571.702C1408.92 572.744 1409.17 573.691 1409.68 574.543C1410.19 575.364 1410.88 576.012 1411.76 576.485C1412.65 576.959 1413.67 577.196 1414.84 577.196C1416.77 577.196 1418.41 576.817 1419.77 576.059C1421.16 575.301 1422.23 574.386 1422.99 573.312C1423.75 572.207 1424.13 571.181 1424.13 570.233L1427.68 576.391C1427.11 577.654 1426.42 578.964 1425.59 580.322C1424.77 581.648 1423.73 582.895 1422.47 584.063C1421.21 585.2 1419.67 586.132 1417.87 586.858C1416.11 587.584 1413.97 587.947 1411.48 587.947C1408.26 587.947 1405.34 587.3 1402.72 586.005C1400.1 584.679 1398 582.864 1396.42 580.559C1394.87 578.254 1394.1 575.601 1394.1 572.602C1394.1 569.918 1394.59 567.534 1395.57 565.45C1396.54 563.366 1398.01 561.597 1399.97 560.145C1401.96 558.693 1404.45 557.603 1407.45 556.877C1410.45 556.119 1413.96 555.74 1417.97 555.74H1425.36ZM1462.58 546.694V587H1447.76V535.753H1461.69L1462.58 546.694ZM1460.64 559.577L1456.95 559.671C1456.95 555.819 1457.42 552.362 1458.37 549.299C1459.32 546.236 1460.66 543.631 1462.4 541.484C1464.16 539.305 1466.26 537.647 1468.69 536.511C1471.16 535.374 1473.87 534.806 1476.84 534.806C1479.24 534.806 1481.44 535.153 1483.42 535.848C1485.41 536.542 1487.12 537.663 1488.54 539.21C1489.99 540.726 1491.1 542.747 1491.86 545.273C1492.61 547.767 1492.99 550.846 1492.99 554.509V587H1478.12V554.461C1478.12 552.314 1477.82 550.657 1477.22 549.488C1476.62 548.32 1475.74 547.499 1474.57 547.025C1473.43 546.552 1472.04 546.315 1470.4 546.315C1468.66 546.315 1467.18 546.662 1465.95 547.357C1464.72 548.02 1463.71 548.951 1462.92 550.151C1462.13 551.351 1461.54 552.756 1461.16 554.367C1460.82 555.977 1460.64 557.714 1460.64 559.577ZM1532.49 575.538V514.25H1547.37V587H1534.01L1532.49 575.538ZM1500.57 561.992V560.998C1500.57 557.114 1501 553.577 1501.85 550.388C1502.73 547.167 1504.01 544.405 1505.69 542.1C1507.39 539.763 1509.49 537.963 1511.98 536.7C1514.48 535.437 1517.34 534.806 1520.56 534.806C1523.53 534.806 1526.11 535.469 1528.33 536.795C1530.54 538.09 1532.41 539.921 1533.96 542.289C1535.54 544.626 1536.82 547.389 1537.8 550.578C1538.78 553.735 1539.52 557.161 1540.02 560.855V562.561C1539.55 566.097 1538.81 569.397 1537.8 572.459C1536.82 575.522 1535.54 578.222 1533.96 580.559C1532.41 582.864 1530.52 584.679 1528.28 586.005C1526.07 587.3 1523.46 587.947 1520.46 587.947C1517.24 587.947 1514.38 587.3 1511.89 586.005C1509.43 584.711 1507.36 582.895 1505.69 580.559C1504.01 578.222 1502.73 575.475 1501.85 572.317C1501 569.16 1500.57 565.718 1500.57 561.992ZM1515.35 560.998V561.992C1515.35 564.013 1515.49 565.892 1515.77 567.628C1516.09 569.365 1516.59 570.896 1517.29 572.223C1517.98 573.549 1518.9 574.591 1520.04 575.349C1521.17 576.075 1522.56 576.438 1524.2 576.438C1526.41 576.438 1528.23 575.933 1529.65 574.922C1531.07 573.88 1532.15 572.444 1532.87 570.612C1533.6 568.781 1533.98 566.65 1534.01 564.218V559.245C1534.01 557.224 1533.8 555.409 1533.39 553.798C1532.98 552.188 1532.37 550.83 1531.55 549.725C1530.76 548.62 1529.76 547.783 1528.56 547.215C1527.36 546.615 1525.94 546.315 1524.3 546.315C1522.69 546.315 1521.32 546.694 1520.18 547.452C1519.04 548.178 1518.11 549.204 1517.38 550.53C1516.69 551.856 1516.17 553.419 1515.82 555.219C1515.51 556.987 1515.35 558.914 1515.35 560.998ZM1607.42 535.753V546.125H1577.01V535.753H1607.42ZM1583.98 523.06H1598.8V570.944C1598.8 572.365 1598.98 573.454 1599.32 574.212C1599.67 574.97 1600.24 575.507 1601.03 575.822C1601.82 576.106 1602.83 576.249 1604.06 576.249C1604.94 576.249 1605.7 576.217 1606.33 576.154C1606.96 576.091 1607.55 576.012 1608.08 575.917V586.621C1606.82 587.032 1605.48 587.347 1604.06 587.568C1602.64 587.821 1601.09 587.947 1599.42 587.947C1596.23 587.947 1593.47 587.426 1591.13 586.384C1588.82 585.342 1587.06 583.7 1585.82 581.458C1584.59 579.185 1583.98 576.233 1583.98 572.602V523.06ZM1629.35 547.688V587H1614.57V535.753H1628.45L1629.35 547.688ZM1644.65 535.374L1644.41 549.157C1643.78 549.062 1642.96 548.983 1641.95 548.92C1640.94 548.825 1640.07 548.778 1639.34 548.778C1637.45 548.778 1635.81 549.015 1634.42 549.488C1633.06 549.93 1631.92 550.593 1631.01 551.478C1630.12 552.362 1629.46 553.467 1629.02 554.793C1628.58 556.088 1628.36 557.587 1628.36 559.292L1625.56 557.919C1625.56 554.54 1625.89 551.446 1626.56 548.636C1627.22 545.826 1628.18 543.394 1629.45 541.342C1630.71 539.258 1632.26 537.647 1634.09 536.511C1635.92 535.374 1638 534.806 1640.34 534.806C1641.1 534.806 1641.87 534.853 1642.66 534.948C1643.45 535.042 1644.11 535.185 1644.65 535.374ZM1676.34 574.78V552.804C1676.34 551.257 1676.1 549.93 1675.62 548.825C1675.15 547.72 1674.41 546.852 1673.4 546.22C1672.39 545.589 1671.08 545.273 1669.47 545.273C1668.11 545.273 1666.93 545.51 1665.92 545.983C1664.94 546.457 1664.18 547.136 1663.64 548.02C1663.14 548.904 1662.88 549.993 1662.88 551.288H1648.11C1648.11 548.983 1648.63 546.836 1649.67 544.847C1650.71 542.857 1652.2 541.105 1654.12 539.589C1656.08 538.074 1658.42 536.905 1661.13 536.084C1663.85 535.232 1666.89 534.806 1670.27 534.806C1674.28 534.806 1677.85 535.485 1680.98 536.842C1684.13 538.168 1686.63 540.174 1688.46 542.857C1690.29 545.51 1691.21 548.857 1691.21 552.898V574.354C1691.21 577.448 1691.38 579.88 1691.73 581.648C1692.11 583.385 1692.64 584.9 1693.34 586.195V587H1678.42C1677.72 585.516 1677.2 583.685 1676.86 581.506C1676.51 579.296 1676.34 577.054 1676.34 574.78ZM1678.18 555.74L1678.28 563.887H1670.94C1669.29 563.887 1667.87 564.092 1666.67 564.502C1665.51 564.913 1664.56 565.481 1663.83 566.208C1663.11 566.902 1662.57 567.723 1662.22 568.67C1661.91 569.586 1661.75 570.597 1661.75 571.702C1661.75 572.744 1662 573.691 1662.51 574.543C1663.01 575.364 1663.71 576.012 1664.59 576.485C1665.47 576.959 1666.5 577.196 1667.67 577.196C1669.59 577.196 1671.24 576.817 1672.59 576.059C1673.98 575.301 1675.06 574.386 1675.81 573.312C1676.57 572.207 1676.95 571.181 1676.95 570.233L1680.5 576.391C1679.94 577.654 1679.24 578.964 1678.42 580.322C1677.6 581.648 1676.56 582.895 1675.29 584.063C1674.03 585.2 1672.5 586.132 1670.7 586.858C1668.93 587.584 1666.8 587.947 1664.31 587.947C1661.08 587.947 1658.16 587.3 1655.54 586.005C1652.92 584.679 1650.82 582.864 1649.24 580.559C1647.7 578.254 1646.92 575.601 1646.92 572.602C1646.92 569.918 1647.41 567.534 1648.39 565.45C1649.37 563.366 1650.84 561.597 1652.8 560.145C1654.79 558.693 1657.28 557.603 1660.28 556.877C1663.28 556.119 1666.78 555.74 1670.79 555.74H1678.18ZM1718.11 576.533L1728.81 535.753H1744.35L1727.35 587H1718.02L1718.11 576.533ZM1711.19 535.753L1721.85 576.58L1721.95 587H1712.62L1695.61 535.753H1711.19ZM1773.29 587.947C1769.21 587.947 1765.57 587.3 1762.35 586.005C1759.13 584.711 1756.4 582.927 1754.15 580.653C1751.94 578.348 1750.25 575.696 1749.09 572.696C1747.92 569.697 1747.33 566.492 1747.33 563.082V561.282C1747.33 557.461 1747.87 553.94 1748.94 550.72C1750.02 547.499 1751.58 544.705 1753.63 542.336C1755.72 539.937 1758.27 538.09 1761.31 536.795C1764.34 535.469 1767.79 534.806 1771.68 534.806C1775.31 534.806 1778.55 535.406 1781.39 536.605C1784.23 537.774 1786.63 539.463 1788.59 541.673C1790.54 543.852 1792.03 546.489 1793.04 549.583C1794.08 552.646 1794.6 556.088 1794.6 559.908V565.971H1753.3V556.451H1780.11V555.314C1780.11 553.514 1779.78 551.935 1779.11 550.578C1778.48 549.22 1777.53 548.178 1776.27 547.452C1775.04 546.694 1773.48 546.315 1771.58 546.315C1769.78 546.315 1768.28 546.694 1767.08 547.452C1765.88 548.209 1764.92 549.283 1764.19 550.672C1763.5 552.03 1762.99 553.625 1762.68 555.456C1762.36 557.256 1762.21 559.198 1762.21 561.282V563.082C1762.21 565.071 1762.47 566.886 1763.01 568.528C1763.55 570.17 1764.34 571.575 1765.38 572.744C1766.42 573.912 1767.68 574.828 1769.17 575.491C1770.65 576.154 1772.34 576.485 1774.24 576.485C1776.57 576.485 1778.8 576.043 1780.91 575.159C1783.03 574.243 1784.86 572.823 1786.41 570.896L1793.32 578.806C1792.28 580.322 1790.81 581.79 1788.92 583.211C1787.06 584.6 1784.81 585.737 1782.19 586.621C1779.57 587.505 1776.6 587.947 1773.29 587.947ZM1816.63 547.688V587H1801.85V535.753H1815.73L1816.63 547.688ZM1831.92 535.374L1831.69 549.157C1831.06 549.062 1830.23 548.983 1829.22 548.92C1828.21 548.825 1827.35 548.778 1826.62 548.778C1824.72 548.778 1823.08 549.015 1821.69 549.488C1820.34 549.93 1819.2 550.593 1818.28 551.478C1817.4 552.362 1816.74 553.467 1816.29 554.793C1815.85 556.088 1815.63 557.587 1815.63 559.292L1812.84 557.919C1812.84 554.54 1813.17 551.446 1813.83 548.636C1814.49 545.826 1815.46 543.394 1816.72 541.342C1817.98 539.258 1819.53 537.647 1821.36 536.511C1823.19 535.374 1825.28 534.806 1827.61 534.806C1828.37 534.806 1829.15 534.853 1829.93 534.948C1830.72 535.042 1831.39 535.185 1831.92 535.374ZM1865.27 572.744C1865.27 571.796 1864.97 570.96 1864.37 570.233C1863.8 569.507 1862.76 568.844 1861.24 568.244C1859.76 567.644 1857.66 567.044 1854.94 566.444C1852.38 565.908 1850 565.213 1847.79 564.36C1845.58 563.476 1843.65 562.418 1842.01 561.187C1840.37 559.924 1839.09 558.44 1838.18 556.735C1837.26 554.998 1836.8 553.025 1836.8 550.814C1836.8 548.667 1837.26 546.631 1838.18 544.705C1839.12 542.778 1840.48 541.073 1842.25 539.589C1844.05 538.105 1846.23 536.937 1848.79 536.084C1851.37 535.232 1854.31 534.806 1857.59 534.806C1862.11 534.806 1866.01 535.516 1869.29 536.937C1872.58 538.326 1875.1 540.284 1876.87 542.81C1878.64 545.305 1879.52 548.162 1879.52 551.383H1864.75C1864.75 550.057 1864.49 548.904 1863.99 547.925C1863.48 546.946 1862.71 546.189 1861.67 545.652C1860.63 545.083 1859.25 544.799 1857.55 544.799C1856.22 544.799 1855.05 545.036 1854.04 545.51C1853.06 545.952 1852.29 546.568 1851.72 547.357C1851.18 548.146 1850.92 549.062 1850.92 550.104C1850.92 550.83 1851.07 551.493 1851.39 552.093C1851.74 552.662 1852.26 553.198 1852.95 553.704C1853.68 554.177 1854.61 554.604 1855.75 554.982C1856.92 555.361 1858.34 555.724 1860.01 556.072C1863.58 556.735 1866.83 557.666 1869.77 558.866C1872.74 560.066 1875.1 561.724 1876.87 563.839C1878.67 565.955 1879.57 568.749 1879.57 572.223C1879.57 574.496 1879.05 576.58 1878.01 578.475C1877 580.369 1875.53 582.027 1873.6 583.448C1871.68 584.869 1869.37 585.974 1866.69 586.763C1864 587.553 1860.97 587.947 1857.59 587.947C1852.76 587.947 1848.67 587.079 1845.33 585.342C1841.98 583.606 1839.45 581.427 1837.75 578.806C1836.08 576.154 1835.24 573.438 1835.24 570.66H1849.12C1849.18 572.365 1849.61 573.754 1850.4 574.828C1851.22 575.901 1852.27 576.691 1853.57 577.196C1854.86 577.669 1856.32 577.906 1857.93 577.906C1859.54 577.906 1860.88 577.685 1861.95 577.243C1863.03 576.801 1863.85 576.201 1864.42 575.443C1864.98 574.654 1865.27 573.754 1865.27 572.744ZM1911.97 587.947C1907.89 587.947 1904.25 587.3 1901.03 586.005C1897.81 584.711 1895.07 582.927 1892.83 580.653C1890.62 578.348 1888.93 575.696 1887.77 572.696C1886.6 569.697 1886.01 566.492 1886.01 563.082V561.282C1886.01 557.461 1886.55 553.94 1887.62 550.72C1888.7 547.499 1890.26 544.705 1892.31 542.336C1894.4 539.937 1896.95 538.09 1899.98 536.795C1903.02 535.469 1906.47 534.806 1910.36 534.806C1913.99 534.806 1917.23 535.406 1920.07 536.605C1922.91 537.774 1925.31 539.463 1927.27 541.673C1929.22 543.852 1930.71 546.489 1931.72 549.583C1932.76 552.646 1933.28 556.088 1933.28 559.908V565.971H1891.98V556.451H1918.79V555.314C1918.79 553.514 1918.46 551.935 1917.79 550.578C1917.16 549.22 1916.21 548.178 1914.95 547.452C1913.72 546.694 1912.16 546.315 1910.26 546.315C1908.46 546.315 1906.96 546.694 1905.76 547.452C1904.56 548.209 1903.6 549.283 1902.87 550.672C1902.18 552.03 1901.67 553.625 1901.36 555.456C1901.04 557.256 1900.88 559.198 1900.88 561.282V563.082C1900.88 565.071 1901.15 566.886 1901.69 568.528C1902.23 570.17 1903.02 571.575 1904.06 572.744C1905.1 573.912 1906.36 574.828 1907.85 575.491C1909.33 576.154 1911.02 576.485 1912.92 576.485C1915.25 576.485 1917.48 576.043 1919.59 575.159C1921.71 574.243 1923.54 572.823 1925.09 570.896L1932 578.806C1930.96 580.322 1929.49 581.79 1927.6 583.211C1925.73 584.6 1923.49 585.737 1920.87 586.621C1918.25 587.505 1915.28 587.947 1911.97 587.947ZM1398.79 688.78V666.804C1398.79 665.257 1398.55 663.93 1398.08 662.825C1397.6 661.72 1396.86 660.852 1395.85 660.22C1394.84 659.589 1393.53 659.273 1391.92 659.273C1390.56 659.273 1389.38 659.51 1388.37 659.983C1387.39 660.457 1386.63 661.136 1386.09 662.02C1385.59 662.904 1385.34 663.993 1385.34 665.288H1370.56C1370.56 662.983 1371.08 660.836 1372.12 658.847C1373.16 656.857 1374.65 655.105 1376.57 653.589C1378.53 652.074 1380.87 650.905 1383.58 650.084C1386.3 649.232 1389.35 648.806 1392.72 648.806C1396.73 648.806 1400.3 649.485 1403.43 650.842C1406.59 652.168 1409.08 654.174 1410.91 656.857C1412.74 659.51 1413.66 662.857 1413.66 666.898V688.354C1413.66 691.448 1413.83 693.88 1414.18 695.648C1414.56 697.385 1415.1 698.9 1415.79 700.195V701H1400.87C1400.18 699.516 1399.65 697.685 1399.31 695.506C1398.96 693.296 1398.79 691.054 1398.79 688.78ZM1400.63 669.74L1400.73 677.887H1393.39C1391.75 677.887 1390.32 678.092 1389.12 678.502C1387.96 678.913 1387.01 679.481 1386.28 680.208C1385.56 680.902 1385.02 681.723 1384.67 682.67C1384.36 683.586 1384.2 684.597 1384.2 685.702C1384.2 686.744 1384.45 687.691 1384.96 688.543C1385.46 689.364 1386.16 690.012 1387.04 690.485C1387.92 690.959 1388.95 691.196 1390.12 691.196C1392.05 691.196 1393.69 690.817 1395.04 690.059C1396.43 689.301 1397.51 688.386 1398.27 687.312C1399.02 686.207 1399.4 685.181 1399.4 684.233L1402.95 690.391C1402.39 691.654 1401.69 692.964 1400.87 694.322C1400.05 695.648 1399.01 696.895 1397.74 698.063C1396.48 699.2 1394.95 700.132 1393.15 700.858C1391.38 701.584 1389.25 701.947 1386.76 701.947C1383.54 701.947 1380.61 701.3 1377.99 700.005C1375.37 698.679 1373.27 696.864 1371.69 694.559C1370.15 692.254 1369.37 689.601 1369.37 686.602C1369.37 683.918 1369.86 681.534 1370.84 679.45C1371.82 677.366 1373.29 675.597 1375.25 674.145C1377.24 672.693 1379.73 671.603 1382.73 670.877C1385.73 670.119 1389.24 669.74 1393.25 669.74H1400.63ZM1437.86 660.694V701H1423.04V649.753H1436.96L1437.86 660.694ZM1435.92 673.577L1432.23 673.671C1432.23 669.819 1432.7 666.362 1433.65 663.299C1434.59 660.236 1435.94 657.631 1437.67 655.484C1439.44 653.305 1441.54 651.647 1443.97 650.511C1446.43 649.374 1449.15 648.806 1452.12 648.806C1454.52 648.806 1456.71 649.153 1458.7 649.848C1460.69 650.542 1462.4 651.663 1463.82 653.21C1465.27 654.726 1466.37 656.747 1467.13 659.273C1467.89 661.767 1468.27 664.846 1468.27 668.509V701H1453.4V668.461C1453.4 666.314 1453.1 664.657 1452.5 663.488C1451.9 662.32 1451.01 661.499 1449.84 661.025C1448.71 660.552 1447.32 660.315 1445.68 660.315C1443.94 660.315 1442.46 660.662 1441.22 661.357C1439.99 662.02 1438.98 662.951 1438.19 664.151C1437.4 665.351 1436.82 666.756 1436.44 668.367C1436.09 669.977 1435.92 671.714 1435.92 673.577ZM1549.12 659.794V671.729H1513.41V659.794H1549.12ZM1518.28 632.039V701H1502.84V632.039H1518.28ZM1559.77 632.039V701H1544.38V632.039H1559.77ZM1601.93 632.039V701H1586.53V632.039H1601.93ZM1622.91 632.039V644.022H1565.98V632.039H1622.91ZM1637.92 632.039H1650.71L1667.29 681.344L1683.82 632.039H1696.61L1672.45 701H1662.08L1637.92 632.039ZM1630.54 632.039H1643.56L1645.98 683.144V701H1630.54V632.039ZM1690.97 632.039H1704.04V701H1688.56V683.144L1690.97 632.039ZM1760.5 689.064V701H1725.69V689.064H1760.5ZM1730.95 632.039V701H1715.5V632.039H1730.95ZM1817.53 649.753V660.125H1787.12V649.753H1817.53ZM1794.08 637.06H1808.91V684.944C1808.91 686.365 1809.08 687.454 1809.43 688.212C1809.77 688.97 1810.34 689.507 1811.13 689.822C1811.92 690.106 1812.93 690.249 1814.16 690.249C1815.05 690.249 1815.8 690.217 1816.44 690.154C1817.07 690.091 1817.65 690.012 1818.19 689.917V700.621C1816.93 701.032 1815.58 701.347 1814.16 701.568C1812.74 701.821 1811.19 701.947 1809.52 701.947C1806.33 701.947 1803.57 701.426 1801.23 700.384C1798.93 699.342 1797.16 697.7 1795.93 695.458C1794.7 693.185 1794.08 690.233 1794.08 686.602V637.06ZM1839.45 661.688V701H1824.68V649.753H1838.55L1839.45 661.688ZM1854.75 649.374L1854.52 663.157C1853.88 663.062 1853.06 662.983 1852.05 662.92C1851.04 662.825 1850.17 662.778 1849.45 662.778C1847.55 662.778 1845.91 663.015 1844.52 663.488C1843.16 663.93 1842.03 664.593 1841.11 665.478C1840.23 666.362 1839.57 667.467 1839.12 668.793C1838.68 670.088 1838.46 671.587 1838.46 673.292L1835.67 671.919C1835.67 668.54 1836 665.446 1836.66 662.636C1837.32 659.826 1838.29 657.394 1839.55 655.342C1840.81 653.258 1842.36 651.647 1844.19 650.511C1846.02 649.374 1848.11 648.806 1850.44 648.806C1851.2 648.806 1851.97 648.853 1852.76 648.948C1853.55 649.042 1854.22 649.185 1854.75 649.374ZM1884.02 701.947C1879.95 701.947 1876.3 701.3 1873.08 700.005C1869.86 698.711 1867.13 696.927 1864.89 694.653C1862.68 692.348 1860.99 689.696 1859.82 686.696C1858.65 683.697 1858.07 680.492 1858.07 677.082V675.282C1858.07 671.461 1858.61 667.94 1859.68 664.72C1860.75 661.499 1862.32 658.705 1864.37 656.336C1866.45 653.937 1869.01 652.09 1872.04 650.795C1875.07 649.469 1878.53 648.806 1882.41 648.806C1886.04 648.806 1889.28 649.406 1892.12 650.605C1894.96 651.774 1897.36 653.463 1899.32 655.673C1901.28 657.852 1902.76 660.489 1903.77 663.583C1904.82 666.646 1905.34 670.088 1905.34 673.908V679.971H1864.04V670.451H1890.84V669.314C1890.84 667.514 1890.51 665.935 1889.85 664.578C1889.22 663.22 1888.27 662.178 1887.01 661.452C1885.78 660.694 1884.21 660.315 1882.32 660.315C1880.52 660.315 1879.02 660.694 1877.82 661.452C1876.62 662.209 1875.66 663.283 1874.93 664.672C1874.24 666.03 1873.73 667.625 1873.41 669.456C1873.1 671.256 1872.94 673.198 1872.94 675.282V677.082C1872.94 679.071 1873.21 680.886 1873.75 682.528C1874.28 684.17 1875.07 685.575 1876.11 686.744C1877.16 687.912 1878.42 688.828 1879.9 689.491C1881.39 690.154 1883.08 690.485 1884.97 690.485C1887.31 690.485 1889.53 690.043 1891.65 689.159C1893.76 688.243 1895.6 686.823 1897.14 684.896L1904.06 692.806C1903.02 694.322 1901.55 695.79 1899.65 697.211C1897.79 698.6 1895.55 699.737 1892.93 700.621C1890.31 701.505 1887.34 701.947 1884.02 701.947ZM1936.69 701.947C1932.62 701.947 1928.97 701.3 1925.75 700.005C1922.53 698.711 1919.8 696.927 1917.56 694.653C1915.35 692.348 1913.66 689.696 1912.49 686.696C1911.32 683.697 1910.74 680.492 1910.74 677.082V675.282C1910.74 671.461 1911.27 667.94 1912.35 664.72C1913.42 661.499 1914.98 658.705 1917.04 656.336C1919.12 653.937 1921.68 652.09 1924.71 650.795C1927.74 649.469 1931.2 648.806 1935.08 648.806C1938.71 648.806 1941.95 649.406 1944.79 650.605C1947.63 651.774 1950.03 653.463 1951.99 655.673C1953.95 657.852 1955.43 660.489 1956.44 663.583C1957.48 666.646 1958 670.088 1958 673.908V679.971H1916.7V670.451H1943.51V669.314C1943.51 667.514 1943.18 665.935 1942.52 664.578C1941.89 663.22 1940.94 662.178 1939.68 661.452C1938.44 660.694 1936.88 660.315 1934.99 660.315C1933.19 660.315 1931.69 660.694 1930.49 661.452C1929.29 662.209 1928.32 663.283 1927.6 664.672C1926.9 666.03 1926.4 667.625 1926.08 669.456C1925.77 671.256 1925.61 673.198 1925.61 675.282V677.082C1925.61 679.071 1925.88 680.886 1926.41 682.528C1926.95 684.17 1927.74 685.575 1928.78 686.744C1929.82 687.912 1931.09 688.828 1932.57 689.491C1934.05 690.154 1935.74 690.485 1937.64 690.485C1939.98 690.485 1942.2 690.043 1944.32 689.159C1946.43 688.243 1948.26 686.823 1949.81 684.896L1956.73 692.806C1955.68 694.322 1954.22 695.79 1952.32 697.211C1950.46 698.6 1948.22 699.737 1945.6 700.621C1942.97 701.505 1940.01 701.947 1936.69 701.947ZM1477.81 766.932L1483.04 750.282H1484.36L1482.98 755.552L1477.37 773H1476.03L1477.81 766.932ZM1471.05 750.282L1475.75 766.953L1477.18 773H1475.84L1469.24 750.282H1471.05ZM1491.92 766.932L1496.56 750.282H1498.39L1491.77 773H1490.43L1491.92 766.932ZM1484.59 750.282L1489.8 766.869L1491.58 773H1490.24L1484.55 755.552L1483.25 750.282H1484.59ZM1505.32 754.146V773H1503.66V750.282H1505.29L1505.32 754.146ZM1513.97 750.114L1513.86 751.626C1513.61 751.584 1513.36 751.549 1513.1 751.521C1512.85 751.493 1512.59 751.479 1512.31 751.479C1511.1 751.479 1510.05 751.717 1509.14 752.193C1508.24 752.669 1507.49 753.32 1506.87 754.146C1506.27 754.971 1505.81 755.93 1505.5 757.022C1505.2 758.114 1505.04 759.283 1505.02 760.528L1504.2 760.696C1504.2 759.143 1504.36 757.708 1504.69 756.392C1505.02 755.076 1505.53 753.929 1506.2 752.949C1506.87 751.969 1507.72 751.213 1508.74 750.681C1509.76 750.135 1510.96 749.862 1512.35 749.862C1512.69 749.862 1512.99 749.89 1513.27 749.946C1513.55 749.988 1513.78 750.044 1513.97 750.114ZM1520.05 750.282V773H1518.38V750.282H1520.05ZM1517.85 743.396C1517.85 743.018 1517.98 742.696 1518.23 742.43C1518.49 742.15 1518.83 742.01 1519.24 742.01C1519.63 742.01 1519.96 742.15 1520.22 742.43C1520.49 742.696 1520.62 743.018 1520.62 743.396C1520.62 743.773 1520.49 744.095 1520.22 744.361C1519.96 744.613 1519.63 744.739 1519.24 744.739C1518.83 744.739 1518.49 744.613 1518.23 744.361C1517.98 744.095 1517.85 743.773 1517.85 743.396ZM1535.36 750.282V751.794H1524.48V750.282H1535.36ZM1528.68 744.277H1530.36V767.52C1530.36 768.738 1530.51 769.662 1530.8 770.292C1531.11 770.907 1531.51 771.327 1532 771.551C1532.51 771.761 1533.04 771.866 1533.62 771.866C1534.02 771.866 1534.4 771.845 1534.73 771.803C1535.08 771.761 1535.43 771.712 1535.78 771.656L1535.93 773.126C1535.62 773.224 1535.22 773.294 1534.73 773.336C1534.24 773.392 1533.81 773.42 1533.43 773.42C1532.48 773.42 1531.64 773.245 1530.93 772.895C1530.22 772.545 1529.66 771.943 1529.27 771.089C1528.88 770.222 1528.68 769.032 1528.68 767.52V744.277ZM1549.05 750.282V751.794H1538.17V750.282H1549.05ZM1542.37 744.277H1544.05V767.52C1544.05 768.738 1544.2 769.662 1544.49 770.292C1544.8 770.907 1545.2 771.327 1545.69 771.551C1546.19 771.761 1546.73 771.866 1547.31 771.866C1547.71 771.866 1548.08 771.845 1548.42 771.803C1548.77 771.761 1549.12 771.712 1549.47 771.656L1549.62 773.126C1549.31 773.224 1548.91 773.294 1548.42 773.336C1547.93 773.392 1547.5 773.42 1547.12 773.42C1546.17 773.42 1545.33 773.245 1544.62 772.895C1543.91 772.545 1543.35 771.943 1542.96 771.089C1542.57 770.222 1542.37 769.032 1542.37 767.52V744.277ZM1563.1 773.42C1561.67 773.42 1560.35 773.147 1559.13 772.601C1557.91 772.041 1556.85 771.264 1555.94 770.271C1555.03 769.263 1554.31 768.073 1553.8 766.701C1553.29 765.329 1553.04 763.825 1553.04 762.187V761.263C1553.04 759.569 1553.29 758.03 1553.8 756.644C1554.31 755.244 1555.01 754.041 1555.9 753.033C1556.78 752.011 1557.79 751.227 1558.94 750.681C1560.1 750.135 1561.34 749.862 1562.66 749.862C1563.99 749.862 1565.19 750.107 1566.27 750.597C1567.34 751.087 1568.27 751.773 1569.04 752.655C1569.81 753.537 1570.4 754.586 1570.8 755.804C1571.21 757.022 1571.41 758.366 1571.41 759.835V761.242H1554.09V759.709H1569.75V759.437C1569.74 758.009 1569.44 756.686 1568.87 755.468C1568.31 754.25 1567.51 753.271 1566.46 752.529C1565.41 751.773 1564.14 751.395 1562.66 751.395C1561.47 751.395 1560.38 751.647 1559.4 752.151C1558.44 752.655 1557.6 753.355 1556.9 754.25C1556.2 755.132 1555.66 756.175 1555.29 757.379C1554.91 758.569 1554.72 759.863 1554.72 761.263V762.187C1554.72 763.531 1554.93 764.791 1555.35 765.966C1555.77 767.142 1556.36 768.178 1557.11 769.074C1557.87 769.956 1558.76 770.648 1559.78 771.152C1560.8 771.656 1561.92 771.908 1563.14 771.908C1564.45 771.908 1565.66 771.677 1566.75 771.215C1567.84 770.753 1568.84 769.942 1569.73 768.78L1570.82 769.599C1570.32 770.326 1569.71 770.977 1569 771.551C1568.28 772.125 1567.44 772.58 1566.46 772.916C1565.49 773.252 1564.37 773.42 1563.1 773.42ZM1578.26 755.132V773H1576.6V750.282H1578.23L1578.26 755.132ZM1577.94 759.898L1577.12 758.933C1577.25 757.729 1577.54 756.581 1578 755.489C1578.48 754.397 1579.1 753.432 1579.87 752.592C1580.66 751.752 1581.57 751.087 1582.6 750.597C1583.65 750.107 1584.81 749.862 1586.07 749.862C1587.2 749.862 1588.22 750.023 1589.11 750.345C1590.01 750.653 1590.76 751.143 1591.38 751.815C1592.01 752.487 1592.48 753.355 1592.81 754.418C1593.13 755.468 1593.29 756.749 1593.29 758.261V773H1591.63V758.261C1591.63 756.469 1591.39 755.083 1590.9 754.104C1590.41 753.11 1589.72 752.41 1588.84 752.004C1587.97 751.598 1586.96 751.395 1585.79 751.395C1584.45 751.395 1583.29 751.696 1582.31 752.298C1581.34 752.886 1580.54 753.635 1579.91 754.544C1579.28 755.44 1578.8 756.371 1578.47 757.337C1578.14 758.303 1577.97 759.157 1577.94 759.898ZM1612.52 750.282V773H1610.84V750.282H1612.52ZM1610.32 743.396C1610.32 743.018 1610.44 742.696 1610.69 742.43C1610.96 742.15 1611.3 742.01 1611.7 742.01C1612.09 742.01 1612.42 742.15 1612.69 742.43C1612.96 742.696 1613.09 743.018 1613.09 743.396C1613.09 743.773 1612.96 744.095 1612.69 744.361C1612.42 744.613 1612.09 744.739 1611.7 744.739C1611.3 744.739 1610.96 744.613 1610.69 744.361C1610.44 744.095 1610.32 743.773 1610.32 743.396ZM1621.42 755.132V773H1619.77V750.282H1621.4L1621.42 755.132ZM1621.11 759.898L1620.29 758.933C1620.42 757.729 1620.71 756.581 1621.17 755.489C1621.65 754.397 1622.27 753.432 1623.04 752.592C1623.82 751.752 1624.73 751.087 1625.77 750.597C1626.82 750.107 1627.97 749.862 1629.23 749.862C1630.37 749.862 1631.38 750.023 1632.28 750.345C1633.17 750.653 1633.93 751.143 1634.55 751.815C1635.18 752.487 1635.65 753.355 1635.97 754.418C1636.3 755.468 1636.46 756.749 1636.46 758.261V773H1634.8V758.261C1634.8 756.469 1634.55 755.083 1634.06 754.104C1633.57 753.11 1632.89 752.41 1632.01 752.004C1631.14 751.598 1630.12 751.395 1628.96 751.395C1627.62 751.395 1626.46 751.696 1625.48 752.298C1624.51 752.886 1623.71 753.635 1623.08 754.544C1622.45 755.44 1621.97 756.371 1621.63 757.337C1621.31 758.303 1621.14 759.157 1621.11 759.898Z" fill="#E6E6E6"/>
<path d="M1674.31 742.43V773H1672.63V742.43H1674.31ZM1685.19 742.43V743.983H1661.76V742.43H1685.19ZM1695.25 770.774L1702.8 750.282H1704.63L1694.72 776.716C1694.54 777.22 1694.31 777.78 1694.03 778.396C1693.75 779.026 1693.38 779.628 1692.94 780.202C1692.49 780.776 1691.91 781.244 1691.19 781.608C1690.49 781.986 1689.63 782.175 1688.59 782.175C1688.35 782.175 1688.04 782.147 1687.65 782.091C1687.27 782.049 1686.99 781.993 1686.81 781.923L1686.78 780.454C1686.98 780.496 1687.24 780.531 1687.56 780.559C1687.88 780.601 1688.11 780.622 1688.23 780.622C1689.16 780.622 1689.93 780.44 1690.54 780.076C1691.17 779.726 1691.7 779.222 1692.12 778.564C1692.54 777.92 1692.91 777.157 1693.23 776.275L1695.25 770.774ZM1687.46 750.282L1695.52 770.921L1696 772.643L1694.72 773.441L1685.63 750.282H1687.46ZM1710.43 754.649V781.734H1708.75V750.282H1710.36L1710.43 754.649ZM1726.51 761.41V761.851C1726.51 763.573 1726.31 765.14 1725.92 766.554C1725.54 767.968 1724.98 769.186 1724.24 770.208C1723.51 771.229 1722.62 772.02 1721.55 772.58C1720.49 773.14 1719.28 773.42 1717.92 773.42C1716.62 773.42 1715.45 773.231 1714.42 772.853C1713.38 772.461 1712.48 771.915 1711.73 771.215C1710.97 770.515 1710.36 769.718 1709.9 768.822C1709.44 767.912 1709.12 766.939 1708.94 765.903V758.009C1709.17 756.819 1709.53 755.734 1710.01 754.754C1710.5 753.761 1711.11 752.9 1711.83 752.172C1712.57 751.43 1713.45 750.863 1714.46 750.471C1715.47 750.065 1716.61 749.862 1717.88 749.862C1719.24 749.862 1720.45 750.135 1721.51 750.681C1722.59 751.213 1723.5 751.983 1724.24 752.991C1724.98 753.985 1725.54 755.195 1725.92 756.623C1726.31 758.037 1726.51 759.632 1726.51 761.41ZM1724.81 761.851V761.41C1724.81 759.982 1724.66 758.66 1724.37 757.442C1724.09 756.224 1723.65 755.167 1723.07 754.271C1722.48 753.376 1721.74 752.676 1720.84 752.172C1719.94 751.668 1718.89 751.416 1717.67 751.416C1716.34 751.416 1715.21 751.64 1714.29 752.088C1713.37 752.522 1712.6 753.089 1712 753.789C1711.41 754.488 1710.96 755.244 1710.64 756.056C1710.31 756.854 1710.08 757.61 1709.92 758.324V765.777C1710.17 766.897 1710.62 767.919 1711.27 768.843C1711.91 769.767 1712.76 770.508 1713.83 771.068C1714.91 771.614 1716.2 771.887 1717.71 771.887C1718.93 771.887 1719.98 771.635 1720.86 771.131C1721.74 770.627 1722.48 769.928 1723.07 769.032C1723.65 768.136 1724.09 767.079 1724.37 765.861C1724.66 764.63 1724.81 763.293 1724.81 761.851ZM1740.89 773.42C1739.46 773.42 1738.14 773.147 1736.92 772.601C1735.71 772.041 1734.64 771.264 1733.73 770.271C1732.82 769.263 1732.11 768.073 1731.59 766.701C1731.09 765.329 1730.83 763.825 1730.83 762.187V761.263C1730.83 759.569 1731.09 758.03 1731.59 756.644C1732.11 755.244 1732.81 754.041 1733.69 753.033C1734.57 752.011 1735.59 751.227 1736.73 750.681C1737.9 750.135 1739.13 749.862 1740.45 749.862C1741.78 749.862 1742.98 750.107 1744.06 750.597C1745.14 751.087 1746.06 751.773 1746.83 752.655C1747.6 753.537 1748.19 754.586 1748.6 755.804C1749 757.022 1749.21 758.366 1749.21 759.835V761.242H1731.88V759.709H1747.55V759.437C1747.53 758.009 1747.24 756.686 1746.67 755.468C1746.11 754.25 1745.3 753.271 1744.25 752.529C1743.2 751.773 1741.93 751.395 1740.45 751.395C1739.26 751.395 1738.18 751.647 1737.2 752.151C1736.23 752.655 1735.4 753.355 1734.7 754.25C1734 755.132 1733.46 756.175 1733.08 757.379C1732.7 758.569 1732.51 759.863 1732.51 761.263V762.187C1732.51 763.531 1732.72 764.791 1733.14 765.966C1733.56 767.142 1734.15 768.178 1734.91 769.074C1735.66 769.956 1736.55 770.648 1737.57 771.152C1738.6 771.656 1739.72 771.908 1740.93 771.908C1742.25 771.908 1743.45 771.677 1744.54 771.215C1745.64 770.753 1746.63 769.942 1747.53 768.78L1748.62 769.599C1748.11 770.326 1747.51 770.977 1746.79 771.551C1746.08 772.125 1745.23 772.58 1744.25 772.916C1743.29 773.252 1742.17 773.42 1740.89 773.42ZM1772.89 765.588C1772.89 764.679 1772.74 763.867 1772.43 763.153C1772.12 762.425 1771.61 761.781 1770.9 761.221C1770.2 760.647 1769.27 760.115 1768.12 759.625C1766.98 759.136 1765.56 758.66 1763.88 758.198C1762.34 757.778 1760.95 757.323 1759.7 756.833C1758.47 756.329 1757.42 755.755 1756.53 755.111C1755.67 754.467 1755 753.705 1754.54 752.823C1754.08 751.927 1753.85 750.87 1753.85 749.652C1753.85 748.477 1754.1 747.42 1754.6 746.482C1755.11 745.544 1755.81 744.746 1756.72 744.088C1757.65 743.417 1758.72 742.906 1759.96 742.556C1761.2 742.192 1762.56 742.01 1764.03 742.01C1766.09 742.01 1767.89 742.402 1769.43 743.186C1770.97 743.955 1772.17 745.026 1773.04 746.398C1773.9 747.756 1774.34 749.316 1774.34 751.08H1772.64C1772.64 749.638 1772.28 748.351 1771.57 747.217C1770.87 746.083 1769.87 745.194 1768.59 744.55C1767.31 743.892 1765.79 743.563 1764.03 743.563C1762.21 743.563 1760.66 743.843 1759.39 744.403C1758.13 744.963 1757.17 745.705 1756.51 746.629C1755.87 747.539 1755.55 748.533 1755.55 749.61C1755.55 750.38 1755.69 751.101 1755.97 751.773C1756.26 752.445 1756.74 753.061 1757.39 753.621C1758.07 754.181 1758.97 754.712 1760.1 755.216C1761.25 755.706 1762.68 756.182 1764.39 756.644C1765.95 757.05 1767.36 757.512 1768.61 758.03C1769.87 758.534 1770.94 759.129 1771.84 759.814C1772.74 760.5 1773.42 761.312 1773.9 762.25C1774.37 763.188 1774.61 764.287 1774.61 765.546C1774.61 766.792 1774.35 767.905 1773.81 768.885C1773.28 769.851 1772.54 770.676 1771.59 771.362C1770.65 772.034 1769.54 772.545 1768.27 772.895C1767.01 773.245 1765.65 773.42 1764.2 773.42C1762.87 773.42 1761.53 773.259 1760.19 772.937C1758.86 772.615 1757.64 772.097 1756.53 771.383C1755.43 770.669 1754.54 769.732 1753.87 768.57C1753.2 767.408 1752.86 765.994 1752.86 764.329H1754.56C1754.56 765.756 1754.85 766.96 1755.44 767.94C1756.03 768.906 1756.8 769.676 1757.75 770.25C1758.7 770.823 1759.74 771.236 1760.86 771.488C1761.99 771.74 1763.11 771.866 1764.2 771.866C1765.9 771.866 1767.41 771.607 1768.71 771.089C1770.03 770.557 1771.05 769.823 1771.78 768.885C1772.52 767.933 1772.89 766.834 1772.89 765.588ZM1787.82 771.887C1788.95 771.887 1790.02 771.677 1791.03 771.257C1792.05 770.837 1792.9 770.201 1793.57 769.347C1794.26 768.479 1794.64 767.38 1794.73 766.05H1796.36C1796.29 767.562 1795.86 768.871 1795.06 769.977C1794.26 771.068 1793.23 771.915 1791.98 772.517C1790.72 773.119 1789.33 773.42 1787.82 773.42C1786.31 773.42 1784.96 773.14 1783.77 772.58C1782.59 772.02 1781.6 771.229 1780.81 770.208C1780.01 769.186 1779.4 767.989 1778.98 766.617C1778.57 765.231 1778.37 763.72 1778.37 762.082V761.2C1778.37 759.562 1778.57 758.058 1778.98 756.686C1779.4 755.3 1780.01 754.097 1780.81 753.075C1781.6 752.053 1782.58 751.262 1783.74 750.702C1784.92 750.142 1786.26 749.862 1787.78 749.862C1789.3 749.862 1790.7 750.177 1791.98 750.807C1793.25 751.423 1794.28 752.326 1795.06 753.516C1795.86 754.691 1796.29 756.133 1796.36 757.841H1794.73C1794.66 756.441 1794.3 755.265 1793.65 754.313C1793.01 753.362 1792.17 752.641 1791.14 752.151C1790.1 751.647 1788.98 751.395 1787.78 751.395C1786.43 751.395 1785.27 751.654 1784.29 752.172C1783.31 752.69 1782.51 753.404 1781.88 754.313C1781.25 755.209 1780.78 756.252 1780.49 757.442C1780.2 758.618 1780.05 759.87 1780.05 761.2V762.082C1780.05 763.426 1780.2 764.693 1780.49 765.882C1780.78 767.058 1781.25 768.094 1781.88 768.99C1782.51 769.886 1783.31 770.592 1784.29 771.11C1785.28 771.628 1786.46 771.887 1787.82 771.887ZM1803.46 754.146V773H1801.8V750.282H1803.44L1803.46 754.146ZM1812.11 750.114L1812.01 751.626C1811.75 751.584 1811.5 751.549 1811.25 751.521C1811 751.493 1810.73 751.479 1810.45 751.479C1809.25 751.479 1808.19 751.717 1807.28 752.193C1806.39 752.669 1805.63 753.32 1805.01 754.146C1804.41 754.971 1803.96 755.93 1803.65 757.022C1803.34 758.114 1803.18 759.283 1803.17 760.528L1802.35 760.696C1802.35 759.143 1802.51 757.708 1802.83 756.392C1803.17 755.076 1803.67 753.929 1804.34 752.949C1805.01 751.969 1805.86 751.213 1806.88 750.681C1807.9 750.135 1809.11 749.862 1810.49 749.862C1810.83 749.862 1811.14 749.89 1811.42 749.946C1811.7 749.988 1811.93 750.044 1812.11 750.114ZM1818.2 750.282V773H1816.52V750.282H1818.2ZM1815.99 743.396C1815.99 743.018 1816.12 742.696 1816.37 742.43C1816.64 742.15 1816.97 742.01 1817.38 742.01C1817.77 742.01 1818.1 742.15 1818.37 742.43C1818.63 742.696 1818.77 743.018 1818.77 743.396C1818.77 743.773 1818.63 744.095 1818.37 744.361C1818.1 744.613 1817.77 744.739 1817.38 744.739C1816.97 744.739 1816.64 744.613 1816.37 744.361C1816.12 744.095 1815.99 743.773 1815.99 743.396ZM1827.08 754.649V781.734H1825.4V750.282H1827.02L1827.08 754.649ZM1843.16 761.41V761.851C1843.16 763.573 1842.97 765.14 1842.58 766.554C1842.2 767.968 1841.64 769.186 1840.9 770.208C1840.17 771.229 1839.27 772.02 1838.21 772.58C1837.14 773.14 1835.93 773.42 1834.58 773.42C1833.27 773.42 1832.11 773.231 1831.07 772.853C1830.03 772.461 1829.14 771.915 1828.38 771.215C1827.63 770.515 1827.02 769.718 1826.56 768.822C1826.09 767.912 1825.77 766.939 1825.59 765.903V758.009C1825.83 756.819 1826.18 755.734 1826.66 754.754C1827.15 753.761 1827.76 752.9 1828.49 752.172C1829.23 751.43 1830.1 750.863 1831.11 750.471C1832.12 750.065 1833.26 749.862 1834.53 749.862C1835.89 749.862 1837.1 750.135 1838.17 750.681C1839.24 751.213 1840.15 751.983 1840.9 752.991C1841.64 753.985 1842.2 755.195 1842.58 756.623C1842.97 758.037 1843.16 759.632 1843.16 761.41ZM1841.46 761.851V761.41C1841.46 759.982 1841.32 758.66 1841.02 757.442C1840.74 756.224 1840.31 755.167 1839.72 754.271C1839.13 753.376 1838.39 752.676 1837.49 752.172C1836.6 751.668 1835.54 751.416 1834.32 751.416C1832.99 751.416 1831.87 751.64 1830.94 752.088C1830.02 752.522 1829.26 753.089 1828.66 753.789C1828.07 754.488 1827.61 755.244 1827.29 756.056C1826.97 756.854 1826.73 757.61 1826.58 758.324V765.777C1826.83 766.897 1827.28 767.919 1827.92 768.843C1828.56 769.767 1829.42 770.508 1830.48 771.068C1831.56 771.614 1832.85 771.887 1834.37 771.887C1835.58 771.887 1836.63 771.635 1837.52 771.131C1838.4 770.627 1839.13 769.928 1839.72 769.032C1840.31 768.136 1840.74 767.079 1841.02 765.861C1841.32 764.63 1841.46 763.293 1841.46 761.851ZM1857.19 750.282V751.794H1846.31V750.282H1857.19ZM1850.51 744.277H1852.19V767.52C1852.19 768.738 1852.34 769.662 1852.63 770.292C1852.94 770.907 1853.34 771.327 1853.83 771.551C1854.33 771.761 1854.87 771.866 1855.45 771.866C1855.85 771.866 1856.22 771.845 1856.56 771.803C1856.91 771.761 1857.26 771.712 1857.61 771.656L1857.76 773.126C1857.45 773.224 1857.05 773.294 1856.56 773.336C1856.07 773.392 1855.64 773.42 1855.26 773.42C1854.31 773.42 1853.47 773.245 1852.76 772.895C1852.04 772.545 1851.49 771.943 1851.1 771.089C1850.71 770.222 1850.51 769.032 1850.51 767.52V744.277Z" fill="#1B1C1E"/>
<g clip-path="url(#clip0_457_7)">
<path d="M1676.98 743.89H1667.42V773.043H1663.54V743.89H1654V740.429H1676.98V743.89Z" fill="#007ACC"/>
<path d="M1692.07 749.757L1681.19 776.768C1679.25 781.587 1676.52 784 1673.01 784C1672.02 784 1671.2 783.903 1670.54 783.702V780.358C1671.35 780.63 1672.1 780.766 1672.78 780.766C1674.69 780.766 1676.12 779.647 1677.08 777.402L1678.97 772.991L1669.73 749.757H1673.94L1680.34 767.674C1680.41 767.9 1680.57 768.495 1680.82 769.446H1680.96C1681.04 769.084 1681.19 768.508 1681.42 767.719L1688.14 749.757H1692.07Z" fill="#007ACC"/>
<path d="M1698.27 769.679H1698.17V783.754H1694.38V749.757H1698.17V753.851H1698.27C1700.13 750.759 1702.85 749.213 1706.45 749.213C1709.49 749.213 1711.87 750.255 1713.58 752.338C1715.29 754.42 1716.14 757.215 1716.14 760.721C1716.14 764.614 1715.18 767.739 1713.26 770.08C1711.33 772.422 1708.7 773.593 1705.36 773.593C1702.29 773.586 1699.93 772.286 1698.27 769.679ZM1698.17 760.287V763.541C1698.17 765.468 1698.81 767.098 1700.08 768.444C1701.35 769.789 1702.96 770.455 1704.92 770.455C1707.21 770.455 1709.01 769.589 1710.32 767.862C1711.62 766.135 1712.27 763.728 1712.27 760.656C1712.27 758.062 1711.66 756.031 1710.44 754.563C1709.23 753.094 1707.58 752.357 1705.5 752.357C1703.3 752.357 1701.52 753.114 1700.18 754.621C1698.84 756.122 1698.17 758.01 1698.17 760.287Z" fill="#007ACC"/>
<path d="M1739.13 762.331H1722.43C1722.48 764.925 1723.19 766.924 1724.55 768.334C1725.9 769.744 1727.77 770.449 1730.14 770.449C1732.8 770.449 1735.25 769.582 1737.48 767.855V771.354C1735.41 772.842 1732.66 773.586 1729.24 773.586C1725.89 773.586 1723.27 772.532 1721.36 770.417C1719.45 768.301 1718.5 765.326 1718.5 761.49C1718.5 757.868 1719.54 754.912 1721.62 752.635C1723.71 750.352 1726.3 749.213 1729.4 749.213C1732.49 749.213 1734.88 750.197 1736.58 752.169C1738.27 754.142 1739.12 756.878 1739.12 760.378V762.331H1739.13ZM1735.24 759.168C1735.23 757.014 1734.7 755.339 1733.66 754.142C1732.62 752.946 1731.18 752.344 1729.33 752.344C1727.54 752.344 1726.03 752.972 1724.78 754.233C1723.53 755.494 1722.76 757.137 1722.46 759.168H1735.24Z" fill="#007ACC"/>
<path d="M1742.44 771.723V767.221C1742.92 767.674 1743.49 768.088 1744.16 768.45C1744.83 768.812 1745.53 769.123 1746.27 769.369C1747.02 769.614 1747.76 769.815 1748.5 769.951C1749.25 770.087 1749.94 770.158 1750.57 770.158C1752.75 770.158 1754.39 769.724 1755.47 768.851C1756.54 767.978 1757.08 766.723 1757.08 765.087C1757.08 764.207 1756.91 763.444 1756.54 762.79C1756.18 762.137 1755.69 761.542 1755.05 761.005C1754.42 760.468 1753.67 759.951 1752.8 759.459C1751.93 758.968 1751 758.45 1750 757.9C1748.94 757.325 1747.96 756.743 1747.04 756.147C1746.13 755.559 1745.33 754.906 1744.66 754.194C1743.98 753.483 1743.45 752.674 1743.06 751.775C1742.67 750.876 1742.48 749.815 1742.48 748.605C1742.48 747.118 1742.79 745.831 1743.39 744.731C1743.99 743.631 1744.79 742.726 1745.78 742.014C1746.77 741.303 1747.89 740.772 1749.15 740.423C1750.41 740.074 1751.7 739.899 1753.01 739.899C1756 739.899 1758.17 740.287 1759.54 741.057V745.352C1757.75 744.019 1755.45 743.353 1752.65 743.353C1751.87 743.353 1751.1 743.444 1750.32 743.612C1749.55 743.787 1748.86 744.071 1748.25 744.466C1747.65 744.86 1747.16 745.365 1746.77 745.992C1746.39 746.613 1746.2 747.37 1746.2 748.269C1746.2 749.103 1746.35 749.821 1746.64 750.429C1746.93 751.038 1747.35 751.587 1747.92 752.092C1748.48 752.59 1749.17 753.075 1749.98 753.547C1750.79 754.019 1751.72 754.53 1752.78 755.093C1753.86 755.669 1754.89 756.277 1755.87 756.911C1756.84 757.545 1757.69 758.25 1758.42 759.026C1759.15 759.802 1759.74 760.656 1760.16 761.594C1760.59 762.532 1760.81 763.612 1760.81 764.821C1760.81 766.426 1760.51 767.79 1759.93 768.903C1759.35 770.016 1758.56 770.921 1757.57 771.62C1756.58 772.318 1755.43 772.823 1754.13 773.133C1752.84 773.444 1751.47 773.599 1750.03 773.599C1749.55 773.599 1748.96 773.56 1748.26 773.476C1747.56 773.392 1746.83 773.269 1746.1 773.114C1745.37 772.952 1744.68 772.758 1744.02 772.525C1743.36 772.273 1742.84 772.008 1742.44 771.723Z" fill="#007ACC"/>
<path d="M1780.97 771.975C1779.15 773.049 1777 773.592 1774.51 773.592C1771.13 773.592 1768.41 772.512 1766.34 770.352C1764.27 768.191 1763.23 765.391 1763.23 761.95C1763.23 758.114 1764.35 755.035 1766.58 752.706C1768.82 750.378 1771.79 749.213 1775.52 749.213C1777.6 749.213 1779.43 749.595 1781.02 750.352V754.175C1779.27 752.959 1777.39 752.357 1775.39 752.357C1772.97 752.357 1770.98 753.211 1769.44 754.919C1767.9 756.626 1767.12 758.864 1767.12 761.639C1767.12 764.369 1767.85 766.523 1769.3 768.094C1770.75 769.666 1772.71 770.462 1775.16 770.462C1777.22 770.462 1779.16 769.789 1780.98 768.437V771.975H1780.97Z" fill="#007ACC"/>
<path d="M1795.63 753.528C1794.97 753.03 1794.02 752.777 1792.77 752.777C1791.15 752.777 1789.8 753.528 1788.71 755.028C1787.63 756.529 1787.08 758.573 1787.08 761.167V773.036H1783.29V749.75H1787.08V754.55H1787.18C1787.71 752.913 1788.54 751.633 1789.65 750.721C1790.76 749.802 1791.99 749.343 1793.37 749.343C1794.35 749.343 1795.11 749.446 1795.63 749.66V753.528Z" fill="#007ACC"/>
<path d="M1799.98 743.845C1799.3 743.845 1798.72 743.618 1798.24 743.166C1797.76 742.713 1797.53 742.137 1797.53 741.439C1797.53 740.74 1797.76 740.164 1798.24 739.699C1798.72 739.239 1799.3 739.006 1799.98 739.006C1800.67 739.006 1801.26 739.239 1801.75 739.699C1802.23 740.164 1802.47 740.74 1802.47 741.439C1802.47 742.105 1802.23 742.674 1801.75 743.146C1801.26 743.605 1800.67 743.845 1799.98 743.845ZM1801.82 773.043H1798.03V749.757H1801.82V773.043Z" fill="#007ACC"/>
<path d="M1807.94 769.679H1807.85V783.754H1804.05V749.757H1807.85V753.851H1807.94C1809.8 750.759 1812.52 749.213 1816.12 749.213C1819.17 749.213 1821.54 750.255 1823.25 752.338C1824.96 754.42 1825.82 757.215 1825.82 760.721C1825.82 764.614 1824.86 767.739 1822.93 770.08C1821.01 772.422 1818.37 773.593 1815.03 773.593C1811.97 773.586 1809.6 772.286 1807.94 769.679ZM1807.85 760.287V763.541C1807.85 765.468 1808.48 767.098 1809.75 768.444C1811.02 769.789 1812.64 770.455 1814.59 770.455C1816.89 770.455 1818.69 769.589 1819.99 767.862C1821.29 766.135 1821.94 763.728 1821.94 760.656C1821.94 758.062 1821.33 756.031 1820.11 754.563C1818.9 753.094 1817.25 752.357 1815.17 752.357C1812.97 752.357 1811.2 753.114 1809.86 754.621C1808.52 756.122 1807.85 758.01 1807.85 760.287Z" fill="#007ACC"/>
<path d="M1840 772.816C1839.11 773.301 1837.93 773.541 1836.47 773.541C1832.33 773.541 1830.25 771.264 1830.25 766.717V752.939H1826.18V749.757H1830.25V744.071L1834.04 742.868V749.757H1840V752.939H1834.04V766.057C1834.04 767.616 1834.31 768.735 1834.85 769.401C1835.39 770.067 1836.28 770.404 1837.53 770.404C1838.48 770.404 1839.31 770.145 1840 769.627V772.816Z" fill="#007ACC"/>
</g>
<defs>
<clipPath id="clip0_457_7">
<rect width="186" height="45" fill="white" transform="translate(1654 739)"/>
</clipPath>
</defs>
</svg>
