<?xml version="1.0" encoding="UTF-8"?>
<svg width="1424px" height="543px" viewBox="0 0 1424 543" version="1.1" xmlns="http://www.w3.org/2000/svg" xmlns:xlink="http://www.w3.org/1999/xlink">
    <!-- Generator: Sketch 52.5 (67469) - http://www.bohemiancoding.com/sketch -->
    <title>stacks_queues</title>
    <desc>Created with Sketch.</desc>
    <g id="stacks_queues" stroke="none" stroke-width="1" fill="none" fill-rule="evenodd">
        <g id="LIFO" transform="translate(34.000000, 12.000000)">
            <g id="S" transform="translate(13.000000, 127.000000)">
                <text id="Remove-(head)" font-family="SFMono-Regular, SF Mono" font-size="48" font-weight="normal" fill="#000000">
                    <tspan x="0" y="334">Remove (head)</tspan>
                </text>
                <text id="Add-(head)" font-family="SFMono-Regular, SF Mono" font-size="48" font-weight="normal" fill="#000000">
                    <tspan x="19" y="46">Add (head)</tspan>
                </text>
                <rect id="Rectangle-2-Copy" stroke="#979797" fill="#D8D8D8" x="198.5" y="116.5" width="57" height="96"></rect>
                <rect id="Rectangle-2-Copy-2" stroke="#979797" fill="#D8D8D8" x="256.5" y="116.5" width="57" height="96"></rect>
                <rect id="Rectangle-2-Copy-3" stroke="#979797" fill="#D8D8D8" x="314.5" y="116.5" width="57" height="96"></rect>
                <rect id="Rectangle-2-Copy-4" stroke="#979797" fill="#D8D8D8" x="372.5" y="116.5" width="57" height="96"></rect>
                <rect id="Rectangle-2-Copy-5" stroke="#979797" fill="#D8D8D8" x="430.5" y="116.5" width="57" height="96"></rect>
                <text id="5" font-family="SFMono-Regular, SF Mono" font-size="48" font-weight="normal" fill="#000000">
                    <tspan x="213" y="184">5</tspan>
                </text>
                <text id="4" font-family="SFMono-Regular, SF Mono" font-size="48" font-weight="normal" fill="#000000">
                    <tspan x="271" y="184">4</tspan>
                </text>
                <text id="3" font-family="SFMono-Regular, SF Mono" font-size="48" font-weight="normal" fill="#000000">
                    <tspan x="329" y="184">3</tspan>
                </text>
                <text id="2" font-family="SFMono-Regular, SF Mono" font-size="48" font-weight="normal" fill="#000000">
                    <tspan x="387" y="184">2</tspan>
                </text>
                <text id="1" font-family="SFMono-Regular, SF Mono" font-size="48" font-weight="normal" fill="#000000">
                    <tspan x="445" y="184">1</tspan>
                </text>
                <path d="M178.508878,58 L178.508878,119.5 C176.940879,128.390632 175.216364,134.334853 173.335332,137.332665 C171.454299,140.330476 167.411095,143.578298 161.20572,147.076132 L91,147.076132" id="Line-6" stroke="#979797" stroke-width="5" stroke-dasharray="5" transform="translate(134.754439, 102.538066) scale(-1, 1) translate(-134.754439, -102.538066) "></path>
                <path d="M194.292505,176.216373 L194.292505,237.716373 C192.724507,246.607005 190.999991,252.551226 189.118959,255.549037 C187.237926,258.546849 183.194722,261.794671 176.989347,265.292505 L106.783627,265.292505" id="Line-6-Copy" stroke="#979797" stroke-width="5" stroke-dasharray="5" transform="translate(150.538066, 220.754439) scale(-1, 1) rotate(-90.000000) translate(-150.538066, -220.754439) "></path>
                <polygon id="Triangle" fill="#9B9B9B" transform="translate(184.000000, 146.500000) scale(-1, 1) rotate(-90.000000) translate(-184.000000, -146.500000) " points="184 134.5 193.5 158.5 174.5 158.5"></polygon>
                <polygon id="Triangle-Copy" fill="#9B9B9B" transform="translate(105.500000, 277.000000) rotate(180.000000) translate(-105.500000, -277.000000) " points="105.5 265 115 289 96 289"></polygon>
            </g>
            <text id="LIFO-(STACK)" font-family="SFMono-Regular, SF Mono" font-size="48" font-weight="normal" fill="#4A90E2">
                <tspan x="0" y="46">LIFO (STACK)</tspan>
            </text>
        </g>
        <g id="FIFO" transform="translate(791.000000, 12.000000)">
            <g id="Q" transform="translate(3.000000, 118.000000)">
                <text id="Remove-(tail)" font-family="SFMono-Regular, SF Mono" font-size="48" font-weight="normal" fill="#000000">
                    <tspan x="209" y="343">Remove (tail)</tspan>
                </text>
                <text id="Add-(head)" font-family="SFMono-Regular, SF Mono" font-size="48" font-weight="normal" fill="#000000">
                    <tspan x="0" y="46">Add (head)</tspan>
                </text>
                <rect id="Rectangle-2-Copy" stroke="#979797" fill="#D8D8D8" x="179.5" y="125.5" width="57" height="96"></rect>
                <rect id="Rectangle-2-Copy-2" stroke="#979797" fill="#D8D8D8" x="237.5" y="125.5" width="57" height="96"></rect>
                <rect id="Rectangle-2-Copy-3" stroke="#979797" fill="#D8D8D8" x="295.5" y="125.5" width="57" height="96"></rect>
                <rect id="Rectangle-2-Copy-4" stroke="#979797" fill="#D8D8D8" x="353.5" y="125.5" width="57" height="96"></rect>
                <rect id="Rectangle-2-Copy-5" stroke="#979797" fill="#D8D8D8" x="411.5" y="125.5" width="57" height="96"></rect>
                <text id="5" font-family="SFMono-Regular, SF Mono" font-size="48" font-weight="normal" fill="#000000">
                    <tspan x="194" y="193">5</tspan>
                </text>
                <text id="4" font-family="SFMono-Regular, SF Mono" font-size="48" font-weight="normal" fill="#000000">
                    <tspan x="252" y="193">4</tspan>
                </text>
                <text id="3" font-family="SFMono-Regular, SF Mono" font-size="48" font-weight="normal" fill="#000000">
                    <tspan x="310" y="193">3</tspan>
                </text>
                <text id="2" font-family="SFMono-Regular, SF Mono" font-size="48" font-weight="normal" fill="#000000">
                    <tspan x="368" y="193">2</tspan>
                </text>
                <text id="1" font-family="SFMono-Regular, SF Mono" font-size="48" font-weight="normal" fill="#000000">
                    <tspan x="426" y="193">1</tspan>
                </text>
                <path d="M161.508878,62 L161.508878,139.379675 C159.940879,150.565922 158.216364,158.044978 156.335332,161.816842 C154.454299,165.588706 150.411095,169.675136 144.20572,174.076132 L74,174.076132" id="Line-6-Copy-3" stroke="#979797" stroke-width="5" stroke-dasharray="5" transform="translate(117.754439, 118.038066) scale(-1, 1) translate(-117.754439, -118.038066) "></path>
                <path d="M558.292505,175.216373 L558.292505,236.716373 C556.724507,245.607005 554.999991,251.551226 553.118959,254.549037 C551.237926,257.546849 547.194722,260.794671 540.989347,264.292505 L470.783627,264.292505" id="Line-6-Copy-2" stroke="#979797" stroke-width="5" stroke-dasharray="5" transform="translate(514.538066, 219.754439) rotate(-90.000000) translate(-514.538066, -219.754439) "></path>
                <polygon id="Triangle-Copy-3" fill="#9B9B9B" transform="translate(166.000000, 173.500000) scale(-1, 1) rotate(-90.000000) translate(-166.000000, -173.500000) " points="166 161.5 175.5 185.5 156.5 185.5"></polygon>
                <polygon id="Triangle-Copy-2" fill="#9B9B9B" transform="translate(559.500000, 277.000000) rotate(180.000000) translate(-559.500000, -277.000000) " points="559.5 265 569 289 550 289"></polygon>
            </g>
            <text id="FIFO-(QUEUE)" font-family="SFMono-Regular, SF Mono" font-size="48" font-weight="normal" fill="#4A90E2">
                <tspan x="0" y="46">FIFO (QUEUE)</tspan>
            </text>
        </g>
        <path d="M710.5,172.5 L710.5,484.5" id="Line-5" stroke="#EDEDED" stroke-width="5" stroke-linecap="square"></path>
    </g>
</svg>