<?xml version="1.0" encoding="UTF-8"?>
<svg width="1920px" height="1080px" viewBox="0 0 1920 1080" version="1.1" xmlns="http://www.w3.org/2000/svg" xmlns:xlink="http://www.w3.org/1999/xlink">
    <!-- Generator: Sketch 51.2 (57519) - http://www.bohemiancoding.com/sketch -->
    <title>algo</title>
    <desc>Created with Sketch.</desc>
    <defs>
        <linearGradient x1="100%" y1="0%" x2="0%" y2="101.186989%" id="linearGradient-1">
            <stop stop-color="#0B0B0B" stop-opacity="0" offset="0%"></stop>
            <stop stop-color="#000000" offset="100%"></stop>
        </linearGradient>
        <rect id="path-2" x="0" y="0" width="1920" height="1080"></rect>
        <path d="M326.0625,278 L6.9375,278 C3.108,278 0,274.8725 0,271.05 L0,6.95 C0,3.1275 3.108,0 6.9375,0 L326.0625,0 C329.878125,0 333,3.1275 333,6.95 L333,271.05 C333,274.8725 329.878125,278 326.0625,278 Z M13.875,264.1 L319.125,264.1 L319.125,13.9 L13.875,13.9 L13.875,264.1 Z" id="path-3"></path>
        <filter x="-7.8%" y="-9.4%" width="120.4%" height="124.5%" filterUnits="objectBoundingBox" id="filter-4">
            <feOffset dx="8" dy="8" in="SourceAlpha" result="shadowOffsetOuter1"></feOffset>
            <feGaussianBlur stdDeviation="10" in="shadowOffsetOuter1" result="shadowBlurOuter1"></feGaussianBlur>
            <feColorMatrix values="0 0 0 0 0   0 0 0 0 0   0 0 0 0 0  0 0 0 0.5 0" type="matrix" in="shadowBlurOuter1"></feColorMatrix>
        </filter>
        <path d="M319.065217,70 L13.9347826,70 C10.1067826,70 7,66.85 7,63 C7,59.15 10.1067826,56 13.9347826,56 L319.065217,56 C322.879348,56 326,59.15 326,63 C326,66.85 322.879348,70 319.065217,70 Z" id="path-5"></path>
        <filter x="-8.2%" y="-185.7%" width="121.3%" height="585.7%" filterUnits="objectBoundingBox" id="filter-6">
            <feOffset dx="8" dy="8" in="SourceAlpha" result="shadowOffsetOuter1"></feOffset>
            <feGaussianBlur stdDeviation="10" in="shadowOffsetOuter1" result="shadowBlurOuter1"></feGaussianBlur>
            <feColorMatrix values="0 0 0 0 0   0 0 0 0 0   0 0 0 0 0  0 0 0 0.5 0" type="matrix" in="shadowBlurOuter1"></feColorMatrix>
        </filter>
        <path d="M111.082536,242 C108.782528,242 106.524086,240.863643 105.207817,238.784942 L63.0594755,171.795335 C61.5492292,169.356325 61.660073,166.307564 63.3504404,163.993276 L105.498781,106.828996 C107.771079,103.710944 112.093985,103.073476 115.183755,105.401621 C118.25967,107.674334 118.924732,112.011891 116.63858,115.088368 L77.3028991,168.455555 L116.929545,231.440198 C118.966299,234.669114 117.996416,238.965096 114.754236,240.974507 C113.631943,241.681266 112.343384,242 111.082536,242 Z" id="path-7"></path>
        <filter x="-46.4%" y="-18.8%" width="221.4%" height="149.3%" filterUnits="objectBoundingBox" id="filter-8">
            <feOffset dx="8" dy="8" in="SourceAlpha" result="shadowOffsetOuter1"></feOffset>
            <feGaussianBlur stdDeviation="10" in="shadowOffsetOuter1" result="shadowBlurOuter1"></feGaussianBlur>
            <feColorMatrix values="0 0 0 0 0   0 0 0 0 0   0 0 0 0 0  0 0 0 0.5 0" type="matrix" in="shadowBlurOuter1"></feColorMatrix>
        </filter>
        <path d="M221.940376,242 C220.679314,242 219.390537,241.681302 218.254197,240.933053 C215.011468,238.910011 214.027563,234.628367 216.078519,231.399813 L255.711873,168.422234 L216.355676,115.047177 C214.082994,111.957188 214.734311,107.633975 217.810746,105.361517 C220.887182,103.075202 225.224678,103.740312 227.49736,106.816444 L269.638978,163.974313 C271.34349,166.274484 271.454352,169.364473 269.929992,171.775496 L227.774516,238.75759 C226.485739,240.863771 224.240773,242 221.940376,242 Z" id="path-9"></path>
        <filter x="-46.4%" y="-18.8%" width="221.4%" height="149.3%" filterUnits="objectBoundingBox" id="filter-10">
            <feOffset dx="8" dy="8" in="SourceAlpha" result="shadowOffsetOuter1"></feOffset>
            <feGaussianBlur stdDeviation="10" in="shadowOffsetOuter1" result="shadowBlurOuter1"></feGaussianBlur>
            <feColorMatrix values="0 0 0 0 0   0 0 0 0 0   0 0 0 0 0  0 0 0 0.5 0" type="matrix" in="shadowBlurOuter1"></feColorMatrix>
        </filter>
        <path d="M138.955578,230 C137.800656,230 136.645734,229.709164 135.560386,229.127493 C132.206938,227.257835 131.010272,223.047643 132.888759,219.65456 L187.963229,121.545993 C189.841716,118.194458 194.057877,116.989568 197.453069,118.928472 C200.792602,120.79813 201.989268,124.994473 200.110781,128.359858 L145.036312,226.468424 C143.756157,228.725863 141.390654,230 138.955578,230 Z" id="path-11"></path>
        <filter x="-37.7%" y="-23.2%" width="198.6%" height="160.7%" filterUnits="objectBoundingBox" id="filter-12">
            <feOffset dx="8" dy="8" in="SourceAlpha" result="shadowOffsetOuter1"></feOffset>
            <feGaussianBlur stdDeviation="10" in="shadowOffsetOuter1" result="shadowBlurOuter1"></feGaussianBlur>
            <feColorMatrix values="0 0 0 0 0   0 0 0 0 0   0 0 0 0 0  0 0 0 0.5 0" type="matrix" in="shadowBlurOuter1"></feColorMatrix>
        </filter>
        <path d="M42,35 C42,38.8675 38.8675,42 35,42 C31.1325,42 28,38.8675 28,35 C28,31.1325 31.1325,28 35,28 C38.8675,28 42,31.1325 42,35 Z" id="path-13"></path>
        <filter x="-185.7%" y="-185.7%" width="585.7%" height="585.7%" filterUnits="objectBoundingBox" id="filter-14">
            <feOffset dx="8" dy="8" in="SourceAlpha" result="shadowOffsetOuter1"></feOffset>
            <feGaussianBlur stdDeviation="10" in="shadowOffsetOuter1" result="shadowBlurOuter1"></feGaussianBlur>
            <feColorMatrix values="0 0 0 0 0   0 0 0 0 0   0 0 0 0 0  0 0 0 0.5 0" type="matrix" in="shadowBlurOuter1"></feColorMatrix>
        </filter>
        <path d="M69,35 C69,38.8675 65.8675,42 62,42 C58.1325,42 55,38.8675 55,35 C55,31.1325 58.1325,28 62,28 C65.8675,28 69,31.1325 69,35 Z" id="path-15"></path>
        <filter x="-185.7%" y="-185.7%" width="585.7%" height="585.7%" filterUnits="objectBoundingBox" id="filter-16">
            <feOffset dx="8" dy="8" in="SourceAlpha" result="shadowOffsetOuter1"></feOffset>
            <feGaussianBlur stdDeviation="10" in="shadowOffsetOuter1" result="shadowBlurOuter1"></feGaussianBlur>
            <feColorMatrix values="0 0 0 0 0   0 0 0 0 0   0 0 0 0 0  0 0 0 0.5 0" type="matrix" in="shadowBlurOuter1"></feColorMatrix>
        </filter>
        <path d="M97,35 C97,38.8675 93.8675,42 90,42 C86.1325,42 83,38.8675 83,35 C83,31.1325 86.1325,28 90,28 C93.8675,28 97,31.1325 97,35 Z" id="path-17"></path>
        <filter x="-185.7%" y="-185.7%" width="585.7%" height="585.7%" filterUnits="objectBoundingBox" id="filter-18">
            <feOffset dx="8" dy="8" in="SourceAlpha" result="shadowOffsetOuter1"></feOffset>
            <feGaussianBlur stdDeviation="10" in="shadowOffsetOuter1" result="shadowBlurOuter1"></feGaussianBlur>
            <feColorMatrix values="0 0 0 0 0   0 0 0 0 0   0 0 0 0 0  0 0 0 0.5 0" type="matrix" in="shadowBlurOuter1"></feColorMatrix>
        </filter>
        <path d="M0,0 L0,6.25218054 L0,350 L288,350 L288,0 L0,0 Z M12.5217391,12.5043611 L275.478261,12.5043611 L275.478261,237.509592 L12.5217391,237.509592 L12.5217391,12.5043611 Z M112.695652,24.9354541 L112.695652,31.1876346 L112.695652,74.9528984 L137.885873,74.9528984 L137.885873,112.41714 L62.7554379,112.41714 L62.7554379,163.362633 C52.0104058,166.1736 43.9728255,175.922288 43.9728267,187.492148 C43.9728255,201.23069 55.2593263,212.50087 69.0163075,212.50087 C82.7732786,212.50087 94.0597857,201.23069 94.0597857,187.492148 C94.0597857,175.922288 86.0221941,166.1736 75.277177,163.362633 L75.277177,124.921501 L150.407612,124.921501 L213.016307,124.921501 L213.016307,159.919057 L183.864134,189.030772 L219.301632,224.394668 L254.714675,189.030772 L225.538047,159.870215 L225.538047,112.41714 L150.407612,112.41714 L150.407612,74.9528984 L175.304348,74.9528984 L175.304348,24.9354541 L112.695652,24.9354541 Z M125.217391,37.4398152 L162.782609,37.4398152 L162.782609,62.4485373 L125.217391,62.4485373 L125.217391,37.4398152 Z M219.301632,171.348818 L237.008147,189.030772 L219.301632,206.712714 L201.570649,189.030772 L219.301632,171.348818 Z M69.0163075,174.987787 C76.0060299,174.987787 81.5380466,180.512214 81.5380466,187.492148 C81.5380466,194.472082 76.0060299,199.996509 69.0163075,199.996509 C62.0265763,199.996509 56.4945633,194.472082 56.4945658,187.492148 C56.4945646,180.512214 62.0265775,174.987787 69.0163075,174.987787 Z M12.5217391,250.013953 L137.73913,250.013953 L137.73913,337.495639 L12.5217391,337.495639 L12.5217391,250.013953 Z M150.26087,250.013953 L275.478261,250.013953 L275.478261,337.495639 L150.26087,337.495639 L150.26087,250.013953 Z M25.0434783,262.518315 L25.0434783,275.022676 L125.217391,275.022676 L125.217391,262.518315 L25.0434783,262.518315 Z M169.043478,262.518315 L169.043478,275.022676 L256.695652,275.022676 L256.695652,262.518315 L169.043478,262.518315 Z M169.043478,287.527037 L169.043478,300.031398 L256.695652,300.031398 L256.695652,287.527037 L169.043478,287.527037 Z M25.0434783,312.535759 L25.0434783,325.04012 L125.217391,325.04012 L125.217391,312.535759 L25.0434783,312.535759 Z M169.043478,312.535759 L169.043478,325.04012 L256.695652,325.04012 L256.695652,312.535759 L169.043478,312.535759 Z" id="path-19"></path>
        <filter x="-9.0%" y="-7.4%" width="123.6%" height="119.4%" filterUnits="objectBoundingBox" id="filter-20">
            <feOffset dx="8" dy="8" in="SourceAlpha" result="shadowOffsetOuter1"></feOffset>
            <feGaussianBlur stdDeviation="10" in="shadowOffsetOuter1" result="shadowBlurOuter1"></feGaussianBlur>
            <feColorMatrix values="0 0 0 0 0   0 0 0 0 0   0 0 0 0 0  0 0 0 0.5 0" type="matrix" in="shadowBlurOuter1"></feColorMatrix>
        </filter>
    </defs>
    <g id="algo" stroke="none" stroke-width="1" fill="none" fill-rule="evenodd">
        <g id="Rectangle">
            <use fill="#323232" xlink:href="#path-2"></use>
            <use fill-opacity="0.15" fill="url(#linearGradient-1)" xlink:href="#path-2"></use>
        </g>
        <g id="browser" transform="translate(440.000000, 579.000000)" fill-rule="nonzero">
            <g id="Shape">
                <use fill="black" fill-opacity="1" filter="url(#filter-4)" xlink:href="#path-3"></use>
                <use fill="#61DAFB" xlink:href="#path-3"></use>
            </g>
            <g id="Shape">
                <use fill="black" fill-opacity="1" filter="url(#filter-6)" xlink:href="#path-5"></use>
                <use fill="#61DAFB" xlink:href="#path-5"></use>
            </g>
            <g id="Shape">
                <use fill="black" fill-opacity="1" filter="url(#filter-8)" xlink:href="#path-7"></use>
                <use fill="#61DAFB" xlink:href="#path-7"></use>
            </g>
            <g id="Shape">
                <use fill="black" fill-opacity="1" filter="url(#filter-10)" xlink:href="#path-9"></use>
                <use fill="#61DAFB" xlink:href="#path-9"></use>
            </g>
            <g id="Shape">
                <use fill="black" fill-opacity="1" filter="url(#filter-12)" xlink:href="#path-11"></use>
                <use fill="#61DAFB" xlink:href="#path-11"></use>
            </g>
            <g id="Shape">
                <use fill="black" fill-opacity="1" filter="url(#filter-14)" xlink:href="#path-13"></use>
                <use fill="#61DAFB" xlink:href="#path-13"></use>
            </g>
            <g id="Shape">
                <use fill="black" fill-opacity="1" filter="url(#filter-16)" xlink:href="#path-15"></use>
                <use fill="#61DAFB" xlink:href="#path-15"></use>
            </g>
            <g id="Shape">
                <use fill="black" fill-opacity="1" filter="url(#filter-18)" xlink:href="#path-17"></use>
                <use fill="#61DAFB" xlink:href="#path-17"></use>
            </g>
        </g>
        <g transform="translate(1241.000000, 531.000000)" fill-rule="nonzero" id="Shape">
            <g>
                <use fill="black" fill-opacity="1" filter="url(#filter-20)" xlink:href="#path-19"></use>
                <use fill="#A4C639" xlink:href="#path-19"></use>
            </g>
        </g>
        <text id="Getting-started-with" font-family="GoogleSans-Regular, Google Sans" font-size="80" font-weight="normal" fill="#9B9B9B">
            <tspan x="597.86" y="170">Getting started with</tspan>
        </text>
        <text id="Algorithms-in-Kotlin" font-family="GoogleSans-Regular, Google Sans" font-size="150" font-weight="normal" fill="#61DAFB">
            <tspan x="305.525" y="333">Algorithms in Kotlin</tspan>
        </text>
    </g>
</svg>