<?xml version="1.0" encoding="UTF-8"?>
<svg width="1920px" height="1080px" viewBox="0 0 1920 1080" version="1.1" xmlns="http://www.w3.org/2000/svg" xmlns:xlink="http://www.w3.org/1999/xlink">
    <!-- Generator: Sketch 51.2 (57519) - http://www.bohemiancoding.com/sketch -->
    <title>algo</title>
    <desc>Created with Sketch.</desc>
    <defs>
        <linearGradient x1="100%" y1="0%" x2="0%" y2="101.186989%" id="linearGradient-1">
            <stop stop-color="#0B0B0B" stop-opacity="0" offset="0%"></stop>
            <stop stop-color="#000000" offset="100%"></stop>
        </linearGradient>
        <rect id="path-2" x="0" y="0" width="1920" height="1080"></rect>
        <path d="M0,0 L0,6.25218054 L0,350 L288,350 L288,0 L0,0 Z M12.5217391,12.5043611 L275.478261,12.5043611 L275.478261,237.509592 L12.5217391,237.509592 L12.5217391,12.5043611 Z M112.695652,24.9354541 L112.695652,31.1876346 L112.695652,74.9528984 L137.885873,74.9528984 L137.885873,112.41714 L62.7554379,112.41714 L62.7554379,163.362633 C52.0104058,166.1736 43.9728255,175.922288 43.9728267,187.492148 C43.9728255,201.23069 55.2593263,212.50087 69.0163075,212.50087 C82.7732786,212.50087 94.0597857,201.23069 94.0597857,187.492148 C94.0597857,175.922288 86.0221941,166.1736 75.277177,163.362633 L75.277177,124.921501 L150.407612,124.921501 L213.016307,124.921501 L213.016307,159.919057 L183.864134,189.030772 L219.301632,224.394668 L254.714675,189.030772 L225.538047,159.870215 L225.538047,112.41714 L150.407612,112.41714 L150.407612,74.9528984 L175.304348,74.9528984 L175.304348,24.9354541 L112.695652,24.9354541 Z M125.217391,37.4398152 L162.782609,37.4398152 L162.782609,62.4485373 L125.217391,62.4485373 L125.217391,37.4398152 Z M219.301632,171.348818 L237.008147,189.030772 L219.301632,206.712714 L201.570649,189.030772 L219.301632,171.348818 Z M69.0163075,174.987787 C76.0060299,174.987787 81.5380466,180.512214 81.5380466,187.492148 C81.5380466,194.472082 76.0060299,199.996509 69.0163075,199.996509 C62.0265763,199.996509 56.4945633,194.472082 56.4945658,187.492148 C56.4945646,180.512214 62.0265775,174.987787 69.0163075,174.987787 Z M12.5217391,250.013953 L137.73913,250.013953 L137.73913,337.495639 L12.5217391,337.495639 L12.5217391,250.013953 Z M150.26087,250.013953 L275.478261,250.013953 L275.478261,337.495639 L150.26087,337.495639 L150.26087,250.013953 Z M25.0434783,262.518315 L25.0434783,275.022676 L125.217391,275.022676 L125.217391,262.518315 L25.0434783,262.518315 Z M169.043478,262.518315 L169.043478,275.022676 L256.695652,275.022676 L256.695652,262.518315 L169.043478,262.518315 Z M169.043478,287.527037 L169.043478,300.031398 L256.695652,300.031398 L256.695652,287.527037 L169.043478,287.527037 Z M25.0434783,312.535759 L25.0434783,325.04012 L125.217391,325.04012 L125.217391,312.535759 L25.0434783,312.535759 Z M169.043478,312.535759 L169.043478,325.04012 L256.695652,325.04012 L256.695652,312.535759 L169.043478,312.535759 Z" id="path-3"></path>
        <filter x="-9.0%" y="-7.4%" width="123.6%" height="119.4%" filterUnits="objectBoundingBox" id="filter-4">
            <feOffset dx="8" dy="8" in="SourceAlpha" result="shadowOffsetOuter1"></feOffset>
            <feGaussianBlur stdDeviation="10" in="shadowOffsetOuter1" result="shadowBlurOuter1"></feGaussianBlur>
            <feColorMatrix values="0 0 0 0 0   0 0 0 0 0   0 0 0 0 0  0 0 0 0.5 0" type="matrix" in="shadowBlurOuter1"></feColorMatrix>
        </filter>
        <filter x="-10.8%" y="-10.8%" width="128.4%" height="128.4%" filterUnits="objectBoundingBox" id="filter-5">
            <feOffset dx="11" dy="11" in="SourceAlpha" result="shadowOffsetOuter1"></feOffset>
            <feGaussianBlur stdDeviation="13.5" in="shadowOffsetOuter1" result="shadowBlurOuter1"></feGaussianBlur>
            <feColorMatrix values="0 0 0 0 0   0 0 0 0 0   0 0 0 0 0  0 0 0 0.5 0" type="matrix" in="shadowBlurOuter1" result="shadowMatrixOuter1"></feColorMatrix>
            <feMerge>
                <feMergeNode in="shadowMatrixOuter1"></feMergeNode>
                <feMergeNode in="SourceGraphic"></feMergeNode>
            </feMerge>
        </filter>
        <linearGradient x1="26.599%" y1="146.559136%" x2="73.8446667%" y2="52.3813953%" id="linearGradient-6">
            <stop stop-color="#0095D5" offset="9.677%"></stop>
            <stop stop-color="#238AD9" offset="30.07%"></stop>
            <stop stop-color="#557BDE" offset="62.11%"></stop>
            <stop stop-color="#7472E2" offset="86.43%"></stop>
            <stop stop-color="#806EE3" offset="100%"></stop>
        </linearGradient>
        <linearGradient x1="13.9840532%" y1="37.1049231%" x2="68.682392%" y2="-13.5538462%" id="linearGradient-7">
            <stop stop-color="#0095D5" offset="11.83%"></stop>
            <stop stop-color="#3C83DC" offset="41.78%"></stop>
            <stop stop-color="#6D74E1" offset="69.62%"></stop>
            <stop stop-color="#806EE3" offset="83.33%"></stop>
        </linearGradient>
        <linearGradient x1="-16.8361667%" y1="91.9396667%" x2="76.2191667%" y2="-1.11566667%" id="linearGradient-8">
            <stop stop-color="#C757BC" offset="10.75%"></stop>
            <stop stop-color="#D0609A" offset="21.38%"></stop>
            <stop stop-color="#E1725C" offset="42.54%"></stop>
            <stop stop-color="#EE7E2F" offset="60.48%"></stop>
            <stop stop-color="#F58613" offset="74.3%"></stop>
            <stop stop-color="#F88909" offset="82.32%"></stop>
        </linearGradient>
    </defs>
    <g id="algo" stroke="none" stroke-width="1" fill="none" fill-rule="evenodd">
        <g id="Rectangle">
            <use fill="#323232" xlink:href="#path-2"></use>
            <use fill-opacity="0.15" fill="url(#linearGradient-1)" xlink:href="#path-2"></use>
        </g>
        <g transform="translate(394.000000, 521.000000)" fill-rule="nonzero" id="Shape">
            <g>
                <use fill="black" fill-opacity="1" filter="url(#filter-4)" xlink:href="#path-3"></use>
                <use fill="#61DAFB" xlink:href="#path-3"></use>
            </g>
        </g>
        <text id="Getting-started-with" font-family="Fira Sans" font-size="80" font-weight="normal" fill="#9B9B9B">
            <tspan x="597.86" y="170">Getting started with</tspan>
        </text>
        <text id="Algorithms-in-Kotlin" font-family="Fira Sans" font-size="150" font-weight="normal" fill="#61DAFB">
            <tspan x="305.525" y="333">Algorithms in Kotlin</tspan>
        </text>
        <g id="Kotlin-logo" filter="url(#filter-5)" transform="translate(1195.000000, 534.000000)" fill-rule="nonzero">
            <polygon id="XMLID_2_" fill="url(#linearGradient-6)" points="0 324 162.54 161.46 324 324"></polygon>
            <polygon id="Shape" fill="url(#linearGradient-7)" points="0 0 162.54 0 0 175.5"></polygon>
            <polygon id="Shape" fill="url(#linearGradient-8)" points="162.54 0 0 171.18 0 324 162.54 161.46 324 0"></polygon>
        </g>
    </g>
</svg>