<svg width="617" height="330" viewBox="0 0 617 330" fill="none" xmlns="http://www.w3.org/2000/svg">
  <rect width="617" height="330" fill="white" />
  <rect width="191" height="70" transform="translate(220 60)" fill="#C4C4C4" />
  <path
      d="M243.645 87.6045H239.468V92H238.155V82.0469H244.321V83.127H239.468V86.5312H243.645V87.6045ZM247.069 92H245.805V84.6035H247.069V92ZM245.702 82.6416C245.702 82.4365 245.764 82.2633 245.887 82.1221C246.014 81.9808 246.201 81.9102 246.447 81.9102C246.693 81.9102 246.88 81.9808 247.008 82.1221C247.135 82.2633 247.199 82.4365 247.199 82.6416C247.199 82.8467 247.135 83.0176 247.008 83.1543C246.88 83.291 246.693 83.3594 246.447 83.3594C246.201 83.3594 246.014 83.291 245.887 83.1543C245.764 83.0176 245.702 82.8467 245.702 82.6416ZM250.296 84.6035L250.337 85.5332C250.902 84.8223 251.64 84.4668 252.552 84.4668C254.115 84.4668 254.903 85.3486 254.917 87.1123V92H253.652V87.1055C253.648 86.5723 253.525 86.1781 253.283 85.9229C253.046 85.6676 252.675 85.54 252.169 85.54C251.759 85.54 251.399 85.6494 251.089 85.8682C250.779 86.0869 250.537 86.374 250.364 86.7295V92H249.1V84.6035H250.296ZM256.517 88.2402C256.517 87.1055 256.785 86.194 257.323 85.5059C257.861 84.8132 258.565 84.4668 259.436 84.4668C260.301 84.4668 260.987 84.763 261.493 85.3555V81.5H262.758V92H261.596L261.534 91.207C261.028 91.8268 260.324 92.1367 259.422 92.1367C258.565 92.1367 257.866 91.7858 257.323 91.084C256.785 90.3822 256.517 89.4661 256.517 88.3359V88.2402ZM257.781 88.3838C257.781 89.2223 257.954 89.8786 258.301 90.3525C258.647 90.8265 259.126 91.0635 259.736 91.0635C260.538 91.0635 261.124 90.7035 261.493 89.9834V86.5859C261.115 85.8887 260.534 85.54 259.75 85.54C259.13 85.54 258.647 85.7793 258.301 86.2578C257.954 86.7363 257.781 87.445 257.781 88.3838ZM272.766 91.2686C272.273 91.8473 271.551 92.1367 270.599 92.1367C269.81 92.1367 269.209 91.9089 268.794 91.4531C268.384 90.9928 268.176 90.3138 268.172 89.416V84.6035H269.437V89.3818C269.437 90.5029 269.892 91.0635 270.804 91.0635C271.77 91.0635 272.412 90.7035 272.731 89.9834V84.6035H273.996V92H272.793L272.766 91.2686ZM277.12 84.6035L277.161 85.5332C277.726 84.8223 278.465 84.4668 279.376 84.4668C280.939 84.4668 281.728 85.3486 281.741 87.1123V92H280.477V87.1055C280.472 86.5723 280.349 86.1781 280.107 85.9229C279.87 85.6676 279.499 85.54 278.993 85.54C278.583 85.54 278.223 85.6494 277.913 85.8682C277.603 86.0869 277.362 86.374 277.188 86.7295V92H275.924V84.6035H277.12ZM289.896 88.3838C289.896 89.5094 289.639 90.4163 289.124 91.1045C288.609 91.7926 287.912 92.1367 287.032 92.1367C286.134 92.1367 285.428 91.8519 284.913 91.2822V94.8438H283.648V84.6035H284.804L284.865 85.4238C285.38 84.7858 286.096 84.4668 287.012 84.4668C287.9 84.4668 288.602 84.8018 289.117 85.4717C289.637 86.1416 289.896 87.0736 289.896 88.2676V88.3838ZM288.632 88.2402C288.632 87.4062 288.454 86.7477 288.099 86.2646C287.743 85.7816 287.256 85.54 286.636 85.54C285.87 85.54 285.296 85.8796 284.913 86.5586V90.0928C285.291 90.7673 285.87 91.1045 286.649 91.1045C287.256 91.1045 287.736 90.8652 288.092 90.3867C288.452 89.9036 288.632 89.1882 288.632 88.2402ZM295.085 85.7383C294.894 85.7064 294.686 85.6904 294.463 85.6904C293.633 85.6904 293.071 86.0436 292.774 86.75V92H291.51V84.6035H292.74L292.761 85.458C293.175 84.7972 293.763 84.4668 294.524 84.4668C294.771 84.4668 294.957 84.4987 295.085 84.5625V85.7383ZM295.782 88.2334C295.782 87.5088 295.924 86.8571 296.206 86.2783C296.493 85.6995 296.89 85.2529 297.396 84.9385C297.906 84.624 298.487 84.4668 299.139 84.4668C300.146 84.4668 300.959 84.8154 301.579 85.5127C302.203 86.21 302.516 87.1374 302.516 88.2949V88.3838C302.516 89.1038 302.377 89.751 302.099 90.3252C301.825 90.8949 301.431 91.3392 300.916 91.6582C300.406 91.9772 299.818 92.1367 299.152 92.1367C298.15 92.1367 297.336 91.7881 296.712 91.0908C296.092 90.3936 295.782 89.4707 295.782 88.3223V88.2334ZM297.054 88.3838C297.054 89.2041 297.243 89.8626 297.621 90.3594C298.004 90.8561 298.514 91.1045 299.152 91.1045C299.795 91.1045 300.305 90.8538 300.684 90.3525C301.062 89.8467 301.251 89.1403 301.251 88.2334C301.251 87.4222 301.057 86.766 300.67 86.2646C300.287 85.7588 299.777 85.5059 299.139 85.5059C298.514 85.5059 298.011 85.7542 297.628 86.251C297.245 86.7477 297.054 87.4587 297.054 88.3838ZM307.068 91.1045C307.52 91.1045 307.914 90.9678 308.251 90.6943C308.588 90.4209 308.775 90.0791 308.812 89.6689H310.008C309.985 90.0928 309.839 90.4961 309.57 90.8789C309.301 91.2617 308.941 91.5671 308.49 91.7949C308.044 92.0228 307.57 92.1367 307.068 92.1367C306.061 92.1367 305.259 91.8018 304.662 91.1318C304.07 90.4574 303.773 89.5368 303.773 88.3701V88.1582C303.773 87.4382 303.906 86.7979 304.17 86.2373C304.434 85.6768 304.812 85.2415 305.305 84.9316C305.801 84.6217 306.387 84.4668 307.062 84.4668C307.891 84.4668 308.579 84.7152 309.126 85.2119C309.677 85.7087 309.971 86.3535 310.008 87.1465H308.812C308.775 86.668 308.593 86.276 308.265 85.9707C307.941 85.6608 307.54 85.5059 307.062 85.5059C306.419 85.5059 305.92 85.7383 305.564 86.2031C305.214 86.6634 305.038 87.3311 305.038 88.2061V88.4453C305.038 89.2975 305.214 89.9538 305.564 90.4141C305.915 90.8743 306.417 91.1045 307.068 91.1045ZM314.499 92.1367C313.496 92.1367 312.681 91.8086 312.052 91.1523C311.423 90.4915 311.108 89.6097 311.108 88.5068V88.2744C311.108 87.5407 311.247 86.8867 311.525 86.3125C311.808 85.7337 312.2 85.2826 312.701 84.959C313.207 84.6309 313.754 84.4668 314.342 84.4668C315.303 84.4668 316.051 84.7835 316.584 85.417C317.117 86.0505 317.384 86.9574 317.384 88.1377V88.6641H312.373C312.391 89.3932 312.603 89.9834 313.009 90.4346C313.419 90.8812 313.938 91.1045 314.567 91.1045C315.014 91.1045 315.392 91.0133 315.702 90.8311C316.012 90.6488 316.283 90.4072 316.516 90.1064L317.288 90.708C316.668 91.6605 315.739 92.1367 314.499 92.1367ZM314.342 85.5059C313.831 85.5059 313.403 85.6927 313.057 86.0664C312.71 86.4355 312.496 86.9551 312.414 87.625H316.119V87.5293C316.083 86.8867 315.91 86.39 315.6 86.0391C315.29 85.6836 314.87 85.5059 314.342 85.5059ZM323.16 90.0381C323.16 89.6963 323.03 89.432 322.771 89.2451C322.515 89.0537 322.066 88.8896 321.424 88.7529C320.786 88.6162 320.278 88.4521 319.899 88.2607C319.526 88.0693 319.248 87.8415 319.065 87.5771C318.888 87.3128 318.799 86.9984 318.799 86.6338C318.799 86.0277 319.054 85.515 319.564 85.0957C320.079 84.6764 320.736 84.4668 321.533 84.4668C322.372 84.4668 323.051 84.6833 323.57 85.1162C324.094 85.5492 324.356 86.1029 324.356 86.7773H323.085C323.085 86.431 322.937 86.1325 322.641 85.8818C322.349 85.6312 321.98 85.5059 321.533 85.5059C321.073 85.5059 320.713 85.6061 320.453 85.8066C320.193 86.0072 320.063 86.2692 320.063 86.5928C320.063 86.8981 320.184 87.1283 320.426 87.2832C320.667 87.4382 321.103 87.5863 321.731 87.7275C322.365 87.8688 322.878 88.0374 323.27 88.2334C323.661 88.4294 323.951 88.6663 324.138 88.9443C324.329 89.2178 324.425 89.5527 324.425 89.9492C324.425 90.61 324.16 91.141 323.632 91.542C323.103 91.9385 322.417 92.1367 321.574 92.1367C320.982 92.1367 320.458 92.0319 320.002 91.8223C319.546 91.6126 319.188 91.321 318.929 90.9473C318.674 90.569 318.546 90.1611 318.546 89.7236H319.811C319.833 90.1475 320.002 90.4847 320.316 90.7354C320.635 90.9814 321.055 91.1045 321.574 91.1045C322.053 91.1045 322.436 91.0088 322.723 90.8174C323.014 90.6214 323.16 90.3617 323.16 90.0381ZM330.379 90.0381C330.379 89.6963 330.249 89.432 329.989 89.2451C329.734 89.0537 329.285 88.8896 328.643 88.7529C328.005 88.6162 327.496 88.4521 327.118 88.2607C326.744 88.0693 326.466 87.8415 326.284 87.5771C326.106 87.3128 326.018 86.9984 326.018 86.6338C326.018 86.0277 326.273 85.515 326.783 85.0957C327.298 84.6764 327.954 84.4668 328.752 84.4668C329.59 84.4668 330.27 84.6833 330.789 85.1162C331.313 85.5492 331.575 86.1029 331.575 86.7773H330.304C330.304 86.431 330.156 86.1325 329.859 85.8818C329.568 85.6312 329.199 85.5059 328.752 85.5059C328.292 85.5059 327.932 85.6061 327.672 85.8066C327.412 86.0072 327.282 86.2692 327.282 86.5928C327.282 86.8981 327.403 87.1283 327.645 87.2832C327.886 87.4382 328.321 87.5863 328.95 87.7275C329.584 87.8688 330.096 88.0374 330.488 88.2334C330.88 88.4294 331.17 88.6663 331.356 88.9443C331.548 89.2178 331.644 89.5527 331.644 89.9492C331.644 90.61 331.379 91.141 330.851 91.542C330.322 91.9385 329.636 92.1367 328.793 92.1367C328.201 92.1367 327.676 92.0319 327.221 91.8223C326.765 91.6126 326.407 91.321 326.147 90.9473C325.892 90.569 325.765 90.1611 325.765 89.7236H327.029C327.052 90.1475 327.221 90.4847 327.535 90.7354C327.854 90.9814 328.273 91.1045 328.793 91.1045C329.271 91.1045 329.654 91.0088 329.941 90.8174C330.233 90.6214 330.379 90.3617 330.379 90.0381ZM336.36 92.1367C335.358 92.1367 334.542 91.8086 333.913 91.1523C333.284 90.4915 332.97 89.6097 332.97 88.5068V88.2744C332.97 87.5407 333.109 86.8867 333.387 86.3125C333.669 85.7337 334.061 85.2826 334.562 84.959C335.068 84.6309 335.615 84.4668 336.203 84.4668C337.165 84.4668 337.912 84.7835 338.445 85.417C338.979 86.0505 339.245 86.9574 339.245 88.1377V88.6641H334.234C334.253 89.3932 334.465 89.9834 334.87 90.4346C335.28 90.8812 335.8 91.1045 336.429 91.1045C336.875 91.1045 337.254 91.0133 337.563 90.8311C337.873 90.6488 338.145 90.4072 338.377 90.1064L339.149 90.708C338.53 91.6605 337.6 92.1367 336.36 92.1367ZM336.203 85.5059C335.693 85.5059 335.264 85.6927 334.918 86.0664C334.572 86.4355 334.357 86.9551 334.275 87.625H337.98V87.5293C337.944 86.8867 337.771 86.39 337.461 86.0391C337.151 85.6836 336.732 85.5059 336.203 85.5059ZM340.407 88.2402C340.407 87.1055 340.676 86.194 341.214 85.5059C341.752 84.8132 342.456 84.4668 343.326 84.4668C344.192 84.4668 344.878 84.763 345.384 85.3555V81.5H346.648V92H345.486L345.425 91.207C344.919 91.8268 344.215 92.1367 343.312 92.1367C342.456 92.1367 341.756 91.7858 341.214 91.084C340.676 90.3822 340.407 89.4661 340.407 88.3359V88.2402ZM341.672 88.3838C341.672 89.2223 341.845 89.8786 342.191 90.3525C342.538 90.8265 343.016 91.0635 343.627 91.0635C344.429 91.0635 345.015 90.7035 345.384 89.9834V86.5859C345.006 85.8887 344.424 85.54 343.641 85.54C343.021 85.54 342.538 85.7793 342.191 86.2578C341.845 86.7363 341.672 87.445 341.672 88.3838ZM356.396 90.0381C356.396 89.6963 356.267 89.432 356.007 89.2451C355.752 89.0537 355.303 88.8896 354.66 88.7529C354.022 88.6162 353.514 88.4521 353.136 88.2607C352.762 88.0693 352.484 87.8415 352.302 87.5771C352.124 87.3128 352.035 86.9984 352.035 86.6338C352.035 86.0277 352.29 85.515 352.801 85.0957C353.316 84.6764 353.972 84.4668 354.77 84.4668C355.608 84.4668 356.287 84.6833 356.807 85.1162C357.331 85.5492 357.593 86.1029 357.593 86.7773H356.321C356.321 86.431 356.173 86.1325 355.877 85.8818C355.585 85.6312 355.216 85.5059 354.77 85.5059C354.309 85.5059 353.949 85.6061 353.689 85.8066C353.43 86.0072 353.3 86.2692 353.3 86.5928C353.3 86.8981 353.421 87.1283 353.662 87.2832C353.904 87.4382 354.339 87.5863 354.968 87.7275C355.601 87.8688 356.114 88.0374 356.506 88.2334C356.898 88.4294 357.187 88.6663 357.374 88.9443C357.565 89.2178 357.661 89.5527 357.661 89.9492C357.661 90.61 357.397 91.141 356.868 91.542C356.34 91.9385 355.654 92.1367 354.811 92.1367C354.218 92.1367 353.694 92.0319 353.238 91.8223C352.783 91.6126 352.425 91.321 352.165 90.9473C351.91 90.569 351.782 90.1611 351.782 89.7236H353.047C353.07 90.1475 353.238 90.4847 353.553 90.7354C353.872 90.9814 354.291 91.1045 354.811 91.1045C355.289 91.1045 355.672 91.0088 355.959 90.8174C356.251 90.6214 356.396 90.3617 356.396 90.0381ZM358.974 88.2334C358.974 87.5088 359.115 86.8571 359.397 86.2783C359.685 85.6995 360.081 85.2529 360.587 84.9385C361.097 84.624 361.678 84.4668 362.33 84.4668C363.337 84.4668 364.151 84.8154 364.771 85.5127C365.395 86.21 365.707 87.1374 365.707 88.2949V88.3838C365.707 89.1038 365.568 89.751 365.29 90.3252C365.017 90.8949 364.622 91.3392 364.107 91.6582C363.597 91.9772 363.009 92.1367 362.344 92.1367C361.341 92.1367 360.528 91.7881 359.903 91.0908C359.284 90.3936 358.974 89.4707 358.974 88.3223V88.2334ZM360.245 88.3838C360.245 89.2041 360.434 89.8626 360.812 90.3594C361.195 90.8561 361.706 91.1045 362.344 91.1045C362.986 91.1045 363.497 90.8538 363.875 90.3525C364.253 89.8467 364.442 89.1403 364.442 88.2334C364.442 87.4222 364.249 86.766 363.861 86.2646C363.479 85.7588 362.968 85.5059 362.33 85.5059C361.706 85.5059 361.202 85.7542 360.819 86.251C360.437 86.7477 360.245 87.4587 360.245 88.3838ZM371.859 91.2686C371.367 91.8473 370.645 92.1367 369.692 92.1367C368.904 92.1367 368.302 91.9089 367.888 91.4531C367.478 90.9928 367.27 90.3138 367.266 89.416V84.6035H368.53V89.3818C368.53 90.5029 368.986 91.0635 369.897 91.0635C370.864 91.0635 371.506 90.7035 371.825 89.9834V84.6035H373.09V92H371.887L371.859 91.2686ZM378.593 85.7383C378.401 85.7064 378.194 85.6904 377.971 85.6904C377.141 85.6904 376.578 86.0436 376.282 86.75V92H375.018V84.6035H376.248L376.269 85.458C376.683 84.7972 377.271 84.4668 378.032 84.4668C378.278 84.4668 378.465 84.4987 378.593 84.5625V85.7383ZM382.592 91.1045C383.043 91.1045 383.437 90.9678 383.774 90.6943C384.112 90.4209 384.299 90.0791 384.335 89.6689H385.531C385.508 90.0928 385.363 90.4961 385.094 90.8789C384.825 91.2617 384.465 91.5671 384.014 91.7949C383.567 92.0228 383.093 92.1367 382.592 92.1367C381.585 92.1367 380.783 91.8018 380.186 91.1318C379.593 90.4574 379.297 89.5368 379.297 88.3701V88.1582C379.297 87.4382 379.429 86.7979 379.693 86.2373C379.958 85.6768 380.336 85.2415 380.828 84.9316C381.325 84.6217 381.91 84.4668 382.585 84.4668C383.414 84.4668 384.103 84.7152 384.649 85.2119C385.201 85.7087 385.495 86.3535 385.531 87.1465H384.335C384.299 86.668 384.116 86.276 383.788 85.9707C383.465 85.6608 383.063 85.5059 382.585 85.5059C381.942 85.5059 381.443 85.7383 381.088 86.2031C380.737 86.6634 380.562 87.3311 380.562 88.2061V88.4453C380.562 89.2975 380.737 89.9538 381.088 90.4141C381.439 90.8743 381.94 91.1045 382.592 91.1045ZM390.022 92.1367C389.02 92.1367 388.204 91.8086 387.575 91.1523C386.946 90.4915 386.632 89.6097 386.632 88.5068V88.2744C386.632 87.5407 386.771 86.8867 387.049 86.3125C387.331 85.7337 387.723 85.2826 388.225 84.959C388.73 84.6309 389.277 84.4668 389.865 84.4668C390.827 84.4668 391.574 84.7835 392.107 85.417C392.641 86.0505 392.907 86.9574 392.907 88.1377V88.6641H387.896C387.915 89.3932 388.127 89.9834 388.532 90.4346C388.942 90.8812 389.462 91.1045 390.091 91.1045C390.537 91.1045 390.916 91.0133 391.226 90.8311C391.535 90.6488 391.807 90.4072 392.039 90.1064L392.812 90.708C392.192 91.6605 391.262 92.1367 390.022 92.1367ZM389.865 85.5059C389.355 85.5059 388.926 85.6927 388.58 86.0664C388.234 86.4355 388.02 86.9551 387.938 87.625H391.643V87.5293C391.606 86.8867 391.433 86.39 391.123 86.0391C390.813 85.6836 390.394 85.5059 389.865 85.5059ZM238.381 108V101.581H237.212V100.604H238.381V99.9746C238.381 99.1497 238.616 98.5072 239.085 98.0469C239.559 97.5866 240.227 97.3564 241.088 97.3564C241.598 97.3564 242.243 97.4954 243.022 97.7734L242.811 98.8398C242.241 98.612 241.699 98.498 241.184 98.498C240.641 98.498 240.249 98.6211 240.008 98.8672C239.771 99.1087 239.652 99.4733 239.652 99.9609V100.604H241.163V101.581H239.652V108H238.381ZM243.651 108H242.38V100.604H243.651V108ZM247.083 108H245.818V97.5H247.083V108ZM252.183 108.137C251.18 108.137 250.364 107.809 249.735 107.152C249.106 106.492 248.792 105.61 248.792 104.507V104.274C248.792 103.541 248.931 102.887 249.209 102.312C249.492 101.734 249.883 101.283 250.385 100.959C250.891 100.631 251.438 100.467 252.025 100.467C252.987 100.467 253.734 100.784 254.268 101.417C254.801 102.05 255.067 102.957 255.067 104.138V104.664H250.057C250.075 105.393 250.287 105.983 250.692 106.435C251.103 106.881 251.622 107.104 252.251 107.104C252.698 107.104 253.076 107.013 253.386 106.831C253.696 106.649 253.967 106.407 254.199 106.106L254.972 106.708C254.352 107.66 253.422 108.137 252.183 108.137ZM252.025 101.506C251.515 101.506 251.087 101.693 250.74 102.066C250.394 102.436 250.18 102.955 250.098 103.625H253.803V103.529C253.766 102.887 253.593 102.39 253.283 102.039C252.973 101.684 252.554 101.506 252.025 101.506ZM260.844 106.038C260.844 105.696 260.714 105.432 260.454 105.245C260.199 105.054 259.75 104.89 259.107 104.753C258.469 104.616 257.961 104.452 257.583 104.261C257.209 104.069 256.931 103.841 256.749 103.577C256.571 103.313 256.482 102.998 256.482 102.634C256.482 102.028 256.738 101.515 257.248 101.096C257.763 100.676 258.419 100.467 259.217 100.467C260.055 100.467 260.734 100.683 261.254 101.116C261.778 101.549 262.04 102.103 262.04 102.777H260.769C260.769 102.431 260.62 102.132 260.324 101.882C260.033 101.631 259.663 101.506 259.217 101.506C258.757 101.506 258.396 101.606 258.137 101.807C257.877 102.007 257.747 102.269 257.747 102.593C257.747 102.898 257.868 103.128 258.109 103.283C258.351 103.438 258.786 103.586 259.415 103.728C260.049 103.869 260.561 104.037 260.953 104.233C261.345 104.429 261.634 104.666 261.821 104.944C262.013 105.218 262.108 105.553 262.108 105.949C262.108 106.61 261.844 107.141 261.315 107.542C260.787 107.938 260.101 108.137 259.258 108.137C258.665 108.137 258.141 108.032 257.686 107.822C257.23 107.613 256.872 107.321 256.612 106.947C256.357 106.569 256.229 106.161 256.229 105.724H257.494C257.517 106.147 257.686 106.485 258 106.735C258.319 106.981 258.738 107.104 259.258 107.104C259.736 107.104 260.119 107.009 260.406 106.817C260.698 106.621 260.844 106.362 260.844 106.038ZM273.777 106.257L275.199 100.604H276.464L274.311 108H273.285L271.487 102.395L269.737 108H268.712L266.565 100.604H267.823L269.279 106.141L271.002 100.604H272.021L273.777 106.257ZM279.13 108H277.865V100.604H279.13V108ZM277.763 98.6416C277.763 98.4365 277.824 98.2633 277.947 98.1221C278.075 97.9808 278.262 97.9102 278.508 97.9102C278.754 97.9102 278.941 97.9808 279.068 98.1221C279.196 98.2633 279.26 98.4365 279.26 98.6416C279.26 98.8467 279.196 99.0176 279.068 99.1543C278.941 99.291 278.754 99.3594 278.508 99.3594C278.262 99.3594 278.075 99.291 277.947 99.1543C277.824 99.0176 277.763 98.8467 277.763 98.6416ZM282.876 98.8125V100.604H284.257V101.581H282.876V106.168C282.876 106.464 282.938 106.688 283.061 106.838C283.184 106.984 283.393 107.057 283.689 107.057C283.835 107.057 284.036 107.029 284.291 106.975V108C283.958 108.091 283.635 108.137 283.32 108.137C282.755 108.137 282.329 107.966 282.042 107.624C281.755 107.282 281.611 106.797 281.611 106.168V101.581H280.265V100.604H281.611V98.8125H282.876ZM287.005 101.499C287.565 100.811 288.295 100.467 289.192 100.467C290.756 100.467 291.544 101.349 291.558 103.112V108H290.293V103.105C290.288 102.572 290.165 102.178 289.924 101.923C289.687 101.668 289.315 101.54 288.81 101.54C288.399 101.54 288.039 101.649 287.729 101.868C287.42 102.087 287.178 102.374 287.005 102.729V108H285.74V97.5H287.005V101.499ZM301.49 108C301.417 107.854 301.358 107.594 301.312 107.221C300.725 107.831 300.023 108.137 299.207 108.137C298.478 108.137 297.879 107.932 297.409 107.521C296.944 107.107 296.712 106.583 296.712 105.949C296.712 105.179 297.004 104.582 297.587 104.158C298.175 103.73 299 103.516 300.062 103.516H301.292V102.935C301.292 102.493 301.16 102.142 300.896 101.882C300.631 101.618 300.242 101.485 299.727 101.485C299.275 101.485 298.897 101.599 298.592 101.827C298.286 102.055 298.134 102.331 298.134 102.654H296.862C296.862 102.285 296.992 101.93 297.252 101.588C297.516 101.242 297.872 100.968 298.318 100.768C298.77 100.567 299.264 100.467 299.802 100.467C300.654 100.467 301.322 100.681 301.805 101.109C302.288 101.533 302.538 102.119 302.557 102.866V106.271C302.557 106.95 302.643 107.49 302.816 107.891V108H301.49ZM299.392 107.036C299.788 107.036 300.164 106.934 300.52 106.729C300.875 106.523 301.132 106.257 301.292 105.929V104.411H300.301C298.751 104.411 297.977 104.865 297.977 105.771C297.977 106.168 298.109 106.478 298.373 106.701C298.637 106.924 298.977 107.036 299.392 107.036ZM305.735 100.604L305.776 101.533C306.341 100.822 307.08 100.467 307.991 100.467C309.554 100.467 310.343 101.349 310.356 103.112V108H309.092V103.105C309.087 102.572 308.964 102.178 308.723 101.923C308.486 101.668 308.114 101.54 307.608 101.54C307.198 101.54 306.838 101.649 306.528 101.868C306.218 102.087 305.977 102.374 305.804 102.729V108H304.539V100.604H305.735ZM313.46 100.604L313.501 101.533C314.066 100.822 314.804 100.467 315.716 100.467C317.279 100.467 318.067 101.349 318.081 103.112V108H316.816V103.105C316.812 102.572 316.689 102.178 316.447 101.923C316.21 101.668 315.839 101.54 315.333 101.54C314.923 101.54 314.563 101.649 314.253 101.868C313.943 102.087 313.701 102.374 313.528 102.729V108H312.264V100.604H313.46ZM319.653 104.233C319.653 103.509 319.795 102.857 320.077 102.278C320.364 101.7 320.761 101.253 321.267 100.938C321.777 100.624 322.358 100.467 323.01 100.467C324.017 100.467 324.83 100.815 325.45 101.513C326.075 102.21 326.387 103.137 326.387 104.295V104.384C326.387 105.104 326.248 105.751 325.97 106.325C325.696 106.895 325.302 107.339 324.787 107.658C324.277 107.977 323.689 108.137 323.023 108.137C322.021 108.137 321.207 107.788 320.583 107.091C319.963 106.394 319.653 105.471 319.653 104.322V104.233ZM320.925 104.384C320.925 105.204 321.114 105.863 321.492 106.359C321.875 106.856 322.385 107.104 323.023 107.104C323.666 107.104 324.176 106.854 324.555 106.353C324.933 105.847 325.122 105.14 325.122 104.233C325.122 103.422 324.928 102.766 324.541 102.265C324.158 101.759 323.648 101.506 323.01 101.506C322.385 101.506 321.882 101.754 321.499 102.251C321.116 102.748 320.925 103.459 320.925 104.384ZM329.688 98.8125V100.604H331.069V101.581H329.688V106.168C329.688 106.464 329.75 106.688 329.873 106.838C329.996 106.984 330.206 107.057 330.502 107.057C330.648 107.057 330.848 107.029 331.104 106.975V108C330.771 108.091 330.447 108.137 330.133 108.137C329.568 108.137 329.142 107.966 328.854 107.624C328.567 107.282 328.424 106.797 328.424 106.168V101.581H327.077V100.604H328.424V98.8125H329.688ZM337.119 108C337.046 107.854 336.987 107.594 336.941 107.221C336.354 107.831 335.652 108.137 334.836 108.137C334.107 108.137 333.507 107.932 333.038 107.521C332.573 107.107 332.341 106.583 332.341 105.949C332.341 105.179 332.632 104.582 333.216 104.158C333.804 103.73 334.629 103.516 335.69 103.516H336.921V102.935C336.921 102.493 336.789 102.142 336.524 101.882C336.26 101.618 335.87 101.485 335.355 101.485C334.904 101.485 334.526 101.599 334.221 101.827C333.915 102.055 333.763 102.331 333.763 102.654H332.491C332.491 102.285 332.621 101.93 332.881 101.588C333.145 101.242 333.501 100.968 333.947 100.768C334.398 100.567 334.893 100.467 335.431 100.467C336.283 100.467 336.951 100.681 337.434 101.109C337.917 101.533 338.167 102.119 338.186 102.866V106.271C338.186 106.95 338.272 107.49 338.445 107.891V108H337.119ZM335.021 107.036C335.417 107.036 335.793 106.934 336.148 106.729C336.504 106.523 336.761 106.257 336.921 105.929V104.411H335.93C334.38 104.411 333.605 104.865 333.605 105.771C333.605 106.168 333.738 106.478 334.002 106.701C334.266 106.924 334.606 107.036 335.021 107.036ZM341.884 98.8125V100.604H343.265V101.581H341.884V106.168C341.884 106.464 341.945 106.688 342.068 106.838C342.191 106.984 342.401 107.057 342.697 107.057C342.843 107.057 343.044 107.029 343.299 106.975V108C342.966 108.091 342.643 108.137 342.328 108.137C341.763 108.137 341.337 107.966 341.05 107.624C340.763 107.282 340.619 106.797 340.619 106.168V101.581H339.272V100.604H340.619V98.8125H341.884ZM346.122 108H344.857V100.604H346.122V108ZM344.755 98.6416C344.755 98.4365 344.816 98.2633 344.939 98.1221C345.067 97.9808 345.254 97.9102 345.5 97.9102C345.746 97.9102 345.933 97.9808 346.061 98.1221C346.188 98.2633 346.252 98.4365 346.252 98.6416C346.252 98.8467 346.188 99.0176 346.061 99.1543C345.933 99.291 345.746 99.3594 345.5 99.3594C345.254 99.3594 345.067 99.291 344.939 99.1543C344.816 99.0176 344.755 98.8467 344.755 98.6416ZM347.817 104.233C347.817 103.509 347.959 102.857 348.241 102.278C348.528 101.7 348.925 101.253 349.431 100.938C349.941 100.624 350.522 100.467 351.174 100.467C352.181 100.467 352.994 100.815 353.614 101.513C354.239 102.21 354.551 103.137 354.551 104.295V104.384C354.551 105.104 354.412 105.751 354.134 106.325C353.86 106.895 353.466 107.339 352.951 107.658C352.441 107.977 351.853 108.137 351.188 108.137C350.185 108.137 349.371 107.788 348.747 107.091C348.127 106.394 347.817 105.471 347.817 104.322V104.233ZM349.089 104.384C349.089 105.204 349.278 105.863 349.656 106.359C350.039 106.856 350.549 107.104 351.188 107.104C351.83 107.104 352.34 106.854 352.719 106.353C353.097 105.847 353.286 105.14 353.286 104.233C353.286 103.422 353.092 102.766 352.705 102.265C352.322 101.759 351.812 101.506 351.174 101.506C350.549 101.506 350.046 101.754 349.663 102.251C349.28 102.748 349.089 103.459 349.089 104.384ZM357.333 100.604L357.374 101.533C357.939 100.822 358.677 100.467 359.589 100.467C361.152 100.467 361.94 101.349 361.954 103.112V108H360.689V103.105C360.685 102.572 360.562 102.178 360.32 101.923C360.083 101.668 359.712 101.54 359.206 101.54C358.796 101.54 358.436 101.649 358.126 101.868C357.816 102.087 357.575 102.374 357.401 102.729V108H356.137V100.604H357.333ZM368.168 106.038C368.168 105.696 368.038 105.432 367.778 105.245C367.523 105.054 367.074 104.89 366.432 104.753C365.794 104.616 365.285 104.452 364.907 104.261C364.534 104.069 364.256 103.841 364.073 103.577C363.896 103.313 363.807 102.998 363.807 102.634C363.807 102.028 364.062 101.515 364.572 101.096C365.087 100.676 365.743 100.467 366.541 100.467C367.38 100.467 368.059 100.683 368.578 101.116C369.102 101.549 369.364 102.103 369.364 102.777H368.093C368.093 102.431 367.945 102.132 367.648 101.882C367.357 101.631 366.988 101.506 366.541 101.506C366.081 101.506 365.721 101.606 365.461 101.807C365.201 102.007 365.071 102.269 365.071 102.593C365.071 102.898 365.192 103.128 365.434 103.283C365.675 103.438 366.11 103.586 366.739 103.728C367.373 103.869 367.885 104.037 368.277 104.233C368.669 104.429 368.959 104.666 369.146 104.944C369.337 105.218 369.433 105.553 369.433 105.949C369.433 106.61 369.168 107.141 368.64 107.542C368.111 107.938 367.425 108.137 366.582 108.137C365.99 108.137 365.465 108.032 365.01 107.822C364.554 107.613 364.196 107.321 363.937 106.947C363.681 106.569 363.554 106.161 363.554 105.724H364.818C364.841 106.147 365.01 106.485 365.324 106.735C365.643 106.981 366.062 107.104 366.582 107.104C367.061 107.104 367.443 107.009 367.73 106.817C368.022 106.621 368.168 106.362 368.168 106.038Z"
      fill="black" />
  <rect width="163" height="54" transform="translate(431 215)" fill="#C4C4C4" />
  <path
      d="M450.468 243.104V247H449.155V237.047H452.826C453.915 237.047 454.768 237.325 455.383 237.881C456.003 238.437 456.312 239.173 456.312 240.089C456.312 241.055 456.009 241.8 455.403 242.324C454.802 242.844 453.938 243.104 452.812 243.104H450.468ZM450.468 242.03H452.826C453.528 242.03 454.066 241.866 454.439 241.538C454.813 241.205 455 240.727 455 240.103C455 239.51 454.813 239.036 454.439 238.681C454.066 238.325 453.553 238.141 452.901 238.127H450.468V242.03ZM461.364 240.738C461.173 240.706 460.965 240.69 460.742 240.69C459.913 240.69 459.35 241.044 459.054 241.75V247H457.789V239.604H459.02L459.04 240.458C459.455 239.797 460.043 239.467 460.804 239.467C461.05 239.467 461.237 239.499 461.364 239.562V240.738ZM462.062 243.233C462.062 242.509 462.203 241.857 462.485 241.278C462.772 240.7 463.169 240.253 463.675 239.938C464.185 239.624 464.766 239.467 465.418 239.467C466.425 239.467 467.239 239.815 467.858 240.513C468.483 241.21 468.795 242.137 468.795 243.295V243.384C468.795 244.104 468.656 244.751 468.378 245.325C468.104 245.895 467.71 246.339 467.195 246.658C466.685 246.977 466.097 247.137 465.432 247.137C464.429 247.137 463.616 246.788 462.991 246.091C462.371 245.394 462.062 244.471 462.062 243.322V243.233ZM463.333 243.384C463.333 244.204 463.522 244.863 463.9 245.359C464.283 245.856 464.794 246.104 465.432 246.104C466.074 246.104 466.585 245.854 466.963 245.353C467.341 244.847 467.53 244.14 467.53 243.233C467.53 242.422 467.337 241.766 466.949 241.265C466.566 240.759 466.056 240.506 465.418 240.506C464.794 240.506 464.29 240.754 463.907 241.251C463.524 241.748 463.333 242.459 463.333 243.384ZM473.348 246.104C473.799 246.104 474.193 245.968 474.53 245.694C474.868 245.421 475.054 245.079 475.091 244.669H476.287C476.264 245.093 476.118 245.496 475.85 245.879C475.581 246.262 475.221 246.567 474.77 246.795C474.323 247.023 473.849 247.137 473.348 247.137C472.34 247.137 471.538 246.802 470.941 246.132C470.349 245.457 470.053 244.537 470.053 243.37V243.158C470.053 242.438 470.185 241.798 470.449 241.237C470.714 240.677 471.092 240.242 471.584 239.932C472.081 239.622 472.666 239.467 473.341 239.467C474.17 239.467 474.858 239.715 475.405 240.212C475.957 240.709 476.251 241.354 476.287 242.146H475.091C475.054 241.668 474.872 241.276 474.544 240.971C474.22 240.661 473.819 240.506 473.341 240.506C472.698 240.506 472.199 240.738 471.844 241.203C471.493 241.663 471.317 242.331 471.317 243.206V243.445C471.317 244.298 471.493 244.954 471.844 245.414C472.195 245.874 472.696 246.104 473.348 246.104ZM480.778 247.137C479.776 247.137 478.96 246.809 478.331 246.152C477.702 245.492 477.388 244.61 477.388 243.507V243.274C477.388 242.541 477.527 241.887 477.805 241.312C478.087 240.734 478.479 240.283 478.98 239.959C479.486 239.631 480.033 239.467 480.621 239.467C481.583 239.467 482.33 239.784 482.863 240.417C483.396 241.05 483.663 241.957 483.663 243.138V243.664H478.652C478.671 244.393 478.882 244.983 479.288 245.435C479.698 245.881 480.218 246.104 480.847 246.104C481.293 246.104 481.672 246.013 481.981 245.831C482.291 245.649 482.562 245.407 482.795 245.106L483.567 245.708C482.948 246.66 482.018 247.137 480.778 247.137ZM480.621 240.506C480.111 240.506 479.682 240.693 479.336 241.066C478.99 241.436 478.775 241.955 478.693 242.625H482.398V242.529C482.362 241.887 482.189 241.39 481.879 241.039C481.569 240.684 481.15 240.506 480.621 240.506ZM489.439 245.038C489.439 244.696 489.31 244.432 489.05 244.245C488.795 244.054 488.346 243.89 487.703 243.753C487.065 243.616 486.557 243.452 486.179 243.261C485.805 243.069 485.527 242.841 485.345 242.577C485.167 242.313 485.078 241.998 485.078 241.634C485.078 241.028 485.333 240.515 485.844 240.096C486.359 239.676 487.015 239.467 487.812 239.467C488.651 239.467 489.33 239.683 489.85 240.116C490.374 240.549 490.636 241.103 490.636 241.777H489.364C489.364 241.431 489.216 241.132 488.92 240.882C488.628 240.631 488.259 240.506 487.812 240.506C487.352 240.506 486.992 240.606 486.732 240.807C486.473 241.007 486.343 241.269 486.343 241.593C486.343 241.898 486.464 242.128 486.705 242.283C486.947 242.438 487.382 242.586 488.011 242.728C488.644 242.869 489.157 243.037 489.549 243.233C489.941 243.429 490.23 243.666 490.417 243.944C490.608 244.218 490.704 244.553 490.704 244.949C490.704 245.61 490.44 246.141 489.911 246.542C489.382 246.938 488.697 247.137 487.854 247.137C487.261 247.137 486.737 247.032 486.281 246.822C485.826 246.613 485.468 246.321 485.208 245.947C484.953 245.569 484.825 245.161 484.825 244.724H486.09C486.113 245.147 486.281 245.485 486.596 245.735C486.915 245.981 487.334 246.104 487.854 246.104C488.332 246.104 488.715 246.009 489.002 245.817C489.294 245.621 489.439 245.362 489.439 245.038ZM496.658 245.038C496.658 244.696 496.528 244.432 496.269 244.245C496.013 244.054 495.564 243.89 494.922 243.753C494.284 243.616 493.776 243.452 493.397 243.261C493.024 243.069 492.746 242.841 492.563 242.577C492.386 242.313 492.297 241.998 492.297 241.634C492.297 241.028 492.552 240.515 493.062 240.096C493.577 239.676 494.234 239.467 495.031 239.467C495.87 239.467 496.549 239.683 497.068 240.116C497.592 240.549 497.854 241.103 497.854 241.777H496.583C496.583 241.431 496.435 241.132 496.139 240.882C495.847 240.631 495.478 240.506 495.031 240.506C494.571 240.506 494.211 240.606 493.951 240.807C493.691 241.007 493.562 241.269 493.562 241.593C493.562 241.898 493.682 242.128 493.924 242.283C494.165 242.438 494.601 242.586 495.229 242.728C495.863 242.869 496.376 243.037 496.768 243.233C497.16 243.429 497.449 243.666 497.636 243.944C497.827 244.218 497.923 244.553 497.923 244.949C497.923 245.61 497.659 246.141 497.13 246.542C496.601 246.938 495.915 247.137 495.072 247.137C494.48 247.137 493.956 247.032 493.5 246.822C493.044 246.613 492.687 246.321 492.427 245.947C492.172 245.569 492.044 245.161 492.044 244.724H493.309C493.331 245.147 493.5 245.485 493.814 245.735C494.133 245.981 494.553 246.104 495.072 246.104C495.551 246.104 495.934 246.009 496.221 245.817C496.512 245.621 496.658 245.362 496.658 245.038ZM507.609 247C507.536 246.854 507.477 246.594 507.432 246.221C506.844 246.831 506.142 247.137 505.326 247.137C504.597 247.137 503.998 246.932 503.528 246.521C503.063 246.107 502.831 245.583 502.831 244.949C502.831 244.179 503.123 243.582 503.706 243.158C504.294 242.73 505.119 242.516 506.181 242.516H507.411V241.935C507.411 241.493 507.279 241.142 507.015 240.882C506.75 240.618 506.361 240.485 505.846 240.485C505.395 240.485 505.016 240.599 504.711 240.827C504.406 241.055 504.253 241.331 504.253 241.654H502.981C502.981 241.285 503.111 240.93 503.371 240.588C503.635 240.242 503.991 239.968 504.438 239.768C504.889 239.567 505.383 239.467 505.921 239.467C506.773 239.467 507.441 239.681 507.924 240.109C508.407 240.533 508.658 241.119 508.676 241.866V245.271C508.676 245.95 508.762 246.49 508.936 246.891V247H507.609ZM505.511 246.036C505.907 246.036 506.283 245.934 506.639 245.729C506.994 245.523 507.252 245.257 507.411 244.929V243.411H506.42C504.87 243.411 504.096 243.865 504.096 244.771C504.096 245.168 504.228 245.478 504.492 245.701C504.757 245.924 505.096 246.036 505.511 246.036ZM511.854 239.604L511.896 240.533C512.461 239.822 513.199 239.467 514.11 239.467C515.674 239.467 516.462 240.349 516.476 242.112V247H515.211V242.105C515.206 241.572 515.083 241.178 514.842 240.923C514.605 240.668 514.233 240.54 513.728 240.54C513.317 240.54 512.957 240.649 512.647 240.868C512.338 241.087 512.096 241.374 511.923 241.729V247H510.658V239.604H511.854ZM519.579 239.604L519.62 240.533C520.185 239.822 520.924 239.467 521.835 239.467C523.398 239.467 524.187 240.349 524.2 242.112V247H522.936V242.105C522.931 241.572 522.808 241.178 522.566 240.923C522.329 240.668 521.958 240.54 521.452 240.54C521.042 240.54 520.682 240.649 520.372 240.868C520.062 241.087 519.821 241.374 519.647 241.729V247H518.383V239.604H519.579ZM525.772 243.233C525.772 242.509 525.914 241.857 526.196 241.278C526.483 240.7 526.88 240.253 527.386 239.938C527.896 239.624 528.477 239.467 529.129 239.467C530.136 239.467 530.95 239.815 531.569 240.513C532.194 241.21 532.506 242.137 532.506 243.295V243.384C532.506 244.104 532.367 244.751 532.089 245.325C531.815 245.895 531.421 246.339 530.906 246.658C530.396 246.977 529.808 247.137 529.143 247.137C528.14 247.137 527.326 246.788 526.702 246.091C526.082 245.394 525.772 244.471 525.772 243.322V243.233ZM527.044 243.384C527.044 244.204 527.233 244.863 527.611 245.359C527.994 245.856 528.505 246.104 529.143 246.104C529.785 246.104 530.296 245.854 530.674 245.353C531.052 244.847 531.241 244.14 531.241 243.233C531.241 242.422 531.048 241.766 530.66 241.265C530.277 240.759 529.767 240.506 529.129 240.506C528.505 240.506 528.001 240.754 527.618 241.251C527.235 241.748 527.044 242.459 527.044 243.384ZM535.808 237.812V239.604H537.188V240.581H535.808V245.168C535.808 245.464 535.869 245.688 535.992 245.838C536.115 245.984 536.325 246.057 536.621 246.057C536.767 246.057 536.967 246.029 537.223 245.975V247C536.89 247.091 536.566 247.137 536.252 247.137C535.687 247.137 535.261 246.966 534.974 246.624C534.687 246.282 534.543 245.797 534.543 245.168V240.581H533.196V239.604H534.543V237.812H535.808ZM543.238 247C543.165 246.854 543.106 246.594 543.061 246.221C542.473 246.831 541.771 247.137 540.955 247.137C540.226 247.137 539.627 246.932 539.157 246.521C538.692 246.107 538.46 245.583 538.46 244.949C538.46 244.179 538.752 243.582 539.335 243.158C539.923 242.73 540.748 242.516 541.81 242.516H543.04V241.935C543.04 241.493 542.908 241.142 542.644 240.882C542.379 240.618 541.99 240.485 541.475 240.485C541.023 240.485 540.645 240.599 540.34 240.827C540.035 241.055 539.882 241.331 539.882 241.654H538.61C538.61 241.285 538.74 240.93 539 240.588C539.264 240.242 539.62 239.968 540.066 239.768C540.518 239.567 541.012 239.467 541.55 239.467C542.402 239.467 543.07 239.681 543.553 240.109C544.036 240.533 544.286 241.119 544.305 241.866V245.271C544.305 245.95 544.391 246.49 544.564 246.891V247H543.238ZM541.14 246.036C541.536 246.036 541.912 245.934 542.268 245.729C542.623 245.523 542.881 245.257 543.04 244.929V243.411H542.049C540.499 243.411 539.725 243.865 539.725 244.771C539.725 245.168 539.857 245.478 540.121 245.701C540.385 245.924 540.725 246.036 541.14 246.036ZM548.003 237.812V239.604H549.384V240.581H548.003V245.168C548.003 245.464 548.064 245.688 548.188 245.838C548.311 245.984 548.52 246.057 548.816 246.057C548.962 246.057 549.163 246.029 549.418 245.975V247C549.085 247.091 548.762 247.137 548.447 247.137C547.882 247.137 547.456 246.966 547.169 246.624C546.882 246.282 546.738 245.797 546.738 245.168V240.581H545.392V239.604H546.738V237.812H548.003ZM552.241 247H550.977V239.604H552.241V247ZM550.874 237.642C550.874 237.437 550.936 237.263 551.059 237.122C551.186 236.981 551.373 236.91 551.619 236.91C551.865 236.91 552.052 236.981 552.18 237.122C552.307 237.263 552.371 237.437 552.371 237.642C552.371 237.847 552.307 238.018 552.18 238.154C552.052 238.291 551.865 238.359 551.619 238.359C551.373 238.359 551.186 238.291 551.059 238.154C550.936 238.018 550.874 237.847 550.874 237.642ZM553.937 243.233C553.937 242.509 554.078 241.857 554.36 241.278C554.647 240.7 555.044 240.253 555.55 239.938C556.06 239.624 556.641 239.467 557.293 239.467C558.3 239.467 559.114 239.815 559.733 240.513C560.358 241.21 560.67 242.137 560.67 243.295V243.384C560.67 244.104 560.531 244.751 560.253 245.325C559.979 245.895 559.585 246.339 559.07 246.658C558.56 246.977 557.972 247.137 557.307 247.137C556.304 247.137 555.491 246.788 554.866 246.091C554.246 245.394 553.937 244.471 553.937 243.322V243.233ZM555.208 243.384C555.208 244.204 555.397 244.863 555.775 245.359C556.158 245.856 556.669 246.104 557.307 246.104C557.949 246.104 558.46 245.854 558.838 245.353C559.216 244.847 559.405 244.14 559.405 243.233C559.405 242.422 559.212 241.766 558.824 241.265C558.441 240.759 557.931 240.506 557.293 240.506C556.669 240.506 556.165 240.754 555.782 241.251C555.399 241.748 555.208 242.459 555.208 243.384ZM563.452 239.604L563.493 240.533C564.058 239.822 564.797 239.467 565.708 239.467C567.271 239.467 568.06 240.349 568.073 242.112V247H566.809V242.105C566.804 241.572 566.681 241.178 566.439 240.923C566.202 240.668 565.831 240.54 565.325 240.54C564.915 240.54 564.555 240.649 564.245 240.868C563.935 241.087 563.694 241.374 563.521 241.729V247H562.256V239.604H563.452ZM574.287 245.038C574.287 244.696 574.157 244.432 573.897 244.245C573.642 244.054 573.193 243.89 572.551 243.753C571.913 243.616 571.405 243.452 571.026 243.261C570.653 243.069 570.375 242.841 570.192 242.577C570.015 242.313 569.926 241.998 569.926 241.634C569.926 241.028 570.181 240.515 570.691 240.096C571.206 239.676 571.863 239.467 572.66 239.467C573.499 239.467 574.178 239.683 574.697 240.116C575.221 240.549 575.483 241.103 575.483 241.777H574.212C574.212 241.431 574.064 241.132 573.768 240.882C573.476 240.631 573.107 240.506 572.66 240.506C572.2 240.506 571.84 240.606 571.58 240.807C571.32 241.007 571.19 241.269 571.19 241.593C571.19 241.898 571.311 242.128 571.553 242.283C571.794 242.438 572.229 242.586 572.858 242.728C573.492 242.869 574.005 243.037 574.396 243.233C574.788 243.429 575.078 243.666 575.265 243.944C575.456 244.218 575.552 244.553 575.552 244.949C575.552 245.61 575.287 246.141 574.759 246.542C574.23 246.938 573.544 247.137 572.701 247.137C572.109 247.137 571.585 247.032 571.129 246.822C570.673 246.613 570.315 246.321 570.056 245.947C569.8 245.569 569.673 245.161 569.673 244.724H570.938C570.96 245.147 571.129 245.485 571.443 245.735C571.762 245.981 572.182 246.104 572.701 246.104C573.18 246.104 573.562 246.009 573.85 245.817C574.141 245.621 574.287 245.362 574.287 245.038Z"
      fill="black" />
  <rect x="91" y="215" width="86" height="54" rx="10" fill="#C4C4C4" />
  <path
      d="M116.477 243.842C116.354 244.895 115.964 245.708 115.308 246.282C114.656 246.852 113.788 247.137 112.703 247.137C111.527 247.137 110.584 246.715 109.873 245.872C109.167 245.029 108.813 243.901 108.813 242.488V241.531C108.813 240.606 108.978 239.793 109.306 239.091C109.638 238.389 110.108 237.851 110.714 237.478C111.32 237.099 112.022 236.91 112.819 236.91C113.877 236.91 114.724 237.206 115.362 237.799C116 238.387 116.372 239.202 116.477 240.246H115.157C115.043 239.453 114.795 238.879 114.412 238.523C114.034 238.168 113.503 237.99 112.819 237.99C111.981 237.99 111.322 238.3 110.844 238.92C110.37 239.54 110.133 240.422 110.133 241.565V242.529C110.133 243.609 110.358 244.468 110.81 245.106C111.261 245.744 111.892 246.063 112.703 246.063C113.432 246.063 113.991 245.899 114.378 245.571C114.77 245.239 115.03 244.662 115.157 243.842H116.477ZM117.741 243.233C117.741 242.509 117.882 241.857 118.165 241.278C118.452 240.7 118.849 240.253 119.354 239.938C119.865 239.624 120.446 239.467 121.098 239.467C122.105 239.467 122.918 239.815 123.538 240.513C124.162 241.21 124.475 242.137 124.475 243.295V243.384C124.475 244.104 124.336 244.751 124.058 245.325C123.784 245.895 123.39 246.339 122.875 246.658C122.365 246.977 121.777 247.137 121.111 247.137C120.109 247.137 119.295 246.788 118.671 246.091C118.051 245.394 117.741 244.471 117.741 243.322V243.233ZM119.013 243.384C119.013 244.204 119.202 244.863 119.58 245.359C119.963 245.856 120.473 246.104 121.111 246.104C121.754 246.104 122.264 245.854 122.643 245.353C123.021 244.847 123.21 244.14 123.21 243.233C123.21 242.422 123.016 241.766 122.629 241.265C122.246 240.759 121.736 240.506 121.098 240.506C120.473 240.506 119.97 240.754 119.587 241.251C119.204 241.748 119.013 242.459 119.013 243.384ZM127.25 239.604L127.284 240.424C127.826 239.786 128.558 239.467 129.479 239.467C130.513 239.467 131.217 239.863 131.591 240.656C131.837 240.301 132.156 240.014 132.548 239.795C132.944 239.576 133.411 239.467 133.949 239.467C135.572 239.467 136.396 240.326 136.424 242.044V247H135.159V242.119C135.159 241.59 135.038 241.196 134.797 240.937C134.555 240.672 134.15 240.54 133.58 240.54C133.111 240.54 132.721 240.681 132.411 240.964C132.101 241.242 131.921 241.618 131.871 242.092V247H130.6V242.153C130.6 241.078 130.073 240.54 129.021 240.54C128.191 240.54 127.624 240.893 127.318 241.6V247H126.054V239.604H127.25ZM144.586 243.384C144.586 244.509 144.328 245.416 143.813 246.104C143.299 246.793 142.601 247.137 141.722 247.137C140.824 247.137 140.118 246.852 139.603 246.282V249.844H138.338V239.604H139.493L139.555 240.424C140.07 239.786 140.785 239.467 141.701 239.467C142.59 239.467 143.292 239.802 143.807 240.472C144.326 241.142 144.586 242.074 144.586 243.268V243.384ZM143.321 243.24C143.321 242.406 143.144 241.748 142.788 241.265C142.433 240.782 141.945 240.54 141.325 240.54C140.56 240.54 139.985 240.88 139.603 241.559V245.093C139.981 245.767 140.56 246.104 141.339 246.104C141.945 246.104 142.426 245.865 142.781 245.387C143.141 244.904 143.321 244.188 143.321 243.24ZM147.573 247H146.309V239.604H147.573V247ZM146.206 237.642C146.206 237.437 146.268 237.263 146.391 237.122C146.518 236.981 146.705 236.91 146.951 236.91C147.197 236.91 147.384 236.981 147.512 237.122C147.639 237.263 147.703 237.437 147.703 237.642C147.703 237.847 147.639 238.018 147.512 238.154C147.384 238.291 147.197 238.359 146.951 238.359C146.705 238.359 146.518 238.291 146.391 238.154C146.268 238.018 146.206 237.847 146.206 237.642ZM150.978 247H149.713V236.5H150.978V247ZM156.077 247.137C155.075 247.137 154.259 246.809 153.63 246.152C153.001 245.492 152.687 244.61 152.687 243.507V243.274C152.687 242.541 152.826 241.887 153.104 241.312C153.386 240.734 153.778 240.283 154.279 239.959C154.785 239.631 155.332 239.467 155.92 239.467C156.882 239.467 157.629 239.784 158.162 240.417C158.695 241.05 158.962 241.957 158.962 243.138V243.664H153.951C153.969 244.393 154.181 244.983 154.587 245.435C154.997 245.881 155.517 246.104 156.146 246.104C156.592 246.104 156.97 246.013 157.28 245.831C157.59 245.649 157.861 245.407 158.094 245.106L158.866 245.708C158.246 246.66 157.317 247.137 156.077 247.137ZM155.92 240.506C155.41 240.506 154.981 240.693 154.635 241.066C154.288 241.436 154.074 241.955 153.992 242.625H157.697V242.529C157.661 241.887 157.488 241.39 157.178 241.039C156.868 240.684 156.449 240.506 155.92 240.506Z"
      fill="black" />
  <rect width="82.881" height="82.881" transform="matrix(0.711418 -0.702769 0.711418 0.702769 245 241.246)"
      fill="#C4C4C4" />
  <path
      d="M262.876 238.402H258.706L257.77 241H256.416L260.217 231.047H261.365L265.173 241H263.826L262.876 238.402ZM259.103 237.322H262.486L260.791 232.667L259.103 237.322ZM267.511 233.604L267.552 234.533C268.117 233.822 268.855 233.467 269.767 233.467C271.33 233.467 272.118 234.349 272.132 236.112V241H270.867V236.105C270.863 235.572 270.74 235.178 270.498 234.923C270.261 234.668 269.89 234.54 269.384 234.54C268.974 234.54 268.614 234.649 268.304 234.868C267.994 235.087 267.752 235.374 267.579 235.729V241H266.314V233.604H267.511ZM276.459 239.147L278.182 233.604H279.535L276.562 242.142C276.101 243.372 275.37 243.987 274.367 243.987L274.128 243.967L273.656 243.878V242.853L273.998 242.88C274.426 242.88 274.759 242.793 274.996 242.62C275.238 242.447 275.436 242.13 275.591 241.67L275.871 240.918L273.232 233.604H274.613L276.459 239.147ZM290.391 237.384C290.391 238.509 290.133 239.416 289.618 240.104C289.103 240.793 288.406 241.137 287.526 241.137C286.629 241.137 285.922 240.852 285.407 240.282V243.844H284.143V233.604H285.298L285.359 234.424C285.874 233.786 286.59 233.467 287.506 233.467C288.395 233.467 289.096 233.802 289.611 234.472C290.131 235.142 290.391 236.074 290.391 237.268V237.384ZM289.126 237.24C289.126 236.406 288.948 235.748 288.593 235.265C288.237 234.782 287.75 234.54 287.13 234.54C286.364 234.54 285.79 234.88 285.407 235.559V239.093C285.785 239.767 286.364 240.104 287.144 240.104C287.75 240.104 288.23 239.865 288.586 239.387C288.946 238.904 289.126 238.188 289.126 237.24ZM295.579 234.738C295.388 234.706 295.18 234.69 294.957 234.69C294.128 234.69 293.565 235.044 293.269 235.75V241H292.004V233.604H293.234L293.255 234.458C293.67 233.797 294.257 233.467 295.019 233.467C295.265 233.467 295.451 233.499 295.579 233.562V234.738ZM296.276 237.233C296.276 236.509 296.418 235.857 296.7 235.278C296.987 234.7 297.384 234.253 297.89 233.938C298.4 233.624 298.981 233.467 299.633 233.467C300.64 233.467 301.453 233.815 302.073 234.513C302.698 235.21 303.01 236.137 303.01 237.295V237.384C303.01 238.104 302.871 238.751 302.593 239.325C302.319 239.895 301.925 240.339 301.41 240.658C300.9 240.977 300.312 241.137 299.646 241.137C298.644 241.137 297.83 240.788 297.206 240.091C296.586 239.394 296.276 238.471 296.276 237.322V237.233ZM297.548 237.384C297.548 238.204 297.737 238.863 298.115 239.359C298.498 239.856 299.008 240.104 299.646 240.104C300.289 240.104 300.799 239.854 301.178 239.353C301.556 238.847 301.745 238.14 301.745 237.233C301.745 236.422 301.551 235.766 301.164 235.265C300.781 234.759 300.271 234.506 299.633 234.506C299.008 234.506 298.505 234.754 298.122 235.251C297.739 235.748 297.548 236.459 297.548 237.384ZM307.562 240.104C308.014 240.104 308.408 239.968 308.745 239.694C309.082 239.421 309.269 239.079 309.306 238.669H310.502C310.479 239.093 310.333 239.496 310.064 239.879C309.796 240.262 309.436 240.567 308.984 240.795C308.538 241.023 308.064 241.137 307.562 241.137C306.555 241.137 305.753 240.802 305.156 240.132C304.564 239.457 304.268 238.537 304.268 237.37V237.158C304.268 236.438 304.4 235.798 304.664 235.237C304.928 234.677 305.307 234.242 305.799 233.932C306.296 233.622 306.881 233.467 307.556 233.467C308.385 233.467 309.073 233.715 309.62 234.212C310.172 234.709 310.465 235.354 310.502 236.146H309.306C309.269 235.668 309.087 235.276 308.759 234.971C308.435 234.661 308.034 234.506 307.556 234.506C306.913 234.506 306.414 234.738 306.059 235.203C305.708 235.663 305.532 236.331 305.532 237.206V237.445C305.532 238.298 305.708 238.954 306.059 239.414C306.41 239.874 306.911 240.104 307.562 240.104ZM314.993 241.137C313.991 241.137 313.175 240.809 312.546 240.152C311.917 239.492 311.603 238.61 311.603 237.507V237.274C311.603 236.541 311.742 235.887 312.02 235.312C312.302 234.734 312.694 234.283 313.195 233.959C313.701 233.631 314.248 233.467 314.836 233.467C315.798 233.467 316.545 233.784 317.078 234.417C317.611 235.05 317.878 235.957 317.878 237.138V237.664H312.867C312.885 238.393 313.097 238.983 313.503 239.435C313.913 239.881 314.433 240.104 315.062 240.104C315.508 240.104 315.886 240.013 316.196 239.831C316.506 239.649 316.777 239.407 317.01 239.106L317.782 239.708C317.162 240.66 316.233 241.137 314.993 241.137ZM314.836 234.506C314.326 234.506 313.897 234.693 313.551 235.066C313.204 235.436 312.99 235.955 312.908 236.625H316.613V236.529C316.577 235.887 316.404 235.39 316.094 235.039C315.784 234.684 315.365 234.506 314.836 234.506ZM323.654 239.038C323.654 238.696 323.524 238.432 323.265 238.245C323.009 238.054 322.561 237.89 321.918 237.753C321.28 237.616 320.772 237.452 320.394 237.261C320.02 237.069 319.742 236.841 319.56 236.577C319.382 236.313 319.293 235.998 319.293 235.634C319.293 235.028 319.548 234.515 320.059 234.096C320.574 233.676 321.23 233.467 322.027 233.467C322.866 233.467 323.545 233.683 324.064 234.116C324.589 234.549 324.851 235.103 324.851 235.777H323.579C323.579 235.431 323.431 235.132 323.135 234.882C322.843 234.631 322.474 234.506 322.027 234.506C321.567 234.506 321.207 234.606 320.947 234.807C320.688 235.007 320.558 235.269 320.558 235.593C320.558 235.898 320.678 236.128 320.92 236.283C321.161 236.438 321.597 236.586 322.226 236.728C322.859 236.869 323.372 237.037 323.764 237.233C324.156 237.429 324.445 237.666 324.632 237.944C324.823 238.218 324.919 238.553 324.919 238.949C324.919 239.61 324.655 240.141 324.126 240.542C323.597 240.938 322.911 241.137 322.068 241.137C321.476 241.137 320.952 241.032 320.496 240.822C320.04 240.613 319.683 240.321 319.423 239.947C319.168 239.569 319.04 239.161 319.04 238.724H320.305C320.327 239.147 320.496 239.485 320.811 239.735C321.13 239.981 321.549 240.104 322.068 240.104C322.547 240.104 322.93 240.009 323.217 239.817C323.508 239.621 323.654 239.362 323.654 239.038ZM330.873 239.038C330.873 238.696 330.743 238.432 330.483 238.245C330.228 238.054 329.779 237.89 329.137 237.753C328.499 237.616 327.991 237.452 327.612 237.261C327.239 237.069 326.961 236.841 326.778 236.577C326.601 236.313 326.512 235.998 326.512 235.634C326.512 235.028 326.767 234.515 327.277 234.096C327.792 233.676 328.449 233.467 329.246 233.467C330.085 233.467 330.764 233.683 331.283 234.116C331.807 234.549 332.069 235.103 332.069 235.777H330.798C330.798 235.431 330.65 235.132 330.354 234.882C330.062 234.631 329.693 234.506 329.246 234.506C328.786 234.506 328.426 234.606 328.166 234.807C327.906 235.007 327.776 235.269 327.776 235.593C327.776 235.898 327.897 236.128 328.139 236.283C328.38 236.438 328.815 236.586 329.444 236.728C330.078 236.869 330.59 237.037 330.982 237.233C331.374 237.429 331.664 237.666 331.851 237.944C332.042 238.218 332.138 238.553 332.138 238.949C332.138 239.61 331.873 240.141 331.345 240.542C330.816 240.938 330.13 241.137 329.287 241.137C328.695 241.137 328.171 241.032 327.715 240.822C327.259 240.613 326.901 240.321 326.642 239.947C326.386 239.569 326.259 239.161 326.259 238.724H327.523C327.546 239.147 327.715 239.485 328.029 239.735C328.348 239.981 328.768 240.104 329.287 240.104C329.766 240.104 330.148 240.009 330.436 239.817C330.727 239.621 330.873 239.362 330.873 239.038ZM333.45 237.233C333.45 236.509 333.591 235.857 333.874 235.278C334.161 234.7 334.558 234.253 335.063 233.938C335.574 233.624 336.155 233.467 336.807 233.467C337.814 233.467 338.627 233.815 339.247 234.513C339.871 235.21 340.184 236.137 340.184 237.295V237.384C340.184 238.104 340.045 238.751 339.767 239.325C339.493 239.895 339.099 240.339 338.584 240.658C338.074 240.977 337.486 241.137 336.82 241.137C335.818 241.137 335.004 240.788 334.38 240.091C333.76 239.394 333.45 238.471 333.45 237.322V237.233ZM334.722 237.384C334.722 238.204 334.911 238.863 335.289 239.359C335.672 239.856 336.182 240.104 336.82 240.104C337.463 240.104 337.973 239.854 338.352 239.353C338.73 238.847 338.919 238.14 338.919 237.233C338.919 236.422 338.725 235.766 338.338 235.265C337.955 234.759 337.445 234.506 336.807 234.506C336.182 234.506 335.679 234.754 335.296 235.251C334.913 235.748 334.722 236.459 334.722 237.384ZM345.345 234.738C345.153 234.706 344.946 234.69 344.723 234.69C343.893 234.69 343.33 235.044 343.034 235.75V241H341.77V233.604H343L343.021 234.458C343.435 233.797 344.023 233.467 344.784 233.467C345.03 233.467 345.217 233.499 345.345 233.562V234.738ZM350.82 239.038C350.82 238.696 350.69 238.432 350.431 238.245C350.175 238.054 349.727 237.89 349.084 237.753C348.446 237.616 347.938 237.452 347.56 237.261C347.186 237.069 346.908 236.841 346.726 236.577C346.548 236.313 346.459 235.998 346.459 235.634C346.459 235.028 346.714 234.515 347.225 234.096C347.74 233.676 348.396 233.467 349.193 233.467C350.032 233.467 350.711 233.683 351.23 234.116C351.755 234.549 352.017 235.103 352.017 235.777H350.745C350.745 235.431 350.597 235.132 350.301 234.882C350.009 234.631 349.64 234.506 349.193 234.506C348.733 234.506 348.373 234.606 348.113 234.807C347.854 235.007 347.724 235.269 347.724 235.593C347.724 235.898 347.844 236.128 348.086 236.283C348.327 236.438 348.763 236.586 349.392 236.728C350.025 236.869 350.538 237.037 350.93 237.233C351.322 237.429 351.611 237.666 351.798 237.944C351.989 238.218 352.085 238.553 352.085 238.949C352.085 239.61 351.821 240.141 351.292 240.542C350.763 240.938 350.077 241.137 349.234 241.137C348.642 241.137 348.118 241.032 347.662 240.822C347.206 240.613 346.849 240.321 346.589 239.947C346.334 239.569 346.206 239.161 346.206 238.724H347.471C347.493 239.147 347.662 239.485 347.977 239.735C348.296 239.981 348.715 240.104 349.234 240.104C349.713 240.104 350.096 240.009 350.383 239.817C350.674 239.621 350.82 239.362 350.82 239.038ZM276.24 257V250.581H275.071V249.604H276.24V248.845C276.24 248.052 276.452 247.439 276.876 247.006C277.3 246.573 277.899 246.356 278.674 246.356C278.965 246.356 279.255 246.395 279.542 246.473L279.474 247.498C279.259 247.457 279.032 247.437 278.79 247.437C278.38 247.437 278.063 247.557 277.84 247.799C277.617 248.036 277.505 248.378 277.505 248.824V249.604H279.084V250.581H277.505V257H276.24ZM280.15 253.233C280.15 252.509 280.292 251.857 280.574 251.278C280.861 250.7 281.258 250.253 281.764 249.938C282.274 249.624 282.855 249.467 283.507 249.467C284.514 249.467 285.327 249.815 285.947 250.513C286.572 251.21 286.884 252.137 286.884 253.295V253.384C286.884 254.104 286.745 254.751 286.467 255.325C286.193 255.895 285.799 256.339 285.284 256.658C284.774 256.977 284.186 257.137 283.521 257.137C282.518 257.137 281.704 256.788 281.08 256.091C280.46 255.394 280.15 254.471 280.15 253.322V253.233ZM281.422 253.384C281.422 254.204 281.611 254.863 281.989 255.359C282.372 255.856 282.882 256.104 283.521 256.104C284.163 256.104 284.674 255.854 285.052 255.353C285.43 254.847 285.619 254.14 285.619 253.233C285.619 252.422 285.425 251.766 285.038 251.265C284.655 250.759 284.145 250.506 283.507 250.506C282.882 250.506 282.379 250.754 281.996 251.251C281.613 251.748 281.422 252.459 281.422 253.384ZM292.045 250.738C291.854 250.706 291.646 250.69 291.423 250.69C290.593 250.69 290.031 251.044 289.734 251.75V257H288.47V249.604H289.7L289.721 250.458C290.135 249.797 290.723 249.467 291.484 249.467C291.73 249.467 291.917 249.499 292.045 249.562V250.738ZM298.402 247.812V249.604H299.783V250.581H298.402V255.168C298.402 255.464 298.464 255.688 298.587 255.838C298.71 255.984 298.92 256.057 299.216 256.057C299.362 256.057 299.562 256.029 299.817 255.975V257C299.485 257.091 299.161 257.137 298.847 257.137C298.282 257.137 297.855 256.966 297.568 256.624C297.281 256.282 297.138 255.797 297.138 255.168V250.581H295.791V249.604H297.138V247.812H298.402ZM302.531 250.499C303.092 249.811 303.821 249.467 304.719 249.467C306.282 249.467 307.07 250.349 307.084 252.112V257H305.819V252.105C305.815 251.572 305.692 251.178 305.45 250.923C305.213 250.668 304.842 250.54 304.336 250.54C303.926 250.54 303.566 250.649 303.256 250.868C302.946 251.087 302.704 251.374 302.531 251.729V257H301.267V246.5H302.531V250.499ZM312.047 257.137C311.044 257.137 310.229 256.809 309.6 256.152C308.971 255.492 308.656 254.61 308.656 253.507V253.274C308.656 252.541 308.795 251.887 309.073 251.312C309.356 250.734 309.748 250.283 310.249 249.959C310.755 249.631 311.302 249.467 311.89 249.467C312.851 249.467 313.599 249.784 314.132 250.417C314.665 251.05 314.932 251.957 314.932 253.138V253.664H309.921C309.939 254.393 310.151 254.983 310.557 255.435C310.967 255.881 311.486 256.104 312.115 256.104C312.562 256.104 312.94 256.013 313.25 255.831C313.56 255.649 313.831 255.407 314.063 255.106L314.836 255.708C314.216 256.66 313.286 257.137 312.047 257.137ZM311.89 250.506C311.379 250.506 310.951 250.693 310.604 251.066C310.258 251.436 310.044 251.955 309.962 252.625H313.667V252.529C313.631 251.887 313.457 251.39 313.147 251.039C312.838 250.684 312.418 250.506 311.89 250.506ZM317.591 249.604L317.625 250.424C318.167 249.786 318.899 249.467 319.819 249.467C320.854 249.467 321.558 249.863 321.932 250.656C322.178 250.301 322.497 250.014 322.889 249.795C323.285 249.576 323.752 249.467 324.29 249.467C325.912 249.467 326.737 250.326 326.765 252.044V257H325.5V252.119C325.5 251.59 325.379 251.196 325.138 250.937C324.896 250.672 324.491 250.54 323.921 250.54C323.451 250.54 323.062 250.681 322.752 250.964C322.442 251.242 322.262 251.618 322.212 252.092V257H320.94V252.153C320.94 251.078 320.414 250.54 319.361 250.54C318.532 250.54 317.965 250.893 317.659 251.6V257H316.395V249.604H317.591ZM330.162 254.197C330.171 253.655 330.233 253.227 330.347 252.912C330.461 252.598 330.693 252.249 331.044 251.866L331.939 250.943C332.322 250.51 332.514 250.046 332.514 249.549C332.514 249.07 332.388 248.697 332.138 248.428C331.887 248.154 331.522 248.018 331.044 248.018C330.579 248.018 330.205 248.141 329.923 248.387C329.64 248.633 329.499 248.963 329.499 249.378H328.234C328.243 248.64 328.506 248.045 329.021 247.594C329.54 247.138 330.215 246.91 331.044 246.91C331.905 246.91 332.575 247.143 333.054 247.607C333.537 248.068 333.778 248.701 333.778 249.508C333.778 250.305 333.409 251.091 332.671 251.866L331.926 252.604C331.593 252.974 331.427 253.505 331.427 254.197H330.162ZM330.107 256.364C330.107 256.159 330.169 255.988 330.292 255.852C330.42 255.71 330.606 255.64 330.853 255.64C331.099 255.64 331.285 255.71 331.413 255.852C331.541 255.988 331.604 256.159 331.604 256.364C331.604 256.569 331.541 256.74 331.413 256.877C331.285 257.009 331.099 257.075 330.853 257.075C330.606 257.075 330.42 257.009 330.292 256.877C330.169 256.74 330.107 256.569 330.107 256.364Z"
      fill="black" />
  <path
      d="M303.646 60.3536C303.842 60.5488 304.158 60.5488 304.354 60.3536L307.536 57.1716C307.731 56.9763 307.731 56.6597 307.536 56.4645C307.34 56.2692 307.024 56.2692 306.828 56.4645L304 59.2929L301.172 56.4645C300.976 56.2692 300.66 56.2692 300.464 56.4645C300.269 56.6597 300.269 56.9763 300.464 57.1716L303.646 60.3536ZM303.5 9V60H304.5V9H303.5Z"
      fill="black" />
  <path
      d="M303.646 183.354C303.842 183.549 304.158 183.549 304.354 183.354L307.536 180.172C307.731 179.976 307.731 179.66 307.536 179.464C307.34 179.269 307.024 179.269 306.828 179.464L304 182.293L301.172 179.464C300.976 179.269 300.66 179.269 300.464 179.464C300.269 179.66 300.269 179.976 300.464 180.172L303.646 183.354ZM303.5 130V183H304.5V130H303.5Z"
      fill="black" />
  <path
      d="M430.354 241.354C430.549 241.158 430.549 240.842 430.354 240.646L427.172 237.464C426.976 237.269 426.66 237.269 426.464 237.464C426.269 237.66 426.269 237.976 426.464 238.172L429.293 241L426.464 243.828C426.269 244.024 426.269 244.34 426.464 244.536C426.66 244.731 426.976 244.731 427.172 244.536L430.354 241.354ZM363 241.5H430V240.5H363V241.5Z"
      fill="black" />
  <path
      d="M177.646 240.646C177.451 240.842 177.451 241.158 177.646 241.354L180.828 244.536C181.024 244.731 181.34 244.731 181.536 244.536C181.731 244.34 181.731 244.024 181.536 243.828L178.707 241L181.536 238.172C181.731 237.976 181.731 237.66 181.536 237.464C181.34 237.269 181.024 237.269 180.828 237.464L177.646 240.646ZM245 240.5L178 240.5L178 241.5L245 241.5L245 240.5Z"
      fill="black" />
  <path
      d="M211.805 240H210.485L205.475 232.33V240H204.155V230.047H205.475L210.499 237.751V230.047H211.805V240ZM213.603 236.233C213.603 235.509 213.744 234.857 214.026 234.278C214.313 233.7 214.71 233.253 215.216 232.938C215.726 232.624 216.307 232.467 216.959 232.467C217.966 232.467 218.78 232.815 219.399 233.513C220.024 234.21 220.336 235.137 220.336 236.295V236.384C220.336 237.104 220.197 237.751 219.919 238.325C219.646 238.895 219.251 239.339 218.736 239.658C218.226 239.977 217.638 240.137 216.973 240.137C215.97 240.137 215.157 239.788 214.532 239.091C213.912 238.394 213.603 237.471 213.603 236.322V236.233ZM214.874 236.384C214.874 237.204 215.063 237.863 215.441 238.359C215.824 238.856 216.335 239.104 216.973 239.104C217.615 239.104 218.126 238.854 218.504 238.353C218.882 237.847 219.071 237.14 219.071 236.233C219.071 235.422 218.878 234.766 218.49 234.265C218.107 233.759 217.597 233.506 216.959 233.506C216.335 233.506 215.831 233.754 215.448 234.251C215.065 234.748 214.874 235.459 214.874 236.384Z"
      fill="black" />
  <path
      d="M392.19 235.044L394.788 230.047H396.278L392.847 236.288V240H391.534V236.288L388.103 230.047H389.606L392.19 235.044ZM399.983 240.137C398.981 240.137 398.165 239.809 397.536 239.152C396.907 238.492 396.593 237.61 396.593 236.507V236.274C396.593 235.541 396.732 234.887 397.01 234.312C397.292 233.734 397.684 233.283 398.186 232.959C398.691 232.631 399.238 232.467 399.826 232.467C400.788 232.467 401.535 232.784 402.068 233.417C402.602 234.05 402.868 234.957 402.868 236.138V236.664H397.857C397.876 237.393 398.088 237.983 398.493 238.435C398.903 238.881 399.423 239.104 400.052 239.104C400.498 239.104 400.877 239.013 401.187 238.831C401.496 238.649 401.768 238.407 402 238.106L402.772 238.708C402.153 239.66 401.223 240.137 399.983 240.137ZM399.826 233.506C399.316 233.506 398.887 233.693 398.541 234.066C398.195 234.436 397.98 234.955 397.898 235.625H401.604V235.529C401.567 234.887 401.394 234.39 401.084 234.039C400.774 233.684 400.355 233.506 399.826 233.506ZM408.645 238.038C408.645 237.696 408.515 237.432 408.255 237.245C408 237.054 407.551 236.89 406.908 236.753C406.27 236.616 405.762 236.452 405.384 236.261C405.01 236.069 404.732 235.841 404.55 235.577C404.372 235.313 404.283 234.998 404.283 234.634C404.283 234.028 404.538 233.515 405.049 233.096C405.564 232.676 406.22 232.467 407.018 232.467C407.856 232.467 408.535 232.683 409.055 233.116C409.579 233.549 409.841 234.103 409.841 234.777H408.569C408.569 234.431 408.421 234.132 408.125 233.882C407.833 233.631 407.464 233.506 407.018 233.506C406.557 233.506 406.197 233.606 405.938 233.807C405.678 234.007 405.548 234.269 405.548 234.593C405.548 234.898 405.669 235.128 405.91 235.283C406.152 235.438 406.587 235.586 407.216 235.728C407.849 235.869 408.362 236.037 408.754 236.233C409.146 236.429 409.435 236.666 409.622 236.944C409.813 237.218 409.909 237.553 409.909 237.949C409.909 238.61 409.645 239.141 409.116 239.542C408.588 239.938 407.902 240.137 407.059 240.137C406.466 240.137 405.942 240.032 405.486 239.822C405.031 239.613 404.673 239.321 404.413 238.947C404.158 238.569 404.03 238.161 404.03 237.724H405.295C405.318 238.147 405.486 238.485 405.801 238.735C406.12 238.981 406.539 239.104 407.059 239.104C407.537 239.104 407.92 239.009 408.207 238.817C408.499 238.621 408.645 238.362 408.645 238.038Z"
      fill="black" />
  <path
      d="M411.066 95.5044C410.792 95.4679 410.541 95.6602 410.504 95.9339L409.91 100.394C409.873 100.668 410.065 100.92 410.339 100.956C410.613 100.993 410.864 100.8 410.901 100.527L411.43 96.5617L415.394 97.0904C415.668 97.1268 415.92 96.9345 415.956 96.6608C415.993 96.3871 415.8 96.1356 415.527 96.0991L411.066 95.5044ZM502.397 214.696L411.397 95.6963L410.603 96.3037L501.603 215.304L502.397 214.696Z"
      fill="black" />
</svg>
