<svg width="1920" height="1080" viewBox="0 0 1920 1080" fill="none" xmlns="http://www.w3.org/2000/svg">
<g clip-path="url(#clip0_1246_89)">
<path d="M1920 0H0V1080H1920V0Z" fill="url(#paint0_linear_1246_89)" fill-opacity="0.5"/>
<path d="M408.052 161.514C408.052 158.671 407.492 156.485 406.371 154.954C405.278 153.396 403.816 152.316 401.984 151.715C400.153 151.114 398.144 150.813 395.957 150.813H386.322V171.518H395.629C397.023 171.518 398.445 171.381 399.893 171.108C401.342 170.835 402.681 170.343 403.911 169.632C405.169 168.921 406.166 167.924 406.904 166.639C407.67 165.327 408.052 163.619 408.052 161.514ZM405.797 135.52C405.797 132.322 404.8 130.053 402.804 128.714C400.836 127.347 398.144 126.664 394.727 126.664H386.322V144.95H395.424C398.759 144.95 401.315 144.212 403.091 142.736C404.895 141.233 405.797 138.827 405.797 135.52ZM415.555 161.268C415.555 164.329 414.94 166.899 413.71 168.976C412.508 171.053 410.881 172.707 408.831 173.937C406.809 175.167 404.54 176.055 402.025 176.602C399.538 177.121 396.996 177.381 394.399 177.381H379.229V120.924H393.128C395.616 120.924 398.035 121.156 400.385 121.621C402.763 122.058 404.895 122.824 406.781 123.917C408.695 124.983 410.225 126.432 411.373 128.263C412.521 130.094 413.095 132.39 413.095 135.151C413.095 137.584 412.59 139.647 411.578 141.342C410.594 143.009 409.296 144.349 407.683 145.36C406.098 146.371 404.403 147.082 402.599 147.492C404.704 147.82 406.74 148.462 408.708 149.419C410.704 150.348 412.344 151.77 413.628 153.683C414.913 155.569 415.555 158.097 415.555 161.268ZM435.613 134.208V164.794C435.613 167.637 436.201 169.687 437.376 170.944C438.552 172.201 440.383 172.83 442.87 172.83C445.248 172.83 447.49 172.16 449.594 170.821C451.726 169.454 453.38 167.842 454.555 165.983V134.208H461.443V177.381H455.58L455.006 171.559C453.312 173.746 451.221 175.427 448.733 176.602C446.246 177.75 443.731 178.324 441.189 178.324C437.007 178.324 433.878 177.217 431.8 175.003C429.75 172.762 428.725 169.632 428.725 165.614V134.208H435.613ZM499.746 134.208V171.928H511.923V177.381H479.533V171.928H492.858V139.661H479.943V134.208H499.746ZM494.252 113.995C495.783 113.995 496.999 114.46 497.901 115.389C498.831 116.318 499.295 117.453 499.295 118.792C499.295 120.186 498.831 121.361 497.901 122.318C496.999 123.247 495.783 123.712 494.252 123.712C492.804 123.712 491.615 123.247 490.685 122.318C489.756 121.361 489.291 120.186 489.291 118.792C489.291 117.453 489.756 116.318 490.685 115.389C491.615 114.46 492.804 113.995 494.252 113.995ZM543.871 116.824V166.721C543.871 168.853 544.527 170.37 545.839 171.272C547.179 172.147 548.901 172.584 551.005 172.584C552.317 172.584 553.561 172.447 554.736 172.174C555.912 171.901 557.087 171.532 558.262 171.067L560.107 176.11C558.932 176.684 557.47 177.19 555.72 177.627C553.998 178.092 552.044 178.324 549.857 178.324C546.031 178.324 542.928 177.272 540.55 175.167C538.172 173.035 536.983 170.097 536.983 166.352V122.277H523.74V116.824H543.871ZM602.059 115.963L608.947 116.824V177.381H602.92L602.264 171.682C600.652 173.978 598.793 175.659 596.688 176.725C594.611 177.791 592.383 178.324 590.005 178.324C586.261 178.324 583.172 177.381 580.739 175.495C578.307 173.609 576.503 170.985 575.327 167.623C574.152 164.234 573.564 160.311 573.564 155.856C573.564 151.537 574.234 147.683 575.573 144.294C576.913 140.877 578.84 138.199 581.354 136.258C583.896 134.29 586.944 133.306 590.497 133.306C592.985 133.306 595.171 133.743 597.057 134.618C598.943 135.465 600.611 136.723 602.059 138.39V115.963ZM592.301 138.841C588.693 138.841 585.919 140.249 583.978 143.064C582.038 145.879 581.067 150.143 581.067 155.856C581.067 159.573 581.464 162.689 582.256 165.204C583.049 167.719 584.211 169.605 585.741 170.862C587.299 172.119 589.199 172.748 591.44 172.748C593.9 172.748 595.991 172.051 597.713 170.657C599.463 169.263 600.911 167.691 602.059 165.942V144.376C600.884 142.627 599.463 141.274 597.795 140.317C596.128 139.333 594.297 138.841 592.301 138.841ZM705.479 167.951C705.479 169.673 705.766 170.93 706.34 171.723C706.914 172.516 707.803 173.103 709.005 173.486L707.324 178.324C705.466 178.078 703.839 177.49 702.445 176.561C701.051 175.604 700.04 174.169 699.411 172.256C697.853 174.251 695.913 175.768 693.589 176.807C691.266 177.818 688.697 178.324 685.881 178.324C681.563 178.324 678.16 177.108 675.672 174.675C673.185 172.242 671.941 169.017 671.941 164.999C671.941 160.544 673.677 157.127 677.148 154.749C680.62 152.371 685.635 151.182 692.195 151.182H698.55V147.574C698.55 144.458 697.635 142.258 695.803 140.973C693.999 139.661 691.485 139.005 688.259 139.005C686.838 139.005 685.171 139.183 683.257 139.538C681.344 139.866 679.267 140.426 677.025 141.219L675.221 136.012C677.873 135.028 680.36 134.331 682.683 133.921C685.007 133.511 687.221 133.306 689.325 133.306C694.71 133.306 698.742 134.563 701.42 137.078C704.126 139.565 705.479 142.955 705.479 147.246V167.951ZM687.644 173.076C689.776 173.076 691.813 172.543 693.753 171.477C695.694 170.384 697.293 168.88 698.55 166.967V155.856H692.318C687.562 155.856 684.2 156.676 682.232 158.316C680.292 159.956 679.321 162.156 679.321 164.917C679.321 167.596 680.005 169.632 681.371 171.026C682.765 172.393 684.856 173.076 687.644 173.076ZM787.579 172.625C790.886 172.625 793.497 172.01 795.41 170.78C797.351 169.523 798.321 167.855 798.321 165.778C798.321 164.466 798.075 163.332 797.583 162.375C797.118 161.418 796.148 160.557 794.672 159.792C793.196 159.027 790.927 158.261 787.866 157.496C784.887 156.758 782.29 155.911 780.076 154.954C777.889 153.97 776.181 152.699 774.951 151.141C773.748 149.583 773.147 147.56 773.147 145.073C773.147 142.64 773.83 140.549 775.197 138.8C776.591 137.023 778.518 135.67 780.978 134.741C783.438 133.784 786.294 133.306 789.547 133.306C793.018 133.306 796.039 133.771 798.608 134.7C801.205 135.602 803.405 136.723 805.209 138.062L802.175 142.736C800.535 141.615 798.731 140.7 796.763 139.989C794.795 139.251 792.417 138.882 789.629 138.882C786.24 138.882 783.834 139.415 782.413 140.481C780.992 141.52 780.281 142.873 780.281 144.54C780.281 145.797 780.623 146.85 781.306 147.697C782.017 148.517 783.206 149.269 784.873 149.952C786.54 150.608 788.836 151.332 791.761 152.125C794.576 152.863 797.023 153.751 799.1 154.79C801.205 155.829 802.845 157.195 804.02 158.89C805.195 160.585 805.783 162.771 805.783 165.45C805.783 168.511 804.908 170.999 803.159 172.912C801.41 174.798 799.141 176.178 796.353 177.053C793.592 177.9 790.668 178.324 787.579 178.324C783.67 178.324 780.336 177.764 777.575 176.643C774.842 175.495 772.546 174.115 770.687 172.502L774.623 167.951C776.318 169.345 778.258 170.479 780.445 171.354C782.659 172.201 785.037 172.625 787.579 172.625ZM843.922 134.208V171.928H856.099V177.381H823.709V171.928H837.034V139.661H824.119V134.208H843.922ZM838.428 113.995C839.959 113.995 841.175 114.46 842.077 115.389C843.006 116.318 843.471 117.453 843.471 118.792C843.471 120.186 843.006 121.361 842.077 122.318C841.175 123.247 839.959 123.712 838.428 123.712C836.979 123.712 835.79 123.247 834.861 122.318C833.932 121.361 833.467 120.186 833.467 118.792C833.467 117.453 833.932 116.318 834.861 115.389C835.79 114.46 836.979 113.995 838.428 113.995ZM899.691 133.306C901.085 133.306 902.411 133.607 903.668 134.208C904.953 134.809 906.005 135.971 906.825 137.693C907.645 139.415 908.055 141.93 908.055 145.237V177.381H901.659V146.344C901.659 143.638 901.495 141.684 901.167 140.481C900.839 139.278 899.896 138.677 898.338 138.677C897.053 138.677 895.769 139.087 894.484 139.907C893.227 140.7 891.997 142.012 890.794 143.843V177.381H884.357V146.344C884.357 143.638 884.193 141.684 883.865 140.481C883.537 139.278 882.594 138.677 881.036 138.677C879.697 138.677 878.398 139.087 877.141 139.907C875.911 140.7 874.695 142.012 873.492 143.843V177.381H867.137V134.208H872.549L872.959 139.21C874.134 137.543 875.446 136.149 876.895 135.028C878.371 133.88 880.189 133.306 882.348 133.306C883.988 133.306 885.532 133.702 886.981 134.495C888.43 135.26 889.496 136.764 890.179 139.005C891.354 137.31 892.68 135.944 894.156 134.905C895.632 133.839 897.477 133.306 899.691 133.306ZM939.716 133.306C943.543 133.306 946.59 134.235 948.859 136.094C951.155 137.953 952.809 140.577 953.82 143.966C954.831 147.328 955.337 151.264 955.337 155.774C955.337 160.12 954.722 164.001 953.492 167.418C952.289 170.807 950.458 173.472 947.998 175.413C945.538 177.354 942.436 178.324 938.691 178.324C933.962 178.324 930.163 176.657 927.293 173.322V193.904L920.405 194.765V134.208H926.268L926.842 140.235C928.427 138.021 930.313 136.313 932.5 135.11C934.714 133.907 937.119 133.306 939.716 133.306ZM938.076 138.841C935.698 138.841 933.593 139.565 931.762 141.014C929.958 142.435 928.468 144.021 927.293 145.77V167.172C928.414 168.839 929.821 170.165 931.516 171.149C933.238 172.106 935.124 172.584 937.174 172.584C940.755 172.584 943.447 171.217 945.251 168.484C947.055 165.751 947.957 161.5 947.957 155.733C947.957 151.961 947.602 148.831 946.891 146.344C946.18 143.829 945.101 141.957 943.652 140.727C942.203 139.47 940.345 138.841 938.076 138.841ZM986.383 116.824V166.721C986.383 168.853 987.039 170.37 988.351 171.272C989.69 172.147 991.412 172.584 993.517 172.584C994.829 172.584 996.073 172.447 997.248 172.174C998.423 171.901 999.599 171.532 1000.77 171.067L1002.62 176.11C1001.44 176.684 999.981 177.19 998.232 177.627C996.51 178.092 994.556 178.324 992.369 178.324C988.542 178.324 985.44 177.272 983.062 175.167C980.684 173.035 979.495 170.097 979.495 166.352V122.277H966.252V116.824H986.383ZM1024.15 158.234C1024.29 161.569 1024.93 164.302 1026.08 166.434C1027.23 168.539 1028.75 170.097 1030.63 171.108C1032.52 172.092 1034.57 172.584 1036.78 172.584C1039 172.584 1040.99 172.256 1042.77 171.6C1044.57 170.944 1046.42 169.974 1048.3 168.689L1051.54 173.24C1049.52 174.825 1047.21 176.069 1044.61 176.971C1042.04 177.873 1039.41 178.324 1036.7 178.324C1032.52 178.324 1028.95 177.381 1026 175.495C1023.05 173.609 1020.79 170.985 1019.23 167.623C1017.7 164.234 1016.94 160.311 1016.94 155.856C1016.94 151.483 1017.72 147.601 1019.27 144.212C1020.83 140.823 1023.02 138.158 1025.83 136.217C1028.65 134.276 1031.97 133.306 1035.8 133.306C1039.43 133.306 1042.56 134.167 1045.19 135.889C1047.81 137.584 1049.82 140.016 1051.21 143.187C1052.63 146.33 1053.35 150.089 1053.35 154.462C1053.35 155.2 1053.33 155.897 1053.3 156.553C1053.28 157.182 1053.24 157.742 1053.18 158.234H1024.15ZM1035.88 138.964C1032.68 138.964 1030 140.098 1027.84 142.367C1025.71 144.636 1024.49 148.148 1024.19 152.904H1046.7C1046.62 148.285 1045.61 144.813 1043.67 142.49C1041.73 140.139 1039.13 138.964 1035.88 138.964ZM1136.59 172.379C1138.75 172.379 1140.76 172.024 1142.62 171.313C1144.51 170.602 1146.24 169.7 1147.83 168.607L1151.19 173.117C1149.3 174.73 1147.03 176.001 1144.38 176.93C1141.73 177.859 1139.13 178.324 1136.59 178.324C1132.3 178.324 1128.64 177.408 1125.6 175.577C1122.6 173.718 1120.3 171.122 1118.72 167.787C1117.13 164.425 1116.34 160.489 1116.34 155.979C1116.34 151.66 1117.13 147.793 1118.72 144.376C1120.33 140.932 1122.64 138.226 1125.65 136.258C1128.68 134.29 1132.36 133.306 1136.67 133.306C1139.44 133.306 1142.02 133.73 1144.42 134.577C1146.86 135.397 1149.08 136.641 1151.11 138.308L1147.74 142.9C1145.91 141.615 1144.07 140.659 1142.21 140.03C1140.38 139.374 1138.51 139.046 1136.59 139.046C1132.88 139.046 1129.81 140.44 1127.41 143.228C1125 146.016 1123.8 150.266 1123.8 155.979C1123.8 159.806 1124.35 162.935 1125.44 165.368C1126.56 167.773 1128.08 169.55 1129.99 170.698C1131.93 171.819 1134.13 172.379 1136.59 172.379ZM1173.13 116.168V140.112C1174.83 137.843 1176.9 136.149 1179.36 135.028C1181.85 133.88 1184.37 133.306 1186.91 133.306C1191.12 133.306 1194.19 134.427 1196.13 136.668C1198.07 138.909 1199.04 142.025 1199.04 146.016V177.381H1192.16V146.18C1192.16 143.583 1191.56 141.697 1190.35 140.522C1189.15 139.319 1187.26 138.718 1184.69 138.718C1183.05 138.718 1181.5 139.087 1180.02 139.825C1178.54 140.563 1177.22 141.479 1176.04 142.572C1174.87 143.665 1173.9 144.786 1173.13 145.934V177.381H1166.24V116.906L1173.13 116.168ZM1246.33 167.951C1246.33 169.673 1246.61 170.93 1247.19 171.723C1247.76 172.516 1248.65 173.103 1249.85 173.486L1248.17 178.324C1246.31 178.078 1244.69 177.49 1243.29 176.561C1241.9 175.604 1240.89 174.169 1240.26 172.256C1238.7 174.251 1236.76 175.768 1234.44 176.807C1232.11 177.818 1229.54 178.324 1226.73 178.324C1222.41 178.324 1219.01 177.108 1216.52 174.675C1214.03 172.242 1212.79 169.017 1212.79 164.999C1212.79 160.544 1214.52 157.127 1218 154.749C1221.47 152.371 1226.48 151.182 1233.04 151.182H1239.4V147.574C1239.4 144.458 1238.48 142.258 1236.65 140.973C1234.85 139.661 1232.33 139.005 1229.11 139.005C1227.69 139.005 1226.02 139.183 1224.1 139.538C1222.19 139.866 1220.11 140.426 1217.87 141.219L1216.07 136.012C1218.72 135.028 1221.21 134.331 1223.53 133.921C1225.85 133.511 1228.07 133.306 1230.17 133.306C1235.56 133.306 1239.59 134.563 1242.27 137.078C1244.97 139.565 1246.33 142.955 1246.33 147.246V167.951ZM1228.49 173.076C1230.62 173.076 1232.66 172.543 1234.6 171.477C1236.54 170.384 1238.14 168.88 1239.4 166.967V155.856H1233.17C1228.41 155.856 1225.05 156.676 1223.08 158.316C1221.14 159.956 1220.17 162.156 1220.17 164.917C1220.17 167.596 1220.85 169.632 1222.22 171.026C1223.61 172.393 1225.7 173.076 1228.49 173.076ZM1298.86 175.208C1297.38 176.192 1295.59 176.957 1293.49 177.504C1291.38 178.051 1289.32 178.324 1287.29 178.324C1282.65 178.324 1279.07 177.108 1276.55 174.675C1274.04 172.242 1272.78 169.113 1272.78 165.286V139.538H1262.86V134.208H1272.78V124.409L1279.67 123.589V134.208H1294.59L1293.77 139.538H1279.67V165.204C1279.67 167.609 1280.3 169.441 1281.55 170.698C1282.84 171.955 1284.96 172.584 1287.91 172.584C1289.52 172.584 1291.01 172.393 1292.38 172.01C1293.75 171.627 1295.02 171.135 1296.19 170.534L1298.86 175.208ZM1377.59 172.625C1380.9 172.625 1383.51 172.01 1385.43 170.78C1387.37 169.523 1388.34 167.855 1388.34 165.778C1388.34 164.466 1388.09 163.332 1387.6 162.375C1387.13 161.418 1386.16 160.557 1384.69 159.792C1383.21 159.027 1380.94 158.261 1377.88 157.496C1374.9 156.758 1372.31 155.911 1370.09 154.954C1367.91 153.97 1366.2 152.699 1364.97 151.141C1363.76 149.583 1363.16 147.56 1363.16 145.073C1363.16 142.64 1363.85 140.549 1365.21 138.8C1366.61 137.023 1368.53 135.67 1370.99 134.741C1373.45 133.784 1376.31 133.306 1379.56 133.306C1383.03 133.306 1386.05 133.771 1388.62 134.7C1391.22 135.602 1393.42 136.723 1395.22 138.062L1392.19 142.736C1390.55 141.615 1388.75 140.7 1386.78 139.989C1384.81 139.251 1382.43 138.882 1379.64 138.882C1376.26 138.882 1373.85 139.415 1372.43 140.481C1371.01 141.52 1370.3 142.873 1370.3 144.54C1370.3 145.797 1370.64 146.85 1371.32 147.697C1372.03 148.517 1373.22 149.269 1374.89 149.952C1376.56 150.608 1378.85 151.332 1381.78 152.125C1384.59 152.863 1387.04 153.751 1389.12 154.79C1391.22 155.829 1392.86 157.195 1394.04 158.89C1395.21 160.585 1395.8 162.771 1395.8 165.45C1395.8 168.511 1394.92 170.999 1393.17 172.912C1391.43 174.798 1389.16 176.178 1386.37 177.053C1383.61 177.9 1380.68 178.324 1377.59 178.324C1373.69 178.324 1370.35 177.764 1367.59 176.643C1364.86 175.495 1362.56 174.115 1360.7 172.502L1364.64 167.951C1366.33 169.345 1368.27 170.479 1370.46 171.354C1372.67 172.201 1375.05 172.625 1377.59 172.625ZM1417.5 158.234C1417.63 161.569 1418.28 164.302 1419.42 166.434C1420.57 168.539 1422.09 170.097 1423.97 171.108C1425.86 172.092 1427.91 172.584 1430.12 172.584C1432.34 172.584 1434.33 172.256 1436.11 171.6C1437.91 170.944 1439.76 169.974 1441.65 168.689L1444.88 173.24C1442.86 174.825 1440.55 176.069 1437.96 176.971C1435.39 177.873 1432.75 178.324 1430.04 178.324C1425.86 178.324 1422.29 177.381 1419.34 175.495C1416.39 173.609 1414.13 170.985 1412.58 167.623C1411.05 164.234 1410.28 160.311 1410.28 155.856C1410.28 151.483 1411.06 147.601 1412.62 144.212C1414.18 140.823 1416.36 138.158 1419.18 136.217C1421.99 134.276 1425.31 133.306 1429.14 133.306C1432.78 133.306 1435.91 134.167 1438.53 135.889C1441.15 137.584 1443.16 140.016 1444.56 143.187C1445.98 146.33 1446.69 150.089 1446.69 154.462C1446.69 155.2 1446.68 155.897 1446.65 156.553C1446.62 157.182 1446.58 157.742 1446.52 158.234H1417.5ZM1429.22 138.964C1426.02 138.964 1423.35 140.098 1421.19 142.367C1419.05 144.636 1417.84 148.148 1417.54 152.904H1440.05C1439.96 148.285 1438.95 144.813 1437.01 142.49C1435.07 140.139 1432.48 138.964 1429.22 138.964ZM1461.66 177.381V172.092H1468.39V139.497H1461.66V134.208H1473.63L1474.91 144.417C1476.57 140.864 1478.6 138.117 1480.97 136.176C1483.35 134.235 1486.5 133.265 1490.4 133.265C1491.61 133.265 1492.67 133.361 1493.6 133.552C1494.56 133.716 1495.53 133.935 1496.51 134.208L1494.5 140.358C1493.6 140.112 1492.78 139.934 1492.04 139.825C1491.31 139.688 1490.46 139.62 1489.5 139.62C1486.19 139.62 1483.35 140.795 1480.97 143.146C1478.6 145.497 1476.7 149.05 1475.27 153.806V172.092H1484.05V177.381H1461.66ZM1489.87 148.804V139.415L1490.57 134.208H1496.51L1495.53 148.804H1489.87ZM1546.42 134.208L1530.72 177.381H1522.72L1507.14 134.208H1514.44L1526.94 171.108L1539.28 134.208H1546.42ZM1565 158.234C1565.14 161.569 1565.78 164.302 1566.93 166.434C1568.08 168.539 1569.59 170.097 1571.48 171.108C1573.36 172.092 1575.41 172.584 1577.63 172.584C1579.84 172.584 1581.84 172.256 1583.61 171.6C1585.42 170.944 1587.26 169.974 1589.15 168.689L1592.39 173.24C1590.37 174.825 1588.06 176.069 1585.46 176.971C1582.89 177.873 1580.25 178.324 1577.55 178.324C1573.36 178.324 1569.8 177.381 1566.85 175.495C1563.89 173.609 1561.64 170.985 1560.08 167.623C1558.55 164.234 1557.78 160.311 1557.78 155.856C1557.78 151.483 1558.56 147.601 1560.12 144.212C1561.68 140.823 1563.87 138.158 1566.68 136.217C1569.5 134.276 1572.82 133.306 1576.64 133.306C1580.28 133.306 1583.41 134.167 1586.03 135.889C1588.66 137.584 1590.67 140.016 1592.06 143.187C1593.48 146.33 1594.19 150.089 1594.19 154.462C1594.19 155.2 1594.18 155.897 1594.15 156.553C1594.12 157.182 1594.08 157.742 1594.03 158.234H1565ZM1576.73 138.964C1573.53 138.964 1570.85 140.098 1568.69 142.367C1566.56 144.636 1565.34 148.148 1565.04 152.904H1587.55C1587.47 148.285 1586.46 144.813 1584.52 142.49C1582.58 140.139 1579.98 138.964 1576.73 138.964ZM1609.17 177.381V172.092H1615.89V139.497H1609.17V134.208H1621.14L1622.41 144.417C1624.08 140.864 1626.1 138.117 1628.48 136.176C1630.86 134.235 1634 133.265 1637.91 133.265C1639.11 133.265 1640.18 133.361 1641.11 133.552C1642.06 133.716 1643.03 133.935 1644.02 134.208L1642.01 140.358C1641.11 140.112 1640.29 139.934 1639.55 139.825C1638.81 139.688 1637.96 139.62 1637.01 139.62C1633.7 139.62 1630.86 140.795 1628.48 143.146C1626.1 145.497 1624.2 149.05 1622.78 153.806V172.092H1631.55V177.381H1609.17ZM1637.37 148.804V139.415L1638.07 134.208H1644.02L1643.03 148.804H1637.37Z" fill="#9CC1E4"/>
<path d="M867.506 283.848V321.568H879.683V327.021H847.293V321.568H860.618V289.301H847.703V283.848H867.506ZM862.012 263.635C863.543 263.635 864.759 264.1 865.661 265.029C866.59 265.958 867.055 267.093 867.055 268.432C867.055 269.826 866.59 271.001 865.661 271.958C864.759 272.887 863.543 273.352 862.012 273.352C860.563 273.352 859.374 272.887 858.445 271.958C857.516 271.001 857.051 269.826 857.051 268.432C857.051 267.093 857.516 265.958 858.445 265.029C859.374 264.1 860.563 263.635 862.012 263.635ZM894.821 327.021V283.848H900.684L901.217 289.834C902.966 287.62 905.153 285.925 907.777 284.75C910.428 283.547 912.998 282.946 915.485 282.946C919.722 282.946 922.797 284.067 924.71 286.308C926.651 288.549 927.621 291.665 927.621 295.656V327.021H920.733V300.74C920.733 297.788 920.569 295.41 920.241 293.606C919.913 291.775 919.23 290.449 918.191 289.629C917.152 288.782 915.54 288.358 913.353 288.358C911.658 288.358 910.059 288.727 908.556 289.465C907.08 290.203 905.754 291.132 904.579 292.253C903.431 293.346 902.474 294.453 901.709 295.574V327.021H894.821ZM1028.99 286.39C1028.99 289.205 1028.38 291.665 1027.15 293.77C1025.94 295.875 1024.3 297.61 1022.23 298.977C1020.15 300.344 1017.81 301.341 1015.22 301.97L1031.94 327.021H1023.42L1008 302.79H1000.37V327.021H993.239V270.564H1007.75C1014.72 270.564 1020 271.903 1023.58 274.582C1027.19 277.233 1028.99 281.169 1028.99 286.39ZM1021.37 286.39C1021.37 282.755 1020.33 280.158 1018.25 278.6C1016.17 277.015 1012.95 276.222 1008.57 276.222H1000.37V297.214H1008.57C1012.62 297.214 1015.76 296.394 1018 294.754C1020.24 293.087 1021.37 290.299 1021.37 286.39ZM1049.21 283.848V314.434C1049.21 317.277 1049.8 319.327 1050.98 320.584C1052.15 321.841 1053.98 322.47 1056.47 322.47C1058.85 322.47 1061.09 321.8 1063.19 320.461C1065.33 319.094 1066.98 317.482 1068.15 315.623V283.848H1075.04V327.021H1069.18L1068.61 321.199C1066.91 323.386 1064.82 325.067 1062.33 326.242C1059.85 327.39 1057.33 327.964 1054.79 327.964C1050.61 327.964 1047.48 326.857 1045.4 324.643C1043.35 322.402 1042.32 319.272 1042.32 315.254V283.848H1049.21ZM1106.17 322.265C1109.48 322.265 1112.09 321.65 1114 320.42C1115.94 319.163 1116.91 317.495 1116.91 315.418C1116.91 314.106 1116.67 312.972 1116.17 312.015C1115.71 311.058 1114.74 310.197 1113.26 309.432C1111.79 308.667 1109.52 307.901 1106.46 307.136C1103.48 306.398 1100.88 305.551 1098.67 304.594C1096.48 303.61 1094.77 302.339 1093.54 300.781C1092.34 299.223 1091.74 297.2 1091.74 294.713C1091.74 292.28 1092.42 290.189 1093.79 288.44C1095.18 286.663 1097.11 285.31 1099.57 284.381C1102.03 283.424 1104.89 282.946 1108.14 282.946C1111.61 282.946 1114.63 283.411 1117.2 284.34C1119.8 285.242 1122 286.363 1123.8 287.702L1120.77 292.376C1119.13 291.255 1117.32 290.34 1115.35 289.629C1113.39 288.891 1111.01 288.522 1108.22 288.522C1104.83 288.522 1102.43 289.055 1101 290.121C1099.58 291.16 1098.87 292.513 1098.87 294.18C1098.87 295.437 1099.21 296.49 1099.9 297.337C1100.61 298.157 1101.8 298.909 1103.46 299.592C1105.13 300.248 1107.43 300.972 1110.35 301.765C1113.17 302.503 1115.61 303.391 1117.69 304.43C1119.8 305.469 1121.44 306.835 1122.61 308.53C1123.79 310.225 1124.37 312.411 1124.37 315.09C1124.37 318.151 1123.5 320.639 1121.75 322.552C1120 324.438 1117.73 325.818 1114.94 326.693C1112.18 327.54 1109.26 327.964 1106.17 327.964C1102.26 327.964 1098.93 327.404 1096.17 326.283C1093.43 325.135 1091.14 323.755 1089.28 322.142L1093.21 317.591C1094.91 318.985 1096.85 320.119 1099.04 320.994C1101.25 321.841 1103.63 322.265 1106.17 322.265ZM1174.94 324.848C1173.46 325.832 1171.67 326.597 1169.57 327.144C1167.46 327.691 1165.4 327.964 1163.37 327.964C1158.73 327.964 1155.15 326.748 1152.63 324.315C1150.12 321.882 1148.86 318.753 1148.86 314.926V289.178H1138.94V283.848H1148.86V274.049L1155.75 273.229V283.848H1170.67L1169.85 289.178H1155.75V314.844C1155.75 317.249 1156.38 319.081 1157.63 320.338C1158.92 321.595 1161.04 322.224 1163.99 322.224C1165.6 322.224 1167.09 322.033 1168.46 321.65C1169.83 321.267 1171.1 320.775 1172.27 320.174L1174.94 324.848Z" fill="white"/>
<path d="M1760.21 814.149L1744.99 804.719C1744.86 803.235 1744.71 801.755 1744.56 800.281L1757.66 788.077C1758.99 786.836 1759.59 784.998 1759.23 783.223C1758.88 781.438 1757.63 779.968 1755.92 779.34L1739.18 773.099C1738.76 771.65 1738.32 770.211 1737.87 768.766L1748.3 754.273C1749.37 752.8 1749.59 750.883 1748.89 749.211C1748.2 747.537 1746.68 746.337 1744.91 746.043L1727.26 743.172C1726.57 741.834 1725.86 740.516 1725.14 739.219L1732.56 722.924C1733.32 721.267 1733.16 719.353 1732.15 717.828C1731.14 716.316 1729.43 715.432 1727.6 715.501L1709.68 716.125C1708.75 714.967 1707.81 713.82 1706.85 712.693L1710.98 695.254C1711.39 693.482 1710.87 691.613 1709.58 690.331C1708.3 689.048 1706.44 688.517 1704.66 688.933L1687.22 693.059C1686.09 692.102 1684.94 691.156 1683.78 690.23L1684.41 672.306C1684.47 670.492 1683.59 668.769 1682.08 667.764C1680.56 666.751 1678.65 666.599 1676.98 667.351L1660.72 674.771C1659.41 674.049 1658.09 673.335 1656.77 672.645L1653.89 654.998C1653.6 653.209 1652.4 651.69 1650.72 651.011C1649.05 650.314 1647.12 650.539 1645.66 651.6L1631.17 662.036C1629.74 661.582 1628.3 661.145 1626.87 660.729L1620.63 643.983C1619.99 642.277 1618.52 641.026 1616.75 640.672C1614.96 640.322 1613.14 640.915 1611.89 642.239L1599.69 655.345C1598.21 655.182 1596.73 655.033 1595.25 654.911L1585.82 639.656C1584.87 638.114 1583.18 637.174 1581.35 637.174C1579.52 637.174 1577.85 638.114 1576.91 639.656L1567.48 654.911C1566 655.033 1564.51 655.182 1563.04 655.345L1550.84 642.239C1549.6 640.915 1547.76 640.322 1545.98 640.672C1544.2 641.029 1542.73 642.277 1542.1 643.983L1535.86 660.729C1534.41 661.145 1532.98 661.585 1531.56 662.036L1517.07 651.6C1515.59 650.536 1513.67 650.311 1512.01 651.011C1510.33 651.704 1509.13 653.223 1508.84 654.998L1505.96 672.645C1504.63 673.335 1503.31 674.046 1502.01 674.771L1485.75 667.351C1484.09 666.595 1482.18 666.751 1480.65 667.764C1479.14 668.769 1478.25 670.492 1478.32 672.306L1478.95 690.23C1477.79 691.156 1476.64 692.102 1475.51 693.059L1458.07 688.933C1456.3 688.521 1454.43 689.048 1453.15 690.331C1451.86 691.617 1451.33 693.472 1451.75 695.254L1455.84 712.693C1454.89 713.823 1453.94 714.967 1453.02 716.125L1435.09 715.501C1433.29 715.449 1431.56 716.316 1430.55 717.828C1429.54 719.332 1429.39 721.26 1430.14 722.924L1437.56 739.219C1436.84 740.527 1436.12 741.844 1435.43 743.172L1417.79 746.043C1415.99 746.334 1414.48 747.533 1413.8 749.211C1413.1 750.893 1413.33 752.817 1414.39 754.273L1424.82 768.766C1424.37 770.198 1423.93 771.636 1423.51 773.099L1406.77 779.34C1405.07 779.975 1403.82 781.445 1403.46 783.223C1403.11 785.005 1403.7 786.829 1405.03 788.077L1418.14 800.281C1417.97 801.755 1417.83 803.238 1417.7 804.719L1402.48 814.149C1400.94 815.103 1400 816.788 1400 818.622C1400 820.456 1400.94 822.123 1402.48 823.06L1417.7 832.49C1417.83 833.974 1417.97 835.454 1418.14 836.928L1405.03 849.132C1403.7 850.369 1403.11 852.207 1403.46 853.986C1403.82 855.771 1405.07 857.238 1406.77 857.869L1423.51 864.109C1423.93 865.559 1424.37 866.997 1424.82 868.443L1414.39 882.935C1413.33 884.412 1413.1 886.33 1413.8 887.997C1414.5 889.679 1416.01 890.878 1417.82 891.166L1435.47 894.037C1436.16 895.375 1436.87 896.693 1437.59 897.989L1430.17 914.25C1429.42 915.904 1429.57 917.821 1430.59 919.346C1431.6 920.861 1433.32 921.745 1435.13 921.673L1453.02 921.045C1453.95 922.21 1454.89 923.351 1455.85 924.484L1451.76 941.924C1451.34 943.692 1451.86 945.529 1453.15 946.812C1454.43 948.105 1456.29 948.622 1458.08 948.206L1475.52 944.115C1476.65 945.079 1477.8 946.015 1478.95 946.937L1478.33 964.862C1478.26 966.675 1479.15 968.398 1480.66 969.403C1482.16 970.412 1484.09 970.565 1485.75 969.809L1502.01 962.39C1503.33 963.118 1504.64 963.825 1505.97 964.515L1508.84 982.162C1509.14 983.958 1510.33 985.477 1512.01 986.184C1513.69 986.881 1515.62 986.656 1517.07 985.598L1531.57 975.162C1533 975.616 1534.44 976.06 1535.9 976.476L1542.14 993.222C1542.78 994.921 1544.25 996.179 1546.03 996.526C1547.81 996.887 1549.63 996.29 1550.88 994.959L1563.08 981.854C1564.56 982.024 1566.04 982.166 1567.52 982.297L1576.95 997.518C1577.9 999.054 1579.59 1000 1581.39 1000C1583.19 1000 1584.89 999.057 1585.86 997.518L1595.29 982.297C1596.78 982.166 1598.26 982.024 1599.73 981.854L1611.93 994.959C1613.17 996.29 1615.01 996.887 1616.79 996.526C1618.57 996.176 1620.04 994.921 1620.67 993.222L1626.91 976.476C1628.36 976.06 1629.8 975.616 1631.24 975.162L1645.74 985.598C1647.21 986.656 1649.13 986.881 1650.8 986.184C1652.48 985.494 1653.68 983.972 1653.97 982.162L1656.85 964.515C1658.18 963.825 1659.49 963.107 1660.8 962.39L1677.06 969.809C1678.71 970.565 1680.63 970.412 1682.16 969.403C1683.67 968.391 1684.55 966.675 1684.48 964.862L1683.86 946.937C1685.02 946.011 1686.16 945.079 1687.29 944.115L1704.73 948.206C1706.5 948.622 1708.37 948.105 1709.66 946.812C1710.95 945.526 1711.47 943.678 1711.05 941.924L1706.96 924.484C1707.92 923.351 1708.86 922.21 1709.78 921.045L1727.71 921.673C1729.52 921.745 1731.25 920.861 1732.25 919.346C1733.26 917.835 1733.42 915.91 1732.66 914.25L1725.24 897.989C1725.96 896.675 1726.68 895.358 1727.36 894.037L1745.01 891.166C1746.81 890.878 1748.32 889.679 1749 887.997C1749.69 886.323 1749.47 884.392 1748.41 882.935L1737.97 868.443C1738.42 867.011 1738.86 865.572 1739.28 864.109L1756.03 857.869C1757.73 857.231 1758.99 855.764 1759.33 853.986C1759.69 852.204 1759.1 850.38 1757.76 849.132L1744.66 836.928C1744.82 835.454 1744.96 833.97 1745.09 832.49L1760.31 823.06C1761.85 822.11 1762.8 820.421 1762.8 818.622C1762.8 816.822 1761.86 815.12 1760.32 814.149H1760.21ZM1658.28 940.696C1652.45 939.441 1648.78 933.693 1650.03 927.868C1651.27 922.044 1656.99 918.334 1662.82 919.582C1668.64 920.827 1672.35 926.585 1671.11 932.41C1669.86 938.235 1664.14 941.944 1658.31 940.696H1658.28ZM1653.11 905.679C1647.81 904.542 1642.57 907.919 1641.46 913.237L1636.05 938.477C1619.38 946.036 1600.69 950.265 1581.27 950.265C1561.3 950.265 1542.44 945.862 1525.45 937.957L1520.05 912.717C1518.91 907.413 1513.7 904.015 1508.4 905.159L1486.1 909.944C1481.98 905.679 1478.13 901.137 1474.59 896.353H1583.11C1584.34 896.353 1585.16 896.131 1585.16 895.015V856.53C1585.16 855.414 1584.34 855.192 1583.11 855.192H1551.39V830.888H1585.68C1588.81 830.888 1602.42 831.783 1606.76 849.194C1608.12 854.533 1611.13 871.938 1613.17 877.52C1615.21 883.761 1623.5 896.242 1632.34 896.242H1686.43C1687.04 896.242 1687.7 896.173 1688.39 896.048C1684.64 901.144 1680.52 905.964 1676.11 910.471L1653.3 905.582L1653.11 905.679ZM1502.99 940.176C1497.16 941.431 1491.44 937.722 1490.19 931.89C1488.95 926.065 1492.65 920.31 1498.48 919.062C1504.31 917.817 1510.03 921.527 1511.28 927.348C1512.52 933.173 1508.82 938.928 1502.99 940.176ZM1461.73 773.411C1464.14 778.855 1461.69 785.234 1456.25 787.661C1450.81 790.078 1444.46 787.619 1442.04 782.183C1439.61 776.747 1442.08 770.36 1447.52 767.934C1452.96 765.52 1459.3 767.975 1461.73 773.411ZM1449.08 803.367L1472.31 793.035C1477.26 790.833 1479.52 785.026 1477.3 780.068L1472.51 769.251H1491.31V853.847H1453.51C1450.22 842.267 1448.45 830.063 1448.45 817.443C1448.45 812.624 1448.71 807.874 1449.21 803.193L1449.08 803.367ZM1551.01 795.15V770.187H1595.73C1598.04 770.187 1612.06 772.86 1612.06 783.327C1612.06 792.029 1601.31 795.15 1592.47 795.15H1550.87H1551.01ZM1713.61 817.616C1713.61 820.931 1713.49 824.204 1713.25 827.463H1699.62C1698.26 827.463 1697.71 828.357 1697.71 829.692V835.933C1697.71 850.633 1689.43 853.857 1682.15 854.655C1675.21 855.435 1667.55 851.756 1666.61 847.513C1662.52 824.526 1655.73 819.638 1644.98 811.109C1658.33 802.649 1672.19 790.133 1672.19 773.318C1672.19 755.255 1659.82 743.883 1651.39 738.301C1639.53 730.5 1626.43 728.94 1622.89 728.94H1482.13C1501.23 707.652 1527.2 692.536 1556.33 686.988L1572.93 704.393C1576.68 708.311 1582.88 708.484 1586.84 704.712L1605.42 686.961C1644.25 694.207 1677.19 718.407 1696.26 751.794L1683.53 780.502C1681.34 785.459 1683.58 791.284 1688.52 793.468L1713 804.355C1713.42 808.689 1713.65 813.092 1713.65 817.53L1713.61 817.616ZM1572.85 672.347C1577.15 668.221 1583.98 668.395 1588.07 672.697C1592.16 676.996 1592.02 683.826 1587.71 687.952C1583.41 692.078 1576.58 691.905 1572.49 687.599C1568.4 683.3 1568.54 676.469 1572.85 672.344V672.347ZM1699.05 773.932C1701.46 768.488 1707.82 766.027 1713.27 768.454C1718.71 770.867 1721.17 777.26 1718.74 782.703C1716.33 788.146 1709.97 790.608 1704.53 788.181C1699.08 785.768 1696.62 779.375 1699.05 773.932Z" fill="url(#paint1_linear_1246_89)"/>
<path d="M321.035 691.08C344.435 694.72 368.355 694.72 391.755 691.08C382.915 673.92 371.475 663 356.395 663C339.235 663 328.315 677.04 321.035 691.08Z" fill="url(#paint2_linear_1246_89)"/>
<path d="M294 782.6H242C243.56 814.32 258.12 842.92 280.48 862.68C289.32 859.56 297.64 857.48 306.48 855.4C298.68 834.6 294.52 808.08 294 782.6Z" fill="url(#paint3_linear_1246_89)"/>
<path d="M294 772.2C294.52 744.64 298.68 719.16 306.48 698.88C297.64 696.8 289.32 694.72 280.48 691.6C258.12 711.88 243.56 740.48 242 772.2H294Z" fill="url(#paint4_linear_1246_89)"/>
<path d="M388.129 667.68C393.329 673.4 398.529 681.2 402.169 689.52C408.929 687.96 415.689 686.4 422.449 684.32C412.049 676.52 400.609 671.32 388.129 667.68Z" fill="url(#paint5_linear_1246_89)"/>
<path d="M356.398 704.6C343.398 704.6 329.878 703.56 316.878 700.96C309.078 720.2 304.918 745.16 304.398 772.2H408.398C407.878 746.2 403.718 720.72 395.918 700.96C382.918 703.56 369.398 704.6 356.398 704.6Z" fill="url(#paint6_linear_1246_89)"/>
<path d="M432.328 692.121C423.488 695.241 415.168 697.321 406.328 699.401C414.128 720.201 418.288 746.721 418.808 772.201H470.808C469.248 740.481 454.688 711.881 432.328 692.121Z" fill="url(#paint7_linear_1246_89)"/>
<path d="M310.643 865.8C303.883 867.36 297.123 868.92 290.363 871C300.763 878.28 312.203 884 324.683 887.64C319.483 881.4 314.803 874.12 310.643 865.8Z" fill="url(#paint8_linear_1246_89)"/>
<path d="M310.643 689C314.803 680.68 319.483 673.4 324.683 667.68C312.203 671.32 300.763 677.04 290.363 684.32C297.123 685.88 303.883 687.96 310.643 689Z" fill="url(#paint9_linear_1246_89)"/>
<path d="M377.195 861.64C358.475 860.08 339.755 860.6 321.035 863.72C329.355 880.88 341.315 891.8 356.395 891.8C364.715 891.8 371.475 888.68 377.195 883.48V861.64Z" fill="url(#paint10_linear_1246_89)"/>
<path d="M377.198 798.2H407.358C407.878 793 407.878 787.8 407.878 782.6H304.398C304.918 808.6 309.078 834.08 316.878 853.84C337.158 850.2 356.918 849.68 377.198 851.24V798.2Z" fill="url(#paint11_linear_1246_89)"/>
<path d="M468.713 798.2C469.753 793 470.273 787.8 470.273 782.6H418.793C418.793 787.8 418.273 793 418.273 798.2H468.713Z" fill="url(#paint12_linear_1246_89)"/>
<path d="M387.602 808.6V871H554.002V808.6H387.602ZM408.402 860.6H398.002V819H408.402V860.6ZM429.202 860.6H418.802V819H429.202V860.6ZM450.002 860.6H439.602V819H450.002V860.6ZM502.002 829.4H491.602V819H502.002V829.4ZM522.802 829.4H512.402V819H522.802V829.4ZM543.602 829.4H533.202V819H543.602V829.4Z" fill="url(#paint13_linear_1246_89)"/>
<path d="M554 943.8V881.4H387.6V943.8H465.6V964.6H242V975H554V964.6H476V943.8H554ZM533.2 891.8H543.6V902.2H533.2V891.8ZM512.4 891.8H522.8V902.2H512.4V891.8ZM491.6 891.8H502V902.2H491.6V891.8ZM408.4 933.4H398V891.8H408.4V933.4ZM429.2 933.4H418.8V891.8H429.2V933.4ZM450 933.4H439.6V891.8H450V933.4Z" fill="url(#paint14_linear_1246_89)"/>
</g>
<defs>
<linearGradient id="paint0_linear_1246_89" x1="960" y1="0" x2="960" y2="1080" gradientUnits="userSpaceOnUse">
<stop stop-color="#323232"/>
<stop offset="1"/>
</linearGradient>
<linearGradient id="paint1_linear_1246_89" x1="1581.4" y1="637.174" x2="1581.4" y2="1000" gradientUnits="userSpaceOnUse">
<stop stop-color="#B32BD5"/>
<stop offset="1" stop-color="#DA3C8E"/>
</linearGradient>
<linearGradient id="paint2_linear_1246_89" x1="356.395" y1="663" x2="356.395" y2="693.81" gradientUnits="userSpaceOnUse">
<stop stop-color="#B32BD5"/>
<stop offset="1" stop-color="#DA3C8E"/>
</linearGradient>
<linearGradient id="paint3_linear_1246_89" x1="274.24" y1="782.6" x2="274.24" y2="862.68" gradientUnits="userSpaceOnUse">
<stop stop-color="#B32BD5"/>
<stop offset="1" stop-color="#DA3C8E"/>
</linearGradient>
<linearGradient id="paint4_linear_1246_89" x1="274.24" y1="691.6" x2="274.24" y2="772.2" gradientUnits="userSpaceOnUse">
<stop stop-color="#B32BD5"/>
<stop offset="1" stop-color="#DA3C8E"/>
</linearGradient>
<linearGradient id="paint5_linear_1246_89" x1="405.289" y1="667.68" x2="405.289" y2="689.52" gradientUnits="userSpaceOnUse">
<stop stop-color="#B32BD5"/>
<stop offset="1" stop-color="#DA3C8E"/>
</linearGradient>
<linearGradient id="paint6_linear_1246_89" x1="356.399" y1="700.96" x2="356.399" y2="772.2" gradientUnits="userSpaceOnUse">
<stop stop-color="#B32BD5"/>
<stop offset="1" stop-color="#DA3C8E"/>
</linearGradient>
<linearGradient id="paint7_linear_1246_89" x1="438.568" y1="692.121" x2="438.568" y2="772.201" gradientUnits="userSpaceOnUse">
<stop stop-color="#B32BD5"/>
<stop offset="1" stop-color="#DA3C8E"/>
</linearGradient>
<linearGradient id="paint8_linear_1246_89" x1="307.523" y1="865.8" x2="307.523" y2="887.64" gradientUnits="userSpaceOnUse">
<stop stop-color="#B32BD5"/>
<stop offset="1" stop-color="#DA3C8E"/>
</linearGradient>
<linearGradient id="paint9_linear_1246_89" x1="307.523" y1="667.68" x2="307.523" y2="689" gradientUnits="userSpaceOnUse">
<stop stop-color="#B32BD5"/>
<stop offset="1" stop-color="#DA3C8E"/>
</linearGradient>
<linearGradient id="paint10_linear_1246_89" x1="349.115" y1="860.788" x2="349.115" y2="891.8" gradientUnits="userSpaceOnUse">
<stop stop-color="#B32BD5"/>
<stop offset="1" stop-color="#DA3C8E"/>
</linearGradient>
<linearGradient id="paint11_linear_1246_89" x1="356.139" y1="782.6" x2="356.139" y2="853.84" gradientUnits="userSpaceOnUse">
<stop stop-color="#B32BD5"/>
<stop offset="1" stop-color="#DA3C8E"/>
</linearGradient>
<linearGradient id="paint12_linear_1246_89" x1="444.274" y1="782.6" x2="444.274" y2="798.2" gradientUnits="userSpaceOnUse">
<stop stop-color="#B32BD5"/>
<stop offset="1" stop-color="#DA3C8E"/>
</linearGradient>
<linearGradient id="paint13_linear_1246_89" x1="470.802" y1="808.6" x2="470.802" y2="871" gradientUnits="userSpaceOnUse">
<stop stop-color="#B32BD5"/>
<stop offset="1" stop-color="#DA3C8E"/>
</linearGradient>
<linearGradient id="paint14_linear_1246_89" x1="398" y1="881.4" x2="398" y2="975" gradientUnits="userSpaceOnUse">
<stop stop-color="#B32BD5"/>
<stop offset="1" stop-color="#DA3C8E"/>
</linearGradient>
<clipPath id="clip0_1246_89">
<rect width="1920" height="1080" fill="white"/>
</clipPath>
</defs>
</svg>
