<svg width="1920" height="1080" viewBox="0 0 1920 1080" fill="none" xmlns="http://www.w3.org/2000/svg">
<g clip-path="url(#clip0_1224_2)">
<path d="M1920 0H0V1080H1920V0Z" fill="url(#paint0_linear_1224_2)" fill-opacity="0.5"/>
<path d="M567.779 178.324C563.324 178.324 559.443 177.244 556.135 175.085C552.855 172.926 550.313 169.687 548.509 165.368C546.705 161.049 545.803 155.637 545.803 149.132C545.803 144.267 546.446 140.016 547.73 136.381C549.042 132.746 550.805 129.712 553.019 127.279C555.261 124.846 557.789 123.029 560.604 121.826C563.447 120.623 566.385 120.022 569.419 120.022C573.109 120.022 576.171 120.555 578.603 121.621C581.036 122.66 583.359 124.19 585.573 126.213L581.268 130.682C579.546 129.069 577.729 127.88 575.815 127.115C573.929 126.35 571.811 125.967 569.46 125.967C567.41 125.967 565.429 126.363 563.515 127.156C561.602 127.949 559.88 129.247 558.349 131.051C556.846 132.828 555.643 135.192 554.741 138.144C553.867 141.096 553.429 144.759 553.429 149.132C553.429 154.571 553.99 158.999 555.11 162.416C556.258 165.833 557.939 168.347 560.153 169.96C562.395 171.545 565.155 172.338 568.435 172.338C570.403 172.338 572.262 172.106 574.011 171.641C575.788 171.176 577.51 170.507 579.177 169.632V152.412H568.066L567.205 146.508H586.229V173.404C583.687 174.771 580.981 175.932 578.111 176.889C575.241 177.846 571.797 178.324 567.779 178.324ZM606.369 134.208V164.794C606.369 167.637 606.957 169.687 608.132 170.944C609.308 172.201 611.139 172.83 613.626 172.83C616.004 172.83 618.246 172.16 620.35 170.821C622.482 169.454 624.136 167.842 625.311 165.983V134.208H632.199V177.381H626.336L625.762 171.559C624.068 173.746 621.977 175.427 619.489 176.602C617.002 177.75 614.487 178.324 611.945 178.324C607.763 178.324 604.634 177.217 602.556 175.003C600.506 172.762 599.481 169.632 599.481 165.614V134.208H606.369ZM670.502 134.208V171.928H682.679V177.381H650.289V171.928H663.614V139.661H650.699V134.208H670.502ZM665.008 113.995C666.539 113.995 667.755 114.46 668.657 115.389C669.587 116.318 670.051 117.453 670.051 118.792C670.051 120.186 669.587 121.361 668.657 122.318C667.755 123.247 666.539 123.712 665.008 123.712C663.56 123.712 662.371 123.247 661.441 122.318C660.512 121.361 660.047 120.186 660.047 118.792C660.047 117.453 660.512 116.318 661.441 115.389C662.371 114.46 663.56 113.995 665.008 113.995ZM723.647 115.963L730.535 116.824V177.381H724.508L723.852 171.682C722.24 173.978 720.381 175.659 718.276 176.725C716.199 177.791 713.971 178.324 711.593 178.324C707.849 178.324 704.76 177.381 702.327 175.495C699.895 173.609 698.091 170.985 696.915 167.623C695.74 164.234 695.152 160.311 695.152 155.856C695.152 151.537 695.822 147.683 697.161 144.294C698.501 140.877 700.428 138.199 702.942 136.258C705.484 134.29 708.532 133.306 712.085 133.306C714.573 133.306 716.759 133.743 718.645 134.618C720.531 135.465 722.199 136.723 723.647 138.39V115.963ZM713.889 138.841C710.281 138.841 707.507 140.249 705.566 143.064C703.626 145.879 702.655 150.143 702.655 155.856C702.655 159.573 703.052 162.689 703.844 165.204C704.637 167.719 705.799 169.605 707.329 170.862C708.887 172.119 710.787 172.748 713.028 172.748C715.488 172.748 717.579 172.051 719.301 170.657C721.051 169.263 722.499 167.691 723.647 165.942V144.376C722.472 142.627 721.051 141.274 719.383 140.317C717.716 139.333 715.885 138.841 713.889 138.841ZM752.397 158.234C752.534 161.569 753.176 164.302 754.324 166.434C755.472 168.539 756.989 170.097 758.875 171.108C760.761 172.092 762.811 172.584 765.025 172.584C767.239 172.584 769.234 172.256 771.011 171.6C772.815 170.944 774.66 169.974 776.546 168.689L779.785 173.24C777.762 174.825 775.453 176.069 772.856 176.971C770.287 177.873 767.649 178.324 764.943 178.324C760.761 178.324 757.194 177.381 754.242 175.495C751.29 173.609 749.035 170.985 747.477 167.623C745.946 164.234 745.181 160.311 745.181 155.856C745.181 151.483 745.96 147.601 747.518 144.212C749.076 140.823 751.263 138.158 754.078 136.217C756.893 134.276 760.214 133.306 764.041 133.306C767.676 133.306 770.806 134.167 773.43 135.889C776.054 137.584 778.063 140.016 779.457 143.187C780.878 146.33 781.589 150.089 781.589 154.462C781.589 155.2 781.575 155.897 781.548 156.553C781.521 157.182 781.48 157.742 781.425 158.234H752.397ZM764.123 138.964C760.925 138.964 758.246 140.098 756.087 142.367C753.955 144.636 752.739 148.148 752.438 152.904H774.947C774.865 148.285 773.854 144.813 771.913 142.49C769.972 140.139 767.376 138.964 764.123 138.964ZM879.597 175.208C878.121 176.192 876.331 176.957 874.226 177.504C872.121 178.051 870.058 178.324 868.035 178.324C863.388 178.324 859.808 177.108 857.293 174.675C854.778 172.242 853.521 169.113 853.521 165.286V139.538H843.599V134.208H853.521V124.409L860.409 123.589V134.208H875.333L874.513 139.538H860.409V165.204C860.409 167.609 861.038 169.441 862.295 170.698C863.58 171.955 865.698 172.584 868.65 172.584C870.263 172.584 871.752 172.393 873.119 172.01C874.486 171.627 875.757 171.135 876.932 170.534L879.597 175.208ZM910.93 133.306C915.003 133.306 918.406 134.235 921.139 136.094C923.9 137.925 925.963 140.522 927.33 143.884C928.724 147.246 929.421 151.209 929.421 155.774C929.421 160.175 928.71 164.07 927.289 167.459C925.868 170.848 923.777 173.513 921.016 175.454C918.283 177.367 914.893 178.324 910.848 178.324C906.803 178.324 903.4 177.395 900.639 175.536C897.878 173.677 895.787 171.067 894.366 167.705C892.972 164.316 892.275 160.366 892.275 155.856C892.275 151.401 892.986 147.478 894.407 144.089C895.828 140.7 897.919 138.062 900.68 136.176C903.468 134.263 906.885 133.306 910.93 133.306ZM910.93 138.923C907.213 138.923 904.397 140.303 902.484 143.064C900.598 145.797 899.655 150.061 899.655 155.856C899.655 161.541 900.584 165.764 902.443 168.525C904.329 171.286 907.131 172.666 910.848 172.666C914.565 172.666 917.353 171.286 919.212 168.525C921.098 165.764 922.041 161.514 922.041 155.774C922.041 150.034 921.112 145.797 919.253 143.064C917.394 140.303 914.62 138.923 910.93 138.923ZM1012.34 172.379C1014.5 172.379 1016.51 172.024 1018.37 171.313C1020.25 170.602 1021.99 169.7 1023.57 168.607L1026.94 173.117C1025.05 174.73 1022.78 176.001 1020.13 176.93C1017.48 177.859 1014.88 178.324 1012.34 178.324C1008.05 178.324 1004.39 177.408 1001.35 175.577C998.346 173.718 996.05 171.122 994.465 167.787C992.88 164.425 992.087 160.489 992.087 155.979C992.087 151.66 992.88 147.793 994.465 144.376C996.078 140.932 998.387 138.226 1001.39 136.258C1004.43 134.29 1008.1 133.306 1012.42 133.306C1015.18 133.306 1017.77 133.73 1020.17 134.577C1022.6 135.397 1024.83 136.641 1026.85 138.308L1023.49 142.9C1021.66 141.615 1019.82 140.659 1017.96 140.03C1016.13 139.374 1014.25 139.046 1012.34 139.046C1008.62 139.046 1005.56 140.44 1003.16 143.228C1000.75 146.016 999.549 150.266 999.549 155.979C999.549 159.806 1000.1 162.935 1001.19 165.368C1002.31 167.773 1003.83 169.55 1005.74 170.698C1007.68 171.819 1009.88 172.379 1012.34 172.379ZM1042.4 177.381V172.092H1049.13V139.497H1042.4V134.208H1054.37L1055.65 144.417C1057.31 140.864 1059.34 138.117 1061.71 136.176C1064.09 134.235 1067.24 133.265 1071.14 133.265C1072.35 133.265 1073.41 133.361 1074.34 133.552C1075.3 133.716 1076.27 133.935 1077.25 134.208L1075.24 140.358C1074.34 140.112 1073.52 139.934 1072.78 139.825C1072.05 139.688 1071.2 139.62 1070.24 139.62C1066.93 139.62 1064.09 140.795 1061.71 143.146C1059.34 145.497 1057.44 149.05 1056.01 153.806V172.092H1064.79V177.381H1042.4ZM1070.61 148.804V139.415L1071.31 134.208H1077.25L1076.27 148.804H1070.61ZM1096.57 158.234C1096.71 161.569 1097.35 164.302 1098.5 166.434C1099.65 168.539 1101.16 170.097 1103.05 171.108C1104.94 172.092 1106.99 172.584 1109.2 172.584C1111.41 172.584 1113.41 172.256 1115.19 171.6C1116.99 170.944 1118.84 169.974 1120.72 168.689L1123.96 173.24C1121.94 174.825 1119.63 176.069 1117.03 176.971C1114.46 177.873 1111.82 178.324 1109.12 178.324C1104.94 178.324 1101.37 177.381 1098.42 175.495C1095.47 173.609 1093.21 170.985 1091.65 167.623C1090.12 164.234 1089.36 160.311 1089.36 155.856C1089.36 151.483 1090.14 147.601 1091.69 144.212C1093.25 140.823 1095.44 138.158 1098.25 136.217C1101.07 134.276 1104.39 133.306 1108.22 133.306C1111.85 133.306 1114.98 134.167 1117.61 135.889C1120.23 137.584 1122.24 140.016 1123.63 143.187C1125.05 146.33 1125.76 150.089 1125.76 154.462C1125.76 155.2 1125.75 155.897 1125.72 156.553C1125.7 157.182 1125.66 157.742 1125.6 158.234H1096.57ZM1108.3 138.964C1105.1 138.964 1102.42 140.098 1100.26 142.367C1098.13 144.636 1096.91 148.148 1096.61 152.904H1119.12C1119.04 148.285 1118.03 144.813 1116.09 142.49C1114.15 140.139 1111.55 138.964 1108.3 138.964ZM1171.24 167.951C1171.24 169.673 1171.53 170.93 1172.1 171.723C1172.68 172.516 1173.57 173.103 1174.77 173.486L1173.09 178.324C1171.23 178.078 1169.6 177.49 1168.21 176.561C1166.81 175.604 1165.8 174.169 1165.17 172.256C1163.62 174.251 1161.68 175.768 1159.35 176.807C1157.03 177.818 1154.46 178.324 1151.64 178.324C1147.33 178.324 1143.92 177.108 1141.44 174.675C1138.95 172.242 1137.7 169.017 1137.7 164.999C1137.7 160.544 1139.44 157.127 1142.91 154.749C1146.38 152.371 1151.4 151.182 1157.96 151.182H1164.31V147.574C1164.31 144.458 1163.4 142.258 1161.57 140.973C1159.76 139.661 1157.25 139.005 1154.02 139.005C1152.6 139.005 1150.93 139.183 1149.02 139.538C1147.11 139.866 1145.03 140.426 1142.79 141.219L1140.98 136.012C1143.64 135.028 1146.12 134.331 1148.45 133.921C1150.77 133.511 1152.98 133.306 1155.09 133.306C1160.47 133.306 1164.51 134.563 1167.18 137.078C1169.89 139.565 1171.24 142.955 1171.24 147.246V167.951ZM1153.41 173.076C1155.54 173.076 1157.58 172.543 1159.52 171.477C1161.46 170.384 1163.06 168.88 1164.31 166.967V155.856H1158.08C1153.33 155.856 1149.96 156.676 1148 158.316C1146.06 159.956 1145.08 162.156 1145.08 164.917C1145.08 167.596 1145.77 169.632 1147.13 171.026C1148.53 172.393 1150.62 173.076 1153.41 173.076ZM1223.77 175.208C1222.3 176.192 1220.51 176.957 1218.4 177.504C1216.3 178.051 1214.23 178.324 1212.21 178.324C1207.56 178.324 1203.98 177.108 1201.47 174.675C1198.95 172.242 1197.7 169.113 1197.7 165.286V139.538H1187.77V134.208H1197.7V124.409L1204.58 123.589V134.208H1219.51L1218.69 139.538H1204.58V165.204C1204.58 167.609 1205.21 169.441 1206.47 170.698C1207.76 171.955 1209.87 172.584 1212.83 172.584C1214.44 172.584 1215.93 172.393 1217.29 172.01C1218.66 171.627 1219.93 171.135 1221.11 170.534L1223.77 175.208ZM1260.52 134.208V171.928H1272.69V177.381H1240.3V171.928H1253.63V139.661H1240.71V134.208H1260.52ZM1255.02 113.995C1256.55 113.995 1257.77 114.46 1258.67 115.389C1259.6 116.318 1260.07 117.453 1260.07 118.792C1260.07 120.186 1259.6 121.361 1258.67 122.318C1257.77 123.247 1256.55 123.712 1255.02 123.712C1253.58 123.712 1252.39 123.247 1251.46 122.318C1250.53 121.361 1250.06 120.186 1250.06 118.792C1250.06 117.453 1250.53 116.318 1251.46 115.389C1252.39 114.46 1253.58 113.995 1255.02 113.995ZM1287.83 177.381V134.208H1293.7L1294.23 140.194C1295.98 137.98 1298.16 136.285 1300.79 135.11C1303.44 133.907 1306.01 133.306 1308.5 133.306C1312.73 133.306 1315.81 134.427 1317.72 136.668C1319.66 138.909 1320.63 142.025 1320.63 146.016V177.381H1313.74V151.1C1313.74 148.148 1313.58 145.77 1313.25 143.966C1312.92 142.135 1312.24 140.809 1311.2 139.989C1310.16 139.142 1308.55 138.718 1306.36 138.718C1304.67 138.718 1303.07 139.087 1301.57 139.825C1300.09 140.563 1298.77 141.492 1297.59 142.613C1296.44 143.706 1295.49 144.813 1294.72 145.934V177.381H1287.83ZM1372.1 129.616L1374.23 136.094C1372.4 136.668 1370.44 137.023 1368.37 137.16C1366.29 137.297 1364.03 137.365 1361.6 137.365C1364.09 138.513 1365.96 140.003 1367.22 141.834C1368.48 143.638 1369.1 145.77 1369.1 148.23C1369.1 151.073 1368.46 153.601 1367.18 155.815C1365.89 158.029 1364.03 159.765 1361.6 161.022C1359.2 162.279 1356.28 162.908 1352.87 162.908C1351.42 162.908 1350.2 162.84 1349.22 162.703C1348.26 162.566 1347.33 162.361 1346.43 162.088C1345.77 162.525 1345.23 163.127 1344.79 163.892C1344.38 164.657 1344.18 165.45 1344.18 166.27C1344.18 167.309 1344.59 168.17 1345.41 168.853C1346.23 169.536 1347.74 169.878 1349.96 169.878H1357.75C1360.64 169.878 1363.24 170.397 1365.54 171.436C1367.86 172.475 1369.68 173.869 1370.99 175.618C1372.33 177.367 1373 179.363 1373 181.604C1373 185.841 1371.19 189.093 1367.59 191.362C1364.01 193.631 1358.94 194.765 1352.38 194.765C1347.78 194.765 1344.16 194.287 1341.51 193.33C1338.86 192.401 1336.96 190.966 1335.81 189.025C1334.69 187.112 1334.13 184.693 1334.13 181.768H1340.36C1340.36 183.435 1340.69 184.816 1341.35 185.909C1342 187.002 1343.19 187.809 1344.91 188.328C1346.64 188.875 1349.11 189.148 1352.33 189.148C1355.51 189.148 1358.09 188.875 1360.08 188.328C1362.11 187.809 1363.6 187.016 1364.55 185.95C1365.54 184.911 1366.03 183.613 1366.03 182.055C1366.03 180.005 1365.1 178.461 1363.24 177.422C1361.38 176.383 1359.06 175.864 1356.27 175.864H1348.56C1344.85 175.864 1342.1 175.044 1340.32 173.404C1338.57 171.764 1337.7 169.878 1337.7 167.746C1337.7 166.352 1338.09 164.999 1338.89 163.687C1339.71 162.375 1340.9 161.213 1342.45 160.202C1339.97 158.89 1338.14 157.264 1336.96 155.323C1335.78 153.382 1335.2 151.032 1335.2 148.271C1335.2 145.346 1335.92 142.763 1337.37 140.522C1338.82 138.253 1340.84 136.477 1343.44 135.192C1346.03 133.907 1349.03 133.265 1352.42 133.265C1356.05 133.238 1359 133.087 1361.27 132.814C1363.54 132.513 1365.48 132.09 1367.09 131.543C1368.73 130.996 1370.4 130.354 1372.1 129.616ZM1352.42 138.308C1348.95 138.308 1346.38 139.251 1344.71 141.137C1343.07 142.996 1342.25 145.374 1342.25 148.271C1342.25 151.196 1343.1 153.601 1344.79 155.487C1346.49 157.373 1349.08 158.316 1352.58 158.316C1355.64 158.316 1357.97 157.428 1359.55 155.651C1361.16 153.874 1361.97 151.401 1361.97 148.23C1361.97 144.977 1361.16 142.517 1359.55 140.85C1357.97 139.155 1355.59 138.308 1352.42 138.308Z" fill="#9CC1E4"/>
<path d="M202.669 269.662C206.359 269.662 209.447 270.127 211.935 271.056C214.422 271.985 216.786 273.352 219.028 275.156L215.051 279.789C213.274 278.286 211.388 277.22 209.393 276.591C207.425 275.935 205.361 275.607 203.202 275.607C200.113 275.607 197.257 276.345 194.633 277.821C192.009 279.27 189.89 281.689 188.278 285.078C186.692 288.44 185.9 293.005 185.9 298.772C185.9 304.375 186.651 308.872 188.155 312.261C189.685 315.65 191.749 318.097 194.346 319.6C196.942 321.103 199.84 321.855 203.038 321.855C206.208 321.855 208.805 321.377 210.828 320.42C212.878 319.463 214.654 318.37 216.158 317.14L219.848 321.814C218.126 323.481 215.884 324.93 213.124 326.16C210.363 327.363 206.974 327.964 202.956 327.964C198.391 327.964 194.25 326.843 190.533 324.602C186.843 322.361 183.918 319.081 181.759 314.762C179.599 310.416 178.52 305.086 178.52 298.772C178.52 292.431 179.613 287.101 181.8 282.782C184.014 278.463 186.952 275.197 190.615 272.983C194.305 270.769 198.323 269.662 202.669 269.662ZM237.609 265.808V289.752C239.304 287.483 241.381 285.789 243.841 284.668C246.329 283.52 248.843 282.946 251.385 282.946C255.595 282.946 258.67 284.067 260.61 286.308C262.551 288.549 263.521 291.665 263.521 295.656V327.021H256.633V295.82C256.633 293.223 256.032 291.337 254.829 290.162C253.627 288.959 251.741 288.358 249.171 288.358C247.531 288.358 245.973 288.727 244.497 289.465C243.021 290.203 241.696 291.119 240.52 292.212C239.345 293.305 238.375 294.426 237.609 295.574V327.021H230.721V266.546L237.609 265.808ZM280.299 327.021V321.732H287.023V289.137H280.299V283.848H292.271L293.542 294.057C295.21 290.504 297.232 287.757 299.61 285.816C301.988 283.875 305.132 282.905 309.04 282.905C310.243 282.905 311.309 283.001 312.238 283.192C313.195 283.356 314.165 283.575 315.149 283.848L313.14 289.998C312.238 289.752 311.418 289.574 310.68 289.465C309.942 289.328 309.095 289.26 308.138 289.26C304.831 289.26 301.988 290.435 299.61 292.786C297.232 295.137 295.333 298.69 293.911 303.446V321.732H302.685V327.021H280.299ZM308.507 298.444V289.055L309.204 283.848H315.149L314.165 298.444H308.507ZM345.498 282.946C349.571 282.946 352.974 283.875 355.707 285.734C358.468 287.565 360.532 290.162 361.898 293.524C363.292 296.886 363.989 300.849 363.989 305.414C363.989 309.815 363.279 313.71 361.857 317.099C360.436 320.488 358.345 323.153 355.584 325.094C352.851 327.007 349.462 327.964 345.416 327.964C341.371 327.964 337.968 327.035 335.207 325.176C332.447 323.317 330.356 320.707 328.934 317.345C327.54 313.956 326.843 310.006 326.843 305.496C326.843 301.041 327.554 297.118 328.975 293.729C330.397 290.34 332.488 287.702 335.248 285.816C338.036 283.903 341.453 282.946 345.498 282.946ZM345.498 288.563C341.781 288.563 338.966 289.943 337.052 292.704C335.166 295.437 334.223 299.701 334.223 305.496C334.223 311.181 335.153 315.404 337.011 318.165C338.897 320.926 341.699 322.306 345.416 322.306C349.134 322.306 351.922 320.926 353.78 318.165C355.666 315.404 356.609 311.154 356.609 305.414C356.609 299.674 355.68 295.437 353.821 292.704C351.963 289.943 349.188 288.563 345.498 288.563ZM406.679 282.946C408.073 282.946 409.399 283.247 410.656 283.848C411.941 284.449 412.993 285.611 413.813 287.333C414.633 289.055 415.043 291.57 415.043 294.877V327.021H408.647V295.984C408.647 293.278 408.483 291.324 408.155 290.121C407.827 288.918 406.884 288.317 405.326 288.317C404.042 288.317 402.757 288.727 401.472 289.547C400.215 290.34 398.985 291.652 397.782 293.483V327.021H391.345V295.984C391.345 293.278 391.181 291.324 390.853 290.121C390.525 288.918 389.582 288.317 388.024 288.317C386.685 288.317 385.387 288.727 384.129 289.547C382.899 290.34 381.683 291.652 380.48 293.483V327.021H374.125V283.848H379.537L379.947 288.85C381.123 287.183 382.435 285.789 383.883 284.668C385.359 283.52 387.177 282.946 389.336 282.946C390.976 282.946 392.521 283.342 393.969 284.135C395.418 284.9 396.484 286.404 397.167 288.645C398.343 286.95 399.668 285.584 401.144 284.545C402.62 283.479 404.465 282.946 406.679 282.946ZM432.805 307.874C432.942 311.209 433.584 313.942 434.732 316.074C435.88 318.179 437.397 319.737 439.283 320.748C441.169 321.732 443.219 322.224 445.433 322.224C447.647 322.224 449.643 321.896 451.419 321.24C453.223 320.584 455.068 319.614 456.954 318.329L460.193 322.88C458.171 324.465 455.861 325.709 453.264 326.611C450.695 327.513 448.057 327.964 445.351 327.964C441.169 327.964 437.602 327.021 434.65 325.135C431.698 323.249 429.443 320.625 427.885 317.263C426.355 313.874 425.589 309.951 425.589 305.496C425.589 301.123 426.368 297.241 427.926 293.852C429.484 290.463 431.671 287.798 434.486 285.857C437.302 283.916 440.623 282.946 444.449 282.946C448.085 282.946 451.214 283.807 453.838 285.529C456.462 287.224 458.471 289.656 459.865 292.827C461.287 295.97 461.997 299.729 461.997 304.102C461.997 304.84 461.984 305.537 461.956 306.193C461.929 306.822 461.888 307.382 461.833 307.874H432.805ZM444.531 288.604C441.333 288.604 438.655 289.738 436.495 292.007C434.363 294.276 433.147 297.788 432.846 302.544H455.355C455.273 297.925 454.262 294.453 452.321 292.13C450.381 289.779 447.784 288.604 444.531 288.604ZM534.913 276.386V295.41H555.823V301.273H534.913V321.322H560.579V327.021H527.779V270.564H559.841L559.021 276.386H534.913ZM579.079 327.021H571.207L587.156 304.225L573.175 283.848H581.334L591.338 299.92L601.465 283.848H609.337L595.397 303.938L611.305 327.021H602.859L591.051 308.489L579.079 327.021ZM658.341 324.848C656.865 325.832 655.075 326.597 652.97 327.144C650.866 327.691 648.802 327.964 646.779 327.964C642.133 327.964 638.552 326.748 636.037 324.315C633.523 321.882 632.265 318.753 632.265 314.926V289.178H622.343V283.848H632.265V274.049L639.153 273.229V283.848H654.077L653.257 289.178H639.153V314.844C639.153 317.249 639.782 319.081 641.039 320.338C642.324 321.595 644.442 322.224 647.394 322.224C649.007 322.224 650.497 322.033 651.863 321.65C653.23 321.267 654.501 320.775 655.676 320.174L658.341 324.848ZM678.645 307.874C678.782 311.209 679.424 313.942 680.572 316.074C681.72 318.179 683.237 319.737 685.123 320.748C687.009 321.732 689.059 322.224 691.273 322.224C693.487 322.224 695.483 321.896 697.259 321.24C699.063 320.584 700.908 319.614 702.794 318.329L706.033 322.88C704.011 324.465 701.701 325.709 699.104 326.611C696.535 327.513 693.897 327.964 691.191 327.964C687.009 327.964 683.442 327.021 680.49 325.135C677.538 323.249 675.283 320.625 673.725 317.263C672.195 313.874 671.429 309.951 671.429 305.496C671.429 301.123 672.208 297.241 673.766 293.852C675.324 290.463 677.511 287.798 680.326 285.857C683.142 283.916 686.463 282.946 690.289 282.946C693.925 282.946 697.054 283.807 699.678 285.529C702.302 287.224 704.311 289.656 705.705 292.827C707.127 295.97 707.837 299.729 707.837 304.102C707.837 304.84 707.824 305.537 707.796 306.193C707.769 306.822 707.728 307.382 707.673 307.874H678.645ZM690.371 288.604C687.173 288.604 684.495 289.738 682.335 292.007C680.203 294.276 678.987 297.788 678.686 302.544H701.195C701.113 297.925 700.102 294.453 698.161 292.13C696.221 289.779 693.624 288.604 690.371 288.604ZM722.401 327.021V283.848H728.264L728.797 289.834C730.546 287.62 732.733 285.925 735.357 284.75C738.008 283.547 740.578 282.946 743.065 282.946C747.302 282.946 750.377 284.067 752.29 286.308C754.231 288.549 755.201 291.665 755.201 295.656V327.021H748.313V300.74C748.313 297.788 748.149 295.41 747.821 293.606C747.493 291.775 746.81 290.449 745.771 289.629C744.732 288.782 743.12 288.358 740.933 288.358C739.238 288.358 737.639 288.727 736.136 289.465C734.66 290.203 733.334 291.132 732.159 292.253C731.011 293.346 730.054 294.453 729.289 295.574V327.021H722.401ZM786.247 322.265C789.554 322.265 792.165 321.65 794.078 320.42C796.019 319.163 796.989 317.495 796.989 315.418C796.989 314.106 796.743 312.972 796.251 312.015C795.786 311.058 794.816 310.197 793.34 309.432C791.864 308.667 789.595 307.901 786.534 307.136C783.555 306.398 780.958 305.551 778.744 304.594C776.557 303.61 774.849 302.339 773.619 300.781C772.416 299.223 771.815 297.2 771.815 294.713C771.815 292.28 772.498 290.189 773.865 288.44C775.259 286.663 777.186 285.31 779.646 284.381C782.106 283.424 784.962 282.946 788.215 282.946C791.686 282.946 794.707 283.411 797.276 284.34C799.873 285.242 802.073 286.363 803.877 287.702L800.843 292.376C799.203 291.255 797.399 290.34 795.431 289.629C793.463 288.891 791.085 288.522 788.297 288.522C784.908 288.522 782.502 289.055 781.081 290.121C779.66 291.16 778.949 292.513 778.949 294.18C778.949 295.437 779.291 296.49 779.974 297.337C780.685 298.157 781.874 298.909 783.541 299.592C785.208 300.248 787.504 300.972 790.429 301.765C793.244 302.503 795.691 303.391 797.768 304.43C799.873 305.469 801.513 306.835 802.688 308.53C803.863 310.225 804.451 312.411 804.451 315.09C804.451 318.151 803.576 320.639 801.827 322.552C800.078 324.438 797.809 325.818 795.021 326.693C792.26 327.54 789.336 327.964 786.247 327.964C782.338 327.964 779.004 327.404 776.243 326.283C773.51 325.135 771.214 323.755 769.355 322.142L773.291 317.591C774.986 318.985 776.926 320.119 779.113 320.994C781.327 321.841 783.705 322.265 786.247 322.265ZM842.59 283.848V321.568H854.767V327.021H822.377V321.568H835.702V289.301H822.787V283.848H842.59ZM837.096 263.635C838.627 263.635 839.843 264.1 840.745 265.029C841.674 265.958 842.139 267.093 842.139 268.432C842.139 269.826 841.674 271.001 840.745 271.958C839.843 272.887 838.627 273.352 837.096 273.352C835.647 273.352 834.458 272.887 833.529 271.958C832.6 271.001 832.135 269.826 832.135 268.432C832.135 267.093 832.6 265.958 833.529 265.029C834.458 264.1 835.647 263.635 837.096 263.635ZM886.346 282.946C890.419 282.946 893.822 283.875 896.555 285.734C899.316 287.565 901.379 290.162 902.746 293.524C904.14 296.886 904.837 300.849 904.837 305.414C904.837 309.815 904.126 313.71 902.705 317.099C901.284 320.488 899.193 323.153 896.432 325.094C893.699 327.007 890.309 327.964 886.264 327.964C882.219 327.964 878.816 327.035 876.055 325.176C873.294 323.317 871.203 320.707 869.782 317.345C868.388 313.956 867.691 310.006 867.691 305.496C867.691 301.041 868.402 297.118 869.823 293.729C871.244 290.34 873.335 287.702 876.096 285.816C878.884 283.903 882.301 282.946 886.346 282.946ZM886.346 288.563C882.629 288.563 879.813 289.943 877.9 292.704C876.014 295.437 875.071 299.701 875.071 305.496C875.071 311.181 876 315.404 877.859 318.165C879.745 320.926 882.547 322.306 886.264 322.306C889.981 322.306 892.769 320.926 894.628 318.165C896.514 315.404 897.457 311.154 897.457 305.414C897.457 299.674 896.528 295.437 894.669 292.704C892.81 289.943 890.036 288.563 886.346 288.563ZM919.073 327.021V283.848H924.936L925.469 289.834C927.218 287.62 929.405 285.925 932.029 284.75C934.68 283.547 937.25 282.946 939.737 282.946C943.974 282.946 947.049 284.067 948.962 286.308C950.903 288.549 951.873 291.665 951.873 295.656V327.021H944.985V300.74C944.985 297.788 944.821 295.41 944.493 293.606C944.165 291.775 943.482 290.449 942.443 289.629C941.404 288.782 939.792 288.358 937.605 288.358C935.91 288.358 934.311 288.727 932.808 289.465C931.332 290.203 930.006 291.132 928.831 292.253C927.683 293.346 926.726 294.453 925.961 295.574V327.021H919.073ZM982.919 322.265C986.226 322.265 988.837 321.65 990.75 320.42C992.691 319.163 993.661 317.495 993.661 315.418C993.661 314.106 993.415 312.972 992.923 312.015C992.458 311.058 991.488 310.197 990.012 309.432C988.536 308.667 986.267 307.901 983.206 307.136C980.227 306.398 977.63 305.551 975.416 304.594C973.229 303.61 971.521 302.339 970.291 300.781C969.088 299.223 968.487 297.2 968.487 294.713C968.487 292.28 969.17 290.189 970.537 288.44C971.931 286.663 973.858 285.31 976.318 284.381C978.778 283.424 981.634 282.946 984.887 282.946C988.358 282.946 991.379 283.411 993.948 284.34C996.545 285.242 998.745 286.363 1000.55 287.702L997.515 292.376C995.875 291.255 994.071 290.34 992.103 289.629C990.135 288.891 987.757 288.522 984.969 288.522C981.58 288.522 979.174 289.055 977.753 290.121C976.332 291.16 975.621 292.513 975.621 294.18C975.621 295.437 975.963 296.49 976.646 297.337C977.357 298.157 978.546 298.909 980.213 299.592C981.88 300.248 984.176 300.972 987.101 301.765C989.916 302.503 992.363 303.391 994.44 304.43C996.545 305.469 998.185 306.835 999.36 308.53C1000.54 310.225 1001.12 312.411 1001.12 315.09C1001.12 318.151 1000.25 320.639 998.499 322.552C996.75 324.438 994.481 325.818 991.693 326.693C988.932 327.54 986.008 327.964 982.919 327.964C979.01 327.964 975.676 327.404 972.915 326.283C970.182 325.135 967.886 323.755 966.027 322.142L969.963 317.591C971.658 318.985 973.598 320.119 975.785 320.994C977.999 321.841 980.377 322.265 982.919 322.265ZM1098.56 327.021H1088.8L1083.22 295.328L1077.15 327.021H1067.64L1059.77 283.848H1066.82L1072.32 322.757L1079.2 289.342H1087.36L1093.88 322.757L1099.38 283.848H1106.1L1098.56 327.021ZM1117.38 335.467L1111.81 333.007L1146.9 260.642L1152.4 263.348L1117.38 335.467ZM1249.34 270.564L1252.54 327.021H1245.69L1243.93 297.542C1243.85 295.547 1243.76 293.524 1243.68 291.474C1243.6 289.424 1243.55 287.456 1243.52 285.57C1243.49 283.684 1243.48 282.003 1243.48 280.527C1243.48 279.051 1243.48 277.903 1243.48 277.083L1233.97 316.894H1226.83L1216.62 277.083C1216.65 277.876 1216.68 279.051 1216.7 280.609C1216.73 282.14 1216.75 283.875 1216.75 285.816C1216.77 287.757 1216.76 289.752 1216.7 291.802C1216.68 293.825 1216.62 295.711 1216.54 297.46L1215.02 327.021H1208.34L1211.54 270.564H1221.46L1230.6 309.227L1239.34 270.564H1249.34ZM1294.16 317.591C1294.16 319.313 1294.45 320.57 1295.02 321.363C1295.6 322.156 1296.49 322.743 1297.69 323.126L1296.01 327.964C1294.15 327.718 1292.52 327.13 1291.13 326.201C1289.73 325.244 1288.72 323.809 1288.09 321.896C1286.54 323.891 1284.6 325.408 1282.27 326.447C1279.95 327.458 1277.38 327.964 1274.56 327.964C1270.25 327.964 1266.84 326.748 1264.36 324.315C1261.87 321.882 1260.62 318.657 1260.62 314.639C1260.62 310.184 1262.36 306.767 1265.83 304.389C1269.3 302.011 1274.32 300.822 1280.88 300.822H1287.23V297.214C1287.23 294.098 1286.32 291.898 1284.49 290.613C1282.68 289.301 1280.17 288.645 1276.94 288.645C1275.52 288.645 1273.85 288.823 1271.94 289.178C1270.03 289.506 1267.95 290.066 1265.71 290.859L1263.9 285.652C1266.56 284.668 1269.04 283.971 1271.37 283.561C1273.69 283.151 1275.9 282.946 1278.01 282.946C1283.39 282.946 1287.43 284.203 1290.1 286.718C1292.81 289.205 1294.16 292.595 1294.16 296.886V317.591ZM1276.33 322.716C1278.46 322.716 1280.5 322.183 1282.44 321.117C1284.38 320.024 1285.98 318.52 1287.23 316.607V305.496H1281C1276.25 305.496 1272.88 306.316 1270.92 307.956C1268.98 309.596 1268 311.796 1268 314.557C1268 317.236 1268.69 319.272 1270.05 320.666C1271.45 322.033 1273.54 322.716 1276.33 322.716ZM1312.42 327.021V283.848H1318.28L1318.81 289.834C1320.56 287.62 1322.75 285.925 1325.37 284.75C1328.02 283.547 1330.59 282.946 1333.08 282.946C1337.32 282.946 1340.39 284.067 1342.31 286.308C1344.25 288.549 1345.22 291.665 1345.22 295.656V327.021H1338.33V300.74C1338.33 297.788 1338.16 295.41 1337.84 293.606C1337.51 291.775 1336.83 290.449 1335.79 289.629C1334.75 288.782 1333.14 288.358 1330.95 288.358C1329.25 288.358 1327.66 288.727 1326.15 289.465C1324.68 290.203 1323.35 291.132 1322.17 292.253C1321.03 293.346 1320.07 294.453 1319.3 295.574V327.021H1312.42ZM1383.44 283.848V321.568H1395.61V327.021H1363.22V321.568H1376.55V289.301H1363.63V283.848H1383.44ZM1377.94 263.635C1379.47 263.635 1380.69 264.1 1381.59 265.029C1382.52 265.958 1382.99 267.093 1382.99 268.432C1382.99 269.826 1382.52 271.001 1381.59 271.958C1380.69 272.887 1379.47 273.352 1377.94 273.352C1376.5 273.352 1375.31 272.887 1374.38 271.958C1373.45 271.001 1372.98 269.826 1372.98 268.432C1372.98 267.093 1373.45 265.958 1374.38 265.029C1375.31 264.1 1376.5 263.635 1377.94 263.635ZM1436.25 265.603C1438.58 265.603 1440.68 265.808 1442.57 266.218C1444.45 266.628 1446.25 267.202 1447.94 267.94L1445.73 273.065C1444.33 272.464 1442.86 272.013 1441.3 271.712C1439.74 271.411 1438.13 271.261 1436.46 271.261C1433.45 271.261 1431.18 271.849 1429.65 273.024C1428.15 274.199 1427.4 276.003 1427.4 278.436V287.21H1442.04L1441.3 292.622H1427.4V327.021H1420.51V292.622H1410.22V287.21H1420.51V278.6C1420.51 275.921 1421.19 273.612 1422.56 271.671C1423.95 269.73 1425.84 268.241 1428.22 267.202C1430.6 266.136 1433.28 265.603 1436.25 265.603ZM1465.33 307.874C1465.47 311.209 1466.11 313.942 1467.26 316.074C1468.41 318.179 1469.92 319.737 1471.81 320.748C1473.7 321.732 1475.75 322.224 1477.96 322.224C1480.17 322.224 1482.17 321.896 1483.95 321.24C1485.75 320.584 1487.6 319.614 1489.48 318.329L1492.72 322.88C1490.7 324.465 1488.39 325.709 1485.79 326.611C1483.22 327.513 1480.58 327.964 1477.88 327.964C1473.7 327.964 1470.13 327.021 1467.18 325.135C1464.23 323.249 1461.97 320.625 1460.41 317.263C1458.88 313.874 1458.12 309.951 1458.12 305.496C1458.12 301.123 1458.9 297.241 1460.45 293.852C1462.01 290.463 1464.2 287.798 1467.01 285.857C1469.83 283.916 1473.15 282.946 1476.98 282.946C1480.61 282.946 1483.74 283.807 1486.37 285.529C1488.99 287.224 1491 289.656 1492.39 292.827C1493.81 295.97 1494.52 299.729 1494.52 304.102C1494.52 304.84 1494.51 305.537 1494.48 306.193C1494.46 306.822 1494.42 307.382 1494.36 307.874H1465.33ZM1477.06 288.604C1473.86 288.604 1471.18 289.738 1469.02 292.007C1466.89 294.276 1465.67 297.788 1465.37 302.544H1487.88C1487.8 297.925 1486.79 294.453 1484.85 292.13C1482.91 289.779 1480.31 288.604 1477.06 288.604ZM1523.77 322.265C1527.07 322.265 1529.68 321.65 1531.6 320.42C1533.54 319.163 1534.51 317.495 1534.51 315.418C1534.51 314.106 1534.26 312.972 1533.77 312.015C1533.31 311.058 1532.34 310.197 1530.86 309.432C1529.38 308.667 1527.11 307.901 1524.05 307.136C1521.07 306.398 1518.48 305.551 1516.26 304.594C1514.08 303.61 1512.37 302.339 1511.14 300.781C1509.94 299.223 1509.33 297.2 1509.33 294.713C1509.33 292.28 1510.02 290.189 1511.38 288.44C1512.78 286.663 1514.71 285.31 1517.17 284.381C1519.63 283.424 1522.48 282.946 1525.73 282.946C1529.21 282.946 1532.23 283.411 1534.8 284.34C1537.39 285.242 1539.59 286.363 1541.4 287.702L1538.36 292.376C1536.72 291.255 1534.92 290.34 1532.95 289.629C1530.98 288.891 1528.6 288.522 1525.82 288.522C1522.43 288.522 1520.02 289.055 1518.6 290.121C1517.18 291.16 1516.47 292.513 1516.47 294.18C1516.47 295.437 1516.81 296.49 1517.49 297.337C1518.2 298.157 1519.39 298.909 1521.06 299.592C1522.73 300.248 1525.02 300.972 1527.95 301.765C1530.76 302.503 1533.21 303.391 1535.29 304.43C1537.39 305.469 1539.03 306.835 1540.21 308.53C1541.38 310.225 1541.97 312.411 1541.97 315.09C1541.97 318.151 1541.1 320.639 1539.35 322.552C1537.6 324.438 1535.33 325.818 1532.54 326.693C1529.78 327.54 1526.86 327.964 1523.77 327.964C1519.86 327.964 1516.52 327.404 1513.76 326.283C1511.03 325.135 1508.73 323.755 1506.87 322.142L1510.81 317.591C1512.51 318.985 1514.45 320.119 1516.63 320.994C1518.85 321.841 1521.22 322.265 1523.77 322.265ZM1592.53 324.848C1591.06 325.832 1589.27 326.597 1587.16 327.144C1585.06 327.691 1582.99 327.964 1580.97 327.964C1576.32 327.964 1572.74 326.748 1570.23 324.315C1567.71 321.882 1566.46 318.753 1566.46 314.926V289.178H1556.53V283.848H1566.46V274.049L1573.34 273.229V283.848H1588.27L1587.45 289.178H1573.34V314.844C1573.34 317.249 1573.97 319.081 1575.23 320.338C1576.52 321.595 1578.63 322.224 1581.59 322.224C1583.2 322.224 1584.69 322.033 1586.05 321.65C1587.42 321.267 1588.69 320.775 1589.87 320.174L1592.53 324.848ZM1673.12 318.944L1688.37 270.564H1695.54L1676.64 327.021H1669.26L1650.36 270.564H1658.03L1673.12 318.944ZM1719.54 269.662C1723.09 269.662 1726.15 270.304 1728.72 271.589C1731.32 272.846 1733.33 274.555 1734.75 276.714C1736.17 278.846 1736.88 281.197 1736.88 283.766C1736.88 286.035 1736.37 288.098 1735.36 289.957C1734.35 291.816 1733.01 293.346 1731.34 294.549C1729.68 295.752 1727.85 296.544 1725.85 296.927C1728.06 297.091 1730.14 297.72 1732.08 298.813C1734.02 299.879 1735.61 301.41 1736.84 303.405C1738.07 305.373 1738.68 307.819 1738.68 310.744C1738.68 313.997 1737.86 316.935 1736.22 319.559C1734.58 322.156 1732.29 324.206 1729.34 325.709C1726.41 327.212 1722.99 327.964 1719.09 327.964C1715.94 327.964 1712.8 327.363 1709.66 326.16C1706.54 324.957 1703.9 323.044 1701.74 320.42L1706.38 316.648C1707.99 318.534 1709.9 319.942 1712.12 320.871C1714.36 321.8 1716.63 322.265 1718.92 322.265C1722.86 322.265 1725.93 321.24 1728.15 319.19C1730.36 317.113 1731.47 314.297 1731.47 310.744C1731.47 308.065 1730.95 305.947 1729.91 304.389C1728.9 302.831 1727.52 301.724 1725.77 301.068C1724.02 300.385 1722.02 300.043 1719.78 300.043H1715.03L1715.89 294.59H1719.21C1721.04 294.59 1722.76 294.248 1724.37 293.565C1726.01 292.854 1727.35 291.761 1728.39 290.285C1729.43 288.809 1729.95 286.964 1729.95 284.75C1729.95 281.634 1728.91 279.256 1726.83 277.616C1724.76 275.976 1722.24 275.156 1719.29 275.156C1716.83 275.156 1714.68 275.593 1712.85 276.468C1711.02 277.315 1709.18 278.614 1707.32 280.363L1703.51 276.14C1705.91 273.871 1708.47 272.231 1711.17 271.22C1713.88 270.181 1716.67 269.662 1719.54 269.662Z" fill="white"/>
<g filter="url(#filter0_d_1224_2)">
<g clip-path="url(#clip1_1224_2)">
<path d="M1688.53 640H1404.47C1385.43 640 1370 655.434 1370 674.473V958.527C1370 977.566 1385.43 993 1404.47 993H1688.53C1707.57 993 1723 977.566 1723 958.527V674.473C1723 655.434 1707.57 640 1688.53 640Z" fill="url(#paint1_linear_1224_2)"/>
<path fill-rule="evenodd" clip-rule="evenodd" d="M1588.56 920.607V955.08C1594.14 957.976 1600.97 960.113 1608.55 961.561C1616.13 963.009 1624.41 963.698 1632.68 963.698C1640.96 963.698 1648.54 962.94 1656.12 961.354C1663.71 959.768 1669.91 957.148 1675.43 953.77C1681.01 950.116 1685.77 945.497 1688.53 939.291C1691.29 933.086 1693.42 926.192 1693.42 917.229C1693.42 910.955 1692.46 905.508 1690.6 900.682C1688.73 895.856 1686.05 891.719 1682.32 888.272C1678.81 884.618 1674.74 881.377 1669.91 878.62C1665.09 875.862 1659.57 872.966 1653.37 870.346C1648.81 868.485 1645.09 866.692 1640.96 864.899C1637.37 863.107 1634.27 861.314 1631.99 859.522C1629.44 857.66 1627.51 855.73 1626.13 853.73C1624.75 851.662 1624.06 849.387 1624.06 846.836C1624.06 844.492 1624.68 842.354 1625.93 840.424C1627.17 838.493 1628.89 836.908 1631.1 835.529C1633.3 834.15 1636.06 833.116 1639.37 832.357C1642.61 831.599 1646.19 831.254 1650.4 831.254C1653.3 831.254 1656.33 831.468 1659.36 831.902C1662.53 832.337 1665.78 833.005 1669.02 833.902C1672.26 834.798 1675.43 835.901 1678.67 837.28C1681.7 838.659 1684.53 840.245 1686.94 842.037V809.633C1681.7 807.633 1675.91 806.117 1669.71 805.151C1663.5 804.186 1656.61 803.704 1648.33 803.704C1640.06 803.704 1632.47 804.6 1624.89 806.324C1617.31 808.047 1611.1 810.805 1605.59 814.597C1600 818.32 1595.93 822.87 1592.49 829.075C1589.25 834.867 1587.66 841.486 1587.66 849.759C1587.66 860.101 1590.63 869.064 1596.62 875.958C1602.55 883.542 1611.79 889.058 1623.51 894.574C1628.27 896.504 1632.47 898.434 1636.61 900.296C1640.75 902.158 1644.2 904.088 1646.95 906.087C1649.92 908.087 1652.26 910.293 1653.85 912.637C1655.57 914.981 1656.47 917.739 1656.47 920.911C1656.47 923.117 1655.93 925.185 1654.88 927.116C1653.83 929.046 1652.19 930.701 1649.99 932.08C1647.78 933.459 1645.09 934.562 1641.71 935.389C1638.47 936.148 1634.82 936.561 1629.99 936.561C1622.41 936.561 1614.82 935.251 1607.93 932.631C1600.35 930.011 1593.45 926.082 1587.25 920.911L1588.56 920.607ZM1530.64 835.805H1574.77V807.537H1451.36V835.805H1495.48V961.974H1530.64V835.805Z" fill="white"/>
</g>
</g>
<g clip-path="url(#clip2_1224_2)">
<path d="M400.981 725.994L560.304 725.994C544.159 698.022 520.934 674.793 492.964 658.643C464.995 642.493 433.266 633.992 400.969 633.994C368.671 633.997 336.944 642.502 308.976 658.656C281.009 674.81 257.787 698.042 241.646 726.017L321.308 863.994L321.379 863.976C313.275 850.002 308.999 834.138 308.981 817.984C308.963 801.83 313.203 785.957 321.276 771.964C329.348 757.972 340.966 746.355 354.96 738.284C368.953 730.213 384.827 725.974 400.981 725.994V725.994Z" fill="url(#paint2_linear_1224_2)"/>
<path d="M480.7 863.982L401.038 1001.96C433.335 1001.96 465.065 993.466 493.036 977.318C521.007 961.17 544.233 937.943 560.38 909.971C576.527 882 585.024 850.27 585.019 817.973C585.013 785.676 576.504 753.949 560.347 725.983L401.024 725.984L401.005 726.054C417.159 726.023 433.035 730.252 447.034 738.313C461.033 746.374 472.659 757.983 480.741 771.97C488.823 785.957 493.074 801.828 493.067 817.982C493.06 834.136 488.794 850.002 480.7 863.982V863.982Z" fill="url(#paint3_linear_1224_2)"/>
<path d="M321.32 864.024L241.658 726.046C225.506 754.014 217.001 785.742 217 818.039C216.999 850.336 225.501 882.065 241.652 910.034C257.802 938.003 281.032 961.227 309.005 977.371C336.978 993.515 368.709 1002.01 401.006 1002L480.668 864.022L480.616 863.97C472.566 877.975 460.966 889.611 446.985 897.703C433.004 905.796 417.137 910.06 400.983 910.065C384.83 910.071 368.96 905.817 354.973 897.734C340.987 889.651 329.379 878.023 321.32 864.024V864.024Z" fill="url(#paint4_linear_1224_2)"/>
<path d="M401 910C451.81 910 493 868.81 493 818C493 767.19 451.81 726 401 726C350.19 726 309 767.19 309 818C309 868.81 350.19 910 401 910Z" fill="white"/>
<path d="M401.001 890.833C441.226 890.833 473.835 858.225 473.835 818C473.835 777.775 441.226 745.167 401.001 745.167C360.777 745.167 328.168 777.775 328.168 818C328.168 858.225 360.777 890.833 401.001 890.833Z" fill="#1A73E8"/>
</g>
</g>
<defs>
<filter id="filter0_d_1224_2" x="1370" y="640" width="361" height="361" filterUnits="userSpaceOnUse" color-interpolation-filters="sRGB">
<feFlood flood-opacity="0" result="BackgroundImageFix"/>
<feColorMatrix in="SourceAlpha" type="matrix" values="0 0 0 0 0 0 0 0 0 0 0 0 0 0 0 0 0 0 127 0" result="hardAlpha"/>
<feOffset dx="4" dy="4"/>
<feGaussianBlur stdDeviation="2"/>
<feColorMatrix type="matrix" values="0 0 0 0 0 0 0 0 0 0 0 0 0 0 0 0 0 0 0.25 0"/>
<feBlend mode="normal" in2="BackgroundImageFix" result="effect1_dropShadow_1224_2"/>
<feBlend mode="normal" in="SourceGraphic" in2="effect1_dropShadow_1224_2" result="shape"/>
</filter>
<linearGradient id="paint0_linear_1224_2" x1="960" y1="0" x2="960" y2="1080" gradientUnits="userSpaceOnUse">
<stop stop-color="#323232"/>
<stop offset="1"/>
</linearGradient>
<linearGradient id="paint1_linear_1224_2" x1="1546.5" y1="640" x2="1546.5" y2="993" gradientUnits="userSpaceOnUse">
<stop stop-color="#B32BD5"/>
<stop offset="1" stop-color="#DA3C8E"/>
</linearGradient>
<linearGradient id="paint2_linear_1224_2" x1="540.428" y1="714.513" x2="381.099" y2="990.478" gradientUnits="userSpaceOnUse">
<stop stop-color="#D93025"/>
<stop offset="1" stop-color="#EA4335"/>
</linearGradient>
<linearGradient id="paint3_linear_1224_2" x1="570.792" y1="748.995" x2="252.135" y2="748.995" gradientUnits="userSpaceOnUse">
<stop stop-color="#FCC934"/>
<stop offset="1" stop-color="#FBBC04"/>
</linearGradient>
<linearGradient id="paint4_linear_1224_2" x1="420.906" y1="990.511" x2="261.577" y2="714.546" gradientUnits="userSpaceOnUse">
<stop stop-color="#1E8E3E"/>
<stop offset="1" stop-color="#34A853"/>
</linearGradient>
<clipPath id="clip0_1224_2">
<rect width="1920" height="1080" fill="white"/>
</clipPath>
<clipPath id="clip1_1224_2">
<rect width="353" height="353" fill="white" transform="translate(1370 640)"/>
</clipPath>
<clipPath id="clip2_1224_2">
<rect width="368" height="368" fill="white" transform="translate(217 634)"/>
</clipPath>
</defs>
</svg>
