<svg width="1920" height="1080" viewBox="0 0 1920 1080" fill="none" xmlns="http://www.w3.org/2000/svg">
<g id="DI_java">
<g id="Rectangle">
<rect width="1920" height="1080" fill="#323232"/>
<rect width="1920" height="1080" fill="url(#paint0_linear)" fill-opacity="0.15"/>
</g>
<path id="Depedency Injection" d="M538.192 149.88C538.192 159.533 535.552 166.813 530.272 171.72C525.045 176.573 517.739 179 508.352 179H492.432V121.88H510.032C515.792 121.88 520.779 122.947 524.992 125.08C529.205 127.213 532.459 130.36 534.752 134.52C537.045 138.627 538.192 143.747 538.192 149.88ZM530.592 150.12C530.592 142.493 528.699 136.92 524.912 133.4C521.179 129.827 515.872 128.04 508.992 128.04H499.632V172.84H507.392C522.859 172.84 530.592 165.267 530.592 150.12ZM566.469 135.32C570.149 135.32 573.296 136.12 575.909 137.72C578.576 139.32 580.603 141.587 581.989 144.52C583.429 147.4 584.149 150.787 584.149 154.68V158.92H554.789C554.896 163.773 556.123 167.48 558.469 170.04C560.869 172.547 564.203 173.8 568.469 173.8C571.189 173.8 573.589 173.56 575.669 173.08C577.803 172.547 579.989 171.8 582.229 170.84V177C580.043 177.96 577.883 178.653 575.749 179.08C573.616 179.56 571.083 179.8 568.149 179.8C564.096 179.8 560.496 178.973 557.349 177.32C554.256 175.667 551.829 173.213 550.069 169.96C548.363 166.653 547.509 162.627 547.509 157.88C547.509 153.187 548.283 149.16 549.829 145.8C551.429 142.44 553.643 139.853 556.469 138.04C559.349 136.227 562.683 135.32 566.469 135.32ZM566.389 141.08C563.029 141.08 560.363 142.173 558.389 144.36C556.469 146.493 555.323 149.48 554.949 153.32H576.789C576.736 149.693 575.883 146.76 574.229 144.52C572.576 142.227 569.963 141.08 566.389 141.08ZM615.466 135.32C620.746 135.32 624.986 137.16 628.186 140.84C631.439 144.52 633.066 150.067 633.066 157.48C633.066 164.787 631.439 170.333 628.186 174.12C624.986 177.907 620.719 179.8 615.386 179.8C612.079 179.8 609.332 179.187 607.146 177.96C605.012 176.68 603.332 175.213 602.106 173.56H601.626C601.732 174.467 601.839 175.613 601.946 177C602.052 178.387 602.106 179.587 602.106 180.6V198.2H595.066V136.12H600.826L601.786 141.96H602.106C603.386 140.093 605.066 138.52 607.146 137.24C609.226 135.96 611.999 135.32 615.466 135.32ZM614.186 141.24C609.812 141.24 606.719 142.467 604.906 144.92C603.146 147.373 602.212 151.107 602.106 156.12V157.48C602.106 162.76 602.959 166.84 604.666 169.72C606.426 172.547 609.652 173.96 614.346 173.96C616.959 173.96 619.092 173.24 620.746 171.8C622.452 170.36 623.706 168.413 624.506 165.96C625.359 163.453 625.786 160.6 625.786 157.4C625.786 152.493 624.826 148.573 622.906 145.64C621.039 142.707 618.132 141.24 614.186 141.24ZM660.844 135.32C664.524 135.32 667.671 136.12 670.284 137.72C672.951 139.32 674.978 141.587 676.364 144.52C677.804 147.4 678.524 150.787 678.524 154.68V158.92H649.164C649.271 163.773 650.498 167.48 652.844 170.04C655.244 172.547 658.578 173.8 662.844 173.8C665.564 173.8 667.964 173.56 670.044 173.08C672.178 172.547 674.364 171.8 676.604 170.84V177C674.418 177.96 672.258 178.653 670.124 179.08C667.991 179.56 665.458 179.8 662.524 179.8C658.471 179.8 654.871 178.973 651.724 177.32C648.631 175.667 646.204 173.213 644.444 169.96C642.738 166.653 641.884 162.627 641.884 157.88C641.884 153.187 642.658 149.16 644.204 145.8C645.804 142.44 648.018 139.853 650.844 138.04C653.724 136.227 657.058 135.32 660.844 135.32ZM660.764 141.08C657.404 141.08 654.738 142.173 652.764 144.36C650.844 146.493 649.698 149.48 649.324 153.32H671.164C671.111 149.693 670.258 146.76 668.604 144.52C666.951 142.227 664.338 141.08 660.764 141.08ZM704.641 179.8C699.307 179.8 695.041 177.96 691.841 174.28C688.641 170.547 687.041 165 687.041 157.64C687.041 150.28 688.641 144.733 691.841 141C695.094 137.213 699.387 135.32 704.721 135.32C708.027 135.32 710.721 135.933 712.801 137.16C714.934 138.387 716.667 139.88 718.001 141.64H718.481C718.427 140.947 718.321 139.933 718.161 138.6C718.054 137.213 718.001 136.12 718.001 135.32V118.2H725.041V179H719.361L718.321 173.24H718.001C716.721 175.053 715.014 176.6 712.881 177.88C710.747 179.16 708.001 179.8 704.641 179.8ZM705.761 173.96C710.294 173.96 713.467 172.733 715.281 170.28C717.147 167.773 718.081 164.013 718.081 159V157.72C718.081 152.387 717.201 148.307 715.441 145.48C713.681 142.6 710.427 141.16 705.681 141.16C701.894 141.16 699.041 142.68 697.121 145.72C695.254 148.707 694.321 152.733 694.321 157.8C694.321 162.92 695.254 166.893 697.121 169.72C699.041 172.547 701.921 173.96 705.761 173.96ZM755.219 135.32C758.899 135.32 762.046 136.12 764.659 137.72C767.326 139.32 769.353 141.587 770.739 144.52C772.179 147.4 772.899 150.787 772.899 154.68V158.92H743.539C743.646 163.773 744.873 167.48 747.219 170.04C749.619 172.547 752.953 173.8 757.219 173.8C759.939 173.8 762.339 173.56 764.419 173.08C766.553 172.547 768.739 171.8 770.979 170.84V177C768.793 177.96 766.633 178.653 764.499 179.08C762.366 179.56 759.833 179.8 756.899 179.8C752.846 179.8 749.246 178.973 746.099 177.32C743.006 175.667 740.579 173.213 738.819 169.96C737.113 166.653 736.259 162.627 736.259 157.88C736.259 153.187 737.033 149.16 738.579 145.8C740.179 142.44 742.393 139.853 745.219 138.04C748.099 136.227 751.433 135.32 755.219 135.32ZM755.139 141.08C751.779 141.08 749.113 142.173 747.139 144.36C745.219 146.493 744.073 149.48 743.699 153.32H765.539C765.486 149.693 764.633 146.76 762.979 144.52C761.326 142.227 758.713 141.08 755.139 141.08ZM804.456 135.32C809.576 135.32 813.442 136.573 816.056 139.08C818.669 141.533 819.976 145.533 819.976 151.08V179H813.016V151.56C813.016 144.68 809.816 141.24 803.416 141.24C798.669 141.24 795.389 142.573 793.576 145.24C791.762 147.907 790.856 151.747 790.856 156.76V179H783.816V136.12H789.496L790.536 141.96H790.936C792.322 139.72 794.242 138.067 796.696 137C799.149 135.88 801.736 135.32 804.456 135.32ZM850.469 179.8C846.682 179.8 843.295 179.027 840.309 177.48C837.375 175.933 835.055 173.533 833.349 170.28C831.695 167.027 830.869 162.867 830.869 157.8C830.869 152.52 831.749 148.227 833.509 144.92C835.269 141.613 837.642 139.187 840.629 137.64C843.669 136.093 847.109 135.32 850.949 135.32C853.135 135.32 855.242 135.56 857.269 136.04C859.295 136.467 860.949 137 862.229 137.64L860.069 143.48C858.789 143 857.295 142.547 855.589 142.12C853.882 141.693 852.282 141.48 850.789 141.48C842.362 141.48 838.149 146.893 838.149 157.72C838.149 162.893 839.162 166.867 841.189 169.64C843.269 172.36 846.335 173.72 850.389 173.72C852.735 173.72 854.789 173.48 856.549 173C858.362 172.52 860.015 171.933 861.509 171.24V177.48C860.069 178.227 858.469 178.787 856.709 179.16C855.002 179.587 852.922 179.8 850.469 179.8ZM864.986 136.12H872.506L881.786 160.52C882.586 162.653 883.306 164.707 883.946 166.68C884.586 168.6 885.066 170.44 885.386 172.2H885.706C886.026 170.867 886.533 169.133 887.226 167C887.92 164.813 888.64 162.627 889.386 160.44L898.106 136.12H905.706L887.226 184.92C885.733 188.973 883.786 192.2 881.386 194.6C879.04 197 875.786 198.2 871.626 198.2C870.346 198.2 869.226 198.12 868.266 197.96C867.306 197.853 866.48 197.72 865.786 197.56V191.96C866.373 192.067 867.066 192.173 867.866 192.28C868.72 192.387 869.6 192.44 870.506 192.44C872.96 192.44 874.933 191.747 876.426 190.36C877.973 188.973 879.173 187.133 880.026 184.84L882.266 179.16L864.986 136.12ZM950.309 179H929.669V174.84L936.389 173.32V127.64L929.669 126.04V121.88H950.309V126.04L943.589 127.64V173.32L950.309 174.84V179ZM981.018 135.32C986.138 135.32 990.005 136.573 992.618 139.08C995.231 141.533 996.538 145.533 996.538 151.08V179H989.578V151.56C989.578 144.68 986.378 141.24 979.978 141.24C975.231 141.24 971.951 142.573 970.138 145.24C968.325 147.907 967.418 151.747 967.418 156.76V179H960.378V136.12H966.058L967.098 141.96H967.498C968.885 139.72 970.805 138.067 973.258 137C975.711 135.88 978.298 135.32 981.018 135.32ZM1009.27 124.52C1009.27 122.973 1009.67 121.853 1010.47 121.16C1011.27 120.413 1012.26 120.04 1013.43 120.04C1014.5 120.04 1015.43 120.413 1016.23 121.16C1017.08 121.853 1017.51 122.973 1017.51 124.52C1017.51 126.013 1017.08 127.133 1016.23 127.88C1015.43 128.627 1014.5 129 1013.43 129C1012.26 129 1011.27 128.627 1010.47 127.88C1009.67 127.133 1009.27 126.013 1009.27 124.52ZM1004.79 198.2C1003.46 198.2 1002.28 198.093 1001.27 197.88C1000.26 197.72 999.378 197.507 998.631 197.24V191.56C999.431 191.773 1000.26 191.96 1001.11 192.12C1001.96 192.28 1002.9 192.36 1003.91 192.36C1005.62 192.36 1007.03 191.88 1008.15 190.92C1009.27 190.013 1009.83 188.253 1009.83 185.64V136.12H1016.87V185.4C1016.87 189.4 1015.91 192.52 1013.99 194.76C1012.07 197.053 1009 198.2 1004.79 198.2ZM1047.02 135.32C1050.7 135.32 1053.84 136.12 1056.46 137.72C1059.12 139.32 1061.15 141.587 1062.54 144.52C1063.98 147.4 1064.7 150.787 1064.7 154.68V158.92H1035.34C1035.44 163.773 1036.67 167.48 1039.02 170.04C1041.42 172.547 1044.75 173.8 1049.02 173.8C1051.74 173.8 1054.14 173.56 1056.22 173.08C1058.35 172.547 1060.54 171.8 1062.78 170.84V177C1060.59 177.96 1058.43 178.653 1056.3 179.08C1054.16 179.56 1051.63 179.8 1048.7 179.8C1044.64 179.8 1041.04 178.973 1037.9 177.32C1034.8 175.667 1032.38 173.213 1030.62 169.96C1028.91 166.653 1028.06 162.627 1028.06 157.88C1028.06 153.187 1028.83 149.16 1030.38 145.8C1031.98 142.44 1034.19 139.853 1037.02 138.04C1039.9 136.227 1043.23 135.32 1047.02 135.32ZM1046.94 141.08C1043.58 141.08 1040.91 142.173 1038.94 144.36C1037.02 146.493 1035.87 149.48 1035.5 153.32H1057.34C1057.28 149.693 1056.43 146.76 1054.78 144.52C1053.12 142.227 1050.51 141.08 1046.94 141.08ZM1092.81 179.8C1089.03 179.8 1085.64 179.027 1082.65 177.48C1079.72 175.933 1077.4 173.533 1075.69 170.28C1074.04 167.027 1073.21 162.867 1073.21 157.8C1073.21 152.52 1074.09 148.227 1075.85 144.92C1077.61 141.613 1079.99 139.187 1082.97 137.64C1086.01 136.093 1089.45 135.32 1093.29 135.32C1095.48 135.32 1097.59 135.56 1099.61 136.04C1101.64 136.467 1103.29 137 1104.57 137.64L1102.41 143.48C1101.13 143 1099.64 142.547 1097.93 142.12C1096.23 141.693 1094.63 141.48 1093.13 141.48C1084.71 141.48 1080.49 146.893 1080.49 157.72C1080.49 162.893 1081.51 166.867 1083.53 169.64C1085.61 172.36 1088.68 173.72 1092.73 173.72C1095.08 173.72 1097.13 173.48 1098.89 173C1100.71 172.52 1102.36 171.933 1103.85 171.24V177.48C1102.41 178.227 1100.81 178.787 1099.05 179.16C1097.35 179.587 1095.27 179.8 1092.81 179.8ZM1128.37 174.04C1129.44 174.04 1130.53 173.96 1131.65 173.8C1132.77 173.587 1133.68 173.373 1134.37 173.16V178.52C1133.62 178.893 1132.56 179.187 1131.17 179.4C1129.78 179.667 1128.45 179.8 1127.17 179.8C1124.93 179.8 1122.85 179.427 1120.93 178.68C1119.06 177.88 1117.54 176.52 1116.37 174.6C1115.2 172.68 1114.61 169.987 1114.61 166.52V141.56H1108.53V138.2L1114.69 135.4L1117.49 126.28H1121.65V136.12H1134.05V141.56H1121.65V166.36C1121.65 168.973 1122.26 170.92 1123.49 172.2C1124.77 173.427 1126.4 174.04 1128.37 174.04ZM1146.56 120.04C1147.62 120.04 1148.56 120.413 1149.36 121.16C1150.21 121.853 1150.64 122.973 1150.64 124.52C1150.64 126.013 1150.21 127.133 1149.36 127.88C1148.56 128.627 1147.62 129 1146.56 129C1145.38 129 1144.4 128.627 1143.6 127.88C1142.8 127.133 1142.4 126.013 1142.4 124.52C1142.4 122.973 1142.8 121.853 1143.6 121.16C1144.4 120.413 1145.38 120.04 1146.56 120.04ZM1150 136.12V179H1142.96V136.12H1150ZM1200.86 157.48C1200.86 164.573 1199.05 170.067 1195.42 173.96C1191.85 177.853 1186.99 179.8 1180.86 179.8C1177.07 179.8 1173.69 178.947 1170.7 177.24C1167.77 175.48 1165.45 172.947 1163.74 169.64C1162.03 166.28 1161.18 162.227 1161.18 157.48C1161.18 150.387 1162.97 144.92 1166.54 141.08C1170.11 137.24 1174.97 135.32 1181.1 135.32C1184.99 135.32 1188.41 136.2 1191.34 137.96C1194.33 139.667 1196.65 142.173 1198.3 145.48C1200.01 148.733 1200.86 152.733 1200.86 157.48ZM1168.46 157.48C1168.46 162.547 1169.45 166.573 1171.42 169.56C1173.45 172.493 1176.65 173.96 1181.02 173.96C1185.34 173.96 1188.51 172.493 1190.54 169.56C1192.57 166.573 1193.58 162.547 1193.58 157.48C1193.58 152.413 1192.57 148.44 1190.54 145.56C1188.51 142.68 1185.31 141.24 1180.94 141.24C1176.57 141.24 1173.39 142.68 1171.42 145.56C1169.45 148.44 1168.46 152.413 1168.46 157.48ZM1232.66 135.32C1237.78 135.32 1241.65 136.573 1244.26 139.08C1246.87 141.533 1248.18 145.533 1248.18 151.08V179H1241.22V151.56C1241.22 144.68 1238.02 141.24 1231.62 141.24C1226.87 141.24 1223.59 142.573 1221.78 145.24C1219.97 147.907 1219.06 151.747 1219.06 156.76V179H1212.02V136.12H1217.7L1218.74 141.96H1219.14C1220.53 139.72 1222.45 138.067 1224.9 137C1227.35 135.88 1229.94 135.32 1232.66 135.32ZM1317.29 178.92L1309.93 154.76C1309.24 152.573 1308.63 150.44 1308.09 148.36C1307.61 146.227 1307.24 144.573 1306.97 143.4H1306.65C1306.44 144.573 1306.09 146.227 1305.61 148.36C1305.13 150.44 1304.52 152.6 1303.77 154.84L1296.09 178.92H1288.09L1276.33 136.04H1283.61L1289.53 158.92C1290.12 161.213 1290.68 163.533 1291.21 165.88C1291.75 168.227 1292.12 170.173 1292.33 171.72H1292.65C1292.87 170.813 1293.11 169.693 1293.37 168.36C1293.69 167.027 1294.04 165.64 1294.41 164.2C1294.79 162.707 1295.16 161.373 1295.53 160.2L1303.13 136.04H1310.81L1318.17 160.2C1318.76 162.013 1319.32 163.987 1319.85 166.12C1320.44 168.253 1320.84 170.093 1321.05 171.64H1321.37C1321.53 170.307 1321.88 168.467 1322.41 166.12C1323 163.773 1323.61 161.373 1324.25 158.92L1330.25 136.04H1337.45L1325.53 178.92H1317.29ZM1348.74 120.04C1349.81 120.04 1350.74 120.413 1351.54 121.16C1352.4 121.853 1352.82 122.973 1352.82 124.52C1352.82 126.013 1352.4 127.133 1351.54 127.88C1350.74 128.627 1349.81 129 1348.74 129C1347.57 129 1346.58 128.627 1345.78 127.88C1344.98 127.133 1344.58 126.013 1344.58 124.52C1344.58 122.973 1344.98 121.853 1345.78 121.16C1346.58 120.413 1347.57 120.04 1348.74 120.04ZM1352.18 136.12V179H1345.14V136.12H1352.18ZM1380.09 174.04C1381.16 174.04 1382.25 173.96 1383.37 173.8C1384.49 173.587 1385.4 173.373 1386.09 173.16V178.52C1385.34 178.893 1384.28 179.187 1382.89 179.4C1381.5 179.667 1380.17 179.8 1378.89 179.8C1376.65 179.8 1374.57 179.427 1372.65 178.68C1370.78 177.88 1369.26 176.52 1368.09 174.6C1366.92 172.68 1366.33 169.987 1366.33 166.52V141.56H1360.25V138.2L1366.41 135.4L1369.21 126.28H1373.37V136.12H1385.77V141.56H1373.37V166.36C1373.37 168.973 1373.98 170.92 1375.21 172.2C1376.49 173.427 1378.12 174.04 1380.09 174.04ZM1401.72 118.2V136.04C1401.72 138.173 1401.58 140.173 1401.32 142.04H1401.8C1403.18 139.853 1405.05 138.2 1407.4 137.08C1409.8 135.96 1412.38 135.4 1415.16 135.4C1420.38 135.4 1424.3 136.653 1426.92 139.16C1429.53 141.613 1430.84 145.587 1430.84 151.08V179H1423.88V151.56C1423.88 144.68 1420.68 141.24 1414.28 141.24C1409.48 141.24 1406.17 142.6 1404.36 145.32C1402.6 147.987 1401.72 151.827 1401.72 156.84V179H1394.68V118.2H1401.72Z" fill="#9B9B9B"/>
<path id="Dagger 2" d="M735.521 293.4C735.521 311.5 730.571 325.15 720.671 334.35C710.871 343.45 697.171 348 679.571 348H649.721V240.9H682.721C693.521 240.9 702.871 242.9 710.771 246.9C718.671 250.9 724.771 256.8 729.071 264.6C733.371 272.3 735.521 281.9 735.521 293.4ZM721.271 293.85C721.271 279.55 717.721 269.1 710.621 262.5C703.621 255.8 693.671 252.45 680.771 252.45H663.221V336.45H677.771C706.771 336.45 721.271 322.25 721.271 293.85ZM787.941 266.25C797.741 266.25 804.991 268.4 809.691 272.7C814.391 277 816.741 283.85 816.741 293.25V348H807.141L804.591 336.6H803.991C800.491 341 796.791 344.25 792.891 346.35C789.091 348.45 783.791 349.5 776.991 349.5C769.691 349.5 763.641 347.6 758.841 343.8C754.041 339.9 751.641 333.85 751.641 325.65C751.641 317.65 754.791 311.5 761.091 307.2C767.391 302.8 777.091 300.4 790.191 300L803.841 299.55V294.75C803.841 288.05 802.391 283.4 799.491 280.8C796.591 278.2 792.491 276.9 787.191 276.9C782.991 276.9 778.991 277.55 775.191 278.85C771.391 280.05 767.841 281.45 764.541 283.05L760.491 273.15C763.991 271.25 768.141 269.65 772.941 268.35C777.741 266.95 782.741 266.25 787.941 266.25ZM803.691 308.7L791.841 309.15C781.841 309.55 774.891 311.15 770.991 313.95C767.191 316.75 765.291 320.7 765.291 325.8C765.291 330.3 766.641 333.6 769.341 335.7C772.141 337.8 775.691 338.85 779.991 338.85C786.791 338.85 792.441 337 796.941 333.3C801.441 329.5 803.691 323.7 803.691 315.9V308.7ZM870.073 266.1C875.373 266.1 880.123 267.1 884.323 269.1C888.623 271.1 892.273 274.15 895.273 278.25H896.023L897.823 267.6H908.323V349.35C908.323 360.85 905.373 369.5 899.473 375.3C893.673 381.1 884.623 384 872.323 384C860.523 384 850.873 382.3 843.373 378.9V366.75C851.273 370.95 861.173 373.05 873.073 373.05C879.973 373.05 885.373 371 889.273 366.9C893.273 362.9 895.273 357.4 895.273 350.4V347.25C895.273 346.05 895.323 344.35 895.423 342.15C895.523 339.85 895.623 338.25 895.723 337.35H895.123C889.723 345.45 881.423 349.5 870.223 349.5C859.823 349.5 851.673 345.85 845.773 338.55C839.973 331.25 837.073 321.05 837.073 307.95C837.073 295.15 839.973 285 845.773 277.5C851.673 269.9 859.773 266.1 870.073 266.1ZM871.873 277.2C865.173 277.2 859.973 279.9 856.273 285.3C852.573 290.6 850.723 298.2 850.723 308.1C850.723 318 852.523 325.6 856.123 330.9C859.823 336.1 865.173 338.7 872.173 338.7C880.273 338.7 886.173 336.55 889.873 332.25C893.573 327.85 895.423 320.8 895.423 311.1V307.95C895.423 296.95 893.523 289.1 889.723 284.4C885.923 279.6 879.973 277.2 871.873 277.2ZM962.358 266.1C967.658 266.1 972.408 267.1 976.608 269.1C980.908 271.1 984.558 274.15 987.558 278.25H988.308L990.108 267.6H1000.61V349.35C1000.61 360.85 997.658 369.5 991.758 375.3C985.958 381.1 976.908 384 964.608 384C952.808 384 943.158 382.3 935.658 378.9V366.75C943.558 370.95 953.458 373.05 965.358 373.05C972.258 373.05 977.658 371 981.558 366.9C985.558 362.9 987.558 357.4 987.558 350.4V347.25C987.558 346.05 987.608 344.35 987.708 342.15C987.808 339.85 987.908 338.25 988.008 337.35H987.408C982.008 345.45 973.708 349.5 962.508 349.5C952.108 349.5 943.958 345.85 938.058 338.55C932.258 331.25 929.358 321.05 929.358 307.95C929.358 295.15 932.258 285 938.058 277.5C943.958 269.9 952.058 266.1 962.358 266.1ZM964.158 277.2C957.458 277.2 952.258 279.9 948.558 285.3C944.858 290.6 943.008 298.2 943.008 308.1C943.008 318 944.808 325.6 948.408 330.9C952.108 336.1 957.458 338.7 964.458 338.7C972.558 338.7 978.458 336.55 982.158 332.25C985.858 327.85 987.708 320.8 987.708 311.1V307.95C987.708 296.95 985.808 289.1 982.008 284.4C978.208 279.6 972.258 277.2 964.158 277.2ZM1057.19 266.1C1064.09 266.1 1069.99 267.6 1074.89 270.6C1079.89 273.6 1083.69 277.85 1086.29 283.35C1088.99 288.75 1090.34 295.1 1090.34 302.4V310.35H1035.29C1035.49 319.45 1037.79 326.4 1042.19 331.2C1046.69 335.9 1052.94 338.25 1060.94 338.25C1066.04 338.25 1070.54 337.8 1074.44 336.9C1078.44 335.9 1082.54 334.5 1086.74 332.7V344.25C1082.64 346.05 1078.59 347.35 1074.59 348.15C1070.59 349.05 1065.84 349.5 1060.34 349.5C1052.74 349.5 1045.99 347.95 1040.09 344.85C1034.29 341.75 1029.74 337.15 1026.44 331.05C1023.24 324.85 1021.64 317.3 1021.64 308.4C1021.64 299.6 1023.09 292.05 1025.99 285.75C1028.99 279.45 1033.14 274.6 1038.44 271.2C1043.84 267.8 1050.09 266.1 1057.19 266.1ZM1057.04 276.9C1050.74 276.9 1045.74 278.95 1042.04 283.05C1038.44 287.05 1036.29 292.65 1035.59 299.85H1076.54C1076.44 293.05 1074.84 287.55 1071.74 283.35C1068.64 279.05 1063.74 276.9 1057.04 276.9ZM1148.31 266.1C1149.81 266.1 1151.41 266.2 1153.11 266.4C1154.91 266.5 1156.46 266.7 1157.76 267L1156.11 279.15C1154.81 278.85 1153.36 278.6 1151.76 278.4C1150.26 278.2 1148.81 278.1 1147.41 278.1C1143.31 278.1 1139.46 279.25 1135.86 281.55C1132.26 283.75 1129.36 286.9 1127.16 291C1125.06 295 1124.01 299.7 1124.01 305.1V348H1110.81V267.6H1121.61L1123.11 282.3H1123.71C1126.31 277.9 1129.66 274.1 1133.76 270.9C1137.86 267.7 1142.71 266.1 1148.31 266.1ZM1276.99 348H1206.19V337.05L1234.24 308.7C1239.64 303.3 1244.19 298.5 1247.89 294.3C1251.59 290.1 1254.39 286 1256.29 282C1258.19 277.9 1259.14 273.45 1259.14 268.65C1259.14 262.75 1257.39 258.3 1253.89 255.3C1250.39 252.2 1245.84 250.65 1240.24 250.65C1235.04 250.65 1230.44 251.55 1226.44 253.35C1222.54 255.15 1218.54 257.65 1214.44 260.85L1207.39 252C1211.59 248.5 1216.39 245.55 1221.79 243.15C1227.29 240.65 1233.44 239.4 1240.24 239.4C1250.24 239.4 1258.14 241.95 1263.94 247.05C1269.74 252.05 1272.64 259 1272.64 267.9C1272.64 273.5 1271.49 278.75 1269.19 283.65C1266.89 288.55 1263.69 293.4 1259.59 298.2C1255.49 302.9 1250.69 307.95 1245.19 313.35L1222.84 335.4V336H1276.99V348Z" fill="#61DAFB"/>
<g id="injection" filter="url(#filter0_d)">
<path id="Shape" fill-rule="evenodd" clip-rule="evenodd" d="M411.335 592.786L395.732 608.38C393.331 610.779 393.331 614.378 396.332 617.377C397.532 618.577 401.133 620.376 404.734 617.377L416.137 605.981L455.746 645.567L447.944 653.364C445.544 655.763 445.544 659.362 447.944 661.761L572.774 786.517C573.974 787.717 577.575 790.116 581.176 786.517L588.978 778.72L600.981 790.716C603.459 792.697 605.528 792.224 606.511 791.999L606.511 791.999C606.718 791.952 606.878 791.916 606.982 791.916L621.386 787.717L671.798 838.099C675.398 841.698 678.999 839.299 680.2 838.099C682.6 835.7 682.6 832.101 680.2 829.702L629.788 779.32L633.989 764.925C635.189 762.526 634.589 760.727 632.788 758.927L620.785 746.931L628.587 739.134C630.988 736.735 630.988 733.136 628.587 730.737L503.157 605.381C499.556 602.382 495.956 604.182 494.755 605.381L486.953 613.178L447.344 573.592L458.747 562.196C461.147 559.797 461.147 556.199 458.747 553.799C456.346 551.4 452.745 551.4 450.345 553.799L411.335 592.786ZM618.385 775.721L606.982 779.32L597.98 770.323L612.984 755.328L621.986 764.325L618.385 775.721ZM576.975 773.922L615.984 734.936L499.556 618.577L460.547 657.563L576.975 773.922ZM479.152 621.576L464.148 636.57L423.938 596.984L438.942 581.989L479.152 621.576Z" fill="#61DAFB"/>
<path id="Path" fill-rule="evenodd" clip-rule="evenodd" d="M510.235 641.774C512.588 644.139 512.588 647.687 510.235 650.052L492 668.382C489.059 671.339 484.941 669.565 483.765 668.382C481.412 666.017 481.412 662.469 483.765 660.104L502 641.774C504.353 639.409 507.882 639.409 510.235 641.774Z" fill="#61DAFB"/>
<path id="Path_2" fill-rule="evenodd" clip-rule="evenodd" d="M522 661.774C524.353 659.409 527.882 659.409 530.235 661.774C532.588 664.139 532.588 667.687 530.235 670.052L512 688.382C507.882 691.339 504.941 689.565 503.765 688.382C501.412 686.017 501.412 682.469 503.765 680.104L522 661.774Z" fill="#61DAFB"/>
<path id="Path_3" fill-rule="evenodd" clip-rule="evenodd" d="M544 681.759C546.353 679.414 549.882 679.414 552.235 681.759C554.588 684.104 554.588 687.622 552.235 689.967L534 708.142C530.471 711.66 526.941 709.315 525.765 708.142C523.412 705.797 523.412 702.279 525.765 699.934L544 681.759Z" fill="#61DAFB"/>
<path id="Path_4" fill-rule="evenodd" clip-rule="evenodd" d="M564 703.759C566.353 701.414 569.882 701.414 572.235 703.759C574.588 706.104 574.588 709.622 572.235 711.967L554 730.142C552.824 731.315 548.706 733.66 545.765 730.142C543.412 727.797 543.412 724.279 545.765 721.934L564 703.759Z" fill="#61DAFB"/>
<path id="Path_5" fill-rule="evenodd" clip-rule="evenodd" d="M584 723.759C586.353 721.414 589.882 721.414 592.235 723.759C594.588 726.104 594.588 729.622 592.235 731.967L574 750.142C572.824 751.315 568.706 753.66 565.765 750.142C563.412 747.797 563.412 744.279 565.765 741.934L584 723.759Z" fill="#61DAFB"/>
</g>
<g id="Frame">
<g id="Group" filter="url(#filter1_d)">
<path id="Vector" d="M1369.46 666.336C1369.46 666.336 1357.52 673.603 1377.76 675.679C1402.16 678.794 1415.14 678.275 1442.13 673.084C1442.13 673.084 1449.4 677.755 1459.26 681.389C1398.53 707.343 1321.7 679.832 1369.46 666.336H1369.46ZM1361.67 632.595C1361.67 632.595 1348.69 642.458 1368.94 644.534C1395.41 647.13 1416.18 647.648 1451.99 640.381C1451.99 640.381 1456.66 645.572 1464.45 648.168C1391.26 669.969 1309.24 650.244 1361.67 632.595H1361.67ZM1504.94 691.771C1504.94 691.771 1513.76 699.038 1495.08 704.748C1460.3 715.13 1349.21 718.244 1318.07 704.748C1307.17 700.076 1327.93 693.328 1334.68 692.29C1341.43 690.733 1345.06 690.733 1345.06 690.733C1333.12 682.427 1265.64 707.862 1310.8 715.129C1434.86 735.374 1537.12 706.305 1504.94 691.771H1504.94ZM1375.17 597.298C1375.17 597.298 1318.59 610.794 1354.92 615.465C1370.5 617.542 1401.12 617.023 1429.67 614.946C1453.03 612.87 1476.39 608.717 1476.39 608.717C1476.39 608.717 1468.08 612.351 1462.37 615.985C1404.76 631.038 1294.19 624.29 1325.85 608.717C1352.85 595.74 1375.17 597.298 1375.17 597.298H1375.17ZM1476.39 653.878C1534.53 623.771 1507.53 594.702 1488.85 598.336C1484.18 599.374 1482.1 600.412 1482.1 600.412C1482.1 600.412 1483.66 597.298 1487.29 596.26C1524.15 583.282 1553.21 635.191 1475.35 655.435C1475.35 655.435 1475.87 654.916 1476.39 653.878ZM1380.88 735.893C1436.94 739.527 1522.59 733.817 1524.66 707.343C1524.66 707.343 1520.51 717.725 1478.46 725.511C1430.71 734.336 1371.53 733.297 1336.76 727.587C1336.76 727.587 1344.02 733.817 1380.88 735.893H1380.88Z" fill="#4E7896"/>
<path id="Vector_2" d="M1441.09 426C1441.09 426 1473.28 458.702 1410.47 508.015C1360.11 547.984 1399.05 570.824 1410.47 596.778C1380.88 570.305 1359.6 546.946 1374.13 525.145C1395.41 492.961 1454.07 477.389 1441.09 426V426ZM1424.48 574.977C1439.53 592.107 1420.33 607.68 1420.33 607.68C1420.33 607.68 1458.74 587.954 1441.09 563.557C1425 540.199 1412.54 528.779 1480.02 489.847C1480.02 489.847 1373.61 516.321 1424.48 574.977ZM1386.07 853.725V802.855C1386.07 789.877 1378.8 781.053 1360.63 781.053C1350.25 781.053 1341.43 783.649 1333.64 786.763L1336.24 796.106C1341.95 794.03 1349.21 791.954 1357 791.954C1366.86 791.954 1371.53 796.106 1371.53 804.412V811.16H1366.34C1341.43 811.16 1330.01 820.504 1330.01 835.557C1330.01 848.015 1337.79 855.282 1351.81 855.282C1360.63 855.282 1367.38 851.129 1373.61 845.939L1374.65 853.725H1386.07ZM1371.53 837.114C1366.34 841.786 1360.63 844.382 1355.44 844.382C1348.7 844.382 1344.54 840.229 1344.54 832.962C1344.54 825.694 1348.7 820.504 1365.31 820.504H1371.53L1371.53 837.114H1371.53ZM1434.86 853.725H1416.7L1394.89 782.61H1410.47L1423.96 826.213L1427.08 839.19C1433.83 820.504 1439.02 801.297 1441.09 782.61H1456.66C1452.51 805.969 1445.25 831.404 1434.86 853.725ZM1518.95 853.725V802.855C1518.95 789.877 1511.69 781.053 1493.52 781.053C1483.14 781.053 1474.31 783.649 1466.53 786.763L1468.6 796.106C1474.83 794.03 1482.1 791.954 1489.89 791.954C1499.75 791.954 1504.42 796.106 1504.42 804.412V811.16H1499.23C1474.31 811.16 1462.89 820.504 1462.89 835.557C1462.89 848.015 1470.16 855.282 1484.18 855.282C1493.52 855.282 1500.27 851.129 1506.5 845.939L1507.54 853.725H1518.95ZM1504.42 837.114C1499.23 841.786 1493.52 844.382 1488.33 844.382C1481.58 844.382 1477.43 840.229 1477.43 832.962C1477.43 825.694 1481.58 820.504 1498.19 820.504H1504.42V837.114ZM1313.92 865.664C1309.76 871.893 1303.53 876.565 1295.75 879.16L1289 870.854C1294.19 867.74 1299.38 863.069 1301.46 858.916C1303.53 855.282 1304.05 850.091 1304.05 838.152V757.175H1319.63V837.114C1319.63 853.206 1318.07 859.435 1313.92 865.664Z" fill="#F58219"/>
</g>
</g>
</g>
<defs>
<filter id="filter0_d" x="386" y="548" width="304" height="304" filterUnits="userSpaceOnUse" color-interpolation-filters="sRGB">
<feFlood flood-opacity="0" result="BackgroundImageFix"/>
<feColorMatrix in="SourceAlpha" type="matrix" values="0 0 0 0 0 0 0 0 0 0 0 0 0 0 0 0 0 0 127 0"/>
<feOffset dy="4"/>
<feGaussianBlur stdDeviation="4"/>
<feColorMatrix type="matrix" values="0 0 0 0 0 0 0 0 0 0 0 0 0 0 0 0 0 0 0.5 0"/>
<feBlend mode="normal" in2="BackgroundImageFix" result="effect1_dropShadow"/>
<feBlend mode="normal" in="SourceGraphic" in2="effect1_dropShadow" result="shape"/>
</filter>
<filter id="filter1_d" x="1285" y="424" width="243.663" height="461.16" filterUnits="userSpaceOnUse" color-interpolation-filters="sRGB">
<feFlood flood-opacity="0" result="BackgroundImageFix"/>
<feColorMatrix in="SourceAlpha" type="matrix" values="0 0 0 0 0 0 0 0 0 0 0 0 0 0 0 0 0 0 127 0"/>
<feOffset dy="2"/>
<feGaussianBlur stdDeviation="2"/>
<feColorMatrix type="matrix" values="0 0 0 0 0 0 0 0 0 0 0 0 0 0 0 0 0 0 0.5 0"/>
<feBlend mode="normal" in2="BackgroundImageFix" result="effect1_dropShadow"/>
<feBlend mode="normal" in="SourceGraphic" in2="effect1_dropShadow" result="shape"/>
</filter>
<linearGradient id="paint0_linear" x1="948.605" y1="-540" x2="31.2584" y2="1110.2" gradientUnits="userSpaceOnUse">
<stop stop-color="#0B0B0B" stop-opacity="0.01"/>
<stop offset="1"/>
</linearGradient>
</defs>
</svg>
