<?xml version="1.0" encoding="UTF-8"?>
<svg width="1920px" height="1080px" viewBox="0 0 1920 1080" version="1.1" xmlns="http://www.w3.org/2000/svg" xmlns:xlink="http://www.w3.org/1999/xlink">
    <!-- Generator: Sketch 52.2 (67145) - http://www.bohemiancoding.com/sketch -->
    <title>DI_java</title>
    <desc>Created with Sketch.</desc>
    <defs>
        <linearGradient x1="100%" y1="0%" x2="0%" y2="101.186989%" id="linearGradient-1">
            <stop stop-color="#0B0B0B" stop-opacity="0" offset="0%"></stop>
            <stop stop-color="#000000" offset="100%"></stop>
        </linearGradient>
        <rect id="path-2" x="1" y="-6" width="1920" height="1080"></rect>
        <filter x="-8.0%" y="-8.0%" width="116.0%" height="116.0%" filterUnits="objectBoundingBox" id="filter-3">
            <feOffset dx="0" dy="4" in="SourceAlpha" result="shadowOffsetOuter1"></feOffset>
            <feGaussianBlur stdDeviation="4" in="shadowOffsetOuter1" result="shadowBlurOuter1"></feGaussianBlur>
            <feColorMatrix values="0 0 0 0 0   0 0 0 0 0   0 0 0 0 0  0 0 0 0.5 0" type="matrix" in="shadowBlurOuter1" result="shadowMatrixOuter1"></feColorMatrix>
            <feMerge>
                <feMergeNode in="shadowMatrixOuter1"></feMergeNode>
                <feMergeNode in="SourceGraphic"></feMergeNode>
            </feMerge>
        </filter>
        <filter x="-5.0%" y="-2.6%" width="110.1%" height="105.3%" filterUnits="objectBoundingBox" id="filter-4">
            <feOffset dx="0" dy="2" in="SourceAlpha" result="shadowOffsetOuter1"></feOffset>
            <feGaussianBlur stdDeviation="2" in="shadowOffsetOuter1" result="shadowBlurOuter1"></feGaussianBlur>
            <feColorMatrix values="0 0 0 0 0   0 0 0 0 0   0 0 0 0 0  0 0 0 0.5 0" type="matrix" in="shadowBlurOuter1" result="shadowMatrixOuter1"></feColorMatrix>
            <feMerge>
                <feMergeNode in="shadowMatrixOuter1"></feMergeNode>
                <feMergeNode in="SourceGraphic"></feMergeNode>
            </feMerge>
        </filter>
    </defs>
    <g id="DI_java" stroke="none" stroke-width="1" fill="none" fill-rule="evenodd">
        <g id="Rectangle">
            <use fill="#323232" xlink:href="#path-2"></use>
            <use fill-opacity="0.15" fill="url(#linearGradient-1)" xlink:href="#path-2"></use>
        </g>
        <text id="Depedency-Injection" font-family="GoogleSans-Regular, Google Sans" font-size="80" font-weight="normal" fill="#9B9B9B">
            <tspan x="501.66" y="170">Depedency Injection with</tspan>
        </text>
        <text id="Dagger-2" font-family="GoogleSans-Regular, Google Sans" font-size="150" font-weight="normal" fill="#61DAFB">
            <tspan x="652.4" y="333">Dagger 2</tspan>
        </text>
        <g id="injection" filter="url(#filter-3)" transform="translate(538.000000, 696.000000) scale(-1, 1) translate(-538.000000, -696.000000) translate(394.000000, 552.000000)" fill="#61DAFB">
            <path d="M286.268324,56.3801592 C286.268324,56.3801592 270.6646,40.785647 270.6646,40.785647 L231.655289,1.79936678 C229.254716,-0.599788927 225.653857,-0.599788927 223.253284,1.79936678 C220.852711,4.19852249 220.852711,7.79725605 223.253284,10.1964118 L234.656005,21.5924014 L195.046552,61.1784706 L187.24469,53.3812145 C186.044403,52.1816367 182.443544,50.3822699 178.842684,53.3812145 L53.412748,178.7371 C51.0121751,181.136256 51.0121751,184.73499 53.412748,187.134145 L61.2146101,194.931401 L49.2117454,206.92718 C47.4113157,208.726547 46.8111724,210.525913 48.0114589,212.925069 L52.2124616,227.320003 L1.80042971,277.702273 C-0.600143236,280.101429 -0.600143236,283.700163 1.80042971,286.099318 C3.00071618,287.298896 6.6015756,289.698052 10.202435,286.099318 L60.6144669,235.717048 L75.0179046,239.915571 C75.6180478,239.915571 78.0186207,241.115149 81.0193369,238.715993 L93.0222016,226.720214 L100.824064,234.517471 C104.424923,238.116204 108.025783,235.717048 109.226069,234.517471 L234.055862,109.761374 C236.456435,107.362218 236.456435,103.763484 234.055862,101.364329 L226.254,93.5670726 L265.863454,53.9810034 L277.266175,65.3769931 C280.867035,68.3759377 284.467894,66.5765709 285.668181,65.3769931 C288.668897,62.3780484 288.668897,58.7793149 286.268324,56.3801592 Z M75.0179046,227.320003 L63.6151831,223.72127 L60.0143236,212.32528 L69.0164722,203.328446 L84.0200531,218.323169 L75.0179046,227.320003 Z M105.025066,221.921903 C93.6223449,210.525913 66.015756,182.935623 66.015756,182.935623 L182.443544,66.5765709 L221.452854,105.562851 L105.025066,221.921903 Z M217.851995,84.5702387 L202.848414,69.5755156 L243.058011,29.9894464 L258.061592,44.9841695 L217.851995,84.5702387 Z" id="Shape" fill-rule="nonzero"></path>
            <path d="M171.764706,89.7738788 C169.411765,92.1390505 169.411765,95.6868081 171.764706,98.0519799 L190,116.382061 C192.941176,119.338525 197.058824,117.564647 198.235294,116.382061 C200.588235,114.016889 200.588235,110.469131 198.235294,108.10396 L180,89.7738788 C177.647059,87.4087071 174.117647,87.4087071 171.764706,89.7738788 Z" id="Path"></path>
            <path d="M160,109.773879 C157.647059,107.408707 154.117647,107.408707 151.764706,109.773879 C149.411765,112.139051 149.411765,115.686808 151.764706,118.05198 L170,136.382061 C174.117647,139.338525 177.058824,137.564647 178.235294,136.382061 C180.588235,134.016889 180.588235,130.469131 178.235294,128.10396 L160,109.773879 Z" id="Path"></path>
            <path d="M138,129.75888 C135.647059,127.413707 132.117647,127.413707 129.764706,129.75888 C127.411765,132.104054 127.411765,135.621815 129.764706,137.966988 L148,156.142084 C151.529412,159.659845 155.058824,157.314671 156.235294,156.142084 C158.588235,153.796911 158.588235,150.27915 156.235294,147.933976 L138,129.75888 Z" id="Path"></path>
            <path d="M118,151.75888 C115.647059,149.413707 112.117647,149.413707 109.764706,151.75888 C107.411765,154.104054 107.411765,157.621815 109.764706,159.966988 L128,178.142084 C129.176471,179.314671 133.294118,181.659845 136.235294,178.142084 C138.588235,175.796911 138.588235,172.27915 136.235294,169.933976 L118,151.75888 Z" id="Path"></path>
            <path d="M98,171.75888 C95.6470588,169.413707 92.1176471,169.413707 89.7647059,171.75888 C87.4117647,174.104054 87.4117647,177.621815 89.7647059,179.966988 L108,198.142084 C109.176471,199.314671 113.294118,201.659845 116.235294,198.142084 C118.588235,195.796911 118.588235,192.27915 116.235294,189.933976 L98,171.75888 Z" id="Path"></path>
        </g>
        <g id="Java-Logo" filter="url(#filter-4)" transform="translate(1205.000000, 468.000000)" fill-rule="nonzero">
            <path d="M81.4582,242.3356 C81.4582,242.3356 69.5191,249.6028 89.76345,251.67911 C114.16015,254.79348 127.13755,254.27487 154.12975,249.08377 C154.12975,249.08377 161.39695,253.75542 171.25945,257.38923 C110.52675,283.34343 33.70245,255.83153 81.45815,242.33563 L81.4582,242.3356 Z M73.67177,208.5954 C73.67177,208.5954 60.69487,218.45773 80.93897,220.534 C107.41247,223.12976 128.17577,223.64837 163.99237,216.38137 C163.99237,216.38137 168.66423,221.57226 176.45027,224.1678 C103.25967,245.9694 21.24427,226.24411 73.67227,208.5953 L73.67177,208.5954 Z M216.93877,267.7708 C216.93877,267.7708 225.76326,275.03821 207.07623,280.7477 C172.29753,291.1295 61.21323,294.2438 30.06823,280.7477 C19.16763,276.07626 39.93098,269.3279 46.67873,268.2898 C53.4269,266.73272 57.06033,266.73272 57.06033,266.73272 C45.12193,258.42726 -22.35917,283.86222 22.80083,291.12942 C146.86183,311.37372 249.12183,282.30514 216.93783,267.77072 L216.93877,267.7708 Z M87.16777,173.2976 C87.16777,173.2976 30.58787,186.7937 66.92387,191.4654 C82.49637,193.5415 113.12217,193.0229 141.67197,190.94637 C165.03047,188.87006 188.38957,184.71743 188.38957,184.71743 C188.38957,184.71743 180.08411,188.35082 174.37397,191.98484 C116.75607,207.03784 6.19097,200.28988 37.85497,184.71743 C64.84727,171.74013 87.16747,173.29763 87.16747,173.29763 L87.16777,173.2976 Z M188.38977,229.8775 C246.52697,199.7706 219.53487,170.7021 200.84767,174.3359 C196.17581,175.37395 194.0995,176.41221 194.0995,176.41221 C194.0995,176.41221 195.65679,173.29764 199.29018,172.25958 C236.14538,159.28228 265.21398,211.19048 187.35178,231.43478 C187.35178,231.43478 187.87039,230.91575 188.38983,229.87749 L188.38977,229.8775 Z M92.87807,311.8928 C148.93937,315.52661 234.58807,309.81649 236.66407,283.3434 C236.66407,283.3434 232.51165,293.7252 190.46597,301.511 C142.71017,310.3357 83.53497,309.29743 48.75597,303.58731 C48.75597,303.58731 56.02296,309.81646 92.87797,311.89277 L92.87807,311.8928 Z" id="_227268128" fill="#4E7896"></path>
            <path d="M153.092,1.99999 C153.092,1.99999 185.2752,34.70219 122.4659,84.01529 C72.1147,123.98449 111.0461,146.82409 122.4659,172.77819 C92.8781,146.30539 71.5957,122.94629 86.1299,101.14469 C107.4127,68.96149 166.0689,53.38929 153.092,2.00009 L153.092,1.99999 Z M136.4815,150.97699 C151.5345,168.10689 132.32867,183.67959 132.32867,183.67959 C132.32867,183.67959 170.74077,163.95429 153.09197,139.55719 C137.00007,116.19869 124.54217,104.77889 192.02307,65.84739 C192.02307,65.84739 85.61107,92.32089 136.48147,150.97709 L136.4815,150.97699 Z M98.0692,429.72499 L98.0692,378.85479 C98.0692,365.87729 90.802,357.05319 72.6338,357.05319 C62.2522,357.05319 53.4277,359.64853 45.6413,362.76289 L48.23706,372.1064 C53.94676,370.03009 61.21396,367.95357 69.00036,367.95357 C78.8629,367.95357 83.53456,372.1064 83.53456,380.41187 L83.53456,387.16004 L78.34388,387.16004 C53.42768,387.16004 42.00788,396.50355 42.00788,411.55674 C42.00788,424.01484 49.79411,431.28204 63.80948,431.28204 C72.63376,431.28204 79.38218,427.12921 85.61108,421.93853 L86.64934,429.72496 L98.06914,429.72496 L98.0692,429.72499 Z M83.5346,413.11409 C78.34392,417.78574 72.6338,420.3815 67.4429,420.3815 C60.69514,420.3815 56.5425,416.22887 56.5425,408.9617 C56.5425,401.69429 60.69513,396.5036 77.3058,396.5036 L83.5346,396.5036 L83.53453,413.1141 L83.5346,413.11409 Z M146.8631,429.72499 L128.6947,429.72499 L106.8933,358.61029 L122.466,358.61029 L135.9621,402.21329 L139.07647,415.19039 C145.82464,396.50359 151.01577,377.29709 153.09207,358.61029 L168.66457,358.61029 C164.51194,381.96919 157.24497,407.40399 146.86317,429.72499 L146.8631,429.72499 Z M230.9545,429.72499 L230.9545,378.85479 C230.9545,365.87729 223.6873,357.05319 205.5193,357.05319 C195.1375,357.05319 186.3132,359.64853 178.5268,362.76289 L180.60332,372.1064 C186.83226,370.03009 194.09942,367.95357 201.88592,367.95357 C211.74846,367.95357 216.42012,372.1064 216.42012,380.41187 L216.42012,387.16004 L211.22944,387.16004 C186.31324,387.16004 174.89344,396.50355 174.89344,411.55674 C174.89344,424.01484 182.16064,431.28204 196.17584,431.28204 C205.51935,431.28204 212.26754,427.12921 218.49664,421.93853 L219.5349,429.72496 L230.9545,429.72496 L230.9545,429.72499 Z M216.4201,413.11409 C211.22942,417.78574 205.5193,420.3815 200.3282,420.3815 C193.58044,420.3815 189.4278,416.22887 189.4278,408.9617 C189.4278,401.69429 193.58043,396.5036 210.1911,396.5036 L216.4201,396.5036 L216.42004,413.1141 L216.4201,413.11409 Z M25.9161,441.66369 C21.76347,447.89263 15.5343,452.56469 7.7485,455.15979 L1.00012,446.85433 C6.1908,443.73996 11.38192,439.06852 13.45802,434.91573 C15.53433,431.28213 16.05378,426.09103 16.05378,414.15243 L16.05378,333.17543 L31.62628,333.17543 L31.62628,413.11423 C31.62628,429.20573 30.06899,435.43463 25.91616,441.66383 L25.9161,441.66369 Z" id="_230367536" fill="#F58219"></path>
        </g>
    </g>
</svg>