<?xml version="1.0" encoding="UTF-8"?>
<svg width="1920px" height="1080px" viewBox="0 0 1920 1080" version="1.1" xmlns="http://www.w3.org/2000/svg" xmlns:xlink="http://www.w3.org/1999/xlink">
    <!-- Generator: Sketch 52.2 (67145) - http://www.bohemiancoding.com/sketch -->
    <title>DI_kotlin</title>
    <desc>Created with Sketch.</desc>
    <defs>
        <linearGradient x1="100%" y1="0%" x2="0%" y2="101.186989%" id="linearGradient-1">
            <stop stop-color="#0B0B0B" stop-opacity="0" offset="0%"></stop>
            <stop stop-color="#000000" offset="100%"></stop>
        </linearGradient>
        <rect id="path-2" x="1" y="-6" width="1920" height="1080"></rect>
        <filter x="-22.5%" y="-22.5%" width="145.1%" height="145.1%" filterUnits="objectBoundingBox" id="filter-3">
            <feOffset dx="11" dy="11" in="SourceAlpha" result="shadowOffsetOuter1"></feOffset>
            <feGaussianBlur stdDeviation="13.5" in="shadowOffsetOuter1" result="shadowBlurOuter1"></feGaussianBlur>
            <feColorMatrix values="0 0 0 0 0   0 0 0 0 0   0 0 0 0 0  0 0 0 0.5 0" type="matrix" in="shadowBlurOuter1" result="shadowMatrixOuter1"></feColorMatrix>
            <feMerge>
                <feMergeNode in="shadowMatrixOuter1"></feMergeNode>
                <feMergeNode in="SourceGraphic"></feMergeNode>
            </feMerge>
        </filter>
        <linearGradient x1="26.599%" y1="146.559136%" x2="73.8446667%" y2="52.3813953%" id="linearGradient-4">
            <stop stop-color="#0095D5" offset="9.677%"></stop>
            <stop stop-color="#238AD9" offset="30.07%"></stop>
            <stop stop-color="#557BDE" offset="62.11%"></stop>
            <stop stop-color="#7472E2" offset="86.43%"></stop>
            <stop stop-color="#806EE3" offset="100%"></stop>
        </linearGradient>
        <linearGradient x1="13.9840532%" y1="37.1049231%" x2="68.682392%" y2="-13.5538462%" id="linearGradient-5">
            <stop stop-color="#0095D5" offset="11.83%"></stop>
            <stop stop-color="#3C83DC" offset="41.78%"></stop>
            <stop stop-color="#6D74E1" offset="69.62%"></stop>
            <stop stop-color="#806EE3" offset="83.33%"></stop>
        </linearGradient>
        <linearGradient x1="-16.8361667%" y1="91.9396667%" x2="76.2191667%" y2="-1.11566667%" id="linearGradient-6">
            <stop stop-color="#C757BC" offset="10.75%"></stop>
            <stop stop-color="#D0609A" offset="21.38%"></stop>
            <stop stop-color="#E1725C" offset="42.54%"></stop>
            <stop stop-color="#EE7E2F" offset="60.48%"></stop>
            <stop stop-color="#F58613" offset="74.3%"></stop>
            <stop stop-color="#F88909" offset="82.32%"></stop>
        </linearGradient>
        <filter x="-8.0%" y="-8.0%" width="116.0%" height="116.0%" filterUnits="objectBoundingBox" id="filter-7">
            <feOffset dx="0" dy="4" in="SourceAlpha" result="shadowOffsetOuter1"></feOffset>
            <feGaussianBlur stdDeviation="4" in="shadowOffsetOuter1" result="shadowBlurOuter1"></feGaussianBlur>
            <feColorMatrix values="0 0 0 0 0   0 0 0 0 0   0 0 0 0 0  0 0 0 0.5 0" type="matrix" in="shadowBlurOuter1" result="shadowMatrixOuter1"></feColorMatrix>
            <feMerge>
                <feMergeNode in="shadowMatrixOuter1"></feMergeNode>
                <feMergeNode in="SourceGraphic"></feMergeNode>
            </feMerge>
        </filter>
    </defs>
    <g id="DI_kotlin" stroke="none" stroke-width="1" fill="none" fill-rule="evenodd">
        <g id="Rectangle">
            <use fill="#323232" xlink:href="#path-2"></use>
            <use fill-opacity="0.15" fill="url(#linearGradient-1)" xlink:href="#path-2"></use>
        </g>
        <text id="Depedency-Injection" font-family="GoogleSans-Regular, Google Sans" font-size="80" font-weight="normal" fill="#9B9B9B">
            <tspan x="501.66" y="170">Depedency Injection with</tspan>
        </text>
        <text id="Dagger-2-and-Kotlin" font-family="GoogleSans-Regular, Google Sans" font-size="150" font-weight="normal" fill="#61DAFB">
            <tspan x="298.925" y="333">Dagger 2 and Kotlin</tspan>
        </text>
        <g id="Kotlin-logo" filter="url(#filter-3)" transform="translate(1195.000000, 534.000000)" fill-rule="nonzero">
            <polygon id="XMLID_2_" fill="url(#linearGradient-4)" points="0 324 162.54 161.46 324 324"></polygon>
            <polygon id="Shape" fill="url(#linearGradient-5)" points="0 0 162.54 0 0 175.5"></polygon>
            <polygon id="Shape" fill="url(#linearGradient-6)" points="162.54 0 0 171.18 0 324 162.54 161.46 324 0"></polygon>
        </g>
        <g id="injection" filter="url(#filter-7)" transform="translate(538.000000, 696.000000) scale(-1, 1) translate(-538.000000, -696.000000) translate(394.000000, 552.000000)" fill="#61DAFB">
            <path d="M286.268324,56.3801592 C286.268324,56.3801592 270.6646,40.785647 270.6646,40.785647 L231.655289,1.79936678 C229.254716,-0.599788927 225.653857,-0.599788927 223.253284,1.79936678 C220.852711,4.19852249 220.852711,7.79725605 223.253284,10.1964118 L234.656005,21.5924014 L195.046552,61.1784706 L187.24469,53.3812145 C186.044403,52.1816367 182.443544,50.3822699 178.842684,53.3812145 L53.412748,178.7371 C51.0121751,181.136256 51.0121751,184.73499 53.412748,187.134145 L61.2146101,194.931401 L49.2117454,206.92718 C47.4113157,208.726547 46.8111724,210.525913 48.0114589,212.925069 L52.2124616,227.320003 L1.80042971,277.702273 C-0.600143236,280.101429 -0.600143236,283.700163 1.80042971,286.099318 C3.00071618,287.298896 6.6015756,289.698052 10.202435,286.099318 L60.6144669,235.717048 L75.0179046,239.915571 C75.6180478,239.915571 78.0186207,241.115149 81.0193369,238.715993 L93.0222016,226.720214 L100.824064,234.517471 C104.424923,238.116204 108.025783,235.717048 109.226069,234.517471 L234.055862,109.761374 C236.456435,107.362218 236.456435,103.763484 234.055862,101.364329 L226.254,93.5670726 L265.863454,53.9810034 L277.266175,65.3769931 C280.867035,68.3759377 284.467894,66.5765709 285.668181,65.3769931 C288.668897,62.3780484 288.668897,58.7793149 286.268324,56.3801592 Z M75.0179046,227.320003 L63.6151831,223.72127 L60.0143236,212.32528 L69.0164722,203.328446 L84.0200531,218.323169 L75.0179046,227.320003 Z M105.025066,221.921903 C93.6223449,210.525913 66.015756,182.935623 66.015756,182.935623 L182.443544,66.5765709 L221.452854,105.562851 L105.025066,221.921903 Z M217.851995,84.5702387 L202.848414,69.5755156 L243.058011,29.9894464 L258.061592,44.9841695 L217.851995,84.5702387 Z" id="Shape" fill-rule="nonzero"></path>
            <path d="M171.764706,89.7738788 C169.411765,92.1390505 169.411765,95.6868081 171.764706,98.0519799 L190,116.382061 C192.941176,119.338525 197.058824,117.564647 198.235294,116.382061 C200.588235,114.016889 200.588235,110.469131 198.235294,108.10396 L180,89.7738788 C177.647059,87.4087071 174.117647,87.4087071 171.764706,89.7738788 Z" id="Path"></path>
            <path d="M160,109.773879 C157.647059,107.408707 154.117647,107.408707 151.764706,109.773879 C149.411765,112.139051 149.411765,115.686808 151.764706,118.05198 L170,136.382061 C174.117647,139.338525 177.058824,137.564647 178.235294,136.382061 C180.588235,134.016889 180.588235,130.469131 178.235294,128.10396 L160,109.773879 Z" id="Path"></path>
            <path d="M138,129.75888 C135.647059,127.413707 132.117647,127.413707 129.764706,129.75888 C127.411765,132.104054 127.411765,135.621815 129.764706,137.966988 L148,156.142084 C151.529412,159.659845 155.058824,157.314671 156.235294,156.142084 C158.588235,153.796911 158.588235,150.27915 156.235294,147.933976 L138,129.75888 Z" id="Path"></path>
            <path d="M118,151.75888 C115.647059,149.413707 112.117647,149.413707 109.764706,151.75888 C107.411765,154.104054 107.411765,157.621815 109.764706,159.966988 L128,178.142084 C129.176471,179.314671 133.294118,181.659845 136.235294,178.142084 C138.588235,175.796911 138.588235,172.27915 136.235294,169.933976 L118,151.75888 Z" id="Path"></path>
            <path d="M98,171.75888 C95.6470588,169.413707 92.1176471,169.413707 89.7647059,171.75888 C87.4117647,174.104054 87.4117647,177.621815 89.7647059,179.966988 L108,198.142084 C109.176471,199.314671 113.294118,201.659845 116.235294,198.142084 C118.588235,195.796911 118.588235,192.27915 116.235294,189.933976 L98,171.75888 Z" id="Path"></path>
        </g>
    </g>
</svg>