<svg width="1448" height="236" viewBox="0 0 1448 236" fill="none" xmlns="http://www.w3.org/2000/svg">
<circle cx="115.655" cy="117.834" r="115.197" fill="white"/>
<circle cx="115.655" cy="117.834" r="104.201" fill="#192838"/>
<path fill-rule="evenodd" clip-rule="evenodd" d="M144.851 53.1621C145.635 51.7374 147.425 51.2178 148.85 52.0015L155.75 55.7972C157.175 56.5809 157.694 58.3711 156.911 59.7958L97.4214 167.941L101.921 170.416C103.346 171.2 103.865 172.99 103.081 174.415L99.2844 181.317C98.5007 182.742 96.7105 183.262 95.2859 182.478L81.3065 174.788C79.9752 174.056 79.4342 172.445 80.0085 171.074C80.0296 171.024 80.0522 170.974 80.0763 170.924C80.0983 170.879 80.1215 170.834 80.146 170.789L84.4249 163.011C74.1259 165.663 62.8339 164.548 52.7802 159.018C31.8379 147.498 24.1997 121.182 35.7198 100.239C47.2399 79.2971 73.5559 71.6589 94.4981 83.179C104.552 88.7094 111.539 97.6496 114.813 107.768L144.851 53.1621ZM99.4347 135.287C91.5979 149.534 73.6961 154.73 59.4497 146.893C45.2034 139.056 40.0074 121.154 47.8441 106.908C55.6808 92.6617 73.5827 87.4657 87.829 95.3024C102.075 103.139 107.271 121.041 99.4347 135.287Z" fill="white"/>
<path d="M191.404 79.5414C191.42 79.5122 191.436 79.4829 191.451 79.4534L191.973 78.5105C192.759 77.0883 192.244 75.2978 190.822 74.5112L176.857 66.7878C175.435 66.0013 173.644 66.5166 172.858 67.9388L169.157 74.6305C168.37 76.0527 168.886 77.8432 170.308 78.6297L174.809 81.1193L120.042 180.146L115.429 177.595C114.007 176.809 112.216 177.324 111.43 178.746L107.729 185.438C106.942 186.86 107.458 188.651 108.88 189.437L130.144 201.198C131.566 201.984 133.357 201.469 134.143 200.047L137.274 194.385C138.376 192.394 137.654 189.887 135.663 188.786L132.08 186.804L188.231 85.276C188.245 85.2519 188.259 85.2275 188.273 85.2028L191.404 79.5414Z" fill="#07A8EB"/>
<path fill-rule="evenodd" clip-rule="evenodd" d="M370.052 3.92768C370.047 1.95447 371.643 0.351225 373.617 0.346733L383.174 0.324961C385.147 0.320468 386.75 1.91642 386.755 3.88963L387.096 153.676L393.328 153.662C395.301 153.657 396.905 155.253 396.909 157.227L396.931 166.787C396.935 168.761 395.339 170.364 393.366 170.368L374.004 170.412C372.16 170.417 370.639 169.023 370.444 167.23C370.437 167.165 370.432 167.098 370.428 167.031C370.425 166.97 370.423 166.909 370.423 166.847L370.399 156.074C361.019 164.94 348.372 170.388 334.448 170.419C305.441 170.485 281.874 147.025 281.808 118.019C281.742 89.0126 305.202 65.4449 334.208 65.3788C348.133 65.3471 360.805 70.7374 370.224 79.5602L370.052 3.92768ZM370.056 117.817C370.101 137.549 354.141 153.581 334.409 153.626C314.677 153.671 298.645 137.712 298.6 117.98C298.555 98.2477 314.515 82.2154 334.246 82.1705C353.978 82.1255 370.011 98.085 370.056 117.817Z" fill="white"/>
<path fill-rule="evenodd" clip-rule="evenodd" d="M453.903 170.413C473.727 170.413 490.985 159.43 499.926 143.217C501.696 140.007 499.181 136.339 495.515 136.339H487.471C485.632 136.339 483.951 137.319 482.873 138.809C476.383 147.783 465.825 153.621 453.903 153.621C439.176 153.621 426.53 144.711 421.062 131.988C419.734 128.897 422.238 125.755 425.602 125.755H501.318C503.917 125.755 506.153 123.854 506.318 121.26C506.388 120.147 506.424 119.024 506.424 117.892C506.424 88.8858 482.91 65.3716 453.903 65.3716C424.897 65.3716 401.383 88.8858 401.383 117.892C401.383 146.898 424.897 170.413 453.903 170.413ZM481.775 109.048C485.2 109.048 487.709 105.798 486.251 102.698C480.541 90.5631 468.203 82.1626 453.903 82.1626C439.604 82.1626 427.266 90.5631 421.556 102.698C420.098 105.798 422.607 109.048 426.032 109.048H481.775Z" fill="white"/>
<path d="M510.105 68.8183C507.517 70.127 506.48 73.2857 507.789 75.8733L553.263 165.787C554.653 168.535 557.355 170.184 560.222 170.357C563.628 170.788 567.088 169.076 568.726 165.837L614.202 75.9212C615.51 73.3336 614.473 70.175 611.886 68.8663L606.348 66.0654C603.76 64.7567 600.602 65.7934 599.293 68.3811L561.007 144.081L522.698 68.3331C521.389 65.7455 518.23 64.7087 515.643 66.0174L510.105 68.8183Z" fill="white"/>
<path fill-rule="evenodd" clip-rule="evenodd" d="M668.288 170.539C688.111 170.539 705.37 159.556 714.31 143.344C716.081 140.133 713.566 136.466 709.899 136.466H701.855C700.017 136.466 698.336 137.446 697.258 138.936C690.767 147.909 680.21 153.748 668.288 153.748C653.561 153.748 640.915 144.838 635.447 132.114C634.118 129.024 636.623 125.881 639.987 125.881H715.703C718.302 125.881 720.538 123.98 720.702 121.387C720.773 120.273 720.809 119.15 720.809 118.019C720.809 89.0123 697.294 65.498 668.288 65.498C639.282 65.498 615.768 89.0123 615.768 118.019C615.768 147.025 639.282 170.539 668.288 170.539ZM696.159 109.174C699.585 109.174 702.094 105.924 700.635 102.825C694.925 90.6895 682.588 82.289 668.288 82.289C653.988 82.289 641.651 90.6895 635.941 102.825C634.482 105.924 636.991 109.174 640.417 109.174H696.159Z" fill="white"/>
<path d="M735.875 16.8202H729.631C727.659 16.8202 726.06 15.2214 726.06 13.2491L726.06 3.96904C726.06 1.99678 727.659 0.397949 729.631 0.397949H748.999C750.971 0.397949 752.57 1.99678 752.57 3.96904V5.32916C752.57 5.35206 752.57 5.37498 752.57 5.39795V13.2491C752.57 13.2685 752.57 13.2879 752.57 13.3072V154.07H757.538C760.299 154.07 762.538 156.308 762.538 159.07V166.921C762.538 168.893 760.939 170.492 758.967 170.492H729.477C727.505 170.492 725.906 168.893 725.906 166.921V157.641C725.906 155.669 727.505 154.07 729.477 154.07H735.875V16.8202Z" fill="white"/>
<path fill-rule="evenodd" clip-rule="evenodd" d="M819.405 170.492C848.411 170.492 871.926 146.978 871.926 117.972C871.926 88.9654 848.411 65.4512 819.405 65.4512C790.399 65.4512 766.885 88.9654 766.885 117.972C766.885 146.978 790.399 170.492 819.405 170.492ZM819.405 153.701C839.138 153.701 855.135 137.704 855.135 117.972C855.135 98.2388 839.138 82.2422 819.405 82.2422C799.672 82.2422 783.676 98.2388 783.676 117.972C783.676 137.704 799.672 153.701 819.405 153.701Z" fill="white"/>
<path fill-rule="evenodd" clip-rule="evenodd" d="M991.436 117.78C991.436 146.786 967.921 170.301 938.915 170.301C925.069 170.301 912.474 164.943 903.091 156.187V230.1C903.091 233 900.74 235.35 897.841 235.35H891.645C888.745 235.35 886.395 233 886.395 230.1V70.6221C886.395 67.7223 888.745 65.3716 891.645 65.3716H897.841C900.74 65.3716 903.091 67.7223 903.091 70.6221V79.3738C912.474 70.6179 925.069 65.2598 938.915 65.2598C967.921 65.2598 991.436 88.774 991.436 117.78ZM974.645 117.78C974.645 137.513 958.648 153.51 938.915 153.51C919.182 153.51 903.186 137.513 903.186 117.78C903.186 98.0474 919.182 82.0508 938.915 82.0508C958.648 82.0508 974.645 98.0474 974.645 117.78Z" fill="white"/>
<path fill-rule="evenodd" clip-rule="evenodd" d="M1058.43 170.301C1078.25 170.301 1095.51 159.318 1104.45 143.106C1106.22 139.895 1103.7 136.228 1100.04 136.228H1091.99C1090.16 136.228 1088.47 137.207 1087.4 138.697C1080.91 147.671 1070.35 153.51 1058.43 153.51C1043.7 153.51 1031.05 144.599 1025.59 131.876C1024.26 128.785 1026.76 125.643 1030.13 125.643H1105.84C1108.44 125.643 1110.68 123.742 1110.84 121.148C1110.91 120.035 1110.95 118.912 1110.95 117.78C1110.95 88.774 1087.43 65.2598 1058.43 65.2598C1029.42 65.2598 1005.91 88.774 1005.91 117.78C1005.91 146.786 1029.42 170.301 1058.43 170.301ZM1086.3 108.936C1089.72 108.936 1092.23 105.686 1090.77 102.587C1085.06 90.4513 1072.73 82.0508 1058.43 82.0508C1044.13 82.0508 1031.79 90.4513 1026.08 102.587C1024.62 105.686 1027.13 108.936 1030.56 108.936H1086.3Z" fill="white"/>
<path d="M1125.79 70.6228C1125.79 67.723 1128.14 65.3723 1131.04 65.3723H1137.23C1140.13 65.3723 1142.48 67.723 1142.48 70.6228V165.163C1142.48 168.063 1140.13 170.413 1137.23 170.413H1131.04C1128.14 170.413 1125.79 168.063 1125.79 165.163V70.6228Z" fill="white"/>
<path d="M1138.39 96.7151C1129.99 96.7151 1123.82 87.9659 1128.37 80.9063C1134.6 71.2475 1144.01 65.2603 1164.65 65.2603C1190.92 65.2603 1202.67 77.4088 1205.48 89.5583C1206.22 92.8032 1204.41 96.7151 1200.7 96.7151H1193.73C1191.97 96.7151 1190.34 95.833 1189.37 94.3647C1184.41 86.8211 1180.82 82.0511 1164.65 82.0511C1146.87 82.0511 1144.3 87.8255 1138.39 96.7151Z" fill="white"/>
<path d="M1220.55 16.8681H1214.31C1212.33 16.8681 1210.74 15.2692 1210.74 13.297L1210.74 4.01689C1210.74 2.04463 1212.33 0.445801 1214.31 0.445801H1233.67C1235.65 0.445801 1237.25 2.04463 1237.25 4.01689V5.37702C1237.25 5.39991 1237.25 5.42284 1237.25 5.4458V13.297C1237.25 13.3164 1237.25 13.3357 1237.25 13.3551V154.118H1242.21C1244.98 154.118 1247.21 156.356 1247.21 159.118V166.969C1247.21 168.941 1245.61 170.54 1243.64 170.54H1214.15C1212.18 170.54 1210.58 168.941 1210.58 166.969V157.689C1210.58 155.717 1212.18 154.118 1214.15 154.118H1220.55V16.8681Z" fill="#07A8EB"/>
<path d="M1265.95 70.6221C1265.95 67.7223 1268.3 65.3716 1271.2 65.3716H1277.4C1280.3 65.3716 1282.65 67.7223 1282.65 70.6221V165.162C1282.65 168.062 1280.3 170.413 1277.4 170.413H1271.2C1268.3 170.413 1265.95 168.062 1265.95 165.162V70.6221Z" fill="#07A8EB"/>
<path d="M1282.65 40.9043C1282.65 45.5149 1278.91 49.2525 1274.3 49.2525C1269.69 49.2525 1265.95 45.5149 1265.95 40.9043C1265.95 36.2938 1269.69 32.5562 1274.3 32.5562C1278.91 32.5562 1282.65 36.2938 1282.65 40.9043Z" fill="#07A8EB"/>
<path d="M1343.73 6.67045C1343.73 5.64607 1343.73 5.13388 1343.66 4.7058C1343.29 2.49197 1341.55 0.757118 1339.34 0.388636C1338.91 0.317383 1338.4 0.317383 1337.37 0.317383H1331.85C1321.41 0.317383 1311.87 8.61684 1311.47 20.8216C1311.47 19.5773 1311.47 18.509 1311.47 18.0188L1311.47 17.7325L1311.47 20.8353C1311.45 21.363 1311.45 21.898 1311.47 22.44L1311.47 44.0555H1304.05C1303.02 44.0555 1302.51 44.0555 1302.08 44.1268C1299.87 44.4952 1298.14 46.2301 1297.77 48.4439C1297.7 48.872 1297.7 49.3842 1297.7 50.4086V54.3973C1297.7 55.4217 1297.7 55.9339 1297.77 56.3619C1298.14 58.5758 1299.87 60.3106 1302.08 60.6791C1302.51 60.7503 1303.02 60.7504 1304.05 60.7504H1311.47V166.922C1311.47 168.894 1313.06 170.493 1315.04 170.493H1324.59C1326.56 170.493 1328.16 168.894 1328.16 166.922V60.7504H1335.58C1336.6 60.7504 1337.11 60.7504 1337.54 60.6791C1339.76 60.3106 1341.49 58.5758 1341.86 56.3619C1341.93 55.9339 1341.93 55.4217 1341.93 54.3973V50.4086C1341.93 49.3842 1341.93 48.872 1341.86 48.4439C1341.49 46.2301 1339.76 44.4952 1337.54 44.1268C1337.11 44.0555 1336.6 44.0555 1335.58 44.0555H1328.16V27.1772C1328.16 25.5381 1328.16 24.7186 1328.27 24.0337C1328.86 20.4916 1331.64 17.7158 1335.18 17.1262C1335.87 17.0122 1336.69 17.0122 1338.33 17.0122V17.0122C1338.47 17.0122 1338.54 17.0122 1338.6 17.0109C1341.4 16.9474 1343.66 14.6872 1343.73 11.8806C1343.73 11.8212 1343.73 11.7509 1343.73 11.6105V6.67045Z" fill="#07A8EB"/>
<path fill-rule="evenodd" clip-rule="evenodd" d="M1395.27 170.54C1415.09 170.54 1432.35 159.557 1441.29 143.345C1443.06 140.134 1440.55 136.467 1436.88 136.467H1428.84C1427 136.467 1425.32 137.447 1424.24 138.937C1417.75 147.91 1407.19 153.749 1395.27 153.749C1380.54 153.749 1367.9 144.839 1362.43 132.115C1361.1 129.024 1363.61 125.882 1366.97 125.882H1442.69C1445.28 125.882 1447.52 123.981 1447.68 121.388C1447.76 120.274 1447.79 119.151 1447.79 118.02C1447.79 89.0132 1424.28 65.499 1395.27 65.499C1366.26 65.499 1342.75 89.0132 1342.75 118.02C1342.75 147.026 1366.26 170.54 1395.27 170.54ZM1423.14 109.175C1426.57 109.175 1429.08 105.925 1427.62 102.826C1421.91 90.6905 1409.57 82.29 1395.27 82.29C1380.97 82.29 1368.63 90.6905 1362.92 102.826C1361.46 105.925 1363.97 109.175 1367.4 109.175H1423.14Z" fill="#07A8EB"/>
</svg>
