<svg width="1167" height="236" viewBox="0 0 1167 236" fill="none" xmlns="http://www.w3.org/2000/svg">
<path fill-rule="evenodd" clip-rule="evenodd" d="M89.0519 3.92768C89.0474 1.95447 90.6433 0.351225 92.6165 0.346733L102.174 0.324961C104.147 0.320468 105.75 1.91642 105.755 3.88963L106.096 153.676L112.328 153.662C114.301 153.657 115.905 155.253 115.909 157.227L115.931 166.787C115.935 168.761 114.339 170.364 112.366 170.368L93.004 170.412C91.1601 170.417 89.6393 169.023 89.4442 167.23C89.437 167.165 89.4316 167.098 89.4281 167.031C89.4249 166.97 89.4232 166.909 89.423 166.847L89.3985 156.074C80.0191 164.94 67.3724 170.388 53.4476 170.419C24.4415 170.485 0.873832 147.025 0.807756 118.019C0.741681 89.0126 24.2022 65.4449 53.2083 65.3788C67.1331 65.3471 79.8045 70.7374 89.2242 79.5602L89.0519 3.92768ZM89.0556 117.817C89.1005 137.549 73.1411 153.581 53.4092 153.626C33.6773 153.671 17.645 137.712 17.6001 117.98C17.5551 98.2477 33.5145 82.2154 53.2464 82.1705C72.9783 82.1255 89.0106 98.085 89.0556 117.817Z" fill="white"/>
<path fill-rule="evenodd" clip-rule="evenodd" d="M172.903 170.413C192.727 170.413 209.985 159.43 218.926 143.217C220.696 140.007 218.181 136.339 214.515 136.339H206.471C204.632 136.339 202.951 137.319 201.873 138.809C195.383 147.783 184.825 153.621 172.903 153.621C158.176 153.621 145.53 144.711 140.062 131.988C138.734 128.897 141.238 125.755 144.602 125.755H220.318C222.917 125.755 225.153 123.854 225.318 121.26C225.388 120.147 225.424 119.024 225.424 117.892C225.424 88.8858 201.91 65.3716 172.903 65.3716C143.897 65.3716 120.383 88.8858 120.383 117.892C120.383 146.898 143.897 170.413 172.903 170.413ZM200.775 109.048C204.2 109.048 206.709 105.798 205.251 102.698C199.541 90.5631 187.203 82.1626 172.903 82.1626C158.604 82.1626 146.266 90.5631 140.556 102.698C139.098 105.798 141.607 109.048 145.032 109.048H200.775Z" fill="white"/>
<path d="M229.105 68.8183C226.517 70.127 225.48 73.2857 226.789 75.8733L272.263 165.787C273.653 168.535 276.355 170.184 279.222 170.357C282.628 170.788 286.088 169.076 287.726 165.837L333.202 75.9212C334.51 73.3336 333.473 70.175 330.886 68.8663L325.348 66.0654C322.76 64.7567 319.602 65.7934 318.293 68.3811L280.007 144.081L241.698 68.3331C240.389 65.7455 237.23 64.7087 234.643 66.0174L229.105 68.8183Z" fill="white"/>
<path fill-rule="evenodd" clip-rule="evenodd" d="M387.288 170.539C407.111 170.539 424.37 159.556 433.31 143.344C435.081 140.133 432.566 136.466 428.899 136.466H420.855C419.017 136.466 417.336 137.446 416.258 138.936C409.767 147.909 399.21 153.748 387.288 153.748C372.561 153.748 359.915 144.838 354.447 132.114C353.118 129.024 355.623 125.881 358.987 125.881H434.703C437.302 125.881 439.538 123.98 439.702 121.387C439.773 120.273 439.809 119.15 439.809 118.019C439.809 89.0123 416.294 65.498 387.288 65.498C358.282 65.498 334.768 89.0123 334.768 118.019C334.768 147.025 358.282 170.539 387.288 170.539ZM415.159 109.174C418.585 109.174 421.094 105.924 419.635 102.825C413.925 90.6895 401.588 82.289 387.288 82.289C372.988 82.289 360.651 90.6895 354.941 102.825C353.482 105.924 355.991 109.174 359.417 109.174H415.159Z" fill="white"/>
<path d="M454.875 16.8202H448.631C446.659 16.8202 445.06 15.2214 445.06 13.2491L445.06 3.96904C445.06 1.99678 446.659 0.397949 448.631 0.397949H467.999C469.971 0.397949 471.57 1.99678 471.57 3.96904V5.32916C471.57 5.35206 471.57 5.37498 471.57 5.39795V13.2491C471.57 13.2685 471.57 13.2879 471.57 13.3072V154.07H476.538C479.299 154.07 481.538 156.308 481.538 159.07V166.921C481.538 168.893 479.939 170.492 477.967 170.492H448.477C446.505 170.492 444.906 168.893 444.906 166.921V157.641C444.906 155.669 446.505 154.07 448.477 154.07H454.875V16.8202Z" fill="white"/>
<path fill-rule="evenodd" clip-rule="evenodd" d="M538.405 170.492C567.411 170.492 590.926 146.978 590.926 117.972C590.926 88.9654 567.411 65.4512 538.405 65.4512C509.399 65.4512 485.885 88.9654 485.885 117.972C485.885 146.978 509.399 170.492 538.405 170.492ZM538.405 153.701C558.138 153.701 574.135 137.704 574.135 117.972C574.135 98.2388 558.138 82.2422 538.405 82.2422C518.672 82.2422 502.676 98.2388 502.676 117.972C502.676 137.704 518.672 153.701 538.405 153.701Z" fill="white"/>
<path fill-rule="evenodd" clip-rule="evenodd" d="M710.436 117.78C710.436 146.786 686.921 170.301 657.915 170.301C644.069 170.301 631.474 164.943 622.091 156.187V230.1C622.091 233 619.74 235.35 616.841 235.35H610.645C607.745 235.35 605.395 233 605.395 230.1V70.6221C605.395 67.7223 607.745 65.3716 610.645 65.3716H616.841C619.74 65.3716 622.091 67.7223 622.091 70.6221V79.3738C631.474 70.6179 644.069 65.2598 657.915 65.2598C686.921 65.2598 710.436 88.774 710.436 117.78ZM693.645 117.78C693.645 137.513 677.648 153.51 657.915 153.51C638.182 153.51 622.186 137.513 622.186 117.78C622.186 98.0474 638.182 82.0508 657.915 82.0508C677.648 82.0508 693.645 98.0474 693.645 117.78Z" fill="white"/>
<path fill-rule="evenodd" clip-rule="evenodd" d="M777.427 170.301C797.25 170.301 814.508 159.318 823.449 143.106C825.219 139.895 822.704 136.228 819.038 136.228H810.994C809.155 136.228 807.474 137.207 806.397 138.697C799.906 147.671 789.348 153.51 777.427 153.51C762.7 153.51 750.053 144.599 744.585 131.876C743.257 128.785 745.762 125.643 749.126 125.643H824.841C827.44 125.643 829.677 123.742 829.841 121.148C829.911 120.035 829.947 118.912 829.947 117.78C829.947 88.774 806.433 65.2598 777.427 65.2598C748.42 65.2598 724.906 88.774 724.906 117.78C724.906 146.786 748.42 170.301 777.427 170.301ZM805.298 108.936C808.723 108.936 811.232 105.686 809.774 102.587C804.064 90.4513 791.726 82.0508 777.427 82.0508C763.127 82.0508 750.789 90.4513 745.079 102.587C743.621 105.686 746.13 108.936 749.555 108.936H805.298Z" fill="white"/>
<path d="M844.785 70.6228C844.785 67.723 847.136 65.3723 850.036 65.3723H856.231C859.131 65.3723 861.482 67.723 861.482 70.6228V165.163C861.482 168.063 859.131 170.413 856.231 170.413H850.036C847.136 170.413 844.785 168.063 844.785 165.163V70.6228Z" fill="white"/>
<path d="M857.39 96.7151C848.99 96.7151 842.822 87.9659 847.375 80.9063C853.603 71.2475 863.006 65.2603 883.655 65.2603C909.92 65.2603 921.673 77.4088 924.475 89.5583C925.224 92.8032 923.414 96.7151 919.701 96.7151H912.732C910.975 96.7151 909.337 95.833 908.372 94.3647C903.411 86.8211 899.82 82.0511 883.655 82.0511C865.869 82.0511 863.305 87.8255 857.39 96.7151Z" fill="white"/>
<path d="M939.551 16.8681H933.307C931.335 16.8681 929.736 15.2692 929.736 13.297L929.736 4.01689C929.736 2.04463 931.335 0.445801 933.307 0.445801H952.675C954.647 0.445801 956.246 2.04463 956.246 4.01689V5.37702C956.246 5.39991 956.246 5.42284 956.246 5.4458V13.297C956.246 13.3164 956.246 13.3357 956.246 13.3551V154.118H961.214C963.975 154.118 966.214 156.356 966.214 159.118V166.969C966.214 168.941 964.615 170.54 962.643 170.54H933.153C931.181 170.54 929.582 168.941 929.582 166.969V157.689C929.582 155.717 931.181 154.118 933.153 154.118H939.551V16.8681Z" fill="#07A8EB"/>
<path d="M984.949 70.6221C984.949 67.7223 987.3 65.3716 990.2 65.3716H996.395C999.295 65.3716 1001.65 67.7223 1001.65 70.6221V165.162C1001.65 168.062 999.295 170.413 996.395 170.413H990.2C987.3 170.413 984.949 168.062 984.949 165.162V70.6221Z" fill="#07A8EB"/>
<path d="M1001.65 40.9043C1001.65 45.5149 997.908 49.2525 993.297 49.2525C988.687 49.2525 984.949 45.5149 984.949 40.9043C984.949 36.2938 988.687 32.5562 993.297 32.5562C997.908 32.5562 1001.65 36.2938 1001.65 40.9043Z" fill="#07A8EB"/>
<path d="M1062.73 6.67045C1062.73 5.64607 1062.73 5.13388 1062.66 4.7058C1062.29 2.49197 1060.55 0.757118 1058.34 0.388636C1057.91 0.317383 1057.4 0.317383 1056.37 0.317383H1050.85C1040.41 0.317383 1030.87 8.61684 1030.47 20.8216C1030.47 19.5773 1030.47 18.509 1030.47 18.0188L1030.47 17.7325L1030.47 20.8353C1030.45 21.363 1030.45 21.898 1030.47 22.44L1030.47 44.0555H1023.05C1022.02 44.0555 1021.51 44.0555 1021.08 44.1268C1018.87 44.4952 1017.14 46.2301 1016.77 48.4439C1016.7 48.872 1016.7 49.3842 1016.7 50.4086V54.3973C1016.7 55.4217 1016.7 55.9339 1016.77 56.3619C1017.14 58.5758 1018.87 60.3106 1021.08 60.6791C1021.51 60.7503 1022.02 60.7504 1023.05 60.7504H1030.47V166.922C1030.47 168.894 1032.06 170.493 1034.04 170.493H1043.59C1045.56 170.493 1047.16 168.894 1047.16 166.922V60.7504H1054.58C1055.6 60.7504 1056.11 60.7504 1056.54 60.6791C1058.76 60.3106 1060.49 58.5758 1060.86 56.3619C1060.93 55.9339 1060.93 55.4217 1060.93 54.3973V50.4086C1060.93 49.3842 1060.93 48.872 1060.86 48.4439C1060.49 46.2301 1058.76 44.4952 1056.54 44.1268C1056.11 44.0555 1055.6 44.0555 1054.58 44.0555H1047.16V27.1772C1047.16 25.5381 1047.16 24.7186 1047.27 24.0337C1047.86 20.4916 1050.64 17.7158 1054.18 17.1262C1054.87 17.0122 1055.69 17.0122 1057.33 17.0122V17.0122C1057.47 17.0122 1057.54 17.0122 1057.6 17.0109C1060.4 16.9474 1062.66 14.6872 1062.73 11.8806C1062.73 11.8212 1062.73 11.7509 1062.73 11.6105V6.67045Z" fill="#07A8EB"/>
<path fill-rule="evenodd" clip-rule="evenodd" d="M1114.27 170.54C1134.09 170.54 1151.35 159.557 1160.29 143.345C1162.06 140.134 1159.55 136.467 1155.88 136.467H1147.84C1146 136.467 1144.32 137.447 1143.24 138.937C1136.75 147.91 1126.19 153.749 1114.27 153.749C1099.54 153.749 1086.9 144.839 1081.43 132.115C1080.1 129.024 1082.61 125.882 1085.97 125.882H1161.69C1164.28 125.882 1166.52 123.981 1166.68 121.388C1166.76 120.274 1166.79 119.151 1166.79 118.02C1166.79 89.0132 1143.28 65.499 1114.27 65.499C1085.26 65.499 1061.75 89.0132 1061.75 118.02C1061.75 147.026 1085.26 170.54 1114.27 170.54ZM1142.14 109.175C1145.57 109.175 1148.08 105.925 1146.62 102.826C1140.91 90.6905 1128.57 82.29 1114.27 82.29C1099.97 82.29 1087.63 90.6905 1081.92 102.826C1080.46 105.925 1082.97 109.175 1086.4 109.175H1142.14Z" fill="#07A8EB"/>
</svg>
