<svg width="1450" height="237" viewBox="0 0 1450 237" fill="none" xmlns="http://www.w3.org/2000/svg">
<circle cx="117.655" cy="118.404" r="117.612" fill="#B6B6B6"/>
<circle cx="117.654" cy="118.404" r="115.197" fill="white"/>
<circle cx="117.654" cy="118.404" r="104.201" fill="#192838"/>
<path fill-rule="evenodd" clip-rule="evenodd" d="M146.85 53.7319C147.634 52.3072 149.424 51.7876 150.849 52.5713L157.749 56.3671C159.174 57.1507 159.693 58.9409 158.91 60.3656L99.4204 168.511L103.92 170.986C105.345 171.77 105.864 173.56 105.081 174.985L101.283 181.887C100.5 183.312 98.7095 183.832 97.2849 183.048L83.3055 175.358C81.9742 174.626 81.4332 173.014 82.0075 171.644C82.0286 171.594 82.0512 171.544 82.0753 171.494C82.0973 171.449 82.1205 171.404 82.145 171.359L86.424 163.581C76.1249 166.233 64.8329 165.118 54.7792 159.588C33.8369 148.067 26.1987 121.752 37.7188 100.809C49.2389 79.8669 75.5549 72.2287 96.4972 83.7488C106.551 89.2792 113.538 98.2194 116.812 108.338L146.85 53.7319ZM101.434 135.857C93.597 150.104 75.6951 155.3 61.4488 147.463C47.2024 139.626 42.0064 121.724 49.8431 107.478C57.6799 93.2316 75.5817 88.0355 89.8281 95.8723C104.074 103.709 109.27 121.611 101.434 135.857Z" fill="white"/>
<path d="M193.403 80.1112C193.419 80.082 193.435 80.0527 193.45 80.0233L193.972 79.0803C194.758 77.6581 194.243 75.8676 192.821 75.081L178.856 67.3577C177.434 66.5711 175.643 67.0864 174.857 68.5086L171.156 75.2003C170.369 76.6225 170.885 78.413 172.307 79.1996L176.808 81.6891L122.041 180.716L117.428 178.165C116.006 177.379 114.215 177.894 113.429 179.316L109.728 186.008C108.941 187.43 109.457 189.221 110.879 190.007L132.143 201.768C133.565 202.554 135.356 202.039 136.142 200.617L139.273 194.955C140.375 192.964 139.653 190.457 137.662 189.356L134.079 187.374L190.23 85.8459C190.244 85.8217 190.258 85.7973 190.272 85.7726L193.403 80.1112Z" fill="#07A8EB"/>
<path fill-rule="evenodd" clip-rule="evenodd" d="M372.051 4.39472C372.046 2.42151 373.642 0.818266 375.616 0.813774L385.173 0.792002C387.146 0.787509 388.749 2.38346 388.754 4.35667L389.095 154.143L395.327 154.129C397.3 154.125 398.904 155.72 398.908 157.694L398.93 167.254C398.934 169.228 397.338 170.831 395.365 170.835L376.003 170.879C374.159 170.884 372.638 169.49 372.443 167.697C372.436 167.632 372.431 167.565 372.427 167.498C372.424 167.437 372.422 167.376 372.422 167.315L372.398 156.541C363.018 165.407 350.371 170.855 336.447 170.886C307.441 170.952 283.873 147.492 283.807 118.486C283.741 89.4796 307.201 65.9119 336.207 65.8459C350.132 65.8141 362.804 71.2044 372.223 80.0273L372.051 4.39472ZM372.055 118.284C372.1 138.016 356.14 154.048 336.408 154.093C316.676 154.138 300.644 138.179 300.599 118.447C300.554 98.7148 316.514 82.6825 336.245 82.6375C355.977 82.5926 372.01 98.552 372.055 118.284Z" fill="#192838"/>
<path fill-rule="evenodd" clip-rule="evenodd" d="M455.902 170.879C475.726 170.879 492.984 159.897 501.925 143.684C503.695 140.474 501.18 136.806 497.514 136.806H489.47C487.631 136.806 485.95 137.786 484.872 139.276C478.382 148.25 467.824 154.088 455.902 154.088C441.175 154.088 428.529 145.178 423.061 132.454C421.733 129.364 424.237 126.221 427.601 126.221H503.317C505.916 126.221 508.152 124.321 508.317 121.727C508.387 120.613 508.423 119.49 508.423 118.359C508.423 89.3526 484.909 65.8384 455.902 65.8384C426.896 65.8384 403.382 89.3526 403.382 118.359C403.382 147.365 426.896 170.879 455.902 170.879ZM483.774 109.514C487.199 109.514 489.708 106.265 488.25 103.165C482.54 91.0299 470.202 82.6294 455.902 82.6294C441.603 82.6294 429.265 91.0299 423.555 103.165C422.097 106.265 424.606 109.514 428.031 109.514H483.774Z" fill="#192838"/>
<path d="M512.104 69.2851C509.516 70.5938 508.479 73.7524 509.788 76.3401L555.262 166.254C556.652 169.002 559.354 170.651 562.221 170.824C565.627 171.255 569.087 169.543 570.725 166.304L616.201 76.388C617.509 73.8004 616.473 70.6418 613.885 69.3331L608.347 66.5322C605.759 65.2235 602.601 66.2602 601.292 68.8479L563.006 144.548L524.697 68.7999C523.388 66.2123 520.229 65.1755 517.642 66.4842L512.104 69.2851Z" fill="#192838"/>
<path fill-rule="evenodd" clip-rule="evenodd" d="M670.288 171.006C690.111 171.006 707.37 160.023 716.31 143.811C718.081 140.6 715.566 136.933 711.899 136.933H703.855C702.017 136.933 700.336 137.913 699.258 139.402C692.767 148.376 682.21 154.215 670.288 154.215C655.561 154.215 642.915 145.304 637.447 132.581C636.118 129.49 638.623 126.348 641.987 126.348H717.703C720.302 126.348 722.538 124.447 722.702 121.854C722.773 120.74 722.809 119.617 722.809 118.485C722.809 89.4791 699.294 65.9648 670.288 65.9648C641.282 65.9648 617.768 89.4791 617.768 118.485C617.768 147.492 641.282 171.006 670.288 171.006ZM698.159 109.641C701.585 109.641 704.094 106.391 702.635 103.292C696.925 91.1563 684.588 82.7558 670.288 82.7558C655.988 82.7558 643.651 91.1563 637.941 103.292C636.482 106.391 638.991 109.641 642.417 109.641H698.159Z" fill="#192838"/>
<path d="M737.875 17.287H731.631C729.659 17.287 728.06 15.6882 728.06 13.7159L728.06 4.43584C728.06 2.46358 729.659 0.864746 731.631 0.864746H750.999C752.971 0.864746 754.57 2.46358 754.57 4.43584V5.79596C754.57 5.81885 754.57 5.84178 754.57 5.86475V13.7159C754.57 13.7353 754.57 13.7547 754.57 13.774V154.537H759.538C762.299 154.537 764.538 156.775 764.538 159.537V167.388C764.538 169.36 762.939 170.959 760.967 170.959H731.477C729.505 170.959 727.906 169.36 727.906 167.388V158.108C727.906 156.135 729.505 154.537 731.477 154.537H737.875V17.287Z" fill="#192838"/>
<path fill-rule="evenodd" clip-rule="evenodd" d="M821.405 170.959C850.411 170.959 873.926 147.445 873.926 118.438C873.926 89.4322 850.411 65.918 821.405 65.918C792.399 65.918 768.885 89.4322 768.885 118.438C768.885 147.445 792.399 170.959 821.405 170.959ZM821.405 154.168C841.138 154.168 857.135 138.171 857.135 118.438C857.135 98.7056 841.138 82.709 821.405 82.709C801.672 82.709 785.676 98.7056 785.676 118.438C785.676 138.171 801.672 154.168 821.405 154.168Z" fill="#192838"/>
<path fill-rule="evenodd" clip-rule="evenodd" d="M993.436 118.247C993.436 147.253 969.921 170.767 940.915 170.767C927.069 170.767 914.474 165.409 905.091 156.653V230.567C905.091 233.466 902.74 235.817 899.841 235.817H893.645C890.745 235.817 888.395 233.466 888.395 230.567V71.0888C888.395 68.1891 890.745 65.8384 893.645 65.8384H899.841C902.74 65.8384 905.091 68.1891 905.091 71.0889V79.8406C914.474 71.0847 927.069 65.7266 940.915 65.7266C969.921 65.7266 993.436 89.2408 993.436 118.247ZM976.645 118.247C976.645 137.98 960.648 153.976 940.915 153.976C921.182 153.976 905.186 137.98 905.186 118.247C905.186 98.5142 921.182 82.5176 940.915 82.5176C960.648 82.5176 976.645 98.5142 976.645 118.247Z" fill="#192838"/>
<path fill-rule="evenodd" clip-rule="evenodd" d="M1060.42 170.767C1080.25 170.767 1097.51 159.785 1106.45 143.572C1108.22 140.362 1105.7 136.694 1102.04 136.694H1093.99C1092.15 136.694 1090.47 137.674 1089.39 139.164C1082.9 148.138 1072.35 153.976 1060.42 153.976C1045.7 153.976 1033.05 145.066 1027.58 132.343C1026.26 129.252 1028.76 126.11 1032.12 126.11H1107.84C1110.44 126.11 1112.67 124.209 1112.84 121.615C1112.91 120.502 1112.95 119.379 1112.95 118.247C1112.95 89.2408 1089.43 65.7266 1060.42 65.7266C1031.42 65.7266 1007.9 89.2408 1007.9 118.247C1007.9 147.253 1031.42 170.767 1060.42 170.767ZM1088.3 109.403C1091.72 109.403 1094.23 106.153 1092.77 103.053C1087.06 90.9181 1074.72 82.5176 1060.42 82.5176C1046.13 82.5176 1033.79 90.9181 1028.08 103.053C1026.62 106.153 1029.13 109.403 1032.55 109.403H1088.3Z" fill="#192838"/>
<path d="M1127.79 71.0896C1127.79 68.1898 1130.14 65.8391 1133.04 65.8391H1139.23C1142.13 65.8391 1144.48 68.1898 1144.48 71.0896V165.63C1144.48 168.529 1142.13 170.88 1139.23 170.88H1133.04C1130.14 170.88 1127.79 168.529 1127.79 165.63V71.0896Z" fill="#192838"/>
<path d="M1140.39 97.1819C1131.99 97.1819 1125.82 88.4327 1130.37 81.3731C1136.6 71.7143 1146.01 65.7271 1166.65 65.7271C1192.92 65.7271 1204.67 77.8756 1207.48 90.025C1208.22 93.27 1206.41 97.1819 1202.7 97.1819H1195.73C1193.97 97.1819 1192.34 96.2998 1191.37 94.8315C1186.41 87.2879 1182.82 82.5179 1166.65 82.5179C1148.87 82.5179 1146.3 88.2923 1140.39 97.1819Z" fill="#192838"/>
<path d="M1222.55 17.3349H1216.31C1214.33 17.3349 1212.74 15.736 1212.74 13.7638L1212.74 4.48369C1212.74 2.51143 1214.33 0.912598 1216.31 0.912598H1235.67C1237.65 0.912598 1239.25 2.51143 1239.25 4.48369V5.84381C1239.25 5.8667 1239.25 5.88963 1239.25 5.9126V13.7638C1239.25 13.7832 1239.25 13.8025 1239.25 13.8219V154.584H1244.21C1246.98 154.584 1249.21 156.823 1249.21 159.584V167.436C1249.21 169.408 1247.61 171.007 1245.64 171.007H1216.15C1214.18 171.007 1212.58 169.408 1212.58 167.436V158.156C1212.58 156.183 1214.18 154.584 1216.15 154.584H1222.55V17.3349Z" fill="#07A8EB"/>
<path d="M1267.95 71.0888C1267.95 68.1891 1270.3 65.8384 1273.2 65.8384H1279.39C1282.29 65.8384 1284.64 68.1891 1284.64 71.0889V165.629C1284.64 168.529 1282.29 170.879 1279.39 170.879H1273.2C1270.3 170.879 1267.95 168.529 1267.95 165.629V71.0888Z" fill="#07A8EB"/>
<path d="M1284.64 41.3711C1284.64 45.9817 1280.91 49.7193 1276.3 49.7193C1271.68 49.7193 1267.95 45.9817 1267.95 41.3711C1267.95 36.7606 1271.68 33.0229 1276.3 33.0229C1280.91 33.0229 1284.64 36.7606 1284.64 41.3711Z" fill="#07A8EB"/>
<path d="M1345.73 7.13725C1345.73 6.11287 1345.73 5.60068 1345.66 5.17259C1345.29 2.95876 1343.55 1.22391 1341.34 0.855432C1340.91 0.78418 1340.4 0.78418 1339.37 0.78418H1333.85C1323.41 0.78418 1313.87 9.08364 1313.47 21.2884C1313.47 20.0441 1313.47 18.9758 1313.47 18.4856L1313.47 18.1993L1313.47 21.3021C1313.45 21.8298 1313.45 22.3648 1313.47 22.9068L1313.47 44.5223H1306.05C1305.02 44.5223 1304.51 44.5223 1304.08 44.5936C1301.87 44.962 1300.14 46.6969 1299.77 48.9107C1299.7 49.3388 1299.7 49.851 1299.7 50.8754V54.8641C1299.7 55.8885 1299.7 56.4007 1299.77 56.8287C1300.14 59.0426 1301.87 60.7774 1304.08 61.1459C1304.51 61.2171 1305.02 61.2171 1306.05 61.2172H1313.47V167.389C1313.47 169.361 1315.06 170.96 1317.04 170.96H1326.59C1328.56 170.96 1330.16 169.361 1330.16 167.389V61.2172H1337.58C1338.6 61.2172 1339.11 61.2172 1339.54 61.1459C1341.76 60.7774 1343.49 59.0426 1343.86 56.8287C1343.93 56.4007 1343.93 55.8885 1343.93 54.8641V50.8754C1343.93 49.851 1343.93 49.3388 1343.86 48.9107C1343.49 46.6969 1341.76 44.962 1339.54 44.5936C1339.11 44.5223 1338.6 44.5223 1337.58 44.5223H1330.16V27.6439C1330.16 26.0049 1330.16 25.1854 1330.27 24.5005C1330.86 20.9584 1333.64 18.1826 1337.18 17.593C1337.87 17.479 1338.69 17.479 1340.33 17.479V17.479C1340.47 17.479 1340.54 17.479 1340.6 17.4777C1343.4 17.4142 1345.66 15.154 1345.73 12.3474C1345.73 12.288 1345.73 12.2177 1345.73 12.0773V7.13725Z" fill="#07A8EB"/>
<path fill-rule="evenodd" clip-rule="evenodd" d="M1397.27 171.007C1417.09 171.007 1434.35 160.024 1443.29 143.812C1445.06 140.601 1442.55 136.934 1438.88 136.934H1430.84C1429 136.934 1427.32 137.913 1426.24 139.403C1419.75 148.377 1409.19 154.216 1397.27 154.216C1382.54 154.216 1369.9 145.305 1364.43 132.582C1363.1 129.491 1365.61 126.349 1368.97 126.349H1444.69C1447.28 126.349 1449.52 124.448 1449.68 121.855C1449.76 120.741 1449.79 119.618 1449.79 118.486C1449.79 89.48 1426.28 65.9658 1397.27 65.9658C1368.26 65.9658 1344.75 89.48 1344.75 118.486C1344.75 147.493 1368.26 171.007 1397.27 171.007ZM1425.14 109.642C1428.57 109.642 1431.08 106.392 1429.62 103.293C1423.91 91.1573 1411.57 82.7568 1397.27 82.7568C1382.97 82.7568 1370.63 91.1573 1364.92 103.293C1363.46 106.392 1365.97 109.642 1369.4 109.642H1425.14Z" fill="#07A8EB"/>
</svg>
