<svg width="1167" height="236" viewBox="0 0 1167 236" fill="none" xmlns="http://www.w3.org/2000/svg">
<path fill-rule="evenodd" clip-rule="evenodd" d="M89.0509 4.39472C89.0464 2.42151 90.6424 0.818266 92.6156 0.813774L102.173 0.792002C104.146 0.787509 105.749 2.38346 105.754 4.35667L106.095 154.143L112.327 154.129C114.3 154.125 115.904 155.72 115.908 157.694L115.93 167.254C115.934 169.228 114.338 170.831 112.365 170.835L93.003 170.879C91.1591 170.884 89.6383 169.49 89.4432 167.697C89.436 167.632 89.4307 167.565 89.4271 167.498C89.4239 167.437 89.4222 167.376 89.4221 167.315L89.3975 156.541C80.0182 165.407 67.3714 170.855 53.4466 170.886C24.4405 170.952 0.872855 147.492 0.80678 118.486C0.740705 89.4796 24.2012 65.9119 53.2073 65.8459C67.1321 65.8141 79.8036 71.2044 89.2232 80.0273L89.0509 4.39472ZM89.0546 118.284C89.0995 138.016 73.1401 154.048 53.4082 154.093C33.6763 154.138 17.644 138.179 17.5991 118.447C17.5541 98.7148 33.5136 82.6825 53.2455 82.6375C72.9773 82.5926 89.0096 98.552 89.0546 118.284Z" fill="#192838"/>
<path fill-rule="evenodd" clip-rule="evenodd" d="M172.902 170.879C192.726 170.879 209.984 159.897 218.925 143.684C220.695 140.474 218.18 136.806 214.514 136.806H206.47C204.631 136.806 202.95 137.786 201.872 139.276C195.382 148.25 184.824 154.088 172.902 154.088C158.175 154.088 145.529 145.178 140.061 132.454C138.733 129.364 141.237 126.221 144.601 126.221H220.317C222.916 126.221 225.152 124.321 225.317 121.727C225.387 120.613 225.423 119.49 225.423 118.359C225.423 89.3526 201.909 65.8384 172.902 65.8384C143.896 65.8384 120.382 89.3526 120.382 118.359C120.382 147.365 143.896 170.879 172.902 170.879ZM200.774 109.514C204.199 109.514 206.708 106.265 205.25 103.165C199.54 91.0299 187.202 82.6294 172.902 82.6294C158.603 82.6294 146.265 91.0299 140.555 103.165C139.097 106.265 141.606 109.514 145.031 109.514H200.774Z" fill="#192838"/>
<path d="M229.104 69.2851C226.516 70.5938 225.479 73.7524 226.788 76.3401L272.262 166.254C273.652 169.002 276.354 170.651 279.221 170.824C282.627 171.255 286.087 169.543 287.725 166.304L333.201 76.388C334.509 73.8004 333.473 70.6418 330.885 69.3331L325.347 66.5322C322.759 65.2235 319.601 66.2602 318.292 68.8479L280.006 144.548L241.697 68.7999C240.388 66.2123 237.229 65.1755 234.642 66.4842L229.104 69.2851Z" fill="#192838"/>
<path fill-rule="evenodd" clip-rule="evenodd" d="M387.288 171.006C407.111 171.006 424.37 160.023 433.31 143.811C435.081 140.6 432.566 136.933 428.899 136.933H420.855C419.017 136.933 417.336 137.913 416.258 139.402C409.767 148.376 399.21 154.215 387.288 154.215C372.561 154.215 359.915 145.304 354.447 132.581C353.118 129.49 355.623 126.348 358.987 126.348H434.703C437.302 126.348 439.538 124.447 439.702 121.854C439.773 120.74 439.809 119.617 439.809 118.485C439.809 89.4791 416.294 65.9648 387.288 65.9648C358.282 65.9648 334.768 89.4791 334.768 118.485C334.768 147.492 358.282 171.006 387.288 171.006ZM415.159 109.641C418.585 109.641 421.094 106.391 419.635 103.292C413.925 91.1563 401.588 82.7558 387.288 82.7558C372.988 82.7558 360.651 91.1563 354.941 103.292C353.482 106.391 355.991 109.641 359.417 109.641H415.159Z" fill="#192838"/>
<path d="M454.875 17.287H448.631C446.659 17.287 445.06 15.6882 445.06 13.7159L445.06 4.43584C445.06 2.46358 446.659 0.864746 448.631 0.864746H467.999C469.971 0.864746 471.57 2.46358 471.57 4.43584V5.79596C471.57 5.81885 471.57 5.84178 471.57 5.86475V13.7159C471.57 13.7353 471.57 13.7547 471.57 13.774V154.537H476.538C479.299 154.537 481.538 156.775 481.538 159.537V167.388C481.538 169.36 479.939 170.959 477.967 170.959H448.477C446.505 170.959 444.906 169.36 444.906 167.388V158.108C444.906 156.135 446.505 154.537 448.477 154.537H454.875V17.287Z" fill="#192838"/>
<path fill-rule="evenodd" clip-rule="evenodd" d="M538.405 170.959C567.411 170.959 590.926 147.445 590.926 118.438C590.926 89.4322 567.411 65.918 538.405 65.918C509.399 65.918 485.885 89.4322 485.885 118.438C485.885 147.445 509.399 170.959 538.405 170.959ZM538.405 154.168C558.138 154.168 574.135 138.171 574.135 118.438C574.135 98.7056 558.138 82.709 538.405 82.709C518.672 82.709 502.676 98.7056 502.676 118.438C502.676 138.171 518.672 154.168 538.405 154.168Z" fill="#192838"/>
<path fill-rule="evenodd" clip-rule="evenodd" d="M710.436 118.247C710.436 147.253 686.921 170.767 657.915 170.767C644.069 170.767 631.474 165.409 622.091 156.653V230.567C622.091 233.466 619.74 235.817 616.841 235.817H610.645C607.745 235.817 605.395 233.466 605.395 230.567V71.0888C605.395 68.1891 607.745 65.8384 610.645 65.8384H616.841C619.74 65.8384 622.091 68.1891 622.091 71.0889V79.8406C631.474 71.0847 644.069 65.7266 657.915 65.7266C686.921 65.7266 710.436 89.2408 710.436 118.247ZM693.645 118.247C693.645 137.98 677.648 153.976 657.915 153.976C638.182 153.976 622.186 137.98 622.186 118.247C622.186 98.5142 638.182 82.5176 657.915 82.5176C677.648 82.5176 693.645 98.5142 693.645 118.247Z" fill="#192838"/>
<path fill-rule="evenodd" clip-rule="evenodd" d="M777.425 170.767C797.248 170.767 814.507 159.785 823.447 143.572C825.218 140.362 822.703 136.694 819.036 136.694H810.992C809.153 136.694 807.472 137.674 806.395 139.164C799.904 148.138 789.346 153.976 777.425 153.976C762.698 153.976 750.051 145.066 744.583 132.343C743.255 129.252 745.76 126.11 749.124 126.11H824.84C827.438 126.11 829.675 124.209 829.839 121.615C829.909 120.502 829.945 119.379 829.945 118.247C829.945 89.2408 806.431 65.7266 777.425 65.7266C748.418 65.7266 724.904 89.2408 724.904 118.247C724.904 147.253 748.418 170.767 777.425 170.767ZM805.296 109.403C808.721 109.403 811.23 106.153 809.772 103.053C804.062 90.9181 791.724 82.5176 777.425 82.5176C763.125 82.5176 750.787 90.9181 745.077 103.053C743.619 106.153 746.128 109.403 749.553 109.403H805.296Z" fill="#192838"/>
<path d="M844.785 71.0896C844.785 68.1898 847.136 65.8391 850.036 65.8391H856.231C859.131 65.8391 861.482 68.1898 861.482 71.0896V165.63C861.482 168.529 859.131 170.88 856.231 170.88H850.036C847.136 170.88 844.785 168.529 844.785 165.63V71.0896Z" fill="#192838"/>
<path d="M857.39 97.1819C848.99 97.1819 842.822 88.4327 847.375 81.3731C853.603 71.7143 863.006 65.7271 883.655 65.7271C909.92 65.7271 921.673 77.8756 924.475 90.025C925.224 93.27 923.414 97.1819 919.701 97.1819H912.732C910.975 97.1819 909.337 96.2998 908.372 94.8315C903.411 87.2879 899.82 82.5179 883.655 82.5179C865.869 82.5179 863.305 88.2923 857.39 97.1819Z" fill="#192838"/>
<path d="M939.551 17.3349H933.307C931.335 17.3349 929.736 15.736 929.736 13.7638L929.736 4.48369C929.736 2.51143 931.335 0.912598 933.307 0.912598H952.675C954.647 0.912598 956.246 2.51143 956.246 4.48369V5.84381C956.246 5.8667 956.246 5.88963 956.246 5.9126V13.7638C956.246 13.7832 956.246 13.8025 956.246 13.8219V154.584H961.214C963.975 154.584 966.214 156.823 966.214 159.584V167.436C966.214 169.408 964.615 171.007 962.643 171.007H933.153C931.181 171.007 929.582 169.408 929.582 167.436V158.156C929.582 156.183 931.181 154.584 933.153 154.584H939.551V17.3349Z" fill="#07A8EB"/>
<path d="M984.947 71.0888C984.947 68.1891 987.298 65.8384 990.198 65.8384H996.393C999.293 65.8384 1001.64 68.1891 1001.64 71.0889V165.629C1001.64 168.529 999.293 170.879 996.393 170.879H990.198C987.298 170.879 984.947 168.529 984.947 165.629V71.0888Z" fill="#07A8EB"/>
<path d="M1001.64 41.3711C1001.64 45.9817 997.906 49.7193 993.295 49.7193C988.685 49.7193 984.947 45.9817 984.947 41.3711C984.947 36.7606 988.685 33.0229 993.295 33.0229C997.906 33.0229 1001.64 36.7606 1001.64 41.3711Z" fill="#07A8EB"/>
<path d="M1062.73 7.13725C1062.73 6.11287 1062.73 5.60068 1062.66 5.17259C1062.29 2.95876 1060.55 1.22391 1058.34 0.855432C1057.91 0.78418 1057.4 0.78418 1056.37 0.78418H1050.85C1040.41 0.78418 1030.87 9.08364 1030.47 21.2884C1030.47 20.0441 1030.47 18.9758 1030.47 18.4856L1030.47 18.1993L1030.47 21.3021C1030.45 21.8298 1030.45 22.3648 1030.47 22.9068L1030.47 44.5223H1023.05C1022.02 44.5223 1021.51 44.5223 1021.08 44.5936C1018.87 44.962 1017.14 46.6969 1016.77 48.9107C1016.7 49.3388 1016.7 49.851 1016.7 50.8754V54.8641C1016.7 55.8885 1016.7 56.4007 1016.77 56.8287C1017.14 59.0426 1018.87 60.7774 1021.08 61.1459C1021.51 61.2171 1022.02 61.2171 1023.05 61.2172H1030.47V167.389C1030.47 169.361 1032.06 170.96 1034.04 170.96H1043.59C1045.56 170.96 1047.16 169.361 1047.16 167.389V61.2172H1054.58C1055.6 61.2172 1056.11 61.2172 1056.54 61.1459C1058.76 60.7774 1060.49 59.0426 1060.86 56.8287C1060.93 56.4007 1060.93 55.8885 1060.93 54.8641V50.8754C1060.93 49.851 1060.93 49.3388 1060.86 48.9107C1060.49 46.6969 1058.76 44.962 1056.54 44.5936C1056.11 44.5223 1055.6 44.5223 1054.58 44.5223H1047.16V27.6439C1047.16 26.0049 1047.16 25.1854 1047.27 24.5005C1047.86 20.9584 1050.64 18.1826 1054.18 17.593C1054.87 17.479 1055.69 17.479 1057.33 17.479V17.479C1057.47 17.479 1057.54 17.479 1057.6 17.4777C1060.4 17.4142 1062.66 15.154 1062.73 12.3474C1062.73 12.288 1062.73 12.2177 1062.73 12.0773V7.13725Z" fill="#07A8EB"/>
<path fill-rule="evenodd" clip-rule="evenodd" d="M1114.27 171.007C1134.09 171.007 1151.35 160.024 1160.29 143.812C1162.06 140.601 1159.55 136.934 1155.88 136.934H1147.84C1146 136.934 1144.32 137.913 1143.24 139.403C1136.75 148.377 1126.19 154.216 1114.27 154.216C1099.54 154.216 1086.9 145.305 1081.43 132.582C1080.1 129.491 1082.61 126.349 1085.97 126.349H1161.69C1164.28 126.349 1166.52 124.448 1166.68 121.855C1166.76 120.741 1166.79 119.618 1166.79 118.486C1166.79 89.48 1143.28 65.9658 1114.27 65.9658C1085.26 65.9658 1061.75 89.48 1061.75 118.486C1061.75 147.493 1085.26 171.007 1114.27 171.007ZM1142.14 109.642C1145.57 109.642 1148.08 106.392 1146.62 103.293C1140.91 91.1573 1128.57 82.7568 1114.27 82.7568C1099.97 82.7568 1087.63 91.1573 1081.92 103.293C1080.46 106.392 1082.97 109.642 1086.4 109.642H1142.14Z" fill="#07A8EB"/>
</svg>
