<svg width="1920" height="1080" viewBox="0 0 1920 1080" fill="none" xmlns="http://www.w3.org/2000/svg">
<g clip-path="url(#clip0_1241_6)">
<path d="M1920 0H0V1080H1920V0Z" fill="url(#paint0_linear_1241_6)" fill-opacity="0.5"/>
<path d="M357.408 177.381V150.608H336.088V177.381H328.995V120.924H336.088V144.786H357.408V120.924H364.501V177.381H357.408ZM395.998 133.306C400.071 133.306 403.474 134.235 406.207 136.094C408.968 137.925 411.032 140.522 412.398 143.884C413.792 147.246 414.489 151.209 414.489 155.774C414.489 160.175 413.779 164.07 412.357 167.459C410.936 170.848 408.845 173.513 406.084 175.454C403.351 177.367 399.962 178.324 395.916 178.324C391.871 178.324 388.468 177.395 385.707 175.536C382.947 173.677 380.856 171.067 379.434 167.705C378.04 164.316 377.343 160.366 377.343 155.856C377.343 151.401 378.054 147.478 379.475 144.089C380.897 140.7 382.988 138.062 385.748 136.176C388.536 134.263 391.953 133.306 395.998 133.306ZM395.998 138.923C392.281 138.923 389.466 140.303 387.552 143.064C385.666 145.797 384.723 150.061 384.723 155.856C384.723 161.541 385.653 165.764 387.511 168.525C389.397 171.286 392.199 172.666 395.916 172.666C399.634 172.666 402.422 171.286 404.28 168.525C406.166 165.764 407.109 161.514 407.109 155.774C407.109 150.034 406.18 145.797 404.321 143.064C402.463 140.303 399.688 138.923 395.998 138.923ZM460.705 177.381H450.947L445.371 145.688L439.303 177.381H429.791L421.919 134.208H428.971L434.465 173.117L441.353 139.702H449.512L456.031 173.117L461.525 134.208H468.249L460.705 177.381ZM561.337 175.208C559.861 176.192 558.071 176.957 555.966 177.504C553.862 178.051 551.798 178.324 549.775 178.324C545.129 178.324 541.548 177.108 539.033 174.675C536.519 172.242 535.261 169.113 535.261 165.286V139.538H525.339V134.208H535.261V124.409L542.149 123.589V134.208H557.073L556.253 139.538H542.149V165.204C542.149 167.609 542.778 169.441 544.035 170.698C545.32 171.955 547.438 172.584 550.39 172.584C552.003 172.584 553.493 172.393 554.859 172.01C556.226 171.627 557.497 171.135 558.672 170.534L561.337 175.208ZM592.67 133.306C596.743 133.306 600.146 134.235 602.879 136.094C605.64 137.925 607.704 140.522 609.07 143.884C610.464 147.246 611.161 151.209 611.161 155.774C611.161 160.175 610.451 164.07 609.029 167.459C607.608 170.848 605.517 173.513 602.756 175.454C600.023 177.367 596.634 178.324 592.588 178.324C588.543 178.324 585.14 177.395 582.379 175.536C579.619 173.677 577.528 171.067 576.106 167.705C574.712 164.316 574.015 160.366 574.015 155.856C574.015 151.401 574.726 147.478 576.147 144.089C577.569 140.7 579.66 138.062 582.42 136.176C585.208 134.263 588.625 133.306 592.67 133.306ZM592.67 138.923C588.953 138.923 586.138 140.303 584.224 143.064C582.338 145.797 581.395 150.061 581.395 155.856C581.395 161.541 582.325 165.764 584.183 168.525C586.069 171.286 588.871 172.666 592.588 172.666C596.306 172.666 599.094 171.286 600.952 168.525C602.838 165.764 603.781 161.514 603.781 155.774C603.781 150.034 602.852 145.797 600.993 143.064C599.135 140.303 596.36 138.923 592.67 138.923ZM691.006 133.306C695.079 133.306 698.482 134.235 701.215 136.094C703.976 137.925 706.04 140.522 707.406 143.884C708.8 147.246 709.497 151.209 709.497 155.774C709.497 160.175 708.787 164.07 707.365 167.459C705.944 170.848 703.853 173.513 701.092 175.454C698.359 177.367 694.97 178.324 690.924 178.324C686.879 178.324 683.476 177.395 680.715 175.536C677.955 173.677 675.864 171.067 674.442 167.705C673.048 164.316 672.351 160.366 672.351 155.856C672.351 151.401 673.062 147.478 674.483 144.089C675.905 140.7 677.996 138.062 680.756 136.176C683.544 134.263 686.961 133.306 691.006 133.306ZM691.006 138.923C687.289 138.923 684.474 140.303 682.56 143.064C680.674 145.797 679.731 150.061 679.731 155.856C679.731 161.541 680.661 165.764 682.519 168.525C684.405 171.286 687.207 172.666 690.924 172.666C694.642 172.666 697.43 171.286 699.288 168.525C701.174 165.764 702.117 161.514 702.117 155.774C702.117 150.034 701.188 145.797 699.329 143.064C697.471 140.303 694.696 138.923 691.006 138.923ZM759.731 134.208L744.028 177.381H736.033L720.453 134.208H727.751L740.256 171.108L752.597 134.208H759.731ZM778.313 158.234C778.45 161.569 779.092 164.302 780.24 166.434C781.388 168.539 782.905 170.097 784.791 171.108C786.677 172.092 788.727 172.584 790.941 172.584C793.155 172.584 795.15 172.256 796.927 171.6C798.731 170.944 800.576 169.974 802.462 168.689L805.701 173.24C803.678 174.825 801.369 176.069 798.772 176.971C796.203 177.873 793.565 178.324 790.859 178.324C786.677 178.324 783.11 177.381 780.158 175.495C777.206 173.609 774.951 170.985 773.393 167.623C771.862 164.234 771.097 160.311 771.097 155.856C771.097 151.483 771.876 147.601 773.434 144.212C774.992 140.823 777.179 138.158 779.994 136.217C782.809 134.276 786.13 133.306 789.957 133.306C793.592 133.306 796.722 134.167 799.346 135.889C801.97 137.584 803.979 140.016 805.373 143.187C806.794 146.33 807.505 150.089 807.505 154.462C807.505 155.2 807.491 155.897 807.464 156.553C807.437 157.182 807.396 157.742 807.341 158.234H778.313ZM790.039 138.964C786.841 138.964 784.162 140.098 782.003 142.367C779.871 144.636 778.655 148.148 778.354 152.904H800.863C800.781 148.285 799.77 144.813 797.829 142.49C795.888 140.139 793.292 138.964 790.039 138.964ZM822.479 177.381V172.092H829.203V139.497H822.479V134.208H834.451L835.722 144.417C837.389 140.864 839.412 138.117 841.79 136.176C844.168 134.235 847.311 133.265 851.22 133.265C852.423 133.265 853.489 133.361 854.418 133.552C855.375 133.716 856.345 133.935 857.329 134.208L855.32 140.358C854.418 140.112 853.598 139.934 852.86 139.825C852.122 139.688 851.275 139.62 850.318 139.62C847.011 139.62 844.168 140.795 841.79 143.146C839.412 145.497 837.512 149.05 836.091 153.806V172.092H844.865V177.381H822.479ZM850.687 148.804V139.415L851.384 134.208H857.329L856.345 148.804H850.687ZM890.753 172.379C892.912 172.379 894.921 172.024 896.78 171.313C898.666 170.602 900.402 169.7 901.987 168.607L905.349 173.117C903.463 174.73 901.194 176.001 898.543 176.93C895.892 177.859 893.295 178.324 890.753 178.324C886.462 178.324 882.799 177.408 879.765 175.577C876.758 173.718 874.462 171.122 872.877 167.787C871.292 164.425 870.499 160.489 870.499 155.979C870.499 151.66 871.292 147.793 872.877 144.376C874.49 140.932 876.799 138.226 879.806 136.258C882.84 134.29 886.516 133.306 890.835 133.306C893.596 133.306 896.179 133.73 898.584 134.577C901.017 135.397 903.244 136.641 905.267 138.308L901.905 142.9C900.074 141.615 898.229 140.659 896.37 140.03C894.539 139.374 892.666 139.046 890.753 139.046C887.036 139.046 883.974 140.44 881.569 143.228C879.164 146.016 877.961 150.266 877.961 155.979C877.961 159.806 878.508 162.935 879.601 165.368C880.722 167.773 882.239 169.55 884.152 170.698C886.093 171.819 888.293 172.379 890.753 172.379ZM936.846 133.306C940.919 133.306 944.322 134.235 947.055 136.094C949.816 137.925 951.879 140.522 953.246 143.884C954.64 147.246 955.337 151.209 955.337 155.774C955.337 160.175 954.626 164.07 953.205 167.459C951.784 170.848 949.693 173.513 946.932 175.454C944.199 177.367 940.809 178.324 936.764 178.324C932.719 178.324 929.316 177.395 926.555 175.536C923.794 173.677 921.703 171.067 920.282 167.705C918.888 164.316 918.191 160.366 918.191 155.856C918.191 151.401 918.902 147.478 920.323 144.089C921.744 140.7 923.835 138.062 926.596 136.176C929.384 134.263 932.801 133.306 936.846 133.306ZM936.846 138.923C933.129 138.923 930.313 140.303 928.4 143.064C926.514 145.797 925.571 150.061 925.571 155.856C925.571 161.541 926.5 165.764 928.359 168.525C930.245 171.286 933.047 172.666 936.764 172.666C940.481 172.666 943.269 171.286 945.128 168.525C947.014 165.764 947.957 161.514 947.957 155.774C947.957 150.034 947.028 145.797 945.169 143.064C943.31 140.303 940.536 138.923 936.846 138.923ZM998.027 133.306C999.421 133.306 1000.75 133.607 1002 134.208C1003.29 134.809 1004.34 135.971 1005.16 137.693C1005.98 139.415 1006.39 141.93 1006.39 145.237V177.381H999.995V146.344C999.995 143.638 999.831 141.684 999.503 140.481C999.175 139.278 998.232 138.677 996.674 138.677C995.389 138.677 994.105 139.087 992.82 139.907C991.563 140.7 990.333 142.012 989.13 143.843V177.381H982.693V146.344C982.693 143.638 982.529 141.684 982.201 140.481C981.873 139.278 980.93 138.677 979.372 138.677C978.033 138.677 976.734 139.087 975.477 139.907C974.247 140.7 973.031 142.012 971.828 143.843V177.381H965.473V134.208H970.885L971.295 139.21C972.47 137.543 973.782 136.149 975.231 135.028C976.707 133.88 978.525 133.306 980.684 133.306C982.324 133.306 983.868 133.702 985.317 134.495C986.766 135.26 987.832 136.764 988.515 139.005C989.69 137.31 991.016 135.944 992.492 134.905C993.968 133.839 995.813 133.306 998.027 133.306ZM1024.15 158.234C1024.29 161.569 1024.93 164.302 1026.08 166.434C1027.23 168.539 1028.75 170.097 1030.63 171.108C1032.52 172.092 1034.57 172.584 1036.78 172.584C1039 172.584 1040.99 172.256 1042.77 171.6C1044.57 170.944 1046.42 169.974 1048.3 168.689L1051.54 173.24C1049.52 174.825 1047.21 176.069 1044.61 176.971C1042.04 177.873 1039.41 178.324 1036.7 178.324C1032.52 178.324 1028.95 177.381 1026 175.495C1023.05 173.609 1020.79 170.985 1019.23 167.623C1017.7 164.234 1016.94 160.311 1016.94 155.856C1016.94 151.483 1017.72 147.601 1019.27 144.212C1020.83 140.823 1023.02 138.158 1025.83 136.217C1028.65 134.276 1031.97 133.306 1035.8 133.306C1039.43 133.306 1042.56 134.167 1045.19 135.889C1047.81 137.584 1049.82 140.016 1051.21 143.187C1052.63 146.33 1053.35 150.089 1053.35 154.462C1053.35 155.2 1053.33 155.897 1053.3 156.553C1053.28 157.182 1053.24 157.742 1053.18 158.234H1024.15ZM1035.88 138.964C1032.68 138.964 1030 140.098 1027.84 142.367C1025.71 144.636 1024.49 148.148 1024.19 152.904H1046.7C1046.62 148.285 1045.61 144.813 1043.67 142.49C1041.73 140.139 1039.13 138.964 1035.88 138.964ZM1152.99 134.208L1137.82 177.668C1136.81 180.593 1135.53 183.271 1133.97 185.704C1132.44 188.137 1130.43 190.146 1127.94 191.731C1125.48 193.344 1122.35 194.341 1118.55 194.724L1117.49 189.23C1120.47 188.738 1122.82 187.986 1124.54 186.975C1126.26 185.964 1127.61 184.665 1128.6 183.08C1129.61 181.495 1130.5 179.595 1131.26 177.381H1128.97L1113.88 134.208H1121.26L1133.64 172.133L1145.86 134.208H1152.99ZM1182.69 133.306C1186.76 133.306 1190.16 134.235 1192.89 136.094C1195.66 137.925 1197.72 140.522 1199.09 143.884C1200.48 147.246 1201.18 151.209 1201.18 155.774C1201.18 160.175 1200.47 164.07 1199.04 167.459C1197.62 170.848 1195.53 173.513 1192.77 175.454C1190.04 177.367 1186.65 178.324 1182.6 178.324C1178.56 178.324 1175.16 177.395 1172.39 175.536C1169.63 173.677 1167.54 171.067 1166.12 167.705C1164.73 164.316 1164.03 160.366 1164.03 155.856C1164.03 151.401 1164.74 147.478 1166.16 144.089C1167.58 140.7 1169.68 138.062 1172.44 136.176C1175.22 134.263 1178.64 133.306 1182.69 133.306ZM1182.69 138.923C1178.97 138.923 1176.15 140.303 1174.24 143.064C1172.35 145.797 1171.41 150.061 1171.41 155.856C1171.41 161.541 1172.34 165.764 1174.2 168.525C1176.08 171.286 1178.89 172.666 1182.6 172.666C1186.32 172.666 1189.11 171.286 1190.97 168.525C1192.85 165.764 1193.8 161.514 1193.8 155.774C1193.8 150.034 1192.87 145.797 1191.01 143.064C1189.15 140.303 1186.38 138.923 1182.69 138.923ZM1222.3 134.208V164.794C1222.3 167.637 1222.89 169.687 1224.06 170.944C1225.24 172.201 1227.07 172.83 1229.56 172.83C1231.94 172.83 1234.18 172.16 1236.28 170.821C1238.41 169.454 1240.07 167.842 1241.24 165.983V134.208H1248.13V177.381H1242.27L1241.69 171.559C1240 173.746 1237.91 175.427 1235.42 176.602C1232.93 177.75 1230.42 178.324 1227.88 178.324C1223.69 178.324 1220.57 177.217 1218.49 175.003C1216.44 172.762 1215.41 169.632 1215.41 165.614V134.208H1222.3ZM1264.99 177.381V172.092H1271.71V139.497H1264.99V134.208H1276.96L1278.23 144.417C1279.9 140.864 1281.92 138.117 1284.3 136.176C1286.68 134.235 1289.82 133.265 1293.73 133.265C1294.93 133.265 1296 133.361 1296.93 133.552C1297.89 133.716 1298.86 133.935 1299.84 134.208L1297.83 140.358C1296.93 140.112 1296.11 139.934 1295.37 139.825C1294.63 139.688 1293.79 139.62 1292.83 139.62C1289.52 139.62 1286.68 140.795 1284.3 143.146C1281.92 145.497 1280.02 149.05 1278.6 153.806V172.092H1287.38V177.381H1264.99ZM1293.2 148.804V139.415L1293.9 134.208H1299.84L1298.86 148.804H1293.2ZM1388.42 115.963C1390.74 115.963 1392.85 116.168 1394.73 116.578C1396.62 116.988 1398.41 117.562 1400.1 118.3L1397.89 123.425C1396.5 122.824 1395.02 122.373 1393.46 122.072C1391.9 121.771 1390.29 121.621 1388.62 121.621C1385.62 121.621 1383.35 122.209 1381.82 123.384C1380.31 124.559 1379.56 126.363 1379.56 128.796V137.57H1394.2L1393.46 142.982H1379.56V177.381H1372.67V142.982H1362.38V137.57H1372.67V128.96C1372.67 126.281 1373.36 123.972 1374.72 122.031C1376.12 120.09 1378 118.601 1380.38 117.562C1382.76 116.496 1385.44 115.963 1388.42 115.963ZM1417.5 158.234C1417.63 161.569 1418.28 164.302 1419.42 166.434C1420.57 168.539 1422.09 170.097 1423.97 171.108C1425.86 172.092 1427.91 172.584 1430.12 172.584C1432.34 172.584 1434.33 172.256 1436.11 171.6C1437.91 170.944 1439.76 169.974 1441.65 168.689L1444.88 173.24C1442.86 174.825 1440.55 176.069 1437.96 176.971C1435.39 177.873 1432.75 178.324 1430.04 178.324C1425.86 178.324 1422.29 177.381 1419.34 175.495C1416.39 173.609 1414.13 170.985 1412.58 167.623C1411.05 164.234 1410.28 160.311 1410.28 155.856C1410.28 151.483 1411.06 147.601 1412.62 144.212C1414.18 140.823 1416.36 138.158 1419.18 136.217C1421.99 134.276 1425.31 133.306 1429.14 133.306C1432.78 133.306 1435.91 134.167 1438.53 135.889C1441.15 137.584 1443.16 140.016 1444.56 143.187C1445.98 146.33 1446.69 150.089 1446.69 154.462C1446.69 155.2 1446.68 155.897 1446.65 156.553C1446.62 157.182 1446.58 157.742 1446.52 158.234H1417.5ZM1429.22 138.964C1426.02 138.964 1423.35 140.098 1421.19 142.367C1419.05 144.636 1417.84 148.148 1417.54 152.904H1440.05C1439.96 148.285 1438.95 144.813 1437.01 142.49C1435.07 140.139 1432.48 138.964 1429.22 138.964ZM1492.17 167.951C1492.17 169.673 1492.45 170.93 1493.03 171.723C1493.6 172.516 1494.49 173.103 1495.69 173.486L1494.01 178.324C1492.15 178.078 1490.53 177.49 1489.13 176.561C1487.74 175.604 1486.73 174.169 1486.1 172.256C1484.54 174.251 1482.6 175.768 1480.28 176.807C1477.95 177.818 1475.38 178.324 1472.57 178.324C1468.25 178.324 1464.85 177.108 1462.36 174.675C1459.87 172.242 1458.63 169.017 1458.63 164.999C1458.63 160.544 1460.36 157.127 1463.84 154.749C1467.31 152.371 1472.32 151.182 1478.88 151.182H1485.24V147.574C1485.24 144.458 1484.32 142.258 1482.49 140.973C1480.69 139.661 1478.17 139.005 1474.95 139.005C1473.53 139.005 1471.86 139.183 1469.94 139.538C1468.03 139.866 1465.95 140.426 1463.71 141.219L1461.91 136.012C1464.56 135.028 1467.05 134.331 1469.37 133.921C1471.69 133.511 1473.91 133.306 1476.01 133.306C1481.4 133.306 1485.43 134.563 1488.11 137.078C1490.81 139.565 1492.17 142.955 1492.17 147.246V167.951ZM1474.33 173.076C1476.46 173.076 1478.5 172.543 1480.44 171.477C1482.38 170.384 1483.98 168.88 1485.24 166.967V155.856H1479.01C1474.25 155.856 1470.89 156.676 1468.92 158.316C1466.98 159.956 1466.01 162.156 1466.01 164.917C1466.01 167.596 1466.69 169.632 1468.06 171.026C1469.45 172.393 1471.54 173.076 1474.33 173.076ZM1510.83 177.381V172.092H1517.55V139.497H1510.83V134.208H1522.8L1524.07 144.417C1525.74 140.864 1527.76 138.117 1530.14 136.176C1532.52 134.235 1535.66 133.265 1539.57 133.265C1540.77 133.265 1541.84 133.361 1542.77 133.552C1543.73 133.716 1544.7 133.935 1545.68 134.208L1543.67 140.358C1542.77 140.112 1541.95 139.934 1541.21 139.825C1540.47 139.688 1539.63 139.62 1538.67 139.62C1535.36 139.62 1532.52 140.795 1530.14 143.146C1527.76 145.497 1525.86 149.05 1524.44 153.806V172.092H1533.22V177.381H1510.83ZM1539.04 148.804V139.415L1539.74 134.208H1545.68L1544.7 148.804H1539.04ZM1625.2 133.306C1629.27 133.306 1632.67 134.235 1635.41 136.094C1638.17 137.925 1640.23 140.522 1641.6 143.884C1642.99 147.246 1643.69 151.209 1643.69 155.774C1643.69 160.175 1642.98 164.07 1641.56 167.459C1640.14 170.848 1638.04 173.513 1635.28 175.454C1632.55 177.367 1629.16 178.324 1625.12 178.324C1621.07 178.324 1617.67 177.395 1614.91 175.536C1612.15 173.677 1610.05 171.067 1608.63 167.705C1607.24 164.316 1606.54 160.366 1606.54 155.856C1606.54 151.401 1607.25 147.478 1608.67 144.089C1610.1 140.7 1612.19 138.062 1614.95 136.176C1617.74 134.263 1621.15 133.306 1625.2 133.306ZM1625.2 138.923C1621.48 138.923 1618.66 140.303 1616.75 143.064C1614.87 145.797 1613.92 150.061 1613.92 155.856C1613.92 161.541 1614.85 165.764 1616.71 168.525C1618.6 171.286 1621.4 172.666 1625.12 172.666C1628.83 172.666 1631.62 171.286 1633.48 168.525C1635.37 165.764 1636.31 161.514 1636.31 155.774C1636.31 150.034 1635.38 145.797 1633.52 143.064C1631.66 140.303 1628.89 138.923 1625.2 138.923ZM1683.43 115.963C1685.75 115.963 1687.85 116.168 1689.74 116.578C1691.63 116.988 1693.42 117.562 1695.11 118.3L1692.9 123.425C1691.5 122.824 1690.03 122.373 1688.47 122.072C1686.91 121.771 1685.3 121.621 1683.63 121.621C1680.62 121.621 1678.36 122.209 1676.83 123.384C1675.32 124.559 1674.57 126.363 1674.57 128.796V137.57H1689.21L1688.47 142.982H1674.57V177.381H1667.68V142.982H1657.39V137.57H1667.68V128.96C1667.68 126.281 1668.37 123.972 1669.73 122.031C1671.13 120.09 1673.01 118.601 1675.39 117.562C1677.77 116.496 1680.45 115.963 1683.43 115.963Z" fill="#9CC1E4"/>
<path d="M585.741 279.256L587.873 285.734C586.042 286.308 584.088 286.663 582.01 286.8C579.933 286.937 577.678 287.005 575.245 287.005C577.733 288.153 579.605 289.643 580.862 291.474C582.12 293.278 582.748 295.41 582.748 297.87C582.748 300.713 582.106 303.241 580.821 305.455C579.537 307.669 577.678 309.405 575.245 310.662C572.84 311.919 569.929 312.548 566.512 312.548C565.064 312.548 563.847 312.48 562.863 312.343C561.907 312.206 560.977 312.001 560.075 311.728C559.419 312.165 558.873 312.767 558.435 313.532C558.025 314.297 557.82 315.09 557.82 315.91C557.82 316.949 558.23 317.81 559.05 318.493C559.87 319.176 561.387 319.518 563.601 319.518H571.391C574.289 319.518 576.885 320.037 579.181 321.076C581.505 322.115 583.322 323.509 584.634 325.258C585.974 327.007 586.643 329.003 586.643 331.244C586.643 335.481 584.839 338.733 581.231 341.002C577.651 343.271 572.58 344.405 566.02 344.405C561.428 344.405 557.807 343.927 555.155 342.97C552.504 342.041 550.604 340.606 549.456 338.665C548.336 336.752 547.775 334.333 547.775 331.408H554.007C554.007 333.075 554.335 334.456 554.991 335.549C555.647 336.642 556.836 337.449 558.558 337.968C560.28 338.515 562.754 338.788 565.979 338.788C569.15 338.788 571.733 338.515 573.728 337.968C575.751 337.449 577.241 336.656 578.197 335.59C579.181 334.551 579.673 333.253 579.673 331.695C579.673 329.645 578.744 328.101 576.885 327.062C575.027 326.023 572.703 325.504 569.915 325.504H562.207C558.49 325.504 555.743 324.684 553.966 323.044C552.217 321.404 551.342 319.518 551.342 317.386C551.342 315.992 551.739 314.639 552.531 313.327C553.351 312.015 554.54 310.853 556.098 309.842C553.611 308.53 551.78 306.904 550.604 304.963C549.429 303.022 548.841 300.672 548.841 297.911C548.841 294.986 549.566 292.403 551.014 290.162C552.463 287.893 554.486 286.117 557.082 284.832C559.679 283.547 562.672 282.905 566.061 282.905C569.697 282.878 572.649 282.727 574.917 282.454C577.186 282.153 579.127 281.73 580.739 281.183C582.379 280.636 584.047 279.994 585.741 279.256ZM566.061 287.948C562.59 287.948 560.021 288.891 558.353 290.777C556.713 292.636 555.893 295.014 555.893 297.911C555.893 300.836 556.741 303.241 558.435 305.127C560.13 307.013 562.727 307.956 566.225 307.956C569.287 307.956 571.61 307.068 573.195 305.291C574.808 303.514 575.614 301.041 575.614 297.87C575.614 294.617 574.808 292.157 573.195 290.49C571.61 288.795 569.232 287.948 566.061 287.948ZM621.666 283.848V321.568H633.843V327.021H601.453V321.568H614.778V289.301H601.863V283.848H621.666ZM616.172 263.635C617.703 263.635 618.919 264.1 619.821 265.029C620.751 265.958 621.215 267.093 621.215 268.432C621.215 269.826 620.751 271.001 619.821 271.958C618.919 272.887 617.703 273.352 616.172 273.352C614.724 273.352 613.535 272.887 612.605 271.958C611.676 271.001 611.211 269.826 611.211 268.432C611.211 267.093 611.676 265.958 612.605 265.029C613.535 264.1 614.724 263.635 616.172 263.635ZM683.257 324.848C681.781 325.832 679.991 326.597 677.886 327.144C675.782 327.691 673.718 327.964 671.695 327.964C667.049 327.964 663.468 326.748 660.953 324.315C658.439 321.882 657.181 318.753 657.181 314.926V289.178H647.259V283.848H657.181V274.049L664.069 273.229V283.848H678.993L678.173 289.178H664.069V314.844C664.069 317.249 664.698 319.081 665.955 320.338C667.24 321.595 669.358 322.224 672.31 322.224C673.923 322.224 675.413 322.033 676.779 321.65C678.146 321.267 679.417 320.775 680.592 320.174L683.257 324.848ZM775.771 282.946C777.165 282.946 778.491 283.247 779.748 283.848C781.033 284.449 782.085 285.611 782.905 287.333C783.725 289.055 784.135 291.57 784.135 294.877V327.021H777.739V295.984C777.739 293.278 777.575 291.324 777.247 290.121C776.919 288.918 775.976 288.317 774.418 288.317C773.134 288.317 771.849 288.727 770.564 289.547C769.307 290.34 768.077 291.652 766.874 293.483V327.021H760.437V295.984C760.437 293.278 760.273 291.324 759.945 290.121C759.617 288.918 758.674 288.317 757.116 288.317C755.777 288.317 754.479 288.727 753.221 289.547C751.991 290.34 750.775 291.652 749.572 293.483V327.021H743.217V283.848H748.629L749.039 288.85C750.215 287.183 751.527 285.789 752.975 284.668C754.451 283.52 756.269 282.946 758.428 282.946C760.068 282.946 761.613 283.342 763.061 284.135C764.51 284.9 765.576 286.404 766.259 288.645C767.435 286.95 768.76 285.584 770.236 284.545C771.712 283.479 773.557 282.946 775.771 282.946ZM801.897 307.874C802.034 311.209 802.676 313.942 803.824 316.074C804.972 318.179 806.489 319.737 808.375 320.748C810.261 321.732 812.311 322.224 814.525 322.224C816.739 322.224 818.734 321.896 820.511 321.24C822.315 320.584 824.16 319.614 826.046 318.329L829.285 322.88C827.262 324.465 824.953 325.709 822.356 326.611C819.787 327.513 817.149 327.964 814.443 327.964C810.261 327.964 806.694 327.021 803.742 325.135C800.79 323.249 798.535 320.625 796.977 317.263C795.446 313.874 794.681 309.951 794.681 305.496C794.681 301.123 795.46 297.241 797.018 293.852C798.576 290.463 800.763 287.798 803.578 285.857C806.393 283.916 809.714 282.946 813.541 282.946C817.176 282.946 820.306 283.807 822.93 285.529C825.554 287.224 827.563 289.656 828.957 292.827C830.378 295.97 831.089 299.729 831.089 304.102C831.089 304.84 831.075 305.537 831.048 306.193C831.021 306.822 830.98 307.382 830.925 307.874H801.897ZM813.623 288.604C810.425 288.604 807.746 289.738 805.587 292.007C803.455 294.276 802.239 297.788 801.938 302.544H824.447C824.365 297.925 823.354 294.453 821.413 292.13C819.472 289.779 816.876 288.604 813.623 288.604ZM846.063 327.021V321.732H852.787V289.137H846.063V283.848H858.035L859.306 294.057C860.973 290.504 862.996 287.757 865.374 285.816C867.752 283.875 870.895 282.905 874.804 282.905C876.007 282.905 877.073 283.001 878.002 283.192C878.959 283.356 879.929 283.575 880.913 283.848L878.904 289.998C878.002 289.752 877.182 289.574 876.444 289.465C875.706 289.328 874.859 289.26 873.902 289.26C870.595 289.26 867.752 290.435 865.374 292.786C862.996 295.137 861.096 298.69 859.675 303.446V321.732H868.449V327.021H846.063ZM874.271 298.444V289.055L874.968 283.848H880.913L879.929 298.444H874.271ZM929.917 279.256L932.049 285.734C930.218 286.308 928.263 286.663 926.186 286.8C924.109 286.937 921.854 287.005 919.421 287.005C921.908 288.153 923.781 289.643 925.038 291.474C926.295 293.278 926.924 295.41 926.924 297.87C926.924 300.713 926.282 303.241 924.997 305.455C923.712 307.669 921.854 309.405 919.421 310.662C917.016 311.919 914.105 312.548 910.688 312.548C909.239 312.548 908.023 312.48 907.039 312.343C906.082 312.206 905.153 312.001 904.251 311.728C903.595 312.165 903.048 312.767 902.611 313.532C902.201 314.297 901.996 315.09 901.996 315.91C901.996 316.949 902.406 317.81 903.226 318.493C904.046 319.176 905.563 319.518 907.777 319.518H915.567C918.464 319.518 921.061 320.037 923.357 321.076C925.68 322.115 927.498 323.509 928.81 325.258C930.149 327.007 930.819 329.003 930.819 331.244C930.819 335.481 929.015 338.733 925.407 341.002C921.826 343.271 916.756 344.405 910.196 344.405C905.604 344.405 901.982 343.927 899.331 342.97C896.68 342.041 894.78 340.606 893.632 338.665C892.511 336.752 891.951 334.333 891.951 331.408H898.183C898.183 333.075 898.511 334.456 899.167 335.549C899.823 336.642 901.012 337.449 902.734 337.968C904.456 338.515 906.93 338.788 910.155 338.788C913.326 338.788 915.909 338.515 917.904 337.968C919.927 337.449 921.416 336.656 922.373 335.59C923.357 334.551 923.849 333.253 923.849 331.695C923.849 329.645 922.92 328.101 921.061 327.062C919.202 326.023 916.879 325.504 914.091 325.504H906.383C902.666 325.504 899.919 324.684 898.142 323.044C896.393 321.404 895.518 319.518 895.518 317.386C895.518 315.992 895.914 314.639 896.707 313.327C897.527 312.015 898.716 310.853 900.274 309.842C897.787 308.53 895.955 306.904 894.78 304.963C893.605 303.022 893.017 300.672 893.017 297.911C893.017 294.986 893.741 292.403 895.19 290.162C896.639 287.893 898.661 286.117 901.258 284.832C903.855 283.547 906.848 282.905 910.237 282.905C913.872 282.878 916.824 282.727 919.093 282.454C921.362 282.153 923.302 281.73 924.915 281.183C926.555 280.636 928.222 279.994 929.917 279.256ZM910.237 287.948C906.766 287.948 904.196 288.891 902.529 290.777C900.889 292.636 900.069 295.014 900.069 297.911C900.069 300.836 900.916 303.241 902.611 305.127C904.306 307.013 906.902 307.956 910.401 307.956C913.462 307.956 915.786 307.068 917.371 305.291C918.984 303.514 919.79 301.041 919.79 297.87C919.79 294.617 918.984 292.157 917.371 290.49C915.786 288.795 913.408 287.948 910.237 287.948ZM949.401 307.874C949.538 311.209 950.18 313.942 951.328 316.074C952.476 318.179 953.993 319.737 955.879 320.748C957.765 321.732 959.815 322.224 962.029 322.224C964.243 322.224 966.238 321.896 968.015 321.24C969.819 320.584 971.664 319.614 973.55 318.329L976.789 322.88C974.766 324.465 972.457 325.709 969.86 326.611C967.291 327.513 964.653 327.964 961.947 327.964C957.765 327.964 954.198 327.021 951.246 325.135C948.294 323.249 946.039 320.625 944.481 317.263C942.95 313.874 942.185 309.951 942.185 305.496C942.185 301.123 942.964 297.241 944.522 293.852C946.08 290.463 948.267 287.798 951.082 285.857C953.897 283.916 957.218 282.946 961.045 282.946C964.68 282.946 967.81 283.807 970.434 285.529C973.058 287.224 975.067 289.656 976.461 292.827C977.882 295.97 978.593 299.729 978.593 304.102C978.593 304.84 978.579 305.537 978.552 306.193C978.525 306.822 978.484 307.382 978.429 307.874H949.401ZM961.127 288.604C957.929 288.604 955.25 289.738 953.091 292.007C950.959 294.276 949.743 297.788 949.442 302.544H971.951C971.869 297.925 970.858 294.453 968.917 292.13C966.976 289.779 964.38 288.604 961.127 288.604ZM1061.84 322.019C1064 322.019 1066.01 321.664 1067.87 320.953C1069.75 320.242 1071.49 319.34 1073.07 318.247L1076.44 322.757C1074.55 324.37 1072.28 325.641 1069.63 326.57C1066.98 327.499 1064.38 327.964 1061.84 327.964C1057.55 327.964 1053.89 327.048 1050.85 325.217C1047.85 323.358 1045.55 320.762 1043.96 317.427C1042.38 314.065 1041.59 310.129 1041.59 305.619C1041.59 301.3 1042.38 297.433 1043.96 294.016C1045.58 290.572 1047.89 287.866 1050.89 285.898C1053.93 283.93 1057.6 282.946 1061.92 282.946C1064.68 282.946 1067.27 283.37 1069.67 284.217C1072.1 285.037 1074.33 286.281 1076.35 287.948L1072.99 292.54C1071.16 291.255 1069.32 290.299 1067.46 289.67C1065.63 289.014 1063.75 288.686 1061.84 288.686C1058.12 288.686 1055.06 290.08 1052.66 292.868C1050.25 295.656 1049.05 299.906 1049.05 305.619C1049.05 309.446 1049.6 312.575 1050.69 315.008C1051.81 317.413 1053.33 319.19 1055.24 320.338C1057.18 321.459 1059.38 322.019 1061.84 322.019ZM1107.93 282.946C1112.01 282.946 1115.41 283.875 1118.14 285.734C1120.9 287.565 1122.97 290.162 1124.33 293.524C1125.73 296.886 1126.42 300.849 1126.42 305.414C1126.42 309.815 1125.71 313.71 1124.29 317.099C1122.87 320.488 1120.78 323.153 1118.02 325.094C1115.29 327.007 1111.9 327.964 1107.85 327.964C1103.81 327.964 1100.4 327.035 1097.64 325.176C1094.88 323.317 1092.79 320.707 1091.37 317.345C1089.98 313.956 1089.28 310.006 1089.28 305.496C1089.28 301.041 1089.99 297.118 1091.41 293.729C1092.83 290.34 1094.92 287.702 1097.68 285.816C1100.47 283.903 1103.89 282.946 1107.93 282.946ZM1107.93 288.563C1104.22 288.563 1101.4 289.943 1099.49 292.704C1097.6 295.437 1096.66 299.701 1096.66 305.496C1096.66 311.181 1097.59 315.404 1099.45 318.165C1101.33 320.926 1104.13 322.306 1107.85 322.306C1111.57 322.306 1114.36 320.926 1116.22 318.165C1118.1 315.404 1119.04 311.154 1119.04 305.414C1119.04 299.674 1118.12 295.437 1116.26 292.704C1114.4 289.943 1111.62 288.563 1107.93 288.563ZM1140.66 327.021V283.848H1146.52L1147.06 289.834C1148.81 287.62 1150.99 285.925 1153.62 284.75C1156.27 283.547 1158.84 282.946 1161.32 282.946C1165.56 282.946 1168.64 284.067 1170.55 286.308C1172.49 288.549 1173.46 291.665 1173.46 295.656V327.021H1166.57V300.74C1166.57 297.788 1166.41 295.41 1166.08 293.606C1165.75 291.775 1165.07 290.449 1164.03 289.629C1162.99 288.782 1161.38 288.358 1159.19 288.358C1157.5 288.358 1155.9 288.727 1154.4 289.465C1152.92 290.203 1151.59 291.132 1150.42 292.253C1149.27 293.346 1148.31 294.453 1147.55 295.574V327.021H1140.66ZM1215.33 265.603C1217.65 265.603 1219.76 265.808 1221.64 266.218C1223.53 266.628 1225.32 267.202 1227.02 267.94L1224.8 273.065C1223.41 272.464 1221.93 272.013 1220.37 271.712C1218.82 271.411 1217.2 271.261 1215.54 271.261C1212.53 271.261 1210.26 271.849 1208.73 273.024C1207.23 274.199 1206.47 276.003 1206.47 278.436V287.21H1221.11L1220.37 292.622H1206.47V327.021H1199.59V292.622H1189.3V287.21H1199.59V278.6C1199.59 275.921 1200.27 273.612 1201.64 271.671C1203.03 269.73 1204.92 268.241 1207.29 267.202C1209.67 266.136 1212.35 265.603 1215.33 265.603ZM1255.81 266.464V316.361C1255.81 318.493 1256.46 320.01 1257.77 320.912C1259.11 321.787 1260.84 322.224 1262.94 322.224C1264.25 322.224 1265.5 322.087 1266.67 321.814C1267.85 321.541 1269.02 321.172 1270.2 320.707L1272.04 325.75C1270.87 326.324 1269.41 326.83 1267.66 327.267C1265.93 327.732 1263.98 327.964 1261.79 327.964C1257.97 327.964 1254.86 326.912 1252.49 324.807C1250.11 322.675 1248.92 319.737 1248.92 315.992V271.917H1235.68V266.464H1255.81ZM1310.02 283.848V321.568H1322.19V327.021H1289.8V321.568H1303.13V289.301H1290.21V283.848H1310.02ZM1304.52 263.635C1306.05 263.635 1307.27 264.1 1308.17 265.029C1309.1 265.958 1309.57 267.093 1309.57 268.432C1309.57 269.826 1309.1 271.001 1308.17 271.958C1307.27 272.887 1306.05 273.352 1304.52 273.352C1303.08 273.352 1301.89 272.887 1300.96 271.958C1300.03 271.001 1299.56 269.826 1299.56 268.432C1299.56 267.093 1300.03 265.958 1300.96 265.029C1301.89 264.1 1303.08 263.635 1304.52 263.635ZM1356.85 322.019C1359.01 322.019 1361.02 321.664 1362.88 320.953C1364.76 320.242 1366.5 319.34 1368.08 318.247L1371.44 322.757C1369.56 324.37 1367.29 325.641 1364.64 326.57C1361.99 327.499 1359.39 327.964 1356.85 327.964C1352.56 327.964 1348.89 327.048 1345.86 325.217C1342.85 323.358 1340.56 320.762 1338.97 317.427C1337.39 314.065 1336.59 310.129 1336.59 305.619C1336.59 301.3 1337.39 297.433 1338.97 294.016C1340.59 290.572 1342.9 287.866 1345.9 285.898C1348.94 283.93 1352.61 282.946 1356.93 282.946C1359.69 282.946 1362.27 283.37 1364.68 284.217C1367.11 285.037 1369.34 286.281 1371.36 287.948L1368 292.54C1366.17 291.255 1364.32 290.299 1362.47 289.67C1360.63 289.014 1358.76 288.686 1356.85 288.686C1353.13 288.686 1350.07 290.08 1347.66 292.868C1345.26 295.656 1344.06 299.906 1344.06 305.619C1344.06 309.446 1344.6 312.575 1345.7 315.008C1346.82 317.413 1348.33 319.19 1350.25 320.338C1352.19 321.459 1354.39 322.019 1356.85 322.019ZM1420.78 324.848C1419.3 325.832 1417.51 326.597 1415.41 327.144C1413.3 327.691 1411.24 327.964 1409.21 327.964C1404.57 327.964 1400.99 326.748 1398.47 324.315C1395.96 321.882 1394.7 318.753 1394.7 314.926V289.178H1384.78V283.848H1394.7V274.049L1401.59 273.229V283.848H1416.51L1415.69 289.178H1401.59V314.844C1401.59 317.249 1402.22 319.081 1403.47 320.338C1404.76 321.595 1406.88 322.224 1409.83 322.224C1411.44 322.224 1412.93 322.033 1414.3 321.65C1415.67 321.267 1416.94 320.775 1418.11 320.174L1420.78 324.848ZM1450.35 322.265C1453.65 322.265 1456.26 321.65 1458.18 320.42C1460.12 319.163 1461.09 317.495 1461.09 315.418C1461.09 314.106 1460.84 312.972 1460.35 312.015C1459.89 311.058 1458.92 310.197 1457.44 309.432C1455.96 308.667 1453.7 307.901 1450.63 307.136C1447.65 306.398 1445.06 305.551 1442.84 304.594C1440.66 303.61 1438.95 302.339 1437.72 300.781C1436.52 299.223 1435.91 297.2 1435.91 294.713C1435.91 292.28 1436.6 290.189 1437.96 288.44C1439.36 286.663 1441.29 285.31 1443.75 284.381C1446.21 283.424 1449.06 282.946 1452.31 282.946C1455.79 282.946 1458.81 283.411 1461.38 284.34C1463.97 285.242 1466.17 286.363 1467.98 287.702L1464.94 292.376C1463.3 291.255 1461.5 290.34 1459.53 289.629C1457.56 288.891 1455.18 288.522 1452.4 288.522C1449.01 288.522 1446.6 289.055 1445.18 290.121C1443.76 291.16 1443.05 292.513 1443.05 294.18C1443.05 295.437 1443.39 296.49 1444.07 297.337C1444.78 298.157 1445.97 298.909 1447.64 299.592C1449.31 300.248 1451.6 300.972 1454.53 301.765C1457.34 302.503 1459.79 303.391 1461.87 304.43C1463.97 305.469 1465.61 306.835 1466.79 308.53C1467.96 310.225 1468.55 312.411 1468.55 315.09C1468.55 318.151 1467.68 320.639 1465.93 322.552C1464.18 324.438 1461.91 325.818 1459.12 326.693C1456.36 327.54 1453.44 327.964 1450.35 327.964C1446.44 327.964 1443.1 327.404 1440.34 326.283C1437.61 325.135 1435.31 323.755 1433.45 322.142L1437.39 317.591C1439.09 318.985 1441.03 320.119 1443.21 320.994C1445.43 321.841 1447.8 322.265 1450.35 322.265Z" fill="white"/>
<path d="M487.967 680.871C488.894 678.206 488.862 675.363 487.983 672.813C490.883 673.556 493.993 673.181 496.682 671.718C497.539 671.3 498.548 670.951 499.795 670.636C513.62 667.52 524.793 681.782 518.714 694.355C517.367 697.073 517.177 699.937 517.829 702.532C512.41 700.768 506.283 703.275 503.55 708.245C502.152 705.675 499.84 703.694 497.049 702.695C494.073 701.427 491.469 699.301 489.672 696.641L489.657 696.619L489.642 696.597C486.589 692.163 485.896 686.249 487.898 681.059L487.934 680.966L487.967 680.871ZM571.468 765.272C572.728 762.563 572.841 759.702 572.097 757.129C574.915 757.928 577.981 757.675 580.707 756.306C581.442 755.978 582.343 755.706 583.449 755.469C589.014 754.302 594.859 756.145 598.757 760.043C609.278 770.563 601.754 788.7 586.9 788.7C574.718 788.7 566.737 776.252 571.468 765.272ZM497.508 861.438C500.16 860.333 502.23 858.425 503.516 856.091C504.91 858.692 507.238 860.698 510.052 861.705C513.021 862.97 515.62 865.09 517.417 867.742C519.203 870.426 520.3 873.675 520.3 877.2C520.3 892.05 502.172 899.574 491.651 889.065C483.075 880.402 486.145 865.896 497.391 861.486L497.449 861.463L497.508 861.438ZM543.246 696.655C550.33 667.345 523.451 640.467 494.14 647.555L456.785 610.2L503.5 563.485L711.515 771.5L503.5 979.515L295.485 771.5L425 641.985L463.345 680.33C460.58 696.307 467.553 712.315 481 721.196V843.002C459.838 856.948 456.181 887.367 474.657 905.843C490.6 921.785 516.397 921.786 532.341 905.845C550.937 887.347 547.146 856.934 526 843.002V742.955L547.049 763.942C541.891 788.854 560.81 812.9 587 812.9C609.514 812.9 627.8 794.614 627.8 772.1C627.8 746.013 603.757 726.991 578.831 732.152L543.246 696.655Z" fill="url(#paint1_linear_1241_6)" stroke="url(#paint2_linear_1241_6)" stroke-width="12"/>
<g filter="url(#filter0_d_1241_6)">
<path fill-rule="evenodd" clip-rule="evenodd" d="M1448.01 603L1405 782.979H1431.53L1405.72 941L1554.12 739.784H1498.56L1581 603H1448.01Z" fill="url(#paint3_linear_1241_6)"/>
<path fill-rule="evenodd" clip-rule="evenodd" d="M1448.01 603L1405 782.979H1431.53L1405.72 941L1554.12 739.784H1498.56L1581 603H1448.01Z" stroke="url(#paint4_linear_1241_6)" stroke-width="17" stroke-linecap="round" stroke-linejoin="round"/>
</g>
</g>
<defs>
<filter id="filter0_d_1241_6" x="1382.5" y="587.5" width="221" height="383" filterUnits="userSpaceOnUse" color-interpolation-filters="sRGB">
<feFlood flood-opacity="0" result="BackgroundImageFix"/>
<feColorMatrix in="SourceAlpha" type="matrix" values="0 0 0 0 0 0 0 0 0 0 0 0 0 0 0 0 0 0 127 0" result="hardAlpha"/>
<feOffset dy="7"/>
<feGaussianBlur stdDeviation="7"/>
<feColorMatrix type="matrix" values="0 0 0 0 0 0 0 0 0 0 0 0 0 0 0 0 0 0 0.5 0"/>
<feBlend mode="normal" in2="BackgroundImageFix" result="effect1_dropShadow_1241_6"/>
<feBlend mode="normal" in="SourceGraphic" in2="effect1_dropShadow_1241_6" result="shape"/>
</filter>
<linearGradient id="paint0_linear_1241_6" x1="960" y1="0" x2="960" y2="1080" gradientUnits="userSpaceOnUse">
<stop stop-color="#323232"/>
<stop offset="1"/>
</linearGradient>
<linearGradient id="paint1_linear_1241_6" x1="503.501" y1="555" x2="503.501" y2="988" gradientUnits="userSpaceOnUse">
<stop stop-color="#B32BD5"/>
<stop offset="1" stop-color="#DA3C8E"/>
</linearGradient>
<linearGradient id="paint2_linear_1241_6" x1="288.116" y1="989.082" x2="725.446" y2="989.082" gradientUnits="userSpaceOnUse">
<stop stop-color="#0095D5"/>
<stop offset="0.464053" stop-color="#7272E1"/>
<stop offset="1" stop-color="#7E6EE3"/>
</linearGradient>
<linearGradient id="paint3_linear_1241_6" x1="1493" y1="603" x2="1493" y2="941" gradientUnits="userSpaceOnUse">
<stop stop-color="#B32BD5"/>
<stop offset="1" stop-color="#DA3C8E"/>
</linearGradient>
<linearGradient id="paint4_linear_1241_6" x1="1405.45" y1="941.845" x2="1583.21" y2="941.845" gradientUnits="userSpaceOnUse">
<stop stop-color="#0095D5"/>
<stop offset="0.464053" stop-color="#7272E1"/>
<stop offset="1" stop-color="#7E6EE3"/>
</linearGradient>
<clipPath id="clip0_1241_6">
<rect width="1920" height="1080" fill="white"/>
</clipPath>
</defs>
</svg>
