<svg width="1920" height="1080" viewBox="0 0 1920 1080" fill="none" xmlns="http://www.w3.org/2000/svg">
<g id="gradle-dep" clip-path="url(#clip0)">
<rect width="1920" height="1080" fill="white"/>
<g id="Rectangle">
<rect x="1" y="-6" width="1920" height="1080" fill="#323232"/>
<rect x="1" y="-6" width="1920" height="1080" fill="url(#paint0_linear)" fill-opacity="0.15"/>
</g>
<path id="Java vs Kotlin" d="M335.21 291.45H372.26V343.95C366.46 345.85 360.61 347.25 354.71 348.15C348.81 349.05 342.11 349.5 334.61 349.5C323.51 349.5 314.16 347.3 306.56 342.9C298.96 338.4 293.16 332.05 289.16 323.85C285.26 315.55 283.31 305.75 283.31 294.45C283.31 283.25 285.51 273.55 289.91 265.35C294.31 257.15 300.61 250.8 308.81 246.3C317.11 241.7 327.11 239.4 338.81 239.4C344.81 239.4 350.46 239.95 355.76 241.05C361.16 242.15 366.16 243.7 370.76 245.7L365.66 257.4C361.86 255.7 357.56 254.25 352.76 253.05C348.06 251.85 343.16 251.25 338.06 251.25C325.26 251.25 315.26 255.1 308.06 262.8C300.96 270.5 297.41 281.05 297.41 294.45C297.41 302.95 298.76 310.5 301.46 317.1C304.26 323.6 308.61 328.7 314.51 332.4C320.41 336 328.16 337.8 337.76 337.8C342.46 337.8 346.46 337.55 349.76 337.05C353.06 336.55 356.06 335.95 358.76 335.25V303.45H335.21V291.45ZM433.541 266.1C435.041 266.1 436.641 266.2 438.341 266.4C440.141 266.5 441.691 266.7 442.991 267L441.341 279.15C440.041 278.85 438.591 278.6 436.991 278.4C435.491 278.2 434.041 278.1 432.641 278.1C428.541 278.1 424.691 279.25 421.091 281.55C417.491 283.75 414.591 286.9 412.391 291C410.291 295 409.241 299.7 409.241 305.1V348H396.041V267.6H406.841L408.341 282.3H408.941C411.541 277.9 414.891 274.1 418.991 270.9C423.091 267.7 427.941 266.1 433.541 266.1ZM485.524 266.25C495.324 266.25 502.574 268.4 507.274 272.7C511.974 277 514.324 283.85 514.324 293.25V348H504.724L502.174 336.6H501.574C498.074 341 494.374 344.25 490.474 346.35C486.674 348.45 481.374 349.5 474.574 349.5C467.274 349.5 461.224 347.6 456.424 343.8C451.624 339.9 449.224 333.85 449.224 325.65C449.224 317.65 452.374 311.5 458.674 307.2C464.974 302.8 474.674 300.4 487.774 300L501.424 299.55V294.75C501.424 288.05 499.974 283.4 497.074 280.8C494.174 278.2 490.074 276.9 484.774 276.9C480.574 276.9 476.574 277.55 472.774 278.85C468.974 280.05 465.424 281.45 462.124 283.05L458.074 273.15C461.574 271.25 465.724 269.65 470.524 268.35C475.324 266.95 480.324 266.25 485.524 266.25ZM489.424 309.15C479.424 309.55 472.474 311.15 468.574 313.95C464.774 316.75 462.874 320.7 462.874 325.8C462.874 330.3 464.224 333.6 466.924 335.7C469.724 337.8 473.274 338.85 477.574 338.85C484.374 338.85 490.024 337 494.524 333.3C499.024 329.5 501.274 323.7 501.274 315.9V308.7L489.424 309.15ZM567.656 349.5C557.656 349.5 549.656 346.05 543.656 339.15C537.656 332.15 534.656 321.75 534.656 307.95C534.656 294.15 537.656 283.75 543.656 276.75C549.756 269.65 557.806 266.1 567.806 266.1C574.006 266.1 579.056 267.25 582.956 269.55C586.956 271.85 590.206 274.65 592.706 277.95H593.606C593.506 276.65 593.306 274.75 593.006 272.25C592.806 269.65 592.706 267.6 592.706 266.1V234H605.906V348H595.256L593.306 337.2H592.706C590.306 340.6 587.106 343.5 583.106 345.9C579.106 348.3 573.956 349.5 567.656 349.5ZM569.756 338.55C578.256 338.55 584.206 336.25 587.606 331.65C591.106 326.95 592.856 319.9 592.856 310.5V308.1C592.856 298.1 591.206 290.45 587.906 285.15C584.606 279.75 578.506 277.05 569.606 277.05C562.506 277.05 557.156 279.9 553.556 285.6C550.056 291.2 548.306 298.75 548.306 308.25C548.306 317.85 550.056 325.3 553.556 330.6C557.156 335.9 562.556 338.55 569.756 338.55ZM644.641 348H631.441V234H644.641V348ZM701.163 266.1C708.063 266.1 713.963 267.6 718.863 270.6C723.863 273.6 727.663 277.85 730.263 283.35C732.963 288.75 734.313 295.1 734.313 302.4V310.35H679.263C679.463 319.45 681.763 326.4 686.163 331.2C690.663 335.9 696.913 338.25 704.913 338.25C710.013 338.25 714.513 337.8 718.413 336.9C722.413 335.9 726.513 334.5 730.713 332.7V344.25C726.613 346.05 722.563 347.35 718.563 348.15C714.563 349.05 709.813 349.5 704.313 349.5C696.713 349.5 689.963 347.95 684.063 344.85C678.263 341.75 673.713 337.15 670.413 331.05C667.213 324.85 665.613 317.3 665.613 308.4C665.613 299.6 667.063 292.05 669.963 285.75C672.963 279.45 677.113 274.6 682.413 271.2C687.813 267.8 694.063 266.1 701.163 266.1ZM701.013 276.9C694.713 276.9 689.713 278.95 686.013 283.05C682.413 287.05 680.263 292.65 679.563 299.85H720.513C720.413 293.05 718.813 287.55 715.713 283.35C712.613 279.05 707.713 276.9 701.013 276.9ZM822.246 349.5C812.246 349.5 804.246 346.05 798.246 339.15C792.246 332.15 789.246 321.75 789.246 307.95C789.246 294.15 792.246 283.75 798.246 276.75C804.346 269.65 812.396 266.1 822.396 266.1C828.596 266.1 833.646 267.25 837.546 269.55C841.546 271.85 844.796 274.65 847.296 277.95H848.196C848.096 276.65 847.896 274.75 847.596 272.25C847.396 269.65 847.296 267.6 847.296 266.1V234H860.496V348H849.846L847.896 337.2H847.296C844.896 340.6 841.696 343.5 837.696 345.9C833.696 348.3 828.546 349.5 822.246 349.5ZM824.346 338.55C832.846 338.55 838.796 336.25 842.196 331.65C845.696 326.95 847.446 319.9 847.446 310.5V308.1C847.446 298.1 845.796 290.45 842.496 285.15C839.196 279.75 833.096 277.05 824.196 277.05C817.096 277.05 811.746 279.9 808.146 285.6C804.646 291.2 802.896 298.75 802.896 308.25C802.896 317.85 804.646 325.3 808.146 330.6C811.746 335.9 817.146 338.55 824.346 338.55ZM917.081 266.1C923.981 266.1 929.881 267.6 934.781 270.6C939.781 273.6 943.581 277.85 946.181 283.35C948.881 288.75 950.231 295.1 950.231 302.4V310.35H895.181C895.381 319.45 897.681 326.4 902.081 331.2C906.581 335.9 912.831 338.25 920.831 338.25C925.931 338.25 930.431 337.8 934.331 336.9C938.331 335.9 942.431 334.5 946.631 332.7V344.25C942.531 346.05 938.481 347.35 934.481 348.15C930.481 349.05 925.731 349.5 920.231 349.5C912.631 349.5 905.881 347.95 899.981 344.85C894.181 341.75 889.631 337.15 886.331 331.05C883.131 324.85 881.531 317.3 881.531 308.4C881.531 299.6 882.981 292.05 885.881 285.75C888.881 279.45 893.031 274.6 898.331 271.2C903.731 267.8 909.981 266.1 917.081 266.1ZM916.931 276.9C910.631 276.9 905.631 278.95 901.931 283.05C898.331 287.05 896.181 292.65 895.481 299.85H936.431C936.331 293.05 934.731 287.55 931.631 283.35C928.531 279.05 923.631 276.9 916.931 276.9ZM1008.95 266.1C1018.85 266.1 1026.8 269.55 1032.8 276.45C1038.9 283.35 1041.95 293.75 1041.95 307.65C1041.95 321.35 1038.9 331.75 1032.8 338.85C1026.8 345.95 1018.8 349.5 1008.8 349.5C1002.6 349.5 997.449 348.35 993.349 346.05C989.349 343.65 986.199 340.9 983.899 337.8H982.999C983.199 339.5 983.399 341.65 983.599 344.25C983.799 346.85 983.899 349.1 983.899 351V384H970.699V267.6H981.499L983.299 278.55H983.899C986.299 275.05 989.449 272.1 993.349 269.7C997.249 267.3 1002.45 266.1 1008.95 266.1ZM1006.55 277.2C998.349 277.2 992.549 279.5 989.149 284.1C985.849 288.7 984.099 295.7 983.899 305.1V307.65C983.899 317.55 985.499 325.2 988.699 330.6C991.999 335.9 998.049 338.55 1006.85 338.55C1011.75 338.55 1015.75 337.2 1018.85 334.5C1022.05 331.8 1024.4 328.15 1025.9 323.55C1027.5 318.85 1028.3 313.5 1028.3 307.5C1028.3 298.3 1026.5 290.95 1022.9 285.45C1019.4 279.95 1013.95 277.2 1006.55 277.2ZM1094.03 266.1C1100.93 266.1 1106.83 267.6 1111.73 270.6C1116.73 273.6 1120.53 277.85 1123.13 283.35C1125.83 288.75 1127.18 295.1 1127.18 302.4V310.35H1072.13C1072.33 319.45 1074.63 326.4 1079.03 331.2C1083.53 335.9 1089.78 338.25 1097.78 338.25C1102.88 338.25 1107.38 337.8 1111.28 336.9C1115.28 335.9 1119.38 334.5 1123.58 332.7V344.25C1119.48 346.05 1115.43 347.35 1111.43 348.15C1107.43 349.05 1102.68 349.5 1097.18 349.5C1089.58 349.5 1082.83 347.95 1076.93 344.85C1071.13 341.75 1066.58 337.15 1063.28 331.05C1060.08 324.85 1058.48 317.3 1058.48 308.4C1058.48 299.6 1059.93 292.05 1062.83 285.75C1065.83 279.45 1069.98 274.6 1075.28 271.2C1080.68 267.8 1086.93 266.1 1094.03 266.1ZM1093.88 276.9C1087.58 276.9 1082.58 278.95 1078.88 283.05C1075.28 287.05 1073.13 292.65 1072.43 299.85H1113.38C1113.28 293.05 1111.68 287.55 1108.58 283.35C1105.48 279.05 1100.58 276.9 1093.88 276.9ZM1186.35 266.1C1195.95 266.1 1203.2 268.45 1208.1 273.15C1213 277.75 1215.45 285.25 1215.45 295.65V348H1202.4V296.55C1202.4 283.65 1196.4 277.2 1184.4 277.2C1175.5 277.2 1169.35 279.7 1165.95 284.7C1162.55 289.7 1160.85 296.9 1160.85 306.3V348H1147.65V267.6H1158.3L1160.25 278.55H1161C1163.6 274.35 1167.2 271.25 1171.8 269.25C1176.4 267.15 1181.25 266.1 1186.35 266.1ZM1268.88 349.5C1258.88 349.5 1250.88 346.05 1244.88 339.15C1238.88 332.15 1235.88 321.75 1235.88 307.95C1235.88 294.15 1238.88 283.75 1244.88 276.75C1250.98 269.65 1259.03 266.1 1269.03 266.1C1275.23 266.1 1280.28 267.25 1284.18 269.55C1288.18 271.85 1291.43 274.65 1293.93 277.95H1294.83C1294.73 276.65 1294.53 274.75 1294.23 272.25C1294.03 269.65 1293.93 267.6 1293.93 266.1V234H1307.13V348H1296.48L1294.53 337.2H1293.93C1291.53 340.6 1288.33 343.5 1284.33 345.9C1280.33 348.3 1275.18 349.5 1268.88 349.5ZM1270.98 338.55C1279.48 338.55 1285.43 336.25 1288.83 331.65C1292.33 326.95 1294.08 319.9 1294.08 310.5V308.1C1294.08 298.1 1292.43 290.45 1289.13 285.15C1285.83 279.75 1279.73 277.05 1270.83 277.05C1263.73 277.05 1258.38 279.9 1254.78 285.6C1251.28 291.2 1249.53 298.75 1249.53 308.25C1249.53 317.85 1251.28 325.3 1254.78 330.6C1258.38 335.9 1263.78 338.55 1270.98 338.55ZM1363.71 266.1C1370.61 266.1 1376.51 267.6 1381.41 270.6C1386.41 273.6 1390.21 277.85 1392.81 283.35C1395.51 288.75 1396.86 295.1 1396.86 302.4V310.35H1341.81C1342.01 319.45 1344.31 326.4 1348.71 331.2C1353.21 335.9 1359.46 338.25 1367.46 338.25C1372.56 338.25 1377.06 337.8 1380.96 336.9C1384.96 335.9 1389.06 334.5 1393.26 332.7V344.25C1389.16 346.05 1385.11 347.35 1381.11 348.15C1377.11 349.05 1372.36 349.5 1366.86 349.5C1359.26 349.5 1352.51 347.95 1346.61 344.85C1340.81 341.75 1336.26 337.15 1332.96 331.05C1329.76 324.85 1328.16 317.3 1328.16 308.4C1328.16 299.6 1329.61 292.05 1332.51 285.75C1335.51 279.45 1339.66 274.6 1344.96 271.2C1350.36 267.8 1356.61 266.1 1363.71 266.1ZM1363.56 276.9C1357.26 276.9 1352.26 278.95 1348.56 283.05C1344.96 287.05 1342.81 292.65 1342.11 299.85H1383.06C1382.96 293.05 1381.36 287.55 1378.26 283.35C1375.16 279.05 1370.26 276.9 1363.56 276.9ZM1456.03 266.1C1465.63 266.1 1472.88 268.45 1477.78 273.15C1482.68 277.75 1485.13 285.25 1485.13 295.65V348H1472.08V296.55C1472.08 283.65 1466.08 277.2 1454.08 277.2C1445.18 277.2 1439.03 279.7 1435.63 284.7C1432.23 289.7 1430.53 296.9 1430.53 306.3V348H1417.33V267.6H1427.98L1429.93 278.55H1430.68C1433.28 274.35 1436.88 271.25 1441.48 269.25C1446.08 267.15 1450.93 266.1 1456.03 266.1ZM1542.3 349.5C1535.2 349.5 1528.85 348.05 1523.25 345.15C1517.75 342.25 1513.4 337.75 1510.2 331.65C1507.1 325.55 1505.55 317.75 1505.55 308.25C1505.55 298.35 1507.2 290.3 1510.5 284.1C1513.8 277.9 1518.25 273.35 1523.85 270.45C1529.55 267.55 1536 266.1 1543.2 266.1C1547.3 266.1 1551.25 266.55 1555.05 267.45C1558.85 268.25 1561.95 269.25 1564.35 270.45L1560.3 281.4C1557.9 280.5 1555.1 279.65 1551.9 278.85C1548.7 278.05 1545.7 277.65 1542.9 277.65C1527.1 277.65 1519.2 287.8 1519.2 308.1C1519.2 317.8 1521.1 325.25 1524.9 330.45C1528.8 335.55 1534.55 338.1 1542.15 338.1C1546.55 338.1 1550.4 337.65 1553.7 336.75C1557.1 335.85 1560.2 334.75 1563 333.45V345.15C1560.3 346.55 1557.3 347.6 1554 348.3C1550.8 349.1 1546.9 349.5 1542.3 349.5ZM1569.53 267.6H1583.63L1601.03 313.35C1602.53 317.35 1603.88 321.2 1605.08 324.9C1606.28 328.5 1607.18 331.95 1607.78 335.25H1608.38C1608.98 332.75 1609.93 329.5 1611.23 325.5C1612.53 321.4 1613.88 317.3 1615.28 313.2L1631.63 267.6H1645.88L1611.23 359.1C1608.43 366.7 1604.78 372.75 1600.28 377.25C1595.88 381.75 1589.78 384 1581.98 384C1579.58 384 1577.48 383.85 1575.68 383.55C1573.88 383.35 1572.33 383.1 1571.03 382.8V372.3C1572.13 372.5 1573.43 372.7 1574.93 372.9C1576.53 373.1 1578.18 373.2 1579.88 373.2C1584.48 373.2 1588.18 371.9 1590.98 369.3C1593.88 366.7 1596.13 363.25 1597.73 358.95L1601.93 348.3L1569.53 267.6Z" fill="#61DAFB"/>
<path id="Android development" d="M477.372 121.88C484.839 121.88 490.279 123.347 493.692 126.28C497.106 129.213 498.812 133.347 498.812 138.68C498.812 141.827 498.092 144.787 496.652 147.56C495.266 150.28 492.892 152.493 489.532 154.2C486.226 155.907 481.719 156.76 476.012 156.76H469.452V179H462.252V121.88H477.372ZM476.732 128.04H469.452V150.6H475.212C480.652 150.6 484.706 149.72 487.372 147.96C490.039 146.2 491.372 143.213 491.372 139C491.372 135.32 490.199 132.573 487.852 130.76C485.506 128.947 481.799 128.04 476.732 128.04ZM545.57 136.12V179H539.81L538.77 173.32H538.45C537.063 175.56 535.143 177.213 532.69 178.28C530.236 179.293 527.623 179.8 524.85 179.8C519.676 179.8 515.783 178.573 513.17 176.12C510.556 173.613 509.25 169.64 509.25 164.2V136.12H516.37V163.72C516.37 170.547 519.543 173.96 525.89 173.96C530.636 173.96 533.916 172.627 535.73 169.96C537.596 167.293 538.53 163.453 538.53 158.44V136.12H545.57ZM566.223 133C566.223 134.813 566.169 136.52 566.063 138.12C566.009 139.667 565.929 140.893 565.823 141.8H566.223C567.449 139.987 569.129 138.467 571.263 137.24C573.396 136.013 576.143 135.4 579.503 135.4C584.836 135.4 589.103 137.267 592.303 141C595.556 144.68 597.183 150.2 597.183 157.56C597.183 164.92 595.556 170.467 592.303 174.2C589.049 177.933 584.783 179.8 579.503 179.8C576.143 179.8 573.396 179.187 571.263 177.96C569.129 176.733 567.449 175.267 566.223 173.56H565.663L564.223 179H559.183V118.2H566.223V133ZM578.303 141.24C573.769 141.24 570.623 142.547 568.863 145.16C567.103 147.773 566.223 151.827 566.223 157.32V157.64C566.223 162.92 567.076 166.973 568.783 169.8C570.543 172.573 573.769 173.96 578.463 173.96C582.303 173.96 585.156 172.547 587.023 169.72C588.943 166.893 589.903 162.813 589.903 157.48C589.903 146.653 586.036 141.24 578.303 141.24ZM615.442 179H608.402V118.2H615.442V179ZM632.627 120.04C633.693 120.04 634.627 120.413 635.427 121.16C636.28 121.853 636.707 122.973 636.707 124.52C636.707 126.013 636.28 127.133 635.427 127.88C634.627 128.627 633.693 129 632.627 129C631.453 129 630.467 128.627 629.667 127.88C628.867 127.133 628.467 126.013 628.467 124.52C628.467 122.973 628.867 121.853 629.667 121.16C630.467 120.413 631.453 120.04 632.627 120.04ZM636.067 136.12V179H629.027V136.12H636.067ZM677.572 167.16C677.572 171.32 676.025 174.467 672.932 176.6C669.838 178.733 665.678 179.8 660.452 179.8C657.465 179.8 654.878 179.56 652.692 179.08C650.558 178.6 648.665 177.933 647.012 177.08V170.68C648.718 171.533 650.772 172.333 653.172 173.08C655.625 173.773 658.105 174.12 660.612 174.12C664.185 174.12 666.772 173.56 668.372 172.44C669.972 171.267 670.772 169.72 670.772 167.8C670.772 166.733 670.478 165.773 669.892 164.92C669.305 164.067 668.238 163.213 666.692 162.36C665.198 161.507 663.038 160.547 660.212 159.48C657.438 158.413 655.065 157.347 653.092 156.28C651.118 155.213 649.598 153.933 648.532 152.44C647.465 150.947 646.932 149.027 646.932 146.68C646.932 143.053 648.398 140.253 651.332 138.28C654.318 136.307 658.212 135.32 663.012 135.32C665.625 135.32 668.052 135.587 670.292 136.12C672.585 136.6 674.718 137.293 676.692 138.2L674.292 143.8C672.478 143.053 670.585 142.413 668.612 141.88C666.638 141.347 664.612 141.08 662.532 141.08C659.652 141.08 657.438 141.56 655.892 142.52C654.398 143.427 653.652 144.68 653.652 146.28C653.652 147.453 653.998 148.467 654.692 149.32C655.385 150.12 656.532 150.92 658.132 151.72C659.785 152.467 661.972 153.373 664.692 154.44C667.412 155.453 669.732 156.493 671.652 157.56C673.572 158.627 675.038 159.933 676.052 161.48C677.065 162.973 677.572 164.867 677.572 167.16ZM694.973 136.04C694.973 138.173 694.839 140.173 694.573 142.04H695.053C696.439 139.853 698.306 138.2 700.653 137.08C703.053 135.96 705.639 135.4 708.413 135.4C713.639 135.4 717.559 136.653 720.173 139.16C722.786 141.613 724.093 145.587 724.093 151.08V179H717.133V151.56C717.133 144.68 713.933 141.24 707.533 141.24C702.733 141.24 699.426 142.6 697.613 145.32C695.853 147.987 694.973 151.827 694.973 156.84V179H687.933V118.2H694.973V136.04ZM774.407 135.4C779.634 135.4 783.501 136.547 786.007 138.84C788.514 141.133 789.767 144.787 789.767 149.8V179H784.647L783.287 172.92H782.967C781.101 175.267 779.127 177 777.047 178.12C775.021 179.24 772.194 179.8 768.567 179.8C764.674 179.8 761.447 178.787 758.887 176.76C756.327 174.68 755.047 171.453 755.047 167.08C755.047 162.813 756.727 159.533 760.087 157.24C763.447 154.893 768.621 153.613 775.607 153.4L782.887 153.16V150.6C782.887 147.027 782.114 144.547 780.567 143.16C779.021 141.773 776.834 141.08 774.007 141.08C771.767 141.08 769.634 141.427 767.607 142.12C765.581 142.76 763.687 143.507 761.927 144.36L759.767 139.08C761.634 138.067 763.847 137.213 766.407 136.52C768.967 135.773 771.634 135.4 774.407 135.4ZM776.487 158.28C771.154 158.493 767.447 159.347 765.367 160.84C763.341 162.333 762.327 164.44 762.327 167.16C762.327 169.56 763.047 171.32 764.487 172.44C765.981 173.56 767.874 174.12 770.167 174.12C773.794 174.12 776.807 173.133 779.207 171.16C781.607 169.133 782.807 166.04 782.807 161.88V158.04L776.487 158.28ZM866.512 179H858.032L837.792 151.72L831.952 156.84V179H824.752V121.88H831.952V150.04C833.552 148.227 835.179 146.413 836.832 144.6C838.486 142.787 840.139 140.973 841.792 139.16L857.232 121.88H865.632L842.992 146.76L866.512 179ZM910.603 157.48C910.603 164.573 908.79 170.067 905.163 173.96C901.59 177.853 896.737 179.8 890.603 179.8C886.817 179.8 883.43 178.947 880.443 177.24C877.51 175.48 875.19 172.947 873.483 169.64C871.777 166.28 870.923 162.227 870.923 157.48C870.923 150.387 872.71 144.92 876.283 141.08C879.857 137.24 884.71 135.32 890.843 135.32C894.737 135.32 898.15 136.2 901.083 137.96C904.07 139.667 906.39 142.173 908.043 145.48C909.75 148.733 910.603 152.733 910.603 157.48ZM878.203 157.48C878.203 162.547 879.19 166.573 881.163 169.56C883.19 172.493 886.39 173.96 890.763 173.96C895.083 173.96 898.257 172.493 900.283 169.56C902.31 166.573 903.323 162.547 903.323 157.48C903.323 152.413 902.31 148.44 900.283 145.56C898.257 142.68 895.057 141.24 890.683 141.24C886.31 141.24 883.137 142.68 881.163 145.56C879.19 148.44 878.203 152.413 878.203 157.48ZM936.081 174.04C937.148 174.04 938.241 173.96 939.361 173.8C940.481 173.587 941.388 173.373 942.081 173.16V178.52C941.334 178.893 940.268 179.187 938.881 179.4C937.494 179.667 936.161 179.8 934.881 179.8C932.641 179.8 930.561 179.427 928.641 178.68C926.774 177.88 925.254 176.52 924.081 174.6C922.908 172.68 922.321 169.987 922.321 166.52V141.56H916.241V138.2L922.401 135.4L925.201 126.28H929.361V136.12H941.761V141.56H929.361V166.36C929.361 168.973 929.974 170.92 931.201 172.2C932.481 173.427 934.108 174.04 936.081 174.04ZM957.707 179H950.667V118.2H957.707V179ZM974.892 120.04C975.959 120.04 976.892 120.413 977.692 121.16C978.546 121.853 978.972 122.973 978.972 124.52C978.972 126.013 978.546 127.133 977.692 127.88C976.892 128.627 975.959 129 974.892 129C973.719 129 972.732 128.627 971.932 127.88C971.132 127.133 970.732 126.013 970.732 124.52C970.732 122.973 971.132 121.853 971.932 121.16C972.732 120.413 973.719 120.04 974.892 120.04ZM978.332 136.12V179H971.292V136.12H978.332ZM1012.56 135.32C1017.68 135.32 1021.54 136.573 1024.16 139.08C1026.77 141.533 1028.08 145.533 1028.08 151.08V179H1021.12V151.56C1021.12 144.68 1017.92 141.24 1011.52 141.24C1006.77 141.24 1003.49 142.573 1001.68 145.24C999.864 147.907 998.957 151.747 998.957 156.76V179H991.917V136.12H997.597L998.637 141.96H999.037C1000.42 139.72 1002.34 138.067 1004.8 137C1007.25 135.88 1009.84 135.32 1012.56 135.32ZM1069.19 179H1062.15V118.2H1069.19V179ZM1086.38 120.04C1087.44 120.04 1088.38 120.413 1089.18 121.16C1090.03 121.853 1090.46 122.973 1090.46 124.52C1090.46 126.013 1090.03 127.133 1089.18 127.88C1088.38 128.627 1087.44 129 1086.38 129C1085.2 129 1084.22 128.627 1083.42 127.88C1082.62 127.133 1082.22 126.013 1082.22 124.52C1082.22 122.973 1082.62 121.853 1083.42 121.16C1084.22 120.413 1085.2 120.04 1086.38 120.04ZM1089.82 136.12V179H1082.78V136.12H1089.82ZM1110.44 133C1110.44 134.813 1110.39 136.52 1110.28 138.12C1110.23 139.667 1110.15 140.893 1110.04 141.8H1110.44C1111.67 139.987 1113.35 138.467 1115.48 137.24C1117.61 136.013 1120.36 135.4 1123.72 135.4C1129.05 135.4 1133.32 137.267 1136.52 141C1139.77 144.68 1141.4 150.2 1141.4 157.56C1141.4 164.92 1139.77 170.467 1136.52 174.2C1133.27 177.933 1129 179.8 1123.72 179.8C1120.36 179.8 1117.61 179.187 1115.48 177.96C1113.35 176.733 1111.67 175.267 1110.44 173.56H1109.88L1108.44 179H1103.4V118.2H1110.44V133ZM1122.52 141.24C1117.99 141.24 1114.84 142.547 1113.08 145.16C1111.32 147.773 1110.44 151.827 1110.44 157.32V157.64C1110.44 162.92 1111.29 166.973 1113 169.8C1114.76 172.573 1117.99 173.96 1122.68 173.96C1126.52 173.96 1129.37 172.547 1131.24 169.72C1133.16 166.893 1134.12 162.813 1134.12 157.48C1134.12 146.653 1130.25 141.24 1122.52 141.24ZM1172.62 135.32C1173.42 135.32 1174.27 135.373 1175.18 135.48C1176.14 135.533 1176.97 135.64 1177.66 135.8L1176.78 142.28C1176.09 142.12 1175.31 141.987 1174.46 141.88C1173.66 141.773 1172.89 141.72 1172.14 141.72C1169.95 141.72 1167.9 142.333 1165.98 143.56C1164.06 144.733 1162.51 146.413 1161.34 148.6C1160.22 150.733 1159.66 153.24 1159.66 156.12V179H1152.62V136.12H1158.38L1159.18 143.96H1159.5C1160.89 141.613 1162.67 139.587 1164.86 137.88C1167.05 136.173 1169.63 135.32 1172.62 135.32ZM1200.34 135.4C1205.57 135.4 1209.44 136.547 1211.94 138.84C1214.45 141.133 1215.7 144.787 1215.7 149.8V179H1210.58L1209.22 172.92H1208.9C1207.04 175.267 1205.06 177 1202.98 178.12C1200.96 179.24 1198.13 179.8 1194.5 179.8C1190.61 179.8 1187.38 178.787 1184.82 176.76C1182.26 174.68 1180.98 171.453 1180.98 167.08C1180.98 162.813 1182.66 159.533 1186.02 157.24C1189.38 154.893 1194.56 153.613 1201.54 153.4L1208.82 153.16V150.6C1208.82 147.027 1208.05 144.547 1206.5 143.16C1204.96 141.773 1202.77 141.08 1199.94 141.08C1197.7 141.08 1195.57 141.427 1193.54 142.12C1191.52 142.76 1189.62 143.507 1187.86 144.36L1185.7 139.08C1187.57 138.067 1189.78 137.213 1192.34 136.52C1194.9 135.773 1197.57 135.4 1200.34 135.4ZM1202.42 158.28C1197.09 158.493 1193.38 159.347 1191.3 160.84C1189.28 162.333 1188.26 164.44 1188.26 167.16C1188.26 169.56 1188.98 171.32 1190.42 172.44C1191.92 173.56 1193.81 174.12 1196.1 174.12C1199.73 174.12 1202.74 173.133 1205.14 171.16C1207.54 169.133 1208.74 166.04 1208.74 161.88V158.04L1202.42 158.28ZM1248.95 135.32C1249.75 135.32 1250.6 135.373 1251.51 135.48C1252.47 135.533 1253.3 135.64 1253.99 135.8L1253.11 142.28C1252.42 142.12 1251.64 141.987 1250.79 141.88C1249.99 141.773 1249.22 141.72 1248.47 141.72C1246.28 141.72 1244.23 142.333 1242.31 143.56C1240.39 144.733 1238.84 146.413 1237.67 148.6C1236.55 150.733 1235.99 153.24 1235.99 156.12V179H1228.95V136.12H1234.71L1235.51 143.96H1235.83C1237.22 141.613 1239 139.587 1241.19 137.88C1243.38 136.173 1245.96 135.32 1248.95 135.32ZM1255.28 136.12H1262.8L1272.08 160.52C1272.88 162.653 1273.6 164.707 1274.24 166.68C1274.88 168.6 1275.36 170.44 1275.68 172.2H1276C1276.32 170.867 1276.82 169.133 1277.52 167C1278.21 164.813 1278.93 162.627 1279.68 160.44L1288.4 136.12H1296L1277.52 184.92C1276.02 188.973 1274.08 192.2 1271.68 194.6C1269.33 197 1266.08 198.2 1261.92 198.2C1260.64 198.2 1259.52 198.12 1258.56 197.96C1257.6 197.853 1256.77 197.72 1256.08 197.56V191.96C1256.66 192.067 1257.36 192.173 1258.16 192.28C1259.01 192.387 1259.89 192.44 1260.8 192.44C1263.25 192.44 1265.22 191.747 1266.72 190.36C1268.26 188.973 1269.46 187.133 1270.32 184.84L1272.56 179.16L1255.28 136.12ZM1339.8 135.4C1345.02 135.4 1348.89 136.547 1351.4 138.84C1353.9 141.133 1355.16 144.787 1355.16 149.8V179H1350.04L1348.68 172.92H1348.36C1346.49 175.267 1344.52 177 1342.44 178.12C1340.41 179.24 1337.58 179.8 1333.96 179.8C1330.06 179.8 1326.84 178.787 1324.28 176.76C1321.72 174.68 1320.44 171.453 1320.44 167.08C1320.44 162.813 1322.12 159.533 1325.48 157.24C1328.84 154.893 1334.01 153.613 1341 153.4L1348.28 153.16V150.6C1348.28 147.027 1347.5 144.547 1345.96 143.16C1344.41 141.773 1342.22 141.08 1339.4 141.08C1337.16 141.08 1335.02 141.427 1333 142.12C1330.97 142.76 1329.08 143.507 1327.32 144.36L1325.16 139.08C1327.02 138.067 1329.24 137.213 1331.8 136.52C1334.36 135.773 1337.02 135.4 1339.8 135.4ZM1341.88 158.28C1336.54 158.493 1332.84 159.347 1330.76 160.84C1328.73 162.333 1327.72 164.44 1327.72 167.16C1327.72 169.56 1328.44 171.32 1329.88 172.44C1331.37 173.56 1333.26 174.12 1335.56 174.12C1339.18 174.12 1342.2 173.133 1344.6 171.16C1347 169.133 1348.2 166.04 1348.2 161.88V158.04L1341.88 158.28ZM1396.32 167.16C1396.32 171.32 1394.77 174.467 1391.68 176.6C1388.59 178.733 1384.43 179.8 1379.2 179.8C1376.21 179.8 1373.63 179.56 1371.44 179.08C1369.31 178.6 1367.41 177.933 1365.76 177.08V170.68C1367.47 171.533 1369.52 172.333 1371.92 173.08C1374.37 173.773 1376.85 174.12 1379.36 174.12C1382.93 174.12 1385.52 173.56 1387.12 172.44C1388.72 171.267 1389.52 169.72 1389.52 167.8C1389.52 166.733 1389.23 165.773 1388.64 164.92C1388.05 164.067 1386.99 163.213 1385.44 162.36C1383.95 161.507 1381.79 160.547 1378.96 159.48C1376.19 158.413 1373.81 157.347 1371.84 156.28C1369.87 155.213 1368.35 153.933 1367.28 152.44C1366.21 150.947 1365.68 149.027 1365.68 146.68C1365.68 143.053 1367.15 140.253 1370.08 138.28C1373.07 136.307 1376.96 135.32 1381.76 135.32C1384.37 135.32 1386.8 135.587 1389.04 136.12C1391.33 136.6 1393.47 137.293 1395.44 138.2L1393.04 143.8C1391.23 143.053 1389.33 142.413 1387.36 141.88C1385.39 141.347 1383.36 141.08 1381.28 141.08C1378.4 141.08 1376.19 141.56 1374.64 142.52C1373.15 143.427 1372.4 144.68 1372.4 146.28C1372.4 147.453 1372.75 148.467 1373.44 149.32C1374.13 150.12 1375.28 150.92 1376.88 151.72C1378.53 152.467 1380.72 153.373 1383.44 154.44C1386.16 155.453 1388.48 156.493 1390.4 157.56C1392.32 158.627 1393.79 159.933 1394.8 161.48C1395.81 162.973 1396.32 164.867 1396.32 167.16ZM1443.7 135.4C1448.93 135.4 1452.8 136.547 1455.3 138.84C1457.81 141.133 1459.06 144.787 1459.06 149.8V179H1453.94L1452.58 172.92H1452.26C1450.4 175.267 1448.42 177 1446.34 178.12C1444.32 179.24 1441.49 179.8 1437.86 179.8C1433.97 179.8 1430.74 178.787 1428.18 176.76C1425.62 174.68 1424.34 171.453 1424.34 167.08C1424.34 162.813 1426.02 159.533 1429.38 157.24C1432.74 154.893 1437.92 153.613 1444.9 153.4L1452.18 153.16V150.6C1452.18 147.027 1451.41 144.547 1449.86 143.16C1448.32 141.773 1446.13 141.08 1443.3 141.08C1441.06 141.08 1438.93 141.427 1436.9 142.12C1434.88 142.76 1432.98 143.507 1431.22 144.36L1429.06 139.08C1430.93 138.067 1433.14 137.213 1435.7 136.52C1438.26 135.773 1440.93 135.4 1443.7 135.4ZM1445.78 158.28C1440.45 158.493 1436.74 159.347 1434.66 160.84C1432.64 162.333 1431.62 164.44 1431.62 167.16C1431.62 169.56 1432.34 171.32 1433.78 172.44C1435.28 173.56 1437.17 174.12 1439.46 174.12C1443.09 174.12 1446.1 173.133 1448.5 171.16C1450.9 169.133 1452.1 166.04 1452.1 161.88V158.04L1445.78 158.28Z" fill="#9B9B9B"/>
<g id="gradle" filter="url(#filter0_d)">
<g id="Group">
<path id="Vector" fill-rule="evenodd" clip-rule="evenodd" d="M1651.52 632.715C1663.33 605.091 1663.11 578.047 1655.76 556.519C1646.81 530.027 1610.05 495.373 1598.25 509.093C1596.72 511.003 1575.58 508.528 1572.15 513.096C1567.2 519.744 1570.06 521.866 1572.53 524.129C1579.96 530.777 1599.01 538.033 1607.39 560.508C1611.01 570.027 1619.38 592.333 1604.91 605.656C1588.33 620.706 1569.86 624.129 1494.05 553.662C1413.43 478.414 1304.71 509.108 1268.9 520.904C1232.9 532.898 1216.52 544.709 1230.61 572.531C1249.85 610.239 1243.57 598.627 1262.22 629.673C1291.93 679.179 1356.89 606.816 1356.89 606.816C1308.52 679.773 1266.99 662.05 1250.99 636.717C1236.85 613.662 1225.46 587.212 1225.46 587.212C1102.94 631.583 1136.08 826.774 1136.08 826.774H1196.9C1212.52 754.964 1267.95 757.637 1277.47 826.774H1323.95C1364.97 686.392 1452.9 826.774 1452.9 826.774H1505.24C1505.24 751.923 1497.43 723.733 1535.72 718.57C1601.25 709.617 1631.71 678.966 1651.53 632.856L1651.52 632.715Z" fill="#506D74"/>
<path id="Vector_2" fill-rule="evenodd" clip-rule="evenodd" d="M1660.85 581.866C1649.78 582.811 1638.82 584.723 1628.09 587.58C1627.71 587.962 1627.52 588.344 1627.14 588.91C1622.37 594.242 1616.48 599.574 1609.6 602.432C1608.75 602.951 1607.86 603.395 1606.93 603.761C1606.36 604.327 1605.8 605.091 1605.02 605.671C1588.44 620.72 1568.44 624.143 1494.16 553.676C1414.16 477.863 1305.02 509.291 1269.01 521.102C1233 532.912 1216.63 544.723 1230.72 572.531C1249.96 610.239 1243.68 598.627 1262.33 629.674C1292.03 679.179 1357 606.816 1357 606.816C1308.63 679.773 1267.1 662.05 1251.1 636.717C1236.96 613.662 1225.57 587.212 1225.57 587.212C1102.94 631.583 1136.08 826.774 1136.08 826.774H1196.9C1212.52 754.964 1267.95 757.637 1277.47 826.774H1323.94C1364.96 686.392 1452.9 826.774 1452.9 826.774H1505.23C1505.23 751.923 1497.42 723.733 1535.71 718.57C1601.06 709.617 1631.53 679.136 1651.33 632.856C1659.14 615.147 1661.79 597.806 1660.85 581.993V581.866Z" fill="#506D74"/>
</g>
<g id="Group_2">
<path id="Vector_3" fill-rule="evenodd" clip-rule="evenodd" d="M1439.5 601.489L1505.41 623.394C1503.31 633.489 1484.46 652.917 1460.08 644.727C1428.08 634.06 1439.5 601.489 1439.5 601.489V601.489Z" fill="white"/>
<path id="Vector_4" d="M1473.43 638.155C1482.74 637.166 1489.52 629.072 1488.56 620.075C1487.61 611.079 1479.28 604.588 1469.97 605.576C1460.66 606.565 1453.89 614.66 1454.85 623.656C1455.8 632.652 1464.12 639.143 1473.43 638.155Z" fill="#506D74"/>
</g>
<path id="Vector_5" fill-rule="evenodd" clip-rule="evenodd" d="M1572.81 524.157C1574.9 526.067 1577.57 527.778 1580.23 529.49C1592.99 519.023 1609.37 519.207 1623.09 513.506C1610.71 502.078 1591.26 493.323 1585 500.748C1583.47 502.658 1575.86 508.556 1572.27 513.125C1567.32 519.772 1570.17 521.894 1572.65 524.157H1572.81Z" fill="#506D74"/>
</g>
<g id="Kotlin-logo" filter="url(#filter1_d)">
<path id="XMLID_2_" d="M377 829L539.54 666.46L701 829H377Z" fill="url(#paint1_linear)"/>
<path id="Shape" d="M377 505H539.54L377 680.5V505Z" fill="url(#paint2_linear)"/>
<path id="Shape_2" d="M539.54 505L377 676.18V829L539.54 666.46L701 505H539.54Z" fill="url(#paint3_linear)"/>
</g>
</g>
<defs>
<filter id="filter0_d" x="1116" y="482" width="583.03" height="382.774" filterUnits="userSpaceOnUse" color-interpolation-filters="sRGB">
<feFlood flood-opacity="0" result="BackgroundImageFix"/>
<feColorMatrix in="SourceAlpha" type="matrix" values="0 0 0 0 0 0 0 0 0 0 0 0 0 0 0 0 0 0 127 0"/>
<feOffset dx="11" dy="11"/>
<feGaussianBlur stdDeviation="13.5"/>
<feColorMatrix type="matrix" values="0 0 0 0 0 0 0 0 0 0 0 0 0 0 0 0 0 0 0.5 0"/>
<feBlend mode="normal" in2="BackgroundImageFix" result="effect1_dropShadow"/>
<feBlend mode="normal" in="SourceGraphic" in2="effect1_dropShadow" result="shape"/>
</filter>
<filter id="filter1_d" x="361" y="489" width="378" height="378" filterUnits="userSpaceOnUse" color-interpolation-filters="sRGB">
<feFlood flood-opacity="0" result="BackgroundImageFix"/>
<feColorMatrix in="SourceAlpha" type="matrix" values="0 0 0 0 0 0 0 0 0 0 0 0 0 0 0 0 0 0 127 0"/>
<feOffset dx="11" dy="11"/>
<feGaussianBlur stdDeviation="13.5"/>
<feColorMatrix type="matrix" values="0 0 0 0 0 0 0 0 0 0 0 0 0 0 0 0 0 0 0.5 0"/>
<feBlend mode="normal" in2="BackgroundImageFix" result="effect1_dropShadow"/>
<feBlend mode="normal" in="SourceGraphic" in2="effect1_dropShadow" result="shape"/>
</filter>
<linearGradient id="paint0_linear" x1="949.605" y1="-546" x2="32.2584" y2="1104.2" gradientUnits="userSpaceOnUse">
<stop stop-color="#0B0B0B" stop-opacity="0.01"/>
<stop offset="1"/>
</linearGradient>
<linearGradient id="paint1_linear" x1="615.749" y1="943.074" x2="661.096" y2="762.885" gradientUnits="userSpaceOnUse">
<stop offset="0.09677" stop-color="#0095D5"/>
<stop offset="0.3007" stop-color="#238AD9"/>
<stop offset="0.6211" stop-color="#557BDE"/>
<stop offset="0.8643" stop-color="#7472E2"/>
<stop offset="1" stop-color="#806EE3"/>
</linearGradient>
<linearGradient id="paint2_linear" x1="440.9" y1="618.117" x2="536.056" y2="536.496" gradientUnits="userSpaceOnUse">
<stop offset="0.1183" stop-color="#0095D5"/>
<stop offset="0.4178" stop-color="#3C83DC"/>
<stop offset="0.6962" stop-color="#6D74E1"/>
<stop offset="0.8333" stop-color="#806EE3"/>
</linearGradient>
<linearGradient id="paint3_linear" x1="473.2" y1="953.634" x2="774.7" y2="652.135" gradientUnits="userSpaceOnUse">
<stop offset="0.1075" stop-color="#C757BC"/>
<stop offset="0.2138" stop-color="#D0609A"/>
<stop offset="0.4254" stop-color="#E1725C"/>
<stop offset="0.6048" stop-color="#EE7E2F"/>
<stop offset="0.743" stop-color="#F58613"/>
<stop offset="0.8232" stop-color="#F88909"/>
</linearGradient>
<clipPath id="clip0">
<rect width="1920" height="1080" fill="white"/>
</clipPath>
</defs>
</svg>
