<?xml version="1.0" encoding="UTF-8"?>
<svg width="1920px" height="1080px" viewBox="0 0 1920 1080" version="1.1" xmlns="http://www.w3.org/2000/svg" xmlns:xlink="http://www.w3.org/1999/xlink">
    <!-- Generator: Sketch 54.1 (76490) - https://sketchapp.com -->
    <title>java-vs-kotlin</title>
    <desc>Created with Sketch.</desc>
    <defs>
        <linearGradient x1="100%" y1="34.1796875%" x2="0%" y2="66.1958833%" id="linearGradient-1">
            <stop stop-color="#0B0B0B" stop-opacity="0" offset="0%"></stop>
            <stop stop-color="#000000" offset="100%"></stop>
        </linearGradient>
        <rect id="path-2" x="1" y="-6" width="1920" height="1080"></rect>
        <filter x="-5.0%" y="-2.6%" width="110.1%" height="105.3%" filterUnits="objectBoundingBox" id="filter-3">
            <feOffset dx="0" dy="2" in="SourceAlpha" result="shadowOffsetOuter1"></feOffset>
            <feGaussianBlur stdDeviation="2" in="shadowOffsetOuter1" result="shadowBlurOuter1"></feGaussianBlur>
            <feColorMatrix values="0 0 0 0 0   0 0 0 0 0   0 0 0 0 0  0 0 0 0.5 0" type="matrix" in="shadowBlurOuter1" result="shadowMatrixOuter1"></feColorMatrix>
            <feMerge>
                <feMergeNode in="shadowMatrixOuter1"></feMergeNode>
                <feMergeNode in="SourceGraphic"></feMergeNode>
            </feMerge>
        </filter>
        <filter x="-6.2%" y="-5.2%" width="112.5%" height="110.5%" filterUnits="objectBoundingBox" id="filter-4">
            <feOffset dx="0" dy="2" in="SourceAlpha" result="shadowOffsetOuter1"></feOffset>
            <feGaussianBlur stdDeviation="2" in="shadowOffsetOuter1" result="shadowBlurOuter1"></feGaussianBlur>
            <feColorMatrix values="0 0 0 0 0   0 0 0 0 0   0 0 0 0 0  0 0 0 0.5 0" type="matrix" in="shadowBlurOuter1" result="shadowMatrixOuter1"></feColorMatrix>
            <feMerge>
                <feMergeNode in="shadowMatrixOuter1"></feMergeNode>
                <feMergeNode in="SourceGraphic"></feMergeNode>
            </feMerge>
        </filter>
        <filter x="-22.5%" y="-22.5%" width="145.1%" height="145.1%" filterUnits="objectBoundingBox" id="filter-5">
            <feOffset dx="11" dy="11" in="SourceAlpha" result="shadowOffsetOuter1"></feOffset>
            <feGaussianBlur stdDeviation="13.5" in="shadowOffsetOuter1" result="shadowBlurOuter1"></feGaussianBlur>
            <feColorMatrix values="0 0 0 0 0   0 0 0 0 0   0 0 0 0 0  0 0 0 0.5 0" type="matrix" in="shadowBlurOuter1" result="shadowMatrixOuter1"></feColorMatrix>
            <feMerge>
                <feMergeNode in="shadowMatrixOuter1"></feMergeNode>
                <feMergeNode in="SourceGraphic"></feMergeNode>
            </feMerge>
        </filter>
        <linearGradient x1="26.599%" y1="74.3009842%" x2="73.8446667%" y2="50.5993244%" id="linearGradient-6">
            <stop stop-color="#0095D5" offset="9.677%"></stop>
            <stop stop-color="#238AD9" offset="30.07%"></stop>
            <stop stop-color="#557BDE" offset="62.11%"></stop>
            <stop stop-color="#7472E2" offset="86.43%"></stop>
            <stop stop-color="#806EE3" offset="100%"></stop>
        </linearGradient>
        <linearGradient x1="19.1069273%" y1="37.1049231%" x2="66.0250263%" y2="-13.5538462%" id="linearGradient-7">
            <stop stop-color="#0095D5" offset="11.83%"></stop>
            <stop stop-color="#3C83DC" offset="41.78%"></stop>
            <stop stop-color="#6D74E1" offset="69.62%"></stop>
            <stop stop-color="#806EE3" offset="83.33%"></stop>
        </linearGradient>
        <linearGradient x1="-16.8361667%" y1="91.9396667%" x2="76.2191667%" y2="-1.11566667%" id="linearGradient-8">
            <stop stop-color="#C757BC" offset="10.75%"></stop>
            <stop stop-color="#D0609A" offset="21.38%"></stop>
            <stop stop-color="#E1725C" offset="42.54%"></stop>
            <stop stop-color="#EE7E2F" offset="60.48%"></stop>
            <stop stop-color="#F58613" offset="74.3%"></stop>
            <stop stop-color="#F88909" offset="82.32%"></stop>
        </linearGradient>
    </defs>
    <g id="java-vs-kotlin" stroke="none" stroke-width="1" fill="none" fill-rule="evenodd">
        <g id="Rectangle">
            <use fill="#323232" xlink:href="#path-2"></use>
            <use fill-opacity="0.15" fill="url(#linearGradient-1)" xlink:href="#path-2"></use>
        </g>
        <g id="Java-Logo" filter="url(#filter-3)" transform="translate(352.000000, 449.000000)" fill-rule="nonzero">
            <path d="M81.4582,242.3356 C81.4582,242.3356 69.5191,249.6028 89.76345,251.67911 C114.16015,254.79348 127.13755,254.27487 154.12975,249.08377 C154.12975,249.08377 161.39695,253.75542 171.25945,257.38923 C110.52675,283.34343 33.70245,255.83153 81.45815,242.33563 L81.4582,242.3356 Z M73.67177,208.5954 C73.67177,208.5954 60.69487,218.45773 80.93897,220.534 C107.41247,223.12976 128.17577,223.64837 163.99237,216.38137 C163.99237,216.38137 168.66423,221.57226 176.45027,224.1678 C103.25967,245.9694 21.24427,226.24411 73.67227,208.5953 L73.67177,208.5954 Z M216.93877,267.7708 C216.93877,267.7708 225.76326,275.03821 207.07623,280.7477 C172.29753,291.1295 61.21323,294.2438 30.06823,280.7477 C19.16763,276.07626 39.93098,269.3279 46.67873,268.2898 C53.4269,266.73272 57.06033,266.73272 57.06033,266.73272 C45.12193,258.42726 -22.35917,283.86222 22.80083,291.12942 C146.86183,311.37372 249.12183,282.30514 216.93783,267.77072 L216.93877,267.7708 Z M87.16777,173.2976 C87.16777,173.2976 30.58787,186.7937 66.92387,191.4654 C82.49637,193.5415 113.12217,193.0229 141.67197,190.94637 C165.03047,188.87006 188.38957,184.71743 188.38957,184.71743 C188.38957,184.71743 180.08411,188.35082 174.37397,191.98484 C116.75607,207.03784 6.19097,200.28988 37.85497,184.71743 C64.84727,171.74013 87.16747,173.29763 87.16747,173.29763 L87.16777,173.2976 Z M188.38977,229.8775 C246.52697,199.7706 219.53487,170.7021 200.84767,174.3359 C196.17581,175.37395 194.0995,176.41221 194.0995,176.41221 C194.0995,176.41221 195.65679,173.29764 199.29018,172.25958 C236.14538,159.28228 265.21398,211.19048 187.35178,231.43478 C187.35178,231.43478 187.87039,230.91575 188.38983,229.87749 L188.38977,229.8775 Z M92.87807,311.8928 C148.93937,315.52661 234.58807,309.81649 236.66407,283.3434 C236.66407,283.3434 232.51165,293.7252 190.46597,301.511 C142.71017,310.3357 83.53497,309.29743 48.75597,303.58731 C48.75597,303.58731 56.02296,309.81646 92.87797,311.89277 L92.87807,311.8928 Z" id="_227268128" fill="#4E7896"></path>
            <path d="M153.092,1.99999 C153.092,1.99999 185.2752,34.70219 122.4659,84.01529 C72.1147,123.98449 111.0461,146.82409 122.4659,172.77819 C92.8781,146.30539 71.5957,122.94629 86.1299,101.14469 C107.4127,68.96149 166.0689,53.38929 153.092,2.00009 L153.092,1.99999 Z M136.4815,150.97699 C151.5345,168.10689 132.32867,183.67959 132.32867,183.67959 C132.32867,183.67959 170.74077,163.95429 153.09197,139.55719 C137.00007,116.19869 124.54217,104.77889 192.02307,65.84739 C192.02307,65.84739 85.61107,92.32089 136.48147,150.97709 L136.4815,150.97699 Z M98.0692,429.72499 L98.0692,378.85479 C98.0692,365.87729 90.802,357.05319 72.6338,357.05319 C62.2522,357.05319 53.4277,359.64853 45.6413,362.76289 L48.23706,372.1064 C53.94676,370.03009 61.21396,367.95357 69.00036,367.95357 C78.8629,367.95357 83.53456,372.1064 83.53456,380.41187 L83.53456,387.16004 L78.34388,387.16004 C53.42768,387.16004 42.00788,396.50355 42.00788,411.55674 C42.00788,424.01484 49.79411,431.28204 63.80948,431.28204 C72.63376,431.28204 79.38218,427.12921 85.61108,421.93853 L86.64934,429.72496 L98.06914,429.72496 L98.0692,429.72499 Z M83.5346,413.11409 C78.34392,417.78574 72.6338,420.3815 67.4429,420.3815 C60.69514,420.3815 56.5425,416.22887 56.5425,408.9617 C56.5425,401.69429 60.69513,396.5036 77.3058,396.5036 L83.5346,396.5036 L83.53453,413.1141 L83.5346,413.11409 Z M146.8631,429.72499 L128.6947,429.72499 L106.8933,358.61029 L122.466,358.61029 L135.9621,402.21329 L139.07647,415.19039 C145.82464,396.50359 151.01577,377.29709 153.09207,358.61029 L168.66457,358.61029 C164.51194,381.96919 157.24497,407.40399 146.86317,429.72499 L146.8631,429.72499 Z M230.9545,429.72499 L230.9545,378.85479 C230.9545,365.87729 223.6873,357.05319 205.5193,357.05319 C195.1375,357.05319 186.3132,359.64853 178.5268,362.76289 L180.60332,372.1064 C186.83226,370.03009 194.09942,367.95357 201.88592,367.95357 C211.74846,367.95357 216.42012,372.1064 216.42012,380.41187 L216.42012,387.16004 L211.22944,387.16004 C186.31324,387.16004 174.89344,396.50355 174.89344,411.55674 C174.89344,424.01484 182.16064,431.28204 196.17584,431.28204 C205.51935,431.28204 212.26754,427.12921 218.49664,421.93853 L219.5349,429.72496 L230.9545,429.72496 L230.9545,429.72499 Z M216.4201,413.11409 C211.22942,417.78574 205.5193,420.3815 200.3282,420.3815 C193.58044,420.3815 189.4278,416.22887 189.4278,408.9617 C189.4278,401.69429 193.58043,396.5036 210.1911,396.5036 L216.4201,396.5036 L216.42004,413.1141 L216.4201,413.11409 Z M25.9161,441.66369 C21.76347,447.89263 15.5343,452.56469 7.7485,455.15979 L1.00012,446.85433 C6.1908,443.73996 11.38192,439.06852 13.45802,434.91573 C15.53433,431.28213 16.05378,426.09103 16.05378,414.15243 L16.05378,333.17543 L31.62628,333.17543 L31.62628,413.11423 C31.62628,429.20573 30.06899,435.43463 25.91616,441.66383 L25.9161,441.66369 Z" id="_230367536" fill="#F58219"></path>
        </g>
        <g id="Android_robot" filter="url(#filter-4)" transform="translate(832.000000, 525.000000)">
            <g id="Group" fill="#A4C639">
                <g id="b-link" transform="translate(46.727273, 23.400000)" stroke="#FFFFFF" stroke-width="12.96">
                    <g id="b">
                        <ellipse id="Oval" cx="81.7727273" cy="75.6" rx="81.7727273" ry="75.6"></ellipse>
                        <rect id="Rectangle" x="0" y="56.7" width="163.545455" height="163.8" rx="19.8"></rect>
                    </g>
                </g>
                <g id="a-link" transform="translate(163.096154, 153.000000) scale(-1, 1) translate(-163.096154, -153.000000) translate(69.192308, 0.000000)" stroke="#FFFFFF" stroke-width="6.48">
                    <g id="a">
                        <path d="M163.319132,-1.48890988 L163.31989,-1.48890938 C166.547742,-1.4867799 169.163901,1.12938078 169.166029,4.35723318 L169.209328,70.0436285 C169.211452,73.2664003 166.600602,75.8806952 163.37783,75.8828195 C163.375265,75.8828212 163.372699,75.8828212 163.370134,75.8828195 L163.369376,75.882819 C160.141524,75.8806896 157.525365,73.2645289 157.523237,70.0366765 L157.479938,4.35028118 C157.477814,1.12750938 160.088664,-1.48678551 163.311436,-1.48890988 C163.314001,-1.48891157 163.316567,-1.48891157 163.319132,-1.48890988 Z" id="Rectangle" transform="translate(163.344633, 37.196955) rotate(29.000000) translate(-163.344633, -37.196955) "></path>
                        <rect id="c" x="0" y="99" width="43.1328671" height="119.7" rx="21.5664336"></rect>
                        <g id="c-link" transform="translate(76.381119, 186.300000)">
                            <rect id="c" x="0" y="0" width="43.1328671" height="119.7" rx="21.5664336"></rect>
                        </g>
                    </g>
                </g>
                <g id="a" stroke="#FFFFFF" stroke-width="6.48">
                    <path d="M163.319132,-1.48890988 L163.31989,-1.48890938 C166.547742,-1.4867799 169.163901,1.12938078 169.166029,4.35723318 L169.209328,70.0436285 C169.211452,73.2664003 166.600602,75.8806952 163.37783,75.8828195 C163.375265,75.8828212 163.372699,75.8828212 163.370134,75.8828195 L163.369376,75.882819 C160.141524,75.8806896 157.525365,73.2645289 157.523237,70.0366765 L157.479938,4.35028118 C157.477814,1.12750938 160.088664,-1.48678551 163.311436,-1.48890988 C163.314001,-1.48891157 163.316567,-1.48891157 163.319132,-1.48890988 Z" id="Rectangle" transform="translate(163.344633, 37.196955) rotate(29.000000) translate(-163.344633, -37.196955) "></path>
                    <rect id="c" x="0" y="99" width="43.1328671" height="119.7" rx="21.5664336"></rect>
                    <g id="c-link" transform="translate(76.381119, 186.300000)">
                        <rect id="c" x="0" y="0" width="43.1328671" height="119.7" rx="21.5664336"></rect>
                    </g>
                </g>
                <g id="b" transform="translate(46.727273, 23.400000)">
                    <ellipse id="Oval" cx="81.7727273" cy="75.6" rx="81.7727273" ry="75.6"></ellipse>
                    <rect id="Rectangle" x="0" y="56.7" width="163.545455" height="163.8" rx="19.8"></rect>
                </g>
            </g>
            <g id="Group" transform="translate(43.132867, 58.500000)" fill="#FFFFFF" stroke="#FFFFFF" stroke-width="6.48">
                <path d="M0,43.65 L170.734266,43.65" id="Path"></path>
                <ellipse id="Oval" cx="47.6258741" cy="3.6" rx="3.59440559" ry="3.6"></ellipse>
                <ellipse id="Oval" cx="123.108392" cy="3.6" rx="3.59440559" ry="3.6"></ellipse>
            </g>
        </g>
        <text id="Java-vs-Kotlin" font-family="Fira Sans" font-size="150" font-weight="normal" fill="#61DAFB">
            <tspan x="504.35" y="333">Java vs Kotlin</tspan>
        </text>
        <g id="Kotlin-logo" filter="url(#filter-5)" transform="translate(1331.000000, 507.000000)" fill-rule="nonzero">
            <polygon id="XMLID_2_" fill="url(#linearGradient-6)" points="0 324 162.54 161.46 324 324"></polygon>
            <polygon id="Shape" fill="url(#linearGradient-7)" points="0 0 162.54 0 0 175.5"></polygon>
            <polygon id="Shape" fill="url(#linearGradient-8)" points="162.54 0 0 171.18 0 324 162.54 161.46 324 0"></polygon>
        </g>
        <text id="Android-development" font-family="Fira Sans" font-size="80" font-weight="normal" fill="#9B9B9B">
            <tspan x="483.5" y="170">Android development with</tspan>
        </text>
    </g>
</svg>