<svg width="1920" height="1080" viewBox="0 0 1920 1080" fill="none" xmlns="http://www.w3.org/2000/svg">
<g clip-path="url(#clip0_1346_66)">
<path d="M1920 0H0V1080H1920V0Z" fill="url(#paint0_linear_1346_66)" fill-opacity="0.5"/>
<path d="M500.329 126.746V145.77H521.239V151.633H500.329V171.682H525.995V177.381H493.195V120.924H525.257L524.437 126.746H500.329ZM544.495 177.381H536.623L552.572 154.585L538.591 134.208H546.75L556.754 150.28L566.881 134.208H574.753L560.813 154.298L576.721 177.381H568.275L556.467 158.849L544.495 177.381ZM608.792 133.306C612.619 133.306 615.667 134.235 617.935 136.094C620.231 137.953 621.885 140.577 622.896 143.966C623.908 147.328 624.413 151.264 624.413 155.774C624.413 160.12 623.798 164.001 622.568 167.418C621.366 170.807 619.534 173.472 617.074 175.413C614.614 177.354 611.512 178.324 607.767 178.324C603.039 178.324 599.239 176.657 596.369 173.322V193.904L589.481 194.765V134.208H595.344L595.918 140.235C597.504 138.021 599.39 136.313 601.576 135.11C603.79 133.907 606.196 133.306 608.792 133.306ZM607.152 138.841C604.774 138.841 602.67 139.565 600.838 141.014C599.034 142.435 597.545 144.021 596.369 145.77V167.172C597.49 168.839 598.898 170.165 600.592 171.149C602.314 172.106 604.2 172.584 606.25 172.584C609.831 172.584 612.523 171.217 614.327 168.484C616.131 165.751 617.033 161.5 617.033 155.733C617.033 151.961 616.678 148.831 615.967 146.344C615.257 143.829 614.177 141.957 612.728 140.727C611.28 139.47 609.421 138.841 607.152 138.841ZM655.459 116.824V166.721C655.459 168.853 656.115 170.37 657.427 171.272C658.767 172.147 660.489 172.584 662.593 172.584C663.905 172.584 665.149 172.447 666.324 172.174C667.5 171.901 668.675 171.532 669.85 171.067L671.695 176.11C670.52 176.684 669.058 177.19 667.308 177.627C665.586 178.092 663.632 178.324 661.445 178.324C657.619 178.324 654.516 177.272 652.138 175.167C649.76 173.035 648.571 170.097 648.571 166.352V122.277H635.328V116.824H655.459ZM704.258 133.306C708.331 133.306 711.734 134.235 714.467 136.094C717.228 137.925 719.292 140.522 720.658 143.884C722.052 147.246 722.749 151.209 722.749 155.774C722.749 160.175 722.039 164.07 720.617 167.459C719.196 170.848 717.105 173.513 714.344 175.454C711.611 177.367 708.222 178.324 704.176 178.324C700.131 178.324 696.728 177.395 693.967 175.536C691.207 173.677 689.116 171.067 687.694 167.705C686.3 164.316 685.603 160.366 685.603 155.856C685.603 151.401 686.314 147.478 687.735 144.089C689.157 140.7 691.248 138.062 694.008 136.176C696.796 134.263 700.213 133.306 704.258 133.306ZM704.258 138.923C700.541 138.923 697.726 140.303 695.812 143.064C693.926 145.797 692.983 150.061 692.983 155.856C692.983 161.541 693.913 165.764 695.771 168.525C697.657 171.286 700.459 172.666 704.176 172.666C707.894 172.666 710.682 171.286 712.54 168.525C714.426 165.764 715.369 161.514 715.369 155.774C715.369 150.034 714.44 145.797 712.581 143.064C710.723 140.303 707.948 138.923 704.258 138.923ZM737.395 177.381V172.092H744.119V139.497H737.395V134.208H749.367L750.638 144.417C752.305 140.864 754.328 138.117 756.706 136.176C759.084 134.235 762.227 133.265 766.136 133.265C767.339 133.265 768.405 133.361 769.334 133.552C770.291 133.716 771.261 133.935 772.245 134.208L770.236 140.358C769.334 140.112 768.514 139.934 767.776 139.825C767.038 139.688 766.191 139.62 765.234 139.62C761.927 139.62 759.084 140.795 756.706 143.146C754.328 145.497 752.428 149.05 751.007 153.806V172.092H759.781V177.381H737.395ZM765.603 148.804V139.415L766.3 134.208H772.245L771.261 148.804H765.603ZM791.565 158.234C791.702 161.569 792.344 164.302 793.492 166.434C794.64 168.539 796.157 170.097 798.043 171.108C799.929 172.092 801.979 172.584 804.193 172.584C806.407 172.584 808.402 172.256 810.179 171.6C811.983 170.944 813.828 169.974 815.714 168.689L818.953 173.24C816.93 174.825 814.621 176.069 812.024 176.971C809.455 177.873 806.817 178.324 804.111 178.324C799.929 178.324 796.362 177.381 793.41 175.495C790.458 173.609 788.203 170.985 786.645 167.623C785.114 164.234 784.349 160.311 784.349 155.856C784.349 151.483 785.128 147.601 786.686 144.212C788.244 140.823 790.431 138.158 793.246 136.217C796.061 134.276 799.382 133.306 803.209 133.306C806.844 133.306 809.974 134.167 812.598 135.889C815.222 137.584 817.231 140.016 818.625 143.187C820.046 146.33 820.757 150.089 820.757 154.462C820.757 155.2 820.743 155.897 820.716 156.553C820.689 157.182 820.648 157.742 820.593 158.234H791.565ZM803.291 138.964C800.093 138.964 797.414 140.098 795.255 142.367C793.123 144.636 791.907 148.148 791.606 152.904H814.115C814.033 148.285 813.022 144.813 811.081 142.49C809.14 140.139 806.544 138.964 803.291 138.964ZM887.359 177.381V120.924H894.493V171.026H920.241L919.421 177.381H887.359ZM955.51 134.208V171.928H967.687V177.381H935.297V171.928H948.622V139.661H935.707V134.208H955.51ZM950.016 113.995C951.547 113.995 952.763 114.46 953.665 115.389C954.594 116.318 955.059 117.453 955.059 118.792C955.059 120.186 954.594 121.361 953.665 122.318C952.763 123.247 951.547 123.712 950.016 123.712C948.567 123.712 947.378 123.247 946.449 122.318C945.52 121.361 945.055 120.186 945.055 118.792C945.055 117.453 945.52 116.318 946.449 115.389C947.378 114.46 948.567 113.995 950.016 113.995ZM982.825 177.381V134.208H988.688L989.221 140.194C990.97 137.98 993.157 136.285 995.781 135.11C998.432 133.907 1001 133.306 1003.49 133.306C1007.73 133.306 1010.8 134.427 1012.71 136.668C1014.65 138.909 1015.62 142.025 1015.62 146.016V177.381H1008.74V151.1C1008.74 148.148 1008.57 145.77 1008.24 143.966C1007.92 142.135 1007.23 140.809 1006.19 139.989C1005.16 139.142 1003.54 138.718 1001.36 138.718C999.662 138.718 998.063 139.087 996.56 139.825C995.084 140.563 993.758 141.492 992.583 142.613C991.435 143.706 990.478 144.813 989.713 145.934V177.381H982.825ZM1038.88 134.208V164.794C1038.88 167.637 1039.47 169.687 1040.64 170.944C1041.82 172.201 1043.65 172.83 1046.14 172.83C1048.52 172.83 1050.76 172.16 1052.86 170.821C1054.99 169.454 1056.65 167.842 1057.82 165.983V134.208H1064.71V177.381H1058.85L1058.27 171.559C1056.58 173.746 1054.49 175.427 1052 176.602C1049.51 177.75 1047 178.324 1044.46 178.324C1040.27 178.324 1037.15 177.217 1035.07 175.003C1033.02 172.762 1031.99 169.632 1031.99 165.614V134.208H1038.88ZM1085.34 177.381H1077.47L1093.42 154.585L1079.44 134.208H1087.6L1097.6 150.28L1107.73 134.208H1115.6L1101.66 154.298L1117.57 177.381H1109.12L1097.31 158.849L1085.34 177.381ZM1199.26 127.033V177.381H1192.17V127.033H1174.54V120.924H1217.13L1216.4 127.033H1199.26ZM1248.43 127.033V177.381H1241.33V127.033H1223.7V120.924H1266.3L1265.56 127.033H1248.43ZM1297.8 155.61V177.381H1290.58V155.692L1271.52 120.924H1279.39L1294.36 149.214L1309.48 120.924H1316.86L1297.8 155.61ZM1343.36 163.892C1345.25 163.892 1346.82 164.534 1348.07 165.819C1349.36 167.104 1350 168.648 1350 170.452C1350 171.436 1349.88 172.434 1349.63 173.445C1349.41 174.456 1349 175.604 1348.4 176.889L1341.76 192.1H1335.53L1339.46 175.905C1338.64 175.304 1337.99 174.525 1337.5 173.568C1337.03 172.584 1336.8 171.545 1336.8 170.452C1336.8 168.621 1337.43 167.076 1338.69 165.819C1339.94 164.534 1341.5 163.892 1343.36 163.892ZM313.784 241.306C317.611 241.306 320.659 242.235 322.927 244.094C325.223 245.953 326.877 248.577 327.888 251.966C328.9 255.328 329.405 259.264 329.405 263.774C329.405 268.12 328.79 272.001 327.56 275.418C326.358 278.807 324.526 281.472 322.066 283.413C319.606 285.354 316.504 286.324 312.759 286.324C308.031 286.324 304.231 284.657 301.361 281.322V301.904L294.473 302.765V242.208H300.336L300.91 248.235C302.496 246.021 304.382 244.313 306.568 243.11C308.782 241.907 311.188 241.306 313.784 241.306ZM312.144 246.841C309.766 246.841 307.662 247.565 305.83 249.014C304.026 250.435 302.537 252.021 301.361 253.77V275.172C302.482 276.839 303.89 278.165 305.584 279.149C307.306 280.106 309.192 280.584 311.242 280.584C314.823 280.584 317.515 279.217 319.319 276.484C321.123 273.751 322.025 269.5 322.025 263.733C322.025 259.961 321.67 256.831 320.959 254.344C320.249 251.829 319.169 249.957 317.72 248.727C316.272 247.47 314.413 246.841 312.144 246.841ZM344.051 285.381V280.092H350.775V247.497H344.051V242.208H356.023L357.294 252.417C358.962 248.864 360.984 246.117 363.362 244.176C365.74 242.235 368.884 241.265 372.792 241.265C373.995 241.265 375.061 241.361 375.99 241.552C376.947 241.716 377.917 241.935 378.901 242.208L376.892 248.358C375.99 248.112 375.17 247.934 374.432 247.825C373.694 247.688 372.847 247.62 371.89 247.62C368.583 247.62 365.74 248.795 363.362 251.146C360.984 253.497 359.085 257.05 357.663 261.806V280.092H366.437V285.381H344.051ZM372.259 256.804V247.415L372.956 242.208H378.901L377.917 256.804H372.259ZM409.25 241.306C413.323 241.306 416.726 242.235 419.459 244.094C422.22 245.925 424.284 248.522 425.65 251.884C427.044 255.246 427.741 259.209 427.741 263.774C427.741 268.175 427.031 272.07 425.609 275.459C424.188 278.848 422.097 281.513 419.336 283.454C416.603 285.367 413.214 286.324 409.168 286.324C405.123 286.324 401.72 285.395 398.959 283.536C396.199 281.677 394.108 279.067 392.686 275.705C391.292 272.316 390.595 268.366 390.595 263.856C390.595 259.401 391.306 255.478 392.727 252.089C394.149 248.7 396.24 246.062 399 244.176C401.788 242.263 405.205 241.306 409.25 241.306ZM409.25 246.923C405.533 246.923 402.718 248.303 400.804 251.064C398.918 253.797 397.975 258.061 397.975 263.856C397.975 269.541 398.905 273.764 400.763 276.525C402.649 279.286 405.451 280.666 409.168 280.666C412.886 280.666 415.674 279.286 417.532 276.525C419.418 273.764 420.361 269.514 420.361 263.774C420.361 258.034 419.432 253.797 417.573 251.064C415.715 248.303 412.94 246.923 409.25 246.923ZM461.493 280.379C463.653 280.379 465.662 280.024 467.52 279.313C469.406 278.602 471.142 277.7 472.727 276.607L476.089 281.117C474.203 282.73 471.935 284.001 469.283 284.93C466.632 285.859 464.035 286.324 461.493 286.324C457.202 286.324 453.539 285.408 450.505 283.577C447.499 281.718 445.203 279.122 443.617 275.787C442.032 272.425 441.239 268.489 441.239 263.979C441.239 259.66 442.032 255.793 443.617 252.376C445.23 248.932 447.54 246.226 450.546 244.258C453.58 242.29 457.257 241.306 461.575 241.306C464.336 241.306 466.919 241.73 469.324 242.577C471.757 243.397 473.985 244.641 476.007 246.308L472.645 250.9C470.814 249.615 468.969 248.659 467.11 248.03C465.279 247.374 463.407 247.046 461.493 247.046C457.776 247.046 454.715 248.44 452.309 251.228C449.904 254.016 448.701 258.266 448.701 263.979C448.701 267.806 449.248 270.935 450.341 273.368C451.462 275.773 452.979 277.55 454.892 278.698C456.833 279.819 459.033 280.379 461.493 280.379ZM496.557 266.234C496.694 269.569 497.336 272.302 498.484 274.434C499.632 276.539 501.149 278.097 503.035 279.108C504.921 280.092 506.971 280.584 509.185 280.584C511.399 280.584 513.395 280.256 515.171 279.6C516.975 278.944 518.82 277.974 520.706 276.689L523.945 281.24C521.923 282.825 519.613 284.069 517.016 284.971C514.447 285.873 511.809 286.324 509.103 286.324C504.921 286.324 501.354 285.381 498.402 283.495C495.45 281.609 493.195 278.985 491.637 275.623C490.107 272.234 489.341 268.311 489.341 263.856C489.341 259.483 490.12 255.601 491.678 252.212C493.236 248.823 495.423 246.158 498.238 244.217C501.054 242.276 504.375 241.306 508.201 241.306C511.837 241.306 514.966 242.167 517.59 243.889C520.214 245.584 522.223 248.016 523.617 251.187C525.039 254.33 525.749 258.089 525.749 262.462C525.749 263.2 525.736 263.897 525.708 264.553C525.681 265.182 525.64 265.742 525.585 266.234H496.557ZM508.283 246.964C505.085 246.964 502.407 248.098 500.247 250.367C498.115 252.636 496.899 256.148 496.598 260.904H519.107C519.025 256.285 518.014 252.813 516.073 250.49C514.133 248.139 511.536 246.964 508.283 246.964ZM554.991 280.625C558.299 280.625 560.909 280.01 562.822 278.78C564.763 277.523 565.733 275.855 565.733 273.778C565.733 272.466 565.487 271.332 564.995 270.375C564.531 269.418 563.56 268.557 562.084 267.792C560.608 267.027 558.34 266.261 555.278 265.496C552.299 264.758 549.702 263.911 547.488 262.954C545.302 261.97 543.593 260.699 542.363 259.141C541.161 257.583 540.559 255.56 540.559 253.073C540.559 250.64 541.243 248.549 542.609 246.8C544.003 245.023 545.93 243.67 548.39 242.741C550.85 241.784 553.707 241.306 556.959 241.306C560.431 241.306 563.451 241.771 566.02 242.7C568.617 243.602 570.817 244.723 572.621 246.062L569.587 250.736C567.947 249.615 566.143 248.7 564.175 247.989C562.207 247.251 559.829 246.882 557.041 246.882C553.652 246.882 551.247 247.415 549.825 248.481C548.404 249.52 547.693 250.873 547.693 252.54C547.693 253.797 548.035 254.85 548.718 255.697C549.429 256.517 550.618 257.269 552.285 257.952C553.953 258.608 556.249 259.332 559.173 260.125C561.989 260.863 564.435 261.751 566.512 262.79C568.617 263.829 570.257 265.195 571.432 266.89C572.608 268.585 573.195 270.771 573.195 273.45C573.195 276.511 572.321 278.999 570.571 280.912C568.822 282.798 566.553 284.178 563.765 285.053C561.005 285.9 558.08 286.324 554.991 286.324C551.083 286.324 547.748 285.764 544.987 284.643C542.254 283.495 539.958 282.115 538.099 280.502L542.035 275.951C543.73 277.345 545.671 278.479 547.857 279.354C550.071 280.201 552.449 280.625 554.991 280.625ZM604.159 280.625C607.467 280.625 610.077 280.01 611.99 278.78C613.931 277.523 614.901 275.855 614.901 273.778C614.901 272.466 614.655 271.332 614.163 270.375C613.699 269.418 612.728 268.557 611.252 267.792C609.776 267.027 607.508 266.261 604.446 265.496C601.467 264.758 598.87 263.911 596.656 262.954C594.47 261.97 592.761 260.699 591.531 259.141C590.329 257.583 589.727 255.56 589.727 253.073C589.727 250.64 590.411 248.549 591.777 246.8C593.171 245.023 595.098 243.67 597.558 242.741C600.018 241.784 602.875 241.306 606.127 241.306C609.599 241.306 612.619 241.771 615.188 242.7C617.785 243.602 619.985 244.723 621.789 246.062L618.755 250.736C617.115 249.615 615.311 248.7 613.343 247.989C611.375 247.251 608.997 246.882 606.209 246.882C602.82 246.882 600.415 247.415 598.993 248.481C597.572 249.52 596.861 250.873 596.861 252.54C596.861 253.797 597.203 254.85 597.886 255.697C598.597 256.517 599.786 257.269 601.453 257.952C603.121 258.608 605.417 259.332 608.341 260.125C611.157 260.863 613.603 261.751 615.68 262.79C617.785 263.829 619.425 265.195 620.6 266.89C621.776 268.585 622.363 270.771 622.363 273.45C622.363 276.511 621.489 278.999 619.739 280.912C617.99 282.798 615.721 284.178 612.933 285.053C610.173 285.9 607.248 286.324 604.159 286.324C600.251 286.324 596.916 285.764 594.155 284.643C591.422 283.495 589.126 282.115 587.267 280.502L591.203 275.951C592.898 277.345 594.839 278.479 597.025 279.354C599.239 280.201 601.617 280.625 604.159 280.625ZM702.495 280.625C705.803 280.625 708.413 280.01 710.326 278.78C712.267 277.523 713.237 275.855 713.237 273.778C713.237 272.466 712.991 271.332 712.499 270.375C712.035 269.418 711.064 268.557 709.588 267.792C708.112 267.027 705.844 266.261 702.782 265.496C699.803 264.758 697.206 263.911 694.992 262.954C692.806 261.97 691.097 260.699 689.867 259.141C688.665 257.583 688.063 255.56 688.063 253.073C688.063 250.64 688.747 248.549 690.113 246.8C691.507 245.023 693.434 243.67 695.894 242.741C698.354 241.784 701.211 241.306 704.463 241.306C707.935 241.306 710.955 241.771 713.524 242.7C716.121 243.602 718.321 244.723 720.125 246.062L717.091 250.736C715.451 249.615 713.647 248.7 711.679 247.989C709.711 247.251 707.333 246.882 704.545 246.882C701.156 246.882 698.751 247.415 697.329 248.481C695.908 249.52 695.197 250.873 695.197 252.54C695.197 253.797 695.539 254.85 696.222 255.697C696.933 256.517 698.122 257.269 699.789 257.952C701.457 258.608 703.753 259.332 706.677 260.125C709.493 260.863 711.939 261.751 714.016 262.79C716.121 263.829 717.761 265.195 718.936 266.89C720.112 268.585 720.699 270.771 720.699 273.45C720.699 276.511 719.825 278.999 718.075 280.912C716.326 282.798 714.057 284.178 711.269 285.053C708.509 285.9 705.584 286.324 702.495 286.324C698.587 286.324 695.252 285.764 692.491 284.643C689.758 283.495 687.462 282.115 685.603 280.502L689.539 275.951C691.234 277.345 693.175 278.479 695.361 279.354C697.575 280.201 699.953 280.625 702.495 280.625ZM758.838 242.208V279.928H771.015V285.381H738.625V279.928H751.95V247.661H739.035V242.208H758.838ZM753.344 221.995C754.875 221.995 756.091 222.46 756.993 223.389C757.922 224.318 758.387 225.453 758.387 226.792C758.387 228.186 757.922 229.361 756.993 230.318C756.091 231.247 754.875 231.712 753.344 231.712C751.895 231.712 750.706 231.247 749.777 230.318C748.848 229.361 748.383 228.186 748.383 226.792C748.383 225.453 748.848 224.318 749.777 223.389C750.706 222.46 751.895 221.995 753.344 221.995ZM821.249 237.616L823.381 244.094C821.55 244.668 819.595 245.023 817.518 245.16C815.441 245.297 813.186 245.365 810.753 245.365C813.24 246.513 815.113 248.003 816.37 249.834C817.627 251.638 818.256 253.77 818.256 256.23C818.256 259.073 817.614 261.601 816.329 263.815C815.044 266.029 813.186 267.765 810.753 269.022C808.348 270.279 805.437 270.908 802.02 270.908C800.571 270.908 799.355 270.84 798.371 270.703C797.414 270.566 796.485 270.361 795.583 270.088C794.927 270.525 794.38 271.127 793.943 271.892C793.533 272.657 793.328 273.45 793.328 274.27C793.328 275.309 793.738 276.17 794.558 276.853C795.378 277.536 796.895 277.878 799.109 277.878H806.899C809.796 277.878 812.393 278.397 814.689 279.436C817.012 280.475 818.83 281.869 820.142 283.618C821.481 285.367 822.151 287.363 822.151 289.604C822.151 293.841 820.347 297.093 816.739 299.362C813.158 301.631 808.088 302.765 801.528 302.765C796.936 302.765 793.314 302.287 790.663 301.33C788.012 300.401 786.112 298.966 784.964 297.025C783.843 295.112 783.283 292.693 783.283 289.768H789.515C789.515 291.435 789.843 292.816 790.499 293.909C791.155 295.002 792.344 295.809 794.066 296.328C795.788 296.875 798.262 297.148 801.487 297.148C804.658 297.148 807.241 296.875 809.236 296.328C811.259 295.809 812.748 295.016 813.705 293.95C814.689 292.911 815.181 291.613 815.181 290.055C815.181 288.005 814.252 286.461 812.393 285.422C810.534 284.383 808.211 283.864 805.423 283.864H797.715C793.998 283.864 791.251 283.044 789.474 281.404C787.725 279.764 786.85 277.878 786.85 275.746C786.85 274.352 787.246 272.999 788.039 271.687C788.859 270.375 790.048 269.213 791.606 268.202C789.119 266.89 787.287 265.264 786.112 263.323C784.937 261.382 784.349 259.032 784.349 256.271C784.349 253.346 785.073 250.763 786.522 248.522C787.971 246.253 789.993 244.477 792.59 243.192C795.187 241.907 798.18 241.265 801.569 241.265C805.204 241.238 808.156 241.087 810.425 240.814C812.694 240.513 814.634 240.09 816.247 239.543C817.887 238.996 819.554 238.354 821.249 237.616ZM801.569 246.308C798.098 246.308 795.528 247.251 793.861 249.137C792.221 250.996 791.401 253.374 791.401 256.271C791.401 259.196 792.248 261.601 793.943 263.487C795.638 265.373 798.234 266.316 801.733 266.316C804.794 266.316 807.118 265.428 808.703 263.651C810.316 261.874 811.122 259.401 811.122 256.23C811.122 252.977 810.316 250.517 808.703 248.85C807.118 247.155 804.74 246.308 801.569 246.308ZM835.321 285.381V242.208H841.184L841.717 248.194C843.466 245.98 845.653 244.285 848.277 243.11C850.928 241.907 853.498 241.306 855.985 241.306C860.222 241.306 863.297 242.427 865.21 244.668C867.151 246.909 868.121 250.025 868.121 254.016V285.381H861.233V259.1C861.233 256.148 861.069 253.77 860.741 251.966C860.413 250.135 859.73 248.809 858.691 247.989C857.652 247.142 856.04 246.718 853.853 246.718C852.158 246.718 850.559 247.087 849.056 247.825C847.58 248.563 846.254 249.492 845.079 250.613C843.931 251.706 842.974 252.813 842.209 253.934V285.381H835.321ZM915.403 275.951C915.403 277.673 915.69 278.93 916.264 279.723C916.838 280.516 917.726 281.103 918.929 281.486L917.248 286.324C915.389 286.078 913.763 285.49 912.369 284.561C910.975 283.604 909.964 282.169 909.335 280.256C907.777 282.251 905.836 283.768 903.513 284.807C901.19 285.818 898.62 286.324 895.805 286.324C891.486 286.324 888.083 285.108 885.596 282.675C883.109 280.242 881.865 277.017 881.865 272.999C881.865 268.544 883.601 265.127 887.072 262.749C890.543 260.371 895.559 259.182 902.119 259.182H908.474V255.574C908.474 252.458 907.558 250.258 905.727 248.973C903.923 247.661 901.408 247.005 898.183 247.005C896.762 247.005 895.094 247.183 893.181 247.538C891.268 247.866 889.19 248.426 886.949 249.219L885.145 244.012C887.796 243.028 890.284 242.331 892.607 241.921C894.93 241.511 897.144 241.306 899.249 241.306C904.634 241.306 908.665 242.563 911.344 245.078C914.05 247.565 915.403 250.955 915.403 255.246V275.951ZM897.568 281.076C899.7 281.076 901.736 280.543 903.677 279.477C905.618 278.384 907.217 276.88 908.474 274.967V263.856H902.242C897.486 263.856 894.124 264.676 892.156 266.316C890.215 267.956 889.245 270.156 889.245 272.917C889.245 275.596 889.928 277.632 891.295 279.026C892.689 280.393 894.78 281.076 897.568 281.076ZM950.467 224.824V274.721C950.467 276.853 951.123 278.37 952.435 279.272C953.774 280.147 955.496 280.584 957.601 280.584C958.913 280.584 960.157 280.447 961.332 280.174C962.507 279.901 963.683 279.532 964.858 279.067L966.703 284.11C965.528 284.684 964.065 285.19 962.316 285.627C960.594 286.092 958.64 286.324 956.453 286.324C952.626 286.324 949.524 285.272 947.146 283.167C944.768 281.035 943.579 278.097 943.579 274.352V230.277H930.336V224.824H950.467ZM997.503 280.625C1000.81 280.625 1003.42 280.01 1005.33 278.78C1007.27 277.523 1008.24 275.855 1008.24 273.778C1008.24 272.466 1008 271.332 1007.51 270.375C1007.04 269.418 1006.07 268.557 1004.6 267.792C1003.12 267.027 1000.85 266.261 997.79 265.496C994.811 264.758 992.214 263.911 990 262.954C987.813 261.97 986.105 260.699 984.875 259.141C983.672 257.583 983.071 255.56 983.071 253.073C983.071 250.64 983.754 248.549 985.121 246.8C986.515 245.023 988.442 243.67 990.902 242.741C993.362 241.784 996.218 241.306 999.471 241.306C1002.94 241.306 1005.96 241.771 1008.53 242.7C1011.13 243.602 1013.33 244.723 1015.13 246.062L1012.1 250.736C1010.46 249.615 1008.65 248.7 1006.69 247.989C1004.72 247.251 1002.34 246.882 999.553 246.882C996.164 246.882 993.758 247.415 992.337 248.481C990.916 249.52 990.205 250.873 990.205 252.54C990.205 253.797 990.547 254.85 991.23 255.697C991.941 256.517 993.13 257.269 994.797 257.952C996.464 258.608 998.76 259.332 1001.68 260.125C1004.5 260.863 1006.95 261.751 1009.02 262.79C1011.13 263.829 1012.77 265.195 1013.94 266.89C1015.12 268.585 1015.71 270.771 1015.71 273.45C1015.71 276.511 1014.83 278.999 1013.08 280.912C1011.33 282.798 1009.06 284.178 1006.28 285.053C1003.52 285.9 1000.59 286.324 997.503 286.324C993.594 286.324 990.26 285.764 987.499 284.643C984.766 283.495 982.47 282.115 980.611 280.502L984.547 275.951C986.242 277.345 988.182 278.479 990.369 279.354C992.583 280.201 994.961 280.625 997.503 280.625ZM1095.8 228.104C1098.26 228.104 1100.59 228.5 1102.81 229.293C1105.02 230.086 1107.25 231.712 1109.49 234.172L1105.35 237.944C1103.96 236.359 1102.51 235.183 1101 234.418C1099.53 233.653 1097.77 233.27 1095.72 233.27C1092.85 233.27 1090.69 234.049 1089.24 235.607C1087.79 237.138 1087.06 239.119 1087.06 241.552C1087.06 243.219 1087.52 244.777 1088.42 246.226C1089.32 247.647 1090.54 248.795 1092.07 249.67C1093.6 250.545 1095.29 250.982 1097.15 250.982H1119.95V256.394H1112.61V278.698C1111.79 279.764 1110.65 280.885 1109.2 282.06C1107.78 283.235 1105.95 284.247 1103.71 285.094C1101.47 285.914 1098.76 286.324 1095.59 286.324C1091.33 286.324 1087.84 285.504 1085.14 283.864C1082.46 282.224 1080.48 280.119 1079.19 277.55C1077.94 274.953 1077.31 272.247 1077.31 269.432C1077.31 265.195 1078.41 261.724 1080.63 259.018C1082.87 256.312 1086.05 254.535 1090.18 253.688V253.442C1087.69 252.868 1085.73 251.98 1084.28 250.777C1082.86 249.547 1081.83 248.139 1081.2 246.554C1080.6 244.941 1080.3 243.288 1080.3 241.593C1080.3 239.16 1080.93 236.933 1082.19 234.91C1083.44 232.86 1085.23 231.22 1087.56 229.99C1089.88 228.733 1092.63 228.104 1095.8 228.104ZM1106.33 256.394H1096.17C1093.32 256.394 1091.01 257.064 1089.24 258.403C1087.46 259.715 1086.15 261.355 1085.3 263.323C1084.48 265.264 1084.07 267.218 1084.07 269.186C1084.07 271.154 1084.47 273.026 1085.26 274.803C1086.08 276.58 1087.34 278.015 1089.03 279.108C1090.75 280.201 1093 280.748 1095.76 280.748C1098.05 280.748 1100.1 280.379 1101.91 279.641C1103.74 278.876 1105.21 277.796 1106.33 276.402V256.394ZM1196.31 224.824V274.721C1196.31 276.853 1196.96 278.37 1198.27 279.272C1199.61 280.147 1201.34 280.584 1203.44 280.584C1204.75 280.584 1206 280.447 1207.17 280.174C1208.35 279.901 1209.52 279.532 1210.7 279.067L1212.54 284.11C1211.37 284.684 1209.91 285.19 1208.16 285.627C1206.43 286.092 1204.48 286.324 1202.29 286.324C1198.47 286.324 1195.36 285.272 1192.99 283.167C1190.61 281.035 1189.42 278.097 1189.42 274.352V230.277H1176.18V224.824H1196.31ZM1250.52 242.208V279.928H1262.69V285.381H1230.3V279.928H1243.63V247.661H1230.71V242.208H1250.52ZM1245.02 221.995C1246.55 221.995 1247.77 222.46 1248.67 223.389C1249.6 224.318 1250.07 225.453 1250.07 226.792C1250.07 228.186 1249.6 229.361 1248.67 230.318C1247.77 231.247 1246.55 231.712 1245.02 231.712C1243.58 231.712 1242.39 231.247 1241.46 230.318C1240.53 229.361 1240.06 228.186 1240.06 226.792C1240.06 225.453 1240.53 224.318 1241.46 223.389C1242.39 222.46 1243.58 221.995 1245.02 221.995ZM1303.33 223.963C1305.66 223.963 1307.76 224.168 1309.65 224.578C1311.53 224.988 1313.33 225.562 1315.02 226.3L1312.81 231.425C1311.41 230.824 1309.94 230.373 1308.38 230.072C1306.82 229.771 1305.21 229.621 1303.54 229.621C1300.53 229.621 1298.26 230.209 1296.73 231.384C1295.23 232.559 1294.48 234.363 1294.48 236.796V245.57H1309.12L1308.38 250.982H1294.48V285.381H1287.59V250.982H1277.3V245.57H1287.59V236.96C1287.59 234.281 1288.27 231.972 1289.64 230.031C1291.03 228.09 1292.92 226.601 1295.3 225.562C1297.68 224.496 1300.36 223.963 1303.33 223.963ZM1332.41 266.234C1332.55 269.569 1333.19 272.302 1334.34 274.434C1335.49 276.539 1337 278.097 1338.89 279.108C1340.78 280.092 1342.83 280.584 1345.04 280.584C1347.25 280.584 1349.25 280.256 1351.03 279.6C1352.83 278.944 1354.68 277.974 1356.56 276.689L1359.8 281.24C1357.78 282.825 1355.47 284.069 1352.87 284.971C1350.3 285.873 1347.66 286.324 1344.96 286.324C1340.78 286.324 1337.21 285.381 1334.26 283.495C1331.31 281.609 1329.05 278.985 1327.49 275.623C1325.96 272.234 1325.2 268.311 1325.2 263.856C1325.2 259.483 1325.98 255.601 1327.53 252.212C1329.09 248.823 1331.28 246.158 1334.09 244.217C1336.91 242.276 1340.23 241.306 1344.06 241.306C1347.69 241.306 1350.82 242.167 1353.45 243.889C1356.07 245.584 1358.08 248.016 1359.47 251.187C1360.89 254.33 1361.6 258.089 1361.6 262.462C1361.6 263.2 1361.59 263.897 1361.56 264.553C1361.54 265.182 1361.5 265.742 1361.44 266.234H1332.41ZM1344.14 246.964C1340.94 246.964 1338.26 248.098 1336.1 250.367C1333.97 252.636 1332.75 256.148 1332.45 260.904H1354.96C1354.88 256.285 1353.87 252.813 1351.93 250.49C1349.99 248.139 1347.39 246.964 1344.14 246.964ZM1395.68 280.379C1397.84 280.379 1399.85 280.024 1401.71 279.313C1403.6 278.602 1405.33 277.7 1406.92 276.607L1410.28 281.117C1408.39 282.73 1406.13 284.001 1403.47 284.93C1400.82 285.859 1398.23 286.324 1395.68 286.324C1391.39 286.324 1387.73 285.408 1384.7 283.577C1381.69 281.718 1379.39 279.122 1377.81 275.787C1376.22 272.425 1375.43 268.489 1375.43 263.979C1375.43 259.66 1376.22 255.793 1377.81 252.376C1379.42 248.932 1381.73 246.226 1384.74 244.258C1387.77 242.29 1391.45 241.306 1395.77 241.306C1398.53 241.306 1401.11 241.73 1403.52 242.577C1405.95 243.397 1408.18 244.641 1410.2 246.308L1406.84 250.9C1405.01 249.615 1403.16 248.659 1401.3 248.03C1399.47 247.374 1397.6 247.046 1395.68 247.046C1391.97 247.046 1388.91 248.44 1386.5 251.228C1384.1 254.016 1382.89 258.266 1382.89 263.979C1382.89 267.806 1383.44 270.935 1384.53 273.368C1385.65 275.773 1387.17 277.55 1389.08 278.698C1391.02 279.819 1393.22 280.379 1395.68 280.379ZM1461.25 242.208L1446.08 285.668C1445.07 288.593 1443.79 291.271 1442.23 293.704C1440.7 296.137 1438.69 298.146 1436.2 299.731C1433.74 301.344 1430.61 302.341 1426.81 302.724L1425.75 297.23C1428.73 296.738 1431.08 295.986 1432.8 294.975C1434.52 293.964 1435.87 292.665 1436.86 291.08C1437.87 289.495 1438.76 287.595 1439.52 285.381H1437.23L1422.14 242.208H1429.52L1441.9 280.133L1454.12 242.208H1461.25ZM1494.02 280.379C1496.18 280.379 1498.19 280.024 1500.05 279.313C1501.93 278.602 1503.67 277.7 1505.25 276.607L1508.62 281.117C1506.73 282.73 1504.46 284.001 1501.81 284.93C1499.16 285.859 1496.56 286.324 1494.02 286.324C1489.73 286.324 1486.07 285.408 1483.03 283.577C1480.03 281.718 1477.73 279.122 1476.14 275.787C1474.56 272.425 1473.77 268.489 1473.77 263.979C1473.77 259.66 1474.56 255.793 1476.14 252.376C1477.76 248.932 1480.07 246.226 1483.07 244.258C1486.11 242.29 1489.78 241.306 1494.1 241.306C1496.86 241.306 1499.45 241.73 1501.85 242.577C1504.28 243.397 1506.51 244.641 1508.53 246.308L1505.17 250.9C1503.34 249.615 1501.5 248.659 1499.64 248.03C1497.81 247.374 1495.93 247.046 1494.02 247.046C1490.3 247.046 1487.24 248.44 1484.84 251.228C1482.43 254.016 1481.23 258.266 1481.23 263.979C1481.23 267.806 1481.78 270.935 1482.87 273.368C1483.99 275.773 1485.51 277.55 1487.42 278.698C1489.36 279.819 1491.56 280.379 1494.02 280.379ZM1540.48 224.824V274.721C1540.48 276.853 1541.14 278.37 1542.45 279.272C1543.79 280.147 1545.51 280.584 1547.62 280.584C1548.93 280.584 1550.17 280.447 1551.35 280.174C1552.52 279.901 1553.7 279.532 1554.87 279.067L1556.72 284.11C1555.54 284.684 1554.08 285.19 1552.33 285.627C1550.61 286.092 1548.66 286.324 1546.47 286.324C1542.64 286.324 1539.54 285.272 1537.16 283.167C1534.78 281.035 1533.59 278.097 1533.59 274.352V230.277H1520.35V224.824H1540.48ZM1578.25 266.234C1578.39 269.569 1579.03 272.302 1580.18 274.434C1581.33 276.539 1582.84 278.097 1584.73 279.108C1586.62 280.092 1588.67 280.584 1590.88 280.584C1593.09 280.584 1595.09 280.256 1596.87 279.6C1598.67 278.944 1600.52 277.974 1602.4 276.689L1605.64 281.24C1603.62 282.825 1601.31 284.069 1598.71 284.971C1596.14 285.873 1593.5 286.324 1590.8 286.324C1586.62 286.324 1583.05 285.381 1580.1 283.495C1577.15 281.609 1574.89 278.985 1573.33 275.623C1571.8 272.234 1571.04 268.311 1571.04 263.856C1571.04 259.483 1571.82 255.601 1573.37 252.212C1574.93 248.823 1577.12 246.158 1579.93 244.217C1582.75 242.276 1586.07 241.306 1589.9 241.306C1593.53 241.306 1596.66 242.167 1599.29 243.889C1601.91 245.584 1603.92 248.016 1605.31 251.187C1606.73 254.33 1607.44 258.089 1607.44 262.462C1607.44 263.2 1607.43 263.897 1607.4 264.553C1607.38 265.182 1607.34 265.742 1607.28 266.234H1578.25ZM1589.98 246.964C1586.78 246.964 1584.1 248.098 1581.94 250.367C1579.81 252.636 1578.59 256.148 1578.29 260.904H1600.8C1600.72 256.285 1599.71 252.813 1597.77 250.49C1595.83 248.139 1593.23 246.964 1589.98 246.964Z" fill="url(#paint1_linear_1346_66)"/>
<path d="M622.461 397.021H612.703L607.127 365.328L601.059 397.021H591.547L583.675 353.848H590.727L596.221 392.757L603.109 359.342H611.268L617.787 392.757L623.281 353.848H630.005L622.461 397.021ZM661.502 353.848V391.568H673.679V397.021H641.289V391.568H654.614V359.301H641.699V353.848H661.502ZM656.008 333.635C657.539 333.635 658.755 334.1 659.657 335.029C660.587 335.958 661.051 337.093 661.051 338.432C661.051 339.826 660.587 341.001 659.657 341.958C658.755 342.887 657.539 343.352 656.008 343.352C654.56 343.352 653.371 342.887 652.441 341.958C651.512 341.001 651.047 339.826 651.047 338.432C651.047 337.093 651.512 335.958 652.441 335.029C653.371 334.1 654.56 333.635 656.008 333.635ZM723.093 394.848C721.617 395.832 719.827 396.597 717.722 397.144C715.618 397.691 713.554 397.964 711.531 397.964C706.885 397.964 703.304 396.748 700.789 394.315C698.275 391.882 697.017 388.753 697.017 384.926V359.178H687.095V353.848H697.017V344.049L703.905 343.229V353.848H718.829L718.009 359.178H703.905V384.844C703.905 387.249 704.534 389.081 705.791 390.338C707.076 391.595 709.194 392.224 712.146 392.224C713.759 392.224 715.249 392.033 716.615 391.65C717.982 391.267 719.253 390.775 720.428 390.174L723.093 394.848ZM744.873 335.808V359.752C746.568 357.483 748.645 355.789 751.105 354.668C753.592 353.52 756.107 352.946 758.649 352.946C762.858 352.946 765.933 354.067 767.874 356.308C769.815 358.549 770.785 361.665 770.785 365.656V397.021H763.897V365.82C763.897 363.223 763.296 361.337 762.093 360.162C760.89 358.959 759.004 358.358 756.435 358.358C754.795 358.358 753.237 358.727 751.761 359.465C750.285 360.203 748.959 361.119 747.784 362.212C746.609 363.305 745.638 364.426 744.873 365.574V397.021H737.985V336.546L744.873 335.808ZM867.235 387.591C867.235 389.313 867.522 390.57 868.096 391.363C868.67 392.156 869.558 392.743 870.761 393.126L869.08 397.964C867.221 397.718 865.595 397.13 864.201 396.201C862.807 395.244 861.796 393.809 861.167 391.896C859.609 393.891 857.668 395.408 855.345 396.447C853.022 397.458 850.452 397.964 847.637 397.964C843.318 397.964 839.915 396.748 837.428 394.315C834.941 391.882 833.697 388.657 833.697 384.639C833.697 380.184 835.433 376.767 838.904 374.389C842.375 372.011 847.391 370.822 853.951 370.822H860.306V367.214C860.306 364.098 859.39 361.898 857.559 360.613C855.755 359.301 853.24 358.645 850.015 358.645C848.594 358.645 846.926 358.823 845.013 359.178C843.1 359.506 841.022 360.066 838.781 360.859L836.977 355.652C839.628 354.668 842.116 353.971 844.439 353.561C846.762 353.151 848.976 352.946 851.081 352.946C856.466 352.946 860.497 354.203 863.176 356.718C865.882 359.205 867.235 362.595 867.235 366.886V387.591ZM849.4 392.716C851.532 392.716 853.568 392.183 855.509 391.117C857.45 390.024 859.049 388.52 860.306 386.607V375.496H854.074C849.318 375.496 845.956 376.316 843.988 377.956C842.047 379.596 841.077 381.796 841.077 384.557C841.077 387.236 841.76 389.272 843.127 390.666C844.521 392.033 846.612 392.716 849.4 392.716ZM900.167 392.265C903.474 392.265 906.085 391.65 907.998 390.42C909.939 389.163 910.909 387.495 910.909 385.418C910.909 384.106 910.663 382.972 910.171 382.015C909.706 381.058 908.736 380.197 907.26 379.432C905.784 378.667 903.515 377.901 900.454 377.136C897.475 376.398 894.878 375.551 892.664 374.594C890.477 373.61 888.769 372.339 887.539 370.781C886.336 369.223 885.735 367.2 885.735 364.713C885.735 362.28 886.418 360.189 887.785 358.44C889.179 356.663 891.106 355.31 893.566 354.381C896.026 353.424 898.882 352.946 902.135 352.946C905.606 352.946 908.627 353.411 911.196 354.34C913.793 355.242 915.993 356.363 917.797 357.702L914.763 362.376C913.123 361.255 911.319 360.34 909.351 359.629C907.383 358.891 905.005 358.522 902.217 358.522C898.828 358.522 896.422 359.055 895.001 360.121C893.58 361.16 892.869 362.513 892.869 364.18C892.869 365.437 893.211 366.49 893.894 367.337C894.605 368.157 895.794 368.909 897.461 369.592C899.128 370.248 901.424 370.972 904.349 371.765C907.164 372.503 909.611 373.391 911.688 374.43C913.793 375.469 915.433 376.835 916.608 378.53C917.783 380.225 918.371 382.411 918.371 385.09C918.371 388.151 917.496 390.639 915.747 392.552C913.998 394.438 911.729 395.818 908.941 396.693C906.18 397.54 903.256 397.964 900.167 397.964C896.258 397.964 892.924 397.404 890.163 396.283C887.43 395.135 885.134 393.755 883.275 392.142L887.211 387.591C888.906 388.985 890.846 390.119 893.033 390.994C895.247 391.841 897.625 392.265 900.167 392.265ZM970.573 353.848L955.403 397.308C954.392 400.233 953.107 402.911 951.549 405.344C950.018 407.777 948.009 409.786 945.522 411.371C943.062 412.984 939.932 413.981 936.133 414.364L935.067 408.87C938.046 408.378 940.397 407.626 942.119 406.615C943.841 405.604 945.194 404.305 946.178 402.72C947.189 401.135 948.078 399.235 948.843 397.021H946.547L931.459 353.848H938.839L951.221 391.773L963.439 353.848H970.573ZM983.825 397.021V353.848H989.688L990.221 359.834C991.97 357.62 994.157 355.925 996.781 354.75C999.432 353.547 1002 352.946 1004.49 352.946C1008.73 352.946 1011.8 354.067 1013.71 356.308C1015.65 358.549 1016.62 361.665 1016.62 365.656V397.021H1009.74V370.74C1009.74 367.788 1009.57 365.41 1009.24 363.606C1008.92 361.775 1008.23 360.449 1007.19 359.629C1006.16 358.782 1004.54 358.358 1002.36 358.358C1000.66 358.358 999.063 358.727 997.56 359.465C996.084 360.203 994.758 361.132 993.583 362.253C992.435 363.346 991.478 364.453 990.713 365.574V397.021H983.825ZM1052.51 392.019C1054.67 392.019 1056.68 391.664 1058.54 390.953C1060.42 390.242 1062.16 389.34 1063.74 388.247L1067.1 392.757C1065.22 394.37 1062.95 395.641 1060.3 396.57C1057.65 397.499 1055.05 397.964 1052.51 397.964C1048.22 397.964 1044.55 397.048 1041.52 395.217C1038.51 393.358 1036.22 390.762 1034.63 387.427C1033.05 384.065 1032.25 380.129 1032.25 375.619C1032.25 371.3 1033.05 367.433 1034.63 364.016C1036.25 360.572 1038.56 357.866 1041.56 355.898C1044.6 353.93 1048.27 352.946 1052.59 352.946C1055.35 352.946 1057.93 353.37 1060.34 354.217C1062.77 355.037 1065 356.281 1067.02 357.948L1063.66 362.54C1061.83 361.255 1059.98 360.299 1058.13 359.67C1056.29 359.014 1054.42 358.686 1052.51 358.686C1048.79 358.686 1045.73 360.08 1043.32 362.868C1040.92 365.656 1039.72 369.906 1039.72 375.619C1039.72 379.446 1040.26 382.575 1041.36 385.008C1042.48 387.413 1043.99 389.19 1045.91 390.338C1047.85 391.459 1050.05 392.019 1052.51 392.019ZM1167.16 356.39C1167.16 359.205 1166.55 361.665 1165.32 363.77C1164.12 365.875 1162.48 367.61 1160.4 368.977C1158.32 370.344 1155.98 371.341 1153.39 371.97L1170.11 397.021H1161.59L1146.17 372.79H1138.54V397.021H1131.41V340.564H1145.92C1152.89 340.564 1158.17 341.903 1161.75 344.582C1165.36 347.233 1167.16 351.169 1167.16 356.39ZM1159.54 356.39C1159.54 352.755 1158.5 350.158 1156.42 348.6C1154.34 347.015 1151.12 346.222 1146.74 346.222H1138.54V367.214H1146.74C1150.79 367.214 1153.93 366.394 1156.17 364.754C1158.42 363.087 1159.54 360.299 1159.54 356.39ZM1187.38 353.848V384.434C1187.38 387.277 1187.97 389.327 1189.15 390.584C1190.32 391.841 1192.15 392.47 1194.64 392.47C1197.02 392.47 1199.26 391.8 1201.37 390.461C1203.5 389.094 1205.15 387.482 1206.33 385.623V353.848H1213.21V397.021H1207.35L1206.78 391.199C1205.08 393.386 1202.99 395.067 1200.5 396.242C1198.02 397.39 1195.5 397.964 1192.96 397.964C1188.78 397.964 1185.65 396.857 1183.57 394.643C1181.52 392.402 1180.5 389.272 1180.5 385.254V353.848H1187.38ZM1244.34 392.265C1247.65 392.265 1250.26 391.65 1252.17 390.42C1254.11 389.163 1255.08 387.495 1255.08 385.418C1255.08 384.106 1254.84 382.972 1254.35 382.015C1253.88 381.058 1252.91 380.197 1251.44 379.432C1249.96 378.667 1247.69 377.901 1244.63 377.136C1241.65 376.398 1239.05 375.551 1236.84 374.594C1234.65 373.61 1232.94 372.339 1231.71 370.781C1230.51 369.223 1229.91 367.2 1229.91 364.713C1229.91 362.28 1230.59 360.189 1231.96 358.44C1233.35 356.663 1235.28 355.31 1237.74 354.381C1240.2 353.424 1243.06 352.946 1246.31 352.946C1249.78 352.946 1252.8 353.411 1255.37 354.34C1257.97 355.242 1260.17 356.363 1261.97 357.702L1258.94 362.376C1257.3 361.255 1255.49 360.34 1253.53 359.629C1251.56 358.891 1249.18 358.522 1246.39 358.522C1243 358.522 1240.6 359.055 1239.18 360.121C1237.76 361.16 1237.04 362.513 1237.04 364.18C1237.04 365.437 1237.39 366.49 1238.07 367.337C1238.78 368.157 1239.97 368.909 1241.64 369.592C1243.3 370.248 1245.6 370.972 1248.52 371.765C1251.34 372.503 1253.79 373.391 1255.86 374.43C1257.97 375.469 1259.61 376.835 1260.78 378.53C1261.96 380.225 1262.55 382.411 1262.55 385.09C1262.55 388.151 1261.67 390.639 1259.92 392.552C1258.17 394.438 1255.9 395.818 1253.12 396.693C1250.36 397.54 1247.43 397.964 1244.34 397.964C1240.43 397.964 1237.1 397.404 1234.34 396.283C1231.61 395.135 1229.31 393.755 1227.45 392.142L1231.39 387.591C1233.08 388.985 1235.02 390.119 1237.21 390.994C1239.42 391.841 1241.8 392.265 1244.34 392.265ZM1313.11 394.848C1311.63 395.832 1309.84 396.597 1307.74 397.144C1305.63 397.691 1303.57 397.964 1301.55 397.964C1296.9 397.964 1293.32 396.748 1290.8 394.315C1288.29 391.882 1287.03 388.753 1287.03 384.926V359.178H1277.11V353.848H1287.03V344.049L1293.92 343.229V353.848H1308.84L1308.02 359.178H1293.92V384.844C1293.92 387.249 1294.55 389.081 1295.81 390.338C1297.09 391.595 1299.21 392.224 1302.16 392.224C1303.77 392.224 1305.26 392.033 1306.63 391.65C1308 391.267 1309.27 390.775 1310.44 390.174L1313.11 394.848Z" fill="url(#paint2_linear_1346_66)"/>
<path d="M1704.21 716.975L1688.99 707.545C1688.86 706.061 1688.71 704.581 1688.56 703.107L1701.66 690.903C1702.99 689.662 1703.59 687.824 1703.23 686.049C1702.88 684.264 1701.63 682.794 1699.92 682.166L1683.18 675.925C1682.76 674.476 1682.32 673.037 1681.87 671.592L1692.3 657.099C1693.37 655.626 1693.59 653.709 1692.89 652.037C1692.2 650.363 1690.68 649.163 1688.91 648.869L1671.26 645.998C1670.57 644.66 1669.86 643.342 1669.14 642.045L1676.56 625.75C1677.32 624.093 1677.16 622.179 1676.15 620.654C1675.14 619.142 1673.43 618.258 1671.6 618.327L1653.68 618.951C1652.75 617.793 1651.81 616.646 1650.85 615.519L1654.98 598.08C1655.39 596.308 1654.87 594.439 1653.58 593.157C1652.3 591.874 1650.44 591.343 1648.66 591.759L1631.22 595.885C1630.09 594.928 1628.94 593.982 1627.78 593.056L1628.41 575.132C1628.47 573.318 1627.59 571.595 1626.08 570.59C1624.56 569.577 1622.65 569.425 1620.98 570.177L1604.72 577.597C1603.41 576.875 1602.09 576.161 1600.77 575.471L1597.89 557.824C1597.6 556.035 1596.4 554.516 1594.72 553.837C1593.05 553.14 1591.12 553.365 1589.66 554.426L1575.17 564.862C1573.74 564.408 1572.3 563.971 1570.87 563.555L1564.63 546.809C1563.99 545.103 1562.52 543.852 1560.75 543.498C1558.96 543.148 1557.14 543.741 1555.89 545.065L1543.69 558.171C1542.21 558.008 1540.73 557.859 1539.25 557.737L1529.82 542.482C1528.87 540.94 1527.18 540 1525.35 540C1523.52 540 1521.85 540.94 1520.91 542.482L1511.48 557.737C1510 557.859 1508.51 558.008 1507.04 558.171L1494.84 545.065C1493.6 543.741 1491.76 543.148 1489.98 543.498C1488.2 543.855 1486.73 545.103 1486.1 546.809L1479.86 563.555C1478.41 563.971 1476.98 564.411 1475.56 564.862L1461.07 554.426C1459.59 553.362 1457.67 553.137 1456.01 553.837C1454.33 554.53 1453.13 556.049 1452.84 557.824L1449.96 575.471C1448.63 576.161 1447.31 576.872 1446.01 577.597L1429.75 570.177C1428.09 569.421 1426.18 569.577 1424.65 570.59C1423.14 571.595 1422.25 573.318 1422.32 575.132L1422.95 593.056C1421.79 593.982 1420.64 594.928 1419.51 595.885L1402.07 591.759C1400.3 591.347 1398.43 591.874 1397.15 593.157C1395.86 594.443 1395.33 596.298 1395.75 598.08L1399.84 615.519C1398.89 616.649 1397.94 617.793 1397.02 618.951L1379.09 618.327C1377.29 618.275 1375.56 619.142 1374.55 620.654C1373.54 622.158 1373.39 624.086 1374.14 625.75L1381.56 642.045C1380.84 643.353 1380.12 644.67 1379.43 645.998L1361.79 648.869C1359.99 649.16 1358.48 650.359 1357.8 652.037C1357.1 653.719 1357.33 655.643 1358.39 657.099L1368.82 671.592C1368.37 673.024 1367.93 674.462 1367.51 675.925L1350.77 682.166C1349.07 682.801 1347.82 684.271 1347.46 686.049C1347.11 687.831 1347.7 689.655 1349.03 690.903L1362.14 703.107C1361.97 704.581 1361.83 706.064 1361.7 707.545L1346.48 716.975C1344.94 717.929 1344 719.614 1344 721.448C1344 723.282 1344.94 724.949 1346.48 725.886L1361.7 735.316C1361.83 736.8 1361.97 738.28 1362.14 739.754L1349.03 751.958C1347.7 753.195 1347.11 755.033 1347.46 756.812C1347.82 758.597 1349.07 760.064 1350.77 760.695L1367.51 766.935C1367.93 768.385 1368.37 769.823 1368.82 771.269L1358.39 785.761C1357.33 787.238 1357.1 789.156 1357.8 790.823C1358.5 792.505 1360.01 793.704 1361.82 793.992L1379.47 796.863C1380.16 798.201 1380.87 799.519 1381.59 800.815L1374.17 817.076C1373.42 818.73 1373.57 820.647 1374.59 822.172C1375.6 823.687 1377.32 824.571 1379.13 824.499L1397.02 823.871C1397.95 825.036 1398.89 826.177 1399.85 827.31L1395.76 844.75C1395.34 846.518 1395.86 848.355 1397.15 849.638C1398.43 850.931 1400.29 851.448 1402.08 851.032L1419.52 846.941C1420.65 847.905 1421.8 848.841 1422.95 849.763L1422.33 867.688C1422.26 869.501 1423.15 871.224 1424.66 872.229C1426.16 873.238 1428.09 873.391 1429.75 872.635L1446.01 865.216C1447.33 865.944 1448.64 866.651 1449.97 867.341L1452.84 884.988C1453.14 886.784 1454.33 888.303 1456.01 889.01C1457.69 889.707 1459.62 889.482 1461.07 888.424L1475.57 877.988C1477 878.442 1478.44 878.886 1479.9 879.302L1486.14 896.048C1486.78 897.747 1488.25 899.005 1490.03 899.352C1491.81 899.713 1493.63 899.116 1494.88 897.785L1507.08 884.68C1508.56 884.85 1510.04 884.992 1511.52 885.123L1520.95 900.344C1521.9 901.88 1523.59 902.826 1525.39 902.826C1527.19 902.826 1528.89 901.883 1529.86 900.344L1539.29 885.123C1540.78 884.992 1542.26 884.85 1543.73 884.68L1555.93 897.785C1557.17 899.116 1559.01 899.713 1560.79 899.352C1562.57 899.002 1564.04 897.747 1564.67 896.048L1570.91 879.302C1572.36 878.886 1573.8 878.442 1575.24 877.988L1589.74 888.424C1591.21 889.482 1593.13 889.707 1594.8 889.01C1596.48 888.32 1597.68 886.798 1597.97 884.988L1600.85 867.341C1602.18 866.651 1603.49 865.933 1604.8 865.216L1621.06 872.635C1622.71 873.391 1624.63 873.238 1626.16 872.229C1627.67 871.217 1628.55 869.501 1628.48 867.688L1627.86 849.763C1629.02 848.837 1630.16 847.905 1631.29 846.941L1648.73 851.032C1650.5 851.448 1652.37 850.931 1653.66 849.638C1654.95 848.352 1655.47 846.504 1655.05 844.75L1650.96 827.31C1651.92 826.177 1652.86 825.036 1653.78 823.871L1671.71 824.499C1673.52 824.571 1675.25 823.687 1676.25 822.172C1677.26 820.661 1677.42 818.736 1676.66 817.076L1669.24 800.815C1669.96 799.501 1670.68 798.184 1671.36 796.863L1689.01 793.992C1690.81 793.704 1692.32 792.505 1693 790.823C1693.69 789.149 1693.47 787.218 1692.41 785.761L1681.97 771.269C1682.42 769.837 1682.86 768.398 1683.28 766.935L1700.03 760.695C1701.73 760.057 1702.99 758.59 1703.33 756.812C1703.69 755.03 1703.1 753.206 1701.76 751.958L1688.66 739.754C1688.82 738.28 1688.96 736.796 1689.09 735.316L1704.31 725.886C1705.85 724.936 1706.8 723.247 1706.8 721.448C1706.8 719.648 1705.86 717.946 1704.32 716.975H1704.21ZM1602.28 843.522C1596.45 842.267 1592.78 836.519 1594.03 830.694C1595.27 824.87 1600.99 821.16 1606.82 822.408C1612.64 823.653 1616.35 829.411 1615.11 835.236C1613.86 841.061 1608.14 844.77 1602.31 843.522H1602.28ZM1597.11 808.505C1591.81 807.368 1586.57 810.745 1585.46 816.063L1580.05 841.303C1563.38 848.862 1544.69 853.091 1525.27 853.091C1505.3 853.091 1486.44 848.688 1469.45 840.783L1464.05 815.543C1462.91 810.239 1457.7 806.841 1452.4 807.985L1430.1 812.77C1425.98 808.505 1422.13 803.963 1418.59 799.179H1527.11C1528.34 799.179 1529.16 798.957 1529.16 797.841V759.356C1529.16 758.24 1528.34 758.018 1527.11 758.018H1495.39V733.714H1529.68C1532.81 733.714 1546.42 734.609 1550.76 752.02C1552.12 757.359 1555.13 774.764 1557.17 780.346C1559.21 786.587 1567.5 799.068 1576.34 799.068H1630.43C1631.04 799.068 1631.7 798.999 1632.39 798.874C1628.64 803.97 1624.52 808.79 1620.11 813.297L1597.3 808.408L1597.11 808.505ZM1446.99 843.002C1441.16 844.257 1435.44 840.548 1434.19 834.716C1432.95 828.891 1436.65 823.136 1442.48 821.888C1448.31 820.643 1454.03 824.353 1455.28 830.174C1456.52 835.999 1452.82 841.754 1446.99 843.002ZM1405.73 676.237C1408.14 681.681 1405.69 688.06 1400.25 690.487C1394.81 692.904 1388.46 690.445 1386.04 685.009C1383.61 679.573 1386.08 673.186 1391.52 670.76C1396.96 668.346 1403.3 670.801 1405.73 676.237ZM1393.08 706.193L1416.31 695.861C1421.26 693.659 1423.52 687.852 1421.3 682.894L1416.51 672.077H1435.31V756.673H1397.51C1394.22 745.093 1392.45 732.889 1392.45 720.269C1392.45 715.45 1392.71 710.7 1393.21 706.019L1393.08 706.193ZM1495.01 697.976V673.013H1539.73C1542.04 673.013 1556.06 675.686 1556.06 686.153C1556.06 694.855 1545.31 697.976 1536.47 697.976H1494.87H1495.01ZM1657.61 720.442C1657.61 723.757 1657.49 727.03 1657.25 730.289H1643.62C1642.26 730.289 1641.71 731.183 1641.71 732.518V738.759C1641.71 753.459 1633.43 756.683 1626.15 757.481C1619.21 758.261 1611.55 754.582 1610.61 750.339C1606.52 727.352 1599.73 722.464 1588.98 713.935C1602.33 705.475 1616.19 692.959 1616.19 676.144C1616.19 658.081 1603.82 646.709 1595.39 641.127C1583.53 633.326 1570.43 631.766 1566.89 631.766H1426.13C1445.23 610.478 1471.2 595.362 1500.33 589.814L1516.93 607.219C1520.68 611.137 1526.88 611.31 1530.84 607.538L1549.42 589.787C1588.25 597.033 1621.19 621.233 1640.26 654.62L1627.53 683.328C1625.34 688.285 1627.58 694.11 1632.52 696.294L1657 707.181C1657.42 711.515 1657.65 715.918 1657.65 720.356L1657.61 720.442ZM1516.85 575.173C1521.15 571.047 1527.98 571.221 1532.07 575.523C1536.16 579.822 1536.02 586.652 1531.71 590.778C1527.41 594.904 1520.58 594.731 1516.49 590.425C1512.4 586.126 1512.54 579.295 1516.85 575.17V575.173ZM1643.05 676.758C1645.46 671.314 1651.82 668.853 1657.27 671.28C1662.71 673.693 1665.17 680.086 1662.74 685.529C1660.33 690.972 1653.97 693.434 1648.53 691.007C1643.08 688.594 1640.62 682.201 1643.05 676.758Z" fill="url(#paint3_linear_1346_66)"/>
<g filter="url(#filter0_d_1346_66)">
<path d="M453.5 887C545.455 887 620 812.455 620 720.5C620 628.545 545.455 554 453.5 554C361.545 554 287 628.545 287 720.5C287 812.455 361.545 887 453.5 887Z" fill="url(#paint4_linear_1346_66)"/>
<path d="M437.512 661.226C435.181 661.559 436.18 663.557 434.848 663.557C433.849 663.557 433.849 660.893 437.512 661.226ZM444.505 661.559C446.503 660.893 446.836 663.224 447.835 662.891C448.834 662.558 447.835 660.227 444.505 661.559ZM518.764 804.083C512.104 807.413 503.446 814.739 500.116 818.069C497.785 820.4 487.795 821.399 482.134 818.735C475.474 815.405 479.137 810.077 468.814 809.744C463.819 809.744 458.824 809.744 453.829 809.744C449.5 809.744 445.171 810.077 440.509 810.077C425.191 810.077 423.526 820.067 413.869 819.734C407.209 819.401 398.884 814.073 384.232 811.076C373.909 809.078 364.252 808.412 362.254 804.083C360.256 799.754 364.918 794.426 365.251 790.097C365.584 784.103 360.922 776.444 364.252 773.114C367.249 770.45 373.576 772.448 377.572 770.117C381.901 767.786 383.899 765.788 383.899 760.127C385.564 765.455 383.899 770.117 380.236 772.448C378.238 773.78 373.909 774.446 370.912 774.113C368.248 773.78 366.583 774.446 365.917 775.445C364.918 776.777 365.251 779.108 366.583 782.105C367.915 785.102 369.247 787.1 369.247 790.763C368.914 794.426 364.918 798.755 365.584 802.085C365.917 803.417 366.916 804.416 369.913 805.082C374.575 806.414 382.9 807.746 391.225 809.744C400.216 812.075 409.873 816.071 415.534 815.405C433.183 813.074 423.193 794.093 420.196 789.764C405.544 766.454 395.554 751.136 387.895 757.13C385.897 758.795 385.897 753.134 385.897 751.136C386.23 743.477 390.226 740.813 392.557 734.819C396.886 723.497 400.216 710.843 406.876 704.183C411.871 697.856 419.53 687.2 421.195 681.872C419.863 669.884 419.53 657.23 419.53 645.908C419.197 634.253 421.195 623.597 434.515 616.604C437.845 614.939 441.841 614.273 446.503 614.273C454.495 614.273 463.486 616.271 468.814 620.6C477.805 627.26 483.466 641.579 482.8 651.569C482.134 659.561 483.799 667.553 486.13 676.211C489.127 686.201 493.789 693.194 501.448 701.519C510.439 711.176 517.765 730.157 519.763 742.478C521.761 753.8 519.097 760.793 516.766 761.126C513.103 761.792 510.772 773.447 499.117 772.781C491.791 772.448 491.125 768.119 489.127 764.456C485.797 758.462 482.467 760.46 481.135 766.454C480.469 769.451 480.802 774.113 481.801 777.776C483.799 785.102 483.133 791.762 481.801 800.087C479.47 816.071 492.79 819.068 502.114 811.409C511.105 804.083 513.103 802.751 524.425 798.755C541.741 792.761 535.747 787.766 526.756 784.436C518.431 781.772 518.098 767.786 521.095 765.122C521.761 780.107 529.42 782.438 532.75 784.436C546.736 792.761 527.089 800.087 518.764 804.083ZM480.802 760.127C482.467 758.129 484.132 758.129 486.796 758.129C487.129 749.138 501.448 749.804 506.11 753.467C506.11 751.469 501.781 749.471 499.783 748.472C502.78 738.149 501.448 734.153 499.45 724.163C497.785 716.837 491.125 706.847 485.797 703.517C487.129 704.849 489.793 708.179 492.457 713.174C497.119 721.832 501.781 734.486 498.784 745.142C497.452 749.138 494.788 749.804 493.123 749.804C484.798 750.803 489.793 740.147 486.463 725.828C482.8 709.844 478.804 708.512 477.805 707.18C473.143 686.201 467.815 688.199 466.483 680.54C465.151 673.547 472.477 667.886 462.487 665.888C459.49 665.222 455.161 662.225 453.163 661.892C451.498 661.559 450.499 650.237 456.826 649.904C463.153 649.571 464.485 657.23 463.153 660.227C461.488 663.224 463.153 664.223 466.483 663.224C469.147 662.558 467.482 655.565 468.148 654.566C466.483 644.909 462.487 643.577 458.158 642.911C442.174 644.243 449.5 661.559 447.835 659.894C445.504 657.563 438.844 659.894 438.844 658.229C438.844 649.238 435.847 643.91 431.851 643.91C427.189 643.91 425.191 650.237 425.191 653.9C424.858 657.23 427.189 664.556 428.854 664.223C429.853 663.89 431.851 661.559 429.853 661.559C428.854 661.559 427.189 659.228 427.189 656.231C427.189 653.234 428.188 650.237 432.184 650.237C436.846 650.57 436.846 659.228 436.18 659.894C434.848 660.893 432.85 662.891 432.517 663.224C431.185 665.555 428.188 666.221 427.189 667.22C425.191 669.218 424.858 671.549 426.19 672.548C431.518 675.545 429.853 678.875 437.179 679.208C441.841 679.541 445.504 678.542 448.834 677.543C451.498 676.877 459.49 674.879 461.488 671.882C462.154 670.55 463.153 670.55 463.819 670.883C464.818 671.549 465.151 673.547 462.154 674.546C458.158 675.545 453.829 677.876 450.499 679.208C446.836 680.54 445.837 681.206 442.507 681.872C434.848 683.204 429.187 679.208 434.515 684.203C436.18 685.868 437.845 686.867 442.174 686.867C451.831 686.534 462.487 674.879 463.486 680.207C463.819 681.206 460.489 682.871 457.825 683.87C448.834 688.199 442.507 697.19 436.846 693.86C431.518 691.196 426.523 678.209 426.523 684.203C426.523 693.194 414.868 700.853 420.196 710.843C416.533 711.842 408.541 728.825 407.542 737.483C406.876 742.478 407.875 748.805 406.876 752.135C405.211 757.13 397.219 747.473 399.883 735.152C400.216 733.154 399.883 732.488 399.217 733.487C395.887 739.148 397.885 747.14 400.216 752.468C401.215 754.799 403.879 755.798 405.877 758.129C409.873 762.791 425.857 774.446 428.521 777.443C431.851 780.773 431.185 788.765 423.526 789.431C427.189 796.424 430.852 797.09 430.852 809.078C435.181 806.747 433.516 801.752 431.518 798.422C430.186 796.091 428.521 795.092 428.854 794.759C429.187 794.426 431.185 792.428 432.517 794.093C436.513 798.422 443.839 799.088 451.831 798.422C459.823 797.423 468.148 794.759 472.144 788.432C474.142 785.435 475.141 784.436 476.14 785.102C477.139 785.768 477.472 787.766 477.139 791.096C477.139 794.759 475.474 798.755 474.475 801.752C473.476 805.415 473.143 807.746 476.473 807.746C477.472 801.419 479.137 794.759 479.803 788.432C480.136 780.773 474.808 767.12 480.802 760.127ZM432.184 656.231C431.851 657.563 432.184 658.562 433.183 658.562C433.183 658.562 433.516 658.562 433.516 658.229C433.849 655.232 432.517 653.234 431.851 653.234C430.519 652.901 430.519 654.899 431.185 654.899C431.851 654.566 432.517 655.232 432.184 656.231ZM458.158 652.235C456.826 652.235 457.159 653.234 457.825 653.234C458.824 653.567 459.49 655.232 459.823 656.897C459.823 656.897 461.155 656.564 461.155 656.231C461.488 653.567 458.824 652.235 458.158 652.235Z" fill="#222222"/>
</g>
</g>
<defs>
<filter id="filter0_d_1346_66" x="271" y="538" width="387" height="387" filterUnits="userSpaceOnUse" color-interpolation-filters="sRGB">
<feFlood flood-opacity="0" result="BackgroundImageFix"/>
<feColorMatrix in="SourceAlpha" type="matrix" values="0 0 0 0 0 0 0 0 0 0 0 0 0 0 0 0 0 0 127 0" result="hardAlpha"/>
<feOffset dx="11" dy="11"/>
<feGaussianBlur stdDeviation="13.5"/>
<feColorMatrix type="matrix" values="0 0 0 0 0 0 0 0 0 0 0 0 0 0 0 0 0 0 0.5 0"/>
<feBlend mode="normal" in2="BackgroundImageFix" result="effect1_dropShadow_1346_66"/>
<feBlend mode="normal" in="SourceGraphic" in2="effect1_dropShadow_1346_66" result="shape"/>
</filter>
<linearGradient id="paint0_linear_1346_66" x1="960" y1="0" x2="960" y2="1080" gradientUnits="userSpaceOnUse">
<stop stop-color="#323232"/>
<stop offset="1"/>
</linearGradient>
<linearGradient id="paint1_linear_1346_66" x1="289.424" y1="421.191" x2="1630.7" y2="421.191" gradientUnits="userSpaceOnUse">
<stop stop-color="#0095D5"/>
<stop offset="0.464053" stop-color="#7272E1"/>
<stop offset="1" stop-color="#7E6EE3"/>
</linearGradient>
<linearGradient id="paint2_linear_1346_66" x1="951.001" y1="316.021" x2="951.001" y2="424.021" gradientUnits="userSpaceOnUse">
<stop stop-color="#B32BD5"/>
<stop offset="1" stop-color="#DA3C8E"/>
</linearGradient>
<linearGradient id="paint3_linear_1346_66" x1="1525.4" y1="540" x2="1525.4" y2="902.826" gradientUnits="userSpaceOnUse">
<stop stop-color="#B32BD5"/>
<stop offset="1" stop-color="#DA3C8E"/>
</linearGradient>
<linearGradient id="paint4_linear_1346_66" x1="287.859" y1="887.832" x2="624.189" y2="887.832" gradientUnits="userSpaceOnUse">
<stop stop-color="#0095D5"/>
<stop offset="0.464053" stop-color="#7272E1"/>
<stop offset="1" stop-color="#7E6EE3"/>
</linearGradient>
<clipPath id="clip0_1346_66">
<rect width="1920" height="1080" fill="white"/>
</clipPath>
</defs>
</svg>
