<svg width="1920" height="1080" viewBox="0 0 1920 1080" fill="none" xmlns="http://www.w3.org/2000/svg">
<g id="mechanical-keyb-review">
<g id="Rectangle">
<rect width="1920" height="1080" fill="#323232"/>
<rect width="1920" height="1080" fill="url(#paint0_linear)" fill-opacity="0.15"/>
</g>
<path id="Java vs Kotlin" d="M234.214 348L198.964 254.1H198.364C198.664 257.2 198.914 261.4 199.114 266.7C199.314 271.9 199.414 277.35 199.414 283.05V348H186.964V240.9H206.914L239.914 328.65H240.514L274.114 240.9H293.914V348H280.564V282.15C280.564 276.95 280.664 271.8 280.864 266.7C281.164 261.6 281.414 257.45 281.614 254.25H281.014L245.314 348H234.214ZM352.298 266.1C359.198 266.1 365.098 267.6 369.998 270.6C374.998 273.6 378.798 277.85 381.398 283.35C384.098 288.75 385.448 295.1 385.448 302.4V310.35H330.398C330.598 319.45 332.898 326.4 337.298 331.2C341.798 335.9 348.048 338.25 356.048 338.25C361.148 338.25 365.648 337.8 369.548 336.9C373.548 335.9 377.648 334.5 381.848 332.7V344.25C377.748 346.05 373.698 347.35 369.698 348.15C365.698 349.05 360.948 349.5 355.448 349.5C347.848 349.5 341.098 347.95 335.198 344.85C329.398 341.75 324.848 337.15 321.548 331.05C318.348 324.85 316.748 317.3 316.748 308.4C316.748 299.6 318.198 292.05 321.098 285.75C324.098 279.45 328.248 274.6 333.548 271.2C338.948 267.8 345.198 266.1 352.298 266.1ZM352.148 276.9C345.848 276.9 340.848 278.95 337.148 283.05C333.548 287.05 331.398 292.65 330.698 299.85H371.648C371.548 293.05 369.948 287.55 366.848 283.35C363.748 279.05 358.848 276.9 352.148 276.9ZM438.166 349.5C431.066 349.5 424.716 348.05 419.116 345.15C413.616 342.25 409.266 337.75 406.066 331.65C402.966 325.55 401.416 317.75 401.416 308.25C401.416 298.35 403.066 290.3 406.366 284.1C409.666 277.9 414.116 273.35 419.716 270.45C425.416 267.55 431.866 266.1 439.066 266.1C443.166 266.1 447.116 266.55 450.916 267.45C454.716 268.25 457.816 269.25 460.216 270.45L456.166 281.4C453.766 280.5 450.966 279.65 447.766 278.85C444.566 278.05 441.566 277.65 438.766 277.65C422.966 277.65 415.066 287.8 415.066 308.1C415.066 317.8 416.966 325.25 420.766 330.45C424.666 335.55 430.416 338.1 438.016 338.1C442.416 338.1 446.266 337.65 449.566 336.75C452.966 335.85 456.066 334.75 458.866 333.45V345.15C456.166 346.55 453.166 347.6 449.866 348.3C446.666 349.1 442.766 349.5 438.166 349.5ZM491.186 267.45C491.186 271.45 490.936 275.2 490.436 278.7H491.336C493.936 274.6 497.436 271.5 501.836 269.4C506.336 267.3 511.186 266.25 516.386 266.25C526.186 266.25 533.536 268.6 538.436 273.3C543.336 277.9 545.786 285.35 545.786 295.65V348H532.736V296.55C532.736 283.65 526.736 277.2 514.736 277.2C505.736 277.2 499.536 279.75 496.136 284.85C492.836 289.85 491.186 297.05 491.186 306.45V348H477.986V234H491.186V267.45ZM601.161 266.25C610.961 266.25 618.211 268.4 622.911 272.7C627.611 277 629.961 283.85 629.961 293.25V348H620.361L617.811 336.6H617.211C613.711 341 610.011 344.25 606.111 346.35C602.311 348.45 597.011 349.5 590.211 349.5C582.911 349.5 576.861 347.6 572.061 343.8C567.261 339.9 564.861 333.85 564.861 325.65C564.861 317.65 568.011 311.5 574.311 307.2C580.611 302.8 590.311 300.4 603.411 300L617.061 299.55V294.75C617.061 288.05 615.611 283.4 612.711 280.8C609.811 278.2 605.711 276.9 600.411 276.9C596.211 276.9 592.211 277.55 588.411 278.85C584.611 280.05 581.061 281.45 577.761 283.05L573.711 273.15C577.211 271.25 581.361 269.65 586.161 268.35C590.961 266.95 595.961 266.25 601.161 266.25ZM605.061 309.15C595.061 309.55 588.111 311.15 584.211 313.95C580.411 316.75 578.511 320.7 578.511 325.8C578.511 330.3 579.861 333.6 582.561 335.7C585.361 337.8 588.911 338.85 593.211 338.85C600.011 338.85 605.661 337 610.161 333.3C614.661 329.5 616.911 323.7 616.911 315.9V308.7L605.061 309.15ZM693.493 266.1C703.093 266.1 710.343 268.45 715.243 273.15C720.143 277.75 722.593 285.25 722.593 295.65V348H709.543V296.55C709.543 283.65 703.543 277.2 691.543 277.2C682.643 277.2 676.493 279.7 673.093 284.7C669.693 289.7 667.993 296.9 667.993 306.3V348H654.793V267.6H665.443L667.393 278.55H668.143C670.743 274.35 674.343 271.25 678.943 269.25C683.543 267.15 688.393 266.1 693.493 266.1ZM754.268 237.45C756.268 237.45 758.018 238.15 759.518 239.55C761.118 240.85 761.918 242.95 761.918 245.85C761.918 248.65 761.118 250.75 759.518 252.15C758.018 253.55 756.268 254.25 754.268 254.25C752.068 254.25 750.218 253.55 748.718 252.15C747.218 250.75 746.468 248.65 746.468 245.85C746.468 242.95 747.218 240.85 748.718 239.55C750.218 238.15 752.068 237.45 754.268 237.45ZM760.718 267.6V348H747.518V267.6H760.718ZM818.439 349.5C811.339 349.5 804.989 348.05 799.389 345.15C793.889 342.25 789.539 337.75 786.339 331.65C783.239 325.55 781.689 317.75 781.689 308.25C781.689 298.35 783.339 290.3 786.639 284.1C789.939 277.9 794.389 273.35 799.989 270.45C805.689 267.55 812.139 266.1 819.339 266.1C823.439 266.1 827.389 266.55 831.189 267.45C834.989 268.25 838.089 269.25 840.489 270.45L836.439 281.4C834.039 280.5 831.239 279.65 828.039 278.85C824.839 278.05 821.839 277.65 819.039 277.65C803.239 277.65 795.339 287.8 795.339 308.1C795.339 317.8 797.239 325.25 801.039 330.45C804.939 335.55 810.689 338.1 818.289 338.1C822.689 338.1 826.539 337.65 829.839 336.75C833.239 335.85 836.339 334.75 839.139 333.45V345.15C836.439 346.55 833.439 347.6 830.139 348.3C826.939 349.1 823.039 349.5 818.439 349.5ZM888.71 266.25C898.51 266.25 905.76 268.4 910.46 272.7C915.16 277 917.51 283.85 917.51 293.25V348H907.91L905.36 336.6H904.76C901.26 341 897.56 344.25 893.66 346.35C889.86 348.45 884.56 349.5 877.76 349.5C870.46 349.5 864.41 347.6 859.61 343.8C854.81 339.9 852.41 333.85 852.41 325.65C852.41 317.65 855.56 311.5 861.86 307.2C868.16 302.8 877.86 300.4 890.96 300L904.61 299.55V294.75C904.61 288.05 903.16 283.4 900.26 280.8C897.36 278.2 893.26 276.9 887.96 276.9C883.76 276.9 879.76 277.55 875.96 278.85C872.16 280.05 868.61 281.45 865.31 283.05L861.26 273.15C864.76 271.25 868.91 269.65 873.71 268.35C878.51 266.95 883.51 266.25 888.71 266.25ZM892.61 309.15C882.61 309.55 875.66 311.15 871.76 313.95C867.96 316.75 866.06 320.7 866.06 325.8C866.06 330.3 867.41 333.6 870.11 335.7C872.91 337.8 876.46 338.85 880.76 338.85C887.56 338.85 893.21 337 897.71 333.3C902.21 329.5 904.46 323.7 904.46 315.9V308.7L892.61 309.15ZM955.542 348H942.342V234H955.542V348ZM1100.08 348H1084.18L1046.23 296.85L1035.28 306.45V348H1021.78V240.9H1035.28V293.7C1038.28 290.3 1041.33 286.9 1044.43 283.5C1047.53 280.1 1050.63 276.7 1053.73 273.3L1082.68 240.9H1098.43L1055.98 287.55L1100.08 348ZM1143.9 266.1C1150.8 266.1 1156.7 267.6 1161.6 270.6C1166.6 273.6 1170.4 277.85 1173 283.35C1175.7 288.75 1177.05 295.1 1177.05 302.4V310.35H1122C1122.2 319.45 1124.5 326.4 1128.9 331.2C1133.4 335.9 1139.65 338.25 1147.65 338.25C1152.75 338.25 1157.25 337.8 1161.15 336.9C1165.15 335.9 1169.25 334.5 1173.45 332.7V344.25C1169.35 346.05 1165.3 347.35 1161.3 348.15C1157.3 349.05 1152.55 349.5 1147.05 349.5C1139.45 349.5 1132.7 347.95 1126.8 344.85C1121 341.75 1116.45 337.15 1113.15 331.05C1109.95 324.85 1108.35 317.3 1108.35 308.4C1108.35 299.6 1109.8 292.05 1112.7 285.75C1115.7 279.45 1119.85 274.6 1125.15 271.2C1130.55 267.8 1136.8 266.1 1143.9 266.1ZM1143.75 276.9C1137.45 276.9 1132.45 278.95 1128.75 283.05C1125.15 287.05 1123 292.65 1122.3 299.85H1163.25C1163.15 293.05 1161.55 287.55 1158.45 283.35C1155.35 279.05 1150.45 276.9 1143.75 276.9ZM1181.99 267.6H1196.09L1213.49 313.35C1214.99 317.35 1216.34 321.2 1217.54 324.9C1218.74 328.5 1219.64 331.95 1220.24 335.25H1220.84C1221.44 332.75 1222.39 329.5 1223.69 325.5C1224.99 321.4 1226.34 317.3 1227.74 313.2L1244.09 267.6H1258.34L1223.69 359.1C1220.89 366.7 1217.24 372.75 1212.74 377.25C1208.34 381.75 1202.24 384 1194.44 384C1192.04 384 1189.94 383.85 1188.14 383.55C1186.34 383.35 1184.79 383.1 1183.49 382.8V372.3C1184.59 372.5 1185.89 372.7 1187.39 372.9C1188.99 373.1 1190.64 373.2 1192.34 373.2C1196.94 373.2 1200.64 371.9 1203.44 369.3C1206.34 366.7 1208.59 363.25 1210.19 358.95L1214.39 348.3L1181.99 267.6ZM1284.25 261.75C1284.25 265.15 1284.15 268.35 1283.95 271.35C1283.85 274.25 1283.7 276.55 1283.5 278.25H1284.25C1286.55 274.85 1289.7 272 1293.7 269.7C1297.7 267.4 1302.85 266.25 1309.15 266.25C1319.15 266.25 1327.15 269.75 1333.15 276.75C1339.25 283.65 1342.3 294 1342.3 307.8C1342.3 321.6 1339.25 332 1333.15 339C1327.05 346 1319.05 349.5 1309.15 349.5C1302.85 349.5 1297.7 348.35 1293.7 346.05C1289.7 343.75 1286.55 341 1284.25 337.8H1283.2L1280.5 348H1271.05V234H1284.25V261.75ZM1306.9 277.2C1298.4 277.2 1292.5 279.65 1289.2 284.55C1285.9 289.45 1284.25 297.05 1284.25 307.35V307.95C1284.25 317.85 1285.85 325.45 1289.05 330.75C1292.35 335.95 1298.4 338.55 1307.2 338.55C1314.4 338.55 1319.75 335.9 1323.25 330.6C1326.85 325.3 1328.65 317.65 1328.65 307.65C1328.65 287.35 1321.4 277.2 1306.9 277.2ZM1433.24 307.65C1433.24 320.95 1429.84 331.25 1423.04 338.55C1416.34 345.85 1407.24 349.5 1395.74 349.5C1388.64 349.5 1382.29 347.9 1376.69 344.7C1371.19 341.4 1366.84 336.65 1363.64 330.45C1360.44 324.15 1358.84 316.55 1358.84 307.65C1358.84 294.35 1362.19 284.1 1368.89 276.9C1375.59 269.7 1384.69 266.1 1396.19 266.1C1403.49 266.1 1409.89 267.75 1415.39 271.05C1420.99 274.25 1425.34 278.95 1428.44 285.15C1431.64 291.25 1433.24 298.75 1433.24 307.65ZM1372.49 307.65C1372.49 317.15 1374.34 324.7 1378.04 330.3C1381.84 335.8 1387.84 338.55 1396.04 338.55C1404.14 338.55 1410.09 335.8 1413.89 330.3C1417.69 324.7 1419.59 317.15 1419.59 307.65C1419.59 298.15 1417.69 290.7 1413.89 285.3C1410.09 279.9 1404.09 277.2 1395.89 277.2C1387.69 277.2 1381.74 279.9 1378.04 285.3C1374.34 290.7 1372.49 298.15 1372.49 307.65ZM1484.61 266.25C1494.41 266.25 1501.66 268.4 1506.36 272.7C1511.06 277 1513.41 283.85 1513.41 293.25V348H1503.81L1501.26 336.6H1500.66C1497.16 341 1493.46 344.25 1489.56 346.35C1485.76 348.45 1480.46 349.5 1473.66 349.5C1466.36 349.5 1460.31 347.6 1455.51 343.8C1450.71 339.9 1448.31 333.85 1448.31 325.65C1448.31 317.65 1451.46 311.5 1457.76 307.2C1464.06 302.8 1473.76 300.4 1486.86 300L1500.51 299.55V294.75C1500.51 288.05 1499.06 283.4 1496.16 280.8C1493.26 278.2 1489.16 276.9 1483.86 276.9C1479.66 276.9 1475.66 277.55 1471.86 278.85C1468.06 280.05 1464.51 281.45 1461.21 283.05L1457.16 273.15C1460.66 271.25 1464.81 269.65 1469.61 268.35C1474.41 266.95 1479.41 266.25 1484.61 266.25ZM1488.51 309.15C1478.51 309.55 1471.56 311.15 1467.66 313.95C1463.86 316.75 1461.96 320.7 1461.96 325.8C1461.96 330.3 1463.31 333.6 1466.01 335.7C1468.81 337.8 1472.36 338.85 1476.66 338.85C1483.46 338.85 1489.11 337 1493.61 333.3C1498.11 329.5 1500.36 323.7 1500.36 315.9V308.7L1488.51 309.15ZM1575.74 266.1C1577.24 266.1 1578.84 266.2 1580.54 266.4C1582.34 266.5 1583.89 266.7 1585.19 267L1583.54 279.15C1582.24 278.85 1580.79 278.6 1579.19 278.4C1577.69 278.2 1576.24 278.1 1574.84 278.1C1570.74 278.1 1566.89 279.25 1563.29 281.55C1559.69 283.75 1556.79 286.9 1554.59 291C1552.49 295 1551.44 299.7 1551.44 305.1V348H1538.24V267.6H1549.04L1550.54 282.3H1551.14C1553.74 277.9 1557.09 274.1 1561.19 270.9C1565.29 267.7 1570.14 266.1 1575.74 266.1ZM1625.77 349.5C1615.77 349.5 1607.77 346.05 1601.77 339.15C1595.77 332.15 1592.77 321.75 1592.77 307.95C1592.77 294.15 1595.77 283.75 1601.77 276.75C1607.87 269.65 1615.92 266.1 1625.92 266.1C1632.12 266.1 1637.17 267.25 1641.07 269.55C1645.07 271.85 1648.32 274.65 1650.82 277.95H1651.72C1651.62 276.65 1651.42 274.75 1651.12 272.25C1650.92 269.65 1650.82 267.6 1650.82 266.1V234H1664.02V348H1653.37L1651.42 337.2H1650.82C1648.42 340.6 1645.22 343.5 1641.22 345.9C1637.22 348.3 1632.07 349.5 1625.77 349.5ZM1627.87 338.55C1636.37 338.55 1642.32 336.25 1645.72 331.65C1649.22 326.95 1650.97 319.9 1650.97 310.5V308.1C1650.97 298.1 1649.32 290.45 1646.02 285.15C1642.72 279.75 1636.62 277.05 1627.72 277.05C1620.62 277.05 1615.27 279.9 1611.67 285.6C1608.17 291.2 1606.42 298.75 1606.42 308.25C1606.42 317.85 1608.17 325.3 1611.67 330.6C1615.27 335.9 1620.67 338.55 1627.87 338.55ZM1741.91 325.8C1741.91 333.6 1739.01 339.5 1733.21 343.5C1727.41 347.5 1719.61 349.5 1709.81 349.5C1704.21 349.5 1699.36 349.05 1695.26 348.15C1691.26 347.25 1687.71 346 1684.61 344.4V332.4C1687.81 334 1691.66 335.5 1696.16 336.9C1700.76 338.2 1705.41 338.85 1710.11 338.85C1716.81 338.85 1721.66 337.8 1724.66 335.7C1727.66 333.5 1729.16 330.6 1729.16 327C1729.16 325 1728.61 323.2 1727.51 321.6C1726.41 320 1724.41 318.4 1721.51 316.8C1718.71 315.2 1714.66 313.4 1709.36 311.4C1704.16 309.4 1699.71 307.4 1696.01 305.4C1692.31 303.4 1689.46 301 1687.46 298.2C1685.46 295.4 1684.46 291.8 1684.46 287.4C1684.46 280.6 1687.21 275.35 1692.71 271.65C1698.31 267.95 1705.61 266.1 1714.61 266.1C1719.51 266.1 1724.06 266.6 1728.26 267.6C1732.56 268.5 1736.56 269.8 1740.26 271.5L1735.76 282C1732.36 280.6 1728.81 279.4 1725.11 278.4C1721.41 277.4 1717.61 276.9 1713.71 276.9C1708.31 276.9 1704.16 277.8 1701.26 279.6C1698.46 281.3 1697.06 283.65 1697.06 286.65C1697.06 288.85 1697.71 290.75 1699.01 292.35C1700.31 293.85 1702.46 295.35 1705.46 296.85C1708.56 298.25 1712.66 299.95 1717.76 301.95C1722.86 303.85 1727.21 305.8 1730.81 307.8C1734.41 309.8 1737.16 312.25 1739.06 315.15C1740.96 317.95 1741.91 321.5 1741.91 325.8Z" fill="#0893D6"/>
<path id="Android development" d="M511.801 149.88C511.801 159.533 509.161 166.813 503.881 171.72C498.655 176.573 491.348 179 481.961 179H466.041V121.88H483.641C489.401 121.88 494.388 122.947 498.601 125.08C502.815 127.213 506.068 130.36 508.361 134.52C510.655 138.627 511.801 143.747 511.801 149.88ZM504.201 150.12C504.201 142.493 502.308 136.92 498.521 133.4C494.788 129.827 489.481 128.04 482.601 128.04H473.241V172.84H481.001C496.468 172.84 504.201 165.267 504.201 150.12ZM540.079 135.32C543.759 135.32 546.905 136.12 549.519 137.72C552.185 139.32 554.212 141.587 555.599 144.52C557.039 147.4 557.759 150.787 557.759 154.68V158.92H528.399C528.505 163.773 529.732 167.48 532.079 170.04C534.479 172.547 537.812 173.8 542.079 173.8C544.799 173.8 547.199 173.56 549.279 173.08C551.412 172.547 553.599 171.8 555.839 170.84V177C553.652 177.96 551.492 178.653 549.359 179.08C547.225 179.56 544.692 179.8 541.759 179.8C537.705 179.8 534.105 178.973 530.959 177.32C527.865 175.667 525.439 173.213 523.679 169.96C521.972 166.653 521.119 162.627 521.119 157.88C521.119 153.187 521.892 149.16 523.439 145.8C525.039 142.44 527.252 139.853 530.079 138.04C532.959 136.227 536.292 135.32 540.079 135.32ZM539.999 141.08C536.639 141.08 533.972 142.173 531.999 144.36C530.079 146.493 528.932 149.48 528.559 153.32H550.399C550.345 149.693 549.492 146.76 547.839 144.52C546.185 142.227 543.572 141.08 539.999 141.08ZM576.553 179L560.312 136.12H567.833L576.953 161.4C577.379 162.573 577.833 163.88 578.313 165.32C578.793 166.76 579.219 168.147 579.593 169.48C579.966 170.76 580.233 171.853 580.393 172.76H580.713C580.926 171.853 581.219 170.733 581.593 169.4C582.019 168.067 582.473 166.68 582.953 165.24C583.486 163.8 583.939 162.52 584.313 161.4L593.433 136.12H600.953L584.633 179H576.553ZM624.298 135.32C627.978 135.32 631.124 136.12 633.738 137.72C636.404 139.32 638.431 141.587 639.818 144.52C641.258 147.4 641.978 150.787 641.978 154.68V158.92H612.618C612.724 163.773 613.951 167.48 616.298 170.04C618.698 172.547 622.031 173.8 626.298 173.8C629.018 173.8 631.418 173.56 633.498 173.08C635.631 172.547 637.818 171.8 640.058 170.84V177C637.871 177.96 635.711 178.653 633.578 179.08C631.444 179.56 628.911 179.8 625.978 179.8C621.924 179.8 618.324 178.973 615.178 177.32C612.084 175.667 609.658 173.213 607.898 169.96C606.191 166.653 605.338 162.627 605.338 157.88C605.338 153.187 606.111 149.16 607.658 145.8C609.258 142.44 611.471 139.853 614.298 138.04C617.178 136.227 620.511 135.32 624.298 135.32ZM624.218 141.08C620.858 141.08 618.191 142.173 616.218 144.36C614.298 146.493 613.151 149.48 612.778 153.32H634.618C634.564 149.693 633.711 146.76 632.058 144.52C630.404 142.227 627.791 141.08 624.218 141.08ZM659.934 179H652.894V118.2H659.934V179ZM710.799 157.48C710.799 164.573 708.985 170.067 705.359 173.96C701.785 177.853 696.932 179.8 690.799 179.8C687.012 179.8 683.625 178.947 680.639 177.24C677.705 175.48 675.385 172.947 673.679 169.64C671.972 166.28 671.119 162.227 671.119 157.48C671.119 150.387 672.905 144.92 676.479 141.08C680.052 137.24 684.905 135.32 691.039 135.32C694.932 135.32 698.345 136.2 701.279 137.96C704.265 139.667 706.585 142.173 708.239 145.48C709.945 148.733 710.799 152.733 710.799 157.48ZM678.399 157.48C678.399 162.547 679.385 166.573 681.359 169.56C683.385 172.493 686.585 173.96 690.959 173.96C695.279 173.96 698.452 172.493 700.479 169.56C702.505 166.573 703.519 162.547 703.519 157.48C703.519 152.413 702.505 148.44 700.479 145.56C698.452 142.68 695.252 141.24 690.879 141.24C686.505 141.24 683.332 142.68 681.359 145.56C679.385 148.44 678.399 152.413 678.399 157.48ZM742.356 135.32C747.636 135.32 751.876 137.16 755.076 140.84C758.33 144.52 759.956 150.067 759.956 157.48C759.956 164.787 758.33 170.333 755.076 174.12C751.876 177.907 747.61 179.8 742.276 179.8C738.97 179.8 736.223 179.187 734.036 177.96C731.903 176.68 730.223 175.213 728.996 173.56H728.516C728.623 174.467 728.73 175.613 728.836 177C728.943 178.387 728.996 179.587 728.996 180.6V198.2H721.956V136.12H727.716L728.676 141.96H728.996C730.276 140.093 731.956 138.52 734.036 137.24C736.116 135.96 738.89 135.32 742.356 135.32ZM741.076 141.24C736.703 141.24 733.61 142.467 731.796 144.92C730.036 147.373 729.103 151.107 728.996 156.12V157.48C728.996 162.76 729.85 166.84 731.556 169.72C733.316 172.547 736.543 173.96 741.236 173.96C743.85 173.96 745.983 173.24 747.636 171.8C749.343 170.36 750.596 168.413 751.396 165.96C752.25 163.453 752.676 160.6 752.676 157.4C752.676 152.493 751.716 148.573 749.796 145.64C747.93 142.707 745.023 141.24 741.076 141.24ZM787.735 135.32C791.415 135.32 794.562 136.12 797.175 137.72C799.842 139.32 801.868 141.587 803.255 144.52C804.695 147.4 805.415 150.787 805.415 154.68V158.92H776.055C776.162 163.773 777.388 167.48 779.735 170.04C782.135 172.547 785.468 173.8 789.735 173.8C792.455 173.8 794.855 173.56 796.935 173.08C799.068 172.547 801.255 171.8 803.495 170.84V177C801.308 177.96 799.148 178.653 797.015 179.08C794.882 179.56 792.348 179.8 789.415 179.8C785.362 179.8 781.762 178.973 778.615 177.32C775.522 175.667 773.095 173.213 771.335 169.96C769.628 166.653 768.775 162.627 768.775 157.88C768.775 153.187 769.548 149.16 771.095 145.8C772.695 142.44 774.908 139.853 777.735 138.04C780.615 136.227 783.948 135.32 787.735 135.32ZM787.655 141.08C784.295 141.08 781.628 142.173 779.655 144.36C777.735 146.493 776.588 149.48 776.215 153.32H798.055C798.002 149.693 797.148 146.76 795.495 144.52C793.842 142.227 791.228 141.08 787.655 141.08ZM836.331 135.32C837.131 135.32 837.985 135.373 838.891 135.48C839.851 135.533 840.678 135.64 841.371 135.8L840.491 142.28C839.798 142.12 839.025 141.987 838.171 141.88C837.371 141.773 836.598 141.72 835.851 141.72C833.665 141.72 831.611 142.333 829.691 143.56C827.771 144.733 826.225 146.413 825.051 148.6C823.931 150.733 823.371 153.24 823.371 156.12V179H816.331V136.12H822.091L822.891 143.96H823.211C824.598 141.613 826.385 139.587 828.571 137.88C830.758 136.173 833.345 135.32 836.331 135.32ZM889.919 141.56H879.119V179H872.079V141.56H864.559V138.28L872.079 135.88V133.4C872.079 127.853 873.306 123.88 875.759 121.48C878.213 119.027 881.626 117.8 885.999 117.8C887.706 117.8 889.253 117.96 890.639 118.28C892.079 118.547 893.306 118.867 894.319 119.24L892.479 124.76C891.626 124.493 890.639 124.227 889.519 123.96C888.399 123.693 887.253 123.56 886.079 123.56C883.733 123.56 881.973 124.36 880.799 125.96C879.679 127.507 879.119 129.96 879.119 133.32V136.12H889.919V141.56ZM934.939 157.48C934.939 164.573 933.126 170.067 929.499 173.96C925.926 177.853 921.073 179.8 914.939 179.8C911.153 179.8 907.766 178.947 904.779 177.24C901.846 175.48 899.526 172.947 897.819 169.64C896.113 166.28 895.259 162.227 895.259 157.48C895.259 150.387 897.046 144.92 900.619 141.08C904.193 137.24 909.046 135.32 915.179 135.32C919.073 135.32 922.486 136.2 925.419 137.96C928.406 139.667 930.726 142.173 932.379 145.48C934.086 148.733 934.939 152.733 934.939 157.48ZM902.539 157.48C902.539 162.547 903.526 166.573 905.499 169.56C907.526 172.493 910.726 173.96 915.099 173.96C919.419 173.96 922.593 172.493 924.619 169.56C926.646 166.573 927.659 162.547 927.659 157.48C927.659 152.413 926.646 148.44 924.619 145.56C922.593 142.68 919.393 141.24 915.019 141.24C910.646 141.24 907.473 142.68 905.499 145.56C903.526 148.44 902.539 152.413 902.539 157.48ZM963.297 179.8C959.51 179.8 956.124 179.027 953.137 177.48C950.204 175.933 947.884 173.533 946.177 170.28C944.524 167.027 943.697 162.867 943.697 157.8C943.697 152.52 944.577 148.227 946.337 144.92C948.097 141.613 950.47 139.187 953.457 137.64C956.497 136.093 959.937 135.32 963.777 135.32C965.964 135.32 968.07 135.56 970.097 136.04C972.124 136.467 973.777 137 975.057 137.64L972.897 143.48C971.617 143 970.124 142.547 968.417 142.12C966.71 141.693 965.11 141.48 963.617 141.48C955.19 141.48 950.977 146.893 950.977 157.72C950.977 162.893 951.99 166.867 954.017 169.64C956.097 172.36 959.164 173.72 963.217 173.72C965.564 173.72 967.617 173.48 969.377 173C971.19 172.52 972.844 171.933 974.337 171.24V177.48C972.897 178.227 971.297 178.787 969.537 179.16C967.83 179.587 965.75 179.8 963.297 179.8ZM1020.37 136.12V179H1014.61L1013.57 173.32H1013.25C1011.87 175.56 1009.95 177.213 1007.49 178.28C1005.04 179.293 1002.43 179.8 999.654 179.8C994.481 179.8 990.588 178.573 987.974 176.12C985.361 173.613 984.054 169.64 984.054 164.2V136.12H991.174V163.72C991.174 170.547 994.348 173.96 1000.69 173.96C1005.44 173.96 1008.72 172.627 1010.53 169.96C1012.4 167.293 1013.33 163.453 1013.33 158.44V136.12H1020.37ZM1061.91 167.16C1061.91 171.32 1060.36 174.467 1057.27 176.6C1054.17 178.733 1050.01 179.8 1044.79 179.8C1041.8 179.8 1039.21 179.56 1037.03 179.08C1034.89 178.6 1033 177.933 1031.35 177.08V170.68C1033.05 171.533 1035.11 172.333 1037.51 173.08C1039.96 173.773 1042.44 174.12 1044.95 174.12C1048.52 174.12 1051.11 173.56 1052.71 172.44C1054.31 171.267 1055.11 169.72 1055.11 167.8C1055.11 166.733 1054.81 165.773 1054.23 164.92C1053.64 164.067 1052.57 163.213 1051.03 162.36C1049.53 161.507 1047.37 160.547 1044.55 159.48C1041.77 158.413 1039.4 157.347 1037.43 156.28C1035.45 155.213 1033.93 153.933 1032.87 152.44C1031.8 150.947 1031.27 149.027 1031.27 146.68C1031.27 143.053 1032.73 140.253 1035.67 138.28C1038.65 136.307 1042.55 135.32 1047.35 135.32C1049.96 135.32 1052.39 135.587 1054.63 136.12C1056.92 136.6 1059.05 137.293 1061.03 138.2L1058.63 143.8C1056.81 143.053 1054.92 142.413 1052.95 141.88C1050.97 141.347 1048.95 141.08 1046.87 141.08C1043.99 141.08 1041.77 141.56 1040.23 142.52C1038.73 143.427 1037.99 144.68 1037.99 146.28C1037.99 147.453 1038.33 148.467 1039.03 149.32C1039.72 150.12 1040.87 150.92 1042.47 151.72C1044.12 152.467 1046.31 153.373 1049.03 154.44C1051.75 155.453 1054.07 156.493 1055.99 157.56C1057.91 158.627 1059.37 159.933 1060.39 161.48C1061.4 162.973 1061.91 164.867 1061.91 167.16ZM1088.83 135.32C1092.51 135.32 1095.66 136.12 1098.27 137.72C1100.94 139.32 1102.96 141.587 1104.35 144.52C1105.79 147.4 1106.51 150.787 1106.51 154.68V158.92H1077.15C1077.26 163.773 1078.48 167.48 1080.83 170.04C1083.23 172.547 1086.56 173.8 1090.83 173.8C1093.55 173.8 1095.95 173.56 1098.03 173.08C1100.16 172.547 1102.35 171.8 1104.59 170.84V177C1102.4 177.96 1100.24 178.653 1098.11 179.08C1095.98 179.56 1093.44 179.8 1090.51 179.8C1086.46 179.8 1082.86 178.973 1079.71 177.32C1076.62 175.667 1074.19 173.213 1072.43 169.96C1070.72 166.653 1069.87 162.627 1069.87 157.88C1069.87 153.187 1070.64 149.16 1072.19 145.8C1073.79 142.44 1076 139.853 1078.83 138.04C1081.71 136.227 1085.04 135.32 1088.83 135.32ZM1088.75 141.08C1085.39 141.08 1082.72 142.173 1080.75 144.36C1078.83 146.493 1077.68 149.48 1077.31 153.32H1099.15C1099.1 149.693 1098.24 146.76 1096.59 144.52C1094.94 142.227 1092.32 141.08 1088.75 141.08ZM1132.63 179.8C1127.29 179.8 1123.03 177.96 1119.83 174.28C1116.63 170.547 1115.03 165 1115.03 157.64C1115.03 150.28 1116.63 144.733 1119.83 141C1123.08 137.213 1127.37 135.32 1132.71 135.32C1136.01 135.32 1138.71 135.933 1140.79 137.16C1142.92 138.387 1144.65 139.88 1145.99 141.64H1146.47C1146.41 140.947 1146.31 139.933 1146.15 138.6C1146.04 137.213 1145.99 136.12 1145.99 135.32V118.2H1153.03V179H1147.35L1146.31 173.24H1145.99C1144.71 175.053 1143 176.6 1140.87 177.88C1138.73 179.16 1135.99 179.8 1132.63 179.8ZM1133.75 173.96C1138.28 173.96 1141.45 172.733 1143.27 170.28C1145.13 167.773 1146.07 164.013 1146.07 159V157.72C1146.07 152.387 1145.19 148.307 1143.43 145.48C1141.67 142.6 1138.41 141.16 1133.67 141.16C1129.88 141.16 1127.03 142.68 1125.11 145.72C1123.24 148.707 1122.31 152.733 1122.31 157.8C1122.31 162.92 1123.24 166.893 1125.11 169.72C1127.03 172.547 1129.91 173.96 1133.75 173.96ZM1207.43 135.32C1208.23 135.32 1209.08 135.373 1209.99 135.48C1210.95 135.533 1211.77 135.64 1212.47 135.8L1211.59 142.28C1210.89 142.12 1210.12 141.987 1209.27 141.88C1208.47 141.773 1207.69 141.72 1206.95 141.72C1204.76 141.72 1202.71 142.333 1200.79 143.56C1198.87 144.733 1197.32 146.413 1196.15 148.6C1195.03 150.733 1194.47 153.24 1194.47 156.12V179H1187.43V136.12H1193.19L1193.99 143.96H1194.31C1195.69 141.613 1197.48 139.587 1199.67 137.88C1201.85 136.173 1204.44 135.32 1207.43 135.32ZM1235.47 135.32C1239.15 135.32 1242.3 136.12 1244.91 137.72C1247.58 139.32 1249.6 141.587 1250.99 144.52C1252.43 147.4 1253.15 150.787 1253.15 154.68V158.92H1223.79C1223.9 163.773 1225.12 167.48 1227.47 170.04C1229.87 172.547 1233.2 173.8 1237.47 173.8C1240.19 173.8 1242.59 173.56 1244.67 173.08C1246.8 172.547 1248.99 171.8 1251.23 170.84V177C1249.04 177.96 1246.88 178.653 1244.75 179.08C1242.62 179.56 1240.08 179.8 1237.15 179.8C1233.1 179.8 1229.5 178.973 1226.35 177.32C1223.26 175.667 1220.83 173.213 1219.07 169.96C1217.36 166.653 1216.51 162.627 1216.51 157.88C1216.51 153.187 1217.28 149.16 1218.83 145.8C1220.43 142.44 1222.64 139.853 1225.47 138.04C1228.35 136.227 1231.68 135.32 1235.47 135.32ZM1235.39 141.08C1232.03 141.08 1229.36 142.173 1227.39 144.36C1225.47 146.493 1224.32 149.48 1223.95 153.32H1245.79C1245.74 149.693 1244.88 146.76 1243.23 144.52C1241.58 142.227 1238.96 141.08 1235.39 141.08ZM1271.94 179L1255.7 136.12H1263.22L1272.34 161.4C1272.77 162.573 1273.22 163.88 1273.7 165.32C1274.18 166.76 1274.61 168.147 1274.98 169.48C1275.36 170.76 1275.62 171.853 1275.78 172.76H1276.1C1276.32 171.853 1276.61 170.733 1276.98 169.4C1277.41 168.067 1277.86 166.68 1278.34 165.24C1278.88 163.8 1279.33 162.52 1279.7 161.4L1288.82 136.12H1296.34L1280.02 179H1271.94ZM1306.73 120.04C1307.79 120.04 1308.73 120.413 1309.53 121.16C1310.38 121.853 1310.81 122.973 1310.81 124.52C1310.81 126.013 1310.38 127.133 1309.53 127.88C1308.73 128.627 1307.79 129 1306.73 129C1305.55 129 1304.57 128.627 1303.77 127.88C1302.97 127.133 1302.57 126.013 1302.57 124.52C1302.57 122.973 1302.97 121.853 1303.77 121.16C1304.57 120.413 1305.55 120.04 1306.73 120.04ZM1310.17 136.12V179H1303.13V136.12H1310.17ZM1340.31 135.32C1343.99 135.32 1347.14 136.12 1349.75 137.72C1352.42 139.32 1354.45 141.587 1355.83 144.52C1357.27 147.4 1357.99 150.787 1357.99 154.68V158.92H1328.63C1328.74 163.773 1329.97 167.48 1332.31 170.04C1334.71 172.547 1338.05 173.8 1342.31 173.8C1345.03 173.8 1347.43 173.56 1349.51 173.08C1351.65 172.547 1353.83 171.8 1356.07 170.84V177C1353.89 177.96 1351.73 178.653 1349.59 179.08C1347.46 179.56 1344.93 179.8 1341.99 179.8C1337.94 179.8 1334.34 178.973 1331.19 177.32C1328.1 175.667 1325.67 173.213 1323.91 169.96C1322.21 166.653 1321.35 162.627 1321.35 157.88C1321.35 153.187 1322.13 149.16 1323.67 145.8C1325.27 142.44 1327.49 139.853 1330.31 138.04C1333.19 136.227 1336.53 135.32 1340.31 135.32ZM1340.23 141.08C1336.87 141.08 1334.21 142.173 1332.23 144.36C1330.31 146.493 1329.17 149.48 1328.79 153.32H1350.63C1350.58 149.693 1349.73 146.76 1348.07 144.52C1346.42 142.227 1343.81 141.08 1340.23 141.08ZM1395.03 154.76C1394.33 152.573 1393.72 150.44 1393.19 148.36C1392.71 146.227 1392.33 144.573 1392.07 143.4H1391.75C1391.53 144.573 1391.19 146.227 1390.71 148.36C1390.23 150.44 1389.61 152.6 1388.87 154.84L1381.19 178.92H1373.19L1361.43 136.04H1368.71L1374.63 158.92C1375.21 161.213 1375.77 163.533 1376.31 165.88C1376.84 168.227 1377.21 170.173 1377.43 171.72H1377.75C1377.96 170.813 1378.2 169.693 1378.47 168.36C1378.79 167.027 1379.13 165.64 1379.51 164.2C1379.88 162.707 1380.25 161.373 1380.63 160.2L1388.23 136.04H1395.91L1403.27 160.2C1403.85 162.013 1404.41 163.987 1404.95 166.12C1405.53 168.253 1405.93 170.093 1406.15 171.64H1406.47C1406.63 170.307 1406.97 168.467 1407.51 166.12C1408.09 163.773 1408.71 161.373 1409.35 158.92L1415.35 136.04H1422.55L1410.63 178.92H1402.39L1395.03 154.76ZM1458.16 167.16C1458.16 171.32 1456.61 174.467 1453.52 176.6C1450.42 178.733 1446.26 179.8 1441.04 179.8C1438.05 179.8 1435.46 179.56 1433.28 179.08C1431.14 178.6 1429.25 177.933 1427.6 177.08V170.68C1429.3 171.533 1431.36 172.333 1433.76 173.08C1436.21 173.773 1438.69 174.12 1441.2 174.12C1444.77 174.12 1447.36 173.56 1448.96 172.44C1450.56 171.267 1451.36 169.72 1451.36 167.8C1451.36 166.733 1451.06 165.773 1450.48 164.92C1449.89 164.067 1448.82 163.213 1447.28 162.36C1445.78 161.507 1443.62 160.547 1440.8 159.48C1438.02 158.413 1435.65 157.347 1433.68 156.28C1431.7 155.213 1430.18 153.933 1429.12 152.44C1428.05 150.947 1427.52 149.027 1427.52 146.68C1427.52 143.053 1428.98 140.253 1431.92 138.28C1434.9 136.307 1438.8 135.32 1443.6 135.32C1446.21 135.32 1448.64 135.587 1450.88 136.12C1453.17 136.6 1455.3 137.293 1457.28 138.2L1454.88 143.8C1453.06 143.053 1451.17 142.413 1449.2 141.88C1447.22 141.347 1445.2 141.08 1443.12 141.08C1440.24 141.08 1438.02 141.56 1436.48 142.52C1434.98 143.427 1434.24 144.68 1434.24 146.28C1434.24 147.453 1434.58 148.467 1435.28 149.32C1435.97 150.12 1437.12 150.92 1438.72 151.72C1440.37 152.467 1442.56 153.373 1445.28 154.44C1448 155.453 1450.32 156.493 1452.24 157.56C1454.16 158.627 1455.62 159.933 1456.64 161.48C1457.65 162.973 1458.16 164.867 1458.16 167.16Z" fill="#9B9B9B"/>
<g id="keyb" filter="url(#filter0_d)">
<g id="Group">
<path id="Vector" d="M678.582 577.379H443.107V547.379C443.107 526.345 425.925 509.218 404.822 509.218H267.02C258.602 509.218 251.798 502.437 251.798 494.046V457.494C251.798 451.172 246.609 446 240.267 446C233.925 446 228.735 451.172 228.735 457.494V494.046C228.735 515.08 245.917 532.207 267.02 532.207H404.707C413.125 532.207 419.929 538.989 419.929 547.379V577.379H183.532C177.189 577.379 172 582.552 172 588.874V834.506C172 840.828 177.189 846 183.532 846H678.467C684.809 846 689.998 840.828 689.998 834.506V588.874C690.113 582.552 684.924 577.379 678.582 577.379ZM667.05 823.011H195.178V600.368H667.05V823.011V823.011Z" fill="#0893D6"/>
<path id="Vector_2" d="M241.074 668.069H257.449C264.829 668.069 270.71 662.092 270.71 654.851V638.529C270.71 631.172 264.714 625.31 257.449 625.31H241.074C233.694 625.31 227.812 631.287 227.812 638.529V654.851C227.812 662.092 233.694 668.069 241.074 668.069Z" fill="#0893D6"/>
<path id="Vector_3" d="M312.8 668.069H329.175C336.555 668.069 342.437 662.092 342.437 654.851V638.529C342.437 631.172 336.44 625.31 329.175 625.31H312.8C305.42 625.31 299.539 631.287 299.539 638.529V654.851C299.539 662.092 305.535 668.069 312.8 668.069Z" fill="#0893D6"/>
<path id="Vector_4" d="M384.527 668.069H400.902C408.282 668.069 414.163 662.092 414.163 654.851V638.529C414.163 631.172 408.167 625.31 400.902 625.31H384.527C377.147 625.31 371.266 631.287 371.266 638.529V654.851C371.266 662.092 377.262 668.069 384.527 668.069Z" fill="#0893D6"/>
<path id="Vector_5" d="M456.368 668.069H472.743C480.124 668.069 486.005 662.092 486.005 654.851V638.529C486.005 631.172 480.008 625.31 472.743 625.31H456.368C448.988 625.31 443.107 631.287 443.107 638.529V654.851C442.992 662.092 448.988 668.069 456.368 668.069Z" fill="#0893D6"/>
<path id="Vector_6" d="M528.095 668.069H544.47C551.85 668.069 557.731 662.092 557.731 654.851V638.529C557.731 631.172 551.735 625.31 544.47 625.31H528.095C520.715 625.31 514.834 631.287 514.834 638.529V654.851C514.718 662.092 520.715 668.069 528.095 668.069Z" fill="#0893D6"/>
<path id="Vector_7" d="M599.822 668.069H616.196C623.577 668.069 629.458 662.092 629.458 654.851V638.529C629.458 631.172 623.461 625.31 616.196 625.31H599.822C592.441 625.31 586.56 631.287 586.56 638.529V654.851C586.445 662.092 592.441 668.069 599.822 668.069Z" fill="#0893D6"/>
<path id="Vector_8" d="M241.074 731.632H257.449C264.829 731.632 270.71 725.655 270.71 718.414V702.092C270.71 694.736 264.714 688.874 257.449 688.874H241.074C233.694 688.874 227.812 694.851 227.812 702.092V718.414C227.812 725.655 233.694 731.632 241.074 731.632Z" fill="#0893D6"/>
<path id="Vector_9" d="M312.8 731.632H329.175C336.555 731.632 342.437 725.655 342.437 718.414V702.092C342.437 694.736 336.44 688.874 329.175 688.874H312.8C305.42 688.874 299.539 694.851 299.539 702.092V718.414C299.539 725.655 305.535 731.632 312.8 731.632Z" fill="#0893D6"/>
<path id="Vector_10" d="M384.527 731.632H400.902C408.282 731.632 414.163 725.655 414.163 718.414V702.092C414.163 694.736 408.167 688.874 400.902 688.874H384.527C377.147 688.874 371.266 694.851 371.266 702.092V718.414C371.266 725.655 377.262 731.632 384.527 731.632Z" fill="#0893D6"/>
<path id="Vector_11" d="M456.368 731.632H472.743C480.124 731.632 486.005 725.655 486.005 718.414V702.092C486.005 694.736 480.008 688.874 472.743 688.874H456.368C448.988 688.874 443.107 694.851 443.107 702.092V718.414C442.992 725.655 448.988 731.632 456.368 731.632Z" fill="#0893D6"/>
<path id="Vector_12" d="M528.095 731.632H544.47C551.85 731.632 557.731 725.655 557.731 718.414V702.092C557.731 694.736 551.735 688.874 544.47 688.874H528.095C520.715 688.874 514.834 694.851 514.834 702.092V718.414C514.718 725.655 520.715 731.632 528.095 731.632Z" fill="#0893D6"/>
<path id="Vector_13" d="M599.822 731.632H616.196C623.577 731.632 629.458 725.655 629.458 718.414V702.092C629.458 694.736 623.461 688.874 616.196 688.874H599.822C592.441 688.874 586.56 694.851 586.56 702.092V718.414C586.445 725.655 592.441 731.632 599.822 731.632Z" fill="#0893D6"/>
<path id="Vector_14" d="M241.074 795.195H257.449C264.829 795.195 270.71 789.218 270.71 781.977V765.655C270.71 758.299 264.714 752.437 257.449 752.437H241.074C233.694 752.437 227.812 758.414 227.812 765.655V781.977C227.812 789.218 233.694 795.195 241.074 795.195Z" fill="#A4C639"/>
<path id="Vector_15" d="M599.822 795.195H616.196C623.577 795.195 629.458 789.218 629.458 781.977V765.655C629.458 758.299 623.461 752.437 616.196 752.437H599.822C592.441 752.437 586.56 758.414 586.56 765.655V781.977C586.445 789.218 592.441 795.195 599.822 795.195Z" fill="#E95420"/>
<path id="Vector_16" d="M312.8 795.195H545.853C553.234 795.195 559.115 789.218 559.115 781.977V765.655C559.115 758.299 553.118 752.437 545.853 752.437H312.8C305.42 752.437 299.539 758.414 299.539 765.655V781.977C299.539 789.218 305.535 795.195 312.8 795.195Z" fill="#0893D6"/>
</g>
</g>
<g id="cof_orange_hex 1" filter="url(#filter1_d)">
<g id="Group_2">
<path id="Vector_17" d="M1727.33 709.595C1727.33 787.874 1663.88 851.33 1585.6 851.33C1507.32 851.33 1443.87 787.874 1443.87 709.595C1443.87 631.321 1507.32 567.867 1585.6 567.867C1663.88 567.867 1727.33 631.32 1727.33 709.595Z" fill="#E95420"/>
<path id="Vector_18" d="M1512.04 709.595C1512.04 719.659 1503.88 727.82 1493.81 727.82C1483.75 727.82 1475.59 719.66 1475.59 709.595C1475.59 699.535 1483.75 691.376 1493.81 691.376C1503.88 691.376 1512.04 699.535 1512.04 709.595ZM1615.72 798.201C1620.75 806.91 1631.89 809.897 1640.6 804.871C1649.32 799.838 1652.31 788.692 1647.27 779.976C1642.24 771.261 1631.1 768.281 1622.39 773.313C1613.67 778.346 1610.68 789.486 1615.72 798.201ZM1647.27 639.219C1652.3 630.502 1649.32 619.359 1640.6 614.332C1631.89 609.3 1620.75 612.286 1615.71 620.999C1610.68 629.714 1613.67 640.856 1622.38 645.888C1631.1 650.92 1642.25 647.934 1647.27 639.219ZM1585.6 657.632C1612.75 657.632 1635.03 678.446 1637.36 704.996L1663.73 704.58C1662.48 684.853 1653.92 667.111 1640.74 654.029C1633.76 656.722 1625.66 656.356 1618.67 652.319C1611.68 648.282 1607.31 641.448 1606.16 634.044C1599.6 632.264 1592.71 631.311 1585.6 631.311C1573.13 631.311 1561.34 634.227 1550.87 639.414L1563.71 662.457C1570.36 659.367 1577.78 657.632 1585.6 657.632ZM1533.63 709.595C1533.63 692.018 1542.37 676.474 1555.73 667.075L1542.19 644.441C1526.5 654.915 1514.82 670.892 1509.89 689.624C1515.73 694.321 1519.46 701.521 1519.46 709.596C1519.46 717.676 1515.72 724.876 1509.89 729.574C1514.82 748.305 1526.5 764.282 1542.19 774.762L1555.73 752.128C1542.37 742.722 1533.63 727.184 1533.63 709.595ZM1585.6 761.568C1577.78 761.568 1570.36 759.834 1563.71 756.738L1550.87 779.781C1561.34 784.972 1573.13 787.885 1585.6 787.885C1592.71 787.885 1599.6 786.939 1606.16 785.156C1607.31 777.747 1611.68 770.913 1618.67 766.883C1625.66 762.846 1633.76 762.479 1640.74 765.172C1653.93 752.084 1662.48 734.342 1663.73 714.615L1637.36 714.206C1635.03 740.749 1612.75 761.568 1585.6 761.568Z" fill="white"/>
</g>
</g>
<g id="linux" filter="url(#filter2_d)">
<g id="Group_3">
<g id="Group_4">
<path id="Vector_19" d="M1231.5 852C1309.65 852 1373 788.648 1373 710.5C1373 632.352 1309.65 569 1231.5 569C1153.35 569 1090 632.352 1090 710.5C1090 788.648 1153.35 852 1231.5 852Z" fill="#F88909"/>
</g>
</g>
<path id="Vector_20" d="M1217.91 660.126C1215.93 660.409 1216.78 662.107 1215.65 662.107C1214.8 662.107 1214.8 659.843 1217.91 660.126ZM1223.85 660.409C1225.55 659.843 1225.83 661.824 1226.68 661.541C1227.53 661.258 1226.68 659.277 1223.85 660.409ZM1286.96 781.533C1281.3 784.363 1273.94 790.589 1271.11 793.419C1269.13 795.4 1260.64 796.249 1255.83 793.985C1250.17 791.155 1253.29 786.627 1244.51 786.344C1240.27 786.344 1236.02 786.344 1231.78 786.344C1228.1 786.344 1224.42 786.627 1220.46 786.627C1207.44 786.627 1206.02 795.117 1197.82 794.834C1192.16 794.551 1185.08 790.023 1172.63 787.476C1163.86 785.778 1155.65 785.212 1153.95 781.533C1152.25 777.854 1156.22 773.326 1156.5 769.647C1156.78 764.553 1152.82 758.044 1155.65 755.214C1158.2 752.95 1163.57 754.648 1166.97 752.667C1170.65 750.686 1172.35 748.988 1172.35 744.177C1173.76 748.705 1172.35 752.667 1169.23 754.648C1167.54 755.78 1163.86 756.346 1161.31 756.063C1159.05 755.78 1157.63 756.346 1157.07 757.195C1156.22 758.327 1156.5 760.308 1157.63 762.855C1158.76 765.402 1159.9 767.1 1159.9 770.213C1159.61 773.326 1156.22 777.005 1156.78 779.835C1157.07 780.967 1157.91 781.816 1160.46 782.382C1164.42 783.514 1171.5 784.646 1178.57 786.344C1186.21 788.325 1194.42 791.721 1199.23 791.155C1214.23 789.174 1205.74 773.043 1203.19 769.364C1190.74 749.554 1182.25 736.536 1175.74 741.63C1174.05 743.045 1174.05 738.234 1174.05 736.536C1174.33 730.027 1177.72 727.763 1179.71 722.669C1183.38 713.047 1186.21 702.293 1191.87 696.633C1196.12 691.256 1202.63 682.2 1204.04 677.672C1202.91 667.484 1202.63 656.73 1202.63 647.108C1202.35 637.203 1204.04 628.147 1215.36 622.204C1218.19 620.789 1221.59 620.223 1225.55 620.223C1232.34 620.223 1239.98 621.921 1244.51 625.6C1252.15 631.26 1256.96 643.429 1256.4 651.919C1255.83 658.711 1257.25 665.503 1259.23 672.861C1261.78 681.351 1265.74 687.294 1272.25 694.369C1279.89 702.576 1286.11 718.707 1287.81 729.178C1289.51 738.8 1287.25 744.743 1285.26 745.026C1282.15 745.592 1280.17 755.497 1270.27 754.931C1264.04 754.648 1263.47 750.969 1261.78 747.856C1258.95 742.762 1256.12 744.46 1254.98 749.554C1254.42 752.101 1254.7 756.063 1255.55 759.176C1257.25 765.402 1256.68 771.062 1255.55 778.137C1253.57 791.721 1264.89 794.268 1272.81 787.759C1280.45 781.533 1282.15 780.401 1291.77 777.005C1306.49 771.911 1301.4 767.666 1293.75 764.836C1286.68 762.572 1286.4 750.686 1288.94 748.422C1289.51 761.157 1296.02 763.138 1298.85 764.836C1310.73 771.911 1294.04 778.137 1286.96 781.533ZM1254.7 744.177C1256.12 742.479 1257.53 742.479 1259.79 742.479C1260.08 734.838 1272.25 735.404 1276.21 738.517C1276.21 736.819 1272.53 735.121 1270.83 734.272C1273.38 725.499 1272.25 722.103 1270.55 713.613C1269.13 707.387 1263.47 698.897 1258.95 696.067C1260.08 697.199 1262.34 700.029 1264.61 704.274C1268.57 711.632 1272.53 722.386 1269.98 731.442C1268.85 734.838 1266.59 735.404 1265.17 735.404C1258.1 736.253 1262.34 727.197 1259.51 715.028C1256.4 701.444 1253 700.312 1252.15 699.18C1248.19 681.351 1243.66 683.049 1242.53 676.54C1241.4 670.597 1247.63 665.786 1239.14 664.088C1236.59 663.522 1232.91 660.975 1231.21 660.692C1229.8 660.409 1228.95 650.787 1234.32 650.504C1239.7 650.221 1240.83 656.73 1239.7 659.277C1238.29 661.824 1239.7 662.673 1242.53 661.824C1244.8 661.258 1243.38 655.315 1243.95 654.466C1242.53 646.259 1239.14 645.127 1235.46 644.561C1221.87 645.693 1228.1 660.409 1226.68 658.994C1224.7 657.013 1219.04 658.994 1219.04 657.579C1219.04 649.938 1216.5 645.41 1213.1 645.41C1209.14 645.41 1207.44 650.787 1207.44 653.9C1207.16 656.73 1209.14 662.956 1210.55 662.673C1211.4 662.39 1213.1 660.409 1211.4 660.409C1210.55 660.409 1209.14 658.428 1209.14 655.881C1209.14 653.334 1209.99 650.787 1213.38 650.787C1217.34 651.07 1217.34 658.428 1216.78 658.994C1215.65 659.843 1213.95 661.541 1213.67 661.824C1212.53 663.805 1209.99 664.371 1209.14 665.22C1207.44 666.918 1207.16 668.899 1208.29 669.748C1212.82 672.295 1211.4 675.125 1217.63 675.408C1221.59 675.691 1224.7 674.842 1227.53 673.993C1229.8 673.427 1236.59 671.729 1238.29 669.182C1238.85 668.05 1239.7 668.05 1240.27 668.333C1241.12 668.899 1241.4 670.597 1238.85 671.446C1235.46 672.295 1231.78 674.276 1228.95 675.408C1225.83 676.54 1224.99 677.106 1222.16 677.672C1215.65 678.804 1210.84 675.408 1215.36 679.653C1216.78 681.068 1218.19 681.917 1221.87 681.917C1230.08 681.634 1239.14 671.729 1239.98 676.257C1240.27 677.106 1237.44 678.521 1235.17 679.37C1227.53 683.049 1222.16 690.69 1217.34 687.86C1212.82 685.596 1208.57 674.559 1208.57 679.653C1208.57 687.294 1198.67 693.803 1203.19 702.293C1200.08 703.142 1193.29 717.575 1192.44 724.933C1191.87 729.178 1192.72 734.555 1191.87 737.385C1190.46 741.63 1183.67 733.423 1185.93 722.952C1186.21 721.254 1185.93 720.688 1185.37 721.537C1182.54 726.348 1184.23 733.14 1186.21 737.668C1187.06 739.649 1189.33 740.498 1191.03 742.479C1194.42 746.441 1208.01 756.346 1210.27 758.893C1213.1 761.723 1212.53 768.515 1206.02 769.081C1209.14 775.024 1212.25 775.59 1212.25 785.778C1215.93 783.797 1214.51 779.552 1212.82 776.722C1211.68 774.741 1210.27 773.892 1210.55 773.609C1210.84 773.326 1212.53 771.628 1213.67 773.043C1217.06 776.722 1223.29 777.288 1230.08 776.722C1236.87 775.873 1243.95 773.609 1247.34 768.232C1249.04 765.685 1249.89 764.836 1250.74 765.402C1251.59 765.968 1251.87 767.666 1251.59 770.496C1251.59 773.609 1250.17 777.005 1249.32 779.552C1248.47 782.665 1248.19 784.646 1251.02 784.646C1251.87 779.269 1253.29 773.609 1253.85 768.232C1254.13 761.723 1249.61 750.12 1254.7 744.177ZM1213.38 655.881C1213.1 657.013 1213.38 657.862 1214.23 657.862C1214.23 657.862 1214.51 657.862 1214.51 657.579C1214.8 655.032 1213.67 653.334 1213.1 653.334C1211.97 653.051 1211.97 654.749 1212.53 654.749C1213.1 654.466 1213.67 655.032 1213.38 655.881ZM1235.46 652.485C1234.32 652.485 1234.61 653.334 1235.17 653.334C1236.02 653.617 1236.59 655.032 1236.87 656.447C1236.87 656.447 1238 656.164 1238 655.881C1238.29 653.617 1236.02 652.485 1235.46 652.485Z" fill="#222222"/>
</g>
</g>
<defs>
<filter id="filter0_d" x="156" y="430" width="572" height="454" filterUnits="userSpaceOnUse" color-interpolation-filters="sRGB">
<feFlood flood-opacity="0" result="BackgroundImageFix"/>
<feColorMatrix in="SourceAlpha" type="matrix" values="0 0 0 0 0 0 0 0 0 0 0 0 0 0 0 0 0 0 127 0"/>
<feOffset dx="11" dy="11"/>
<feGaussianBlur stdDeviation="13.5"/>
<feColorMatrix type="matrix" values="0 0 0 0 0 0 0 0 0 0 0 0 0 0 0 0 0 0 0.5 0"/>
<feBlend mode="normal" in2="BackgroundImageFix" result="effect1_dropShadow"/>
<feBlend mode="normal" in="SourceGraphic" in2="effect1_dropShadow" result="shape"/>
</filter>
<filter id="filter1_d" x="1357" y="481" width="479.197" height="479.197" filterUnits="userSpaceOnUse" color-interpolation-filters="sRGB">
<feFlood flood-opacity="0" result="BackgroundImageFix"/>
<feColorMatrix in="SourceAlpha" type="matrix" values="0 0 0 0 0 0 0 0 0 0 0 0 0 0 0 0 0 0 127 0"/>
<feOffset dx="11" dy="11"/>
<feGaussianBlur stdDeviation="13.5"/>
<feColorMatrix type="matrix" values="0 0 0 0 0 0 0 0 0 0 0 0 0 0 0 0 0 0 0.5 0"/>
<feBlend mode="normal" in2="BackgroundImageFix" result="effect1_dropShadow"/>
<feBlend mode="normal" in="SourceGraphic" in2="effect1_dropShadow" result="shape"/>
</filter>
<filter id="filter2_d" x="1074" y="553" width="337" height="337" filterUnits="userSpaceOnUse" color-interpolation-filters="sRGB">
<feFlood flood-opacity="0" result="BackgroundImageFix"/>
<feColorMatrix in="SourceAlpha" type="matrix" values="0 0 0 0 0 0 0 0 0 0 0 0 0 0 0 0 0 0 127 0"/>
<feOffset dx="11" dy="11"/>
<feGaussianBlur stdDeviation="13.5"/>
<feColorMatrix type="matrix" values="0 0 0 0 0 0 0 0 0 0 0 0 0 0 0 0 0 0 0.5 0"/>
<feBlend mode="normal" in2="BackgroundImageFix" result="effect1_dropShadow"/>
<feBlend mode="normal" in="SourceGraphic" in2="effect1_dropShadow" result="shape"/>
</filter>
<linearGradient id="paint0_linear" x1="948.605" y1="-540" x2="31.2584" y2="1110.2" gradientUnits="userSpaceOnUse">
<stop stop-color="#0B0B0B" stop-opacity="0.01"/>
<stop offset="1"/>
</linearGradient>
</defs>
</svg>
