<svg width="1920" height="1080" viewBox="0 0 1920 1080" fill="none" xmlns="http://www.w3.org/2000/svg">
<g clip-path="url(#clip0_1246_19)">
<path d="M1920 0H0V1080H1920V0Z" fill="url(#paint0_linear_1246_19)" fill-opacity="0.5"/>
<path d="M530.972 161.514C530.972 158.671 530.412 156.485 529.291 154.954C528.198 153.396 526.736 152.316 524.904 151.715C523.073 151.114 521.064 150.813 518.877 150.813H509.242V171.518H518.549C519.943 171.518 521.365 171.381 522.813 171.108C524.262 170.835 525.601 170.343 526.831 169.632C528.089 168.921 529.086 167.924 529.824 166.639C530.59 165.327 530.972 163.619 530.972 161.514ZM528.717 135.52C528.717 132.322 527.72 130.053 525.724 128.714C523.756 127.347 521.064 126.664 517.647 126.664H509.242V144.95H518.344C521.679 144.95 524.235 144.212 526.011 142.736C527.815 141.233 528.717 138.827 528.717 135.52ZM538.475 161.268C538.475 164.329 537.86 166.899 536.63 168.976C535.428 171.053 533.801 172.707 531.751 173.937C529.729 175.167 527.46 176.055 524.945 176.602C522.458 177.121 519.916 177.381 517.319 177.381H502.149V120.924H516.048C518.536 120.924 520.955 121.156 523.305 121.621C525.683 122.058 527.815 122.824 529.701 123.917C531.615 124.983 533.145 126.432 534.293 128.263C535.441 130.094 536.015 132.39 536.015 135.151C536.015 137.584 535.51 139.647 534.498 141.342C533.514 143.009 532.216 144.349 530.603 145.36C529.018 146.371 527.323 147.082 525.519 147.492C527.624 147.82 529.66 148.462 531.628 149.419C533.624 150.348 535.264 151.77 536.548 153.683C537.833 155.569 538.475 158.097 538.475 161.268ZM558.533 134.208V164.794C558.533 167.637 559.121 169.687 560.296 170.944C561.472 172.201 563.303 172.83 565.79 172.83C568.168 172.83 570.41 172.16 572.514 170.821C574.646 169.454 576.3 167.842 577.475 165.983V134.208H584.363V177.381H578.5L577.926 171.559C576.232 173.746 574.141 175.427 571.653 176.602C569.166 177.75 566.651 178.324 564.109 178.324C559.927 178.324 556.798 177.217 554.72 175.003C552.67 172.762 551.645 169.632 551.645 165.614V134.208H558.533ZM622.666 134.208V171.928H634.843V177.381H602.453V171.928H615.778V139.661H602.863V134.208H622.666ZM617.172 113.995C618.703 113.995 619.919 114.46 620.821 115.389C621.751 116.318 622.215 117.453 622.215 118.792C622.215 120.186 621.751 121.361 620.821 122.318C619.919 123.247 618.703 123.712 617.172 123.712C615.724 123.712 614.535 123.247 613.605 122.318C612.676 121.361 612.211 120.186 612.211 118.792C612.211 117.453 612.676 116.318 613.605 115.389C614.535 114.46 615.724 113.995 617.172 113.995ZM666.791 116.824V166.721C666.791 168.853 667.447 170.37 668.759 171.272C670.099 172.147 671.821 172.584 673.925 172.584C675.237 172.584 676.481 172.447 677.656 172.174C678.832 171.901 680.007 171.532 681.182 171.067L683.027 176.11C681.852 176.684 680.39 177.19 678.64 177.627C676.918 178.092 674.964 178.324 672.777 178.324C668.951 178.324 665.848 177.272 663.47 175.167C661.092 173.035 659.903 170.097 659.903 166.352V122.277H646.66V116.824H666.791ZM724.979 115.963L731.867 116.824V177.381H725.84L725.184 171.682C723.572 173.978 721.713 175.659 719.608 176.725C717.531 177.791 715.303 178.324 712.925 178.324C709.181 178.324 706.092 177.381 703.659 175.495C701.227 173.609 699.423 170.985 698.247 167.623C697.072 164.234 696.484 160.311 696.484 155.856C696.484 151.537 697.154 147.683 698.493 144.294C699.833 140.877 701.76 138.199 704.274 136.258C706.816 134.29 709.864 133.306 713.417 133.306C715.905 133.306 718.091 133.743 719.977 134.618C721.863 135.465 723.531 136.723 724.979 138.39V115.963ZM715.221 138.841C711.613 138.841 708.839 140.249 706.898 143.064C704.958 145.879 703.987 150.143 703.987 155.856C703.987 159.573 704.384 162.689 705.176 165.204C705.969 167.719 707.131 169.605 708.661 170.862C710.219 172.119 712.119 172.748 714.36 172.748C716.82 172.748 718.911 172.051 720.633 170.657C722.383 169.263 723.831 167.691 724.979 165.942V144.376C723.804 142.627 722.383 141.274 720.715 140.317C719.048 139.333 717.217 138.841 715.221 138.841ZM828.399 167.951C828.399 169.673 828.686 170.93 829.26 171.723C829.834 172.516 830.722 173.103 831.925 173.486L830.244 178.324C828.385 178.078 826.759 177.49 825.365 176.561C823.971 175.604 822.96 174.169 822.331 172.256C820.773 174.251 818.832 175.768 816.509 176.807C814.186 177.818 811.616 178.324 808.801 178.324C804.482 178.324 801.079 177.108 798.592 174.675C796.105 172.242 794.861 169.017 794.861 164.999C794.861 160.544 796.597 157.127 800.068 154.749C803.539 152.371 808.555 151.182 815.115 151.182H821.47V147.574C821.47 144.458 820.554 142.258 818.723 140.973C816.919 139.661 814.404 139.005 811.179 139.005C809.758 139.005 808.09 139.183 806.177 139.538C804.264 139.866 802.186 140.426 799.945 141.219L798.141 136.012C800.792 135.028 803.28 134.331 805.603 133.921C807.926 133.511 810.14 133.306 812.245 133.306C817.63 133.306 821.661 134.563 824.34 137.078C827.046 139.565 828.399 142.955 828.399 147.246V167.951ZM810.564 173.076C812.696 173.076 814.732 172.543 816.673 171.477C818.614 170.384 820.213 168.88 821.47 166.967V155.856H815.238C810.482 155.856 807.12 156.676 805.152 158.316C803.211 159.956 802.241 162.156 802.241 164.917C802.241 167.596 802.924 169.632 804.291 171.026C805.685 172.393 807.776 173.076 810.564 173.076ZM910.499 172.625C913.806 172.625 916.417 172.01 918.33 170.78C920.271 169.523 921.241 167.855 921.241 165.778C921.241 164.466 920.995 163.332 920.503 162.375C920.038 161.418 919.068 160.557 917.592 159.792C916.116 159.027 913.847 158.261 910.786 157.496C907.807 156.758 905.21 155.911 902.996 154.954C900.809 153.97 899.101 152.699 897.871 151.141C896.668 149.583 896.067 147.56 896.067 145.073C896.067 142.64 896.75 140.549 898.117 138.8C899.511 137.023 901.438 135.67 903.898 134.741C906.358 133.784 909.214 133.306 912.467 133.306C915.938 133.306 918.959 133.771 921.528 134.7C924.125 135.602 926.325 136.723 928.129 138.062L925.095 142.736C923.455 141.615 921.651 140.7 919.683 139.989C917.715 139.251 915.337 138.882 912.549 138.882C909.16 138.882 906.754 139.415 905.333 140.481C903.912 141.52 903.201 142.873 903.201 144.54C903.201 145.797 903.543 146.85 904.226 147.697C904.937 148.517 906.126 149.269 907.793 149.952C909.46 150.608 911.756 151.332 914.681 152.125C917.496 152.863 919.943 153.751 922.02 154.79C924.125 155.829 925.765 157.195 926.94 158.89C928.115 160.585 928.703 162.771 928.703 165.45C928.703 168.511 927.828 170.999 926.079 172.912C924.33 174.798 922.061 176.178 919.273 177.053C916.512 177.9 913.588 178.324 910.499 178.324C906.59 178.324 903.256 177.764 900.495 176.643C897.762 175.495 895.466 174.115 893.607 172.502L897.543 167.951C899.238 169.345 901.178 170.479 903.365 171.354C905.579 172.201 907.957 172.625 910.499 172.625ZM966.842 134.208V171.928H979.019V177.381H946.629V171.928H959.954V139.661H947.039V134.208H966.842ZM961.348 113.995C962.879 113.995 964.095 114.46 964.997 115.389C965.926 116.318 966.391 117.453 966.391 118.792C966.391 120.186 965.926 121.361 964.997 122.318C964.095 123.247 962.879 123.712 961.348 123.712C959.899 123.712 958.71 123.247 957.781 122.318C956.852 121.361 956.387 120.186 956.387 118.792C956.387 117.453 956.852 116.318 957.781 115.389C958.71 114.46 959.899 113.995 961.348 113.995ZM1022.61 133.306C1024.01 133.306 1025.33 133.607 1026.59 134.208C1027.87 134.809 1028.93 135.971 1029.75 137.693C1030.57 139.415 1030.98 141.93 1030.98 145.237V177.381H1024.58V146.344C1024.58 143.638 1024.42 141.684 1024.09 140.481C1023.76 139.278 1022.82 138.677 1021.26 138.677C1019.97 138.677 1018.69 139.087 1017.4 139.907C1016.15 140.7 1014.92 142.012 1013.71 143.843V177.381H1007.28V146.344C1007.28 143.638 1007.11 141.684 1006.79 140.481C1006.46 139.278 1005.51 138.677 1003.96 138.677C1002.62 138.677 1001.32 139.087 1000.06 139.907C998.831 140.7 997.615 142.012 996.412 143.843V177.381H990.057V134.208H995.469L995.879 139.21C997.054 137.543 998.366 136.149 999.815 135.028C1001.29 133.88 1003.11 133.306 1005.27 133.306C1006.91 133.306 1008.45 133.702 1009.9 134.495C1011.35 135.26 1012.42 136.764 1013.1 139.005C1014.27 137.31 1015.6 135.944 1017.08 134.905C1018.55 133.839 1020.4 133.306 1022.61 133.306ZM1062.64 133.306C1066.46 133.306 1069.51 134.235 1071.78 136.094C1074.07 137.953 1075.73 140.577 1076.74 143.966C1077.75 147.328 1078.26 151.264 1078.26 155.774C1078.26 160.12 1077.64 164.001 1076.41 167.418C1075.21 170.807 1073.38 173.472 1070.92 175.413C1068.46 177.354 1065.36 178.324 1061.61 178.324C1056.88 178.324 1053.08 176.657 1050.21 173.322V193.904L1043.32 194.765V134.208H1049.19L1049.76 140.235C1051.35 138.021 1053.23 136.313 1055.42 135.11C1057.63 133.907 1060.04 133.306 1062.64 133.306ZM1061 138.841C1058.62 138.841 1056.51 139.565 1054.68 141.014C1052.88 142.435 1051.39 144.021 1050.21 145.77V167.172C1051.33 168.839 1052.74 170.165 1054.44 171.149C1056.16 172.106 1058.04 172.584 1060.09 172.584C1063.67 172.584 1066.37 171.217 1068.17 168.484C1069.97 165.751 1070.88 161.5 1070.88 155.733C1070.88 151.961 1070.52 148.831 1069.81 146.344C1069.1 143.829 1068.02 141.957 1066.57 140.727C1065.12 139.47 1063.26 138.841 1061 138.841ZM1109.3 116.824V166.721C1109.3 168.853 1109.96 170.37 1111.27 171.272C1112.61 172.147 1114.33 172.584 1116.44 172.584C1117.75 172.584 1118.99 172.447 1120.17 172.174C1121.34 171.901 1122.52 171.532 1123.69 171.067L1125.54 176.11C1124.36 176.684 1122.9 177.19 1121.15 177.627C1119.43 178.092 1117.48 178.324 1115.29 178.324C1111.46 178.324 1108.36 177.272 1105.98 175.167C1103.6 173.035 1102.41 170.097 1102.41 166.352V122.277H1089.17V116.824H1109.3ZM1147.07 158.234C1147.21 161.569 1147.85 164.302 1149 166.434C1150.15 168.539 1151.66 170.097 1153.55 171.108C1155.44 172.092 1157.49 172.584 1159.7 172.584C1161.91 172.584 1163.91 172.256 1165.69 171.6C1167.49 170.944 1169.34 169.974 1171.22 168.689L1174.46 173.24C1172.44 174.825 1170.13 176.069 1167.53 176.971C1164.96 177.873 1162.32 178.324 1159.62 178.324C1155.44 178.324 1151.87 177.381 1148.92 175.495C1145.97 173.609 1143.71 170.985 1142.15 167.623C1140.62 164.234 1139.86 160.311 1139.86 155.856C1139.86 151.483 1140.64 147.601 1142.19 144.212C1143.75 140.823 1145.94 138.158 1148.75 136.217C1151.57 134.276 1154.89 133.306 1158.72 133.306C1162.35 133.306 1165.48 134.167 1168.11 135.889C1170.73 137.584 1172.74 140.016 1174.13 143.187C1175.55 146.33 1176.26 150.089 1176.26 154.462C1176.26 155.2 1176.25 155.897 1176.22 156.553C1176.2 157.182 1176.16 157.742 1176.1 158.234H1147.07ZM1158.8 138.964C1155.6 138.964 1152.92 140.098 1150.76 142.367C1148.63 144.636 1147.41 148.148 1147.11 152.904H1169.62C1169.54 148.285 1168.53 144.813 1166.59 142.49C1164.65 140.139 1162.05 138.964 1158.8 138.964ZM1240 177.381V134.208H1245.86L1246.39 140.194C1248.14 137.98 1250.33 136.285 1252.95 135.11C1255.6 133.907 1258.17 133.306 1260.66 133.306C1264.9 133.306 1267.97 134.427 1269.89 136.668C1271.83 138.909 1272.8 142.025 1272.8 146.016V177.381H1265.91V151.1C1265.91 148.148 1265.74 145.77 1265.42 143.966C1265.09 142.135 1264.41 140.809 1263.37 139.989C1262.33 139.142 1260.72 138.718 1258.53 138.718C1256.83 138.718 1255.24 139.087 1253.73 139.825C1252.26 140.563 1250.93 141.492 1249.75 142.613C1248.61 143.706 1247.65 144.813 1246.88 145.934V177.381H1240ZM1294.58 158.234C1294.71 161.569 1295.36 164.302 1296.5 166.434C1297.65 168.539 1299.17 170.097 1301.05 171.108C1302.94 172.092 1304.99 172.584 1307.2 172.584C1309.42 172.584 1311.41 172.256 1313.19 171.6C1314.99 170.944 1316.84 169.974 1318.73 168.689L1321.96 173.24C1319.94 174.825 1317.63 176.069 1315.04 176.971C1312.47 177.873 1309.83 178.324 1307.12 178.324C1302.94 178.324 1299.37 177.381 1296.42 175.495C1293.47 173.609 1291.21 170.985 1289.66 167.623C1288.13 164.234 1287.36 160.311 1287.36 155.856C1287.36 151.483 1288.14 147.601 1289.7 144.212C1291.26 140.823 1293.44 138.158 1296.26 136.217C1299.07 134.276 1302.39 133.306 1306.22 133.306C1309.86 133.306 1312.99 134.167 1315.61 135.889C1318.23 137.584 1320.24 140.016 1321.64 143.187C1323.06 146.33 1323.77 150.089 1323.77 154.462C1323.77 155.2 1323.76 155.897 1323.73 156.553C1323.7 157.182 1323.66 157.742 1323.6 158.234H1294.58ZM1306.3 138.964C1303.1 138.964 1300.43 140.098 1298.27 142.367C1296.13 144.636 1294.92 148.148 1294.62 152.904H1317.13C1317.04 148.285 1316.03 144.813 1314.09 142.49C1312.15 140.139 1309.56 138.964 1306.3 138.964ZM1372.61 175.208C1371.13 176.192 1369.34 176.957 1367.24 177.504C1365.13 178.051 1363.07 178.324 1361.05 178.324C1356.4 178.324 1352.82 177.108 1350.3 174.675C1347.79 172.242 1346.53 169.113 1346.53 165.286V139.538H1336.61V134.208H1346.53V124.409L1353.42 123.589V134.208H1368.34L1367.52 139.538H1353.42V165.204C1353.42 167.609 1354.05 169.441 1355.31 170.698C1356.59 171.955 1358.71 172.584 1361.66 172.584C1363.27 172.584 1364.76 172.393 1366.13 172.01C1367.5 171.627 1368.77 171.135 1369.94 170.534L1372.61 175.208ZM1407.02 172.379C1409.18 172.379 1411.19 172.024 1413.04 171.313C1414.93 170.602 1416.67 169.7 1418.25 168.607L1421.61 173.117C1419.73 174.73 1417.46 176.001 1414.81 176.93C1412.16 177.859 1409.56 178.324 1407.02 178.324C1402.73 178.324 1399.06 177.408 1396.03 175.577C1393.02 173.718 1390.73 171.122 1389.14 167.787C1387.56 164.425 1386.76 160.489 1386.76 155.979C1386.76 151.66 1387.56 147.793 1389.14 144.376C1390.75 140.932 1393.06 138.226 1396.07 136.258C1399.1 134.29 1402.78 133.306 1407.1 133.306C1409.86 133.306 1412.44 133.73 1414.85 134.577C1417.28 135.397 1419.51 136.641 1421.53 138.308L1418.17 142.9C1416.34 141.615 1414.49 140.659 1412.63 140.03C1410.8 139.374 1408.93 139.046 1407.02 139.046C1403.3 139.046 1400.24 140.44 1397.83 143.228C1395.43 146.016 1394.22 150.266 1394.22 155.979C1394.22 159.806 1394.77 162.935 1395.86 165.368C1396.99 167.773 1398.5 169.55 1400.42 170.698C1402.36 171.819 1404.56 172.379 1407.02 172.379ZM1467.58 167.951C1467.58 169.673 1467.87 170.93 1468.44 171.723C1469.02 172.516 1469.91 173.103 1471.11 173.486L1469.43 178.324C1467.57 178.078 1465.94 177.49 1464.55 176.561C1463.15 175.604 1462.14 174.169 1461.51 172.256C1459.96 174.251 1458.02 175.768 1455.69 176.807C1453.37 177.818 1450.8 178.324 1447.98 178.324C1443.67 178.324 1440.26 177.108 1437.78 174.675C1435.29 172.242 1434.04 169.017 1434.04 164.999C1434.04 160.544 1435.78 157.127 1439.25 154.749C1442.72 152.371 1447.74 151.182 1454.3 151.182H1460.65V147.574C1460.65 144.458 1459.74 142.258 1457.91 140.973C1456.1 139.661 1453.59 139.005 1450.36 139.005C1448.94 139.005 1447.27 139.183 1445.36 139.538C1443.45 139.866 1441.37 140.426 1439.13 141.219L1437.32 136.012C1439.98 135.028 1442.46 134.331 1444.79 133.921C1447.11 133.511 1449.32 133.306 1451.43 133.306C1456.81 133.306 1460.85 134.563 1463.52 137.078C1466.23 139.565 1467.58 142.955 1467.58 147.246V167.951ZM1449.75 173.076C1451.88 173.076 1453.92 172.543 1455.86 171.477C1457.8 170.384 1459.4 168.88 1460.65 166.967V155.856H1454.42C1449.67 155.856 1446.3 156.676 1444.34 158.316C1442.4 159.956 1441.42 162.156 1441.42 164.917C1441.42 167.596 1442.11 169.632 1443.47 171.026C1444.87 172.393 1446.96 173.076 1449.75 173.076ZM1520.11 175.208C1518.64 176.192 1516.85 176.957 1514.74 177.504C1512.64 178.051 1510.57 178.324 1508.55 178.324C1503.9 178.324 1500.32 177.108 1497.81 174.675C1495.29 172.242 1494.04 169.113 1494.04 165.286V139.538H1484.11V134.208H1494.04V124.409L1500.92 123.589V134.208H1515.85L1515.03 139.538H1500.92V165.204C1500.92 167.609 1501.55 169.441 1502.81 170.698C1504.1 171.955 1506.21 172.584 1509.17 172.584C1510.78 172.584 1512.27 172.393 1513.63 172.01C1515 171.627 1516.27 171.135 1517.45 170.534L1520.11 175.208Z" fill="#9CC1E4"/>
<path d="M422.157 322.019C424.317 322.019 426.326 321.664 428.184 320.953C430.07 320.242 431.806 319.34 433.391 318.247L436.753 322.757C434.867 324.37 432.599 325.641 429.947 326.57C427.296 327.499 424.699 327.964 422.157 327.964C417.866 327.964 414.203 327.048 411.169 325.217C408.163 323.358 405.867 320.762 404.281 317.427C402.696 314.065 401.903 310.129 401.903 305.619C401.903 301.3 402.696 297.433 404.281 294.016C405.894 290.572 408.204 287.866 411.21 285.898C414.244 283.93 417.921 282.946 422.239 282.946C425 282.946 427.583 283.37 429.988 284.217C432.421 285.037 434.649 286.281 436.671 287.948L433.309 292.54C431.478 291.255 429.633 290.299 427.774 289.67C425.943 289.014 424.071 288.686 422.157 288.686C418.44 288.686 415.379 290.08 412.973 292.868C410.568 295.656 409.365 299.906 409.365 305.619C409.365 309.446 409.912 312.575 411.005 315.008C412.126 317.413 413.643 319.19 415.556 320.338C417.497 321.459 419.697 322.019 422.157 322.019ZM468.619 266.464V316.361C468.619 318.493 469.275 320.01 470.587 320.912C471.927 321.787 473.649 322.224 475.753 322.224C477.065 322.224 478.309 322.087 479.484 321.814C480.66 321.541 481.835 321.172 483.01 320.707L484.855 325.75C483.68 326.324 482.218 326.83 480.468 327.267C478.746 327.732 476.792 327.964 474.605 327.964C470.779 327.964 467.676 326.912 465.298 324.807C462.92 322.675 461.731 319.737 461.731 315.992V271.917H448.488V266.464H468.619ZM522.83 283.848V321.568H535.007V327.021H502.617V321.568H515.942V289.301H503.027V283.848H522.83ZM517.336 263.635C518.867 263.635 520.083 264.1 520.985 265.029C521.915 265.958 522.379 267.093 522.379 268.432C522.379 269.826 521.915 271.001 520.985 271.958C520.083 272.887 518.867 273.352 517.336 273.352C515.888 273.352 514.699 272.887 513.769 271.958C512.84 271.001 512.375 269.826 512.375 268.432C512.375 267.093 512.84 265.958 513.769 265.029C514.699 264.1 515.888 263.635 517.336 263.635ZM555.557 307.874C555.694 311.209 556.336 313.942 557.484 316.074C558.632 318.179 560.149 319.737 562.035 320.748C563.921 321.732 565.971 322.224 568.185 322.224C570.399 322.224 572.395 321.896 574.171 321.24C575.975 320.584 577.82 319.614 579.706 318.329L582.945 322.88C580.923 324.465 578.613 325.709 576.016 326.611C573.447 327.513 570.809 327.964 568.103 327.964C563.921 327.964 560.354 327.021 557.402 325.135C554.45 323.249 552.195 320.625 550.637 317.263C549.107 313.874 548.341 309.951 548.341 305.496C548.341 301.123 549.12 297.241 550.678 293.852C552.236 290.463 554.423 287.798 557.238 285.857C560.054 283.916 563.375 282.946 567.201 282.946C570.837 282.946 573.966 283.807 576.59 285.529C579.214 287.224 581.223 289.656 582.617 292.827C584.039 295.97 584.749 299.729 584.749 304.102C584.749 304.84 584.736 305.537 584.708 306.193C584.681 306.822 584.64 307.382 584.585 307.874H555.557ZM567.283 288.604C564.085 288.604 561.407 289.738 559.247 292.007C557.115 294.276 555.899 297.788 555.598 302.544H578.107C578.025 297.925 577.014 294.453 575.073 292.13C573.133 289.779 570.536 288.604 567.283 288.604ZM599.313 327.021V283.848H605.176L605.709 289.834C607.459 287.62 609.645 285.925 612.269 284.75C614.921 283.547 617.49 282.946 619.977 282.946C624.214 282.946 627.289 284.067 629.202 286.308C631.143 288.549 632.113 291.665 632.113 295.656V327.021H625.225V300.74C625.225 297.788 625.061 295.41 624.733 293.606C624.405 291.775 623.722 290.449 622.683 289.629C621.645 288.782 620.032 288.358 617.845 288.358C616.151 288.358 614.552 288.727 613.048 289.465C611.572 290.203 610.247 291.132 609.071 292.253C607.923 293.346 606.967 294.453 606.201 295.574V327.021H599.313ZM682.757 324.848C681.281 325.832 679.491 326.597 677.386 327.144C675.282 327.691 673.218 327.964 671.195 327.964C666.549 327.964 662.968 326.748 660.453 324.315C657.939 321.882 656.681 318.753 656.681 314.926V289.178H646.759V283.848H656.681V274.049L663.569 273.229V283.848H678.493L677.673 289.178H663.569V314.844C663.569 317.249 664.198 319.081 665.455 320.338C666.74 321.595 668.858 322.224 671.81 322.224C673.423 322.224 674.913 322.033 676.279 321.65C677.646 321.267 678.917 320.775 680.092 320.174L682.757 324.848ZM777.731 317.591C777.731 319.313 778.018 320.57 778.592 321.363C779.166 322.156 780.055 322.743 781.257 323.126L779.576 327.964C777.718 327.718 776.091 327.13 774.697 326.201C773.303 325.244 772.292 323.809 771.663 321.896C770.105 323.891 768.165 325.408 765.841 326.447C763.518 327.458 760.949 327.964 758.133 327.964C753.815 327.964 750.412 326.748 747.924 324.315C745.437 321.882 744.193 318.657 744.193 314.639C744.193 310.184 745.929 306.767 749.4 304.389C752.872 302.011 757.887 300.822 764.447 300.822H770.802V297.214C770.802 294.098 769.887 291.898 768.055 290.613C766.251 289.301 763.737 288.645 760.511 288.645C759.09 288.645 757.423 288.823 755.509 289.178C753.596 289.506 751.519 290.066 749.277 290.859L747.473 285.652C750.125 284.668 752.612 283.971 754.935 283.561C757.259 283.151 759.473 282.946 761.577 282.946C766.962 282.946 770.994 284.203 773.672 286.718C776.378 289.205 777.731 292.595 777.731 296.886V317.591ZM759.896 322.716C762.028 322.716 764.065 322.183 766.005 321.117C767.946 320.024 769.545 318.52 770.802 316.607V305.496H764.57C759.814 305.496 756.452 306.316 754.484 307.956C752.544 309.596 751.573 311.796 751.573 314.557C751.573 317.236 752.257 319.272 753.623 320.666C755.017 322.033 757.108 322.716 759.896 322.716ZM795.985 327.021V283.848H801.848L802.381 289.834C804.13 287.62 806.317 285.925 808.941 284.75C811.592 283.547 814.162 282.946 816.649 282.946C820.886 282.946 823.961 284.067 825.874 286.308C827.815 288.549 828.785 291.665 828.785 295.656V327.021H821.897V300.74C821.897 297.788 821.733 295.41 821.405 293.606C821.077 291.775 820.394 290.449 819.355 289.629C818.316 288.782 816.704 288.358 814.517 288.358C812.822 288.358 811.223 288.727 809.72 289.465C808.244 290.203 806.918 291.132 805.743 292.253C804.595 293.346 803.638 294.453 802.873 295.574V327.021H795.985ZM870.983 265.603L877.871 266.464V327.021H871.844L871.188 321.322C869.575 323.618 867.717 325.299 865.612 326.365C863.535 327.431 861.307 327.964 858.929 327.964C855.184 327.964 852.096 327.021 849.663 325.135C847.23 323.249 845.426 320.625 844.251 317.263C843.076 313.874 842.488 309.951 842.488 305.496C842.488 301.177 843.158 297.323 844.497 293.934C845.836 290.517 847.763 287.839 850.278 285.898C852.82 283.93 855.868 282.946 859.421 282.946C861.908 282.946 864.095 283.383 865.981 284.258C867.867 285.105 869.534 286.363 870.983 288.03V265.603ZM861.225 288.481C857.617 288.481 854.843 289.889 852.902 292.704C850.961 295.519 849.991 299.783 849.991 305.496C849.991 309.213 850.387 312.329 851.18 314.844C851.973 317.359 853.134 319.245 854.665 320.502C856.223 321.759 858.123 322.388 860.364 322.388C862.824 322.388 864.915 321.691 866.637 320.297C868.386 318.903 869.835 317.331 870.983 315.582V294.016C869.808 292.267 868.386 290.914 866.719 289.957C865.052 288.973 863.22 288.481 861.225 288.481ZM958.167 322.265C961.474 322.265 964.085 321.65 965.998 320.42C967.939 319.163 968.909 317.495 968.909 315.418C968.909 314.106 968.663 312.972 968.171 312.015C967.706 311.058 966.736 310.197 965.26 309.432C963.784 308.667 961.515 307.901 958.454 307.136C955.475 306.398 952.878 305.551 950.664 304.594C948.477 303.61 946.769 302.339 945.539 300.781C944.336 299.223 943.735 297.2 943.735 294.713C943.735 292.28 944.418 290.189 945.785 288.44C947.179 286.663 949.106 285.31 951.566 284.381C954.026 283.424 956.882 282.946 960.135 282.946C963.606 282.946 966.627 283.411 969.196 284.34C971.793 285.242 973.993 286.363 975.797 287.702L972.763 292.376C971.123 291.255 969.319 290.34 967.351 289.629C965.383 288.891 963.005 288.522 960.217 288.522C956.828 288.522 954.422 289.055 953.001 290.121C951.58 291.16 950.869 292.513 950.869 294.18C950.869 295.437 951.211 296.49 951.894 297.337C952.605 298.157 953.794 298.909 955.461 299.592C957.128 300.248 959.424 300.972 962.349 301.765C965.164 302.503 967.611 303.391 969.688 304.43C971.793 305.469 973.433 306.835 974.608 308.53C975.783 310.225 976.371 312.411 976.371 315.09C976.371 318.151 975.496 320.639 973.747 322.552C971.998 324.438 969.729 325.818 966.941 326.693C964.18 327.54 961.256 327.964 958.167 327.964C954.258 327.964 950.924 327.404 948.163 326.283C945.43 325.135 943.134 323.755 941.275 322.142L945.211 317.591C946.906 318.985 948.846 320.119 951.033 320.994C953.247 321.841 955.625 322.265 958.167 322.265ZM998.069 307.874C998.206 311.209 998.848 313.942 999.996 316.074C1001.14 318.179 1002.66 319.737 1004.55 320.748C1006.43 321.732 1008.48 322.224 1010.7 322.224C1012.91 322.224 1014.91 321.896 1016.68 321.24C1018.49 320.584 1020.33 319.614 1022.22 318.329L1025.46 322.88C1023.43 324.465 1021.12 325.709 1018.53 326.611C1015.96 327.513 1013.32 327.964 1010.62 327.964C1006.43 327.964 1002.87 327.021 999.914 325.135C996.962 323.249 994.707 320.625 993.149 317.263C991.618 313.874 990.853 309.951 990.853 305.496C990.853 301.123 991.632 297.241 993.19 293.852C994.748 290.463 996.935 287.798 999.75 285.857C1002.57 283.916 1005.89 282.946 1009.71 282.946C1013.35 282.946 1016.48 283.807 1019.1 285.529C1021.73 287.224 1023.74 289.656 1025.13 292.827C1026.55 295.97 1027.26 299.729 1027.26 304.102C1027.26 304.84 1027.25 305.537 1027.22 306.193C1027.19 306.822 1027.15 307.382 1027.1 307.874H998.069ZM1009.8 288.604C1006.6 288.604 1003.92 289.738 1001.76 292.007C999.627 294.276 998.411 297.788 998.11 302.544H1020.62C1020.54 297.925 1019.53 294.453 1017.59 292.13C1015.64 289.779 1013.05 288.604 1009.8 288.604ZM1042.23 327.021V321.732H1048.96V289.137H1042.23V283.848H1054.21L1055.48 294.057C1057.15 290.504 1059.17 287.757 1061.55 285.816C1063.92 283.875 1067.07 282.905 1070.98 282.905C1072.18 282.905 1073.24 283.001 1074.17 283.192C1075.13 283.356 1076.1 283.575 1077.08 283.848L1075.08 289.998C1074.17 289.752 1073.35 289.574 1072.62 289.465C1071.88 289.328 1071.03 289.26 1070.07 289.26C1066.77 289.26 1063.92 290.435 1061.55 292.786C1059.17 295.137 1057.27 298.69 1055.85 303.446V321.732H1064.62V327.021H1042.23ZM1070.44 298.444V289.055L1071.14 283.848H1077.08L1076.1 298.444H1070.44ZM1126.99 283.848L1111.29 327.021H1103.29L1087.71 283.848H1095.01L1107.52 320.748L1119.86 283.848H1126.99ZM1145.57 307.874C1145.71 311.209 1146.35 313.942 1147.5 316.074C1148.65 318.179 1150.16 319.737 1152.05 320.748C1153.94 321.732 1155.99 322.224 1158.2 322.224C1160.41 322.224 1162.41 321.896 1164.19 321.24C1165.99 320.584 1167.84 319.614 1169.72 318.329L1172.96 322.88C1170.94 324.465 1168.63 325.709 1166.03 326.611C1163.46 327.513 1160.82 327.964 1158.12 327.964C1153.94 327.964 1150.37 327.021 1147.42 325.135C1144.47 323.249 1142.21 320.625 1140.65 317.263C1139.12 313.874 1138.36 309.951 1138.36 305.496C1138.36 301.123 1139.14 297.241 1140.69 293.852C1142.25 290.463 1144.44 287.798 1147.25 285.857C1150.07 283.916 1153.39 282.946 1157.22 282.946C1160.85 282.946 1163.98 283.807 1166.61 285.529C1169.23 287.224 1171.24 289.656 1172.63 292.827C1174.05 295.97 1174.76 299.729 1174.76 304.102C1174.76 304.84 1174.75 305.537 1174.72 306.193C1174.7 306.822 1174.66 307.382 1174.6 307.874H1145.57ZM1157.3 288.604C1154.1 288.604 1151.42 289.738 1149.26 292.007C1147.13 294.276 1145.91 297.788 1145.61 302.544H1168.12C1168.04 297.925 1167.03 294.453 1165.09 292.13C1163.15 289.779 1160.55 288.604 1157.3 288.604ZM1189.74 327.021V321.732H1196.46V289.137H1189.74V283.848H1201.71L1202.98 294.057C1204.65 290.504 1206.67 287.757 1209.05 285.816C1211.43 283.875 1214.57 282.905 1218.48 282.905C1219.68 282.905 1220.75 283.001 1221.68 283.192C1222.63 283.356 1223.6 283.575 1224.59 283.848L1222.58 289.998C1221.68 289.752 1220.86 289.574 1220.12 289.465C1219.38 289.328 1218.53 289.26 1217.58 289.26C1214.27 289.26 1211.43 290.435 1209.05 292.786C1206.67 295.137 1204.77 298.69 1203.35 303.446V321.732H1212.12V327.021H1189.74ZM1217.95 298.444V289.055L1218.64 283.848H1224.59L1223.6 298.444H1217.95ZM1309.52 283.848V321.568H1321.69V327.021H1289.3V321.568H1302.63V289.301H1289.71V283.848H1309.52ZM1304.02 263.635C1305.55 263.635 1306.77 264.1 1307.67 265.029C1308.6 265.958 1309.07 267.093 1309.07 268.432C1309.07 269.826 1308.6 271.001 1307.67 271.958C1306.77 272.887 1305.55 273.352 1304.02 273.352C1302.58 273.352 1301.39 272.887 1300.46 271.958C1299.53 271.001 1299.06 269.826 1299.06 268.432C1299.06 267.093 1299.53 265.958 1300.46 265.029C1301.39 264.1 1302.58 263.635 1304.02 263.635ZM1336.83 327.021V283.848H1342.7L1343.23 289.834C1344.98 287.62 1347.16 285.925 1349.79 284.75C1352.44 283.547 1355.01 282.946 1357.5 282.946C1361.73 282.946 1364.81 284.067 1366.72 286.308C1368.66 288.549 1369.63 291.665 1369.63 295.656V327.021H1362.74V300.74C1362.74 297.788 1362.58 295.41 1362.25 293.606C1361.92 291.775 1361.24 290.449 1360.2 289.629C1359.16 288.782 1357.55 288.358 1355.36 288.358C1353.67 288.358 1352.07 288.727 1350.57 289.465C1349.09 290.203 1347.77 291.132 1346.59 292.253C1345.44 293.346 1344.49 294.453 1343.72 295.574V327.021H1336.83ZM1471 286.39C1471 289.205 1470.39 291.665 1469.16 293.77C1467.96 295.875 1466.32 297.61 1464.24 298.977C1462.16 300.344 1459.82 301.341 1457.23 301.97L1473.95 327.021H1465.43L1450.01 302.79H1442.38V327.021H1435.25V270.564H1449.76C1456.73 270.564 1462.01 271.903 1465.59 274.582C1469.2 277.233 1471 281.169 1471 286.39ZM1463.38 286.39C1463.38 282.755 1462.34 280.158 1460.26 278.6C1458.18 277.015 1454.96 276.222 1450.58 276.222H1442.38V297.214H1450.58C1454.63 297.214 1457.77 296.394 1460.01 294.754C1462.26 293.087 1463.38 290.299 1463.38 286.39ZM1491.22 283.848V314.434C1491.22 317.277 1491.81 319.327 1492.99 320.584C1494.16 321.841 1495.99 322.47 1498.48 322.47C1500.86 322.47 1503.1 321.8 1505.21 320.461C1507.34 319.094 1508.99 317.482 1510.17 315.623V283.848H1517.05V327.021H1511.19L1510.62 321.199C1508.92 323.386 1506.83 325.067 1504.34 326.242C1501.86 327.39 1499.34 327.964 1496.8 327.964C1492.62 327.964 1489.49 326.857 1487.41 324.643C1485.36 322.402 1484.34 319.272 1484.34 315.254V283.848H1491.22ZM1548.18 322.265C1551.49 322.265 1554.1 321.65 1556.01 320.42C1557.95 319.163 1558.92 317.495 1558.92 315.418C1558.92 314.106 1558.68 312.972 1558.19 312.015C1557.72 311.058 1556.75 310.197 1555.28 309.432C1553.8 308.667 1551.53 307.901 1548.47 307.136C1545.49 306.398 1542.89 305.551 1540.68 304.594C1538.49 303.61 1536.78 302.339 1535.55 300.781C1534.35 299.223 1533.75 297.2 1533.75 294.713C1533.75 292.28 1534.43 290.189 1535.8 288.44C1537.19 286.663 1539.12 285.31 1541.58 284.381C1544.04 283.424 1546.9 282.946 1550.15 282.946C1553.62 282.946 1556.64 283.411 1559.21 284.34C1561.81 285.242 1564.01 286.363 1565.81 287.702L1562.78 292.376C1561.14 291.255 1559.33 290.34 1557.37 289.629C1555.4 288.891 1553.02 288.522 1550.23 288.522C1546.84 288.522 1544.44 289.055 1543.02 290.121C1541.6 291.16 1540.88 292.513 1540.88 294.18C1540.88 295.437 1541.23 296.49 1541.91 297.337C1542.62 298.157 1543.81 298.909 1545.48 299.592C1547.14 300.248 1549.44 300.972 1552.36 301.765C1555.18 302.503 1557.63 303.391 1559.7 304.43C1561.81 305.469 1563.45 306.835 1564.62 308.53C1565.8 310.225 1566.39 312.411 1566.39 315.09C1566.39 318.151 1565.51 320.639 1563.76 322.552C1562.01 324.438 1559.74 325.818 1556.96 326.693C1554.2 327.54 1551.27 327.964 1548.18 327.964C1544.27 327.964 1540.94 327.404 1538.18 326.283C1535.45 325.135 1533.15 323.755 1531.29 322.142L1535.23 317.591C1536.92 318.985 1538.86 320.119 1541.05 320.994C1543.26 321.841 1545.64 322.265 1548.18 322.265ZM1616.95 324.848C1615.47 325.832 1613.68 326.597 1611.58 327.144C1609.47 327.691 1607.41 327.964 1605.39 327.964C1600.74 327.964 1597.16 326.748 1594.64 324.315C1592.13 321.882 1590.87 318.753 1590.87 314.926V289.178H1580.95V283.848H1590.87V274.049L1597.76 273.229V283.848H1612.68L1611.86 289.178H1597.76V314.844C1597.76 317.249 1598.39 319.081 1599.65 320.338C1600.93 321.595 1603.05 322.224 1606 322.224C1607.61 322.224 1609.1 322.033 1610.47 321.65C1611.84 321.267 1613.11 320.775 1614.28 320.174L1616.95 324.848Z" fill="white"/>
<path d="M1760.21 814.149L1744.99 804.719C1744.86 803.235 1744.71 801.755 1744.56 800.281L1757.66 788.077C1758.99 786.836 1759.59 784.998 1759.23 783.223C1758.88 781.438 1757.63 779.968 1755.92 779.34L1739.18 773.099C1738.76 771.65 1738.32 770.211 1737.87 768.766L1748.3 754.273C1749.37 752.8 1749.59 750.883 1748.89 749.211C1748.2 747.537 1746.68 746.337 1744.91 746.043L1727.26 743.172C1726.57 741.834 1725.86 740.516 1725.14 739.219L1732.56 722.924C1733.32 721.267 1733.16 719.353 1732.15 717.828C1731.14 716.316 1729.43 715.432 1727.6 715.501L1709.68 716.125C1708.75 714.967 1707.81 713.82 1706.85 712.693L1710.98 695.254C1711.39 693.482 1710.87 691.613 1709.58 690.331C1708.3 689.048 1706.44 688.517 1704.66 688.933L1687.22 693.059C1686.09 692.102 1684.94 691.156 1683.78 690.23L1684.41 672.306C1684.47 670.492 1683.59 668.769 1682.08 667.764C1680.56 666.751 1678.65 666.599 1676.98 667.351L1660.72 674.771C1659.41 674.049 1658.09 673.335 1656.77 672.645L1653.89 654.998C1653.6 653.209 1652.4 651.69 1650.72 651.011C1649.05 650.314 1647.12 650.539 1645.66 651.6L1631.17 662.036C1629.74 661.582 1628.3 661.145 1626.87 660.729L1620.63 643.983C1619.99 642.277 1618.52 641.026 1616.75 640.672C1614.96 640.322 1613.14 640.915 1611.89 642.239L1599.69 655.345C1598.21 655.182 1596.73 655.033 1595.25 654.911L1585.82 639.656C1584.87 638.114 1583.18 637.174 1581.35 637.174C1579.52 637.174 1577.85 638.114 1576.91 639.656L1567.48 654.911C1566 655.033 1564.51 655.182 1563.04 655.345L1550.84 642.239C1549.6 640.915 1547.76 640.322 1545.98 640.672C1544.2 641.029 1542.73 642.277 1542.1 643.983L1535.86 660.729C1534.41 661.145 1532.98 661.585 1531.56 662.036L1517.07 651.6C1515.59 650.536 1513.67 650.311 1512.01 651.011C1510.33 651.704 1509.13 653.223 1508.84 654.998L1505.96 672.645C1504.63 673.335 1503.31 674.046 1502.01 674.771L1485.75 667.351C1484.09 666.595 1482.18 666.751 1480.65 667.764C1479.14 668.769 1478.25 670.492 1478.32 672.306L1478.95 690.23C1477.79 691.156 1476.64 692.102 1475.51 693.059L1458.07 688.933C1456.3 688.521 1454.43 689.048 1453.15 690.331C1451.86 691.617 1451.33 693.472 1451.75 695.254L1455.84 712.693C1454.89 713.823 1453.94 714.967 1453.02 716.125L1435.09 715.501C1433.29 715.449 1431.56 716.316 1430.55 717.828C1429.54 719.332 1429.39 721.26 1430.14 722.924L1437.56 739.219C1436.84 740.527 1436.12 741.844 1435.43 743.172L1417.79 746.043C1415.99 746.334 1414.48 747.533 1413.8 749.211C1413.1 750.893 1413.33 752.817 1414.39 754.273L1424.82 768.766C1424.37 770.198 1423.93 771.636 1423.51 773.099L1406.77 779.34C1405.07 779.975 1403.82 781.445 1403.46 783.223C1403.11 785.005 1403.7 786.829 1405.03 788.077L1418.14 800.281C1417.97 801.755 1417.83 803.238 1417.7 804.719L1402.48 814.149C1400.94 815.103 1400 816.788 1400 818.622C1400 820.456 1400.94 822.123 1402.48 823.06L1417.7 832.49C1417.83 833.974 1417.97 835.454 1418.14 836.928L1405.03 849.132C1403.7 850.369 1403.11 852.207 1403.46 853.986C1403.82 855.771 1405.07 857.238 1406.77 857.869L1423.51 864.109C1423.93 865.559 1424.37 866.997 1424.82 868.443L1414.39 882.935C1413.33 884.412 1413.1 886.33 1413.8 887.997C1414.5 889.679 1416.01 890.878 1417.82 891.166L1435.47 894.037C1436.16 895.375 1436.87 896.693 1437.59 897.989L1430.17 914.25C1429.42 915.904 1429.57 917.821 1430.59 919.346C1431.6 920.861 1433.32 921.745 1435.13 921.673L1453.02 921.045C1453.95 922.21 1454.89 923.351 1455.85 924.484L1451.76 941.924C1451.34 943.692 1451.86 945.529 1453.15 946.812C1454.43 948.105 1456.29 948.622 1458.08 948.206L1475.52 944.115C1476.65 945.079 1477.8 946.015 1478.95 946.937L1478.33 964.862C1478.26 966.675 1479.15 968.398 1480.66 969.403C1482.16 970.412 1484.09 970.565 1485.75 969.809L1502.01 962.39C1503.33 963.118 1504.64 963.825 1505.97 964.515L1508.84 982.162C1509.14 983.958 1510.33 985.477 1512.01 986.184C1513.69 986.881 1515.62 986.656 1517.07 985.598L1531.57 975.162C1533 975.616 1534.44 976.06 1535.9 976.476L1542.14 993.222C1542.78 994.921 1544.25 996.179 1546.03 996.526C1547.81 996.887 1549.63 996.29 1550.88 994.959L1563.08 981.854C1564.56 982.024 1566.04 982.166 1567.52 982.297L1576.95 997.518C1577.9 999.054 1579.59 1000 1581.39 1000C1583.19 1000 1584.89 999.057 1585.86 997.518L1595.29 982.297C1596.78 982.166 1598.26 982.024 1599.73 981.854L1611.93 994.959C1613.17 996.29 1615.01 996.887 1616.79 996.526C1618.57 996.176 1620.04 994.921 1620.67 993.222L1626.91 976.476C1628.36 976.06 1629.8 975.616 1631.24 975.162L1645.74 985.598C1647.21 986.656 1649.13 986.881 1650.8 986.184C1652.48 985.494 1653.68 983.972 1653.97 982.162L1656.85 964.515C1658.18 963.825 1659.49 963.107 1660.8 962.39L1677.06 969.809C1678.71 970.565 1680.63 970.412 1682.16 969.403C1683.67 968.391 1684.55 966.675 1684.48 964.862L1683.86 946.937C1685.02 946.011 1686.16 945.079 1687.29 944.115L1704.73 948.206C1706.5 948.622 1708.37 948.105 1709.66 946.812C1710.95 945.526 1711.47 943.678 1711.05 941.924L1706.96 924.484C1707.92 923.351 1708.86 922.21 1709.78 921.045L1727.71 921.673C1729.52 921.745 1731.25 920.861 1732.25 919.346C1733.26 917.835 1733.42 915.91 1732.66 914.25L1725.24 897.989C1725.96 896.675 1726.68 895.358 1727.36 894.037L1745.01 891.166C1746.81 890.878 1748.32 889.679 1749 887.997C1749.69 886.323 1749.47 884.392 1748.41 882.935L1737.97 868.443C1738.42 867.011 1738.86 865.572 1739.28 864.109L1756.03 857.869C1757.73 857.231 1758.99 855.764 1759.33 853.986C1759.69 852.204 1759.1 850.38 1757.76 849.132L1744.66 836.928C1744.82 835.454 1744.96 833.97 1745.09 832.49L1760.31 823.06C1761.85 822.11 1762.8 820.421 1762.8 818.622C1762.8 816.822 1761.86 815.12 1760.32 814.149H1760.21ZM1658.28 940.696C1652.45 939.441 1648.78 933.693 1650.03 927.868C1651.27 922.044 1656.99 918.334 1662.82 919.582C1668.64 920.827 1672.35 926.585 1671.11 932.41C1669.86 938.235 1664.14 941.944 1658.31 940.696H1658.28ZM1653.11 905.679C1647.81 904.542 1642.57 907.919 1641.46 913.237L1636.05 938.477C1619.38 946.036 1600.69 950.265 1581.27 950.265C1561.3 950.265 1542.44 945.862 1525.45 937.957L1520.05 912.717C1518.91 907.413 1513.7 904.015 1508.4 905.159L1486.1 909.944C1481.98 905.679 1478.13 901.137 1474.59 896.353H1583.11C1584.34 896.353 1585.16 896.131 1585.16 895.015V856.53C1585.16 855.414 1584.34 855.192 1583.11 855.192H1551.39V830.888H1585.68C1588.81 830.888 1602.42 831.783 1606.76 849.194C1608.12 854.533 1611.13 871.938 1613.17 877.52C1615.21 883.761 1623.5 896.242 1632.34 896.242H1686.43C1687.04 896.242 1687.7 896.173 1688.39 896.048C1684.64 901.144 1680.52 905.964 1676.11 910.471L1653.3 905.582L1653.11 905.679ZM1502.99 940.176C1497.16 941.431 1491.44 937.722 1490.19 931.89C1488.95 926.065 1492.65 920.31 1498.48 919.062C1504.31 917.817 1510.03 921.527 1511.28 927.348C1512.52 933.173 1508.82 938.928 1502.99 940.176ZM1461.73 773.411C1464.14 778.855 1461.69 785.234 1456.25 787.661C1450.81 790.078 1444.46 787.619 1442.04 782.183C1439.61 776.747 1442.08 770.36 1447.52 767.934C1452.96 765.52 1459.3 767.975 1461.73 773.411ZM1449.08 803.367L1472.31 793.035C1477.26 790.833 1479.52 785.026 1477.3 780.068L1472.51 769.251H1491.31V853.847H1453.51C1450.22 842.267 1448.45 830.063 1448.45 817.443C1448.45 812.624 1448.71 807.874 1449.21 803.193L1449.08 803.367ZM1551.01 795.15V770.187H1595.73C1598.04 770.187 1612.06 772.86 1612.06 783.327C1612.06 792.029 1601.31 795.15 1592.47 795.15H1550.87H1551.01ZM1713.61 817.616C1713.61 820.931 1713.49 824.204 1713.25 827.463H1699.62C1698.26 827.463 1697.71 828.357 1697.71 829.692V835.933C1697.71 850.633 1689.43 853.857 1682.15 854.655C1675.21 855.435 1667.55 851.756 1666.61 847.513C1662.52 824.526 1655.73 819.638 1644.98 811.109C1658.33 802.649 1672.19 790.133 1672.19 773.318C1672.19 755.255 1659.82 743.883 1651.39 738.301C1639.53 730.5 1626.43 728.94 1622.89 728.94H1482.13C1501.23 707.652 1527.2 692.536 1556.33 686.988L1572.93 704.393C1576.68 708.311 1582.88 708.484 1586.84 704.712L1605.42 686.961C1644.25 694.207 1677.19 718.407 1696.26 751.794L1683.53 780.502C1681.34 785.459 1683.58 791.284 1688.52 793.468L1713 804.355C1713.42 808.689 1713.65 813.092 1713.65 817.53L1713.61 817.616ZM1572.85 672.347C1577.15 668.221 1583.98 668.395 1588.07 672.697C1592.16 676.996 1592.02 683.826 1587.71 687.952C1583.41 692.078 1576.58 691.905 1572.49 687.599C1568.4 683.3 1568.54 676.469 1572.85 672.344V672.347ZM1699.05 773.932C1701.46 768.488 1707.82 766.027 1713.27 768.454C1718.71 770.867 1721.17 777.26 1718.74 782.703C1716.33 788.146 1709.97 790.608 1704.53 788.181C1699.08 785.768 1696.62 779.375 1699.05 773.932Z" fill="url(#paint1_linear_1246_19)"/>
<path d="M321.035 691.08C344.435 694.72 368.355 694.72 391.755 691.08C382.915 673.92 371.475 663 356.395 663C339.235 663 328.315 677.04 321.035 691.08Z" fill="url(#paint2_linear_1246_19)"/>
<path d="M294 782.6H242C243.56 814.32 258.12 842.92 280.48 862.68C289.32 859.56 297.64 857.48 306.48 855.4C298.68 834.6 294.52 808.08 294 782.6Z" fill="url(#paint3_linear_1246_19)"/>
<path d="M294 772.2C294.52 744.64 298.68 719.16 306.48 698.88C297.64 696.8 289.32 694.72 280.48 691.6C258.12 711.88 243.56 740.48 242 772.2H294Z" fill="url(#paint4_linear_1246_19)"/>
<path d="M388.129 667.68C393.329 673.4 398.529 681.2 402.169 689.52C408.929 687.96 415.689 686.4 422.449 684.32C412.049 676.52 400.609 671.32 388.129 667.68Z" fill="url(#paint5_linear_1246_19)"/>
<path d="M356.398 704.6C343.398 704.6 329.878 703.56 316.878 700.96C309.078 720.2 304.918 745.16 304.398 772.2H408.398C407.878 746.2 403.718 720.72 395.918 700.96C382.918 703.56 369.398 704.6 356.398 704.6Z" fill="url(#paint6_linear_1246_19)"/>
<path d="M432.328 692.121C423.488 695.241 415.168 697.321 406.328 699.401C414.128 720.201 418.288 746.721 418.808 772.201H470.808C469.248 740.481 454.688 711.881 432.328 692.121Z" fill="url(#paint7_linear_1246_19)"/>
<path d="M310.643 865.8C303.883 867.36 297.123 868.92 290.363 871C300.763 878.28 312.203 884 324.683 887.64C319.483 881.4 314.803 874.12 310.643 865.8Z" fill="url(#paint8_linear_1246_19)"/>
<path d="M310.643 689C314.803 680.68 319.483 673.4 324.683 667.68C312.203 671.32 300.763 677.04 290.363 684.32C297.123 685.88 303.883 687.96 310.643 689Z" fill="url(#paint9_linear_1246_19)"/>
<path d="M377.195 861.64C358.475 860.08 339.755 860.6 321.035 863.72C329.355 880.88 341.315 891.8 356.395 891.8C364.715 891.8 371.475 888.68 377.195 883.48V861.64Z" fill="url(#paint10_linear_1246_19)"/>
<path d="M377.198 798.2H407.358C407.878 793 407.878 787.8 407.878 782.6H304.398C304.918 808.6 309.078 834.08 316.878 853.84C337.158 850.2 356.918 849.68 377.198 851.24V798.2Z" fill="url(#paint11_linear_1246_19)"/>
<path d="M468.713 798.2C469.753 793 470.273 787.8 470.273 782.6H418.793C418.793 787.8 418.273 793 418.273 798.2H468.713Z" fill="url(#paint12_linear_1246_19)"/>
<path d="M387.602 808.6V871H554.002V808.6H387.602ZM408.402 860.6H398.002V819H408.402V860.6ZM429.202 860.6H418.802V819H429.202V860.6ZM450.002 860.6H439.602V819H450.002V860.6ZM502.002 829.4H491.602V819H502.002V829.4ZM522.802 829.4H512.402V819H522.802V829.4ZM543.602 829.4H533.202V819H543.602V829.4Z" fill="url(#paint13_linear_1246_19)"/>
<path d="M554 943.8V881.4H387.6V943.8H465.6V964.6H242V975H554V964.6H476V943.8H554ZM533.2 891.8H543.6V902.2H533.2V891.8ZM512.4 891.8H522.8V902.2H512.4V891.8ZM491.6 891.8H502V902.2H491.6V891.8ZM408.4 933.4H398V891.8H408.4V933.4ZM429.2 933.4H418.8V891.8H429.2V933.4ZM450 933.4H439.6V891.8H450V933.4Z" fill="url(#paint14_linear_1246_19)"/>
</g>
<defs>
<linearGradient id="paint0_linear_1246_19" x1="960" y1="0" x2="960" y2="1080" gradientUnits="userSpaceOnUse">
<stop stop-color="#323232"/>
<stop offset="1"/>
</linearGradient>
<linearGradient id="paint1_linear_1246_19" x1="1581.4" y1="637.174" x2="1581.4" y2="1000" gradientUnits="userSpaceOnUse">
<stop stop-color="#B32BD5"/>
<stop offset="1" stop-color="#DA3C8E"/>
</linearGradient>
<linearGradient id="paint2_linear_1246_19" x1="356.395" y1="663" x2="356.395" y2="693.81" gradientUnits="userSpaceOnUse">
<stop stop-color="#B32BD5"/>
<stop offset="1" stop-color="#DA3C8E"/>
</linearGradient>
<linearGradient id="paint3_linear_1246_19" x1="274.24" y1="782.6" x2="274.24" y2="862.68" gradientUnits="userSpaceOnUse">
<stop stop-color="#B32BD5"/>
<stop offset="1" stop-color="#DA3C8E"/>
</linearGradient>
<linearGradient id="paint4_linear_1246_19" x1="274.24" y1="691.6" x2="274.24" y2="772.2" gradientUnits="userSpaceOnUse">
<stop stop-color="#B32BD5"/>
<stop offset="1" stop-color="#DA3C8E"/>
</linearGradient>
<linearGradient id="paint5_linear_1246_19" x1="405.289" y1="667.68" x2="405.289" y2="689.52" gradientUnits="userSpaceOnUse">
<stop stop-color="#B32BD5"/>
<stop offset="1" stop-color="#DA3C8E"/>
</linearGradient>
<linearGradient id="paint6_linear_1246_19" x1="356.399" y1="700.96" x2="356.399" y2="772.2" gradientUnits="userSpaceOnUse">
<stop stop-color="#B32BD5"/>
<stop offset="1" stop-color="#DA3C8E"/>
</linearGradient>
<linearGradient id="paint7_linear_1246_19" x1="438.568" y1="692.121" x2="438.568" y2="772.201" gradientUnits="userSpaceOnUse">
<stop stop-color="#B32BD5"/>
<stop offset="1" stop-color="#DA3C8E"/>
</linearGradient>
<linearGradient id="paint8_linear_1246_19" x1="307.523" y1="865.8" x2="307.523" y2="887.64" gradientUnits="userSpaceOnUse">
<stop stop-color="#B32BD5"/>
<stop offset="1" stop-color="#DA3C8E"/>
</linearGradient>
<linearGradient id="paint9_linear_1246_19" x1="307.523" y1="667.68" x2="307.523" y2="689" gradientUnits="userSpaceOnUse">
<stop stop-color="#B32BD5"/>
<stop offset="1" stop-color="#DA3C8E"/>
</linearGradient>
<linearGradient id="paint10_linear_1246_19" x1="349.115" y1="860.788" x2="349.115" y2="891.8" gradientUnits="userSpaceOnUse">
<stop stop-color="#B32BD5"/>
<stop offset="1" stop-color="#DA3C8E"/>
</linearGradient>
<linearGradient id="paint11_linear_1246_19" x1="356.139" y1="782.6" x2="356.139" y2="853.84" gradientUnits="userSpaceOnUse">
<stop stop-color="#B32BD5"/>
<stop offset="1" stop-color="#DA3C8E"/>
</linearGradient>
<linearGradient id="paint12_linear_1246_19" x1="444.274" y1="782.6" x2="444.274" y2="798.2" gradientUnits="userSpaceOnUse">
<stop stop-color="#B32BD5"/>
<stop offset="1" stop-color="#DA3C8E"/>
</linearGradient>
<linearGradient id="paint13_linear_1246_19" x1="470.802" y1="808.6" x2="470.802" y2="871" gradientUnits="userSpaceOnUse">
<stop stop-color="#B32BD5"/>
<stop offset="1" stop-color="#DA3C8E"/>
</linearGradient>
<linearGradient id="paint14_linear_1246_19" x1="398" y1="881.4" x2="398" y2="975" gradientUnits="userSpaceOnUse">
<stop stop-color="#B32BD5"/>
<stop offset="1" stop-color="#DA3C8E"/>
</linearGradient>
<clipPath id="clip0_1246_19">
<rect width="1920" height="1080" fill="white"/>
</clipPath>
</defs>
</svg>
