<svg width="1920" height="1080" viewBox="0 0 1920 1080" fill="none" xmlns="http://www.w3.org/2000/svg">
<g id="nodejs-ts-handbook">
<g id="Rectangle">
<rect width="1920" height="1080" fill="#323232"/>
<rect width="1920" height="1080" fill="url(#paint0_linear)" fill-opacity="0.15"/>
</g>
<path id="Java vs Kotlin" d="M147.585 348H131.835L74.5348 259.05H73.9348C74.1348 262.55 74.3848 266.9 74.6848 272.1C74.9848 277.3 75.1348 282.65 75.1348 288.15V348H62.6848V240.9H78.2848L135.435 329.55H136.035C135.935 327.95 135.785 325.55 135.585 322.35C135.485 319.15 135.335 315.65 135.135 311.85C135.035 308.05 134.985 304.55 134.985 301.35V240.9H147.585V348ZM244.75 307.65C244.75 320.95 241.35 331.25 234.55 338.55C227.85 345.85 218.75 349.5 207.25 349.5C200.15 349.5 193.8 347.9 188.2 344.7C182.7 341.4 178.35 336.65 175.15 330.45C171.95 324.15 170.35 316.55 170.35 307.65C170.35 294.35 173.7 284.1 180.4 276.9C187.1 269.7 196.2 266.1 207.7 266.1C215 266.1 221.4 267.75 226.9 271.05C232.5 274.25 236.85 278.95 239.95 285.15C243.15 291.25 244.75 298.75 244.75 307.65ZM184 307.65C184 317.15 185.85 324.7 189.55 330.3C193.35 335.8 199.35 338.55 207.55 338.55C215.65 338.55 221.6 335.8 225.4 330.3C229.2 324.7 231.1 317.15 231.1 307.65C231.1 298.15 229.2 290.7 225.4 285.3C221.6 279.9 215.6 277.2 207.4 277.2C199.2 277.2 193.25 279.9 189.55 285.3C185.85 290.7 184 298.15 184 307.65ZM294.17 349.5C284.17 349.5 276.17 346.05 270.17 339.15C264.17 332.15 261.17 321.75 261.17 307.95C261.17 294.15 264.17 283.75 270.17 276.75C276.27 269.65 284.32 266.1 294.32 266.1C300.52 266.1 305.57 267.25 309.47 269.55C313.47 271.85 316.72 274.65 319.22 277.95H320.12C320.02 276.65 319.82 274.75 319.52 272.25C319.32 269.65 319.22 267.6 319.22 266.1V234H332.42V348H321.77L319.82 337.2H319.22C316.82 340.6 313.62 343.5 309.62 345.9C305.62 348.3 300.47 349.5 294.17 349.5ZM296.27 338.55C304.77 338.55 310.72 336.25 314.12 331.65C317.62 326.95 319.37 319.9 319.37 310.5V308.1C319.37 298.1 317.72 290.45 314.42 285.15C311.12 279.75 305.02 277.05 296.12 277.05C289.02 277.05 283.67 279.9 280.07 285.6C276.57 291.2 274.82 298.75 274.82 308.25C274.82 317.85 276.57 325.3 280.07 330.6C283.67 335.9 289.07 338.55 296.27 338.55ZM389.005 266.1C395.905 266.1 401.805 267.6 406.705 270.6C411.705 273.6 415.505 277.85 418.105 283.35C420.805 288.75 422.155 295.1 422.155 302.4V310.35H367.105C367.305 319.45 369.605 326.4 374.005 331.2C378.505 335.9 384.755 338.25 392.755 338.25C397.855 338.25 402.355 337.8 406.255 336.9C410.255 335.9 414.355 334.5 418.555 332.7V344.25C414.455 346.05 410.405 347.35 406.405 348.15C402.405 349.05 397.655 349.5 392.155 349.5C384.555 349.5 377.805 347.95 371.905 344.85C366.105 341.75 361.555 337.15 358.255 331.05C355.055 324.85 353.455 317.3 353.455 308.4C353.455 299.6 354.905 292.05 357.805 285.75C360.805 279.45 364.955 274.6 370.255 271.2C375.655 267.8 381.905 266.1 389.005 266.1ZM388.855 276.9C382.555 276.9 377.555 278.95 373.855 283.05C370.255 287.05 368.105 292.65 367.405 299.85H408.355C408.255 293.05 406.655 287.55 403.555 283.35C400.455 279.05 395.555 276.9 388.855 276.9ZM440.673 339.9C440.673 336.2 441.573 333.6 443.373 332.1C445.173 330.6 447.323 329.85 449.823 329.85C452.423 329.85 454.623 330.6 456.423 332.1C458.323 333.6 459.273 336.2 459.273 339.9C459.273 343.5 458.323 346.1 456.423 347.7C454.623 349.3 452.423 350.1 449.823 350.1C447.323 350.1 445.173 349.3 443.373 347.7C441.573 346.1 440.673 343.5 440.673 339.9ZM481.71 245.85C481.71 242.95 482.46 240.85 483.96 239.55C485.46 238.15 487.31 237.45 489.51 237.45C491.51 237.45 493.26 238.15 494.76 239.55C496.36 240.85 497.16 242.95 497.16 245.85C497.16 248.65 496.36 250.75 494.76 252.15C493.26 253.55 491.51 254.25 489.51 254.25C487.31 254.25 485.46 253.55 483.96 252.15C482.46 250.75 481.71 248.65 481.71 245.85ZM473.31 384C470.81 384 468.61 383.8 466.71 383.4C464.81 383.1 463.16 382.7 461.76 382.2V371.55C463.26 371.95 464.81 372.3 466.41 372.6C468.01 372.9 469.76 373.05 471.66 373.05C474.86 373.05 477.51 372.15 479.61 370.35C481.71 368.65 482.76 365.35 482.76 360.45V267.6H495.96V360C495.96 367.5 494.16 373.35 490.56 377.55C486.96 381.85 481.21 384 473.31 384ZM573.782 325.8C573.782 333.6 570.882 339.5 565.082 343.5C559.282 347.5 551.482 349.5 541.682 349.5C536.082 349.5 531.232 349.05 527.132 348.15C523.132 347.25 519.582 346 516.482 344.4V332.4C519.682 334 523.532 335.5 528.032 336.9C532.632 338.2 537.282 338.85 541.982 338.85C548.682 338.85 553.532 337.8 556.532 335.7C559.532 333.5 561.032 330.6 561.032 327C561.032 325 560.482 323.2 559.382 321.6C558.282 320 556.282 318.4 553.382 316.8C550.582 315.2 546.532 313.4 541.232 311.4C536.032 309.4 531.582 307.4 527.882 305.4C524.182 303.4 521.332 301 519.332 298.2C517.332 295.4 516.332 291.8 516.332 287.4C516.332 280.6 519.082 275.35 524.582 271.65C530.182 267.95 537.482 266.1 546.482 266.1C551.382 266.1 555.932 266.6 560.132 267.6C564.432 268.5 568.432 269.8 572.132 271.5L567.632 282C564.232 280.6 560.682 279.4 556.982 278.4C553.282 277.4 549.482 276.9 545.582 276.9C540.182 276.9 536.032 277.8 533.132 279.6C530.332 281.3 528.932 283.65 528.932 286.65C528.932 288.85 529.582 290.75 530.882 292.35C532.182 293.85 534.332 295.35 537.332 296.85C540.432 298.25 544.532 299.95 549.632 301.95C554.732 303.85 559.082 305.8 562.682 307.8C566.282 309.8 569.032 312.25 570.932 315.15C572.832 317.95 573.782 321.5 573.782 325.8ZM625.424 306.9C625.424 294.7 627.174 282.95 630.674 271.65C634.274 260.25 639.874 250 647.474 240.9H659.924C652.924 250.3 647.624 260.65 644.024 271.95C640.524 283.25 638.774 294.85 638.774 306.75C638.774 318.35 640.524 329.75 644.024 340.95C647.624 352.05 652.874 362.3 659.774 371.7H647.474C639.874 362.9 634.274 352.95 630.674 341.85C627.174 330.65 625.424 319 625.424 306.9ZM744.345 267.6V348H733.545L731.595 337.35H730.995C728.395 341.55 724.795 344.65 720.195 346.65C715.595 348.55 710.695 349.5 705.495 349.5C695.795 349.5 688.495 347.2 683.595 342.6C678.695 337.9 676.245 330.45 676.245 320.25V267.6H689.595V319.35C689.595 332.15 695.545 338.55 707.445 338.55C716.345 338.55 722.495 336.05 725.895 331.05C729.395 326.05 731.145 318.85 731.145 309.45V267.6H744.345ZM822.219 325.8C822.219 333.6 819.319 339.5 813.519 343.5C807.719 347.5 799.919 349.5 790.119 349.5C784.519 349.5 779.669 349.05 775.569 348.15C771.569 347.25 768.019 346 764.919 344.4V332.4C768.119 334 771.969 335.5 776.469 336.9C781.069 338.2 785.719 338.85 790.419 338.85C797.119 338.85 801.969 337.8 804.969 335.7C807.969 333.5 809.469 330.6 809.469 327C809.469 325 808.919 323.2 807.819 321.6C806.719 320 804.719 318.4 801.819 316.8C799.019 315.2 794.969 313.4 789.669 311.4C784.469 309.4 780.019 307.4 776.319 305.4C772.619 303.4 769.769 301 767.769 298.2C765.769 295.4 764.769 291.8 764.769 287.4C764.769 280.6 767.519 275.35 773.019 271.65C778.619 267.95 785.919 266.1 794.919 266.1C799.819 266.1 804.369 266.6 808.569 267.6C812.869 268.5 816.869 269.8 820.569 271.5L816.069 282C812.669 280.6 809.119 279.4 805.419 278.4C801.719 277.4 797.919 276.9 794.019 276.9C788.619 276.9 784.469 277.8 781.569 279.6C778.769 281.3 777.369 283.65 777.369 286.65C777.369 288.85 778.019 290.75 779.319 292.35C780.619 293.85 782.769 295.35 785.769 296.85C788.869 298.25 792.969 299.95 798.069 301.95C803.169 303.85 807.519 305.8 811.119 307.8C814.719 309.8 817.469 312.25 819.369 315.15C821.269 317.95 822.219 321.5 822.219 325.8ZM848.396 237.45C850.396 237.45 852.146 238.15 853.646 239.55C855.246 240.85 856.046 242.95 856.046 245.85C856.046 248.65 855.246 250.75 853.646 252.15C852.146 253.55 850.396 254.25 848.396 254.25C846.196 254.25 844.346 253.55 842.846 252.15C841.346 250.75 840.596 248.65 840.596 245.85C840.596 242.95 841.346 240.85 842.846 239.55C844.346 238.15 846.196 237.45 848.396 237.45ZM854.846 267.6V348H841.646V267.6H854.846ZM919.018 266.1C928.618 266.1 935.868 268.45 940.768 273.15C945.668 277.75 948.118 285.25 948.118 295.65V348H935.068V296.55C935.068 283.65 929.068 277.2 917.068 277.2C908.168 277.2 902.018 279.7 898.618 284.7C895.218 289.7 893.518 296.9 893.518 306.3V348H880.318V267.6H890.968L892.918 278.55H893.668C896.268 274.35 899.868 271.25 904.468 269.25C909.068 267.15 913.918 266.1 919.018 266.1ZM1001.54 266.1C1006.84 266.1 1011.59 267.1 1015.79 269.1C1020.09 271.1 1023.74 274.15 1026.74 278.25H1027.49L1029.29 267.6H1039.79V349.35C1039.79 360.85 1036.84 369.5 1030.94 375.3C1025.14 381.1 1016.09 384 1003.79 384C991.993 384 982.343 382.3 974.843 378.9V366.75C982.743 370.95 992.643 373.05 1004.54 373.05C1011.44 373.05 1016.84 371 1020.74 366.9C1024.74 362.9 1026.74 357.4 1026.74 350.4V347.25C1026.74 346.05 1026.79 344.35 1026.89 342.15C1026.99 339.85 1027.09 338.25 1027.19 337.35H1026.59C1021.19 345.45 1012.89 349.5 1001.69 349.5C991.293 349.5 983.143 345.85 977.243 338.55C971.443 331.25 968.543 321.05 968.543 307.95C968.543 295.15 971.443 285 977.243 277.5C983.143 269.9 991.243 266.1 1001.54 266.1ZM1003.34 277.2C996.643 277.2 991.443 279.9 987.743 285.3C984.043 290.6 982.193 298.2 982.193 308.1C982.193 318 983.993 325.6 987.593 330.9C991.293 336.1 996.643 338.7 1003.64 338.7C1011.74 338.7 1017.64 336.55 1021.34 332.25C1025.04 327.85 1026.89 320.8 1026.89 311.1V307.95C1026.89 296.95 1024.99 289.1 1021.19 284.4C1017.39 279.6 1011.44 277.2 1003.34 277.2ZM1139.99 348H1126.49V252.75H1093.04V240.9H1173.29V252.75H1139.99V348ZM1172.11 267.6H1186.21L1203.61 313.35C1205.11 317.35 1206.46 321.2 1207.66 324.9C1208.86 328.5 1209.76 331.95 1210.36 335.25H1210.96C1211.56 332.75 1212.51 329.5 1213.81 325.5C1215.11 321.4 1216.46 317.3 1217.86 313.2L1234.21 267.6H1248.46L1213.81 359.1C1211.01 366.7 1207.36 372.75 1202.86 377.25C1198.46 381.75 1192.36 384 1184.56 384C1182.16 384 1180.06 383.85 1178.26 383.55C1176.46 383.35 1174.91 383.1 1173.61 382.8V372.3C1174.71 372.5 1176.01 372.7 1177.51 372.9C1179.11 373.1 1180.76 373.2 1182.46 373.2C1187.06 373.2 1190.76 371.9 1193.56 369.3C1196.46 366.7 1198.71 363.25 1200.31 358.95L1204.51 348.3L1172.11 267.6ZM1299.43 266.1C1309.33 266.1 1317.28 269.55 1323.28 276.45C1329.38 283.35 1332.43 293.75 1332.43 307.65C1332.43 321.35 1329.38 331.75 1323.28 338.85C1317.28 345.95 1309.28 349.5 1299.28 349.5C1293.08 349.5 1287.93 348.35 1283.83 346.05C1279.83 343.65 1276.68 340.9 1274.38 337.8H1273.48C1273.68 339.5 1273.88 341.65 1274.08 344.25C1274.28 346.85 1274.38 349.1 1274.38 351V384H1261.18V267.6H1271.98L1273.78 278.55H1274.38C1276.78 275.05 1279.93 272.1 1283.83 269.7C1287.73 267.3 1292.93 266.1 1299.43 266.1ZM1297.03 277.2C1288.83 277.2 1283.03 279.5 1279.63 284.1C1276.33 288.7 1274.58 295.7 1274.38 305.1V307.65C1274.38 317.55 1275.98 325.2 1279.18 330.6C1282.48 335.9 1288.53 338.55 1297.33 338.55C1302.23 338.55 1306.23 337.2 1309.33 334.5C1312.53 331.8 1314.88 328.15 1316.38 323.55C1317.98 318.85 1318.78 313.5 1318.78 307.5C1318.78 298.3 1316.98 290.95 1313.38 285.45C1309.88 279.95 1304.43 277.2 1297.03 277.2ZM1384.51 266.1C1391.41 266.1 1397.31 267.6 1402.21 270.6C1407.21 273.6 1411.01 277.85 1413.61 283.35C1416.31 288.75 1417.66 295.1 1417.66 302.4V310.35H1362.61C1362.81 319.45 1365.11 326.4 1369.51 331.2C1374.01 335.9 1380.26 338.25 1388.26 338.25C1393.36 338.25 1397.86 337.8 1401.76 336.9C1405.76 335.9 1409.86 334.5 1414.06 332.7V344.25C1409.96 346.05 1405.91 347.35 1401.91 348.15C1397.91 349.05 1393.16 349.5 1387.66 349.5C1380.06 349.5 1373.31 347.95 1367.41 344.85C1361.61 341.75 1357.06 337.15 1353.76 331.05C1350.56 324.85 1348.96 317.3 1348.96 308.4C1348.96 299.6 1350.41 292.05 1353.31 285.75C1356.31 279.45 1360.46 274.6 1365.76 271.2C1371.16 267.8 1377.41 266.1 1384.51 266.1ZM1384.36 276.9C1378.06 276.9 1373.06 278.95 1369.36 283.05C1365.76 287.05 1363.61 292.65 1362.91 299.85H1403.86C1403.76 293.05 1402.16 287.55 1399.06 283.35C1395.96 279.05 1391.06 276.9 1384.36 276.9ZM1500.68 319.35C1500.68 328.85 1497.23 336.25 1490.33 341.55C1483.43 346.85 1474.13 349.5 1462.43 349.5C1456.43 349.5 1450.88 349.05 1445.78 348.15C1440.68 347.25 1436.43 346 1433.03 344.4V331.5C1436.63 333.1 1441.08 334.55 1446.38 335.85C1451.78 337.15 1457.33 337.8 1463.03 337.8C1471.03 337.8 1477.03 336.25 1481.03 333.15C1485.13 330.05 1487.18 325.85 1487.18 320.55C1487.18 317.05 1486.43 314.1 1484.93 311.7C1483.43 309.3 1480.83 307.1 1477.13 305.1C1473.53 303 1468.48 300.8 1461.98 298.5C1452.88 295.2 1445.98 291.15 1441.28 286.35C1436.68 281.55 1434.38 275 1434.38 266.7C1434.38 261 1435.83 256.15 1438.73 252.15C1441.63 248.05 1445.63 244.9 1450.73 242.7C1455.93 240.5 1461.88 239.4 1468.58 239.4C1474.48 239.4 1479.88 239.95 1484.78 241.05C1489.68 242.15 1494.13 243.6 1498.13 245.4L1493.93 256.95C1490.23 255.35 1486.18 254 1481.78 252.9C1477.48 251.8 1472.98 251.25 1468.28 251.25C1461.58 251.25 1456.53 252.7 1453.13 255.6C1449.73 258.4 1448.03 262.15 1448.03 266.85C1448.03 270.45 1448.78 273.45 1450.28 275.85C1451.78 278.25 1454.23 280.4 1457.63 282.3C1461.03 284.2 1465.63 286.25 1471.43 288.45C1477.73 290.75 1483.03 293.25 1487.33 295.95C1491.73 298.55 1495.03 301.7 1497.23 305.4C1499.53 309.1 1500.68 313.75 1500.68 319.35ZM1552.71 349.5C1545.61 349.5 1539.26 348.05 1533.66 345.15C1528.16 342.25 1523.81 337.75 1520.61 331.65C1517.51 325.55 1515.96 317.75 1515.96 308.25C1515.96 298.35 1517.61 290.3 1520.91 284.1C1524.21 277.9 1528.66 273.35 1534.26 270.45C1539.96 267.55 1546.41 266.1 1553.61 266.1C1557.71 266.1 1561.66 266.55 1565.46 267.45C1569.26 268.25 1572.36 269.25 1574.76 270.45L1570.71 281.4C1568.31 280.5 1565.51 279.65 1562.31 278.85C1559.11 278.05 1556.11 277.65 1553.31 277.65C1537.51 277.65 1529.61 287.8 1529.61 308.1C1529.61 317.8 1531.51 325.25 1535.31 330.45C1539.21 335.55 1544.96 338.1 1552.56 338.1C1556.96 338.1 1560.81 337.65 1564.11 336.75C1567.51 335.85 1570.61 334.75 1573.41 333.45V345.15C1570.71 346.55 1567.71 347.6 1564.41 348.3C1561.21 349.1 1557.31 349.5 1552.71 349.5ZM1630.03 266.1C1631.53 266.1 1633.13 266.2 1634.83 266.4C1636.63 266.5 1638.18 266.7 1639.48 267L1637.83 279.15C1636.53 278.85 1635.08 278.6 1633.48 278.4C1631.98 278.2 1630.53 278.1 1629.13 278.1C1625.03 278.1 1621.18 279.25 1617.58 281.55C1613.98 283.75 1611.08 286.9 1608.88 291C1606.78 295 1605.73 299.7 1605.73 305.1V348H1592.53V267.6H1603.33L1604.83 282.3H1605.43C1608.03 277.9 1611.38 274.1 1615.48 270.9C1619.58 267.7 1624.43 266.1 1630.03 266.1ZM1661.24 237.45C1663.24 237.45 1664.99 238.15 1666.49 239.55C1668.09 240.85 1668.89 242.95 1668.89 245.85C1668.89 248.65 1668.09 250.75 1666.49 252.15C1664.99 253.55 1663.24 254.25 1661.24 254.25C1659.04 254.25 1657.19 253.55 1655.69 252.15C1654.19 250.75 1653.44 248.65 1653.44 245.85C1653.44 242.95 1654.19 240.85 1655.69 239.55C1657.19 238.15 1659.04 237.45 1661.24 237.45ZM1667.69 267.6V348H1654.49V267.6H1667.69ZM1731.41 266.1C1741.31 266.1 1749.26 269.55 1755.26 276.45C1761.36 283.35 1764.41 293.75 1764.41 307.65C1764.41 321.35 1761.36 331.75 1755.26 338.85C1749.26 345.95 1741.26 349.5 1731.26 349.5C1725.06 349.5 1719.91 348.35 1715.81 346.05C1711.81 343.65 1708.66 340.9 1706.36 337.8H1705.46C1705.66 339.5 1705.86 341.65 1706.06 344.25C1706.26 346.85 1706.36 349.1 1706.36 351V384H1693.16V267.6H1703.96L1705.76 278.55H1706.36C1708.76 275.05 1711.91 272.1 1715.81 269.7C1719.71 267.3 1724.91 266.1 1731.41 266.1ZM1729.01 277.2C1720.81 277.2 1715.01 279.5 1711.61 284.1C1708.31 288.7 1706.56 295.7 1706.36 305.1V307.65C1706.36 317.55 1707.96 325.2 1711.16 330.6C1714.46 335.9 1720.51 338.55 1729.31 338.55C1734.21 338.55 1738.21 337.2 1741.31 334.5C1744.51 331.8 1746.86 328.15 1748.36 323.55C1749.96 318.85 1750.76 313.5 1750.76 307.5C1750.76 298.3 1748.96 290.95 1745.36 285.45C1741.86 279.95 1736.41 277.2 1729.01 277.2ZM1812.3 338.7C1814.3 338.7 1816.35 338.55 1818.45 338.25C1820.55 337.85 1822.25 337.45 1823.55 337.05V347.1C1822.15 347.8 1820.15 348.35 1817.55 348.75C1814.95 349.25 1812.45 349.5 1810.05 349.5C1805.85 349.5 1801.95 348.8 1798.35 347.4C1794.85 345.9 1792 343.35 1789.8 339.75C1787.6 336.15 1786.5 331.1 1786.5 324.6V277.8H1775.1V271.5L1786.65 266.25L1791.9 249.15H1799.7V267.6H1822.95V277.8H1799.7V324.3C1799.7 329.2 1800.85 332.85 1803.15 335.25C1805.55 337.55 1808.6 338.7 1812.3 338.7ZM1865.89 306.9C1865.89 319 1864.09 330.65 1860.49 341.85C1856.99 352.95 1851.44 362.9 1843.84 371.7H1831.54C1838.44 362.3 1843.64 352.05 1847.14 340.95C1850.74 329.75 1852.54 318.35 1852.54 306.75C1852.54 294.85 1850.74 283.25 1847.14 271.95C1843.64 260.65 1838.39 250.3 1831.39 240.9H1843.84C1851.44 250 1856.99 260.25 1860.49 271.65C1864.09 282.95 1865.89 294.7 1865.89 306.9Z" fill="#61DAFB"/>
<path id="Android development" d="M528.715 121.88C535.809 121.88 541.035 123.24 544.395 125.96C547.809 128.627 549.515 132.68 549.515 138.12C549.515 141.16 548.955 143.693 547.835 145.72C546.715 147.747 545.275 149.373 543.515 150.6C541.809 151.773 539.995 152.707 538.075 153.4L553.755 179H545.355L531.515 155.4H520.155V179H512.955V121.88H528.715ZM528.315 128.12H520.155V149.32H528.715C533.355 149.32 536.742 148.413 538.875 146.6C541.009 144.733 542.075 142.013 542.075 138.44C542.075 134.707 540.955 132.067 538.715 130.52C536.475 128.92 533.009 128.12 528.315 128.12ZM578.321 135.32C582.001 135.32 585.148 136.12 587.761 137.72C590.428 139.32 592.454 141.587 593.841 144.52C595.281 147.4 596.001 150.787 596.001 154.68V158.92H566.641C566.748 163.773 567.974 167.48 570.321 170.04C572.721 172.547 576.054 173.8 580.321 173.8C583.041 173.8 585.441 173.56 587.521 173.08C589.654 172.547 591.841 171.8 594.081 170.84V177C591.894 177.96 589.734 178.653 587.601 179.08C585.468 179.56 582.934 179.8 580.001 179.8C575.948 179.8 572.348 178.973 569.201 177.32C566.108 175.667 563.681 173.213 561.921 169.96C560.214 166.653 559.361 162.627 559.361 157.88C559.361 153.187 560.134 149.16 561.681 145.8C563.281 142.44 565.494 139.853 568.321 138.04C571.201 136.227 574.534 135.32 578.321 135.32ZM578.241 141.08C574.881 141.08 572.214 142.173 570.241 144.36C568.321 146.493 567.174 149.48 566.801 153.32H588.641C588.588 149.693 587.734 146.76 586.081 144.52C584.428 142.227 581.814 141.08 578.241 141.08ZM626.677 141.56H615.877V179H608.837V141.56H601.317V138.28L608.837 135.88V133.4C608.837 127.853 610.064 123.88 612.517 121.48C614.971 119.027 618.384 117.8 622.757 117.8C624.464 117.8 626.011 117.96 627.397 118.28C628.837 118.547 630.064 118.867 631.077 119.24L629.237 124.76C628.384 124.493 627.397 124.227 626.277 123.96C625.157 123.693 624.011 123.56 622.837 123.56C620.491 123.56 618.731 124.36 617.557 125.96C616.437 127.507 615.877 129.96 615.877 133.32V136.12H626.677V141.56ZM650.977 135.32C654.657 135.32 657.804 136.12 660.417 137.72C663.084 139.32 665.111 141.587 666.497 144.52C667.937 147.4 668.657 150.787 668.657 154.68V158.92H639.297C639.404 163.773 640.631 167.48 642.977 170.04C645.377 172.547 648.711 173.8 652.977 173.8C655.697 173.8 658.097 173.56 660.177 173.08C662.311 172.547 664.497 171.8 666.737 170.84V177C664.551 177.96 662.391 178.653 660.257 179.08C658.124 179.56 655.591 179.8 652.657 179.8C648.604 179.8 645.004 178.973 641.857 177.32C638.764 175.667 636.337 173.213 634.577 169.96C632.871 166.653 632.017 162.627 632.017 157.88C632.017 153.187 632.791 149.16 634.337 145.8C635.937 142.44 638.151 139.853 640.977 138.04C643.857 136.227 647.191 135.32 650.977 135.32ZM650.897 141.08C647.537 141.08 644.871 142.173 642.897 144.36C640.977 146.493 639.831 149.48 639.457 153.32H661.297C661.244 149.693 660.391 146.76 658.737 144.52C657.084 142.227 654.471 141.08 650.897 141.08ZM699.573 135.32C700.373 135.32 701.227 135.373 702.133 135.48C703.093 135.533 703.92 135.64 704.613 135.8L703.733 142.28C703.04 142.12 702.267 141.987 701.413 141.88C700.613 141.773 699.84 141.72 699.093 141.72C696.907 141.72 694.853 142.333 692.933 143.56C691.013 144.733 689.467 146.413 688.293 148.6C687.173 150.733 686.613 153.24 686.613 156.12V179H679.573V136.12H685.333L686.133 143.96H686.453C687.84 141.613 689.627 139.587 691.813 137.88C694 136.173 696.587 135.32 699.573 135.32ZM727.618 135.32C731.298 135.32 734.444 136.12 737.058 137.72C739.724 139.32 741.751 141.587 743.138 144.52C744.578 147.4 745.298 150.787 745.298 154.68V158.92H715.938C716.044 163.773 717.271 167.48 719.618 170.04C722.018 172.547 725.351 173.8 729.618 173.8C732.338 173.8 734.738 173.56 736.818 173.08C738.951 172.547 741.138 171.8 743.378 170.84V177C741.191 177.96 739.031 178.653 736.898 179.08C734.764 179.56 732.231 179.8 729.298 179.8C725.244 179.8 721.644 178.973 718.498 177.32C715.404 175.667 712.978 173.213 711.218 169.96C709.511 166.653 708.658 162.627 708.658 157.88C708.658 153.187 709.431 149.16 710.978 145.8C712.578 142.44 714.791 139.853 717.618 138.04C720.498 136.227 723.831 135.32 727.618 135.32ZM727.538 141.08C724.178 141.08 721.511 142.173 719.538 144.36C717.618 146.493 716.471 149.48 716.098 153.32H737.938C737.884 149.693 737.031 146.76 735.378 144.52C733.724 142.227 731.111 141.08 727.538 141.08ZM776.854 135.32C781.974 135.32 785.841 136.573 788.454 139.08C791.067 141.533 792.374 145.533 792.374 151.08V179H785.414V151.56C785.414 144.68 782.214 141.24 775.814 141.24C771.067 141.24 767.787 142.573 765.974 145.24C764.161 147.907 763.254 151.747 763.254 156.76V179H756.214V136.12H761.894L762.934 141.96H763.334C764.721 139.72 766.641 138.067 769.094 137C771.547 135.88 774.134 135.32 776.854 135.32ZM822.867 179.8C819.081 179.8 815.694 179.027 812.707 177.48C809.774 175.933 807.454 173.533 805.747 170.28C804.094 167.027 803.267 162.867 803.267 157.8C803.267 152.52 804.147 148.227 805.907 144.92C807.667 141.613 810.041 139.187 813.027 137.64C816.067 136.093 819.507 135.32 823.347 135.32C825.534 135.32 827.641 135.56 829.667 136.04C831.694 136.467 833.347 137 834.627 137.64L832.467 143.48C831.187 143 829.694 142.547 827.987 142.12C826.281 141.693 824.681 141.48 823.187 141.48C814.761 141.48 810.547 146.893 810.547 157.72C810.547 162.893 811.561 166.867 813.587 169.64C815.667 172.36 818.734 173.72 822.787 173.72C825.134 173.72 827.187 173.48 828.947 173C830.761 172.52 832.414 171.933 833.907 171.24V177.48C832.467 178.227 830.867 178.787 829.107 179.16C827.401 179.587 825.321 179.8 822.867 179.8ZM860.665 135.32C864.345 135.32 867.491 136.12 870.105 137.72C872.771 139.32 874.798 141.587 876.185 144.52C877.625 147.4 878.345 150.787 878.345 154.68V158.92H848.985C849.091 163.773 850.318 167.48 852.665 170.04C855.065 172.547 858.398 173.8 862.665 173.8C865.385 173.8 867.785 173.56 869.865 173.08C871.998 172.547 874.185 171.8 876.425 170.84V177C874.238 177.96 872.078 178.653 869.945 179.08C867.811 179.56 865.278 179.8 862.345 179.8C858.291 179.8 854.691 178.973 851.545 177.32C848.451 175.667 846.025 173.213 844.265 169.96C842.558 166.653 841.705 162.627 841.705 157.88C841.705 153.187 842.478 149.16 844.025 145.8C845.625 142.44 847.838 139.853 850.665 138.04C853.545 136.227 856.878 135.32 860.665 135.32ZM860.585 141.08C857.225 141.08 854.558 142.173 852.585 144.36C850.665 146.493 849.518 149.48 849.145 153.32H870.985C870.931 149.693 870.078 146.76 868.425 144.52C866.771 142.227 864.158 141.08 860.585 141.08ZM917.082 136.04C917.082 138.173 916.949 140.173 916.682 142.04H917.162C918.549 139.853 920.416 138.2 922.762 137.08C925.162 135.96 927.749 135.4 930.522 135.4C935.749 135.4 939.669 136.653 942.282 139.16C944.896 141.613 946.202 145.587 946.202 151.08V179H939.242V151.56C939.242 144.68 936.042 141.24 929.642 141.24C924.842 141.24 921.536 142.6 919.722 145.32C917.962 147.987 917.082 151.827 917.082 156.84V179H910.042V118.2H917.082V136.04ZM975.735 135.4C980.962 135.4 984.829 136.547 987.335 138.84C989.842 141.133 991.095 144.787 991.095 149.8V179H985.975L984.615 172.92H984.295C982.429 175.267 980.455 177 978.375 178.12C976.349 179.24 973.522 179.8 969.895 179.8C966.002 179.8 962.775 178.787 960.215 176.76C957.655 174.68 956.375 171.453 956.375 167.08C956.375 162.813 958.055 159.533 961.415 157.24C964.775 154.893 969.949 153.613 976.935 153.4L984.215 153.16V150.6C984.215 147.027 983.442 144.547 981.895 143.16C980.349 141.773 978.162 141.08 975.335 141.08C973.095 141.08 970.962 141.427 968.935 142.12C966.909 142.76 965.015 143.507 963.255 144.36L961.095 139.08C962.962 138.067 965.175 137.213 967.735 136.52C970.295 135.773 972.962 135.4 975.735 135.4ZM977.815 158.28C972.482 158.493 968.775 159.347 966.695 160.84C964.669 162.333 963.655 164.44 963.655 167.16C963.655 169.56 964.375 171.32 965.815 172.44C967.309 173.56 969.202 174.12 971.495 174.12C975.122 174.12 978.135 173.133 980.535 171.16C982.935 169.133 984.135 166.04 984.135 161.88V158.04L977.815 158.28ZM1024.98 135.32C1030.1 135.32 1033.97 136.573 1036.58 139.08C1039.19 141.533 1040.5 145.533 1040.5 151.08V179H1033.54V151.56C1033.54 144.68 1030.34 141.24 1023.94 141.24C1019.19 141.24 1015.91 142.573 1014.1 145.24C1012.29 147.907 1011.38 151.747 1011.38 156.76V179H1004.34V136.12H1010.02L1011.06 141.96H1011.46C1012.85 139.72 1014.77 138.067 1017.22 137C1019.67 135.88 1022.26 135.32 1024.98 135.32ZM1068.99 179.8C1063.66 179.8 1059.39 177.96 1056.19 174.28C1052.99 170.547 1051.39 165 1051.39 157.64C1051.39 150.28 1052.99 144.733 1056.19 141C1059.45 137.213 1063.74 135.32 1069.07 135.32C1072.38 135.32 1075.07 135.933 1077.15 137.16C1079.29 138.387 1081.02 139.88 1082.35 141.64H1082.83C1082.78 140.947 1082.67 139.933 1082.51 138.6C1082.41 137.213 1082.35 136.12 1082.35 135.32V118.2H1089.39V179H1083.71L1082.67 173.24H1082.35C1081.07 175.053 1079.37 176.6 1077.23 177.88C1075.1 179.16 1072.35 179.8 1068.99 179.8ZM1070.11 173.96C1074.65 173.96 1077.82 172.733 1079.63 170.28C1081.5 167.773 1082.43 164.013 1082.43 159V157.72C1082.43 152.387 1081.55 148.307 1079.79 145.48C1078.03 142.6 1074.78 141.16 1070.03 141.16C1066.25 141.16 1063.39 142.68 1061.47 145.72C1059.61 148.707 1058.67 152.733 1058.67 157.8C1058.67 162.92 1059.61 166.893 1061.47 169.72C1063.39 172.547 1066.27 173.96 1070.11 173.96ZM1110.05 133C1110.05 134.813 1110 136.52 1109.89 138.12C1109.84 139.667 1109.76 140.893 1109.65 141.8H1110.05C1111.28 139.987 1112.96 138.467 1115.09 137.24C1117.22 136.013 1119.97 135.4 1123.33 135.4C1128.66 135.4 1132.93 137.267 1136.13 141C1139.38 144.68 1141.01 150.2 1141.01 157.56C1141.01 164.92 1139.38 170.467 1136.13 174.2C1132.88 177.933 1128.61 179.8 1123.33 179.8C1119.97 179.8 1117.22 179.187 1115.09 177.96C1112.96 176.733 1111.28 175.267 1110.05 173.56H1109.49L1108.05 179H1103.01V118.2H1110.05V133ZM1122.13 141.24C1117.6 141.24 1114.45 142.547 1112.69 145.16C1110.93 147.773 1110.05 151.827 1110.05 157.32V157.64C1110.05 162.92 1110.9 166.973 1112.61 169.8C1114.37 172.573 1117.6 173.96 1122.29 173.96C1126.13 173.96 1128.98 172.547 1130.85 169.72C1132.77 166.893 1133.73 162.813 1133.73 157.48C1133.73 146.653 1129.86 141.24 1122.13 141.24ZM1189.51 157.48C1189.51 164.573 1187.7 170.067 1184.07 173.96C1180.5 177.853 1175.64 179.8 1169.51 179.8C1165.72 179.8 1162.34 178.947 1159.35 177.24C1156.42 175.48 1154.1 172.947 1152.39 169.64C1150.68 166.28 1149.83 162.227 1149.83 157.48C1149.83 150.387 1151.62 144.92 1155.19 141.08C1158.76 137.24 1163.62 135.32 1169.75 135.32C1173.64 135.32 1177.06 136.2 1179.99 137.96C1182.98 139.667 1185.3 142.173 1186.95 145.48C1188.66 148.733 1189.51 152.733 1189.51 157.48ZM1157.11 157.48C1157.11 162.547 1158.1 166.573 1160.07 169.56C1162.1 172.493 1165.3 173.96 1169.67 173.96C1173.99 173.96 1177.16 172.493 1179.19 169.56C1181.22 166.573 1182.23 162.547 1182.23 157.48C1182.23 152.413 1181.22 148.44 1179.19 145.56C1177.16 142.68 1173.96 141.24 1169.59 141.24C1165.22 141.24 1162.04 142.68 1160.07 145.56C1158.1 148.44 1157.11 152.413 1157.11 157.48ZM1237.95 157.48C1237.95 164.573 1236.13 170.067 1232.51 173.96C1228.93 177.853 1224.08 179.8 1217.95 179.8C1214.16 179.8 1210.77 178.947 1207.79 177.24C1204.85 175.48 1202.53 172.947 1200.83 169.64C1199.12 166.28 1198.27 162.227 1198.27 157.48C1198.27 150.387 1200.05 144.92 1203.63 141.08C1207.2 137.24 1212.05 135.32 1218.19 135.32C1222.08 135.32 1225.49 136.2 1228.43 137.96C1231.41 139.667 1233.73 142.173 1235.39 145.48C1237.09 148.733 1237.95 152.733 1237.95 157.48ZM1205.55 157.48C1205.55 162.547 1206.53 166.573 1208.51 169.56C1210.53 172.493 1213.73 173.96 1218.11 173.96C1222.43 173.96 1225.6 172.493 1227.63 169.56C1229.65 166.573 1230.67 162.547 1230.67 157.48C1230.67 152.413 1229.65 148.44 1227.63 145.56C1225.6 142.68 1222.4 141.24 1218.03 141.24C1213.65 141.24 1210.48 142.68 1208.51 145.56C1206.53 148.44 1205.55 152.413 1205.55 157.48ZM1256.06 149.96C1256.06 150.813 1256.01 151.933 1255.9 153.32C1255.85 154.707 1255.8 155.907 1255.74 156.92H1256.06C1256.38 156.493 1256.86 155.88 1257.5 155.08C1258.14 154.28 1258.78 153.48 1259.42 152.68C1260.12 151.827 1260.7 151.133 1261.18 150.6L1274.86 136.12H1283.1L1265.74 154.44L1284.3 179H1275.82L1260.94 159L1256.06 163.24V179H1249.1V118.2H1256.06V149.96ZM1332.38 141.56H1321.58V179H1314.54V141.56H1307.02V138.28L1314.54 135.88V133.4C1314.54 127.853 1315.77 123.88 1318.22 121.48C1320.67 119.027 1324.09 117.8 1328.46 117.8C1330.17 117.8 1331.71 117.96 1333.1 118.28C1334.54 118.547 1335.77 118.867 1336.78 119.24L1334.94 124.76C1334.09 124.493 1333.1 124.227 1331.98 123.96C1330.86 123.693 1329.71 123.56 1328.54 123.56C1326.19 123.56 1324.43 124.36 1323.26 125.96C1322.14 127.507 1321.58 129.96 1321.58 133.32V136.12H1332.38V141.56ZM1377.4 157.48C1377.4 164.573 1375.59 170.067 1371.96 173.96C1368.39 177.853 1363.53 179.8 1357.4 179.8C1353.61 179.8 1350.23 178.947 1347.24 177.24C1344.31 175.48 1341.99 172.947 1340.28 169.64C1338.57 166.28 1337.72 162.227 1337.72 157.48C1337.72 150.387 1339.51 144.92 1343.08 141.08C1346.65 137.24 1351.51 135.32 1357.64 135.32C1361.53 135.32 1364.95 136.2 1367.88 137.96C1370.87 139.667 1373.19 142.173 1374.84 145.48C1376.55 148.733 1377.4 152.733 1377.4 157.48ZM1345 157.48C1345 162.547 1345.99 166.573 1347.96 169.56C1349.99 172.493 1353.19 173.96 1357.56 173.96C1361.88 173.96 1365.05 172.493 1367.08 169.56C1369.11 166.573 1370.12 162.547 1370.12 157.48C1370.12 152.413 1369.11 148.44 1367.08 145.56C1365.05 142.68 1361.85 141.24 1357.48 141.24C1353.11 141.24 1349.93 142.68 1347.96 145.56C1345.99 148.44 1345 152.413 1345 157.48ZM1408.56 135.32C1409.36 135.32 1410.21 135.373 1411.12 135.48C1412.08 135.533 1412.9 135.64 1413.6 135.8L1412.72 142.28C1412.02 142.12 1411.25 141.987 1410.4 141.88C1409.6 141.773 1408.82 141.72 1408.08 141.72C1405.89 141.72 1403.84 142.333 1401.92 143.56C1400 144.733 1398.45 146.413 1397.28 148.6C1396.16 150.733 1395.6 153.24 1395.6 156.12V179H1388.56V136.12H1394.32L1395.12 143.96H1395.44C1396.82 141.613 1398.61 139.587 1400.8 137.88C1402.98 136.173 1405.57 135.32 1408.56 135.32Z" fill="#9B9B9B"/>
<g id="Group 4" filter="url(#filter0_d)">
<g id="nodejs-logo 1" clip-path="url(#clip0)">
<path id="Vector" d="M454.53 885.239C452.583 885.239 450.65 884.729 448.943 883.746L431.161 873.218C428.505 871.733 429.801 871.207 430.677 870.905C434.218 869.665 434.937 869.385 438.717 867.238C439.114 867.011 439.634 867.091 440.04 867.331L453.702 875.438C454.195 875.705 454.895 875.705 455.352 875.438L508.619 844.691C509.112 844.411 509.432 843.838 509.432 843.251V781.785C509.432 781.172 509.112 780.625 508.608 780.318L455.363 749.598C454.87 749.305 454.216 749.305 453.723 749.598L400.489 780.318C399.973 780.612 399.645 781.185 399.645 781.772V843.238C399.645 843.825 399.965 844.385 400.471 844.665L415.058 853.091C422.978 857.051 427.818 852.385 427.818 847.691V787.025C427.818 786.158 428.498 785.492 429.365 785.492H436.111C436.951 785.492 437.645 786.158 437.645 787.025V847.718C437.645 858.278 431.885 864.345 421.871 864.345C418.791 864.345 416.365 864.345 409.591 861.011L395.618 852.958C393.919 851.967 392.509 850.548 391.529 848.843C390.549 847.137 390.033 845.205 390.031 843.238V781.772C390.031 777.772 392.165 774.038 395.618 772.065L448.938 741.305C452.311 739.398 456.791 739.398 460.138 741.305L513.391 772.078C515.09 773.066 516.499 774.483 517.48 776.186C518.46 777.889 518.977 779.82 518.978 781.785V843.251C518.978 847.238 516.831 850.958 513.391 852.958L460.138 883.718C458.431 884.701 456.494 885.216 454.524 885.211" fill="#689F63"/>
<path id="Vector_2" d="M470.982 842.885C447.676 842.885 442.789 832.186 442.789 823.213C442.789 822.359 443.477 821.679 444.332 821.679H451.212C451.972 821.679 452.612 822.233 452.732 822.983C453.772 829.994 456.865 833.53 470.958 833.53C482.185 833.53 486.958 830.994 486.958 825.041C486.958 821.614 485.598 819.067 468.158 817.361C453.572 815.921 444.558 812.707 444.558 801.041C444.558 790.294 453.625 783.894 468.812 783.894C485.865 783.894 494.318 789.814 495.385 802.534C495.403 802.748 495.376 802.963 495.306 803.166C495.236 803.369 495.125 803.555 494.98 803.713C494.835 803.871 494.658 803.997 494.462 804.083C494.265 804.17 494.053 804.214 493.838 804.214H486.918C486.198 804.214 485.572 803.707 485.425 803.014C483.758 795.641 479.732 793.281 468.785 793.281C456.532 793.281 455.105 797.547 455.105 800.747C455.105 804.627 456.785 805.761 473.318 807.947C489.692 810.121 497.465 813.187 497.465 824.694C497.465 836.294 487.785 842.947 470.905 842.947L470.982 842.885ZM535.785 777.761H537.572C539.038 777.761 539.318 776.734 539.318 776.134C539.318 774.561 538.238 774.561 537.638 774.561H535.798L535.785 777.761ZM533.612 772.721H537.572C538.932 772.721 541.598 772.721 541.598 775.761C541.598 777.881 540.238 778.321 539.425 778.588C541.012 778.694 541.118 779.734 541.332 781.201C541.438 782.121 541.612 783.708 541.932 784.241H539.492C539.425 783.708 539.052 780.774 539.052 780.614C538.892 779.961 538.665 779.641 537.852 779.641H535.838V784.254H533.612V772.721ZM528.852 778.454C528.852 783.228 532.705 787.094 537.438 787.094C542.212 787.094 546.065 783.148 546.065 778.454C546.065 773.668 542.158 769.868 537.425 769.868C532.758 769.868 528.838 773.614 528.838 778.441L528.852 778.454ZM547.718 778.481C547.718 784.134 543.092 788.748 537.452 788.748C531.852 788.748 527.185 784.188 527.185 778.481C527.185 772.668 531.958 768.214 537.452 768.214C542.985 768.214 547.705 772.681 547.705 778.481" fill="#689F63"/>
<path id="Vector_3" fill-rule="evenodd" clip-rule="evenodd" d="M289.581 644.733C289.581 642.28 288.288 640.026 286.17 638.806L229.696 606.313C228.751 605.763 227.685 605.456 226.592 605.42H226.008C224.925 605.46 223.857 605.753 222.888 606.313L166.416 638.806C165.378 639.411 164.516 640.276 163.916 641.317C163.317 642.358 163.001 643.538 163 644.74L163.124 732.26C163.124 733.473 163.751 734.606 164.817 735.206C165.857 735.846 167.164 735.846 168.204 735.206L201.777 715.98C203.897 714.718 205.191 712.489 205.191 710.06V669.173C205.188 667.976 205.502 666.799 206.1 665.762C206.698 664.725 207.56 663.864 208.597 663.266L222.891 655.034C223.927 654.432 225.105 654.116 226.304 654.117C227.472 654.117 228.664 654.418 229.696 655.033L243.983 663.262C246.097 664.476 247.396 666.729 247.396 669.169V710.053C247.396 712.48 248.707 714.72 250.816 715.973L284.368 735.186C284.884 735.494 285.474 735.656 286.074 735.656C286.675 735.656 287.265 735.494 287.781 735.186C288.295 734.885 288.721 734.454 289.018 733.937C289.314 733.421 289.471 732.835 289.472 732.24L289.581 644.733ZM556.071 690.301C556.071 690.91 555.747 691.474 555.218 691.776L535.821 702.957C535.562 703.106 535.268 703.184 534.969 703.184C534.671 703.184 534.377 703.106 534.118 702.957L514.718 691.776C514.185 691.473 513.865 690.909 513.865 690.301V667.906C513.865 667.296 514.185 666.733 514.705 666.426L534.091 655.226C534.625 654.92 535.278 654.92 535.811 655.226L555.211 666.426C555.745 666.733 556.065 667.296 556.065 667.906L556.071 690.301ZM561.311 524.432C560.791 524.143 560.205 523.994 559.611 524C559.016 524.007 558.433 524.168 557.919 524.468C556.879 525.081 556.237 526.201 556.237 527.415V614.081C556.237 614.5 556.127 614.912 555.918 615.275C555.709 615.638 555.408 615.94 555.045 616.149C554.682 616.359 554.27 616.469 553.851 616.469C553.432 616.468 553.021 616.358 552.658 616.148L538.511 608C537.475 607.401 536.3 607.086 535.103 607.086C533.907 607.086 532.731 607.401 531.695 608L475.202 640.604C474.166 641.2 473.305 642.058 472.705 643.093C472.106 644.127 471.79 645.302 471.789 646.497V711.724C471.789 714.164 473.091 716.404 475.202 717.63L531.695 750.257C533.805 751.47 536.402 751.47 538.518 750.257L595.011 717.617C597.118 716.39 598.425 714.15 598.425 711.71V549.151C598.423 547.935 598.097 546.742 597.48 545.695C596.864 544.647 595.979 543.783 594.918 543.191L561.311 524.432ZM749.435 667.317C750.466 666.717 751.323 665.856 751.917 664.822C752.512 663.787 752.826 662.615 752.826 661.421V645.613C752.826 643.181 751.532 640.937 749.43 639.713L693.296 607.126C692.257 606.524 691.077 606.207 689.876 606.207C688.675 606.207 687.495 606.524 686.456 607.126L629.976 639.726C627.856 640.953 626.563 643.193 626.563 645.633V710.833C626.563 713.286 627.883 715.553 630.003 716.766L686.123 748.753C688.19 749.94 690.723 749.953 692.816 748.793L726.763 729.926C727.83 729.326 728.51 728.193 728.51 726.966C728.51 725.74 727.856 724.593 726.79 723.993L669.963 691.38C668.896 690.78 668.243 689.646 668.243 688.433V667.98C668.243 666.758 668.883 665.633 669.95 665.025L687.63 654.825C688.683 654.212 689.976 654.212 691.03 654.825L708.723 665.025C709.776 665.625 710.43 666.758 710.43 667.972V684.052C710.43 685.265 711.083 686.398 712.136 687.012C713.19 687.612 714.496 687.612 715.55 686.998L749.435 667.317Z" fill="white"/>
<path id="Vector_4" fill-rule="evenodd" clip-rule="evenodd" d="M689.051 664.266C689.249 664.15 689.474 664.089 689.704 664.089C689.934 664.089 690.159 664.15 690.357 664.266L701.197 670.52C701.603 670.754 701.851 671.186 701.851 671.653V684.173C701.851 684.64 701.603 685.072 701.197 685.306L690.357 691.56C690.159 691.676 689.934 691.737 689.704 691.737C689.474 691.737 689.249 691.676 689.051 691.56L678.217 685.306C678.016 685.193 677.848 685.029 677.731 684.83C677.614 684.631 677.552 684.404 677.551 684.173V671.653C677.551 671.186 677.791 670.754 678.204 670.52L689.051 664.266Z" fill="#689F63"/>
<g id="Group">
<path id="Vector_5" d="M500.411 634.369L342.125 556.783L260.965 722.348L419.247 799.938L500.411 634.369Z" fill="url(#paint1_linear)"/>
</g>
<g id="Group_2">
<path id="Vector_6" d="M250.688 657.317L362.454 808.587L510.267 699.38L398.494 548.113L250.688 657.317Z" fill="url(#paint2_linear)"/>
</g>
<g id="Group_3">
<path id="Vector_7" d="M321.285 606.557V749.797H443.529V606.557H321.285Z" fill="url(#paint3_linear)"/>
</g>
</g>
</g>
<g id="Group 3" filter="url(#filter1_d)">
<g id="Typescript_logo_2020 1">
<path id="Vector_8" d="M1634.53 532H1350.47C1331.43 532 1316 547.434 1316 566.473V850.527C1316 869.566 1331.43 885 1350.47 885H1634.53C1653.57 885 1669 869.566 1669 850.527V566.473C1669 547.434 1653.57 532 1634.53 532Z" fill="#3178C6"/>
<path id="Vector_9" fill-rule="evenodd" clip-rule="evenodd" d="M1534.56 812.607V847.08C1540.14 849.976 1546.97 852.113 1554.55 853.561C1562.13 855.009 1570.41 855.698 1578.68 855.698C1586.96 855.698 1594.54 854.94 1602.12 853.354C1609.71 851.768 1615.91 849.148 1621.43 845.77C1627.01 842.116 1631.77 837.497 1634.53 831.292C1637.29 825.087 1639.42 818.192 1639.42 809.229C1639.42 802.955 1638.46 797.508 1636.6 792.682C1634.73 787.856 1632.05 783.719 1628.32 780.272C1624.81 776.618 1620.74 773.378 1615.91 770.62C1611.09 767.862 1605.57 764.966 1599.37 762.346C1594.81 760.485 1591.09 758.692 1586.96 756.9C1583.37 755.107 1580.27 753.314 1577.99 751.522C1575.44 749.66 1573.51 747.73 1572.13 745.73C1570.75 743.662 1570.06 741.387 1570.06 738.836C1570.06 736.492 1570.68 734.354 1571.93 732.424C1573.17 730.494 1574.89 728.908 1577.1 727.529C1579.3 726.15 1582.06 725.116 1585.37 724.357C1588.61 723.599 1592.19 723.254 1596.4 723.254C1599.3 723.254 1602.33 723.468 1605.36 723.902C1608.53 724.337 1611.78 725.006 1615.02 725.902C1618.26 726.798 1621.43 727.901 1624.67 729.28C1627.7 730.659 1630.53 732.245 1632.94 734.037V701.633C1627.7 699.634 1621.91 698.117 1615.71 697.152C1609.5 696.186 1602.61 695.704 1594.33 695.704C1586.06 695.704 1578.47 696.6 1570.89 698.324C1563.31 700.047 1557.1 702.805 1551.59 706.597C1546 710.32 1541.93 714.871 1538.49 721.076C1535.25 726.867 1533.66 733.486 1533.66 741.759C1533.66 752.101 1536.63 761.064 1542.62 767.958C1548.55 775.542 1557.79 781.058 1569.51 786.574C1574.27 788.504 1578.47 790.435 1582.61 792.296C1586.75 794.158 1590.2 796.088 1592.95 798.088C1595.92 800.087 1598.26 802.293 1599.85 804.637C1601.57 806.981 1602.47 809.739 1602.47 812.911C1602.47 815.117 1601.93 817.185 1600.88 819.116C1599.83 821.046 1598.19 822.701 1595.99 824.08C1593.78 825.459 1591.09 826.562 1587.71 827.389C1584.47 828.148 1580.82 828.561 1575.99 828.561C1568.41 828.561 1560.82 827.251 1553.93 824.631C1546.35 822.012 1539.45 818.082 1533.25 812.911L1534.56 812.607ZM1476.64 727.805H1520.77V699.537H1397.36V727.805H1441.48V853.975H1476.64V727.805Z" fill="white"/>
</g>
</g>
</g>
<defs>
<filter id="filter0_d" x="159" y="524" width="597.827" height="369.238" filterUnits="userSpaceOnUse" color-interpolation-filters="sRGB">
<feFlood flood-opacity="0" result="BackgroundImageFix"/>
<feColorMatrix in="SourceAlpha" type="matrix" values="0 0 0 0 0 0 0 0 0 0 0 0 0 0 0 0 0 0 127 0"/>
<feOffset dy="4"/>
<feGaussianBlur stdDeviation="2"/>
<feColorMatrix type="matrix" values="0 0 0 0 0 0 0 0 0 0 0 0 0 0 0 0 0 0 0.25 0"/>
<feBlend mode="normal" in2="BackgroundImageFix" result="effect1_dropShadow"/>
<feBlend mode="normal" in="SourceGraphic" in2="effect1_dropShadow" result="shape"/>
</filter>
<filter id="filter1_d" x="1312" y="532" width="361" height="361" filterUnits="userSpaceOnUse" color-interpolation-filters="sRGB">
<feFlood flood-opacity="0" result="BackgroundImageFix"/>
<feColorMatrix in="SourceAlpha" type="matrix" values="0 0 0 0 0 0 0 0 0 0 0 0 0 0 0 0 0 0 127 0"/>
<feOffset dy="4"/>
<feGaussianBlur stdDeviation="2"/>
<feColorMatrix type="matrix" values="0 0 0 0 0 0 0 0 0 0 0 0 0 0 0 0 0 0 0.25 0"/>
<feBlend mode="normal" in2="BackgroundImageFix" result="effect1_dropShadow"/>
<feBlend mode="normal" in="SourceGraphic" in2="effect1_dropShadow" result="shape"/>
</filter>
<linearGradient id="paint0_linear" x1="948.605" y1="-540" x2="31.2584" y2="1110.2" gradientUnits="userSpaceOnUse">
<stop stop-color="#0B0B0B" stop-opacity="0.01"/>
<stop offset="1"/>
</linearGradient>
<linearGradient id="paint1_linear" x1="421.22" y1="595.454" x2="340.066" y2="761.008" gradientUnits="userSpaceOnUse">
<stop offset="0.3" stop-color="#3E863D"/>
<stop offset="0.5" stop-color="#55934F"/>
<stop offset="0.8" stop-color="#5AAD45"/>
</linearGradient>
<linearGradient id="paint2_linear" x1="307.241" y1="733.819" x2="455.059" y2="624.599" gradientUnits="userSpaceOnUse">
<stop offset="0.57" stop-color="#3E863D"/>
<stop offset="0.72" stop-color="#619857"/>
<stop offset="1" stop-color="#76AC64"/>
</linearGradient>
<linearGradient id="paint3_linear" x1="321.326" y1="678.181" x2="443.552" y2="678.181" gradientUnits="userSpaceOnUse">
<stop offset="0.16" stop-color="#6BBF47"/>
<stop offset="0.38" stop-color="#79B461"/>
<stop offset="0.47" stop-color="#75AC64"/>
<stop offset="0.7" stop-color="#659E5A"/>
<stop offset="0.9" stop-color="#3E863D"/>
</linearGradient>
<clipPath id="clip0">
<rect width="589.827" height="361.238" fill="white" transform="translate(163 524)"/>
</clipPath>
</defs>
</svg>
