<svg width="1920" height="1080" viewBox="0 0 1920 1080" fill="none" xmlns="http://www.w3.org/2000/svg">
<g clip-path="url(#clip0_1125_2)">
<path d="M1920 0H0V1080H1920V0Z" fill="url(#paint0_linear_1125_2)" fill-opacity="0.5"/>
<path d="M642.031 178.324C637.576 178.324 633.695 177.244 630.387 175.085C627.107 172.926 624.565 169.687 622.761 165.368C620.957 161.049 620.055 155.637 620.055 149.132C620.055 144.267 620.698 140.016 621.982 136.381C623.294 132.746 625.057 129.712 627.271 127.279C629.513 124.846 632.041 123.029 634.856 121.826C637.699 120.623 640.637 120.022 643.671 120.022C647.361 120.022 650.423 120.555 652.855 121.621C655.288 122.66 657.611 124.19 659.825 126.213L655.52 130.682C653.798 129.069 651.981 127.88 650.067 127.115C648.181 126.35 646.063 125.967 643.712 125.967C641.662 125.967 639.681 126.363 637.767 127.156C635.854 127.949 634.132 129.247 632.601 131.051C631.098 132.828 629.895 135.192 628.993 138.144C628.119 141.096 627.681 144.759 627.681 149.132C627.681 154.571 628.242 158.999 629.362 162.416C630.51 165.833 632.191 168.347 634.405 169.96C636.647 171.545 639.407 172.338 642.687 172.338C644.655 172.338 646.514 172.106 648.263 171.641C650.04 171.176 651.762 170.507 653.429 169.632V152.412H642.318L641.457 146.508H660.481V173.404C657.939 174.771 655.233 175.932 652.363 176.889C649.493 177.846 646.049 178.324 642.031 178.324ZM680.621 134.208V164.794C680.621 167.637 681.209 169.687 682.384 170.944C683.56 172.201 685.391 172.83 687.878 172.83C690.256 172.83 692.498 172.16 694.602 170.821C696.734 169.454 698.388 167.842 699.563 165.983V134.208H706.451V177.381H700.588L700.014 171.559C698.32 173.746 696.229 175.427 693.741 176.602C691.254 177.75 688.739 178.324 686.197 178.324C682.015 178.324 678.886 177.217 676.808 175.003C674.758 172.762 673.733 169.632 673.733 165.614V134.208H680.621ZM744.754 134.208V171.928H756.931V177.381H724.541V171.928H737.866V139.661H724.951V134.208H744.754ZM739.26 113.995C740.791 113.995 742.007 114.46 742.909 115.389C743.838 116.318 744.303 117.453 744.303 118.792C744.303 120.186 743.838 121.361 742.909 122.318C742.007 123.247 740.791 123.712 739.26 123.712C737.811 123.712 736.622 123.247 735.693 122.318C734.764 121.361 734.299 120.186 734.299 118.792C734.299 117.453 734.764 116.318 735.693 115.389C736.622 114.46 737.811 113.995 739.26 113.995ZM797.899 115.963L804.787 116.824V177.381H798.76L798.104 171.682C796.491 173.978 794.633 175.659 792.528 176.725C790.451 177.791 788.223 178.324 785.845 178.324C782.1 178.324 779.012 177.381 776.579 175.495C774.146 173.609 772.342 170.985 771.167 167.623C769.992 164.234 769.404 160.311 769.404 155.856C769.404 151.537 770.074 147.683 771.413 144.294C772.752 140.877 774.679 138.199 777.194 136.258C779.736 134.29 782.784 133.306 786.337 133.306C788.824 133.306 791.011 133.743 792.897 134.618C794.783 135.465 796.45 136.723 797.899 138.39V115.963ZM788.141 138.841C784.533 138.841 781.759 140.249 779.818 143.064C777.877 145.879 776.907 150.143 776.907 155.856C776.907 159.573 777.303 162.689 778.096 165.204C778.889 167.719 780.05 169.605 781.581 170.862C783.139 172.119 785.039 172.748 787.28 172.748C789.74 172.748 791.831 172.051 793.553 170.657C795.302 169.263 796.751 167.691 797.899 165.942V144.376C796.724 142.627 795.302 141.274 793.635 140.317C791.968 139.333 790.136 138.841 788.141 138.841ZM826.649 158.234C826.786 161.569 827.428 164.302 828.576 166.434C829.724 168.539 831.241 170.097 833.127 171.108C835.013 172.092 837.063 172.584 839.277 172.584C841.491 172.584 843.486 172.256 845.263 171.6C847.067 170.944 848.912 169.974 850.798 168.689L854.037 173.24C852.014 174.825 849.705 176.069 847.108 176.971C844.539 177.873 841.901 178.324 839.195 178.324C835.013 178.324 831.446 177.381 828.494 175.495C825.542 173.609 823.287 170.985 821.729 167.623C820.198 164.234 819.433 160.311 819.433 155.856C819.433 151.483 820.212 147.601 821.77 144.212C823.328 140.823 825.515 138.158 828.33 136.217C831.145 134.276 834.466 133.306 838.293 133.306C841.928 133.306 845.058 134.167 847.682 135.889C850.306 137.584 852.315 140.016 853.709 143.187C855.13 146.33 855.841 150.089 855.841 154.462C855.841 155.2 855.827 155.897 855.8 156.553C855.773 157.182 855.732 157.742 855.677 158.234H826.649ZM838.375 138.964C835.177 138.964 832.498 140.098 830.339 142.367C828.207 144.636 826.991 148.148 826.69 152.904H849.199C849.117 148.285 848.106 144.813 846.165 142.49C844.224 140.139 841.628 138.964 838.375 138.964ZM953.849 175.208C952.373 176.192 950.583 176.957 948.478 177.504C946.373 178.051 944.31 178.324 942.287 178.324C937.64 178.324 934.06 177.108 931.545 174.675C929.03 172.242 927.773 169.113 927.773 165.286V139.538H917.851V134.208H927.773V124.409L934.661 123.589V134.208H949.585L948.765 139.538H934.661V165.204C934.661 167.609 935.29 169.441 936.547 170.698C937.832 171.955 939.95 172.584 942.902 172.584C944.515 172.584 946.004 172.393 947.371 172.01C948.738 171.627 950.009 171.135 951.184 170.534L953.849 175.208ZM985.182 133.306C989.255 133.306 992.658 134.235 995.391 136.094C998.152 137.925 1000.22 140.522 1001.58 143.884C1002.98 147.246 1003.67 151.209 1003.67 155.774C1003.67 160.175 1002.96 164.07 1001.54 167.459C1000.12 170.848 998.029 173.513 995.268 175.454C992.535 177.367 989.145 178.324 985.1 178.324C981.055 178.324 977.652 177.395 974.891 175.536C972.13 173.677 970.039 171.067 968.618 167.705C967.224 164.316 966.527 160.366 966.527 155.856C966.527 151.401 967.238 147.478 968.659 144.089C970.08 140.7 972.171 138.062 974.932 136.176C977.72 134.263 981.137 133.306 985.182 133.306ZM985.182 138.923C981.465 138.923 978.649 140.303 976.736 143.064C974.85 145.797 973.907 150.061 973.907 155.856C973.907 161.541 974.836 165.764 976.695 168.525C978.581 171.286 981.383 172.666 985.1 172.666C988.817 172.666 991.605 171.286 993.464 168.525C995.35 165.764 996.293 161.514 996.293 155.774C996.293 150.034 995.364 145.797 993.505 143.064C991.646 140.303 988.872 138.923 985.182 138.923ZM1073.96 134.208V164.794C1073.96 167.637 1074.55 169.687 1075.73 170.944C1076.9 172.201 1078.73 172.83 1081.22 172.83C1083.6 172.83 1085.84 172.16 1087.95 170.821C1090.08 169.454 1091.73 167.842 1092.91 165.983V134.208H1099.79V177.381H1093.93L1093.36 171.559C1091.66 173.746 1089.57 175.427 1087.08 176.602C1084.6 177.75 1082.08 178.324 1079.54 178.324C1075.36 178.324 1072.23 177.217 1070.15 175.003C1068.1 172.762 1067.08 169.632 1067.08 165.614V134.208H1073.96ZM1130.92 172.625C1134.23 172.625 1136.84 172.01 1138.75 170.78C1140.69 169.523 1141.66 167.855 1141.66 165.778C1141.66 164.466 1141.42 163.332 1140.93 162.375C1140.46 161.418 1139.49 160.557 1138.02 159.792C1136.54 159.027 1134.27 158.261 1131.21 157.496C1128.23 156.758 1125.63 155.911 1123.42 154.954C1121.23 153.97 1119.52 152.699 1118.29 151.141C1117.09 149.583 1116.49 147.56 1116.49 145.073C1116.49 142.64 1117.17 140.549 1118.54 138.8C1119.93 137.023 1121.86 135.67 1124.32 134.741C1126.78 133.784 1129.64 133.306 1132.89 133.306C1136.36 133.306 1139.38 133.771 1141.95 134.7C1144.55 135.602 1146.75 136.723 1148.55 138.062L1145.52 142.736C1143.88 141.615 1142.07 140.7 1140.11 139.989C1138.14 139.251 1135.76 138.882 1132.97 138.882C1129.58 138.882 1127.18 139.415 1125.76 140.481C1124.34 141.52 1123.62 142.873 1123.62 144.54C1123.62 145.797 1123.97 146.85 1124.65 147.697C1125.36 148.517 1126.55 149.269 1128.22 149.952C1129.88 150.608 1132.18 151.332 1135.1 152.125C1137.92 152.863 1140.37 153.751 1142.44 154.79C1144.55 155.829 1146.19 157.195 1147.36 158.89C1148.54 160.585 1149.13 162.771 1149.13 165.45C1149.13 168.511 1148.25 170.999 1146.5 172.912C1144.75 174.798 1142.48 176.178 1139.7 177.053C1136.94 177.9 1134.01 178.324 1130.92 178.324C1127.01 178.324 1123.68 177.764 1120.92 176.643C1118.19 175.495 1115.89 174.115 1114.03 172.502L1117.97 167.951C1119.66 169.345 1121.6 170.479 1123.79 171.354C1126 172.201 1128.38 172.625 1130.92 172.625ZM1187.27 134.208V171.928H1199.44V177.381H1167.05V171.928H1180.38V139.661H1167.46V134.208H1187.27ZM1181.77 113.995C1183.3 113.995 1184.52 114.46 1185.42 115.389C1186.35 116.318 1186.81 117.453 1186.81 118.792C1186.81 120.186 1186.35 121.361 1185.42 122.318C1184.52 123.247 1183.3 123.712 1181.77 123.712C1180.32 123.712 1179.13 123.247 1178.2 122.318C1177.28 121.361 1176.81 120.186 1176.81 118.792C1176.81 117.453 1177.28 116.318 1178.2 115.389C1179.13 114.46 1180.32 113.995 1181.77 113.995ZM1214.58 177.381V134.208H1220.44L1220.98 140.194C1222.73 137.98 1224.91 136.285 1227.54 135.11C1230.19 133.907 1232.76 133.306 1235.24 133.306C1239.48 133.306 1242.56 134.427 1244.47 136.668C1246.41 138.909 1247.38 142.025 1247.38 146.016V177.381H1240.49V151.1C1240.49 148.148 1240.33 145.77 1240 143.966C1239.67 142.135 1238.99 140.809 1237.95 139.989C1236.91 139.142 1235.3 138.718 1233.11 138.718C1231.42 138.718 1229.82 139.087 1228.32 139.825C1226.84 140.563 1225.51 141.492 1224.34 142.613C1223.19 143.706 1222.23 144.813 1221.47 145.934V177.381H1214.58ZM1298.84 129.616L1300.98 136.094C1299.15 136.668 1297.19 137.023 1295.11 137.16C1293.04 137.297 1290.78 137.365 1288.35 137.365C1290.84 138.513 1292.71 140.003 1293.97 141.834C1295.22 143.638 1295.85 145.77 1295.85 148.23C1295.85 151.073 1295.21 153.601 1293.92 155.815C1292.64 158.029 1290.78 159.765 1288.35 161.022C1285.94 162.279 1283.03 162.908 1279.62 162.908C1278.17 162.908 1276.95 162.84 1275.97 162.703C1275.01 162.566 1274.08 162.361 1273.18 162.088C1272.52 162.525 1271.98 163.127 1271.54 163.892C1271.13 164.657 1270.92 165.45 1270.92 166.27C1270.92 167.309 1271.33 168.17 1272.15 168.853C1272.97 169.536 1274.49 169.878 1276.7 169.878H1284.49C1287.39 169.878 1289.99 170.397 1292.28 171.436C1294.61 172.475 1296.43 173.869 1297.74 175.618C1299.08 177.367 1299.75 179.363 1299.75 181.604C1299.75 185.841 1297.94 189.093 1294.33 191.362C1290.75 193.631 1285.68 194.765 1279.12 194.765C1274.53 194.765 1270.91 194.287 1268.26 193.33C1265.61 192.401 1263.71 190.966 1262.56 189.025C1261.44 187.112 1260.88 184.693 1260.88 181.768H1267.11C1267.11 183.435 1267.44 184.816 1268.09 185.909C1268.75 187.002 1269.94 187.809 1271.66 188.328C1273.38 188.875 1275.86 189.148 1279.08 189.148C1282.25 189.148 1284.84 188.875 1286.83 188.328C1288.85 187.809 1290.34 187.016 1291.3 185.95C1292.28 184.911 1292.78 183.613 1292.78 182.055C1292.78 180.005 1291.85 178.461 1289.99 177.422C1288.13 176.383 1285.81 175.864 1283.02 175.864H1275.31C1271.59 175.864 1268.85 175.044 1267.07 173.404C1265.32 171.764 1264.45 169.878 1264.45 167.746C1264.45 166.352 1264.84 164.999 1265.63 163.687C1266.45 162.375 1267.64 161.213 1269.2 160.202C1266.71 158.89 1264.88 157.264 1263.71 155.323C1262.53 153.382 1261.94 151.032 1261.94 148.271C1261.94 145.346 1262.67 142.763 1264.12 140.522C1265.57 138.253 1267.59 136.477 1270.19 135.192C1272.78 133.907 1275.78 133.265 1279.16 133.265C1282.8 133.238 1285.75 133.087 1288.02 132.814C1290.29 132.513 1292.23 132.09 1293.84 131.543C1295.48 130.996 1297.15 130.354 1298.84 129.616ZM1279.16 138.308C1275.69 138.308 1273.12 139.251 1271.46 141.137C1269.82 142.996 1269 145.374 1269 148.271C1269 151.196 1269.84 153.601 1271.54 155.487C1273.23 157.373 1275.83 158.316 1279.33 158.316C1282.39 158.316 1284.71 157.428 1286.3 155.651C1287.91 153.874 1288.72 151.401 1288.72 148.23C1288.72 144.977 1287.91 142.517 1286.3 140.85C1284.71 139.155 1282.34 138.308 1279.16 138.308Z" fill="#9CC1E4"/>
<path d="M144.448 298.854C144.448 304.539 143.669 309.582 142.111 313.983C140.58 318.356 138.27 321.787 135.182 324.274C132.093 326.734 128.253 327.964 123.661 327.964C119.096 327.964 115.256 326.761 112.14 324.356C109.051 321.923 106.728 318.534 105.17 314.188C103.639 309.842 102.874 304.758 102.874 298.936C102.874 293.223 103.639 288.167 105.17 283.766C106.728 279.365 109.051 275.921 112.14 273.434C115.256 270.919 119.096 269.662 123.661 269.662C128.253 269.662 132.093 270.878 135.182 273.311C138.27 275.744 140.58 279.147 142.111 283.52C143.669 287.893 144.448 293.005 144.448 298.854ZM136.986 298.854C136.986 291.337 135.947 285.584 133.87 281.593C131.82 277.602 128.417 275.607 123.661 275.607C118.905 275.607 115.488 277.616 113.411 281.634C111.361 285.652 110.336 291.419 110.336 298.936C110.336 306.453 111.402 312.179 113.534 316.115C115.666 320.024 119.041 321.978 123.661 321.978C128.417 321.978 131.82 320.01 133.87 316.074C135.947 312.111 136.986 306.371 136.986 298.854ZM175.986 322.019C178.145 322.019 180.154 321.664 182.013 320.953C183.899 320.242 185.634 319.34 187.22 318.247L190.582 322.757C188.696 324.37 186.427 325.641 183.776 326.57C181.124 327.499 178.528 327.964 175.986 327.964C171.694 327.964 168.032 327.048 164.998 325.217C161.991 323.358 159.695 320.762 158.11 317.427C156.524 314.065 155.732 310.129 155.732 305.619C155.732 301.3 156.524 297.433 158.11 294.016C159.722 290.572 162.032 287.866 165.039 285.898C168.073 283.93 171.749 282.946 176.068 282.946C178.828 282.946 181.411 283.37 183.817 284.217C186.249 285.037 188.477 286.281 190.5 287.948L187.138 292.54C185.306 291.255 183.461 290.299 181.603 289.67C179.771 289.014 177.899 288.686 175.986 288.686C172.268 288.686 169.207 290.08 166.802 292.868C164.396 295.656 163.194 299.906 163.194 305.619C163.194 309.446 163.74 312.575 164.834 315.008C165.954 317.413 167.471 319.19 169.385 320.338C171.325 321.459 173.526 322.019 175.986 322.019ZM241.799 283.848L222.365 303.282L244.054 327.021H234.993L213.755 303.446L232.861 283.848H241.799ZM212.976 265.603V327.021H206.088V266.464L212.976 265.603ZM285.719 317.591C285.719 319.313 286.006 320.57 286.58 321.363C287.154 322.156 288.043 322.743 289.245 323.126L287.564 327.964C285.706 327.718 284.079 327.13 282.685 326.201C281.291 325.244 280.28 323.809 279.651 321.896C278.093 323.891 276.153 325.408 273.829 326.447C271.506 327.458 268.937 327.964 266.121 327.964C261.803 327.964 258.4 326.748 255.912 324.315C253.425 321.882 252.181 318.657 252.181 314.639C252.181 310.184 253.917 306.767 257.388 304.389C260.86 302.011 265.875 300.822 272.435 300.822H278.79V297.214C278.79 294.098 277.875 291.898 276.043 290.613C274.239 289.301 271.725 288.645 268.499 288.645C267.078 288.645 265.411 288.823 263.497 289.178C261.584 289.506 259.507 290.066 257.265 290.859L255.461 285.652C258.113 284.668 260.6 283.971 262.923 283.561C265.247 283.151 267.461 282.946 269.565 282.946C274.95 282.946 278.982 284.203 281.66 286.718C284.366 289.205 285.719 292.595 285.719 296.886V317.591ZM267.884 322.716C270.016 322.716 272.053 322.183 273.993 321.117C275.934 320.024 277.533 318.52 278.79 316.607V305.496H272.558C267.802 305.496 264.44 306.316 262.472 307.956C260.532 309.596 259.561 311.796 259.561 314.557C259.561 317.236 260.245 319.272 261.611 320.666C263.005 322.033 265.096 322.716 267.884 322.716ZM332.427 282.946C333.821 282.946 335.147 283.247 336.404 283.848C337.689 284.449 338.741 285.611 339.561 287.333C340.381 289.055 340.791 291.57 340.791 294.877V327.021H334.395V295.984C334.395 293.278 334.231 291.324 333.903 290.121C333.575 288.918 332.632 288.317 331.074 288.317C329.79 288.317 328.505 288.727 327.22 289.547C325.963 290.34 324.733 291.652 323.53 293.483V327.021H317.093V295.984C317.093 293.278 316.929 291.324 316.601 290.121C316.273 288.918 315.33 288.317 313.772 288.317C312.433 288.317 311.135 288.727 309.877 289.547C308.647 290.34 307.431 291.652 306.228 293.483V327.021H299.873V283.848H305.285L305.695 288.85C306.871 287.183 308.183 285.789 309.631 284.668C311.107 283.52 312.925 282.946 315.084 282.946C316.724 282.946 318.269 283.342 319.717 284.135C321.166 284.9 322.232 286.404 322.915 288.645C324.091 286.95 325.416 285.584 326.892 284.545C328.368 283.479 330.213 282.946 332.427 282.946ZM438.143 286.39C438.143 289.205 437.528 291.665 436.298 293.77C435.096 295.875 433.456 297.61 431.378 298.977C429.301 300.344 426.964 301.341 424.367 301.97L441.095 327.021H432.567L417.151 302.79H409.525V327.021H402.391V270.564H416.905C423.875 270.564 429.151 271.903 432.731 274.582C436.339 277.233 438.143 281.169 438.143 286.39ZM430.517 286.39C430.517 282.755 429.479 280.158 427.401 278.6C425.324 277.015 422.099 276.222 417.725 276.222H409.525V297.214H417.725C421.771 297.214 424.914 296.394 427.155 294.754C429.397 293.087 430.517 290.299 430.517 286.39ZM467.918 282.946C471.991 282.946 475.394 283.875 478.127 285.734C480.888 287.565 482.952 290.162 484.318 293.524C485.712 296.886 486.409 300.849 486.409 305.414C486.409 309.815 485.699 313.71 484.277 317.099C482.856 320.488 480.765 323.153 478.004 325.094C475.271 327.007 471.882 327.964 467.836 327.964C463.791 327.964 460.388 327.035 457.627 325.176C454.867 323.317 452.776 320.707 451.354 317.345C449.96 313.956 449.263 310.006 449.263 305.496C449.263 301.041 449.974 297.118 451.395 293.729C452.817 290.34 454.908 287.702 457.668 285.816C460.456 283.903 463.873 282.946 467.918 282.946ZM467.918 288.563C464.201 288.563 461.386 289.943 459.472 292.704C457.586 295.437 456.643 299.701 456.643 305.496C456.643 311.181 457.573 315.404 459.431 318.165C461.317 320.926 464.119 322.306 467.836 322.306C471.554 322.306 474.342 320.926 476.2 318.165C478.086 315.404 479.029 311.154 479.029 305.414C479.029 299.674 478.1 295.437 476.241 292.704C474.383 289.943 471.608 288.563 467.918 288.563ZM507.533 283.848V314.434C507.533 317.277 508.121 319.327 509.296 320.584C510.472 321.841 512.303 322.47 514.79 322.47C517.168 322.47 519.41 321.8 521.514 320.461C523.646 319.094 525.3 317.482 526.475 315.623V283.848H533.363V327.021H527.5L526.926 321.199C525.232 323.386 523.141 325.067 520.653 326.242C518.166 327.39 515.651 327.964 513.109 327.964C508.927 327.964 505.798 326.857 503.72 324.643C501.67 322.402 500.645 319.272 500.645 315.254V283.848H507.533ZM584.089 324.848C582.613 325.832 580.823 326.597 578.718 327.144C576.614 327.691 574.55 327.964 572.527 327.964C567.881 327.964 564.3 326.748 561.785 324.315C559.271 321.882 558.013 318.753 558.013 314.926V289.178H548.091V283.848H558.013V274.049L564.901 273.229V283.848H579.825L579.005 289.178H564.901V314.844C564.901 317.249 565.53 319.081 566.787 320.338C568.072 321.595 570.19 322.224 573.142 322.224C574.755 322.224 576.245 322.033 577.611 321.65C578.978 321.267 580.249 320.775 581.424 320.174L584.089 324.848ZM620.834 283.848V321.568H633.011V327.021H600.621V321.568H613.946V289.301H601.031V283.848H620.834ZM615.34 263.635C616.871 263.635 618.087 264.1 618.989 265.029C619.919 265.958 620.383 267.093 620.383 268.432C620.383 269.826 619.919 271.001 618.989 271.958C618.087 272.887 616.871 273.352 615.34 273.352C613.892 273.352 612.703 272.887 611.773 271.958C610.844 271.001 610.379 269.826 610.379 268.432C610.379 267.093 610.844 265.958 611.773 265.029C612.703 264.1 613.892 263.635 615.34 263.635ZM648.149 327.021V283.848H654.012L654.545 289.834C656.295 287.62 658.481 285.925 661.105 284.75C663.757 283.547 666.326 282.946 668.813 282.946C673.05 282.946 676.125 284.067 678.038 286.308C679.979 288.549 680.949 291.665 680.949 295.656V327.021H674.061V300.74C674.061 297.788 673.897 295.41 673.569 293.606C673.241 291.775 672.558 290.449 671.519 289.629C670.481 288.782 668.868 288.358 666.681 288.358C664.987 288.358 663.388 288.727 661.884 289.465C660.408 290.203 659.083 291.132 657.907 292.253C656.759 293.346 655.803 294.453 655.037 295.574V327.021H648.149ZM732.413 279.256L734.545 285.734C732.714 286.308 730.76 286.663 728.682 286.8C726.605 286.937 724.35 287.005 721.917 287.005C724.405 288.153 726.277 289.643 727.534 291.474C728.792 293.278 729.42 295.41 729.42 297.87C729.42 300.713 728.778 303.241 727.493 305.455C726.209 307.669 724.35 309.405 721.917 310.662C719.512 311.919 716.601 312.548 713.184 312.548C711.736 312.548 710.519 312.48 709.535 312.343C708.579 312.206 707.649 312.001 706.747 311.728C706.091 312.165 705.545 312.767 705.107 313.532C704.697 314.297 704.492 315.09 704.492 315.91C704.492 316.949 704.902 317.81 705.722 318.493C706.542 319.176 708.059 319.518 710.273 319.518H718.063C720.961 319.518 723.557 320.037 725.853 321.076C728.177 322.115 729.994 323.509 731.306 325.258C732.646 327.007 733.315 329.003 733.315 331.244C733.315 335.481 731.511 338.733 727.903 341.002C724.323 343.271 719.252 344.405 712.692 344.405C708.1 344.405 704.479 343.927 701.827 342.97C699.176 342.041 697.276 340.606 696.128 338.665C695.008 336.752 694.447 334.333 694.447 331.408H700.679C700.679 333.075 701.007 334.456 701.663 335.549C702.319 336.642 703.508 337.449 705.23 337.968C706.952 338.515 709.426 338.788 712.651 338.788C715.822 338.788 718.405 338.515 720.4 337.968C722.423 337.449 723.913 336.656 724.869 335.59C725.853 334.551 726.345 333.253 726.345 331.695C726.345 329.645 725.416 328.101 723.557 327.062C721.699 326.023 719.375 325.504 716.587 325.504H708.879C705.162 325.504 702.415 324.684 700.638 323.044C698.889 321.404 698.014 319.518 698.014 317.386C698.014 315.992 698.411 314.639 699.203 313.327C700.023 312.015 701.212 310.853 702.77 309.842C700.283 308.53 698.452 306.904 697.276 304.963C696.101 303.022 695.513 300.672 695.513 297.911C695.513 294.986 696.238 292.403 697.686 290.162C699.135 287.893 701.158 286.117 703.754 284.832C706.351 283.547 709.344 282.905 712.733 282.905C716.369 282.878 719.321 282.727 721.589 282.454C723.858 282.153 725.799 281.73 727.411 281.183C729.051 280.636 730.719 279.994 732.413 279.256ZM712.733 287.948C709.262 287.948 706.693 288.891 705.025 290.777C703.385 292.636 702.565 295.014 702.565 297.911C702.565 300.836 703.413 303.241 705.107 305.127C706.802 307.013 709.399 307.956 712.897 307.956C715.959 307.956 718.282 307.068 719.867 305.291C721.48 303.514 722.286 301.041 722.286 297.87C722.286 294.617 721.48 292.157 719.867 290.49C718.282 288.795 715.904 287.948 712.733 287.948ZM827.633 327.021H817.875L812.299 295.328L806.231 327.021H796.719L788.847 283.848H795.899L801.393 322.757L808.281 289.342H816.44L822.959 322.757L828.453 283.848H835.177L827.633 327.021ZM866.674 283.848V321.568H878.851V327.021H846.461V321.568H859.786V289.301H846.871V283.848H866.674ZM861.18 263.635C862.711 263.635 863.927 264.1 864.829 265.029C865.758 265.958 866.223 267.093 866.223 268.432C866.223 269.826 865.758 271.001 864.829 271.958C863.927 272.887 862.711 273.352 861.18 273.352C859.731 273.352 858.542 272.887 857.613 271.958C856.684 271.001 856.219 269.826 856.219 268.432C856.219 267.093 856.684 265.958 857.613 265.029C858.542 264.1 859.731 263.635 861.18 263.635ZM928.265 324.848C926.789 325.832 924.999 326.597 922.894 327.144C920.789 327.691 918.726 327.964 916.703 327.964C912.056 327.964 908.476 326.748 905.961 324.315C903.446 321.882 902.189 318.753 902.189 314.926V289.178H892.267V283.848H902.189V274.049L909.077 273.229V283.848H924.001L923.181 289.178H909.077V314.844C909.077 317.249 909.706 319.081 910.963 320.338C912.248 321.595 914.366 322.224 917.318 322.224C918.931 322.224 920.42 322.033 921.787 321.65C923.154 321.267 924.425 320.775 925.6 320.174L928.265 324.848ZM950.045 265.808V289.752C951.74 287.483 953.817 285.789 956.277 284.668C958.764 283.52 961.279 282.946 963.821 282.946C968.03 282.946 971.105 284.067 973.046 286.308C974.987 288.549 975.957 291.665 975.957 295.656V327.021H969.069V295.82C969.069 293.223 968.468 291.337 967.265 290.162C966.062 288.959 964.176 288.358 961.607 288.358C959.967 288.358 958.409 288.727 956.933 289.465C955.457 290.203 954.131 291.119 952.956 292.212C951.781 293.305 950.81 294.426 950.045 295.574V327.021H943.157V266.546L950.045 265.808ZM1075.77 324.848C1074.29 325.832 1072.5 326.597 1070.4 327.144C1068.29 327.691 1066.23 327.964 1064.21 327.964C1059.56 327.964 1055.98 326.748 1053.46 324.315C1050.95 321.882 1049.69 318.753 1049.69 314.926V289.178H1039.77V283.848H1049.69V274.049L1056.58 273.229V283.848H1071.5L1070.68 289.178H1056.58V314.844C1056.58 317.249 1057.21 319.081 1058.47 320.338C1059.75 321.595 1061.87 322.224 1064.82 322.224C1066.43 322.224 1067.92 322.033 1069.29 321.65C1070.66 321.267 1071.93 320.775 1073.1 320.174L1075.77 324.848ZM1097.55 265.808V289.752C1099.24 287.483 1101.32 285.789 1103.78 284.668C1106.27 283.52 1108.78 282.946 1111.32 282.946C1115.53 282.946 1118.61 284.067 1120.55 286.308C1122.49 288.549 1123.46 291.665 1123.46 295.656V327.021H1116.57V295.82C1116.57 293.223 1115.97 291.337 1114.77 290.162C1113.57 288.959 1111.68 288.358 1109.11 288.358C1107.47 288.358 1105.91 288.727 1104.44 289.465C1102.96 290.203 1101.64 291.119 1100.46 292.212C1099.28 293.305 1098.31 294.426 1097.55 295.574V327.021H1090.66V266.546L1097.55 265.808ZM1145.24 307.874C1145.38 311.209 1146.02 313.942 1147.17 316.074C1148.32 318.179 1149.83 319.737 1151.72 320.748C1153.6 321.732 1155.65 322.224 1157.87 322.224C1160.08 322.224 1162.08 321.896 1163.85 321.24C1165.66 320.584 1167.5 319.614 1169.39 318.329L1172.63 322.88C1170.61 324.465 1168.3 325.709 1165.7 326.611C1163.13 327.513 1160.49 327.964 1157.79 327.964C1153.6 327.964 1150.04 327.021 1147.09 325.135C1144.13 323.249 1141.88 320.625 1140.32 317.263C1138.79 313.874 1138.02 309.951 1138.02 305.496C1138.02 301.123 1138.8 297.241 1140.36 293.852C1141.92 290.463 1144.11 287.798 1146.92 285.857C1149.74 283.916 1153.06 282.946 1156.88 282.946C1160.52 282.946 1163.65 283.807 1166.27 285.529C1168.9 287.224 1170.91 289.656 1172.3 292.827C1173.72 295.97 1174.43 299.729 1174.43 304.102C1174.43 304.84 1174.42 305.537 1174.39 306.193C1174.36 306.822 1174.32 307.382 1174.27 307.874H1145.24ZM1156.97 288.604C1153.77 288.604 1151.09 289.738 1148.93 292.007C1146.8 294.276 1145.58 297.788 1145.28 302.544H1167.79C1167.71 297.925 1166.7 294.453 1164.76 292.13C1162.82 289.779 1160.22 288.604 1156.97 288.604ZM1274 286.39C1274 289.205 1273.38 291.665 1272.15 293.77C1270.95 295.875 1269.31 297.61 1267.23 298.977C1265.16 300.344 1262.82 301.341 1260.22 301.97L1276.95 327.021H1268.42L1253.01 302.79H1245.38V327.021H1238.25V270.564H1252.76C1259.73 270.564 1265.01 271.903 1268.59 274.582C1272.19 277.233 1274 281.169 1274 286.39ZM1266.37 286.39C1266.37 282.755 1265.33 280.158 1263.26 278.6C1261.18 277.015 1257.95 276.222 1253.58 276.222H1245.38V297.214H1253.58C1257.63 297.214 1260.77 296.394 1263.01 294.754C1265.25 293.087 1266.37 290.299 1266.37 286.39ZM1294.22 283.848V314.434C1294.22 317.277 1294.81 319.327 1295.98 320.584C1297.16 321.841 1298.99 322.47 1301.48 322.47C1303.86 322.47 1306.1 321.8 1308.2 320.461C1310.33 319.094 1311.99 317.482 1313.16 315.623V283.848H1320.05V327.021H1314.19L1313.61 321.199C1311.92 323.386 1309.83 325.067 1307.34 326.242C1304.85 327.39 1302.34 327.964 1299.8 327.964C1295.61 327.964 1292.49 326.857 1290.41 324.643C1288.36 322.402 1287.33 319.272 1287.33 315.254V283.848H1294.22ZM1351.18 322.265C1354.49 322.265 1357.1 321.65 1359.01 320.42C1360.95 319.163 1361.92 317.495 1361.92 315.418C1361.92 314.106 1361.67 312.972 1361.18 312.015C1360.72 311.058 1359.75 310.197 1358.27 309.432C1356.8 308.667 1354.53 307.901 1351.47 307.136C1348.49 306.398 1345.89 305.551 1343.68 304.594C1341.49 303.61 1339.78 302.339 1338.55 300.781C1337.35 299.223 1336.75 297.2 1336.75 294.713C1336.75 292.28 1337.43 290.189 1338.8 288.44C1340.19 286.663 1342.12 285.31 1344.58 284.381C1347.04 283.424 1349.89 282.946 1353.15 282.946C1356.62 282.946 1359.64 283.411 1362.21 284.34C1364.8 285.242 1367 286.363 1368.81 287.702L1365.77 292.376C1364.13 291.255 1362.33 290.34 1360.36 289.629C1358.39 288.891 1356.02 288.522 1353.23 288.522C1349.84 288.522 1347.43 289.055 1346.01 290.121C1344.59 291.16 1343.88 292.513 1343.88 294.18C1343.88 295.437 1344.22 296.49 1344.91 297.337C1345.62 298.157 1346.81 298.909 1348.47 299.592C1350.14 300.248 1352.44 300.972 1355.36 301.765C1358.18 302.503 1360.62 303.391 1362.7 304.43C1364.8 305.469 1366.44 306.835 1367.62 308.53C1368.8 310.225 1369.38 312.411 1369.38 315.09C1369.38 318.151 1368.51 320.639 1366.76 322.552C1365.01 324.438 1362.74 325.818 1359.95 326.693C1357.19 327.54 1354.27 327.964 1351.18 327.964C1347.27 327.964 1343.94 327.404 1341.17 326.283C1338.44 325.135 1336.15 323.755 1334.29 322.142L1338.22 317.591C1339.92 318.985 1341.86 320.119 1344.04 320.994C1346.26 321.841 1348.64 322.265 1351.18 322.265ZM1419.94 324.848C1418.47 325.832 1416.68 326.597 1414.57 327.144C1412.47 327.691 1410.41 327.964 1408.38 327.964C1403.74 327.964 1400.16 326.748 1397.64 324.315C1395.13 321.882 1393.87 318.753 1393.87 314.926V289.178H1383.95V283.848H1393.87V274.049L1400.76 273.229V283.848H1415.68L1414.86 289.178H1400.76V314.844C1400.76 317.249 1401.39 319.081 1402.64 320.338C1403.93 321.595 1406.05 322.224 1409 322.224C1410.61 322.224 1412.1 322.033 1413.47 321.65C1414.83 321.267 1416.1 320.775 1417.28 320.174L1419.94 324.848ZM1500.81 266.464V316.361C1500.81 318.493 1501.47 320.01 1502.78 320.912C1504.12 321.787 1505.84 322.224 1507.95 322.224C1509.26 322.224 1510.5 322.087 1511.68 321.814C1512.86 321.541 1514.03 321.172 1515.21 320.707L1517.05 325.75C1515.88 326.324 1514.41 326.83 1512.66 327.267C1510.94 327.732 1508.99 327.964 1506.8 327.964C1502.97 327.964 1499.87 326.912 1497.49 324.807C1495.12 322.675 1493.93 319.737 1493.93 315.992V271.917H1480.68V266.464H1500.81ZM1555.03 283.848V321.568H1567.2V327.021H1534.81V321.568H1548.14V289.301H1535.22V283.848H1555.03ZM1549.53 263.635C1551.06 263.635 1552.28 264.1 1553.18 265.029C1554.11 265.958 1554.57 267.093 1554.57 268.432C1554.57 269.826 1554.11 271.001 1553.18 271.958C1552.28 272.887 1551.06 273.352 1549.53 273.352C1548.08 273.352 1546.89 272.887 1545.96 271.958C1545.04 271.001 1544.57 269.826 1544.57 268.432C1544.57 267.093 1545.04 265.958 1545.96 265.029C1546.89 264.1 1548.08 263.635 1549.53 263.635ZM1589.23 289.465C1590.81 287.388 1592.63 285.789 1594.68 284.668C1596.76 283.52 1599.04 282.946 1601.53 282.946C1605.38 282.946 1608.5 283.875 1610.88 285.734C1613.25 287.593 1614.99 290.217 1616.08 293.606C1617.18 296.968 1617.72 300.904 1617.72 305.414C1617.72 309.76 1617.07 313.641 1615.76 317.058C1614.44 320.447 1612.52 323.112 1609.97 325.053C1607.46 326.994 1604.34 327.964 1600.63 327.964C1595.62 327.964 1591.7 326.16 1588.86 322.552L1588.37 327.021H1582.34V266.464L1589.23 265.603V289.465ZM1598.99 322.388C1602.59 322.388 1605.37 320.994 1607.31 318.206C1609.25 315.418 1610.22 311.14 1610.22 305.373C1610.22 301.601 1609.84 298.471 1609.07 295.984C1608.31 293.469 1607.16 291.597 1605.63 290.367C1604.13 289.11 1602.27 288.481 1600.05 288.481C1597.65 288.481 1595.53 289.205 1593.7 290.654C1591.89 292.075 1590.4 293.661 1589.23 295.41V316.812C1590.35 318.507 1591.76 319.86 1593.45 320.871C1595.17 321.882 1597.02 322.388 1598.99 322.388ZM1631.92 327.021V321.732H1638.64V289.137H1631.92V283.848H1643.89L1645.16 294.057C1646.83 290.504 1648.85 287.757 1651.23 285.816C1653.61 283.875 1656.75 282.905 1660.66 282.905C1661.86 282.905 1662.93 283.001 1663.86 283.192C1664.81 283.356 1665.78 283.575 1666.77 283.848L1664.76 289.998C1663.86 289.752 1663.04 289.574 1662.3 289.465C1661.56 289.328 1660.71 289.26 1659.76 289.26C1656.45 289.26 1653.61 290.435 1651.23 292.786C1648.85 295.137 1646.95 298.69 1645.53 303.446V321.732H1654.3V327.021H1631.92ZM1660.13 298.444V289.055L1660.82 283.848H1666.77L1665.78 298.444H1660.13ZM1711.59 317.591C1711.59 319.313 1711.88 320.57 1712.45 321.363C1713.03 322.156 1713.91 322.743 1715.12 323.126L1713.44 327.964C1711.58 327.718 1709.95 327.13 1708.56 326.201C1707.16 325.244 1706.15 323.809 1705.52 321.896C1703.96 323.891 1702.02 325.408 1699.7 326.447C1697.38 327.458 1694.81 327.964 1691.99 327.964C1687.67 327.964 1684.27 326.748 1681.78 324.315C1679.3 321.882 1678.05 318.657 1678.05 314.639C1678.05 310.184 1679.79 306.767 1683.26 304.389C1686.73 302.011 1691.75 300.822 1698.31 300.822H1704.66V297.214C1704.66 294.098 1703.75 291.898 1701.91 290.613C1700.11 289.301 1697.6 288.645 1694.37 288.645C1692.95 288.645 1691.28 288.823 1689.37 289.178C1687.46 289.506 1685.38 290.066 1683.14 290.859L1681.33 285.652C1683.98 284.668 1686.47 283.971 1688.79 283.561C1691.12 283.151 1693.33 282.946 1695.44 282.946C1700.82 282.946 1704.85 284.203 1707.53 286.718C1710.24 289.205 1711.59 292.595 1711.59 296.886V317.591ZM1693.76 322.716C1695.89 322.716 1697.92 322.183 1699.86 321.117C1701.81 320.024 1703.4 318.52 1704.66 316.607V305.496H1698.43C1693.67 305.496 1690.31 306.316 1688.34 307.956C1686.4 309.596 1685.43 311.796 1685.43 314.557C1685.43 317.236 1686.12 319.272 1687.48 320.666C1688.88 322.033 1690.97 322.716 1693.76 322.716ZM1730.25 327.021V321.732H1736.98V289.137H1730.25V283.848H1742.23L1743.5 294.057C1745.16 290.504 1747.19 287.757 1749.57 285.816C1751.94 283.875 1755.09 282.905 1759 282.905C1760.2 282.905 1761.26 283.001 1762.19 283.192C1763.15 283.356 1764.12 283.575 1765.1 283.848L1763.1 289.998C1762.19 289.752 1761.37 289.574 1760.64 289.465C1759.9 289.328 1759.05 289.26 1758.09 289.26C1754.79 289.26 1751.94 290.435 1749.57 292.786C1747.19 295.137 1745.29 298.69 1743.87 303.446V321.732H1752.64V327.021H1730.25ZM1758.46 298.444V289.055L1759.16 283.848H1765.1L1764.12 298.444H1758.46ZM1814.93 283.848L1799.76 327.308C1798.75 330.233 1797.46 332.911 1795.9 335.344C1794.37 337.777 1792.36 339.786 1789.88 341.371C1787.42 342.984 1784.29 343.981 1780.49 344.364L1779.42 338.87C1782.4 338.378 1784.75 337.626 1786.47 336.615C1788.2 335.604 1789.55 334.305 1790.53 332.72C1791.54 331.135 1792.43 329.235 1793.2 327.021H1790.9L1775.81 283.848H1783.19L1795.58 321.773L1807.79 283.848H1814.93Z" fill="white"/>
<path d="M1760.21 814.149L1744.99 804.719C1744.86 803.235 1744.71 801.755 1744.56 800.281L1757.66 788.077C1758.99 786.836 1759.59 784.998 1759.23 783.223C1758.88 781.438 1757.63 779.968 1755.92 779.34L1739.18 773.099C1738.76 771.65 1738.32 770.211 1737.87 768.766L1748.3 754.273C1749.37 752.8 1749.59 750.883 1748.89 749.211C1748.2 747.537 1746.68 746.337 1744.91 746.043L1727.26 743.172C1726.57 741.834 1725.86 740.516 1725.14 739.219L1732.56 722.924C1733.32 721.267 1733.16 719.353 1732.15 717.828C1731.14 716.316 1729.43 715.432 1727.6 715.501L1709.68 716.125C1708.75 714.967 1707.81 713.82 1706.85 712.693L1710.98 695.254C1711.39 693.482 1710.87 691.613 1709.58 690.331C1708.3 689.048 1706.44 688.517 1704.66 688.933L1687.22 693.059C1686.09 692.102 1684.94 691.156 1683.78 690.23L1684.41 672.306C1684.47 670.492 1683.59 668.769 1682.08 667.764C1680.56 666.751 1678.65 666.599 1676.98 667.351L1660.72 674.771C1659.41 674.049 1658.09 673.335 1656.77 672.645L1653.89 654.998C1653.6 653.209 1652.4 651.69 1650.72 651.011C1649.05 650.314 1647.12 650.539 1645.66 651.6L1631.17 662.036C1629.74 661.582 1628.3 661.145 1626.87 660.729L1620.63 643.983C1619.99 642.277 1618.52 641.026 1616.75 640.672C1614.96 640.322 1613.14 640.915 1611.89 642.239L1599.69 655.345C1598.21 655.182 1596.73 655.033 1595.25 654.911L1585.82 639.656C1584.87 638.114 1583.18 637.174 1581.35 637.174C1579.52 637.174 1577.85 638.114 1576.91 639.656L1567.48 654.911C1566 655.033 1564.51 655.182 1563.04 655.345L1550.84 642.239C1549.6 640.915 1547.76 640.322 1545.98 640.672C1544.2 641.029 1542.73 642.277 1542.1 643.983L1535.86 660.729C1534.41 661.145 1532.98 661.585 1531.56 662.036L1517.07 651.6C1515.59 650.536 1513.67 650.311 1512.01 651.011C1510.33 651.704 1509.13 653.223 1508.84 654.998L1505.96 672.645C1504.63 673.335 1503.31 674.046 1502.01 674.771L1485.75 667.351C1484.09 666.595 1482.18 666.751 1480.65 667.764C1479.14 668.769 1478.25 670.492 1478.32 672.306L1478.95 690.23C1477.79 691.156 1476.64 692.102 1475.51 693.059L1458.07 688.933C1456.3 688.521 1454.43 689.048 1453.15 690.331C1451.86 691.617 1451.33 693.472 1451.75 695.254L1455.84 712.693C1454.89 713.823 1453.94 714.967 1453.02 716.125L1435.09 715.501C1433.29 715.449 1431.56 716.316 1430.55 717.828C1429.54 719.332 1429.39 721.26 1430.14 722.924L1437.56 739.219C1436.84 740.527 1436.12 741.844 1435.43 743.172L1417.79 746.043C1415.99 746.334 1414.48 747.533 1413.8 749.211C1413.1 750.893 1413.33 752.817 1414.39 754.273L1424.82 768.766C1424.37 770.198 1423.93 771.636 1423.51 773.099L1406.77 779.34C1405.07 779.975 1403.82 781.445 1403.46 783.223C1403.11 785.005 1403.7 786.829 1405.03 788.077L1418.14 800.281C1417.97 801.755 1417.83 803.238 1417.7 804.719L1402.48 814.149C1400.94 815.103 1400 816.788 1400 818.622C1400 820.456 1400.94 822.123 1402.48 823.06L1417.7 832.49C1417.83 833.974 1417.97 835.454 1418.14 836.928L1405.03 849.132C1403.7 850.369 1403.11 852.207 1403.46 853.986C1403.82 855.771 1405.07 857.238 1406.77 857.869L1423.51 864.109C1423.93 865.559 1424.37 866.997 1424.82 868.443L1414.39 882.935C1413.33 884.412 1413.1 886.33 1413.8 887.997C1414.5 889.679 1416.01 890.878 1417.82 891.166L1435.47 894.037C1436.16 895.375 1436.87 896.693 1437.59 897.989L1430.17 914.25C1429.42 915.904 1429.57 917.821 1430.59 919.346C1431.6 920.861 1433.32 921.745 1435.13 921.673L1453.02 921.045C1453.95 922.21 1454.89 923.351 1455.85 924.484L1451.76 941.924C1451.34 943.692 1451.86 945.529 1453.15 946.812C1454.43 948.105 1456.29 948.622 1458.08 948.206L1475.52 944.115C1476.65 945.079 1477.8 946.015 1478.95 946.937L1478.33 964.862C1478.26 966.675 1479.15 968.398 1480.66 969.403C1482.16 970.412 1484.09 970.565 1485.75 969.809L1502.01 962.39C1503.33 963.118 1504.64 963.825 1505.97 964.515L1508.84 982.162C1509.14 983.958 1510.33 985.477 1512.01 986.184C1513.69 986.881 1515.62 986.656 1517.07 985.598L1531.57 975.162C1533 975.616 1534.44 976.06 1535.9 976.476L1542.14 993.222C1542.78 994.921 1544.25 996.179 1546.03 996.526C1547.81 996.887 1549.63 996.29 1550.88 994.959L1563.08 981.854C1564.56 982.024 1566.04 982.166 1567.52 982.297L1576.95 997.518C1577.9 999.054 1579.59 1000 1581.39 1000C1583.19 1000 1584.89 999.057 1585.86 997.518L1595.29 982.297C1596.78 982.166 1598.26 982.024 1599.73 981.854L1611.93 994.959C1613.17 996.29 1615.01 996.887 1616.79 996.526C1618.57 996.176 1620.04 994.921 1620.67 993.222L1626.91 976.476C1628.36 976.06 1629.8 975.616 1631.24 975.162L1645.74 985.598C1647.21 986.656 1649.13 986.881 1650.8 986.184C1652.48 985.494 1653.68 983.972 1653.97 982.162L1656.85 964.515C1658.18 963.825 1659.49 963.107 1660.8 962.39L1677.06 969.809C1678.71 970.565 1680.63 970.412 1682.16 969.403C1683.67 968.391 1684.55 966.675 1684.48 964.862L1683.86 946.937C1685.02 946.011 1686.16 945.079 1687.29 944.115L1704.73 948.206C1706.5 948.622 1708.37 948.105 1709.66 946.812C1710.95 945.526 1711.47 943.678 1711.05 941.924L1706.96 924.484C1707.92 923.351 1708.86 922.21 1709.78 921.045L1727.71 921.673C1729.52 921.745 1731.25 920.861 1732.25 919.346C1733.26 917.835 1733.42 915.91 1732.66 914.25L1725.24 897.989C1725.96 896.675 1726.68 895.358 1727.36 894.037L1745.01 891.166C1746.81 890.878 1748.32 889.679 1749 887.997C1749.69 886.323 1749.47 884.392 1748.41 882.935L1737.97 868.443C1738.42 867.011 1738.86 865.572 1739.28 864.109L1756.03 857.869C1757.73 857.231 1758.99 855.764 1759.33 853.986C1759.69 852.204 1759.1 850.38 1757.76 849.132L1744.66 836.928C1744.82 835.454 1744.96 833.97 1745.09 832.49L1760.31 823.06C1761.85 822.11 1762.8 820.421 1762.8 818.622C1762.8 816.822 1761.86 815.12 1760.32 814.149H1760.21ZM1658.28 940.696C1652.45 939.441 1648.78 933.693 1650.03 927.868C1651.27 922.044 1656.99 918.334 1662.82 919.582C1668.64 920.827 1672.35 926.585 1671.11 932.41C1669.86 938.235 1664.14 941.944 1658.31 940.696H1658.28ZM1653.11 905.679C1647.81 904.542 1642.57 907.919 1641.46 913.237L1636.05 938.477C1619.38 946.036 1600.69 950.265 1581.27 950.265C1561.3 950.265 1542.44 945.862 1525.45 937.957L1520.05 912.717C1518.91 907.413 1513.7 904.015 1508.4 905.159L1486.1 909.944C1481.98 905.679 1478.13 901.137 1474.59 896.353H1583.11C1584.34 896.353 1585.16 896.131 1585.16 895.015V856.53C1585.16 855.414 1584.34 855.192 1583.11 855.192H1551.39V830.888H1585.68C1588.81 830.888 1602.42 831.783 1606.76 849.194C1608.12 854.533 1611.13 871.938 1613.17 877.52C1615.21 883.761 1623.5 896.242 1632.34 896.242H1686.43C1687.04 896.242 1687.7 896.173 1688.39 896.048C1684.64 901.144 1680.52 905.964 1676.11 910.471L1653.3 905.582L1653.11 905.679ZM1502.99 940.176C1497.16 941.431 1491.44 937.722 1490.19 931.89C1488.95 926.065 1492.65 920.31 1498.48 919.062C1504.31 917.817 1510.03 921.527 1511.28 927.348C1512.52 933.173 1508.82 938.928 1502.99 940.176ZM1461.73 773.411C1464.14 778.855 1461.69 785.234 1456.25 787.661C1450.81 790.078 1444.46 787.619 1442.04 782.183C1439.61 776.747 1442.08 770.36 1447.52 767.934C1452.96 765.52 1459.3 767.975 1461.73 773.411ZM1449.08 803.367L1472.31 793.035C1477.26 790.833 1479.52 785.026 1477.3 780.068L1472.51 769.251H1491.31V853.847H1453.51C1450.22 842.267 1448.45 830.063 1448.45 817.443C1448.45 812.624 1448.71 807.874 1449.21 803.193L1449.08 803.367ZM1551.01 795.15V770.187H1595.73C1598.04 770.187 1612.06 772.86 1612.06 783.327C1612.06 792.029 1601.31 795.15 1592.47 795.15H1550.87H1551.01ZM1713.61 817.616C1713.61 820.931 1713.49 824.204 1713.25 827.463H1699.62C1698.26 827.463 1697.71 828.357 1697.71 829.692V835.933C1697.71 850.633 1689.43 853.857 1682.15 854.655C1675.21 855.435 1667.55 851.756 1666.61 847.513C1662.52 824.526 1655.73 819.638 1644.98 811.109C1658.33 802.649 1672.19 790.133 1672.19 773.318C1672.19 755.255 1659.82 743.883 1651.39 738.301C1639.53 730.5 1626.43 728.94 1622.89 728.94H1482.13C1501.23 707.652 1527.2 692.536 1556.33 686.988L1572.93 704.393C1576.68 708.311 1582.88 708.484 1586.84 704.712L1605.42 686.961C1644.25 694.207 1677.19 718.407 1696.26 751.794L1683.53 780.502C1681.34 785.459 1683.58 791.284 1688.52 793.468L1713 804.355C1713.42 808.689 1713.65 813.092 1713.65 817.53L1713.61 817.616ZM1572.85 672.347C1577.15 668.221 1583.98 668.395 1588.07 672.697C1592.16 676.996 1592.02 683.826 1587.71 687.952C1583.41 692.078 1576.58 691.905 1572.49 687.599C1568.4 683.3 1568.54 676.469 1572.85 672.344V672.347ZM1699.05 773.932C1701.46 768.488 1707.82 766.027 1713.27 768.454C1718.71 770.867 1721.17 777.26 1718.74 782.703C1716.33 788.146 1709.97 790.608 1704.53 788.181C1699.08 785.768 1696.62 779.375 1699.05 773.932Z" fill="url(#paint1_linear_1125_2)"/>
<g clip-path="url(#clip1_1125_2)">
<path d="M316.637 684.326C321.125 684.326 324.763 680.691 324.763 676.206C324.763 671.72 321.125 668.084 316.637 668.084C312.15 668.084 308.512 671.72 308.512 676.206C308.512 680.691 312.15 684.326 316.637 684.326Z" fill="url(#paint2_linear_1125_2)"/>
<path d="M316.774 775.582C321.262 775.582 324.9 771.946 324.9 767.461C324.9 762.976 321.262 759.34 316.774 759.34C312.286 759.34 308.648 762.976 308.648 767.461C308.648 771.946 312.286 775.582 316.774 775.582Z" fill="url(#paint3_linear_1125_2)"/>
<path d="M478.333 966.231C482.82 966.231 486.458 962.595 486.458 958.109C486.458 953.624 482.82 949.988 478.333 949.988C473.845 949.988 470.207 953.624 470.207 958.109C470.207 962.595 473.845 966.231 478.333 966.231Z" fill="url(#paint4_linear_1125_2)"/>
<path d="M235.919 826.278C240.406 826.278 244.044 822.642 244.044 818.157C244.044 813.672 240.406 810.036 235.919 810.036C231.431 810.036 227.793 813.672 227.793 818.157C227.793 822.642 231.431 826.278 235.919 826.278Z" fill="url(#paint5_linear_1125_2)"/>
<path d="M559.184 826.278C563.672 826.278 567.31 822.642 567.31 818.157C567.31 813.672 563.672 810.036 559.184 810.036C554.697 810.036 551.059 813.672 551.059 818.157C551.059 822.642 554.697 826.278 559.184 826.278Z" fill="url(#paint6_linear_1125_2)"/>
<path d="M478.333 686.328C482.82 686.328 486.458 682.692 486.458 678.207C486.458 673.722 482.82 670.086 478.333 670.086C473.845 670.086 470.207 673.722 470.207 678.207C470.207 682.692 473.845 686.328 478.333 686.328Z" fill="url(#paint7_linear_1125_2)"/>
<path d="M478.333 872.973C482.82 872.973 486.458 869.337 486.458 864.852C486.458 860.367 482.82 856.731 478.333 856.731C473.845 856.731 470.207 860.367 470.207 864.852C470.207 869.337 473.845 872.973 478.333 872.973Z" fill="url(#paint8_linear_1125_2)"/>
<path d="M316.774 872.839C321.262 872.839 324.9 869.203 324.9 864.718C324.9 860.233 321.262 856.597 316.774 856.597C312.286 856.597 308.648 860.233 308.648 864.718C308.648 869.203 312.286 872.839 316.774 872.839Z" fill="url(#paint9_linear_1125_2)"/>
<path d="M478.333 779.719C482.82 779.719 486.458 776.083 486.458 771.598C486.458 767.113 482.82 763.478 478.333 763.478C473.845 763.478 470.207 767.113 470.207 771.598C470.207 776.083 473.845 779.719 478.333 779.719Z" fill="url(#paint10_linear_1125_2)"/>
<path d="M397.493 919.534C401.98 919.534 405.618 915.898 405.618 911.414C405.618 906.928 401.98 903.292 397.493 903.292C393.005 903.292 389.367 906.928 389.367 911.414C389.367 915.898 393.005 919.534 397.493 919.534Z" fill="url(#paint11_linear_1125_2)"/>
<path d="M397.629 733.024C402.117 733.024 405.755 729.388 405.755 724.903C405.755 720.418 402.117 716.782 397.629 716.782C393.142 716.782 389.504 720.418 389.504 724.903C389.504 729.388 393.142 733.024 397.629 733.024Z" fill="url(#paint12_linear_1125_2)"/>
<path d="M316.637 966.23C321.125 966.23 324.763 962.595 324.763 958.109C324.763 953.624 321.125 949.988 316.637 949.988C312.15 949.988 308.512 953.624 308.512 958.109C308.512 962.595 312.15 966.23 316.637 966.23Z" fill="url(#paint13_linear_1125_2)"/>
<path d="M330.303 670.086C360.367 633 414.673 627.18 451.915 657.228C456.656 661.017 460.989 665.348 464.781 670.086C466.135 667.785 468.031 665.755 470.469 664.401C472.094 663.454 473.719 662.912 475.615 662.642C441.352 619.6 378.65 612.562 335.72 646.806C329.897 651.543 324.479 656.822 319.875 662.642C324.073 663.589 328.001 666.296 330.303 670.086Z" fill="url(#paint14_linear_1125_2)"/>
<path d="M411.157 716.781C424.429 700.268 443.388 689.305 464.379 685.921C462.213 681.996 461.806 677.259 463.432 673.063C438.649 676.717 416.168 689.711 400.594 709.472C405.063 710.149 408.855 712.856 411.157 716.781Z" fill="url(#paint15_linear_1125_2)"/>
<path d="M360.097 696.343C369.306 701.622 377.296 708.66 383.932 716.916C385.286 714.616 387.182 712.585 389.62 711.232C391.11 710.42 392.735 709.743 394.495 709.472C379.056 689.711 356.44 676.582 331.657 673.063C332.335 674.687 332.605 676.582 332.605 678.342C332.605 681.049 331.928 683.62 330.574 685.921C341.002 687.546 351.023 691.065 360.097 696.343Z" fill="url(#paint16_linear_1125_2)"/>
<path d="M478.477 755.76C483.081 755.76 487.415 757.79 490.394 761.309C499.739 737.894 499.739 711.907 490.53 688.491C489.311 689.845 487.956 691.063 486.332 692.01C484.029 693.364 481.456 694.041 478.747 694.041C486.467 713.937 486.332 735.864 478.477 755.76Z" fill="url(#paint17_linear_1125_2)"/>
<path d="M464.785 763.342C467.087 759.417 471.015 756.846 475.483 756.034C459.91 736.408 437.429 723.414 412.646 719.625C414.136 723.955 413.729 728.693 411.562 732.618C432.418 736.002 451.378 746.965 464.785 763.342Z" fill="url(#paint18_linear_1125_2)"/>
<path d="M500.816 687.68C547.131 699.997 574.487 747.505 562.164 793.659C561.351 796.637 560.403 799.479 559.32 802.321C562.028 802.321 564.737 802.998 567.039 804.352C568.664 805.299 570.019 806.517 571.237 807.871C572.591 804.352 573.81 800.832 574.758 797.313C588.978 744.121 557.424 689.44 504.202 675.093C500.545 674.145 497.024 673.333 493.232 672.792C494.722 677.123 494.315 681.86 492.148 685.785C495.128 686.326 497.972 686.868 500.816 687.68Z" fill="url(#paint19_linear_1125_2)"/>
<path d="M528.307 778.364C517.473 772.138 505.556 767.942 493.232 766.183C494.722 770.514 494.45 775.251 492.148 779.176C513.139 782.425 532.099 793.253 545.506 809.766C547.808 805.975 551.736 803.269 556.205 802.457C548.486 792.847 539.006 784.59 528.307 778.364Z" fill="url(#paint20_linear_1125_2)"/>
<path d="M494.179 864.852C494.179 866.612 493.908 868.372 493.231 870.131C518.149 866.612 540.63 853.483 556.204 833.857C551.735 833.181 547.807 830.474 545.505 826.548C532.098 843.061 513.003 854.024 492.012 857.273C493.502 859.438 494.179 862.145 494.179 864.852Z" fill="url(#paint21_linear_1125_2)"/>
<path d="M478.598 849.017C483.202 849.153 487.4 851.183 490.38 854.702C499.589 831.287 499.589 805.3 490.38 781.884C487.4 785.268 483.202 787.298 478.733 787.433C486.317 807.195 486.181 829.121 478.598 849.017Z" fill="url(#paint22_linear_1125_2)"/>
<path d="M478.73 942.273C483.335 942.408 487.533 944.439 490.513 947.958C499.857 924.542 499.722 898.555 490.513 875.14C487.533 878.659 483.335 880.689 478.73 880.824C486.315 900.45 486.315 922.377 478.73 942.273Z" fill="url(#paint23_linear_1125_2)"/>
<path d="M574.755 839.001C573.807 835.347 572.589 831.828 571.235 828.444C568.255 831.963 563.922 833.993 559.452 833.993C560.536 836.7 561.484 839.543 562.296 842.385C574.755 888.675 547.264 936.318 500.948 948.77C498.105 949.447 495.261 950.123 492.281 950.53C494.583 954.455 494.99 959.327 493.364 963.523C497.021 962.982 500.677 962.17 504.334 961.222C557.421 946.875 589.111 892.194 574.755 839.001Z" fill="url(#paint24_linear_1125_2)"/>
<path d="M412.378 916.692C437.296 913.038 459.777 900.045 475.486 880.419C471.017 879.607 467.09 876.9 464.787 873.11C451.38 889.487 432.421 900.451 411.43 903.834C413.597 907.759 413.867 912.497 412.378 916.692Z" fill="url(#paint25_linear_1125_2)"/>
<path d="M434.992 939.973C425.783 934.695 417.793 927.656 411.157 919.4C409.803 921.701 407.907 923.731 405.469 925.085C403.979 925.897 402.354 926.573 400.594 926.844C416.032 946.605 438.513 959.734 463.432 963.253C461.806 959.058 462.213 954.32 464.515 950.395C454.087 948.771 444.065 945.252 434.992 939.973Z" fill="url(#paint26_linear_1125_2)"/>
<path d="M360.097 939.972C351.023 945.25 341.002 948.769 330.574 950.529C332.741 954.454 333.012 959.191 331.522 963.387C356.44 959.733 378.921 946.604 394.36 926.843C389.891 926.031 386.099 923.324 383.797 919.534C377.161 927.79 369.171 934.693 360.097 939.972Z" fill="url(#paint27_linear_1125_2)"/>
<path d="M464.794 966.229C434.729 1003.32 380.288 1009.14 343.181 979.088C338.442 975.298 334.108 970.967 330.316 966.229C328.962 968.531 327.066 970.561 324.628 971.915C323.003 972.862 321.378 973.403 319.617 973.674C353.88 1016.72 416.447 1023.75 459.512 989.51C465.336 984.773 470.753 979.494 475.357 973.674C471.024 972.862 467.096 970.155 464.794 966.229Z" fill="url(#paint28_linear_1125_2)"/>
<path d="M316.499 880.553C313.79 880.553 311.082 879.877 308.779 878.523C307.29 877.576 305.8 876.493 304.717 875.14C295.372 898.555 295.372 924.542 304.581 947.958C305.665 946.604 307.154 945.386 308.644 944.439C310.946 943.085 313.655 942.408 316.228 942.408C308.644 922.377 308.644 900.315 316.499 880.553Z" fill="url(#paint29_linear_1125_2)"/>
<path d="M330.316 872.974C328.014 876.899 324.086 879.471 319.617 880.283C335.192 899.909 357.672 913.038 382.591 916.828C381.101 912.496 381.372 907.759 383.674 903.834C362.683 900.315 343.723 889.352 330.316 872.974Z" fill="url(#paint30_linear_1125_2)"/>
<path d="M223.739 807.871C226.718 804.352 231.052 802.457 235.521 802.322C234.438 799.615 233.49 796.772 232.677 793.93C220.218 747.64 247.709 699.998 294.025 687.681C296.869 687.004 299.713 686.327 302.693 685.921C300.39 681.996 299.984 677.123 301.609 672.927C297.952 673.469 294.296 674.281 290.775 675.229C237.552 689.44 205.998 744.257 220.218 797.449C221.301 800.968 222.385 804.352 223.739 807.871Z" fill="url(#paint31_linear_1125_2)"/>
<path d="M266.812 857.95C277.646 864.175 289.563 868.372 301.887 870.131C300.397 865.8 300.668 861.063 302.835 857.138C281.844 853.889 262.884 842.926 249.477 826.548C247.175 830.338 243.248 833.045 238.914 833.857C246.498 843.467 255.978 851.723 266.812 857.95Z" fill="url(#paint32_linear_1125_2)"/>
<path d="M294.154 948.635C247.839 936.182 220.347 888.675 232.671 842.385C233.484 839.543 234.432 836.7 235.515 833.993C232.807 833.993 230.098 833.316 227.796 831.963C226.306 831.016 224.816 829.797 223.733 828.444C222.379 831.828 221.16 835.482 220.212 839.001C205.992 892.194 237.411 946.74 290.634 961.087C294.29 962.034 297.946 962.846 301.603 963.388C300.113 959.056 300.519 954.455 302.686 950.53C299.978 949.988 296.998 949.447 294.154 948.635Z" fill="url(#paint33_linear_1125_2)"/>
<path d="M316.499 755.627C308.779 735.866 308.779 713.939 316.363 694.178C311.894 694.043 307.561 692.013 304.581 688.629C295.372 712.044 295.372 738.031 304.717 761.312C307.561 757.793 311.894 755.627 316.499 755.627Z" fill="url(#paint34_linear_1125_2)"/>
<path d="M300.939 771.462C300.939 769.702 301.345 767.942 301.887 766.318C276.969 769.973 254.488 782.966 238.914 802.592C240.675 802.863 242.435 803.54 243.925 804.352C246.227 805.705 248.123 807.6 249.477 809.901C262.884 793.388 281.98 782.425 303.106 779.176C301.616 776.876 300.939 774.169 300.939 771.462Z" fill="url(#paint35_linear_1125_2)"/>
<path d="M382.727 719.487C357.944 723.277 335.463 736.27 319.754 755.896C324.223 756.708 328.015 759.415 330.317 763.34C343.724 746.963 362.684 736 383.675 732.616C381.508 728.556 381.102 723.818 382.727 719.487Z" fill="url(#paint36_linear_1125_2)"/>
<path d="M316.36 787.299C311.891 787.164 307.557 785.133 304.713 781.614C295.504 805.03 295.369 831.017 304.578 854.432C307.557 851.049 311.755 848.883 316.224 848.883C308.776 828.987 308.776 807.06 316.36 787.299Z" fill="url(#paint37_linear_1125_2)"/>
</g>
<rect x="214" y="625" width="367" height="386.316" stroke="black"/>
</g>
<defs>
<linearGradient id="paint0_linear_1125_2" x1="960" y1="0" x2="960" y2="1080" gradientUnits="userSpaceOnUse">
<stop stop-color="#323232"/>
<stop offset="1"/>
</linearGradient>
<linearGradient id="paint1_linear_1125_2" x1="1581.4" y1="637.174" x2="1581.4" y2="1000" gradientUnits="userSpaceOnUse">
<stop stop-color="#B32BD5"/>
<stop offset="1" stop-color="#DA3C8E"/>
</linearGradient>
<linearGradient id="paint2_linear_1125_2" x1="316.637" y1="668.084" x2="316.637" y2="684.326" gradientUnits="userSpaceOnUse">
<stop stop-color="#B32BD5"/>
<stop offset="1" stop-color="#DA3C8E"/>
</linearGradient>
<linearGradient id="paint3_linear_1125_2" x1="316.774" y1="759.34" x2="316.774" y2="775.582" gradientUnits="userSpaceOnUse">
<stop stop-color="#B32BD5"/>
<stop offset="1" stop-color="#DA3C8E"/>
</linearGradient>
<linearGradient id="paint4_linear_1125_2" x1="478.333" y1="949.988" x2="478.333" y2="966.231" gradientUnits="userSpaceOnUse">
<stop stop-color="#B32BD5"/>
<stop offset="1" stop-color="#DA3C8E"/>
</linearGradient>
<linearGradient id="paint5_linear_1125_2" x1="235.919" y1="810.036" x2="235.919" y2="826.278" gradientUnits="userSpaceOnUse">
<stop stop-color="#B32BD5"/>
<stop offset="1" stop-color="#DA3C8E"/>
</linearGradient>
<linearGradient id="paint6_linear_1125_2" x1="559.184" y1="810.036" x2="559.184" y2="826.278" gradientUnits="userSpaceOnUse">
<stop stop-color="#B32BD5"/>
<stop offset="1" stop-color="#DA3C8E"/>
</linearGradient>
<linearGradient id="paint7_linear_1125_2" x1="478.333" y1="670.086" x2="478.333" y2="686.328" gradientUnits="userSpaceOnUse">
<stop stop-color="#B32BD5"/>
<stop offset="1" stop-color="#DA3C8E"/>
</linearGradient>
<linearGradient id="paint8_linear_1125_2" x1="478.333" y1="856.731" x2="478.333" y2="872.973" gradientUnits="userSpaceOnUse">
<stop stop-color="#B32BD5"/>
<stop offset="1" stop-color="#DA3C8E"/>
</linearGradient>
<linearGradient id="paint9_linear_1125_2" x1="316.774" y1="856.597" x2="316.774" y2="872.839" gradientUnits="userSpaceOnUse">
<stop stop-color="#B32BD5"/>
<stop offset="1" stop-color="#DA3C8E"/>
</linearGradient>
<linearGradient id="paint10_linear_1125_2" x1="478.333" y1="763.478" x2="478.333" y2="779.719" gradientUnits="userSpaceOnUse">
<stop stop-color="#B32BD5"/>
<stop offset="1" stop-color="#DA3C8E"/>
</linearGradient>
<linearGradient id="paint11_linear_1125_2" x1="397.493" y1="903.292" x2="397.493" y2="919.534" gradientUnits="userSpaceOnUse">
<stop stop-color="#B32BD5"/>
<stop offset="1" stop-color="#DA3C8E"/>
</linearGradient>
<linearGradient id="paint12_linear_1125_2" x1="397.63" y1="716.782" x2="397.63" y2="733.024" gradientUnits="userSpaceOnUse">
<stop stop-color="#B32BD5"/>
<stop offset="1" stop-color="#DA3C8E"/>
</linearGradient>
<linearGradient id="paint13_linear_1125_2" x1="316.637" y1="949.988" x2="316.637" y2="966.23" gradientUnits="userSpaceOnUse">
<stop stop-color="#B32BD5"/>
<stop offset="1" stop-color="#DA3C8E"/>
</linearGradient>
<linearGradient id="paint14_linear_1125_2" x1="397.745" y1="625.109" x2="397.745" y2="670.086" gradientUnits="userSpaceOnUse">
<stop stop-color="#B32BD5"/>
<stop offset="1" stop-color="#DA3C8E"/>
</linearGradient>
<linearGradient id="paint15_linear_1125_2" x1="432.487" y1="673.063" x2="432.487" y2="716.781" gradientUnits="userSpaceOnUse">
<stop stop-color="#B32BD5"/>
<stop offset="1" stop-color="#DA3C8E"/>
</linearGradient>
<linearGradient id="paint16_linear_1125_2" x1="362.535" y1="673.063" x2="362.535" y2="716.916" gradientUnits="userSpaceOnUse">
<stop stop-color="#B32BD5"/>
<stop offset="1" stop-color="#DA3C8E"/>
</linearGradient>
<linearGradient id="paint17_linear_1125_2" x1="487.948" y1="688.491" x2="487.948" y2="761.309" gradientUnits="userSpaceOnUse">
<stop stop-color="#B32BD5"/>
<stop offset="1" stop-color="#DA3C8E"/>
</linearGradient>
<linearGradient id="paint18_linear_1125_2" x1="443.523" y1="719.625" x2="443.523" y2="763.342" gradientUnits="userSpaceOnUse">
<stop stop-color="#B32BD5"/>
<stop offset="1" stop-color="#DA3C8E"/>
</linearGradient>
<linearGradient id="paint19_linear_1125_2" x1="535.158" y1="672.792" x2="535.158" y2="807.871" gradientUnits="userSpaceOnUse">
<stop stop-color="#B32BD5"/>
<stop offset="1" stop-color="#DA3C8E"/>
</linearGradient>
<linearGradient id="paint20_linear_1125_2" x1="524.177" y1="766.183" x2="524.177" y2="809.766" gradientUnits="userSpaceOnUse">
<stop stop-color="#B32BD5"/>
<stop offset="1" stop-color="#DA3C8E"/>
</linearGradient>
<linearGradient id="paint21_linear_1125_2" x1="524.108" y1="826.548" x2="524.108" y2="870.131" gradientUnits="userSpaceOnUse">
<stop stop-color="#B32BD5"/>
<stop offset="1" stop-color="#DA3C8E"/>
</linearGradient>
<linearGradient id="paint22_linear_1125_2" x1="487.942" y1="781.884" x2="487.942" y2="854.702" gradientUnits="userSpaceOnUse">
<stop stop-color="#B32BD5"/>
<stop offset="1" stop-color="#DA3C8E"/>
</linearGradient>
<linearGradient id="paint23_linear_1125_2" x1="488.1" y1="875.14" x2="488.1" y2="947.958" gradientUnits="userSpaceOnUse">
<stop stop-color="#B32BD5"/>
<stop offset="1" stop-color="#DA3C8E"/>
</linearGradient>
<linearGradient id="paint24_linear_1125_2" x1="535.247" y1="828.444" x2="535.247" y2="963.523" gradientUnits="userSpaceOnUse">
<stop stop-color="#B32BD5"/>
<stop offset="1" stop-color="#DA3C8E"/>
</linearGradient>
<linearGradient id="paint25_linear_1125_2" x1="443.458" y1="873.11" x2="443.458" y2="916.692" gradientUnits="userSpaceOnUse">
<stop stop-color="#B32BD5"/>
<stop offset="1" stop-color="#DA3C8E"/>
</linearGradient>
<linearGradient id="paint26_linear_1125_2" x1="432.554" y1="919.4" x2="432.554" y2="963.253" gradientUnits="userSpaceOnUse">
<stop stop-color="#B32BD5"/>
<stop offset="1" stop-color="#DA3C8E"/>
</linearGradient>
<linearGradient id="paint27_linear_1125_2" x1="362.467" y1="919.534" x2="362.467" y2="963.387" gradientUnits="userSpaceOnUse">
<stop stop-color="#B32BD5"/>
<stop offset="1" stop-color="#DA3C8E"/>
</linearGradient>
<linearGradient id="paint28_linear_1125_2" x1="397.487" y1="966.229" x2="397.487" y2="1011.21" gradientUnits="userSpaceOnUse">
<stop stop-color="#B32BD5"/>
<stop offset="1" stop-color="#DA3C8E"/>
</linearGradient>
<linearGradient id="paint29_linear_1125_2" x1="307.095" y1="875.14" x2="307.095" y2="947.958" gradientUnits="userSpaceOnUse">
<stop stop-color="#B32BD5"/>
<stop offset="1" stop-color="#DA3C8E"/>
</linearGradient>
<linearGradient id="paint30_linear_1125_2" x1="351.646" y1="872.974" x2="351.646" y2="916.828" gradientUnits="userSpaceOnUse">
<stop stop-color="#B32BD5"/>
<stop offset="1" stop-color="#DA3C8E"/>
</linearGradient>
<linearGradient id="paint31_linear_1125_2" x1="259.751" y1="672.927" x2="259.751" y2="807.871" gradientUnits="userSpaceOnUse">
<stop stop-color="#B32BD5"/>
<stop offset="1" stop-color="#DA3C8E"/>
</linearGradient>
<linearGradient id="paint32_linear_1125_2" x1="270.875" y1="826.548" x2="270.875" y2="870.131" gradientUnits="userSpaceOnUse">
<stop stop-color="#B32BD5"/>
<stop offset="1" stop-color="#DA3C8E"/>
</linearGradient>
<linearGradient id="paint33_linear_1125_2" x1="259.74" y1="828.444" x2="259.74" y2="963.388" gradientUnits="userSpaceOnUse">
<stop stop-color="#B32BD5"/>
<stop offset="1" stop-color="#DA3C8E"/>
</linearGradient>
<linearGradient id="paint34_linear_1125_2" x1="307.095" y1="688.629" x2="307.095" y2="761.312" gradientUnits="userSpaceOnUse">
<stop stop-color="#B32BD5"/>
<stop offset="1" stop-color="#DA3C8E"/>
</linearGradient>
<linearGradient id="paint35_linear_1125_2" x1="271.01" y1="766.318" x2="271.01" y2="809.901" gradientUnits="userSpaceOnUse">
<stop stop-color="#B32BD5"/>
<stop offset="1" stop-color="#DA3C8E"/>
</linearGradient>
<linearGradient id="paint36_linear_1125_2" x1="351.714" y1="719.487" x2="351.714" y2="763.34" gradientUnits="userSpaceOnUse">
<stop stop-color="#B32BD5"/>
<stop offset="1" stop-color="#DA3C8E"/>
</linearGradient>
<linearGradient id="paint37_linear_1125_2" x1="307.049" y1="781.614" x2="307.049" y2="854.432" gradientUnits="userSpaceOnUse">
<stop stop-color="#B32BD5"/>
<stop offset="1" stop-color="#DA3C8E"/>
</linearGradient>
<clipPath id="clip0_1125_2">
<rect width="1920" height="1080" fill="white"/>
</clipPath>
<clipPath id="clip1_1125_2">
<rect x="214" y="625" width="367" height="386.316" fill="white"/>
</clipPath>
</defs>
</svg>
