<svg width="1920" height="1080" viewBox="0 0 1920 1080" fill="none" xmlns="http://www.w3.org/2000/svg">
<g clip-path="url(#clip0_1125_2)">
<path d="M1920 0H0V1080H1920V0Z" fill="url(#paint0_linear_1125_2)" fill-opacity="0.5"/>
<path d="M642.031 178.324C637.576 178.324 633.695 177.244 630.387 175.085C627.107 172.926 624.565 169.687 622.761 165.368C620.957 161.049 620.055 155.637 620.055 149.132C620.055 144.267 620.698 140.016 621.982 136.381C623.294 132.746 625.057 129.712 627.271 127.279C629.513 124.846 632.041 123.029 634.856 121.826C637.699 120.623 640.637 120.022 643.671 120.022C647.361 120.022 650.423 120.555 652.855 121.621C655.288 122.66 657.611 124.19 659.825 126.213L655.52 130.682C653.798 129.069 651.981 127.88 650.067 127.115C648.181 126.35 646.063 125.967 643.712 125.967C641.662 125.967 639.681 126.363 637.767 127.156C635.854 127.949 634.132 129.247 632.601 131.051C631.098 132.828 629.895 135.192 628.993 138.144C628.119 141.096 627.681 144.759 627.681 149.132C627.681 154.571 628.242 158.999 629.362 162.416C630.51 165.833 632.191 168.347 634.405 169.96C636.647 171.545 639.407 172.338 642.687 172.338C644.655 172.338 646.514 172.106 648.263 171.641C650.04 171.176 651.762 170.507 653.429 169.632V152.412H642.318L641.457 146.508H660.481V173.404C657.939 174.771 655.233 175.932 652.363 176.889C649.493 177.846 646.049 178.324 642.031 178.324ZM680.621 134.208V164.794C680.621 167.637 681.209 169.687 682.384 170.944C683.56 172.201 685.391 172.83 687.878 172.83C690.256 172.83 692.498 172.16 694.602 170.821C696.734 169.454 698.388 167.842 699.563 165.983V134.208H706.451V177.381H700.588L700.014 171.559C698.32 173.746 696.229 175.427 693.741 176.602C691.254 177.75 688.739 178.324 686.197 178.324C682.015 178.324 678.886 177.217 676.808 175.003C674.758 172.762 673.733 169.632 673.733 165.614V134.208H680.621ZM744.754 134.208V171.928H756.931V177.381H724.541V171.928H737.866V139.661H724.951V134.208H744.754ZM739.26 113.995C740.791 113.995 742.007 114.46 742.909 115.389C743.838 116.318 744.303 117.453 744.303 118.792C744.303 120.186 743.838 121.361 742.909 122.318C742.007 123.247 740.791 123.712 739.26 123.712C737.811 123.712 736.622 123.247 735.693 122.318C734.764 121.361 734.299 120.186 734.299 118.792C734.299 117.453 734.764 116.318 735.693 115.389C736.622 114.46 737.811 113.995 739.26 113.995ZM797.899 115.963L804.787 116.824V177.381H798.76L798.104 171.682C796.491 173.978 794.633 175.659 792.528 176.725C790.451 177.791 788.223 178.324 785.845 178.324C782.1 178.324 779.012 177.381 776.579 175.495C774.146 173.609 772.342 170.985 771.167 167.623C769.992 164.234 769.404 160.311 769.404 155.856C769.404 151.537 770.074 147.683 771.413 144.294C772.752 140.877 774.679 138.199 777.194 136.258C779.736 134.29 782.784 133.306 786.337 133.306C788.824 133.306 791.011 133.743 792.897 134.618C794.783 135.465 796.45 136.723 797.899 138.39V115.963ZM788.141 138.841C784.533 138.841 781.759 140.249 779.818 143.064C777.877 145.879 776.907 150.143 776.907 155.856C776.907 159.573 777.303 162.689 778.096 165.204C778.889 167.719 780.05 169.605 781.581 170.862C783.139 172.119 785.039 172.748 787.28 172.748C789.74 172.748 791.831 172.051 793.553 170.657C795.302 169.263 796.751 167.691 797.899 165.942V144.376C796.724 142.627 795.302 141.274 793.635 140.317C791.968 139.333 790.136 138.841 788.141 138.841ZM826.649 158.234C826.786 161.569 827.428 164.302 828.576 166.434C829.724 168.539 831.241 170.097 833.127 171.108C835.013 172.092 837.063 172.584 839.277 172.584C841.491 172.584 843.486 172.256 845.263 171.6C847.067 170.944 848.912 169.974 850.798 168.689L854.037 173.24C852.014 174.825 849.705 176.069 847.108 176.971C844.539 177.873 841.901 178.324 839.195 178.324C835.013 178.324 831.446 177.381 828.494 175.495C825.542 173.609 823.287 170.985 821.729 167.623C820.198 164.234 819.433 160.311 819.433 155.856C819.433 151.483 820.212 147.601 821.77 144.212C823.328 140.823 825.515 138.158 828.33 136.217C831.145 134.276 834.466 133.306 838.293 133.306C841.928 133.306 845.058 134.167 847.682 135.889C850.306 137.584 852.315 140.016 853.709 143.187C855.13 146.33 855.841 150.089 855.841 154.462C855.841 155.2 855.827 155.897 855.8 156.553C855.773 157.182 855.732 157.742 855.677 158.234H826.649ZM838.375 138.964C835.177 138.964 832.498 140.098 830.339 142.367C828.207 144.636 826.991 148.148 826.69 152.904H849.199C849.117 148.285 848.106 144.813 846.165 142.49C844.224 140.139 841.628 138.964 838.375 138.964ZM953.849 175.208C952.373 176.192 950.583 176.957 948.478 177.504C946.373 178.051 944.31 178.324 942.287 178.324C937.64 178.324 934.06 177.108 931.545 174.675C929.03 172.242 927.773 169.113 927.773 165.286V139.538H917.851V134.208H927.773V124.409L934.661 123.589V134.208H949.585L948.765 139.538H934.661V165.204C934.661 167.609 935.29 169.441 936.547 170.698C937.832 171.955 939.95 172.584 942.902 172.584C944.515 172.584 946.004 172.393 947.371 172.01C948.738 171.627 950.009 171.135 951.184 170.534L953.849 175.208ZM985.182 133.306C989.255 133.306 992.658 134.235 995.391 136.094C998.152 137.925 1000.22 140.522 1001.58 143.884C1002.98 147.246 1003.67 151.209 1003.67 155.774C1003.67 160.175 1002.96 164.07 1001.54 167.459C1000.12 170.848 998.029 173.513 995.268 175.454C992.535 177.367 989.145 178.324 985.1 178.324C981.055 178.324 977.652 177.395 974.891 175.536C972.13 173.677 970.039 171.067 968.618 167.705C967.224 164.316 966.527 160.366 966.527 155.856C966.527 151.401 967.238 147.478 968.659 144.089C970.08 140.7 972.171 138.062 974.932 136.176C977.72 134.263 981.137 133.306 985.182 133.306ZM985.182 138.923C981.465 138.923 978.649 140.303 976.736 143.064C974.85 145.797 973.907 150.061 973.907 155.856C973.907 161.541 974.836 165.764 976.695 168.525C978.581 171.286 981.383 172.666 985.1 172.666C988.817 172.666 991.605 171.286 993.464 168.525C995.35 165.764 996.293 161.514 996.293 155.774C996.293 150.034 995.364 145.797 993.505 143.064C991.646 140.303 988.872 138.923 985.182 138.923ZM1073.96 134.208V164.794C1073.96 167.637 1074.55 169.687 1075.73 170.944C1076.9 172.201 1078.73 172.83 1081.22 172.83C1083.6 172.83 1085.84 172.16 1087.95 170.821C1090.08 169.454 1091.73 167.842 1092.91 165.983V134.208H1099.79V177.381H1093.93L1093.36 171.559C1091.66 173.746 1089.57 175.427 1087.08 176.602C1084.6 177.75 1082.08 178.324 1079.54 178.324C1075.36 178.324 1072.23 177.217 1070.15 175.003C1068.1 172.762 1067.08 169.632 1067.08 165.614V134.208H1073.96ZM1130.92 172.625C1134.23 172.625 1136.84 172.01 1138.75 170.78C1140.69 169.523 1141.66 167.855 1141.66 165.778C1141.66 164.466 1141.42 163.332 1140.93 162.375C1140.46 161.418 1139.49 160.557 1138.02 159.792C1136.54 159.027 1134.27 158.261 1131.21 157.496C1128.23 156.758 1125.63 155.911 1123.42 154.954C1121.23 153.97 1119.52 152.699 1118.29 151.141C1117.09 149.583 1116.49 147.56 1116.49 145.073C1116.49 142.64 1117.17 140.549 1118.54 138.8C1119.93 137.023 1121.86 135.67 1124.32 134.741C1126.78 133.784 1129.64 133.306 1132.89 133.306C1136.36 133.306 1139.38 133.771 1141.95 134.7C1144.55 135.602 1146.75 136.723 1148.55 138.062L1145.52 142.736C1143.88 141.615 1142.07 140.7 1140.11 139.989C1138.14 139.251 1135.76 138.882 1132.97 138.882C1129.58 138.882 1127.18 139.415 1125.76 140.481C1124.34 141.52 1123.62 142.873 1123.62 144.54C1123.62 145.797 1123.97 146.85 1124.65 147.697C1125.36 148.517 1126.55 149.269 1128.22 149.952C1129.88 150.608 1132.18 151.332 1135.1 152.125C1137.92 152.863 1140.37 153.751 1142.44 154.79C1144.55 155.829 1146.19 157.195 1147.36 158.89C1148.54 160.585 1149.13 162.771 1149.13 165.45C1149.13 168.511 1148.25 170.999 1146.5 172.912C1144.75 174.798 1142.48 176.178 1139.7 177.053C1136.94 177.9 1134.01 178.324 1130.92 178.324C1127.01 178.324 1123.68 177.764 1120.92 176.643C1118.19 175.495 1115.89 174.115 1114.03 172.502L1117.97 167.951C1119.66 169.345 1121.6 170.479 1123.79 171.354C1126 172.201 1128.38 172.625 1130.92 172.625ZM1187.27 134.208V171.928H1199.44V177.381H1167.05V171.928H1180.38V139.661H1167.46V134.208H1187.27ZM1181.77 113.995C1183.3 113.995 1184.52 114.46 1185.42 115.389C1186.35 116.318 1186.81 117.453 1186.81 118.792C1186.81 120.186 1186.35 121.361 1185.42 122.318C1184.52 123.247 1183.3 123.712 1181.77 123.712C1180.32 123.712 1179.13 123.247 1178.2 122.318C1177.28 121.361 1176.81 120.186 1176.81 118.792C1176.81 117.453 1177.28 116.318 1178.2 115.389C1179.13 114.46 1180.32 113.995 1181.77 113.995ZM1214.58 177.381V134.208H1220.44L1220.98 140.194C1222.73 137.98 1224.91 136.285 1227.54 135.11C1230.19 133.907 1232.76 133.306 1235.24 133.306C1239.48 133.306 1242.56 134.427 1244.47 136.668C1246.41 138.909 1247.38 142.025 1247.38 146.016V177.381H1240.49V151.1C1240.49 148.148 1240.33 145.77 1240 143.966C1239.67 142.135 1238.99 140.809 1237.95 139.989C1236.91 139.142 1235.3 138.718 1233.11 138.718C1231.42 138.718 1229.82 139.087 1228.32 139.825C1226.84 140.563 1225.51 141.492 1224.34 142.613C1223.19 143.706 1222.23 144.813 1221.47 145.934V177.381H1214.58ZM1298.84 129.616L1300.98 136.094C1299.15 136.668 1297.19 137.023 1295.11 137.16C1293.04 137.297 1290.78 137.365 1288.35 137.365C1290.84 138.513 1292.71 140.003 1293.97 141.834C1295.22 143.638 1295.85 145.77 1295.85 148.23C1295.85 151.073 1295.21 153.601 1293.92 155.815C1292.64 158.029 1290.78 159.765 1288.35 161.022C1285.94 162.279 1283.03 162.908 1279.62 162.908C1278.17 162.908 1276.95 162.84 1275.97 162.703C1275.01 162.566 1274.08 162.361 1273.18 162.088C1272.52 162.525 1271.98 163.127 1271.54 163.892C1271.13 164.657 1270.92 165.45 1270.92 166.27C1270.92 167.309 1271.33 168.17 1272.15 168.853C1272.97 169.536 1274.49 169.878 1276.7 169.878H1284.49C1287.39 169.878 1289.99 170.397 1292.28 171.436C1294.61 172.475 1296.43 173.869 1297.74 175.618C1299.08 177.367 1299.75 179.363 1299.75 181.604C1299.75 185.841 1297.94 189.093 1294.33 191.362C1290.75 193.631 1285.68 194.765 1279.12 194.765C1274.53 194.765 1270.91 194.287 1268.26 193.33C1265.61 192.401 1263.71 190.966 1262.56 189.025C1261.44 187.112 1260.88 184.693 1260.88 181.768H1267.11C1267.11 183.435 1267.44 184.816 1268.09 185.909C1268.75 187.002 1269.94 187.809 1271.66 188.328C1273.38 188.875 1275.86 189.148 1279.08 189.148C1282.25 189.148 1284.84 188.875 1286.83 188.328C1288.85 187.809 1290.34 187.016 1291.3 185.95C1292.28 184.911 1292.78 183.613 1292.78 182.055C1292.78 180.005 1291.85 178.461 1289.99 177.422C1288.13 176.383 1285.81 175.864 1283.02 175.864H1275.31C1271.59 175.864 1268.85 175.044 1267.07 173.404C1265.32 171.764 1264.45 169.878 1264.45 167.746C1264.45 166.352 1264.84 164.999 1265.63 163.687C1266.45 162.375 1267.64 161.213 1269.2 160.202C1266.71 158.89 1264.88 157.264 1263.71 155.323C1262.53 153.382 1261.94 151.032 1261.94 148.271C1261.94 145.346 1262.67 142.763 1264.12 140.522C1265.57 138.253 1267.59 136.477 1270.19 135.192C1272.78 133.907 1275.78 133.265 1279.16 133.265C1282.8 133.238 1285.75 133.087 1288.02 132.814C1290.29 132.513 1292.23 132.09 1293.84 131.543C1295.48 130.996 1297.15 130.354 1298.84 129.616ZM1279.16 138.308C1275.69 138.308 1273.12 139.251 1271.46 141.137C1269.82 142.996 1269 145.374 1269 148.271C1269 151.196 1269.84 153.601 1271.54 155.487C1273.23 157.373 1275.83 158.316 1279.33 158.316C1282.39 158.316 1284.71 157.428 1286.3 155.651C1287.91 153.874 1288.72 151.401 1288.72 148.23C1288.72 144.977 1287.91 142.517 1286.3 140.85C1284.71 139.155 1282.34 138.308 1279.16 138.308Z" fill="#9CC1E4"/>
<path d="M538.791 298.854C538.791 304.539 538.012 309.582 536.454 313.983C534.924 318.356 532.614 321.787 529.525 324.274C526.437 326.734 522.596 327.964 518.004 327.964C513.44 327.964 509.599 326.761 506.483 324.356C503.395 321.923 501.071 318.534 499.513 314.188C497.983 309.842 497.217 304.758 497.217 298.936C497.217 293.223 497.983 288.167 499.513 283.766C501.071 279.365 503.395 275.921 506.483 273.434C509.599 270.919 513.44 269.662 518.004 269.662C522.596 269.662 526.437 270.878 529.525 273.311C532.614 275.744 534.924 279.147 536.454 283.52C538.012 287.893 538.791 293.005 538.791 298.854ZM531.329 298.854C531.329 291.337 530.291 285.584 528.213 281.593C526.163 277.602 522.76 275.607 518.004 275.607C513.248 275.607 509.832 277.616 507.754 281.634C505.704 285.652 504.679 291.419 504.679 298.936C504.679 306.453 505.745 312.179 507.877 316.115C510.009 320.024 513.385 321.978 518.004 321.978C522.76 321.978 526.163 320.01 528.213 316.074C530.291 312.111 531.329 306.371 531.329 298.854ZM570.329 322.019C572.489 322.019 574.498 321.664 576.356 320.953C578.242 320.242 579.978 319.34 581.563 318.247L584.925 322.757C583.039 324.37 580.771 325.641 578.119 326.57C575.468 327.499 572.871 327.964 570.329 327.964C566.038 327.964 562.375 327.048 559.341 325.217C556.335 323.358 554.039 320.762 552.453 317.427C550.868 314.065 550.075 310.129 550.075 305.619C550.075 301.3 550.868 297.433 552.453 294.016C554.066 290.572 556.376 287.866 559.382 285.898C562.416 283.93 566.093 282.946 570.411 282.946C573.172 282.946 575.755 283.37 578.16 284.217C580.593 285.037 582.821 286.281 584.843 287.948L581.481 292.54C579.65 291.255 577.805 290.299 575.946 289.67C574.115 289.014 572.243 288.686 570.329 288.686C566.612 288.686 563.551 290.08 561.145 292.868C558.74 295.656 557.537 299.906 557.537 305.619C557.537 309.446 558.084 312.575 559.177 315.008C560.298 317.413 561.815 319.19 563.728 320.338C565.669 321.459 567.869 322.019 570.329 322.019ZM636.143 283.848L616.709 303.282L638.398 327.021H629.337L608.099 303.446L627.205 283.848H636.143ZM607.32 265.603V327.021H600.432V266.464L607.32 265.603ZM680.063 317.591C680.063 319.313 680.35 320.57 680.924 321.363C681.498 322.156 682.387 322.743 683.589 323.126L681.908 327.964C680.05 327.718 678.423 327.13 677.029 326.201C675.635 325.244 674.624 323.809 673.995 321.896C672.437 323.891 670.497 325.408 668.173 326.447C665.85 327.458 663.281 327.964 660.465 327.964C656.147 327.964 652.744 326.748 650.256 324.315C647.769 321.882 646.525 318.657 646.525 314.639C646.525 310.184 648.261 306.767 651.732 304.389C655.204 302.011 660.219 300.822 666.779 300.822H673.134V297.214C673.134 294.098 672.219 291.898 670.387 290.613C668.583 289.301 666.069 288.645 662.843 288.645C661.422 288.645 659.755 288.823 657.841 289.178C655.928 289.506 653.851 290.066 651.609 290.859L649.805 285.652C652.457 284.668 654.944 283.971 657.267 283.561C659.591 283.151 661.805 282.946 663.909 282.946C669.294 282.946 673.326 284.203 676.004 286.718C678.71 289.205 680.063 292.595 680.063 296.886V317.591ZM662.228 322.716C664.36 322.716 666.397 322.183 668.337 321.117C670.278 320.024 671.877 318.52 673.134 316.607V305.496H666.902C662.146 305.496 658.784 306.316 656.816 307.956C654.876 309.596 653.905 311.796 653.905 314.557C653.905 317.236 654.589 319.272 655.955 320.666C657.349 322.033 659.44 322.716 662.228 322.716ZM726.771 282.946C728.165 282.946 729.491 283.247 730.748 283.848C732.033 284.449 733.085 285.611 733.905 287.333C734.725 289.055 735.135 291.57 735.135 294.877V327.021H728.739V295.984C728.739 293.278 728.575 291.324 728.247 290.121C727.919 288.918 726.976 288.317 725.418 288.317C724.134 288.317 722.849 288.727 721.564 289.547C720.307 290.34 719.077 291.652 717.874 293.483V327.021H711.437V295.984C711.437 293.278 711.273 291.324 710.945 290.121C710.617 288.918 709.674 288.317 708.116 288.317C706.777 288.317 705.479 288.727 704.221 289.547C702.991 290.34 701.775 291.652 700.572 293.483V327.021H694.217V283.848H699.629L700.039 288.85C701.215 287.183 702.527 285.789 703.975 284.668C705.451 283.52 707.269 282.946 709.428 282.946C711.068 282.946 712.613 283.342 714.061 284.135C715.51 284.9 716.576 286.404 717.259 288.645C718.435 286.95 719.76 285.584 721.236 284.545C722.712 283.479 724.557 282.946 726.771 282.946ZM832.487 286.39C832.487 289.205 831.872 291.665 830.642 293.77C829.439 295.875 827.799 297.61 825.722 298.977C823.645 300.344 821.308 301.341 818.711 301.97L835.439 327.021H826.911L811.495 302.79H803.869V327.021H796.735V270.564H811.249C818.219 270.564 823.494 271.903 827.075 274.582C830.683 277.233 832.487 281.169 832.487 286.39ZM824.861 286.39C824.861 282.755 823.822 280.158 821.745 278.6C819.668 277.015 816.442 276.222 812.069 276.222H803.869V297.214H812.069C816.114 297.214 819.258 296.394 821.499 294.754C823.74 293.087 824.861 290.299 824.861 286.39ZM862.262 282.946C866.335 282.946 869.738 283.875 872.471 285.734C875.232 287.565 877.295 290.162 878.662 293.524C880.056 296.886 880.753 300.849 880.753 305.414C880.753 309.815 880.042 313.71 878.621 317.099C877.2 320.488 875.109 323.153 872.348 325.094C869.615 327.007 866.225 327.964 862.18 327.964C858.135 327.964 854.732 327.035 851.971 325.176C849.21 323.317 847.119 320.707 845.698 317.345C844.304 313.956 843.607 310.006 843.607 305.496C843.607 301.041 844.318 297.118 845.739 293.729C847.16 290.34 849.251 287.702 852.012 285.816C854.8 283.903 858.217 282.946 862.262 282.946ZM862.262 288.563C858.545 288.563 855.729 289.943 853.816 292.704C851.93 295.437 850.987 299.701 850.987 305.496C850.987 311.181 851.916 315.404 853.775 318.165C855.661 320.926 858.463 322.306 862.18 322.306C865.897 322.306 868.685 320.926 870.544 318.165C872.43 315.404 873.373 311.154 873.373 305.414C873.373 299.674 872.444 295.437 870.585 292.704C868.726 289.943 865.952 288.563 862.262 288.563ZM901.877 283.848V314.434C901.877 317.277 902.465 319.327 903.64 320.584C904.815 321.841 906.647 322.47 909.134 322.47C911.512 322.47 913.753 321.8 915.858 320.461C917.99 319.094 919.644 317.482 920.819 315.623V283.848H927.707V327.021H921.844L921.27 321.199C919.575 323.386 917.484 325.067 914.997 326.242C912.51 327.39 909.995 327.964 907.453 327.964C903.271 327.964 900.141 326.857 898.064 324.643C896.014 322.402 894.989 319.272 894.989 315.254V283.848H901.877ZM978.433 324.848C976.957 325.832 975.167 326.597 973.062 327.144C970.957 327.691 968.894 327.964 966.871 327.964C962.224 327.964 958.644 326.748 956.129 324.315C953.614 321.882 952.357 318.753 952.357 314.926V289.178H942.435V283.848H952.357V274.049L959.245 273.229V283.848H974.169L973.349 289.178H959.245V314.844C959.245 317.249 959.874 319.081 961.131 320.338C962.416 321.595 964.534 322.224 967.486 322.224C969.099 322.224 970.588 322.033 971.955 321.65C973.322 321.267 974.593 320.775 975.768 320.174L978.433 324.848ZM1015.18 283.848V321.568H1027.35V327.021H994.965V321.568H1008.29V289.301H995.375V283.848H1015.18ZM1009.68 263.635C1011.21 263.635 1012.43 264.1 1013.33 265.029C1014.26 265.958 1014.73 267.093 1014.73 268.432C1014.73 269.826 1014.26 271.001 1013.33 271.958C1012.43 272.887 1011.21 273.352 1009.68 273.352C1008.24 273.352 1007.05 272.887 1006.12 271.958C1005.19 271.001 1004.72 269.826 1004.72 268.432C1004.72 267.093 1005.19 265.958 1006.12 265.029C1007.05 264.1 1008.24 263.635 1009.68 263.635ZM1042.49 327.021V283.848H1048.36L1048.89 289.834C1050.64 287.62 1052.82 285.925 1055.45 284.75C1058.1 283.547 1060.67 282.946 1063.16 282.946C1067.39 282.946 1070.47 284.067 1072.38 286.308C1074.32 288.549 1075.29 291.665 1075.29 295.656V327.021H1068.4V300.74C1068.4 297.788 1068.24 295.41 1067.91 293.606C1067.58 291.775 1066.9 290.449 1065.86 289.629C1064.82 288.782 1063.21 288.358 1061.02 288.358C1059.33 288.358 1057.73 288.727 1056.23 289.465C1054.75 290.203 1053.43 291.132 1052.25 292.253C1051.1 293.346 1050.15 294.453 1049.38 295.574V327.021H1042.49ZM1126.76 279.256L1128.89 285.734C1127.06 286.308 1125.1 286.663 1123.03 286.8C1120.95 286.937 1118.69 287.005 1116.26 287.005C1118.75 288.153 1120.62 289.643 1121.88 291.474C1123.14 293.278 1123.76 295.41 1123.76 297.87C1123.76 300.713 1123.12 303.241 1121.84 305.455C1120.55 307.669 1118.69 309.405 1116.26 310.662C1113.86 311.919 1110.94 312.548 1107.53 312.548C1106.08 312.548 1104.86 312.48 1103.88 312.343C1102.92 312.206 1101.99 312.001 1101.09 311.728C1100.43 312.165 1099.89 312.767 1099.45 313.532C1099.04 314.297 1098.84 315.09 1098.84 315.91C1098.84 316.949 1099.25 317.81 1100.07 318.493C1100.89 319.176 1102.4 319.518 1104.62 319.518H1112.41C1115.3 319.518 1117.9 320.037 1120.2 321.076C1122.52 322.115 1124.34 323.509 1125.65 325.258C1126.99 327.007 1127.66 329.003 1127.66 331.244C1127.66 335.481 1125.85 338.733 1122.25 341.002C1118.67 343.271 1113.6 344.405 1107.04 344.405C1102.44 344.405 1098.82 343.927 1096.17 342.97C1093.52 342.041 1091.62 340.606 1090.47 338.665C1089.35 336.752 1088.79 334.333 1088.79 331.408H1095.02C1095.02 333.075 1095.35 334.456 1096.01 335.549C1096.66 336.642 1097.85 337.449 1099.57 337.968C1101.3 338.515 1103.77 338.788 1106.99 338.788C1110.17 338.788 1112.75 338.515 1114.74 337.968C1116.77 337.449 1118.26 336.656 1119.21 335.59C1120.2 334.551 1120.69 333.253 1120.69 331.695C1120.69 329.645 1119.76 328.101 1117.9 327.062C1116.04 326.023 1113.72 325.504 1110.93 325.504H1103.22C1099.51 325.504 1096.76 324.684 1094.98 323.044C1093.23 321.404 1092.36 319.518 1092.36 317.386C1092.36 315.992 1092.75 314.639 1093.55 313.327C1094.37 312.015 1095.56 310.853 1097.11 309.842C1094.63 308.53 1092.8 306.904 1091.62 304.963C1090.44 303.022 1089.86 300.672 1089.86 297.911C1089.86 294.986 1090.58 292.403 1092.03 290.162C1093.48 287.893 1095.5 286.117 1098.1 284.832C1100.69 283.547 1103.69 282.905 1107.08 282.905C1110.71 282.878 1113.66 282.727 1115.93 282.454C1118.2 282.153 1120.14 281.73 1121.75 281.183C1123.39 280.636 1125.06 279.994 1126.76 279.256ZM1107.08 287.948C1103.61 287.948 1101.04 288.891 1099.37 290.777C1097.73 292.636 1096.91 295.014 1096.91 297.911C1096.91 300.836 1097.76 303.241 1099.45 305.127C1101.15 307.013 1103.74 307.956 1107.24 307.956C1110.3 307.956 1112.63 307.068 1114.21 305.291C1115.82 303.514 1116.63 301.041 1116.63 297.87C1116.63 294.617 1115.82 292.157 1114.21 290.49C1112.63 288.795 1110.25 287.948 1107.08 287.948ZM1221.98 327.021H1212.22L1206.64 295.328L1200.57 327.021H1191.06L1183.19 283.848H1190.24L1195.74 322.757L1202.62 289.342H1210.78L1217.3 322.757L1222.8 283.848H1229.52L1221.98 327.021ZM1261.02 283.848V321.568H1273.19V327.021H1240.8V321.568H1254.13V289.301H1241.21V283.848H1261.02ZM1255.52 263.635C1257.05 263.635 1258.27 264.1 1259.17 265.029C1260.1 265.958 1260.57 267.093 1260.57 268.432C1260.57 269.826 1260.1 271.001 1259.17 271.958C1258.27 272.887 1257.05 273.352 1255.52 273.352C1254.08 273.352 1252.89 272.887 1251.96 271.958C1251.03 271.001 1250.56 269.826 1250.56 268.432C1250.56 267.093 1251.03 265.958 1251.96 265.029C1252.89 264.1 1254.08 263.635 1255.52 263.635ZM1322.61 324.848C1321.13 325.832 1319.34 326.597 1317.24 327.144C1315.13 327.691 1313.07 327.964 1311.05 327.964C1306.4 327.964 1302.82 326.748 1300.3 324.315C1297.79 321.882 1296.53 318.753 1296.53 314.926V289.178H1286.61V283.848H1296.53V274.049L1303.42 273.229V283.848H1318.34L1317.52 289.178H1303.42V314.844C1303.42 317.249 1304.05 319.081 1305.31 320.338C1306.59 321.595 1308.71 322.224 1311.66 322.224C1313.27 322.224 1314.76 322.033 1316.13 321.65C1317.5 321.267 1318.77 320.775 1319.94 320.174L1322.61 324.848ZM1344.39 265.808V289.752C1346.08 287.483 1348.16 285.789 1350.62 284.668C1353.11 283.52 1355.62 282.946 1358.16 282.946C1362.37 282.946 1365.45 284.067 1367.39 286.308C1369.33 288.549 1370.3 291.665 1370.3 295.656V327.021H1363.41V295.82C1363.41 293.223 1362.81 291.337 1361.61 290.162C1360.41 288.959 1358.52 288.358 1355.95 288.358C1354.31 288.358 1352.75 288.727 1351.28 289.465C1349.8 290.203 1348.48 291.119 1347.3 292.212C1346.12 293.305 1345.15 294.426 1344.39 295.574V327.021H1337.5V266.546L1344.39 265.808ZM609.673 432.848C608.197 433.832 606.407 434.597 604.302 435.144C602.198 435.691 600.134 435.964 598.111 435.964C593.465 435.964 589.884 434.748 587.369 432.315C584.855 429.882 583.597 426.753 583.597 422.926V397.178H573.675V391.848H583.597V382.049L590.485 381.229V391.848H605.409L604.589 397.178H590.485V422.844C590.485 425.249 591.114 427.081 592.371 428.338C593.656 429.595 595.774 430.224 598.726 430.224C600.339 430.224 601.829 430.033 603.195 429.65C604.562 429.267 605.833 428.775 607.008 428.174L609.673 432.848ZM631.453 373.808V397.752C633.148 395.483 635.225 393.789 637.685 392.668C640.173 391.52 642.687 390.946 645.229 390.946C649.439 390.946 652.514 392.067 654.454 394.308C656.395 396.549 657.365 399.665 657.365 403.656V435.021H650.477V403.82C650.477 401.223 649.876 399.337 648.673 398.162C647.471 396.959 645.585 396.358 643.015 396.358C641.375 396.358 639.817 396.727 638.341 397.465C636.865 398.203 635.54 399.119 634.364 400.212C633.189 401.305 632.219 402.426 631.453 403.574V435.021H624.565V374.546L631.453 373.808ZM679.145 415.874C679.282 419.209 679.924 421.942 681.072 424.074C682.22 426.179 683.737 427.737 685.623 428.748C687.509 429.732 689.559 430.224 691.773 430.224C693.987 430.224 695.983 429.896 697.759 429.24C699.563 428.584 701.408 427.614 703.294 426.329L706.533 430.88C704.511 432.465 702.201 433.709 699.604 434.611C697.035 435.513 694.397 435.964 691.691 435.964C687.509 435.964 683.942 435.021 680.99 433.135C678.038 431.249 675.783 428.625 674.225 425.263C672.695 421.874 671.929 417.951 671.929 413.496C671.929 409.123 672.708 405.241 674.266 401.852C675.824 398.463 678.011 395.798 680.826 393.857C683.642 391.916 686.963 390.946 690.789 390.946C694.425 390.946 697.554 391.807 700.178 393.529C702.802 395.224 704.811 397.656 706.205 400.827C707.627 403.97 708.337 407.729 708.337 412.102C708.337 412.84 708.324 413.537 708.296 414.193C708.269 414.822 708.228 415.382 708.173 415.874H679.145ZM690.871 396.604C687.673 396.604 684.995 397.738 682.835 400.007C680.703 402.276 679.487 405.788 679.186 410.544H701.695C701.613 405.925 700.602 402.453 698.661 400.13C696.721 397.779 694.124 396.604 690.871 396.604ZM807.903 394.39C807.903 397.205 807.288 399.665 806.058 401.77C804.855 403.875 803.215 405.61 801.138 406.977C799.061 408.344 796.724 409.341 794.127 409.97L810.855 435.021H802.327L786.911 410.79H779.285V435.021H772.151V378.564H786.665C793.635 378.564 798.91 379.903 802.491 382.582C806.099 385.233 807.903 389.169 807.903 394.39ZM800.277 394.39C800.277 390.755 799.238 388.158 797.161 386.6C795.084 385.015 791.858 384.222 787.485 384.222H779.285V405.214H787.485C791.53 405.214 794.674 404.394 796.915 402.754C799.156 401.087 800.277 398.299 800.277 394.39ZM828.125 391.848V422.434C828.125 425.277 828.713 427.327 829.888 428.584C831.063 429.841 832.895 430.47 835.382 430.47C837.76 430.47 840.001 429.8 842.106 428.461C844.238 427.094 845.892 425.482 847.067 423.623V391.848H853.955V435.021H848.092L847.518 429.199C845.823 431.386 843.732 433.067 841.245 434.242C838.758 435.39 836.243 435.964 833.701 435.964C829.519 435.964 826.389 434.857 824.312 432.643C822.262 430.402 821.237 427.272 821.237 423.254V391.848H828.125ZM885.083 430.265C888.39 430.265 891.001 429.65 892.914 428.42C894.855 427.163 895.825 425.495 895.825 423.418C895.825 422.106 895.579 420.972 895.087 420.015C894.622 419.058 893.652 418.197 892.176 417.432C890.7 416.667 888.431 415.901 885.37 415.136C882.391 414.398 879.794 413.551 877.58 412.594C875.393 411.61 873.685 410.339 872.455 408.781C871.252 407.223 870.651 405.2 870.651 402.713C870.651 400.28 871.334 398.189 872.701 396.44C874.095 394.663 876.022 393.31 878.482 392.381C880.942 391.424 883.798 390.946 887.051 390.946C890.522 390.946 893.543 391.411 896.112 392.34C898.709 393.242 900.909 394.363 902.713 395.702L899.679 400.376C898.039 399.255 896.235 398.34 894.267 397.629C892.299 396.891 889.921 396.522 887.133 396.522C883.744 396.522 881.338 397.055 879.917 398.121C878.496 399.16 877.785 400.513 877.785 402.18C877.785 403.437 878.127 404.49 878.81 405.337C879.521 406.157 880.71 406.909 882.377 407.592C884.044 408.248 886.34 408.972 889.265 409.765C892.08 410.503 894.527 411.391 896.604 412.43C898.709 413.469 900.349 414.835 901.524 416.53C902.699 418.225 903.287 420.411 903.287 423.09C903.287 426.151 902.412 428.639 900.663 430.552C898.914 432.438 896.645 433.818 893.857 434.693C891.096 435.54 888.172 435.964 885.083 435.964C881.174 435.964 877.84 435.404 875.079 434.283C872.346 433.135 870.05 431.755 868.191 430.142L872.127 425.591C873.822 426.985 875.762 428.119 877.949 428.994C880.163 429.841 882.541 430.265 885.083 430.265ZM953.849 432.848C952.373 433.832 950.583 434.597 948.478 435.144C946.373 435.691 944.31 435.964 942.287 435.964C937.64 435.964 934.06 434.748 931.545 432.315C929.03 429.882 927.773 426.753 927.773 422.926V397.178H917.851V391.848H927.773V382.049L934.661 381.229V391.848H949.585L948.765 397.178H934.661V422.844C934.661 425.249 935.29 427.081 936.547 428.338C937.832 429.595 939.95 430.224 942.902 430.224C944.515 430.224 946.004 430.033 947.371 429.65C948.738 429.267 950.009 428.775 951.184 428.174L953.849 432.848ZM1034.72 374.464V424.361C1034.72 426.493 1035.37 428.01 1036.69 428.912C1038.03 429.787 1039.75 430.224 1041.85 430.224C1043.16 430.224 1044.41 430.087 1045.58 429.814C1046.76 429.541 1047.93 429.172 1049.11 428.707L1050.95 433.75C1049.78 434.324 1048.32 434.83 1046.57 435.267C1044.85 435.732 1042.89 435.964 1040.7 435.964C1036.88 435.964 1033.78 434.912 1031.4 432.807C1029.02 430.675 1027.83 427.737 1027.83 423.992V379.917H1014.59V374.464H1034.72ZM1088.93 391.848V429.568H1101.11V435.021H1068.72V429.568H1082.04V397.301H1069.13V391.848H1088.93ZM1083.44 371.635C1084.97 371.635 1086.18 372.1 1087.08 373.029C1088.01 373.958 1088.48 375.093 1088.48 376.432C1088.48 377.826 1088.01 379.001 1087.08 379.958C1086.18 380.887 1084.97 381.352 1083.44 381.352C1081.99 381.352 1080.8 380.887 1079.87 379.958C1078.94 379.001 1078.47 377.826 1078.47 376.432C1078.47 375.093 1078.94 373.958 1079.87 373.029C1080.8 372.1 1081.99 371.635 1083.44 371.635ZM1123.13 397.465C1124.72 395.388 1126.54 393.789 1128.59 392.668C1130.66 391.52 1132.95 390.946 1135.43 390.946C1139.29 390.946 1142.4 391.875 1144.78 393.734C1147.16 395.593 1148.89 398.217 1149.99 401.606C1151.08 404.968 1151.63 408.904 1151.63 413.414C1151.63 417.76 1150.97 421.641 1149.66 425.058C1148.35 428.447 1146.42 431.112 1143.88 433.053C1141.36 434.994 1138.25 435.964 1134.53 435.964C1129.53 435.964 1125.61 434.16 1122.76 430.552L1122.27 435.021H1116.24V374.464L1123.13 373.603V397.465ZM1132.89 430.388C1136.5 430.388 1139.27 428.994 1141.21 426.206C1143.15 423.418 1144.12 419.14 1144.12 413.373C1144.12 409.601 1143.74 406.471 1142.98 403.984C1142.21 401.469 1141.06 399.597 1139.53 398.367C1138.03 397.11 1136.17 396.481 1133.96 396.481C1131.55 396.481 1129.43 397.205 1127.6 398.654C1125.8 400.075 1124.31 401.661 1123.13 403.41V424.812C1124.25 426.507 1125.66 427.86 1127.36 428.871C1129.08 429.882 1130.92 430.388 1132.89 430.388ZM1165.82 435.021V429.732H1172.55V397.137H1165.82V391.848H1177.79L1179.07 402.057C1180.73 398.504 1182.76 395.757 1185.13 393.816C1187.51 391.875 1190.66 390.905 1194.56 390.905C1195.77 390.905 1196.83 391.001 1197.76 391.192C1198.72 391.356 1199.69 391.575 1200.67 391.848L1198.66 397.998C1197.76 397.752 1196.94 397.574 1196.2 397.465C1195.47 397.328 1194.62 397.26 1193.66 397.26C1190.35 397.26 1187.51 398.435 1185.13 400.786C1182.76 403.137 1180.86 406.69 1179.43 411.446V429.732H1188.21V435.021H1165.82ZM1194.03 406.444V397.055L1194.73 391.848H1200.67L1199.69 406.444H1194.03ZM1245.49 425.591C1245.49 427.313 1245.78 428.57 1246.36 429.363C1246.93 430.156 1247.82 430.743 1249.02 431.126L1247.34 435.964C1245.48 435.718 1243.85 435.13 1242.46 434.201C1241.07 433.244 1240.06 431.809 1239.43 429.896C1237.87 431.891 1235.93 433.408 1233.6 434.447C1231.28 435.458 1228.71 435.964 1225.9 435.964C1221.58 435.964 1218.18 434.748 1215.69 432.315C1213.2 429.882 1211.96 426.657 1211.96 422.639C1211.96 418.184 1213.69 414.767 1217.16 412.389C1220.64 410.011 1225.65 408.822 1232.21 408.822H1238.57V405.214C1238.57 402.098 1237.65 399.898 1235.82 398.613C1234.01 397.301 1231.5 396.645 1228.27 396.645C1226.85 396.645 1225.19 396.823 1223.27 397.178C1221.36 397.506 1219.28 398.066 1217.04 398.859L1215.24 393.652C1217.89 392.668 1220.38 391.971 1222.7 391.561C1225.02 391.151 1227.24 390.946 1229.34 390.946C1234.73 390.946 1238.76 392.203 1241.44 394.718C1244.14 397.205 1245.49 400.595 1245.49 404.886V425.591ZM1227.66 430.716C1229.79 430.716 1231.83 430.183 1233.77 429.117C1235.71 428.024 1237.31 426.52 1238.57 424.607V413.496H1232.33C1227.58 413.496 1224.22 414.316 1222.25 415.956C1220.31 417.596 1219.34 419.796 1219.34 422.557C1219.34 425.236 1220.02 427.272 1221.39 428.666C1222.78 430.033 1224.87 430.716 1227.66 430.716ZM1264.16 435.021V429.732H1270.88V397.137H1264.16V391.848H1276.13L1277.4 402.057C1279.07 398.504 1281.09 395.757 1283.47 393.816C1285.85 391.875 1288.99 390.905 1292.9 390.905C1294.1 390.905 1295.17 391.001 1296.1 391.192C1297.05 391.356 1298.02 391.575 1299.01 391.848L1297 397.998C1296.1 397.752 1295.28 397.574 1294.54 397.465C1293.8 397.328 1292.95 397.26 1292 397.26C1288.69 397.26 1285.85 398.435 1283.47 400.786C1281.09 403.137 1279.19 406.69 1277.77 411.446V429.732H1286.54V435.021H1264.16ZM1292.37 406.444V397.055L1293.06 391.848H1299.01L1298.02 406.444H1292.37ZM1348.83 391.848L1333.66 435.308C1332.65 438.233 1331.37 440.911 1329.81 443.344C1328.28 445.777 1326.27 447.786 1323.78 449.371C1321.32 450.984 1318.19 451.981 1314.39 452.364L1313.33 446.87C1316.31 446.378 1318.66 445.626 1320.38 444.615C1322.1 443.604 1323.45 442.305 1324.44 440.72C1325.45 439.135 1326.34 437.235 1327.1 435.021H1324.81L1309.72 391.848H1317.1L1329.48 429.773L1341.7 391.848H1348.83Z" fill="white"/>
<path d="M1760.21 814.149L1744.99 804.719C1744.86 803.235 1744.71 801.755 1744.56 800.281L1757.66 788.077C1758.99 786.836 1759.59 784.998 1759.23 783.223C1758.88 781.438 1757.63 779.968 1755.92 779.34L1739.18 773.099C1738.76 771.65 1738.32 770.211 1737.87 768.766L1748.3 754.273C1749.37 752.8 1749.59 750.883 1748.89 749.211C1748.2 747.537 1746.68 746.337 1744.91 746.043L1727.26 743.172C1726.57 741.834 1725.86 740.516 1725.14 739.219L1732.56 722.924C1733.32 721.267 1733.16 719.353 1732.15 717.828C1731.14 716.316 1729.43 715.432 1727.6 715.501L1709.68 716.125C1708.75 714.967 1707.81 713.82 1706.85 712.693L1710.98 695.254C1711.39 693.482 1710.87 691.613 1709.58 690.331C1708.3 689.048 1706.44 688.517 1704.66 688.933L1687.22 693.059C1686.09 692.102 1684.94 691.156 1683.78 690.23L1684.41 672.306C1684.47 670.492 1683.59 668.769 1682.08 667.764C1680.56 666.751 1678.65 666.599 1676.98 667.351L1660.72 674.771C1659.41 674.049 1658.09 673.335 1656.77 672.645L1653.89 654.998C1653.6 653.209 1652.4 651.69 1650.72 651.011C1649.05 650.314 1647.12 650.539 1645.66 651.6L1631.17 662.036C1629.74 661.582 1628.3 661.145 1626.87 660.729L1620.63 643.983C1619.99 642.277 1618.52 641.026 1616.75 640.672C1614.96 640.322 1613.14 640.915 1611.89 642.239L1599.69 655.345C1598.21 655.182 1596.73 655.033 1595.25 654.911L1585.82 639.656C1584.87 638.114 1583.18 637.174 1581.35 637.174C1579.52 637.174 1577.85 638.114 1576.91 639.656L1567.48 654.911C1566 655.033 1564.51 655.182 1563.04 655.345L1550.84 642.239C1549.6 640.915 1547.76 640.322 1545.98 640.672C1544.2 641.029 1542.73 642.277 1542.1 643.983L1535.86 660.729C1534.41 661.145 1532.98 661.585 1531.56 662.036L1517.07 651.6C1515.59 650.536 1513.67 650.311 1512.01 651.011C1510.33 651.704 1509.13 653.223 1508.84 654.998L1505.96 672.645C1504.63 673.335 1503.31 674.046 1502.01 674.771L1485.75 667.351C1484.09 666.595 1482.18 666.751 1480.65 667.764C1479.14 668.769 1478.25 670.492 1478.32 672.306L1478.95 690.23C1477.79 691.156 1476.64 692.102 1475.51 693.059L1458.07 688.933C1456.3 688.521 1454.43 689.048 1453.15 690.331C1451.86 691.617 1451.33 693.472 1451.75 695.254L1455.84 712.693C1454.89 713.823 1453.94 714.967 1453.02 716.125L1435.09 715.501C1433.29 715.449 1431.56 716.316 1430.55 717.828C1429.54 719.332 1429.39 721.26 1430.14 722.924L1437.56 739.219C1436.84 740.527 1436.12 741.844 1435.43 743.172L1417.79 746.043C1415.99 746.334 1414.48 747.533 1413.8 749.211C1413.1 750.893 1413.33 752.817 1414.39 754.273L1424.82 768.766C1424.37 770.198 1423.93 771.636 1423.51 773.099L1406.77 779.34C1405.07 779.975 1403.82 781.445 1403.46 783.223C1403.11 785.005 1403.7 786.829 1405.03 788.077L1418.14 800.281C1417.97 801.755 1417.83 803.238 1417.7 804.719L1402.48 814.149C1400.94 815.103 1400 816.788 1400 818.622C1400 820.456 1400.94 822.123 1402.48 823.06L1417.7 832.49C1417.83 833.974 1417.97 835.454 1418.14 836.928L1405.03 849.132C1403.7 850.369 1403.11 852.207 1403.46 853.986C1403.82 855.771 1405.07 857.238 1406.77 857.869L1423.51 864.109C1423.93 865.559 1424.37 866.997 1424.82 868.443L1414.39 882.935C1413.33 884.412 1413.1 886.33 1413.8 887.997C1414.5 889.679 1416.01 890.878 1417.82 891.166L1435.47 894.037C1436.16 895.375 1436.87 896.693 1437.59 897.989L1430.17 914.25C1429.42 915.904 1429.57 917.821 1430.59 919.346C1431.6 920.861 1433.32 921.745 1435.13 921.673L1453.02 921.045C1453.95 922.21 1454.89 923.351 1455.85 924.484L1451.76 941.924C1451.34 943.692 1451.86 945.529 1453.15 946.812C1454.43 948.105 1456.29 948.622 1458.08 948.206L1475.52 944.115C1476.65 945.079 1477.8 946.015 1478.95 946.937L1478.33 964.862C1478.26 966.675 1479.15 968.398 1480.66 969.403C1482.16 970.412 1484.09 970.565 1485.75 969.809L1502.01 962.39C1503.33 963.118 1504.64 963.825 1505.97 964.515L1508.84 982.162C1509.14 983.958 1510.33 985.477 1512.01 986.184C1513.69 986.881 1515.62 986.656 1517.07 985.598L1531.57 975.162C1533 975.616 1534.44 976.06 1535.9 976.476L1542.14 993.222C1542.78 994.921 1544.25 996.179 1546.03 996.526C1547.81 996.887 1549.63 996.29 1550.88 994.959L1563.08 981.854C1564.56 982.024 1566.04 982.166 1567.52 982.297L1576.95 997.518C1577.9 999.054 1579.59 1000 1581.39 1000C1583.19 1000 1584.89 999.057 1585.86 997.518L1595.29 982.297C1596.78 982.166 1598.26 982.024 1599.73 981.854L1611.93 994.959C1613.17 996.29 1615.01 996.887 1616.79 996.526C1618.57 996.176 1620.04 994.921 1620.67 993.222L1626.91 976.476C1628.36 976.06 1629.8 975.616 1631.24 975.162L1645.74 985.598C1647.21 986.656 1649.13 986.881 1650.8 986.184C1652.48 985.494 1653.68 983.972 1653.97 982.162L1656.85 964.515C1658.18 963.825 1659.49 963.107 1660.8 962.39L1677.06 969.809C1678.71 970.565 1680.63 970.412 1682.16 969.403C1683.67 968.391 1684.55 966.675 1684.48 964.862L1683.86 946.937C1685.02 946.011 1686.16 945.079 1687.29 944.115L1704.73 948.206C1706.5 948.622 1708.37 948.105 1709.66 946.812C1710.95 945.526 1711.47 943.678 1711.05 941.924L1706.96 924.484C1707.92 923.351 1708.86 922.21 1709.78 921.045L1727.71 921.673C1729.52 921.745 1731.24 920.861 1732.25 919.346C1733.26 917.835 1733.42 915.91 1732.66 914.25L1725.24 897.989C1725.96 896.675 1726.68 895.358 1727.36 894.037L1745.01 891.166C1746.81 890.878 1748.32 889.679 1749 887.997C1749.69 886.323 1749.47 884.392 1748.41 882.935L1737.97 868.443C1738.42 867.011 1738.86 865.572 1739.28 864.109L1756.03 857.869C1757.73 857.231 1758.99 855.764 1759.33 853.986C1759.69 852.204 1759.1 850.38 1757.76 849.132L1744.66 836.928C1744.82 835.454 1744.96 833.97 1745.09 832.49L1760.31 823.06C1761.85 822.11 1762.8 820.421 1762.8 818.622C1762.8 816.822 1761.86 815.12 1760.32 814.149H1760.21ZM1658.28 940.696C1652.45 939.441 1648.78 933.693 1650.03 927.868C1651.27 922.044 1656.99 918.334 1662.82 919.582C1668.64 920.827 1672.35 926.585 1671.11 932.41C1669.86 938.235 1664.14 941.944 1658.31 940.696H1658.28ZM1653.11 905.679C1647.81 904.542 1642.57 907.919 1641.46 913.237L1636.05 938.477C1619.38 946.036 1600.69 950.265 1581.27 950.265C1561.3 950.265 1542.44 945.862 1525.45 937.957L1520.05 912.717C1518.91 907.413 1513.7 904.015 1508.4 905.159L1486.1 909.944C1481.98 905.679 1478.13 901.137 1474.59 896.353H1583.11C1584.34 896.353 1585.16 896.131 1585.16 895.015V856.53C1585.16 855.414 1584.34 855.192 1583.11 855.192H1551.39V830.888H1585.68C1588.81 830.888 1602.42 831.783 1606.76 849.194C1608.12 854.533 1611.13 871.938 1613.17 877.52C1615.21 883.761 1623.5 896.242 1632.34 896.242H1686.43C1687.04 896.242 1687.7 896.173 1688.39 896.048C1684.64 901.144 1680.52 905.964 1676.11 910.471L1653.3 905.582L1653.11 905.679ZM1502.99 940.176C1497.16 941.431 1491.44 937.722 1490.19 931.89C1488.95 926.065 1492.65 920.31 1498.48 919.062C1504.31 917.817 1510.03 921.527 1511.28 927.348C1512.52 933.173 1508.82 938.928 1502.99 940.176ZM1461.73 773.411C1464.14 778.855 1461.69 785.234 1456.25 787.661C1450.81 790.078 1444.46 787.619 1442.04 782.183C1439.61 776.747 1442.08 770.36 1447.52 767.934C1452.96 765.52 1459.3 767.975 1461.73 773.411ZM1449.08 803.367L1472.31 793.035C1477.26 790.833 1479.52 785.026 1477.3 780.068L1472.51 769.251H1491.31V853.847H1453.51C1450.22 842.267 1448.45 830.063 1448.45 817.443C1448.45 812.624 1448.71 807.874 1449.21 803.193L1449.08 803.367ZM1551.01 795.15V770.187H1595.73C1598.04 770.187 1612.06 772.86 1612.06 783.327C1612.06 792.029 1601.31 795.15 1592.47 795.15H1550.87H1551.01ZM1713.61 817.616C1713.61 820.931 1713.49 824.204 1713.25 827.463H1699.62C1698.26 827.463 1697.71 828.357 1697.71 829.692V835.933C1697.71 850.633 1689.43 853.857 1682.15 854.655C1675.21 855.435 1667.55 851.756 1666.61 847.513C1662.52 824.526 1655.73 819.638 1644.98 811.109C1658.33 802.649 1672.19 790.133 1672.19 773.318C1672.19 755.255 1659.82 743.883 1651.39 738.301C1639.53 730.5 1626.43 728.94 1622.89 728.94H1482.13C1501.23 707.652 1527.2 692.536 1556.33 686.988L1572.93 704.393C1576.68 708.311 1582.88 708.484 1586.84 704.712L1605.42 686.961C1644.25 694.207 1677.19 718.407 1696.26 751.794L1683.53 780.502C1681.34 785.459 1683.58 791.284 1688.52 793.468L1713 804.355C1713.42 808.689 1713.65 813.092 1713.65 817.53L1713.61 817.616ZM1572.85 672.347C1577.15 668.221 1583.98 668.395 1588.07 672.697C1592.16 676.996 1592.02 683.826 1587.71 687.952C1583.41 692.078 1576.58 691.905 1572.49 687.599C1568.4 683.3 1568.54 676.469 1572.85 672.344V672.347ZM1699.05 773.932C1701.46 768.488 1707.82 766.027 1713.27 768.454C1718.71 770.867 1721.17 777.26 1718.74 782.703C1716.33 788.146 1709.97 790.608 1704.53 788.181C1699.08 785.768 1696.62 779.375 1699.05 773.932Z" fill="url(#paint1_linear_1125_2)"/>
<g clip-path="url(#clip1_1125_2)">
<path d="M316.637 684.326C321.125 684.326 324.763 680.691 324.763 676.206C324.763 671.72 321.125 668.084 316.637 668.084C312.15 668.084 308.512 671.72 308.512 676.206C308.512 680.691 312.15 684.326 316.637 684.326Z" fill="url(#paint2_linear_1125_2)"/>
<path d="M316.774 775.582C321.262 775.582 324.9 771.946 324.9 767.461C324.9 762.976 321.262 759.34 316.774 759.34C312.286 759.34 308.648 762.976 308.648 767.461C308.648 771.946 312.286 775.582 316.774 775.582Z" fill="url(#paint3_linear_1125_2)"/>
<path d="M478.333 966.231C482.82 966.231 486.458 962.595 486.458 958.109C486.458 953.624 482.82 949.988 478.333 949.988C473.845 949.988 470.207 953.624 470.207 958.109C470.207 962.595 473.845 966.231 478.333 966.231Z" fill="url(#paint4_linear_1125_2)"/>
<path d="M235.919 826.278C240.406 826.278 244.044 822.642 244.044 818.157C244.044 813.672 240.406 810.036 235.919 810.036C231.431 810.036 227.793 813.672 227.793 818.157C227.793 822.642 231.431 826.278 235.919 826.278Z" fill="url(#paint5_linear_1125_2)"/>
<path d="M559.184 826.278C563.672 826.278 567.31 822.642 567.31 818.157C567.31 813.672 563.672 810.036 559.184 810.036C554.697 810.036 551.059 813.672 551.059 818.157C551.059 822.642 554.697 826.278 559.184 826.278Z" fill="url(#paint6_linear_1125_2)"/>
<path d="M478.333 686.328C482.82 686.328 486.458 682.692 486.458 678.207C486.458 673.722 482.82 670.086 478.333 670.086C473.845 670.086 470.207 673.722 470.207 678.207C470.207 682.692 473.845 686.328 478.333 686.328Z" fill="url(#paint7_linear_1125_2)"/>
<path d="M478.333 872.973C482.82 872.973 486.458 869.337 486.458 864.852C486.458 860.367 482.82 856.731 478.333 856.731C473.845 856.731 470.207 860.367 470.207 864.852C470.207 869.337 473.845 872.973 478.333 872.973Z" fill="url(#paint8_linear_1125_2)"/>
<path d="M316.774 872.839C321.262 872.839 324.9 869.203 324.9 864.718C324.9 860.233 321.262 856.597 316.774 856.597C312.286 856.597 308.648 860.233 308.648 864.718C308.648 869.203 312.286 872.839 316.774 872.839Z" fill="url(#paint9_linear_1125_2)"/>
<path d="M478.333 779.719C482.82 779.719 486.458 776.083 486.458 771.598C486.458 767.113 482.82 763.478 478.333 763.478C473.845 763.478 470.207 767.113 470.207 771.598C470.207 776.083 473.845 779.719 478.333 779.719Z" fill="url(#paint10_linear_1125_2)"/>
<path d="M397.493 919.534C401.98 919.534 405.618 915.898 405.618 911.414C405.618 906.928 401.98 903.292 397.493 903.292C393.005 903.292 389.367 906.928 389.367 911.414C389.367 915.898 393.005 919.534 397.493 919.534Z" fill="url(#paint11_linear_1125_2)"/>
<path d="M397.629 733.024C402.117 733.024 405.755 729.388 405.755 724.903C405.755 720.418 402.117 716.782 397.629 716.782C393.142 716.782 389.504 720.418 389.504 724.903C389.504 729.388 393.142 733.024 397.629 733.024Z" fill="url(#paint12_linear_1125_2)"/>
<path d="M316.637 966.23C321.125 966.23 324.763 962.595 324.763 958.109C324.763 953.624 321.125 949.988 316.637 949.988C312.15 949.988 308.512 953.624 308.512 958.109C308.512 962.595 312.15 966.23 316.637 966.23Z" fill="url(#paint13_linear_1125_2)"/>
<path d="M330.303 670.086C360.367 633 414.673 627.18 451.915 657.228C456.656 661.017 460.989 665.348 464.781 670.086C466.135 667.785 468.031 665.755 470.469 664.401C472.094 663.454 473.719 662.912 475.615 662.642C441.352 619.6 378.65 612.562 335.72 646.806C329.897 651.543 324.479 656.822 319.875 662.642C324.073 663.589 328.001 666.296 330.303 670.086Z" fill="url(#paint14_linear_1125_2)"/>
<path d="M411.157 716.781C424.429 700.268 443.388 689.305 464.379 685.921C462.213 681.996 461.806 677.259 463.432 673.063C438.649 676.717 416.168 689.711 400.594 709.472C405.063 710.149 408.855 712.856 411.157 716.781Z" fill="url(#paint15_linear_1125_2)"/>
<path d="M360.097 696.343C369.306 701.622 377.296 708.66 383.932 716.916C385.286 714.616 387.182 712.585 389.62 711.232C391.11 710.42 392.735 709.743 394.495 709.472C379.056 689.711 356.44 676.582 331.657 673.063C332.335 674.687 332.605 676.582 332.605 678.342C332.605 681.049 331.928 683.62 330.574 685.921C341.002 687.546 351.023 691.065 360.097 696.343Z" fill="url(#paint16_linear_1125_2)"/>
<path d="M478.477 755.76C483.081 755.76 487.415 757.79 490.394 761.309C499.739 737.894 499.739 711.907 490.53 688.491C489.311 689.845 487.956 691.063 486.332 692.01C484.029 693.364 481.456 694.041 478.747 694.041C486.467 713.937 486.332 735.864 478.477 755.76Z" fill="url(#paint17_linear_1125_2)"/>
<path d="M464.785 763.342C467.087 759.417 471.015 756.846 475.483 756.034C459.91 736.408 437.429 723.414 412.646 719.625C414.136 723.955 413.729 728.693 411.562 732.618C432.418 736.002 451.378 746.965 464.785 763.342Z" fill="url(#paint18_linear_1125_2)"/>
<path d="M500.816 687.68C547.131 699.997 574.487 747.505 562.164 793.659C561.351 796.637 560.403 799.479 559.32 802.321C562.028 802.321 564.737 802.998 567.039 804.352C568.664 805.299 570.019 806.517 571.237 807.871C572.591 804.352 573.81 800.832 574.758 797.313C588.978 744.121 557.424 689.44 504.201 675.093C500.545 674.145 497.024 673.333 493.232 672.792C494.722 677.123 494.315 681.86 492.148 685.785C495.128 686.326 497.972 686.868 500.816 687.68Z" fill="url(#paint19_linear_1125_2)"/>
<path d="M528.307 778.364C517.473 772.138 505.556 767.942 493.232 766.183C494.722 770.514 494.45 775.251 492.148 779.176C513.139 782.425 532.099 793.253 545.506 809.766C547.808 805.975 551.736 803.269 556.205 802.457C548.486 792.847 539.006 784.59 528.307 778.364Z" fill="url(#paint20_linear_1125_2)"/>
<path d="M494.179 864.852C494.179 866.612 493.908 868.372 493.231 870.131C518.149 866.612 540.63 853.483 556.204 833.857C551.735 833.181 547.807 830.474 545.505 826.548C532.098 843.061 513.003 854.024 492.012 857.273C493.502 859.438 494.179 862.145 494.179 864.852Z" fill="url(#paint21_linear_1125_2)"/>
<path d="M478.598 849.017C483.202 849.153 487.4 851.183 490.38 854.702C499.589 831.287 499.589 805.3 490.38 781.884C487.4 785.268 483.202 787.298 478.733 787.433C486.317 807.195 486.181 829.121 478.598 849.017Z" fill="url(#paint22_linear_1125_2)"/>
<path d="M478.73 942.273C483.335 942.408 487.533 944.439 490.513 947.958C499.857 924.542 499.722 898.555 490.513 875.14C487.533 878.659 483.335 880.689 478.73 880.824C486.315 900.45 486.315 922.377 478.73 942.273Z" fill="url(#paint23_linear_1125_2)"/>
<path d="M574.755 839.001C573.807 835.347 572.589 831.828 571.235 828.444C568.255 831.963 563.922 833.993 559.452 833.993C560.536 836.7 561.484 839.543 562.296 842.385C574.755 888.675 547.264 936.318 500.948 948.77C498.105 949.447 495.261 950.123 492.281 950.53C494.583 954.455 494.99 959.327 493.364 963.523C497.021 962.982 500.677 962.17 504.334 961.222C557.421 946.875 589.111 892.194 574.755 839.001Z" fill="url(#paint24_linear_1125_2)"/>
<path d="M412.378 916.692C437.296 913.038 459.777 900.045 475.486 880.419C471.017 879.607 467.09 876.9 464.787 873.11C451.38 889.487 432.421 900.451 411.43 903.834C413.597 907.759 413.867 912.497 412.378 916.692Z" fill="url(#paint25_linear_1125_2)"/>
<path d="M434.992 939.973C425.783 934.695 417.793 927.656 411.157 919.4C409.803 921.701 407.907 923.731 405.469 925.085C403.979 925.897 402.354 926.573 400.594 926.844C416.032 946.605 438.513 959.734 463.432 963.253C461.806 959.058 462.213 954.32 464.515 950.395C454.087 948.771 444.065 945.252 434.992 939.973Z" fill="url(#paint26_linear_1125_2)"/>
<path d="M360.097 939.972C351.023 945.25 341.002 948.769 330.574 950.529C332.741 954.454 333.012 959.191 331.522 963.387C356.44 959.733 378.921 946.604 394.36 926.843C389.891 926.031 386.099 923.324 383.797 919.534C377.161 927.79 369.171 934.693 360.097 939.972Z" fill="url(#paint27_linear_1125_2)"/>
<path d="M464.794 966.229C434.729 1003.32 380.288 1009.14 343.181 979.088C338.442 975.298 334.108 970.967 330.316 966.229C328.962 968.531 327.066 970.561 324.628 971.915C323.003 972.862 321.378 973.403 319.617 973.674C353.88 1016.72 416.447 1023.75 459.512 989.51C465.336 984.773 470.753 979.494 475.357 973.674C471.024 972.862 467.096 970.155 464.794 966.229Z" fill="url(#paint28_linear_1125_2)"/>
<path d="M316.499 880.553C313.79 880.553 311.082 879.877 308.779 878.523C307.29 877.576 305.8 876.493 304.717 875.14C295.372 898.555 295.372 924.542 304.581 947.958C305.665 946.604 307.154 945.386 308.644 944.439C310.946 943.085 313.655 942.408 316.228 942.408C308.644 922.377 308.644 900.315 316.499 880.553Z" fill="url(#paint29_linear_1125_2)"/>
<path d="M330.316 872.974C328.014 876.899 324.086 879.471 319.617 880.283C335.192 899.909 357.672 913.038 382.591 916.828C381.101 912.496 381.372 907.759 383.674 903.834C362.683 900.315 343.723 889.352 330.316 872.974Z" fill="url(#paint30_linear_1125_2)"/>
<path d="M223.739 807.871C226.718 804.352 231.052 802.457 235.521 802.322C234.438 799.615 233.49 796.772 232.677 793.93C220.218 747.64 247.709 699.998 294.025 687.681C296.869 687.004 299.713 686.327 302.693 685.921C300.39 681.996 299.984 677.123 301.609 672.927C297.952 673.469 294.296 674.281 290.775 675.229C237.552 689.44 205.998 744.257 220.218 797.449C221.301 800.968 222.385 804.352 223.739 807.871Z" fill="url(#paint31_linear_1125_2)"/>
<path d="M266.812 857.95C277.646 864.175 289.563 868.372 301.887 870.131C300.397 865.8 300.668 861.063 302.835 857.138C281.844 853.889 262.884 842.926 249.477 826.548C247.175 830.338 243.248 833.045 238.914 833.857C246.498 843.467 255.978 851.723 266.812 857.95Z" fill="url(#paint32_linear_1125_2)"/>
<path d="M294.154 948.635C247.839 936.182 220.347 888.675 232.671 842.385C233.484 839.543 234.432 836.7 235.515 833.993C232.807 833.993 230.098 833.316 227.796 831.963C226.306 831.016 224.816 829.797 223.733 828.444C222.379 831.828 221.16 835.482 220.212 839.001C205.992 892.194 237.411 946.74 290.634 961.087C294.29 962.034 297.946 962.846 301.603 963.388C300.113 959.056 300.519 954.455 302.686 950.53C299.978 949.988 296.998 949.447 294.154 948.635Z" fill="url(#paint33_linear_1125_2)"/>
<path d="M316.499 755.627C308.779 735.866 308.779 713.939 316.363 694.178C311.894 694.043 307.561 692.013 304.581 688.629C295.372 712.044 295.372 738.031 304.717 761.312C307.561 757.793 311.894 755.627 316.499 755.627Z" fill="url(#paint34_linear_1125_2)"/>
<path d="M300.939 771.462C300.939 769.702 301.345 767.942 301.887 766.318C276.969 769.973 254.488 782.966 238.914 802.592C240.675 802.863 242.435 803.54 243.925 804.352C246.227 805.705 248.123 807.6 249.477 809.901C262.884 793.388 281.98 782.425 303.106 779.176C301.616 776.876 300.939 774.169 300.939 771.462Z" fill="url(#paint35_linear_1125_2)"/>
<path d="M382.727 719.487C357.944 723.277 335.463 736.27 319.754 755.896C324.223 756.708 328.015 759.415 330.317 763.34C343.724 746.963 362.684 736 383.675 732.616C381.508 728.556 381.102 723.818 382.727 719.487Z" fill="url(#paint36_linear_1125_2)"/>
<path d="M316.36 787.299C311.891 787.164 307.557 785.133 304.713 781.614C295.504 805.03 295.369 831.017 304.578 854.432C307.557 851.049 311.755 848.883 316.224 848.883C308.776 828.987 308.776 807.06 316.36 787.299Z" fill="url(#paint37_linear_1125_2)"/>
</g>
</g>
<defs>
<linearGradient id="paint0_linear_1125_2" x1="960" y1="0" x2="960" y2="1080" gradientUnits="userSpaceOnUse">
<stop stop-color="#323232"/>
<stop offset="1"/>
</linearGradient>
<linearGradient id="paint1_linear_1125_2" x1="1581.4" y1="637.174" x2="1581.4" y2="1000" gradientUnits="userSpaceOnUse">
<stop stop-color="#B32BD5"/>
<stop offset="1" stop-color="#DA3C8E"/>
</linearGradient>
<linearGradient id="paint2_linear_1125_2" x1="316.637" y1="668.084" x2="316.637" y2="684.326" gradientUnits="userSpaceOnUse">
<stop stop-color="#B32BD5"/>
<stop offset="1" stop-color="#DA3C8E"/>
</linearGradient>
<linearGradient id="paint3_linear_1125_2" x1="316.774" y1="759.34" x2="316.774" y2="775.582" gradientUnits="userSpaceOnUse">
<stop stop-color="#B32BD5"/>
<stop offset="1" stop-color="#DA3C8E"/>
</linearGradient>
<linearGradient id="paint4_linear_1125_2" x1="478.333" y1="949.988" x2="478.333" y2="966.231" gradientUnits="userSpaceOnUse">
<stop stop-color="#B32BD5"/>
<stop offset="1" stop-color="#DA3C8E"/>
</linearGradient>
<linearGradient id="paint5_linear_1125_2" x1="235.919" y1="810.036" x2="235.919" y2="826.278" gradientUnits="userSpaceOnUse">
<stop stop-color="#B32BD5"/>
<stop offset="1" stop-color="#DA3C8E"/>
</linearGradient>
<linearGradient id="paint6_linear_1125_2" x1="559.184" y1="810.036" x2="559.184" y2="826.278" gradientUnits="userSpaceOnUse">
<stop stop-color="#B32BD5"/>
<stop offset="1" stop-color="#DA3C8E"/>
</linearGradient>
<linearGradient id="paint7_linear_1125_2" x1="478.333" y1="670.086" x2="478.333" y2="686.328" gradientUnits="userSpaceOnUse">
<stop stop-color="#B32BD5"/>
<stop offset="1" stop-color="#DA3C8E"/>
</linearGradient>
<linearGradient id="paint8_linear_1125_2" x1="478.333" y1="856.731" x2="478.333" y2="872.973" gradientUnits="userSpaceOnUse">
<stop stop-color="#B32BD5"/>
<stop offset="1" stop-color="#DA3C8E"/>
</linearGradient>
<linearGradient id="paint9_linear_1125_2" x1="316.774" y1="856.597" x2="316.774" y2="872.839" gradientUnits="userSpaceOnUse">
<stop stop-color="#B32BD5"/>
<stop offset="1" stop-color="#DA3C8E"/>
</linearGradient>
<linearGradient id="paint10_linear_1125_2" x1="478.333" y1="763.478" x2="478.333" y2="779.719" gradientUnits="userSpaceOnUse">
<stop stop-color="#B32BD5"/>
<stop offset="1" stop-color="#DA3C8E"/>
</linearGradient>
<linearGradient id="paint11_linear_1125_2" x1="397.493" y1="903.292" x2="397.493" y2="919.534" gradientUnits="userSpaceOnUse">
<stop stop-color="#B32BD5"/>
<stop offset="1" stop-color="#DA3C8E"/>
</linearGradient>
<linearGradient id="paint12_linear_1125_2" x1="397.63" y1="716.782" x2="397.63" y2="733.024" gradientUnits="userSpaceOnUse">
<stop stop-color="#B32BD5"/>
<stop offset="1" stop-color="#DA3C8E"/>
</linearGradient>
<linearGradient id="paint13_linear_1125_2" x1="316.637" y1="949.988" x2="316.637" y2="966.23" gradientUnits="userSpaceOnUse">
<stop stop-color="#B32BD5"/>
<stop offset="1" stop-color="#DA3C8E"/>
</linearGradient>
<linearGradient id="paint14_linear_1125_2" x1="397.745" y1="625.109" x2="397.745" y2="670.086" gradientUnits="userSpaceOnUse">
<stop stop-color="#B32BD5"/>
<stop offset="1" stop-color="#DA3C8E"/>
</linearGradient>
<linearGradient id="paint15_linear_1125_2" x1="432.487" y1="673.063" x2="432.487" y2="716.781" gradientUnits="userSpaceOnUse">
<stop stop-color="#B32BD5"/>
<stop offset="1" stop-color="#DA3C8E"/>
</linearGradient>
<linearGradient id="paint16_linear_1125_2" x1="362.535" y1="673.063" x2="362.535" y2="716.916" gradientUnits="userSpaceOnUse">
<stop stop-color="#B32BD5"/>
<stop offset="1" stop-color="#DA3C8E"/>
</linearGradient>
<linearGradient id="paint17_linear_1125_2" x1="487.948" y1="688.491" x2="487.948" y2="761.309" gradientUnits="userSpaceOnUse">
<stop stop-color="#B32BD5"/>
<stop offset="1" stop-color="#DA3C8E"/>
</linearGradient>
<linearGradient id="paint18_linear_1125_2" x1="443.523" y1="719.625" x2="443.523" y2="763.342" gradientUnits="userSpaceOnUse">
<stop stop-color="#B32BD5"/>
<stop offset="1" stop-color="#DA3C8E"/>
</linearGradient>
<linearGradient id="paint19_linear_1125_2" x1="535.158" y1="672.792" x2="535.158" y2="807.871" gradientUnits="userSpaceOnUse">
<stop stop-color="#B32BD5"/>
<stop offset="1" stop-color="#DA3C8E"/>
</linearGradient>
<linearGradient id="paint20_linear_1125_2" x1="524.177" y1="766.183" x2="524.177" y2="809.766" gradientUnits="userSpaceOnUse">
<stop stop-color="#B32BD5"/>
<stop offset="1" stop-color="#DA3C8E"/>
</linearGradient>
<linearGradient id="paint21_linear_1125_2" x1="524.108" y1="826.548" x2="524.108" y2="870.131" gradientUnits="userSpaceOnUse">
<stop stop-color="#B32BD5"/>
<stop offset="1" stop-color="#DA3C8E"/>
</linearGradient>
<linearGradient id="paint22_linear_1125_2" x1="487.942" y1="781.884" x2="487.942" y2="854.702" gradientUnits="userSpaceOnUse">
<stop stop-color="#B32BD5"/>
<stop offset="1" stop-color="#DA3C8E"/>
</linearGradient>
<linearGradient id="paint23_linear_1125_2" x1="488.1" y1="875.14" x2="488.1" y2="947.958" gradientUnits="userSpaceOnUse">
<stop stop-color="#B32BD5"/>
<stop offset="1" stop-color="#DA3C8E"/>
</linearGradient>
<linearGradient id="paint24_linear_1125_2" x1="535.247" y1="828.444" x2="535.247" y2="963.523" gradientUnits="userSpaceOnUse">
<stop stop-color="#B32BD5"/>
<stop offset="1" stop-color="#DA3C8E"/>
</linearGradient>
<linearGradient id="paint25_linear_1125_2" x1="443.458" y1="873.11" x2="443.458" y2="916.692" gradientUnits="userSpaceOnUse">
<stop stop-color="#B32BD5"/>
<stop offset="1" stop-color="#DA3C8E"/>
</linearGradient>
<linearGradient id="paint26_linear_1125_2" x1="432.554" y1="919.4" x2="432.554" y2="963.253" gradientUnits="userSpaceOnUse">
<stop stop-color="#B32BD5"/>
<stop offset="1" stop-color="#DA3C8E"/>
</linearGradient>
<linearGradient id="paint27_linear_1125_2" x1="362.467" y1="919.534" x2="362.467" y2="963.387" gradientUnits="userSpaceOnUse">
<stop stop-color="#B32BD5"/>
<stop offset="1" stop-color="#DA3C8E"/>
</linearGradient>
<linearGradient id="paint28_linear_1125_2" x1="397.487" y1="966.229" x2="397.487" y2="1011.21" gradientUnits="userSpaceOnUse">
<stop stop-color="#B32BD5"/>
<stop offset="1" stop-color="#DA3C8E"/>
</linearGradient>
<linearGradient id="paint29_linear_1125_2" x1="307.095" y1="875.14" x2="307.095" y2="947.958" gradientUnits="userSpaceOnUse">
<stop stop-color="#B32BD5"/>
<stop offset="1" stop-color="#DA3C8E"/>
</linearGradient>
<linearGradient id="paint30_linear_1125_2" x1="351.646" y1="872.974" x2="351.646" y2="916.828" gradientUnits="userSpaceOnUse">
<stop stop-color="#B32BD5"/>
<stop offset="1" stop-color="#DA3C8E"/>
</linearGradient>
<linearGradient id="paint31_linear_1125_2" x1="259.751" y1="672.927" x2="259.751" y2="807.871" gradientUnits="userSpaceOnUse">
<stop stop-color="#B32BD5"/>
<stop offset="1" stop-color="#DA3C8E"/>
</linearGradient>
<linearGradient id="paint32_linear_1125_2" x1="270.875" y1="826.548" x2="270.875" y2="870.131" gradientUnits="userSpaceOnUse">
<stop stop-color="#B32BD5"/>
<stop offset="1" stop-color="#DA3C8E"/>
</linearGradient>
<linearGradient id="paint33_linear_1125_2" x1="259.74" y1="828.444" x2="259.74" y2="963.388" gradientUnits="userSpaceOnUse">
<stop stop-color="#B32BD5"/>
<stop offset="1" stop-color="#DA3C8E"/>
</linearGradient>
<linearGradient id="paint34_linear_1125_2" x1="307.095" y1="688.629" x2="307.095" y2="761.312" gradientUnits="userSpaceOnUse">
<stop stop-color="#B32BD5"/>
<stop offset="1" stop-color="#DA3C8E"/>
</linearGradient>
<linearGradient id="paint35_linear_1125_2" x1="271.01" y1="766.318" x2="271.01" y2="809.901" gradientUnits="userSpaceOnUse">
<stop stop-color="#B32BD5"/>
<stop offset="1" stop-color="#DA3C8E"/>
</linearGradient>
<linearGradient id="paint36_linear_1125_2" x1="351.714" y1="719.487" x2="351.714" y2="763.34" gradientUnits="userSpaceOnUse">
<stop stop-color="#B32BD5"/>
<stop offset="1" stop-color="#DA3C8E"/>
</linearGradient>
<linearGradient id="paint37_linear_1125_2" x1="307.049" y1="781.614" x2="307.049" y2="854.432" gradientUnits="userSpaceOnUse">
<stop stop-color="#B32BD5"/>
<stop offset="1" stop-color="#DA3C8E"/>
</linearGradient>
<clipPath id="clip0_1125_2">
<rect width="1920" height="1080" fill="white"/>
</clipPath>
<clipPath id="clip1_1125_2">
<rect width="367" height="386.316" fill="white" transform="translate(214 625)"/>
</clipPath>
</defs>
</svg>
