<?xml version="1.0" encoding="utf-8"?>
<svg width="1920" height="1080" viewBox="0 0 1920 1080" fill="none" xmlns="http://www.w3.org/2000/svg" xmlns:xlink="http://www.w3.org/1999/xlink" xmlns:bx="https://boxy-svg.com">
  <defs>
    <symbol id="t" overflow="visible">
      <path d="m18.766-1.125c-0.96875 0.5-1.9805 0.875-3.0312 1.125-1.043 0.25781-2.1367 0.39062-3.2812 0.39062-3.3984 0-6.0898-0.94531-8.0781-2.8438-1.9922-1.9062-2.9844-4.4844-2.9844-7.7344 0-3.2578 0.99219-5.8359 2.9844-7.7344 1.9883-1.9062 4.6797-2.8594 8.0781-2.8594 1.1445 0 2.2383 0.13281 3.2812 0.39062 1.0508 0.25 2.0625 0.625 3.0312 1.125v4.2188c-0.98047-0.65625-1.9453-1.1406-2.8906-1.4531-0.94922-0.3125-1.9492-0.46875-3-0.46875-1.875 0-3.3516 0.60547-4.4219 1.8125-1.0742 1.1992-1.6094 2.8555-1.6094 4.9688 0 2.1055 0.53516 3.7617 1.6094 4.9688 1.0703 1.1992 2.5469 1.7969 4.4219 1.7969 1.0508 0 2.0508-0.14844 3-0.45312 0.94531-0.3125 1.9102-0.80078 2.8906-1.4688z"/>
    </symbol>
    <symbol id="c" overflow="visible">
      <path d="m13.734-11.141c-0.4375-0.19531-0.87109-0.34375-1.2969-0.4375-0.41797-0.10156-0.83984-0.15625-1.2656-0.15625-1.2617 0-2.2305 0.40625-2.9062 1.2188-0.67969 0.80469-1.0156 1.9531-1.0156 3.4531v7.0625h-4.8906v-15.312h4.8906v2.5156c0.625-1 1.3438-1.7266 2.1562-2.1875 0.82031-0.46875 1.8008-0.70312 2.9375-0.70312 0.16406 0 0.34375 0.011719 0.53125 0.03125 0.19531 0.011719 0.47656 0.039062 0.84375 0.078125z"/>
    </symbol>
    <symbol id="a" overflow="visible">
      <path d="m17.641-7.7031v1.4062h-11.453c0.125 1.1484 0.53906 2.0078 1.25 2.5781 0.70703 0.57422 1.7031 0.85938 2.9844 0.85938 1.0312 0 2.082-0.14844 3.1562-0.45312 1.082-0.3125 2.1914-0.77344 3.3281-1.3906v3.7656c-1.1562 0.4375-2.3125 0.76562-3.4688 0.98438-1.1562 0.22656-2.3125 0.34375-3.4688 0.34375-2.7734 0-4.9297-0.70312-6.4688-2.1094-1.5312-1.4062-2.2969-3.3789-2.2969-5.9219 0-2.5 0.75391-4.4609 2.2656-5.8906 1.5078-1.4375 3.582-2.1562 6.2188-2.1562 2.4062 0 4.332 0.73047 5.7812 2.1875 1.4453 1.4492 2.1719 3.3828 2.1719 5.7969zm-5.0312-1.625c0-0.92578-0.27344-1.6719-0.8125-2.2344-0.54297-0.57031-1.25-0.85938-2.125-0.85938-0.94922 0-1.7188 0.26562-2.3125 0.79688s-0.96484 1.2969-1.1094 2.2969z"/>
    </symbol>
    <symbol id="k" overflow="visible">
      <path d="m9.2188-6.8906c-1.0234 0-1.793 0.17188-2.3125 0.51562-0.51172 0.34375-0.76562 0.85547-0.76562 1.5312 0 0.625 0.20703 1.1172 0.625 1.4688 0.41406 0.34375 0.98828 0.51562 1.7188 0.51562 0.92578 0 1.7031-0.32812 2.3281-0.98438 0.63281-0.66406 0.95312-1.4922 0.95312-2.4844v-0.5625zm7.4688-1.8438v8.7344h-4.9219v-2.2656c-0.65625 0.92969-1.3984 1.6055-2.2188 2.0312-0.82422 0.41406-1.8242 0.625-3 0.625-1.5859 0-2.8711-0.45703-3.8594-1.375-0.99219-0.92578-1.4844-2.1289-1.4844-3.6094 0-1.7891 0.61328-3.1016 1.8438-3.9375 1.2383-0.84375 3.1797-1.2656 5.8281-1.2656h2.8906v-0.39062c0-0.76953-0.30859-1.332-0.92188-1.6875-0.61719-0.36328-1.5703-0.54688-2.8594-0.54688-1.0547 0-2.0312 0.10547-2.9375 0.3125-0.89844 0.21094-1.7305 0.52344-2.5 0.9375v-3.7344c1.0391-0.25 2.0859-0.44141 3.1406-0.57812 1.0625-0.13281 2.125-0.20312 3.1875-0.20312 2.7578 0 4.75 0.54688 5.9688 1.6406 1.2266 1.0859 1.8438 2.8555 1.8438 5.3125z"/>
    </symbol>
    <symbol id="b" overflow="visible">
      <path d="m7.7031-19.656v4.3438h5.0469v3.5h-5.0469v6.5c0 0.71094 0.14062 1.1875 0.42188 1.4375s0.83594 0.375 1.6719 0.375h2.5156v3.5h-4.1875c-1.9375 0-3.3125-0.39844-4.125-1.2031-0.80469-0.8125-1.2031-2.1797-1.2031-4.1094v-6.5h-2.4219v-3.5h2.4219v-4.3438z"/>
    </symbol>
    <symbol id="j" overflow="visible">
      <path d="m12.766-13.078v-8.2031h4.9219v21.281h-4.9219v-2.2188c-0.66797 0.90625-1.4062 1.5703-2.2188 1.9844s-1.7578 0.625-2.8281 0.625c-1.8867 0-3.4336-0.75-4.6406-2.25-1.2109-1.5-1.8125-3.4258-1.8125-5.7812 0-2.3633 0.60156-4.2969 1.8125-5.7969 1.207-1.5 2.7539-2.25 4.6406-2.25 1.0625 0 2 0.21484 2.8125 0.64062 0.82031 0.42969 1.5664 1.0859 2.2344 1.9688zm-3.2188 9.9219c1.0391 0 1.8359-0.37891 2.3906-1.1406 0.55078-0.76953 0.82812-1.8828 0.82812-3.3438 0-1.457-0.27734-2.5664-0.82812-3.3281-0.55469-0.76953-1.3516-1.1562-2.3906-1.1562-1.043 0-1.8398 0.38672-2.3906 1.1562-0.55469 0.76172-0.82812 1.8711-0.82812 3.3281 0 1.4609 0.27344 2.5742 0.82812 3.3438 0.55078 0.76172 1.3477 1.1406 2.3906 1.1406z"/>
    </symbol>
    <symbol id="i" overflow="visible">
      <path d="m10.5-3.1562c1.0508 0 1.8516-0.37891 2.4062-1.1406 0.55078-0.76953 0.82812-1.8828 0.82812-3.3438 0-1.457-0.27734-2.5664-0.82812-3.3281-0.55469-0.76953-1.3555-1.1562-2.4062-1.1562-1.0547 0-1.8594 0.38672-2.4219 1.1562-0.55469 0.77344-0.82812 1.8828-0.82812 3.3281 0 1.4492 0.27344 2.5586 0.82812 3.3281 0.5625 0.77344 1.3672 1.1562 2.4219 1.1562zm-3.25-9.9219c0.67578-0.88281 1.4219-1.5391 2.2344-1.9688 0.82031-0.42578 1.7656-0.64062 2.8281-0.64062 1.8945 0 3.4453 0.75 4.6562 2.25 1.207 1.5 1.8125 3.4336 1.8125 5.7969 0 2.3555-0.60547 4.2812-1.8125 5.7812-1.2109 1.5-2.7617 2.25-4.6562 2.25-1.0625 0-2.0078-0.21094-2.8281-0.625-0.8125-0.42578-1.5586-1.0859-2.2344-1.9844v2.2188h-4.8906v-21.281h4.8906z"/>
    </symbol>
    <symbol id="e" overflow="visible">
      <path d="m0.34375-15.312h4.8906l4.125 10.391 3.5-10.391h4.8906l-6.4375 16.766c-0.64844 1.6953-1.4023 2.8828-2.2656 3.5625-0.86719 0.6875-2 1.0312-3.4062 1.0312h-2.8438v-3.2188h1.5312c0.83203 0 1.4375-0.13672 1.8125-0.40625 0.38281-0.26172 0.67969-0.73047 0.89062-1.4062l0.14062-0.42188z"/>
    </symbol>
    <symbol id="h" overflow="visible">
      <path d="m2.5781-20.406h14.203v3.9688h-8.9531v3.7969h8.4219v3.9844h-8.4219v8.6562h-5.25z"/>
    </symbol>
    <symbol id="g" overflow="visible">
      <path d="m2.1875-5.9688v-9.3438h4.9219v1.5312c0 0.83594-0.007813 1.875-0.015625 3.125-0.011719 1.25-0.015625 2.0859-0.015625 2.5 0 1.2422 0.03125 2.1328 0.09375 2.6719 0.070313 0.54297 0.17969 0.93359 0.32812 1.1719 0.20703 0.32422 0.47266 0.57422 0.79688 0.75 0.32031 0.16797 0.69141 0.25 1.1094 0.25 1.0195 0 1.8203-0.39062 2.4062-1.1719 0.58203-0.78125 0.875-1.8672 0.875-3.2656v-7.5625h4.8906v15.312h-4.8906v-2.2188c-0.74219 0.89844-1.5234 1.5586-2.3438 1.9844-0.82422 0.41406-1.7344 0.625-2.7344 0.625-1.7617 0-3.1055-0.53906-4.0312-1.625-0.92969-1.082-1.3906-2.6602-1.3906-4.7344z"/>
    </symbol>
    <symbol id="f" overflow="visible">
      <path d="m17.75-9.3281v9.3281h-4.9219v-7.1406c0-1.3203-0.03125-2.2344-0.09375-2.7344s-0.16797-0.86719-0.3125-1.1094c-0.1875-0.3125-0.44922-0.55469-0.78125-0.73438-0.32422-0.17578-0.69531-0.26562-1.1094-0.26562-1.0234 0-1.8242 0.39844-2.4062 1.1875-0.58594 0.78125-0.875 1.8711-0.875 3.2656v7.5312h-4.8906v-15.312h4.8906v2.2344c0.73828-0.88281 1.5195-1.5391 2.3438-1.9688 0.83203-0.42578 1.75-0.64062 2.75-0.64062 1.7695 0 3.1133 0.54688 4.0312 1.6406 0.91406 1.0859 1.375 2.6562 1.375 4.7188z"/>
    </symbol>
    <symbol id="s" overflow="visible">
      <path d="m2.3594-21.281h4.8906v11.594l5.625-5.625h5.6875l-7.4688 7.0312 8.0625 8.2812h-5.9375l-5.9688-6.3906v6.3906h-4.8906z"/>
    </symbol>
    <symbol id="r" overflow="visible">
      <path d="m12.422-21.281v3.2188h-2.7031c-0.6875 0-1.1719 0.125-1.4531 0.375-0.27344 0.25-0.40625 0.6875-0.40625 1.3125v1.0625h4.1875v3.5h-4.1875v11.812h-4.8906v-11.812h-2.4375v-3.5h2.4375v-1.0625c0-1.6641 0.46094-2.8984 1.3906-3.7031 0.92578-0.80078 2.3672-1.2031 4.3281-1.2031z"/>
    </symbol>
    <symbol id="d" overflow="visible">
      <path d="m9.6406-12.188c-1.0859 0-1.9141 0.39062-2.4844 1.1719-0.57422 0.78125-0.85938 1.9062-0.85938 3.375s0.28516 2.5938 0.85938 3.375c0.57031 0.77344 1.3984 1.1562 2.4844 1.1562 1.0625 0 1.875-0.38281 2.4375-1.1562 0.57031-0.78125 0.85938-1.9062 0.85938-3.375s-0.28906-2.5938-0.85938-3.375c-0.5625-0.78125-1.375-1.1719-2.4375-1.1719zm0-3.5c2.6328 0 4.6914 0.71484 6.1719 2.1406 1.4766 1.418 2.2188 3.3867 2.2188 5.9062 0 2.5117-0.74219 4.4805-2.2188 5.9062-1.4805 1.418-3.5391 2.125-6.1719 2.125-2.6484 0-4.7148-0.70703-6.2031-2.125-1.4922-1.4258-2.2344-3.3945-2.2344-5.9062 0-2.5195 0.74219-4.4883 2.2344-5.9062 1.4883-1.4258 3.5547-2.1406 6.2031-2.1406z"/>
    </symbol>
    <symbol id="q" overflow="visible">
      <path d="m16.547-12.766c0.61328-0.94531 1.3477-1.6719 2.2031-2.1719 0.85156-0.5 1.7891-0.75 2.8125-0.75 1.7578 0 3.0977 0.54688 4.0156 1.6406 0.92578 1.0859 1.3906 2.6562 1.3906 4.7188v9.3281h-4.9219v-7.9844-0.35938c0.007813-0.13281 0.015625-0.32031 0.015625-0.5625 0-1.082-0.16406-1.8633-0.48438-2.3438-0.3125-0.48828-0.82422-0.73438-1.5312-0.73438-0.92969 0-1.6484 0.38672-2.1562 1.1562-0.51172 0.76172-0.77344 1.8672-0.78125 3.3125v7.5156h-4.9219v-7.9844c0-1.6953-0.14844-2.7852-0.4375-3.2656-0.29297-0.48828-0.8125-0.73438-1.5625-0.73438-0.9375 0-1.6641 0.38672-2.1719 1.1562-0.51172 0.76172-0.76562 1.8594-0.76562 3.2969v7.5312h-4.9219v-15.312h4.9219v2.2344c0.60156-0.86328 1.2891-1.5156 2.0625-1.9531 0.78125-0.4375 1.6406-0.65625 2.5781-0.65625 1.0625 0 2 0.25781 2.8125 0.76562 0.8125 0.51172 1.4258 1.2305 1.8438 2.1562z"/>
    </symbol>
    <symbol id="p" overflow="visible">
      <path d="m17.75-9.3281v9.3281h-4.9219v-7.1094c0-1.3438-0.03125-2.2656-0.09375-2.7656s-0.16797-0.86719-0.3125-1.1094c-0.1875-0.3125-0.44922-0.55469-0.78125-0.73438-0.32422-0.17578-0.69531-0.26562-1.1094-0.26562-1.0234 0-1.8242 0.39844-2.4062 1.1875-0.58594 0.78125-0.875 1.8711-0.875 3.2656v7.5312h-4.8906v-21.281h4.8906v8.2031c0.73828-0.88281 1.5195-1.5391 2.3438-1.9688 0.83203-0.42578 1.75-0.64062 2.75-0.64062 1.7695 0 3.1133 0.54688 4.0312 1.6406 0.91406 1.0859 1.375 2.6562 1.375 4.7188z"/>
    </symbol>
    <symbol id="o" overflow="visible">
      <path d="m2.5781-20.406h5.875l7.4219 14v-14h4.9844v20.406h-5.875l-7.4219-14v14h-4.9844z"/>
    </symbol>
    <symbol id="n" overflow="visible">
      <path d="m2.5781-20.406h8.7344c2.5938 0 4.582 0.57812 5.9688 1.7344 1.3945 1.1484 2.0938 2.7891 2.0938 4.9219 0 2.1367-0.69922 3.7812-2.0938 4.9375-1.3867 1.1562-3.375 1.7344-5.9688 1.7344h-3.4844v7.0781h-5.25zm5.25 3.8125v5.7031h2.9219c1.0195 0 1.8047-0.25 2.3594-0.75 0.5625-0.5 0.84375-1.2031 0.84375-2.1094 0-0.91406-0.28125-1.6172-0.84375-2.1094-0.55469-0.48828-1.3398-0.73438-2.3594-0.73438z"/>
    </symbol>
    <symbol id="m" overflow="visible">
      <path d="m2.3594-15.312h4.8906v15.031c0 2.0508-0.49609 3.6172-1.4844 4.7031-0.98047 1.082-2.4062 1.625-4.2812 1.625h-2.4219v-3.2188h0.85938c0.92578 0 1.5625-0.21094 1.9062-0.625 0.35156-0.41797 0.53125-1.2461 0.53125-2.4844zm0-5.9688h4.8906v4h-4.8906z"/>
    </symbol>
    <symbol id="l" overflow="visible">
      <path d="m14.719-14.828v3.9844c-0.65625-0.45703-1.3242-0.79688-2-1.0156-0.66797-0.21875-1.3594-0.32812-2.0781-0.32812-1.3672 0-2.4336 0.40234-3.2031 1.2031-0.76172 0.79297-1.1406 1.9062-1.1406 3.3438 0 1.4297 0.37891 2.543 1.1406 3.3438 0.76953 0.79297 1.8359 1.1875 3.2031 1.1875 0.75781 0 1.4844-0.10938 2.1719-0.32812 0.6875-0.22656 1.3203-0.56641 1.9062-1.0156v4c-0.76172 0.28125-1.5391 0.48828-2.3281 0.625-0.78125 0.14453-1.5742 0.21875-2.375 0.21875-2.7617 0-4.9219-0.70703-6.4844-2.125-1.5547-1.4141-2.3281-3.3828-2.3281-5.9062 0-2.5312 0.77344-4.5039 2.3281-5.9219 1.5625-1.4141 3.7227-2.125 6.4844-2.125 0.80078 0 1.5938 0.074219 2.375 0.21875 0.78125 0.13672 1.5547 0.35156 2.3281 0.64062z"/>
    </symbol>
    <linearGradient gradientUnits="userSpaceOnUse" x1="960" y1="0" x2="960" y2="1080" id="gradient-0">
      <stop offset="0" style="stop-color: rgba(50, 50, 50, 1)"/>
      <stop offset="1" style="stop-color: rgba(0, 0, 0, 1)"/>
    </linearGradient>
    <symbol id="symbol-1" overflow="visible">
      <path d="m29.312-1.75c-1.5117 0.78125-3.0898 1.3711-4.7344 1.7656-1.6367 0.40625-3.3398 0.60938-5.1094 0.60938-5.3125 0-9.5273-1.4844-12.641-4.4531-3.1055-2.9688-4.6562-7-4.6562-12.094s1.5508-9.125 4.6562-12.094c3.1133-2.9688 7.3281-4.4531 12.641-4.4531 1.7695 0 3.4727 0.19922 5.1094 0.59375 1.6445 0.39844 3.2227 0.99219 4.7344 1.7812v6.5938c-1.5312-1.0391-3.0391-1.8008-4.5156-2.2812-1.4805-0.48828-3.0391-0.73438-4.6719-0.73438-2.9375 0-5.2461 0.94531-6.9219 2.8281-1.6797 1.875-2.5156 4.4648-2.5156 7.7656 0 3.293 0.83594 5.8828 2.5156 7.7656 1.6758 1.875 3.9844 2.8125 6.9219 2.8125 1.6328 0 3.1914-0.23828 4.6719-0.71875 1.4766-0.48828 2.9844-1.2539 4.5156-2.2969z"/>
    </symbol>
    <symbol id="symbol-2" overflow="visible">
      <path d="m21.453-17.406c-0.67969-0.3125-1.3516-0.53906-2.0156-0.6875-0.65625-0.15625-1.3203-0.23438-1.9844-0.23438-1.9688 0-3.4844 0.63281-4.5469 1.8906-1.0547 1.2617-1.5781 3.0703-1.5781 5.4219v11.016h-7.6562v-23.922h7.6562v3.9219c0.97656-1.5625 2.1016-2.7031 3.375-3.4219 1.2812-0.71875 2.8125-1.0781 4.5938-1.0781 0.25 0 0.52344 0.011719 0.82812 0.03125 0.30078 0.023438 0.73438 0.070312 1.2969 0.14062z"/>
    </symbol>
    <symbol id="symbol-3" overflow="visible">
      <path d="m27.562-12.031v2.1875h-17.891c0.1875 1.793 0.83203 3.1367 1.9375 4.0312 1.1133 0.89844 2.6719 1.3438 4.6719 1.3438 1.6016 0 3.25-0.23438 4.9375-0.70312 1.6875-0.47656 3.4219-1.2031 5.2031-2.1719v5.8906c-1.8047 0.6875-3.6094 1.2031-5.4219 1.5469-1.8125 0.35156-3.6211 0.53125-5.4219 0.53125-4.3359 0-7.7031-1.0977-10.109-3.2969-2.3984-2.207-3.5938-5.2969-3.5938-9.2656 0-3.9062 1.1758-6.9727 3.5312-9.2031 2.3633-2.2383 5.6094-3.3594 9.7344-3.3594 3.7578 0 6.7695 1.1367 9.0312 3.4062 2.2578 2.2617 3.3906 5.2812 3.3906 9.0625zm-7.8594-2.5312c0-1.457-0.42969-2.6289-1.2812-3.5156-0.84375-0.89453-1.9492-1.3438-3.3125-1.3438-1.4922 0-2.6992 0.41797-3.625 1.25-0.91797 0.83594-1.4922 2.0391-1.7188 3.6094z"/>
    </symbol>
    <symbol id="symbol-4" overflow="visible">
      <path d="m14.391-10.766c-1.5938 0-2.793 0.27344-3.5938 0.8125-0.80469 0.54297-1.2031 1.3398-1.2031 2.3906 0 0.96875 0.32031 1.7305 0.96875 2.2812 0.64453 0.54297 1.5469 0.8125 2.7031 0.8125 1.4375 0 2.6445-0.51562 3.625-1.5469 0.98828-1.0312 1.4844-2.3203 1.4844-3.875v-0.875zm11.688-2.8906v13.656h-7.7031v-3.5469c-1.0312 1.4492-2.1875 2.5078-3.4688 3.1719s-2.8398 1-4.6719 1c-2.4805 0-4.4961-0.72266-6.0469-2.1719-1.543-1.4453-2.3125-3.3203-2.3125-5.625 0-2.8125 0.96094-4.8672 2.8906-6.1719 1.9375-1.3125 4.9688-1.9688 9.0938-1.9688h4.5156v-0.60938c0-1.207-0.48047-2.0938-1.4375-2.6562-0.94922-0.5625-2.4375-0.84375-4.4688-0.84375-1.6367 0-3.1562 0.16797-4.5625 0.5-1.4062 0.32422-2.7188 0.8125-3.9375 1.4688v-5.8281c1.6445-0.40625 3.2891-0.70703 4.9375-0.90625 1.6562-0.20703 3.3047-0.3125 4.9531-0.3125 4.3203 0 7.4375 0.85547 9.3438 2.5625 1.9141 1.6992 2.875 4.4609 2.875 8.2812z"/>
    </symbol>
    <symbol id="symbol-5" overflow="visible">
      <path d="m12.031-30.719v6.7969h7.875v5.4688h-7.875v10.141c0 1.1172 0.21875 1.8711 0.65625 2.2656 0.4375 0.38672 1.3125 0.57812 2.625 0.57812h3.9375v5.4688h-6.5625c-3.0234 0-5.1641-0.62891-6.4219-1.8906-1.2617-1.2578-1.8906-3.3984-1.8906-6.4219v-10.141h-3.7969v-5.4688h3.7969v-6.7969z"/>
    </symbol>
    <symbol id="symbol-6" overflow="visible">
      <path d="m19.953-20.422v-12.812h7.6875v33.234h-7.6875v-3.4531c-1.0547 1.4062-2.2148 2.4375-3.4844 3.0938-1.2734 0.65625-2.7422 0.98438-4.4062 0.98438-2.9492 0-5.3711-1.1719-7.2656-3.5156-1.8867-2.3438-2.8281-5.3594-2.8281-9.0469s0.94141-6.7031 2.8281-9.0469c1.8945-2.3438 4.3164-3.5156 7.2656-3.5156 1.6562 0 3.1172 0.33594 4.3906 1 1.2812 0.65625 2.4453 1.6836 3.5 3.0781zm-5.0469 15.484c1.6445 0 2.8945-0.59766 3.75-1.7969 0.86328-1.1953 1.2969-2.9297 1.2969-5.2031 0-2.2812-0.43359-4.0195-1.2969-5.2188-0.85547-1.1953-2.1055-1.7969-3.75-1.7969-1.625 0-2.8711 0.60156-3.7344 1.7969-0.85547 1.1992-1.2812 2.9375-1.2812 5.2188 0 2.2734 0.42578 4.0078 1.2812 5.2031 0.86328 1.1992 2.1094 1.7969 3.7344 1.7969z"/>
    </symbol>
    <symbol id="symbol-7" overflow="visible">
      <path d="m16.406-4.9375c1.6328 0 2.8828-0.59766 3.75-1.7969 0.86328-1.1953 1.2969-2.9297 1.2969-5.2031 0-2.2812-0.43359-4.0195-1.2969-5.2188-0.86719-1.1953-2.1172-1.7969-3.75-1.7969-1.6367 0-2.8906 0.60547-3.7656 1.8125-0.875 1.1992-1.3125 2.9336-1.3125 5.2031 0 2.2617 0.4375 3.9961 1.3125 5.2031 0.875 1.1992 2.1289 1.7969 3.7656 1.7969zm-5.0781-15.484c1.0508-1.3945 2.2188-2.4219 3.5-3.0781 1.2812-0.66406 2.7539-1 4.4219-1 2.9453 0 5.3672 1.1719 7.2656 3.5156 1.8945 2.3438 2.8438 5.3594 2.8438 9.0469s-0.94922 6.7031-2.8438 9.0469c-1.8984 2.3438-4.3203 3.5156-7.2656 3.5156-1.668 0-3.1406-0.33594-4.4219-1s-2.4492-1.6914-3.5-3.0781v3.4531h-7.6562v-33.234h7.6562z"/>
    </symbol>
    <symbol id="symbol-8" overflow="visible">
      <path d="m0.53125-23.922h7.6562l6.4219 16.234 5.4688-16.234h7.6562l-10.062 26.188c-1.0117 2.6641-2.1953 4.5234-3.5469 5.5781-1.3438 1.0625-3.1211 1.5938-5.3281 1.5938h-4.4219v-5.0156h2.3906c1.3008 0 2.2422-0.21094 2.8281-0.625 0.59375-0.40625 1.0547-1.1484 1.3906-2.2188l0.20312-0.65625z"/>
    </symbol>
    <symbol id="symbol-9" overflow="visible">
      <path d="m16.797-19.547c1.2891 0 2.2695-0.28125 2.9375-0.84375 0.67578-0.57031 1.0156-1.4141 1.0156-2.5312 0-1.0938-0.33984-1.9258-1.0156-2.5-0.66797-0.58203-1.6484-0.875-2.9375-0.875h-4.5625v6.75zm0.26562 13.953c1.6562 0 2.8984-0.34766 3.7344-1.0469 0.83203-0.69531 1.25-1.7539 1.25-3.1719 0-1.375-0.41797-2.4062-1.25-3.0938-0.82422-0.69531-2.0703-1.0469-3.7344-1.0469h-4.8281v8.3594zm7.6562-11.469c1.7578 0.51172 3.125 1.4609 4.0938 2.8438 0.96875 1.375 1.4531 3.0703 1.4531 5.0781 0 3.0742-1.043 5.3672-3.125 6.875-2.0742 1.5117-5.2305 2.2656-9.4688 2.2656h-13.656v-31.891h12.344c4.4258 0 7.6328 0.67188 9.625 2.0156 1.9883 1.3359 2.9844 3.4766 2.9844 6.4219 0 1.5547-0.36719 2.875-1.0938 3.9688-0.73047 1.0859-1.7812 1.8906-3.1562 2.4219z"/>
    </symbol>
    <symbol id="symbol-10" overflow="visible">
      <path d="m23-23.172v6.2344c-1.0312-0.71875-2.0742-1.2422-3.125-1.5781-1.043-0.34375-2.125-0.51562-3.25-0.51562-2.1367 0-3.8047 0.625-5 1.875-1.1875 1.2422-1.7812 2.9805-1.7812 5.2188 0 2.2305 0.59375 3.9688 1.7812 5.2188 1.1953 1.25 2.8633 1.875 5 1.875 1.1953 0 2.332-0.17578 3.4062-0.53125 1.0703-0.36328 2.0625-0.89453 2.9688-1.5938v6.2656c-1.1875 0.4375-2.4023 0.76562-3.6406 0.98438-1.2305 0.22656-2.4648 0.34375-3.7031 0.34375-4.3125 0-7.6875-1.1094-10.125-3.3281s-3.6562-5.2969-3.6562-9.2344c0-3.9453 1.2188-7.0234 3.6562-9.2344 2.4375-2.2188 5.8125-3.3281 10.125-3.3281 1.25 0 2.4844 0.10938 3.7031 0.32812s2.4297 0.55469 3.6406 1z"/>
    </symbol>
    <symbol id="symbol-11" overflow="visible">
      <path d="m3.6719-23.922h7.6562v23.922h-7.6562zm0-9.3125h7.6562v6.2344h-7.6562z"/>
    </symbol>
    <symbol id="symbol-12" overflow="visible">
      <path d="m22.359-23.172v5.7969c-1.6367-0.67578-3.2148-1.1875-4.7344-1.5312-1.5234-0.34375-2.9609-0.51562-4.3125-0.51562-1.4609 0-2.543 0.18359-3.25 0.54688-0.69922 0.36719-1.0469 0.92188-1.0469 1.6719 0 0.61719 0.26562 1.0898 0.79688 1.4219 0.53125 0.32422 1.4883 0.5625 2.875 0.71875l1.3438 0.1875c3.9141 0.5 6.5508 1.3242 7.9062 2.4688 1.3516 1.1367 2.0312 2.9219 2.0312 5.3594 0 2.5547-0.94531 4.4688-2.8281 5.75-1.875 1.2812-4.6797 1.9219-8.4062 1.9219-1.5859 0-3.2188-0.125-4.9062-0.375s-3.4219-0.625-5.2031-1.125v-5.8125c1.5195 0.74219 3.082 1.2969 4.6875 1.6719 1.6016 0.36719 3.2344 0.54688 4.8906 0.54688 1.4883 0 2.6094-0.20312 3.3594-0.60938 0.75781-0.41406 1.1406-1.0312 1.1406-1.8438 0-0.6875-0.26172-1.1953-0.78125-1.5312-0.52344-0.33203-1.5586-0.59375-3.1094-0.78125l-1.3438-0.17188c-3.4062-0.42578-5.793-1.2109-7.1562-2.3594-1.3672-1.1562-2.0469-2.9102-2.0469-5.2656 0-2.5312 0.86719-4.4062 2.6094-5.625 1.7383-1.2266 4.3984-1.8438 7.9844-1.8438 1.4062 0 2.8828 0.10938 4.4375 0.32812 1.5508 0.21094 3.2383 0.54297 5.0625 1z"/>
    </symbol>
    <linearGradient id="gradient-29" bx:pinned="true">
      <title>gradient1</title>
      <stop offset="0" style="stop-color: rgb(179, 43, 213);"/>
      <stop offset="1" style="stop-color: rgb(218, 60, 142);"/>
    </linearGradient>
    <linearGradient id="gradient-29-0" gradientUnits="userSpaceOnUse" x1="350.005" y1="17.5" x2="350.005" y2="542.5" xlink:href="#gradient-29"/>
    <linearGradient id="gradient-29-1" gradientUnits="userSpaceOnUse" x1="350" y1="52.5" x2="350" y2="245" xlink:href="#gradient-29"/>
    <linearGradient id="gradient-29-2" gradientUnits="userSpaceOnUse" x1="350" y1="113.75" x2="350" y2="183.75" xlink:href="#gradient-29"/>
    <linearGradient id="gradient-29-3" gradientUnits="userSpaceOnUse" x1="179.375" y1="140" x2="179.375" y2="157.5" xlink:href="#gradient-29"/>
    <linearGradient id="gradient-29-4" gradientUnits="userSpaceOnUse" x1="188.128" y1="70.002" x2="188.128" y2="122.503" xlink:href="#gradient-29"/>
    <linearGradient id="gradient-29-5" gradientUnits="userSpaceOnUse" x1="188.122" y1="175.002" x2="188.122" y2="227.503" xlink:href="#gradient-29"/>
    <linearGradient id="gradient-29-6" gradientUnits="userSpaceOnUse" x1="520.625" y1="140" x2="520.625" y2="157.5" xlink:href="#gradient-29"/>
    <linearGradient id="gradient-29-7" gradientUnits="userSpaceOnUse" x1="511.872" y1="70.002" x2="511.872" y2="122.503" xlink:href="#gradient-29"/>
    <linearGradient id="gradient-29-8" gradientUnits="userSpaceOnUse" x1="511.872" y1="174.997" x2="511.872" y2="227.498" xlink:href="#gradient-29"/>
    <linearGradient id="gradient-29-9" gradientUnits="userSpaceOnUse" x1="252.467" y1="265.06" x2="252.467" y2="329.931" xlink:href="#gradient-29"/>
    <linearGradient id="gradient-29-10" gradientUnits="userSpaceOnUse" x1="447.533" y1="265.06" x2="447.533" y2="329.93" xlink:href="#gradient-29"/>
    <linearGradient id="gradient-29-11" gradientUnits="userSpaceOnUse" x1="358.75" y1="306.25" x2="358.75" y2="323.75" xlink:href="#gradient-29"/>
    <linearGradient id="gradient-29-12" gradientUnits="userSpaceOnUse" x1="393.75" y1="306.25" x2="393.75" y2="323.75" xlink:href="#gradient-29"/>
    <linearGradient id="gradient-29-13" gradientUnits="userSpaceOnUse" x1="319.72" y1="267.402" x2="319.72" y2="327.504" xlink:href="#gradient-29"/>
  </defs>
  <g id="ink-handbook">
    <g id="background">
      <title>background</title>
      <rect width="1920" height="1080" style="fill: url(#gradient-0); fill-opacity: 0.5;"/>
      <rect width="1920" height="1080" fill="url(#paint0_linear_433:2)" style="fill-opacity: 0.5;"/>
    </g>
    <path d="M 1760.209 814.149 L 1744.988 804.719 C 1744.86 803.235 1744.714 801.755 1744.555 800.281 L 1757.66 788.077 C 1758.992 786.836 1759.588 784.998 1759.227 783.223 C 1758.877 781.438 1757.626 779.968 1755.923 779.34 L 1739.177 773.099 C 1738.758 771.65 1738.318 770.211 1737.867 768.766 L 1748.303 754.273 C 1749.367 752.8 1749.586 750.883 1748.892 749.211 C 1748.199 747.537 1746.684 746.337 1744.905 746.043 L 1727.258 743.172 C 1726.571 741.834 1725.857 740.516 1725.136 739.219 L 1732.555 722.924 C 1733.315 721.267 1733.159 719.353 1732.146 717.828 C 1731.137 716.316 1729.428 715.432 1727.604 715.501 L 1709.68 716.125 C 1708.754 714.967 1707.811 713.82 1706.851 712.693 L 1710.977 695.254 C 1711.393 693.482 1710.869 691.613 1709.579 690.331 C 1708.3 689.048 1706.442 688.517 1704.656 688.933 L 1687.217 693.059 C 1686.087 692.102 1684.939 691.156 1683.778 690.23 L 1684.405 672.306 C 1684.474 670.492 1683.59 668.769 1682.079 667.764 C 1680.564 666.751 1678.646 666.599 1676.982 667.351 L 1660.722 674.771 C 1659.408 674.049 1658.09 673.335 1656.769 672.645 L 1653.892 654.998 C 1653.6 653.209 1652.401 651.69 1650.723 651.011 C 1649.048 650.314 1647.117 650.539 1645.661 651.6 L 1631.169 662.036 C 1629.74 661.582 1628.305 661.145 1626.87 660.729 L 1620.629 643.983 C 1619.994 642.277 1618.524 641.026 1616.746 640.672 C 1614.964 640.322 1613.14 640.915 1611.892 642.239 L 1599.688 655.345 C 1598.214 655.182 1596.73 655.033 1595.25 654.911 L 1585.82 639.656 C 1584.866 638.114 1583.178 637.174 1581.347 637.174 C 1579.517 637.174 1577.845 638.114 1576.909 639.656 L 1567.479 654.911 C 1565.995 655.033 1564.511 655.182 1563.041 655.345 L 1550.837 642.239 C 1549.599 640.915 1547.762 640.322 1545.983 640.672 C 1544.198 641.029 1542.728 642.277 1542.1 643.983 L 1535.86 660.729 C 1534.41 661.145 1532.975 661.585 1531.56 662.036 L 1517.068 651.6 C 1515.595 650.536 1513.674 650.311 1512.006 651.011 C 1510.332 651.704 1509.129 653.223 1508.837 654.998 L 1505.96 672.645 C 1504.628 673.335 1503.311 674.046 1502.007 674.771 L 1485.747 667.351 C 1484.093 666.595 1482.176 666.751 1480.65 667.764 C 1479.139 668.769 1478.255 670.492 1478.324 672.306 L 1478.948 690.23 C 1477.79 691.156 1476.642 692.102 1475.509 693.059 L 1458.07 688.933 C 1456.298 688.521 1454.429 689.048 1453.146 690.331 C 1451.857 691.617 1451.333 693.472 1451.749 695.254 L 1455.84 712.693 C 1454.887 713.823 1453.944 714.967 1453.018 716.125 L 1435.093 715.501 C 1433.287 715.449 1431.557 716.316 1430.552 717.828 C 1429.539 719.332 1429.387 721.26 1430.139 722.924 L 1437.558 739.219 C 1436.837 740.527 1436.123 741.844 1435.433 743.172 L 1417.786 746.043 C 1415.993 746.334 1414.482 747.533 1413.799 749.211 C 1413.105 750.893 1413.331 752.817 1414.388 754.273 L 1424.824 768.766 C 1424.37 770.198 1423.93 771.636 1423.513 773.099 L 1406.768 779.34 C 1405.069 779.975 1403.817 781.445 1403.464 783.223 C 1403.11 785.005 1403.703 786.829 1405.031 788.077 L 1418.136 800.281 C 1417.973 801.755 1417.828 803.238 1417.703 804.719 L 1402.482 814.149 C 1400.94 815.103 1400 816.788 1400 818.622 C 1400 820.456 1400.94 822.123 1402.482 823.06 L 1417.703 832.49 C 1417.828 833.974 1417.973 835.454 1418.136 836.928 L 1405.031 849.132 C 1403.703 850.369 1403.11 852.207 1403.464 853.986 C 1403.817 855.771 1405.069 857.238 1406.768 857.869 L 1423.513 864.109 C 1423.93 865.559 1424.37 866.997 1424.824 868.443 L 1414.388 882.935 C 1413.327 884.412 1413.102 886.33 1413.799 887.997 C 1414.496 889.679 1416.011 890.878 1417.821 891.166 L 1435.468 894.037 C 1436.158 895.375 1436.865 896.693 1437.593 897.989 L 1430.174 914.25 C 1429.418 915.904 1429.574 917.821 1430.586 919.346 C 1431.599 920.861 1433.322 921.745 1435.128 921.673 L 1453.018 921.045 C 1453.951 922.21 1454.89 923.351 1455.847 924.484 L 1451.756 941.924 C 1451.34 943.692 1451.863 945.529 1453.153 946.812 C 1454.433 948.105 1456.294 948.622 1458.076 948.206 L 1475.516 944.115 C 1476.649 945.079 1477.797 946.015 1478.955 946.937 L 1478.331 964.862 C 1478.262 966.675 1479.146 968.398 1480.657 969.403 C 1482.162 970.412 1484.09 970.565 1485.754 969.809 L 1502.014 962.39 C 1503.325 963.118 1504.642 963.825 1505.967 964.515 L 1508.844 982.162 C 1509.136 983.958 1510.335 985.477 1512.013 986.184 C 1513.688 986.881 1515.619 986.656 1517.075 985.598 L 1531.567 975.162 C 1532.999 975.616 1534.438 976.06 1535.901 976.476 L 1542.142 993.222 C 1542.776 994.921 1544.246 996.179 1546.025 996.526 C 1547.807 996.887 1549.631 996.29 1550.879 994.959 L 1563.083 981.854 C 1564.556 982.024 1566.04 982.166 1567.521 982.297 L 1576.951 997.518 C 1577.901 999.054 1579.589 1000 1581.389 1000 C 1583.188 1000 1584.891 999.057 1585.861 997.518 L 1595.292 982.297 C 1596.776 982.166 1598.256 982.024 1599.729 981.854 L 1611.933 994.959 C 1613.171 996.29 1615.009 996.887 1616.787 996.526 C 1618.573 996.176 1620.043 994.921 1620.67 993.222 L 1626.911 976.476 C 1628.36 976.06 1629.799 975.616 1631.245 975.162 L 1645.737 985.598 C 1647.211 986.656 1649.131 986.881 1650.799 986.184 C 1652.477 985.494 1653.677 983.972 1653.968 982.162 L 1656.846 964.515 C 1658.177 963.825 1659.494 963.107 1660.798 962.39 L 1677.058 969.809 C 1678.712 970.565 1680.629 970.412 1682.155 969.403 C 1683.667 968.391 1684.547 966.675 1684.481 964.862 L 1683.857 946.937 C 1685.015 946.011 1686.163 945.079 1687.293 944.115 L 1704.732 948.206 C 1706.504 948.622 1708.373 948.105 1709.656 946.812 C 1710.945 945.526 1711.469 943.678 1711.053 941.924 L 1706.962 924.484 C 1707.919 923.351 1708.862 922.21 1709.784 921.045 L 1727.708 921.673 C 1729.515 921.745 1731.245 920.861 1732.25 919.346 C 1733.263 917.835 1733.419 915.91 1732.659 914.25 L 1725.24 897.989 C 1725.965 896.675 1726.675 895.358 1727.362 894.037 L 1745.009 891.166 C 1746.805 890.878 1748.317 889.679 1748.996 887.997 C 1749.69 886.323 1749.471 884.392 1748.407 882.935 L 1737.971 868.443 C 1738.422 867.011 1738.862 865.572 1739.281 864.109 L 1756.027 857.869 C 1757.73 857.231 1758.985 855.764 1759.331 853.986 C 1759.692 852.204 1759.096 850.38 1757.764 849.132 L 1744.659 836.928 C 1744.818 835.454 1744.964 833.97 1745.092 832.49 L 1760.313 823.06 C 1761.855 822.11 1762.795 820.421 1762.795 818.622 C 1762.795 816.822 1761.859 815.12 1760.316 814.149 L 1760.209 814.149 Z M 1658.277 940.696 C 1652.453 939.441 1648.778 933.693 1650.026 927.868 C 1651.271 922.044 1656.995 918.334 1662.819 919.582 C 1668.644 920.827 1672.354 926.585 1671.106 932.41 C 1669.857 938.235 1664.137 941.944 1658.312 940.696 L 1658.277 940.696 Z M 1653.112 905.679 C 1647.807 904.542 1642.572 907.919 1641.462 913.237 L 1636.054 938.477 C 1619.377 946.036 1600.69 950.265 1581.274 950.265 C 1561.304 950.265 1542.444 945.862 1525.455 937.957 L 1520.046 912.717 C 1518.909 907.413 1513.702 904.015 1508.397 905.159 L 1486.104 909.944 C 1481.978 905.679 1478.13 901.137 1474.593 896.353 L 1583.112 896.353 C 1584.339 896.353 1585.157 896.131 1585.157 895.015 L 1585.157 856.53 C 1585.157 855.414 1584.339 855.192 1583.112 855.192 L 1551.388 855.192 L 1551.388 830.888 L 1585.678 830.888 C 1588.808 830.888 1602.423 831.783 1606.757 849.194 C 1608.12 854.533 1611.126 871.938 1613.171 877.52 C 1615.21 883.761 1623.503 896.242 1632.344 896.242 L 1686.43 896.242 C 1687.044 896.242 1687.699 896.173 1688.389 896.048 C 1684.644 901.144 1680.519 905.964 1676.115 910.471 L 1653.302 905.582 L 1653.112 905.679 Z M 1502.989 940.176 C 1497.164 941.431 1491.443 937.722 1490.195 931.89 C 1488.95 926.065 1492.65 920.31 1498.481 919.062 C 1504.306 917.817 1510.027 921.527 1511.275 927.348 C 1512.519 933.173 1508.817 938.928 1502.989 940.176 Z M 1461.731 773.411 C 1464.144 778.855 1461.689 785.234 1456.253 787.661 C 1450.81 790.078 1444.465 787.619 1442.038 782.183 C 1439.611 776.747 1442.079 770.36 1447.516 767.934 C 1452.959 765.52 1459.304 767.975 1461.731 773.411 Z M 1449.076 803.367 L 1472.305 793.035 C 1477.263 790.833 1479.517 785.026 1477.298 780.068 L 1472.513 769.251 L 1491.305 769.251 L 1491.305 853.847 L 1453.514 853.847 C 1450.224 842.267 1448.452 830.063 1448.452 817.443 C 1448.452 812.624 1448.712 807.874 1449.211 803.193 L 1449.076 803.367 Z M 1551.007 795.15 L 1551.007 770.187 L 1595.732 770.187 C 1598.044 770.187 1612.062 772.86 1612.062 783.327 C 1612.062 792.029 1601.314 795.15 1592.473 795.15 L 1550.868 795.15 L 1551.007 795.15 Z M 1713.611 817.616 C 1713.611 820.931 1713.49 824.204 1713.247 827.463 L 1699.622 827.463 C 1698.259 827.463 1697.712 828.357 1697.712 829.692 L 1697.712 835.933 C 1697.712 850.633 1689.425 853.857 1682.145 854.655 C 1675.211 855.435 1667.548 851.756 1666.612 847.513 C 1662.521 824.526 1655.726 819.638 1644.978 811.109 C 1658.326 802.649 1672.194 790.133 1672.194 773.318 C 1672.194 755.255 1659.817 743.883 1651.392 738.301 C 1639.535 730.5 1626.429 728.94 1622.893 728.94 L 1482.131 728.94 C 1501.234 707.652 1527.202 692.536 1556.326 686.988 L 1572.933 704.393 C 1576.677 708.311 1582.883 708.484 1586.836 704.712 L 1605.419 686.961 C 1644.25 694.207 1677.187 718.407 1696.255 751.794 L 1683.531 780.502 C 1681.337 785.459 1683.576 791.284 1688.524 793.468 L 1713.001 804.355 C 1713.424 808.689 1713.646 813.092 1713.646 817.53 L 1713.611 817.616 Z M 1572.849 672.347 C 1577.149 668.221 1583.979 668.395 1588.07 672.697 C 1592.161 676.996 1592.022 683.826 1587.713 687.952 C 1583.414 692.078 1576.583 691.905 1572.492 687.599 C 1568.401 683.3 1568.54 676.469 1572.849 672.344 L 1572.849 672.347 Z M 1699.05 773.932 C 1701.46 768.488 1707.822 766.027 1713.265 768.454 C 1718.708 770.867 1721.17 777.26 1718.743 782.703 C 1716.333 788.146 1709.971 790.608 1704.528 788.181 C 1699.085 785.768 1696.623 779.375 1699.05 773.932 Z" style="fill: rgb(90, 174, 251);">
      <title>rust logo</title>
    </path>
    <text style="fill: rgb(155, 155, 155); font-family: Fira Mono, monospace; font-size: 82px; white-space: pre; --darkreader-inline-fill:#a9a196;" x="517.251" y="178.381">Create DSLs with</text>
    <text style="fill: rgb(90, 174, 251); font-family: Fira Mono, monospace; font-size: 82px; white-space: pre;" y="278.021" x="23.556" transform="matrix(1, 0, 0, 1, 395.289948, 50)"><title>text-l2</title>Rust Procedural Macros<tspan x="23.555999755859375" dy="1em">​</tspan></text>
    <g transform="matrix(0.8284, 0, 0, 0.8284, 170.863464, 149.500092)" style="">
      <title>robot</title>
      <path d="M 979.951 556.961 C 956.252 556.961 936.869 576.422 936.869 600.164 C 936.869 620.898 951.639 638.383 971.17 642.48 L 971.17 688.539 L 811.69 688.539 C 788.975 688.539 770.487 707.176 770.487 729.93 L 770.483 829.664 L 743.671 829.664 L 743.671 796.137 C 743.678 793.805 742.757 791.563 741.108 789.914 C 739.46 788.266 737.218 787.344 734.885 787.352 C 732.565 787.359 730.342 788.289 728.71 789.938 C 727.073 791.586 726.163 793.816 726.171 796.137 L 726.171 880.699 L 726.171 880.695 C 726.151 885.527 730.053 889.46 734.885 889.48 C 737.217 889.488 739.46 888.566 741.108 886.918 C 742.757 885.269 743.678 883.027 743.671 880.695 L 743.671 847.164 L 770.483 847.164 L 770.483 946.902 C 770.483 969.66 788.971 988.312 811.686 988.312 L 1148.146 988.308 C 1170.861 988.308 1189.349 969.656 1189.349 946.898 L 1189.349 847.16 L 1216.212 847.16 L 1216.212 880.691 L 1216.215 880.695 C 1216.196 885.527 1220.098 889.46 1224.93 889.48 C 1227.254 889.476 1229.481 888.546 1231.122 886.898 C 1232.758 885.25 1233.672 883.019 1233.665 880.695 L 1233.665 796.136 C 1233.672 793.812 1232.758 791.577 1231.122 789.933 C 1229.481 788.284 1227.254 787.355 1224.93 787.351 C 1222.61 787.359 1220.387 788.288 1218.754 789.937 C 1217.122 791.585 1216.208 793.816 1216.215 796.136 L 1216.215 829.663 L 1189.352 829.663 L 1189.352 729.929 C 1189.352 707.171 1170.864 688.538 1148.149 688.538 L 988.669 688.538 L 988.669 642.479 C 1008.208 638.401 1022.97 620.917 1022.97 600.163 C 1022.97 576.421 1003.658 556.96 979.954 556.96 L 979.951 556.961 Z M 979.951 574.461 C 994.15 574.461 1005.467 585.836 1005.467 600.164 C 1005.467 614.492 994.151 625.883 979.951 625.883 C 965.752 625.883 954.369 614.492 954.369 600.164 C 954.369 585.836 965.752 574.461 979.951 574.461 Z M 811.681 706.041 L 1148.141 706.041 C 1161.418 706.041 1171.844 716.525 1171.844 729.932 L 1171.844 946.902 C 1171.844 960.312 1161.418 970.793 1148.141 970.793 L 811.681 970.793 C 798.404 970.793 787.978 960.309 787.978 946.902 L 787.978 838.452 L 787.974 838.452 C 787.978 838.331 787.978 838.214 787.974 838.092 L 787.974 729.932 C 787.974 716.522 798.4 706.041 811.677 706.041 L 811.681 706.041 Z M 903.845 743.572 C 875.033 743.572 851.533 767.213 851.533 796.088 C 851.533 824.967 875.033 848.588 903.845 848.588 C 932.657 848.588 956.173 824.967 956.173 796.088 C 956.173 767.213 932.653 743.572 903.845 743.572 Z M 1055.965 743.572 C 1027.153 743.572 1003.723 767.213 1003.723 796.088 C 1003.723 824.967 1027.157 848.588 1055.965 848.588 C 1084.777 848.588 1108.293 824.967 1108.293 796.088 C 1108.293 767.213 1084.773 743.572 1055.965 743.572 Z M 903.845 761.072 C 923.157 761.072 938.673 776.627 938.673 796.088 C 938.673 815.549 923.153 831.088 903.845 831.088 C 884.533 831.088 869.033 815.549 869.033 796.088 C 869.033 776.627 884.533 761.072 903.845 761.072 Z M 1055.965 761.072 C 1075.277 761.072 1090.844 776.627 1090.844 796.088 C 1090.844 815.549 1075.274 831.088 1055.965 831.088 C 1036.653 831.088 1021.153 815.549 1021.153 796.088 C 1021.153 776.627 1036.653 761.072 1055.965 761.072 Z M 918.765 915.772 C 913.933 915.787 910.03 919.721 910.05 924.553 C 910.069 929.362 913.96 933.252 918.765 933.272 L 1041.045 933.272 C 1043.365 933.28 1045.595 932.366 1047.244 930.733 C 1048.892 929.096 1049.822 926.873 1049.83 924.553 C 1049.837 922.221 1048.916 919.983 1047.267 918.334 C 1045.619 916.682 1043.377 915.76 1041.044 915.772 L 918.765 915.772 Z" style="stroke: rgb(186, 218, 85); stroke-width: 8.45002px;"/>
    </g>
    <g transform="matrix(0.576684, 0, 0, 0.576684, 156.438217, 669.148987)" style="">
      <title>language</title>
      <path d="m568.75 17.5h-437.5c-24.125 0-43.75 19.625-43.75 43.75v323.75c0 24.125 19.625 43.75 43.75 43.75h144.04l-27.223 61.25h-90.562c-4.8281 0-8.75 3.9219-8.75 8.75 0 24.125 19.625 43.75 43.75 43.75h315c24.125 0 43.75-19.625 43.75-43.75 0-4.8281-3.9219-8.75-8.75-8.75h-90.562l-27.223-61.25h144.04c24.125 0 43.75-19.625 43.75-43.75v-323.75c0-24.125-19.625-43.75-43.75-43.75zm-437.5 17.5h437.5c14.473 0 26.25 11.777 26.25 26.25v288.75h-490v-288.75c0-14.473 11.777-26.25 26.25-26.25zm376.25 490h-315c-11.41 0-21.141-7.3164-24.754-17.5h364.51c-3.6133 10.184-13.344 17.5-24.754 17.5zm-74.715-35h-165.57l27.223-61.25h111.12zm135.96-78.75h-437.5c-14.473 0-26.25-11.777-26.25-26.25v-17.5h490v17.5c0 14.473-11.777 26.25-26.25 26.25z" style="fill: url(#gradient-29-0);"/>
      <path d="m253.75 166.25c0 4.8281 3.9219 8.75 8.75 8.75h13.316c0.91797 2.6094 1.9766 5.1523 3.1602 7.6406l-9.4141 9.4219c-3.4219 3.4219-3.4219 8.9531 0 12.371l24.754 24.754c3.4219 3.4219 8.9531 3.4219 12.371 0l9.4219-9.4141c2.4844 1.1797 5.0312 2.2383 7.6406 3.1602v13.316c0 4.8281 3.9219 8.75 8.75 8.75h35c4.8281 0 8.75-3.9219 8.75-8.75v-13.316c2.6094-0.91797 5.1523-1.9766 7.6406-3.1602l9.4219 9.4141c3.4219 3.4219 8.9531 3.4219 12.371 0l24.754-24.754c3.4219-3.4219 3.4219-8.9531 0-12.371l-9.4141-9.4219c1.1797-2.4844 2.2383-5.0312 3.1602-7.6406h13.316c4.8281 0 8.75-3.9219 8.75-8.75v-35c0-4.8281-3.9219-8.75-8.75-8.75h-13.316c-0.91797-2.6094-1.9766-5.1523-3.1602-7.6406l9.4141-9.4219c3.4219-3.4219 3.4219-8.9531 0-12.371l-24.754-24.754c-3.4219-3.4219-8.9531-3.4219-12.371 0l-9.4219 9.4141c-2.4883-1.1719-5.0312-2.2305-7.6406-3.1602v-13.316c0-4.8281-3.9219-8.75-8.75-8.75h-35c-4.8281 0-8.75 3.9219-8.75 8.75v13.316c-2.6094 0.91797-5.1523 1.9766-7.6406 3.1602l-9.4219-9.4062c-3.4219-3.4219-8.9531-3.4219-12.371 0l-24.754 24.754c-3.4219 3.4219-3.4219 8.9531 0 12.371l9.4141 9.4219c-1.1797 2.4844-2.2383 5.0312-3.1602 7.6406h-13.316c-4.8281 0-8.75 3.9219-8.75 8.75zm17.5-26.25h11.043c3.9883 0 7.4727-2.7031 8.4688-6.5625 1.4336-5.5547 3.6211-10.852 6.5195-15.742 2.0312-3.4375 1.4688-7.8125-1.3477-10.633l-7.8047-7.8047 12.383-12.383 7.8047 7.8047c2.8281 2.8281 7.2031 3.3789 10.633 1.3477 4.8984-2.8945 10.195-5.082 15.742-6.5195 3.8555-0.98437 6.5586-4.4766 6.5586-8.4648v-11.043h17.5v11.043c0 3.9883 2.7031 7.4727 6.5625 8.4688 5.5547 1.4336 10.852 3.6211 15.742 6.5195 3.4375 2.0195 7.8125 1.4609 10.633-1.3477l7.8047-7.8047 12.383 12.383-7.8047 7.8047c-2.8281 2.8164-3.3789 7.2031-1.3477 10.633 2.8945 4.8984 5.082 10.195 6.5195 15.742 0.99609 3.8594 4.4805 6.5625 8.4688 6.5625l11.039-0.003906v17.5h-11.043c-3.9883 0-7.4727 2.7031-8.4688 6.5625-1.4336 5.5547-3.6211 10.852-6.5195 15.742-2.0312 3.4375-1.4688 7.8125 1.3477 10.633l7.8047 7.8047-12.383 12.383-7.8047-7.8047c-2.8164-2.8164-7.1914-3.3672-10.633-1.3477-4.8984 2.8945-10.195 5.082-15.742 6.5195-3.8555 0.98437-6.5586 4.4766-6.5586 8.4648v11.043h-17.5v-11.043c0-3.9883-2.7031-7.4727-6.5625-8.4688-5.5547-1.4336-10.852-3.6211-15.742-6.5195-3.4492-2.0312-7.8125-1.4688-10.633 1.3477l-7.8047 7.8047-12.383-12.383 7.8047-7.8047c2.8281-2.8164 3.3789-7.2031 1.3477-10.633-2.8945-4.8984-5.082-10.195-6.5195-15.742-0.98437-3.8555-4.4766-6.5586-8.4648-6.5586h-11.043z" style="fill: url(#gradient-29-1);"/>
      <path d="m350 183.75c19.301 0 35-15.699 35-35s-15.699-35-35-35-35 15.699-35 35 15.699 35 35 35zm0-52.5c9.6523 0 17.5 7.8477 17.5 17.5s-7.8477 17.5-17.5 17.5-17.5-7.8477-17.5-17.5 7.8477-17.5 17.5-17.5z" style="fill: url(#gradient-29-2);"/>
      <path d="m122.5 140h113.75v17.5h-113.75z" style="fill: url(#gradient-29-3);"/>
      <path d="m189.94 119.94 32.434-32.438h31.379v-17.5h-35c-2.3203 0-4.5508 0.91797-6.1875 2.5625l-32.434 32.438h-57.629v17.5h61.25c2.3203 0 4.5508-0.91797 6.1875-2.5625z" style="fill: url(#gradient-29-4);"/>
      <path d="m212.56 224.94c1.6367 1.6445 3.8672 2.5625 6.1875 2.5625h35v-17.5h-31.379l-32.438-32.438c-1.6328-1.6445-3.8633-2.5625-6.1836-2.5625h-61.25v17.5h57.629z" style="fill: url(#gradient-29-5);"/>
      <path d="m463.75 140h113.75v17.5h-113.75z" style="fill: url(#gradient-29-6);"/>
      <path d="m510.06 119.94c1.6367 1.6445 3.8672 2.5625 6.1875 2.5625h61.25v-17.5h-57.629l-32.438-32.438c-1.6328-1.6445-3.8633-2.5625-6.1836-2.5625h-35v17.5h31.379z" style="fill: url(#gradient-29-7);"/>
      <path d="m510.06 177.56-32.434 32.438h-31.379v17.5h35c2.3203 0 4.5508-0.91797 6.1875-2.5625l32.434-32.438h57.629v-17.5h-61.25c-2.3203 0-4.5508 0.91797-6.1875 2.5625z" style="fill: url(#gradient-29-8);"/>
      <path d="m260.69 265.06-26.25 26.25c-3.4219 3.4219-3.4219 8.9531 0 12.371l26.25 26.25 12.371-12.371-20.062-20.062 20.062-20.062z" style="fill: url(#gradient-29-9);"/>
      <path d="m439.31 265.06-12.371 12.371 20.062 20.066-20.062 20.062 12.371 12.371 26.25-26.25c3.4219-3.4219 3.4219-8.9531 0-12.371z" style="fill: url(#gradient-29-10);"/>
      <path d="m350 306.25h17.5v17.5h-17.5z" style="fill: url(#gradient-29-11);"/>
      <path d="m385 306.25h17.5v17.5h-17.5z" style="fill: url(#gradient-29-12);"/>
      <path d="m299.08 319.84 25.547-52.438 15.734 7.6641-25.547 52.438z" style="fill: url(#gradient-29-13);"/>
    </g>
  </g>
</svg>