<?xml version="1.0" encoding="utf-8"?>
<svg width="1920" height="1080" viewBox="0 0 1920 1080" fill="none" xmlns="http://www.w3.org/2000/svg" xmlns:xlink="http://www.w3.org/1999/xlink">
  <defs>
    <symbol id="t" overflow="visible">
      <path d="m18.766-1.125c-0.96875 0.5-1.9805 0.875-3.0312 1.125-1.043 0.25781-2.1367 0.39062-3.2812 0.39062-3.3984 0-6.0898-0.94531-8.0781-2.8438-1.9922-1.9062-2.9844-4.4844-2.9844-7.7344 0-3.2578 0.99219-5.8359 2.9844-7.7344 1.9883-1.9062 4.6797-2.8594 8.0781-2.8594 1.1445 0 2.2383 0.13281 3.2812 0.39062 1.0508 0.25 2.0625 0.625 3.0312 1.125v4.2188c-0.98047-0.65625-1.9453-1.1406-2.8906-1.4531-0.94922-0.3125-1.9492-0.46875-3-0.46875-1.875 0-3.3516 0.60547-4.4219 1.8125-1.0742 1.1992-1.6094 2.8555-1.6094 4.9688 0 2.1055 0.53516 3.7617 1.6094 4.9688 1.0703 1.1992 2.5469 1.7969 4.4219 1.7969 1.0508 0 2.0508-0.14844 3-0.45312 0.94531-0.3125 1.9102-0.80078 2.8906-1.4688z"/>
    </symbol>
    <symbol id="c" overflow="visible">
      <path d="m13.734-11.141c-0.4375-0.19531-0.87109-0.34375-1.2969-0.4375-0.41797-0.10156-0.83984-0.15625-1.2656-0.15625-1.2617 0-2.2305 0.40625-2.9062 1.2188-0.67969 0.80469-1.0156 1.9531-1.0156 3.4531v7.0625h-4.8906v-15.312h4.8906v2.5156c0.625-1 1.3438-1.7266 2.1562-2.1875 0.82031-0.46875 1.8008-0.70312 2.9375-0.70312 0.16406 0 0.34375 0.011719 0.53125 0.03125 0.19531 0.011719 0.47656 0.039062 0.84375 0.078125z"/>
    </symbol>
    <symbol id="a" overflow="visible">
      <path d="m17.641-7.7031v1.4062h-11.453c0.125 1.1484 0.53906 2.0078 1.25 2.5781 0.70703 0.57422 1.7031 0.85938 2.9844 0.85938 1.0312 0 2.082-0.14844 3.1562-0.45312 1.082-0.3125 2.1914-0.77344 3.3281-1.3906v3.7656c-1.1562 0.4375-2.3125 0.76562-3.4688 0.98438-1.1562 0.22656-2.3125 0.34375-3.4688 0.34375-2.7734 0-4.9297-0.70312-6.4688-2.1094-1.5312-1.4062-2.2969-3.3789-2.2969-5.9219 0-2.5 0.75391-4.4609 2.2656-5.8906 1.5078-1.4375 3.582-2.1562 6.2188-2.1562 2.4062 0 4.332 0.73047 5.7812 2.1875 1.4453 1.4492 2.1719 3.3828 2.1719 5.7969zm-5.0312-1.625c0-0.92578-0.27344-1.6719-0.8125-2.2344-0.54297-0.57031-1.25-0.85938-2.125-0.85938-0.94922 0-1.7188 0.26562-2.3125 0.79688s-0.96484 1.2969-1.1094 2.2969z"/>
    </symbol>
    <symbol id="k" overflow="visible">
      <path d="m9.2188-6.8906c-1.0234 0-1.793 0.17188-2.3125 0.51562-0.51172 0.34375-0.76562 0.85547-0.76562 1.5312 0 0.625 0.20703 1.1172 0.625 1.4688 0.41406 0.34375 0.98828 0.51562 1.7188 0.51562 0.92578 0 1.7031-0.32812 2.3281-0.98438 0.63281-0.66406 0.95312-1.4922 0.95312-2.4844v-0.5625zm7.4688-1.8438v8.7344h-4.9219v-2.2656c-0.65625 0.92969-1.3984 1.6055-2.2188 2.0312-0.82422 0.41406-1.8242 0.625-3 0.625-1.5859 0-2.8711-0.45703-3.8594-1.375-0.99219-0.92578-1.4844-2.1289-1.4844-3.6094 0-1.7891 0.61328-3.1016 1.8438-3.9375 1.2383-0.84375 3.1797-1.2656 5.8281-1.2656h2.8906v-0.39062c0-0.76953-0.30859-1.332-0.92188-1.6875-0.61719-0.36328-1.5703-0.54688-2.8594-0.54688-1.0547 0-2.0312 0.10547-2.9375 0.3125-0.89844 0.21094-1.7305 0.52344-2.5 0.9375v-3.7344c1.0391-0.25 2.0859-0.44141 3.1406-0.57812 1.0625-0.13281 2.125-0.20312 3.1875-0.20312 2.7578 0 4.75 0.54688 5.9688 1.6406 1.2266 1.0859 1.8438 2.8555 1.8438 5.3125z"/>
    </symbol>
    <symbol id="b" overflow="visible">
      <path d="m7.7031-19.656v4.3438h5.0469v3.5h-5.0469v6.5c0 0.71094 0.14062 1.1875 0.42188 1.4375s0.83594 0.375 1.6719 0.375h2.5156v3.5h-4.1875c-1.9375 0-3.3125-0.39844-4.125-1.2031-0.80469-0.8125-1.2031-2.1797-1.2031-4.1094v-6.5h-2.4219v-3.5h2.4219v-4.3438z"/>
    </symbol>
    <symbol id="j" overflow="visible">
      <path d="m12.766-13.078v-8.2031h4.9219v21.281h-4.9219v-2.2188c-0.66797 0.90625-1.4062 1.5703-2.2188 1.9844s-1.7578 0.625-2.8281 0.625c-1.8867 0-3.4336-0.75-4.6406-2.25-1.2109-1.5-1.8125-3.4258-1.8125-5.7812 0-2.3633 0.60156-4.2969 1.8125-5.7969 1.207-1.5 2.7539-2.25 4.6406-2.25 1.0625 0 2 0.21484 2.8125 0.64062 0.82031 0.42969 1.5664 1.0859 2.2344 1.9688zm-3.2188 9.9219c1.0391 0 1.8359-0.37891 2.3906-1.1406 0.55078-0.76953 0.82812-1.8828 0.82812-3.3438 0-1.457-0.27734-2.5664-0.82812-3.3281-0.55469-0.76953-1.3516-1.1562-2.3906-1.1562-1.043 0-1.8398 0.38672-2.3906 1.1562-0.55469 0.76172-0.82812 1.8711-0.82812 3.3281 0 1.4609 0.27344 2.5742 0.82812 3.3438 0.55078 0.76172 1.3477 1.1406 2.3906 1.1406z"/>
    </symbol>
    <symbol id="i" overflow="visible">
      <path d="m10.5-3.1562c1.0508 0 1.8516-0.37891 2.4062-1.1406 0.55078-0.76953 0.82812-1.8828 0.82812-3.3438 0-1.457-0.27734-2.5664-0.82812-3.3281-0.55469-0.76953-1.3555-1.1562-2.4062-1.1562-1.0547 0-1.8594 0.38672-2.4219 1.1562-0.55469 0.77344-0.82812 1.8828-0.82812 3.3281 0 1.4492 0.27344 2.5586 0.82812 3.3281 0.5625 0.77344 1.3672 1.1562 2.4219 1.1562zm-3.25-9.9219c0.67578-0.88281 1.4219-1.5391 2.2344-1.9688 0.82031-0.42578 1.7656-0.64062 2.8281-0.64062 1.8945 0 3.4453 0.75 4.6562 2.25 1.207 1.5 1.8125 3.4336 1.8125 5.7969 0 2.3555-0.60547 4.2812-1.8125 5.7812-1.2109 1.5-2.7617 2.25-4.6562 2.25-1.0625 0-2.0078-0.21094-2.8281-0.625-0.8125-0.42578-1.5586-1.0859-2.2344-1.9844v2.2188h-4.8906v-21.281h4.8906z"/>
    </symbol>
    <symbol id="e" overflow="visible">
      <path d="m0.34375-15.312h4.8906l4.125 10.391 3.5-10.391h4.8906l-6.4375 16.766c-0.64844 1.6953-1.4023 2.8828-2.2656 3.5625-0.86719 0.6875-2 1.0312-3.4062 1.0312h-2.8438v-3.2188h1.5312c0.83203 0 1.4375-0.13672 1.8125-0.40625 0.38281-0.26172 0.67969-0.73047 0.89062-1.4062l0.14062-0.42188z"/>
    </symbol>
    <symbol id="h" overflow="visible">
      <path d="m2.5781-20.406h14.203v3.9688h-8.9531v3.7969h8.4219v3.9844h-8.4219v8.6562h-5.25z"/>
    </symbol>
    <symbol id="g" overflow="visible">
      <path d="m2.1875-5.9688v-9.3438h4.9219v1.5312c0 0.83594-0.007813 1.875-0.015625 3.125-0.011719 1.25-0.015625 2.0859-0.015625 2.5 0 1.2422 0.03125 2.1328 0.09375 2.6719 0.070313 0.54297 0.17969 0.93359 0.32812 1.1719 0.20703 0.32422 0.47266 0.57422 0.79688 0.75 0.32031 0.16797 0.69141 0.25 1.1094 0.25 1.0195 0 1.8203-0.39062 2.4062-1.1719 0.58203-0.78125 0.875-1.8672 0.875-3.2656v-7.5625h4.8906v15.312h-4.8906v-2.2188c-0.74219 0.89844-1.5234 1.5586-2.3438 1.9844-0.82422 0.41406-1.7344 0.625-2.7344 0.625-1.7617 0-3.1055-0.53906-4.0312-1.625-0.92969-1.082-1.3906-2.6602-1.3906-4.7344z"/>
    </symbol>
    <symbol id="f" overflow="visible">
      <path d="m17.75-9.3281v9.3281h-4.9219v-7.1406c0-1.3203-0.03125-2.2344-0.09375-2.7344s-0.16797-0.86719-0.3125-1.1094c-0.1875-0.3125-0.44922-0.55469-0.78125-0.73438-0.32422-0.17578-0.69531-0.26562-1.1094-0.26562-1.0234 0-1.8242 0.39844-2.4062 1.1875-0.58594 0.78125-0.875 1.8711-0.875 3.2656v7.5312h-4.8906v-15.312h4.8906v2.2344c0.73828-0.88281 1.5195-1.5391 2.3438-1.9688 0.83203-0.42578 1.75-0.64062 2.75-0.64062 1.7695 0 3.1133 0.54688 4.0312 1.6406 0.91406 1.0859 1.375 2.6562 1.375 4.7188z"/>
    </symbol>
    <symbol id="s" overflow="visible">
      <path d="m2.3594-21.281h4.8906v11.594l5.625-5.625h5.6875l-7.4688 7.0312 8.0625 8.2812h-5.9375l-5.9688-6.3906v6.3906h-4.8906z"/>
    </symbol>
    <symbol id="r" overflow="visible">
      <path d="m12.422-21.281v3.2188h-2.7031c-0.6875 0-1.1719 0.125-1.4531 0.375-0.27344 0.25-0.40625 0.6875-0.40625 1.3125v1.0625h4.1875v3.5h-4.1875v11.812h-4.8906v-11.812h-2.4375v-3.5h2.4375v-1.0625c0-1.6641 0.46094-2.8984 1.3906-3.7031 0.92578-0.80078 2.3672-1.2031 4.3281-1.2031z"/>
    </symbol>
    <symbol id="d" overflow="visible">
      <path d="m9.6406-12.188c-1.0859 0-1.9141 0.39062-2.4844 1.1719-0.57422 0.78125-0.85938 1.9062-0.85938 3.375s0.28516 2.5938 0.85938 3.375c0.57031 0.77344 1.3984 1.1562 2.4844 1.1562 1.0625 0 1.875-0.38281 2.4375-1.1562 0.57031-0.78125 0.85938-1.9062 0.85938-3.375s-0.28906-2.5938-0.85938-3.375c-0.5625-0.78125-1.375-1.1719-2.4375-1.1719zm0-3.5c2.6328 0 4.6914 0.71484 6.1719 2.1406 1.4766 1.418 2.2188 3.3867 2.2188 5.9062 0 2.5117-0.74219 4.4805-2.2188 5.9062-1.4805 1.418-3.5391 2.125-6.1719 2.125-2.6484 0-4.7148-0.70703-6.2031-2.125-1.4922-1.4258-2.2344-3.3945-2.2344-5.9062 0-2.5195 0.74219-4.4883 2.2344-5.9062 1.4883-1.4258 3.5547-2.1406 6.2031-2.1406z"/>
    </symbol>
    <symbol id="q" overflow="visible">
      <path d="m16.547-12.766c0.61328-0.94531 1.3477-1.6719 2.2031-2.1719 0.85156-0.5 1.7891-0.75 2.8125-0.75 1.7578 0 3.0977 0.54688 4.0156 1.6406 0.92578 1.0859 1.3906 2.6562 1.3906 4.7188v9.3281h-4.9219v-7.9844-0.35938c0.007813-0.13281 0.015625-0.32031 0.015625-0.5625 0-1.082-0.16406-1.8633-0.48438-2.3438-0.3125-0.48828-0.82422-0.73438-1.5312-0.73438-0.92969 0-1.6484 0.38672-2.1562 1.1562-0.51172 0.76172-0.77344 1.8672-0.78125 3.3125v7.5156h-4.9219v-7.9844c0-1.6953-0.14844-2.7852-0.4375-3.2656-0.29297-0.48828-0.8125-0.73438-1.5625-0.73438-0.9375 0-1.6641 0.38672-2.1719 1.1562-0.51172 0.76172-0.76562 1.8594-0.76562 3.2969v7.5312h-4.9219v-15.312h4.9219v2.2344c0.60156-0.86328 1.2891-1.5156 2.0625-1.9531 0.78125-0.4375 1.6406-0.65625 2.5781-0.65625 1.0625 0 2 0.25781 2.8125 0.76562 0.8125 0.51172 1.4258 1.2305 1.8438 2.1562z"/>
    </symbol>
    <symbol id="p" overflow="visible">
      <path d="m17.75-9.3281v9.3281h-4.9219v-7.1094c0-1.3438-0.03125-2.2656-0.09375-2.7656s-0.16797-0.86719-0.3125-1.1094c-0.1875-0.3125-0.44922-0.55469-0.78125-0.73438-0.32422-0.17578-0.69531-0.26562-1.1094-0.26562-1.0234 0-1.8242 0.39844-2.4062 1.1875-0.58594 0.78125-0.875 1.8711-0.875 3.2656v7.5312h-4.8906v-21.281h4.8906v8.2031c0.73828-0.88281 1.5195-1.5391 2.3438-1.9688 0.83203-0.42578 1.75-0.64062 2.75-0.64062 1.7695 0 3.1133 0.54688 4.0312 1.6406 0.91406 1.0859 1.375 2.6562 1.375 4.7188z"/>
    </symbol>
    <symbol id="o" overflow="visible">
      <path d="m2.5781-20.406h5.875l7.4219 14v-14h4.9844v20.406h-5.875l-7.4219-14v14h-4.9844z"/>
    </symbol>
    <symbol id="n" overflow="visible">
      <path d="m2.5781-20.406h8.7344c2.5938 0 4.582 0.57812 5.9688 1.7344 1.3945 1.1484 2.0938 2.7891 2.0938 4.9219 0 2.1367-0.69922 3.7812-2.0938 4.9375-1.3867 1.1562-3.375 1.7344-5.9688 1.7344h-3.4844v7.0781h-5.25zm5.25 3.8125v5.7031h2.9219c1.0195 0 1.8047-0.25 2.3594-0.75 0.5625-0.5 0.84375-1.2031 0.84375-2.1094 0-0.91406-0.28125-1.6172-0.84375-2.1094-0.55469-0.48828-1.3398-0.73438-2.3594-0.73438z"/>
    </symbol>
    <symbol id="m" overflow="visible">
      <path d="m2.3594-15.312h4.8906v15.031c0 2.0508-0.49609 3.6172-1.4844 4.7031-0.98047 1.082-2.4062 1.625-4.2812 1.625h-2.4219v-3.2188h0.85938c0.92578 0 1.5625-0.21094 1.9062-0.625 0.35156-0.41797 0.53125-1.2461 0.53125-2.4844zm0-5.9688h4.8906v4h-4.8906z"/>
    </symbol>
    <symbol id="l" overflow="visible">
      <path d="m14.719-14.828v3.9844c-0.65625-0.45703-1.3242-0.79688-2-1.0156-0.66797-0.21875-1.3594-0.32812-2.0781-0.32812-1.3672 0-2.4336 0.40234-3.2031 1.2031-0.76172 0.79297-1.1406 1.9062-1.1406 3.3438 0 1.4297 0.37891 2.543 1.1406 3.3438 0.76953 0.79297 1.8359 1.1875 3.2031 1.1875 0.75781 0 1.4844-0.10938 2.1719-0.32812 0.6875-0.22656 1.3203-0.56641 1.9062-1.0156v4c-0.76172 0.28125-1.5391 0.48828-2.3281 0.625-0.78125 0.14453-1.5742 0.21875-2.375 0.21875-2.7617 0-4.9219-0.70703-6.4844-2.125-1.5547-1.4141-2.3281-3.3828-2.3281-5.9062 0-2.5312 0.77344-4.5039 2.3281-5.9219 1.5625-1.4141 3.7227-2.125 6.4844-2.125 0.80078 0 1.5938 0.074219 2.375 0.21875 0.78125 0.13672 1.5547 0.35156 2.3281 0.64062z"/>
    </symbol>
    <linearGradient id="gradient-29-1" gradientUnits="userSpaceOnUse" x1="148.765" y1="-443.581" x2="148.765" y2="-300" gradientTransform="matrix(1.337267, 0, 0, 1.337267, 143.383606, 1309.115723)" xlink:href="#gradient-29"/>
    <linearGradient id="gradient-29">
      <title>gradient1</title>
      <stop offset="0" style="stop-color: rgb(179, 43, 213);"/>
      <stop offset="1" style="stop-color: rgb(218, 60, 142);"/>
    </linearGradient>
    <linearGradient gradientUnits="userSpaceOnUse" x1="793.906" y1="575.817" x2="793.906" y2="700" id="gradient-1">
      <stop offset="0" style="stop-color: rgba(22, 22, 22, 1)"/>
      <stop offset="1" style="stop-color: rgba(0, 0, 0, 1)"/>
    </linearGradient>
    <linearGradient id="gradient-29-0" gradientUnits="userSpaceOnUse" x1="1581.398" y1="637.174" x2="1581.398" y2="1000" xlink:href="#gradient-29"/>
    <linearGradient gradientUnits="userSpaceOnUse" x1="961.307" y1="683.794" x2="961.307" y2="972.741" id="gradient-0">
      <stop offset="0" style="stop-color: rgba(90, 173, 251, 1)"/>
      <stop offset="1" style="stop-color: rgba(6, 123, 234, 1)"/>
    </linearGradient>
    <linearGradient id="gradient-29-2" gradientUnits="userSpaceOnUse" x1="589.212" y1="283.144" x2="589.212" y2="381.85" xlink:href="#gradient-29"/>
    <linearGradient id="gradient-29-3" gradientUnits="userSpaceOnUse" x1="515.435" y1="201.144" x2="515.435" y2="299.85" xlink:href="#gradient-29"/>
    <linearGradient gradientUnits="userSpaceOnUse" x1="960" y1="0" x2="960" y2="1080" id="gradient-2">
      <stop offset="0" style="stop-color: rgba(50, 50, 50, 1)"/>
      <stop offset="1" style="stop-color: rgba(0, 0, 0, 1)"/>
    </linearGradient>
    <linearGradient gradientUnits="userSpaceOnUse" x1="959.959" y1="101.504" x2="959.959" y2="200.21" id="gradient-3">
      <stop offset="0" style="stop-color: rgba(156, 193, 228, 1)"/>
      <stop offset="1" style="stop-color: rgba(76, 143, 206, 1)"/>
    </linearGradient>
  </defs>
  <g id="ink-handbook">
    <g id="g-1" style="">
      <title>background</title>
      <rect width="1920" height="1080" style="fill-opacity: 0.5; fill: url(#gradient-2);"/>
      <rect width="1920" height="1080" fill="url(#paint0_linear_433:2)" style="fill-opacity: 0.5;"/>
    </g>
    <path d="M 1760.209 814.149 L 1744.988 804.719 C 1744.86 803.235 1744.714 801.755 1744.555 800.281 L 1757.66 788.077 C 1758.992 786.836 1759.588 784.998 1759.227 783.223 C 1758.877 781.438 1757.626 779.968 1755.923 779.34 L 1739.177 773.099 C 1738.758 771.65 1738.318 770.211 1737.867 768.766 L 1748.303 754.273 C 1749.367 752.8 1749.586 750.883 1748.892 749.211 C 1748.199 747.537 1746.684 746.337 1744.905 746.043 L 1727.258 743.172 C 1726.571 741.834 1725.857 740.516 1725.136 739.219 L 1732.555 722.924 C 1733.315 721.267 1733.159 719.353 1732.146 717.828 C 1731.137 716.316 1729.428 715.432 1727.604 715.501 L 1709.68 716.125 C 1708.754 714.967 1707.811 713.82 1706.851 712.693 L 1710.977 695.254 C 1711.393 693.482 1710.869 691.613 1709.579 690.331 C 1708.3 689.048 1706.442 688.517 1704.656 688.933 L 1687.217 693.059 C 1686.087 692.102 1684.939 691.156 1683.778 690.23 L 1684.405 672.306 C 1684.474 670.492 1683.59 668.769 1682.079 667.764 C 1680.564 666.751 1678.646 666.599 1676.982 667.351 L 1660.722 674.771 C 1659.408 674.049 1658.09 673.335 1656.769 672.645 L 1653.892 654.998 C 1653.6 653.209 1652.401 651.69 1650.723 651.011 C 1649.048 650.314 1647.117 650.539 1645.661 651.6 L 1631.169 662.036 C 1629.74 661.582 1628.305 661.145 1626.87 660.729 L 1620.629 643.983 C 1619.994 642.277 1618.524 641.026 1616.746 640.672 C 1614.964 640.322 1613.14 640.915 1611.892 642.239 L 1599.688 655.345 C 1598.214 655.182 1596.73 655.033 1595.25 654.911 L 1585.82 639.656 C 1584.866 638.114 1583.178 637.174 1581.347 637.174 C 1579.517 637.174 1577.845 638.114 1576.909 639.656 L 1567.479 654.911 C 1565.995 655.033 1564.511 655.182 1563.041 655.345 L 1550.837 642.239 C 1549.599 640.915 1547.762 640.322 1545.983 640.672 C 1544.198 641.029 1542.728 642.277 1542.1 643.983 L 1535.86 660.729 C 1534.41 661.145 1532.975 661.585 1531.56 662.036 L 1517.068 651.6 C 1515.595 650.536 1513.674 650.311 1512.006 651.011 C 1510.332 651.704 1509.129 653.223 1508.837 654.998 L 1505.96 672.645 C 1504.628 673.335 1503.311 674.046 1502.007 674.771 L 1485.747 667.351 C 1484.093 666.595 1482.176 666.751 1480.65 667.764 C 1479.139 668.769 1478.255 670.492 1478.324 672.306 L 1478.948 690.23 C 1477.79 691.156 1476.642 692.102 1475.509 693.059 L 1458.07 688.933 C 1456.298 688.521 1454.429 689.048 1453.146 690.331 C 1451.857 691.617 1451.333 693.472 1451.749 695.254 L 1455.84 712.693 C 1454.887 713.823 1453.944 714.967 1453.018 716.125 L 1435.093 715.501 C 1433.287 715.449 1431.557 716.316 1430.552 717.828 C 1429.539 719.332 1429.387 721.26 1430.139 722.924 L 1437.558 739.219 C 1436.837 740.527 1436.123 741.844 1435.433 743.172 L 1417.786 746.043 C 1415.993 746.334 1414.482 747.533 1413.799 749.211 C 1413.105 750.893 1413.331 752.817 1414.388 754.273 L 1424.824 768.766 C 1424.37 770.198 1423.93 771.636 1423.513 773.099 L 1406.768 779.34 C 1405.069 779.975 1403.817 781.445 1403.464 783.223 C 1403.11 785.005 1403.703 786.829 1405.031 788.077 L 1418.136 800.281 C 1417.973 801.755 1417.828 803.238 1417.703 804.719 L 1402.482 814.149 C 1400.94 815.103 1400 816.788 1400 818.622 C 1400 820.456 1400.94 822.123 1402.482 823.06 L 1417.703 832.49 C 1417.828 833.974 1417.973 835.454 1418.136 836.928 L 1405.031 849.132 C 1403.703 850.369 1403.11 852.207 1403.464 853.986 C 1403.817 855.771 1405.069 857.238 1406.768 857.869 L 1423.513 864.109 C 1423.93 865.559 1424.37 866.997 1424.824 868.443 L 1414.388 882.935 C 1413.327 884.412 1413.102 886.33 1413.799 887.997 C 1414.496 889.679 1416.011 890.878 1417.821 891.166 L 1435.468 894.037 C 1436.158 895.375 1436.865 896.693 1437.593 897.989 L 1430.174 914.25 C 1429.418 915.904 1429.574 917.821 1430.586 919.346 C 1431.599 920.861 1433.322 921.745 1435.128 921.673 L 1453.018 921.045 C 1453.951 922.21 1454.89 923.351 1455.847 924.484 L 1451.756 941.924 C 1451.34 943.692 1451.863 945.529 1453.153 946.812 C 1454.433 948.105 1456.294 948.622 1458.076 948.206 L 1475.516 944.115 C 1476.649 945.079 1477.797 946.015 1478.955 946.937 L 1478.331 964.862 C 1478.262 966.675 1479.146 968.398 1480.657 969.403 C 1482.162 970.412 1484.09 970.565 1485.754 969.809 L 1502.014 962.39 C 1503.325 963.118 1504.642 963.825 1505.967 964.515 L 1508.844 982.162 C 1509.136 983.958 1510.335 985.477 1512.013 986.184 C 1513.688 986.881 1515.619 986.656 1517.075 985.598 L 1531.567 975.162 C 1532.999 975.616 1534.438 976.06 1535.901 976.476 L 1542.142 993.222 C 1542.776 994.921 1544.246 996.179 1546.025 996.526 C 1547.807 996.887 1549.631 996.29 1550.879 994.959 L 1563.083 981.854 C 1564.556 982.024 1566.04 982.166 1567.521 982.297 L 1576.951 997.518 C 1577.901 999.054 1579.589 1000 1581.389 1000 C 1583.188 1000 1584.891 999.057 1585.861 997.518 L 1595.292 982.297 C 1596.776 982.166 1598.256 982.024 1599.729 981.854 L 1611.933 994.959 C 1613.171 996.29 1615.009 996.887 1616.787 996.526 C 1618.573 996.176 1620.043 994.921 1620.67 993.222 L 1626.911 976.476 C 1628.36 976.06 1629.799 975.616 1631.245 975.162 L 1645.737 985.598 C 1647.211 986.656 1649.131 986.881 1650.799 986.184 C 1652.477 985.494 1653.677 983.972 1653.968 982.162 L 1656.846 964.515 C 1658.177 963.825 1659.494 963.107 1660.798 962.39 L 1677.058 969.809 C 1678.712 970.565 1680.629 970.412 1682.155 969.403 C 1683.667 968.391 1684.547 966.675 1684.481 964.862 L 1683.857 946.937 C 1685.015 946.011 1686.163 945.079 1687.293 944.115 L 1704.732 948.206 C 1706.504 948.622 1708.373 948.105 1709.656 946.812 C 1710.945 945.526 1711.469 943.678 1711.053 941.924 L 1706.962 924.484 C 1707.919 923.351 1708.862 922.21 1709.784 921.045 L 1727.708 921.673 C 1729.515 921.745 1731.245 920.861 1732.25 919.346 C 1733.263 917.835 1733.419 915.91 1732.659 914.25 L 1725.24 897.989 C 1725.965 896.675 1726.675 895.358 1727.362 894.037 L 1745.009 891.166 C 1746.805 890.878 1748.317 889.679 1748.996 887.997 C 1749.69 886.323 1749.471 884.392 1748.407 882.935 L 1737.971 868.443 C 1738.422 867.011 1738.862 865.572 1739.281 864.109 L 1756.027 857.869 C 1757.73 857.231 1758.985 855.764 1759.331 853.986 C 1759.692 852.204 1759.096 850.38 1757.764 849.132 L 1744.659 836.928 C 1744.818 835.454 1744.964 833.97 1745.092 832.49 L 1760.313 823.06 C 1761.855 822.11 1762.795 820.421 1762.795 818.622 C 1762.795 816.822 1761.859 815.12 1760.316 814.149 L 1760.209 814.149 Z M 1658.277 940.696 C 1652.453 939.441 1648.778 933.693 1650.026 927.868 C 1651.271 922.044 1656.995 918.334 1662.819 919.582 C 1668.644 920.827 1672.354 926.585 1671.106 932.41 C 1669.857 938.235 1664.137 941.944 1658.312 940.696 L 1658.277 940.696 Z M 1653.112 905.679 C 1647.807 904.542 1642.572 907.919 1641.462 913.237 L 1636.054 938.477 C 1619.377 946.036 1600.69 950.265 1581.274 950.265 C 1561.304 950.265 1542.444 945.862 1525.455 937.957 L 1520.046 912.717 C 1518.909 907.413 1513.702 904.015 1508.397 905.159 L 1486.104 909.944 C 1481.978 905.679 1478.13 901.137 1474.593 896.353 L 1583.112 896.353 C 1584.339 896.353 1585.157 896.131 1585.157 895.015 L 1585.157 856.53 C 1585.157 855.414 1584.339 855.192 1583.112 855.192 L 1551.388 855.192 L 1551.388 830.888 L 1585.678 830.888 C 1588.808 830.888 1602.423 831.783 1606.757 849.194 C 1608.12 854.533 1611.126 871.938 1613.171 877.52 C 1615.21 883.761 1623.503 896.242 1632.344 896.242 L 1686.43 896.242 C 1687.044 896.242 1687.699 896.173 1688.389 896.048 C 1684.644 901.144 1680.519 905.964 1676.115 910.471 L 1653.302 905.582 L 1653.112 905.679 Z M 1502.989 940.176 C 1497.164 941.431 1491.443 937.722 1490.195 931.89 C 1488.95 926.065 1492.65 920.31 1498.481 919.062 C 1504.306 917.817 1510.027 921.527 1511.275 927.348 C 1512.519 933.173 1508.817 938.928 1502.989 940.176 Z M 1461.731 773.411 C 1464.144 778.855 1461.689 785.234 1456.253 787.661 C 1450.81 790.078 1444.465 787.619 1442.038 782.183 C 1439.611 776.747 1442.079 770.36 1447.516 767.934 C 1452.959 765.52 1459.304 767.975 1461.731 773.411 Z M 1449.076 803.367 L 1472.305 793.035 C 1477.263 790.833 1479.517 785.026 1477.298 780.068 L 1472.513 769.251 L 1491.305 769.251 L 1491.305 853.847 L 1453.514 853.847 C 1450.224 842.267 1448.452 830.063 1448.452 817.443 C 1448.452 812.624 1448.712 807.874 1449.211 803.193 L 1449.076 803.367 Z M 1551.007 795.15 L 1551.007 770.187 L 1595.732 770.187 C 1598.044 770.187 1612.062 772.86 1612.062 783.327 C 1612.062 792.029 1601.314 795.15 1592.473 795.15 L 1550.868 795.15 L 1551.007 795.15 Z M 1713.611 817.616 C 1713.611 820.931 1713.49 824.204 1713.247 827.463 L 1699.622 827.463 C 1698.259 827.463 1697.712 828.357 1697.712 829.692 L 1697.712 835.933 C 1697.712 850.633 1689.425 853.857 1682.145 854.655 C 1675.211 855.435 1667.548 851.756 1666.612 847.513 C 1662.521 824.526 1655.726 819.638 1644.978 811.109 C 1658.326 802.649 1672.194 790.133 1672.194 773.318 C 1672.194 755.255 1659.817 743.883 1651.392 738.301 C 1639.535 730.5 1626.429 728.94 1622.893 728.94 L 1482.131 728.94 C 1501.234 707.652 1527.202 692.536 1556.326 686.988 L 1572.933 704.393 C 1576.677 708.311 1582.883 708.484 1586.836 704.712 L 1605.419 686.961 C 1644.25 694.207 1677.187 718.407 1696.255 751.794 L 1683.531 780.502 C 1681.337 785.459 1683.576 791.284 1688.524 793.468 L 1713.001 804.355 C 1713.424 808.689 1713.646 813.092 1713.646 817.53 L 1713.611 817.616 Z M 1572.849 672.347 C 1577.149 668.221 1583.979 668.395 1588.07 672.697 C 1592.161 676.996 1592.022 683.826 1587.713 687.952 C 1583.414 692.078 1576.583 691.905 1572.492 687.599 C 1568.401 683.3 1568.54 676.469 1572.849 672.344 L 1572.849 672.347 Z M 1699.05 773.932 C 1701.46 768.488 1707.822 766.027 1713.265 768.454 C 1718.708 770.867 1721.17 777.26 1718.743 782.703 C 1716.333 788.146 1709.971 790.608 1704.528 788.181 C 1699.085 785.768 1696.623 779.375 1699.05 773.932 Z" style="fill: url(#gradient-29-0);">
      <title>rust logo</title>
    </path>
    <text style="fill: url(#gradient-3); font-family: &quot;Fira Mono&quot;, monospace; font-size: 82px; white-space: pre;" x="640.238" y="178.381"><title>text-l1</title>Using Rust to</text>
    <text style="fill: url(#gradient-29-3); font-family: &quot;Fira Mono&quot;, monospace; font-size: 82px; white-space: pre;" transform="matrix(1, 0, 0, 1, 444.50589, 50)"><title>text-l2</title><tspan x="23.556" y="278.021">Write a grep CLI app</tspan><tspan x="23.556" dy="1em">​</tspan></text>
    <text style="fill: url(#gradient-29-2); font-family: &quot;Fira Mono&quot;, monospace; font-size: 82px; white-space: pre;" transform="matrix(1, 0, 0, 1, 370.716034, 50)"><title>text-l3</title><tspan x="23.556" y="278.021" dy="1em">​</tspan><tspan>for piped &amp; file search</tspan></text>
    <path d="M 1099.801 936.834 L 1044.267 881.715 C 1059.715 860.421 1067.649 835.367 1067.649 809.06 C 1067.649 740.165 1011.277 683.794 942.382 683.794 C 873.487 683.794 817.116 740.165 817.116 809.06 C 817.116 877.955 873.487 934.327 942.382 934.327 C 968.689 934.327 993.741 926.392 1015.038 910.944 L 1069.737 966.479 C 1073.914 970.656 1078.923 972.741 1084.353 972.741 C 1089.782 972.741 1094.791 970.653 1098.968 966.479 C 1107.316 958.129 1107.733 945.185 1099.801 936.834 Z M 1025.474 809.062 C 1025.474 854.995 987.895 892.573 941.963 892.573 C 896.03 892.573 858.452 854.995 858.452 809.062 C 858.452 763.13 896.03 725.551 941.963 725.551 C 988.311 725.551 1025.474 763.133 1025.474 809.062 Z" style="fill: url(#gradient-0);"/>
    <g transform="matrix(1, 0, 0, 1, 1.3349, 2.065002)">
      <title>r3bl-terminal</title>
      <path d="M 444.95 715.929 L 239.696 715.929 C 231.277 715.954 223.208 719.311 217.253 725.264 C 211.301 731.219 207.944 739.287 207.919 747.706 L 207.919 876.158 C 207.944 884.577 211.301 892.646 217.253 898.601 C 223.208 904.553 231.277 907.91 239.696 907.935 L 444.95 907.935 C 453.369 907.91 461.437 904.553 467.392 898.601 C 473.345 892.646 476.702 884.577 476.727 876.158 L 476.727 747.706 C 476.702 739.287 473.345 731.219 467.392 725.264 C 461.437 719.311 453.369 715.954 444.95 715.929 Z M 331.381 819.611 L 280.981 858.012 C 279.268 859.232 277.226 859.901 275.123 859.933 C 272.119 859.957 269.275 858.57 267.443 856.19 C 265.875 854.158 265.185 851.581 265.527 849.041 C 265.871 846.497 267.219 844.196 269.266 842.652 L 309.684 811.931 L 269.266 781.21 C 266.523 779.119 265.103 775.721 265.545 772.299 C 265.984 768.877 268.216 765.949 271.402 764.619 C 274.583 763.29 278.235 763.759 280.981 765.851 L 331.381 804.251 C 333.799 806.065 335.221 808.911 335.221 811.931 C 335.221 814.954 333.799 817.799 331.381 819.611 Z M 409.528 859.933 L 350.774 859.933 C 347.345 859.933 344.176 858.103 342.461 855.133 C 340.746 852.163 340.746 848.503 342.461 845.533 C 344.176 842.563 347.345 840.732 350.774 840.732 L 409.528 840.732 C 412.958 840.732 416.127 842.563 417.842 845.533 C 419.556 848.503 419.556 852.163 417.842 855.133 C 416.127 858.103 412.958 859.933 409.528 859.933 Z" style="fill: url(#gradient-29-1);">
        <title>terminal</title>
      </path>
      <g transform="matrix(0.552355, 0, 0, 0.552355, -6.087463, 407.873383)" style="">
        <title>r3bl</title>
        <rect width="124.183" height="124.183" rx="20" style="fill: url(#gradient-1);" x="731.814" y="575.817"/>
        <rect x="742.377" y="586.381" width="51.528" height="51.528" style="" fill="#161616"/>
        <path fill-rule="evenodd" clip-rule="evenodd" d="M 769.624 600.551 L 779.735 600.551 L 779.735 606.4 L 779.735 610.619 C 783.428 609.694 786.176 606.201 786.176 602.319 C 786.176 597.785 782.427 594.11 777.803 594.11 C 773.798 594.11 770.449 596.867 769.624 600.551 Z" style="" fill="white"/>
        <path fill-rule="evenodd" clip-rule="evenodd" d="M 769.76 611.849 C 770.771 615.347 773.989 618.071 777.803 618.071 C 782.427 618.071 786.176 614.067 786.176 609.533 C 786.176 605.651 783.428 602.399 779.735 601.543 L 779.735 611.849 L 769.76 611.849 Z" style="" fill="white"/>
        <rect x="750.107" y="594.11" width="6.441" height="36.07" style="" fill="white"/>
        <rect x="779.735" y="601.839" width="6.441" height="7.987" style="" fill="white"/>
        <path fill-rule="evenodd" clip-rule="evenodd" d="M 750.107 600.551 L 750.107 594.11 L 778.576 594.11 L 778.576 600.551 L 750.107 600.551 Z" style="" fill="white"/>
        <path fill-rule="evenodd" clip-rule="evenodd" d="M 750.107 618.071 L 750.107 611.629 L 778.576 611.629 L 778.576 618.071 L 750.107 618.071 Z" style="" fill="white"/>
        <path fill-rule="evenodd" clip-rule="evenodd" d="M 776.234 614.258 L 770.771 617.671 L 778.588 630.18 L 786.183 630.18 L 776.234 614.258 Z" style="" fill="white"/>
        <path fill-rule="evenodd" clip-rule="evenodd" d="M 779.993 600.293 L 775.871 600.293 L 775.871 600.551 C 778.005 600.551 779.735 602.281 779.735 604.416 L 779.993 604.416 L 779.993 600.293 Z" style="" fill="white"/>
        <path fill-rule="evenodd" clip-rule="evenodd" d="M 779.993 611.887 L 775.871 611.887 L 775.871 611.629 C 778.005 611.629 779.735 609.899 779.735 607.765 L 779.993 607.765 L 779.993 611.887 Z" style="" fill="white"/>
        <rect x="793.648" y="586.381" width="51.528" height="51.528" style="" fill="#161616"/>
        <path fill-rule="evenodd" clip-rule="evenodd" d="M 837.447 602.483 C 837.447 607.108 833.647 610.857 828.96 610.857 C 827.297 610.857 825.745 610.384 824.435 609.568 L 831.006 609.568 L 831.006 600.551 L 820.7 600.551 C 821.585 596.858 824.947 594.11 828.96 594.11 C 833.647 594.11 837.447 597.859 837.447 602.483 Z" style="" fill="white"/>
        <path fill-rule="evenodd" clip-rule="evenodd" d="M 837.447 606.863 C 837.447 611.488 833.698 615.236 829.074 615.236 C 825.69 615.236 822.775 613.23 821.455 610.341 L 831.245 610.341 L 831.245 599.52 L 825.046 599.52 C 826.241 598.863 827.614 598.49 829.074 598.49 C 833.698 598.49 837.447 602.239 837.447 606.863 Z" style="" fill="white"/>
        <path fill-rule="evenodd" clip-rule="evenodd" d="M 837.447 617.426 C 837.447 622.051 833.647 625.8 828.96 625.8 C 827.297 625.8 825.745 625.328 824.435 624.512 L 831.072 624.512 L 831.072 615.236 L 820.767 615.236 C 821.742 611.674 825.041 609.053 828.96 609.053 C 833.647 609.053 837.447 612.802 837.447 617.426 Z" style="" fill="white"/>
        <path fill-rule="evenodd" clip-rule="evenodd" d="M 837.447 621.806 C 837.447 626.431 833.698 630.18 829.074 630.18 C 825.69 630.18 822.775 628.173 821.455 625.285 L 832.018 625.285 L 832.018 614.464 L 825.046 614.464 C 826.241 613.807 827.614 613.433 829.074 613.433 C 833.698 613.433 837.447 617.182 837.447 621.806 Z" style="" fill="white"/>
        <rect x="831.006" y="602.612" width="6.441" height="3.865" style="" fill="white"/>
        <path fill-rule="evenodd" clip-rule="evenodd" d="M 831.006 617.555 L 837.447 617.555 L 837.447 621.935 L 831.006 621.935 L 831.006 618.972 L 831.006 617.555 Z" style="" fill="white"/>
        <rect x="809.107" y="594.11" width="19.838" height="6.441" style="" fill="white"/>
        <rect x="809.107" y="623.739" width="20.611" height="6.441" style="" fill="white"/>
        <rect x="812.971" y="608.795" width="16.747" height="6.441" style="" fill="white"/>
        <path fill-rule="evenodd" clip-rule="evenodd" d="M 811.683 600.554 C 811.64 600.552 811.597 600.551 811.554 600.551 C 810.334 600.551 809.322 601.444 809.137 602.612 L 801.378 602.612 C 801.378 602.569 801.377 602.526 801.377 602.483 C 801.377 597.859 805.126 594.11 809.751 594.11 C 813.71 594.11 817.028 596.858 817.9 600.551 L 811.683 600.551 L 811.683 600.554 Z" style="" fill="white"/>
        <path fill-rule="evenodd" clip-rule="evenodd" d="M 811.683 623.735 C 811.64 623.738 811.597 623.739 811.554 623.739 C 810.334 623.739 809.322 622.846 809.137 621.678 L 801.378 621.678 C 801.378 621.72 801.377 621.763 801.377 621.806 C 801.377 626.431 805.126 630.18 809.751 630.18 C 813.71 630.18 817.028 627.431 817.9 623.739 L 811.683 623.739 L 811.683 623.735 Z" style="" fill="white"/>
        <path fill-rule="evenodd" clip-rule="evenodd" d="M 831.006 600.164 L 827.141 600.164 L 827.141 600.551 C 829.276 600.551 831.006 602.281 831.006 604.416 L 831.006 600.164 Z" style="" fill="white"/>
        <path fill-rule="evenodd" clip-rule="evenodd" d="M 831.006 609.697 L 827.141 609.697 L 827.141 608.795 C 829.276 608.795 831.006 607.065 831.006 604.931 L 831.006 609.697 Z" style="" fill="white"/>
        <path fill-rule="evenodd" clip-rule="evenodd" d="M 827.141 615.236 L 831.264 615.236 L 831.264 619.101 L 831.006 619.101 C 831.006 616.967 829.276 615.236 827.141 615.236 Z" style="" fill="white"/>
        <path fill-rule="evenodd" clip-rule="evenodd" d="M 831.264 624.64 L 827.141 624.64 L 827.141 623.739 C 829.276 623.739 831.006 622.008 831.006 619.874 L 831.264 619.874 L 831.264 624.64 Z" style="" fill="white"/>
        <rect x="742.377" y="637.651" width="51.528" height="51.528" style="" fill="#161616"/>
        <rect x="749.591" y="645.381" width="6.441" height="36.07" style="" fill="white"/>
        <rect x="44.83" y="69.563" width="6.441" height="27.052" transform="matrix(0, 1, -1, 0, 846.207336, 600.550903)" style="" fill="white"/>
        <rect x="44.314" y="84.378" width="6.441" height="26.408" transform="matrix(0, 1, -1, 0, 860.506409, 615.880615)" style="" fill="white"/>
        <rect x="45.603" y="99.192" width="6.441" height="27.825" transform="matrix(0, 1, -1, 0, 876.608948, 629.406738)" style="" fill="white"/>
        <path fill-rule="evenodd" clip-rule="evenodd" d="M 785.661 669.212 C 785.661 673.837 781.912 677.586 777.288 677.586 C 774.913 677.586 772.769 676.597 771.246 675.009 L 779.924 675.009 L 779.924 670.243 L 779.924 666.507 L 769.361 666.507 C 770.486 663.21 773.61 660.839 777.288 660.839 C 781.912 660.839 785.661 664.588 785.661 669.212 Z" style="" fill="white"/>
        <path fill-rule="evenodd" clip-rule="evenodd" d="M 785.661 673.077 C 785.661 677.701 781.907 681.45 777.275 681.45 C 773.31 681.45 769.988 678.702 769.114 675.009 L 779.214 675.009 L 779.214 665.992 L 772.805 665.992 C 774.099 665.176 775.632 664.704 777.275 664.704 C 781.907 664.704 785.661 668.453 785.661 673.077 Z" style="" fill="white"/>
        <path fill-rule="evenodd" clip-rule="evenodd" d="M 785.661 653.754 C 785.661 658.378 781.907 662.127 777.275 662.127 C 775.238 662.127 773.37 661.401 771.917 660.195 L 779.935 660.195 L 779.935 651.822 L 769.114 651.822 C 769.988 648.129 773.31 645.381 777.275 645.381 C 781.907 645.381 785.661 649.129 785.661 653.754 Z" style="" fill="white"/>
        <path fill-rule="evenodd" clip-rule="evenodd" d="M 785.68 658.134 C 785.68 662.758 781.931 666.507 777.306 666.507 C 773.923 666.507 771.008 664.5 769.687 661.612 L 779.22 661.612 L 779.22 651.822 L 771.804 651.822 C 773.276 650.538 775.2 649.76 777.306 649.76 C 781.931 649.76 785.68 653.509 785.68 658.134 Z" style="" fill="white"/>
        <path fill-rule="evenodd" clip-rule="evenodd" d="M 779.891 651.564 L 775.253 651.564 L 775.253 651.823 C 775.287 651.822 775.321 651.822 775.355 651.822 C 777.49 651.822 779.22 653.552 779.22 655.686 L 779.891 655.686 L 779.891 651.564 Z" style="" fill="white"/>
        <path fill-rule="evenodd" clip-rule="evenodd" d="M 779.22 656.33 C 779.22 658.465 777.49 660.195 775.355 660.195 L 775.355 660.581 L 779.478 660.581 L 779.478 656.202 L 779.218 656.202 C 779.219 656.244 779.22 656.287 779.22 656.33 Z" style="" fill="white"/>
        <path fill-rule="evenodd" clip-rule="evenodd" d="M 779.891 666.507 L 775.253 666.507 L 775.253 666.637 C 775.287 666.637 775.321 666.636 775.355 666.636 C 777.447 666.636 779.15 668.297 779.218 670.372 L 779.891 670.372 L 779.891 666.507 Z" style="" fill="white"/>
        <path fill-rule="evenodd" clip-rule="evenodd" d="M 779.22 671.145 C 779.22 673.279 777.49 675.009 775.355 675.009 L 775.355 675.525 L 779.478 675.525 L 779.478 671.145 L 779.22 671.145 Z" style="" fill="white"/>
        <rect x="779.22" y="653.883" width="6.441" height="4.638" style="" fill="white"/>
        <rect x="779.735" y="669.084" width="5.926" height="4.38" style="" fill="white"/>
        <rect x="793.648" y="637.651" width="51.528" height="51.528" style="" fill="#161616"/>
        <rect x="801.377" y="645.381" width="6.441" height="36.07" style="" fill="white"/>
        <rect x="105.652" y="99.217" width="6.441" height="36.07" transform="matrix(0, 1, -1, 0, 936.683533, 569.381653)" style="" fill="white"/>
      </g>
    </g>
  </g>
</svg>