<?xml version="1.0" encoding="utf-8"?>
<svg width="1920" height="1080" viewBox="0 0 1920 1080" fill="none" xmlns="http://www.w3.org/2000/svg" xmlns:xlink="http://www.w3.org/1999/xlink">
  <defs>
    <linearGradient id="gradient-29-1" gradientUnits="userSpaceOnUse" x1="148.765" y1="-443.581" x2="148.765" y2="-300" gradientTransform="matrix(1.337267, 0, 0, 1.337267, 143.383606, 1309.115723)" xlink:href="#gradient-29"/>
    <linearGradient id="gradient-29">
      <title>gradient1</title>
      <stop offset="0" style="stop-color: rgb(179, 43, 213);"/>
      <stop offset="1" style="stop-color: rgb(218, 60, 142);"/>
    </linearGradient>
    <linearGradient gradientUnits="userSpaceOnUse" x1="793.906" y1="575.817" x2="793.906" y2="700" id="gradient-1">
      <stop offset="0" style="stop-color: rgba(22, 22, 22, 1)"/>
      <stop offset="1" style="stop-color: rgba(0, 0, 0, 1)"/>
    </linearGradient>
    <linearGradient id="gradient-29-0" gradientUnits="userSpaceOnUse" x1="1581.398" y1="637.174" x2="1581.398" y2="1000" xlink:href="#gradient-29"/>
    <linearGradient id="gradient-29-2" gradientUnits="userSpaceOnUse" x1="960.001" y1="602.297" x2="960.001" y2="999.406" xlink:href="#gradient-29"/>
    <linearGradient id="gradient-29-3" gradientUnits="userSpaceOnUse" x1="564.619" y1="202.339" x2="564.619" y2="300.521" xlink:href="#gradient-29"/>
    <linearGradient id="gradient-29-4" gradientUnits="userSpaceOnUse" x1="392.465" y1="284.339" x2="392.465" y2="382.521" xlink:href="#gradient-29"/>
    <linearGradient gradientUnits="userSpaceOnUse" x1="960" y1="0" x2="960" y2="1080" id="gradient-0">
      <stop offset="0" style="stop-color: rgba(50, 50, 50, 1)"/>
      <stop offset="1" style="stop-color: rgba(0, 0, 0, 1)"/>
    </linearGradient>
    <linearGradient gradientUnits="userSpaceOnUse" x1="959.943" y1="102.699" x2="959.943" y2="200.881" id="gradient-2">
      <stop offset="0" style="stop-color: rgba(156, 193, 228, 1)"/>
      <stop offset="1" style="stop-color: rgba(76, 143, 206, 1)"/>
    </linearGradient>
  </defs>
  <g id="ink-handbook">
    <g id="g-1">
      <title>background</title>
      <rect width="1920" height="1080" style="fill: url(#gradient-0); fill-opacity: 0.5;"/>
      <rect width="1920" height="1080" fill="url(#paint0_linear_433:2)" style="fill-opacity: 0.5;"/>
    </g>
    <path d="M 1760.209 814.149 L 1744.988 804.719 C 1744.86 803.235 1744.714 801.755 1744.555 800.281 L 1757.66 788.077 C 1758.992 786.836 1759.588 784.998 1759.227 783.223 C 1758.877 781.438 1757.626 779.968 1755.923 779.34 L 1739.177 773.099 C 1738.758 771.65 1738.318 770.211 1737.867 768.766 L 1748.303 754.273 C 1749.367 752.8 1749.586 750.883 1748.892 749.211 C 1748.199 747.537 1746.684 746.337 1744.905 746.043 L 1727.258 743.172 C 1726.571 741.834 1725.857 740.516 1725.136 739.219 L 1732.555 722.924 C 1733.315 721.267 1733.159 719.353 1732.146 717.828 C 1731.137 716.316 1729.428 715.432 1727.604 715.501 L 1709.68 716.125 C 1708.754 714.967 1707.811 713.82 1706.851 712.693 L 1710.977 695.254 C 1711.393 693.482 1710.869 691.613 1709.579 690.331 C 1708.3 689.048 1706.442 688.517 1704.656 688.933 L 1687.217 693.059 C 1686.087 692.102 1684.939 691.156 1683.778 690.23 L 1684.405 672.306 C 1684.474 670.492 1683.59 668.769 1682.079 667.764 C 1680.564 666.751 1678.646 666.599 1676.982 667.351 L 1660.722 674.771 C 1659.408 674.049 1658.09 673.335 1656.769 672.645 L 1653.892 654.998 C 1653.6 653.209 1652.401 651.69 1650.723 651.011 C 1649.048 650.314 1647.117 650.539 1645.661 651.6 L 1631.169 662.036 C 1629.74 661.582 1628.305 661.145 1626.87 660.729 L 1620.629 643.983 C 1619.994 642.277 1618.524 641.026 1616.746 640.672 C 1614.964 640.322 1613.14 640.915 1611.892 642.239 L 1599.688 655.345 C 1598.214 655.182 1596.73 655.033 1595.25 654.911 L 1585.82 639.656 C 1584.866 638.114 1583.178 637.174 1581.347 637.174 C 1579.517 637.174 1577.845 638.114 1576.909 639.656 L 1567.479 654.911 C 1565.995 655.033 1564.511 655.182 1563.041 655.345 L 1550.837 642.239 C 1549.599 640.915 1547.762 640.322 1545.983 640.672 C 1544.198 641.029 1542.728 642.277 1542.1 643.983 L 1535.86 660.729 C 1534.41 661.145 1532.975 661.585 1531.56 662.036 L 1517.068 651.6 C 1515.595 650.536 1513.674 650.311 1512.006 651.011 C 1510.332 651.704 1509.129 653.223 1508.837 654.998 L 1505.96 672.645 C 1504.628 673.335 1503.311 674.046 1502.007 674.771 L 1485.747 667.351 C 1484.093 666.595 1482.176 666.751 1480.65 667.764 C 1479.139 668.769 1478.255 670.492 1478.324 672.306 L 1478.948 690.23 C 1477.79 691.156 1476.642 692.102 1475.509 693.059 L 1458.07 688.933 C 1456.298 688.521 1454.429 689.048 1453.146 690.331 C 1451.857 691.617 1451.333 693.472 1451.749 695.254 L 1455.84 712.693 C 1454.887 713.823 1453.944 714.967 1453.018 716.125 L 1435.093 715.501 C 1433.287 715.449 1431.557 716.316 1430.552 717.828 C 1429.539 719.332 1429.387 721.26 1430.139 722.924 L 1437.558 739.219 C 1436.837 740.527 1436.123 741.844 1435.433 743.172 L 1417.786 746.043 C 1415.993 746.334 1414.482 747.533 1413.799 749.211 C 1413.105 750.893 1413.331 752.817 1414.388 754.273 L 1424.824 768.766 C 1424.37 770.198 1423.93 771.636 1423.513 773.099 L 1406.768 779.34 C 1405.069 779.975 1403.817 781.445 1403.464 783.223 C 1403.11 785.005 1403.703 786.829 1405.031 788.077 L 1418.136 800.281 C 1417.973 801.755 1417.828 803.238 1417.703 804.719 L 1402.482 814.149 C 1400.94 815.103 1400 816.788 1400 818.622 C 1400 820.456 1400.94 822.123 1402.482 823.06 L 1417.703 832.49 C 1417.828 833.974 1417.973 835.454 1418.136 836.928 L 1405.031 849.132 C 1403.703 850.369 1403.11 852.207 1403.464 853.986 C 1403.817 855.771 1405.069 857.238 1406.768 857.869 L 1423.513 864.109 C 1423.93 865.559 1424.37 866.997 1424.824 868.443 L 1414.388 882.935 C 1413.327 884.412 1413.102 886.33 1413.799 887.997 C 1414.496 889.679 1416.011 890.878 1417.821 891.166 L 1435.468 894.037 C 1436.158 895.375 1436.865 896.693 1437.593 897.989 L 1430.174 914.25 C 1429.418 915.904 1429.574 917.821 1430.586 919.346 C 1431.599 920.861 1433.322 921.745 1435.128 921.673 L 1453.018 921.045 C 1453.951 922.21 1454.89 923.351 1455.847 924.484 L 1451.756 941.924 C 1451.34 943.692 1451.863 945.529 1453.153 946.812 C 1454.433 948.105 1456.294 948.622 1458.076 948.206 L 1475.516 944.115 C 1476.649 945.079 1477.797 946.015 1478.955 946.937 L 1478.331 964.862 C 1478.262 966.675 1479.146 968.398 1480.657 969.403 C 1482.162 970.412 1484.09 970.565 1485.754 969.809 L 1502.014 962.39 C 1503.325 963.118 1504.642 963.825 1505.967 964.515 L 1508.844 982.162 C 1509.136 983.958 1510.335 985.477 1512.013 986.184 C 1513.688 986.881 1515.619 986.656 1517.075 985.598 L 1531.567 975.162 C 1532.999 975.616 1534.438 976.06 1535.901 976.476 L 1542.142 993.222 C 1542.776 994.921 1544.246 996.179 1546.025 996.526 C 1547.807 996.887 1549.631 996.29 1550.879 994.959 L 1563.083 981.854 C 1564.556 982.024 1566.04 982.166 1567.521 982.297 L 1576.951 997.518 C 1577.901 999.054 1579.589 1000 1581.389 1000 C 1583.188 1000 1584.891 999.057 1585.861 997.518 L 1595.292 982.297 C 1596.776 982.166 1598.256 982.024 1599.729 981.854 L 1611.933 994.959 C 1613.171 996.29 1615.009 996.887 1616.787 996.526 C 1618.573 996.176 1620.043 994.921 1620.67 993.222 L 1626.911 976.476 C 1628.36 976.06 1629.799 975.616 1631.245 975.162 L 1645.737 985.598 C 1647.211 986.656 1649.131 986.881 1650.799 986.184 C 1652.477 985.494 1653.677 983.972 1653.968 982.162 L 1656.846 964.515 C 1658.177 963.825 1659.494 963.107 1660.798 962.39 L 1677.058 969.809 C 1678.712 970.565 1680.629 970.412 1682.155 969.403 C 1683.667 968.391 1684.547 966.675 1684.481 964.862 L 1683.857 946.937 C 1685.015 946.011 1686.163 945.079 1687.293 944.115 L 1704.732 948.206 C 1706.504 948.622 1708.373 948.105 1709.656 946.812 C 1710.945 945.526 1711.469 943.678 1711.053 941.924 L 1706.962 924.484 C 1707.919 923.351 1708.862 922.21 1709.784 921.045 L 1727.708 921.673 C 1729.515 921.745 1731.245 920.861 1732.25 919.346 C 1733.263 917.835 1733.419 915.91 1732.659 914.25 L 1725.24 897.989 C 1725.965 896.675 1726.675 895.358 1727.362 894.037 L 1745.009 891.166 C 1746.805 890.878 1748.317 889.679 1748.996 887.997 C 1749.69 886.323 1749.471 884.392 1748.407 882.935 L 1737.971 868.443 C 1738.422 867.011 1738.862 865.572 1739.281 864.109 L 1756.027 857.869 C 1757.73 857.231 1758.985 855.764 1759.331 853.986 C 1759.692 852.204 1759.096 850.38 1757.764 849.132 L 1744.659 836.928 C 1744.818 835.454 1744.964 833.97 1745.092 832.49 L 1760.313 823.06 C 1761.855 822.11 1762.795 820.421 1762.795 818.622 C 1762.795 816.822 1761.859 815.12 1760.316 814.149 L 1760.209 814.149 Z M 1658.277 940.696 C 1652.453 939.441 1648.778 933.693 1650.026 927.868 C 1651.271 922.044 1656.995 918.334 1662.819 919.582 C 1668.644 920.827 1672.354 926.585 1671.106 932.41 C 1669.857 938.235 1664.137 941.944 1658.312 940.696 L 1658.277 940.696 Z M 1653.112 905.679 C 1647.807 904.542 1642.572 907.919 1641.462 913.237 L 1636.054 938.477 C 1619.377 946.036 1600.69 950.265 1581.274 950.265 C 1561.304 950.265 1542.444 945.862 1525.455 937.957 L 1520.046 912.717 C 1518.909 907.413 1513.702 904.015 1508.397 905.159 L 1486.104 909.944 C 1481.978 905.679 1478.13 901.137 1474.593 896.353 L 1583.112 896.353 C 1584.339 896.353 1585.157 896.131 1585.157 895.015 L 1585.157 856.53 C 1585.157 855.414 1584.339 855.192 1583.112 855.192 L 1551.388 855.192 L 1551.388 830.888 L 1585.678 830.888 C 1588.808 830.888 1602.423 831.783 1606.757 849.194 C 1608.12 854.533 1611.126 871.938 1613.171 877.52 C 1615.21 883.761 1623.503 896.242 1632.344 896.242 L 1686.43 896.242 C 1687.044 896.242 1687.699 896.173 1688.389 896.048 C 1684.644 901.144 1680.519 905.964 1676.115 910.471 L 1653.302 905.582 L 1653.112 905.679 Z M 1502.989 940.176 C 1497.164 941.431 1491.443 937.722 1490.195 931.89 C 1488.95 926.065 1492.65 920.31 1498.481 919.062 C 1504.306 917.817 1510.027 921.527 1511.275 927.348 C 1512.519 933.173 1508.817 938.928 1502.989 940.176 Z M 1461.731 773.411 C 1464.144 778.855 1461.689 785.234 1456.253 787.661 C 1450.81 790.078 1444.465 787.619 1442.038 782.183 C 1439.611 776.747 1442.079 770.36 1447.516 767.934 C 1452.959 765.52 1459.304 767.975 1461.731 773.411 Z M 1449.076 803.367 L 1472.305 793.035 C 1477.263 790.833 1479.517 785.026 1477.298 780.068 L 1472.513 769.251 L 1491.305 769.251 L 1491.305 853.847 L 1453.514 853.847 C 1450.224 842.267 1448.452 830.063 1448.452 817.443 C 1448.452 812.624 1448.712 807.874 1449.211 803.193 L 1449.076 803.367 Z M 1551.007 795.15 L 1551.007 770.187 L 1595.732 770.187 C 1598.044 770.187 1612.062 772.86 1612.062 783.327 C 1612.062 792.029 1601.314 795.15 1592.473 795.15 L 1550.868 795.15 L 1551.007 795.15 Z M 1713.611 817.616 C 1713.611 820.931 1713.49 824.204 1713.247 827.463 L 1699.622 827.463 C 1698.259 827.463 1697.712 828.357 1697.712 829.692 L 1697.712 835.933 C 1697.712 850.633 1689.425 853.857 1682.145 854.655 C 1675.211 855.435 1667.548 851.756 1666.612 847.513 C 1662.521 824.526 1655.726 819.638 1644.978 811.109 C 1658.326 802.649 1672.194 790.133 1672.194 773.318 C 1672.194 755.255 1659.817 743.883 1651.392 738.301 C 1639.535 730.5 1626.429 728.94 1622.893 728.94 L 1482.131 728.94 C 1501.234 707.652 1527.202 692.536 1556.326 686.988 L 1572.933 704.393 C 1576.677 708.311 1582.883 708.484 1586.836 704.712 L 1605.419 686.961 C 1644.25 694.207 1677.187 718.407 1696.255 751.794 L 1683.531 780.502 C 1681.337 785.459 1683.576 791.284 1688.524 793.468 L 1713.001 804.355 C 1713.424 808.689 1713.646 813.092 1713.646 817.53 L 1713.611 817.616 Z M 1572.849 672.347 C 1577.149 668.221 1583.979 668.395 1588.07 672.697 C 1592.161 676.996 1592.022 683.826 1587.713 687.952 C 1583.414 692.078 1576.583 691.905 1572.492 687.599 C 1568.401 683.3 1568.54 676.469 1572.849 672.344 L 1572.849 672.347 Z M 1699.05 773.932 C 1701.46 768.488 1707.822 766.027 1713.265 768.454 C 1718.708 770.867 1721.17 777.26 1718.743 782.703 C 1716.333 788.146 1709.971 790.608 1704.528 788.181 C 1699.085 785.768 1696.623 779.375 1699.05 773.932 Z" style="fill: url(#gradient-29-0);">
      <title>rust logo</title>
    </path>
    <text style="fill: url(#gradient-2); font-family: &quot;Fira Mono&quot;, monospace; font-size: 82px; white-space: pre;" x="640.221" y="178.381"><title>text-l1</title>Using Rust to</text>
    <text style="fill: url(#gradient-29-3); font-family: &quot;Fira Mono&quot;, monospace; font-size: 82px; white-space: pre;" transform="matrix(1, 0, 0, 1, 395.277435, 50)"><title>text-l2</title><tspan x="23.556" y="278.021">Write a multi threaded</tspan><tspan x="23.556" dy="1em">​</tspan></text>
    <text style="fill: url(#gradient-29-4); font-family: &quot;Fira Mono&quot;, monospace; font-size: 82px; white-space: pre;" transform="matrix(1, 0, 0, 1, 567.464722, 50)"><title>text-l3</title><tspan x="23.556" y="278.021" dy="1em">​</tspan><tspan>non binary tree</tspan></text>
    <path d="M 912.155 674.064 L 1007.844 674.064 C 1011.809 674.064 1015.019 670.85 1015.019 666.885 L 1015.019 609.472 C 1015.019 605.507 1011.809 602.297 1007.844 602.297 L 912.155 602.297 C 908.19 602.297 904.98 605.507 904.98 609.472 L 904.98 666.885 C 904.98 670.85 908.19 674.064 912.155 674.064 Z M 919.33 616.651 L 1000.665 616.651 L 1000.665 659.709 L 919.33 659.709 L 919.33 616.651 Z M 857.134 829.56 L 857.134 772.144 C 857.134 768.182 853.921 764.969 849.956 764.969 L 792.543 764.969 C 788.578 764.969 785.368 768.182 785.368 772.144 L 785.368 829.56 C 785.368 833.522 788.578 836.735 792.543 836.735 L 849.956 836.735 C 853.921 836.735 857.134 833.522 857.134 829.56 Z M 842.78 822.385 L 799.721 822.385 L 799.721 779.326 L 842.78 779.326 L 842.78 822.385 Z M 931.293 764.969 C 927.332 764.969 924.118 768.182 924.118 772.144 L 924.118 829.56 C 924.118 833.522 927.332 836.735 931.293 836.735 L 988.709 836.735 C 992.671 836.735 995.885 833.522 995.885 829.56 L 995.885 772.144 C 995.885 768.182 992.671 764.969 988.709 764.969 L 931.293 764.969 Z M 981.531 822.381 L 938.472 822.381 L 938.472 779.323 L 981.531 779.323 L 981.531 822.381 Z M 919.332 927.64 L 861.919 927.64 C 857.958 927.64 854.744 930.853 854.744 934.818 L 854.744 992.231 C 854.744 996.196 857.958 999.406 861.919 999.406 L 919.332 999.406 C 923.297 999.406 926.511 996.196 926.511 992.231 L 926.511 934.818 C 926.511 930.853 923.297 927.64 919.332 927.64 Z M 912.157 985.056 L 869.098 985.056 L 869.098 941.998 L 912.157 941.998 L 912.157 985.056 Z M 1058.083 927.643 L 1000.67 927.643 L 1000.67 927.64 C 996.705 927.64 993.492 930.853 993.492 934.818 L 993.492 992.231 C 993.492 996.196 996.705 999.406 1000.67 999.406 L 1058.083 999.406 C 1062.045 999.406 1065.258 996.196 1065.258 992.231 L 1065.258 934.818 C 1065.258 930.853 1062.045 927.64 1058.083 927.64 L 1058.083 927.643 Z M 1050.905 985.056 L 1007.846 985.056 L 1007.846 941.998 L 1050.905 941.998 L 1050.905 985.056 Z M 1127.458 764.97 L 1070.045 764.97 C 1066.08 764.97 1062.866 768.184 1062.866 772.145 L 1062.866 829.562 C 1062.866 833.523 1066.08 836.737 1070.045 836.737 L 1127.458 836.737 C 1131.422 836.737 1134.633 833.523 1134.633 829.562 L 1134.633 772.145 C 1134.633 768.184 1131.422 764.97 1127.458 764.97 Z M 1120.282 822.383 L 1077.223 822.383 L 1077.223 779.325 L 1120.282 779.325 L 1120.282 822.383 Z M 814.076 748.223 L 814.076 719.518 C 814.076 715.553 817.29 712.339 821.255 712.339 L 952.828 712.339 L 952.828 690.809 C 952.828 686.848 956.038 683.634 960.003 683.634 C 963.968 683.634 967.178 686.848 967.178 690.809 L 967.178 712.339 L 1098.751 712.339 C 1102.716 712.339 1105.93 715.553 1105.93 719.518 L 1105.93 748.226 L 1105.93 748.223 C 1105.93 752.187 1102.716 755.401 1098.751 755.401 C 1094.79 755.401 1091.576 752.187 1091.576 748.223 L 1091.576 726.694 L 967.18 726.694 L 967.18 748.223 C 967.18 752.187 963.969 755.401 960.005 755.401 C 956.04 755.401 952.829 752.187 952.829 748.223 L 952.829 726.694 L 828.433 726.694 L 828.433 748.223 C 828.433 752.187 825.219 755.401 821.258 755.401 C 817.292 755.401 814.079 752.187 814.079 748.223 L 814.076 748.223 Z M 1022.2 889.365 L 897.804 889.365 L 897.804 910.894 C 897.804 914.855 894.591 918.069 890.629 918.069 C 886.664 918.069 883.451 914.855 883.451 910.894 L 883.451 882.186 C 883.451 878.224 886.664 875.01 890.629 875.01 L 952.828 875.01 L 952.828 853.481 C 952.828 849.516 956.039 846.302 960.003 846.302 C 963.968 846.302 967.179 849.516 967.179 853.481 L 967.179 875.01 L 1029.378 875.01 C 1033.342 875.01 1036.556 878.224 1036.556 882.186 L 1036.556 910.894 C 1036.556 914.855 1033.342 918.069 1029.378 918.069 C 1025.416 918.069 1022.202 914.855 1022.202 910.894 L 1022.2 889.365 Z" style="fill: url(#gradient-29-2);">
      <title>tree</title>
    </path>
    <g transform="matrix(1, 0, 0, 1, 2.080995, 4.070984)">
      <title>r3bl-terminal</title>
      <path d="M 444.95 715.929 L 239.696 715.929 C 231.277 715.954 223.208 719.311 217.253 725.264 C 211.301 731.219 207.944 739.287 207.919 747.706 L 207.919 876.158 C 207.944 884.577 211.301 892.646 217.253 898.601 C 223.208 904.553 231.277 907.91 239.696 907.935 L 444.95 907.935 C 453.369 907.91 461.437 904.553 467.392 898.601 C 473.345 892.646 476.702 884.577 476.727 876.158 L 476.727 747.706 C 476.702 739.287 473.345 731.219 467.392 725.264 C 461.437 719.311 453.369 715.954 444.95 715.929 Z M 331.381 819.611 L 280.981 858.012 C 279.268 859.232 277.226 859.901 275.123 859.933 C 272.119 859.957 269.275 858.57 267.443 856.19 C 265.875 854.158 265.185 851.581 265.527 849.041 C 265.871 846.497 267.219 844.196 269.266 842.652 L 309.684 811.931 L 269.266 781.21 C 266.523 779.119 265.103 775.721 265.545 772.299 C 265.984 768.877 268.216 765.949 271.402 764.619 C 274.583 763.29 278.235 763.759 280.981 765.851 L 331.381 804.251 C 333.799 806.065 335.221 808.911 335.221 811.931 C 335.221 814.954 333.799 817.799 331.381 819.611 Z M 409.528 859.933 L 350.774 859.933 C 347.345 859.933 344.176 858.103 342.461 855.133 C 340.746 852.163 340.746 848.503 342.461 845.533 C 344.176 842.563 347.345 840.732 350.774 840.732 L 409.528 840.732 C 412.958 840.732 416.127 842.563 417.842 845.533 C 419.556 848.503 419.556 852.163 417.842 855.133 C 416.127 858.103 412.958 859.933 409.528 859.933 Z" style="fill: url(#gradient-29-1);">
        <title>terminal</title>
      </path>
      <g transform="matrix(0.552355, 0, 0, 0.552355, -6.087463, 407.873383)" style="">
        <title>r3bl</title>
        <rect width="124.183" height="124.183" rx="20" style="fill: url(#gradient-1);" x="731.814" y="575.817"/>
        <rect x="742.377" y="586.381" width="51.528" height="51.528" style="" fill="#161616"/>
        <path fill-rule="evenodd" clip-rule="evenodd" d="M 769.624 600.551 L 779.735 600.551 L 779.735 606.4 L 779.735 610.619 C 783.428 609.694 786.176 606.201 786.176 602.319 C 786.176 597.785 782.427 594.11 777.803 594.11 C 773.798 594.11 770.449 596.867 769.624 600.551 Z" style="" fill="white"/>
        <path fill-rule="evenodd" clip-rule="evenodd" d="M 769.76 611.849 C 770.771 615.347 773.989 618.071 777.803 618.071 C 782.427 618.071 786.176 614.067 786.176 609.533 C 786.176 605.651 783.428 602.399 779.735 601.543 L 779.735 611.849 L 769.76 611.849 Z" style="" fill="white"/>
        <rect x="750.107" y="594.11" width="6.441" height="36.07" style="" fill="white"/>
        <rect x="779.735" y="601.839" width="6.441" height="7.987" style="" fill="white"/>
        <path fill-rule="evenodd" clip-rule="evenodd" d="M 750.107 600.551 L 750.107 594.11 L 778.576 594.11 L 778.576 600.551 L 750.107 600.551 Z" style="" fill="white"/>
        <path fill-rule="evenodd" clip-rule="evenodd" d="M 750.107 618.071 L 750.107 611.629 L 778.576 611.629 L 778.576 618.071 L 750.107 618.071 Z" style="" fill="white"/>
        <path fill-rule="evenodd" clip-rule="evenodd" d="M 776.234 614.258 L 770.771 617.671 L 778.588 630.18 L 786.183 630.18 L 776.234 614.258 Z" style="" fill="white"/>
        <path fill-rule="evenodd" clip-rule="evenodd" d="M 779.993 600.293 L 775.871 600.293 L 775.871 600.551 C 778.005 600.551 779.735 602.281 779.735 604.416 L 779.993 604.416 L 779.993 600.293 Z" style="" fill="white"/>
        <path fill-rule="evenodd" clip-rule="evenodd" d="M 779.993 611.887 L 775.871 611.887 L 775.871 611.629 C 778.005 611.629 779.735 609.899 779.735 607.765 L 779.993 607.765 L 779.993 611.887 Z" style="" fill="white"/>
        <rect x="793.648" y="586.381" width="51.528" height="51.528" style="" fill="#161616"/>
        <path fill-rule="evenodd" clip-rule="evenodd" d="M 837.447 602.483 C 837.447 607.108 833.647 610.857 828.96 610.857 C 827.297 610.857 825.745 610.384 824.435 609.568 L 831.006 609.568 L 831.006 600.551 L 820.7 600.551 C 821.585 596.858 824.947 594.11 828.96 594.11 C 833.647 594.11 837.447 597.859 837.447 602.483 Z" style="" fill="white"/>
        <path fill-rule="evenodd" clip-rule="evenodd" d="M 837.447 606.863 C 837.447 611.488 833.698 615.236 829.074 615.236 C 825.69 615.236 822.775 613.23 821.455 610.341 L 831.245 610.341 L 831.245 599.52 L 825.046 599.52 C 826.241 598.863 827.614 598.49 829.074 598.49 C 833.698 598.49 837.447 602.239 837.447 606.863 Z" style="" fill="white"/>
        <path fill-rule="evenodd" clip-rule="evenodd" d="M 837.447 617.426 C 837.447 622.051 833.647 625.8 828.96 625.8 C 827.297 625.8 825.745 625.328 824.435 624.512 L 831.072 624.512 L 831.072 615.236 L 820.767 615.236 C 821.742 611.674 825.041 609.053 828.96 609.053 C 833.647 609.053 837.447 612.802 837.447 617.426 Z" style="" fill="white"/>
        <path fill-rule="evenodd" clip-rule="evenodd" d="M 837.447 621.806 C 837.447 626.431 833.698 630.18 829.074 630.18 C 825.69 630.18 822.775 628.173 821.455 625.285 L 832.018 625.285 L 832.018 614.464 L 825.046 614.464 C 826.241 613.807 827.614 613.433 829.074 613.433 C 833.698 613.433 837.447 617.182 837.447 621.806 Z" style="" fill="white"/>
        <rect x="831.006" y="602.612" width="6.441" height="3.865" style="" fill="white"/>
        <path fill-rule="evenodd" clip-rule="evenodd" d="M 831.006 617.555 L 837.447 617.555 L 837.447 621.935 L 831.006 621.935 L 831.006 618.972 L 831.006 617.555 Z" style="" fill="white"/>
        <rect x="809.107" y="594.11" width="19.838" height="6.441" style="" fill="white"/>
        <rect x="809.107" y="623.739" width="20.611" height="6.441" style="" fill="white"/>
        <rect x="812.971" y="608.795" width="16.747" height="6.441" style="" fill="white"/>
        <path fill-rule="evenodd" clip-rule="evenodd" d="M 811.683 600.554 C 811.64 600.552 811.597 600.551 811.554 600.551 C 810.334 600.551 809.322 601.444 809.137 602.612 L 801.378 602.612 C 801.378 602.569 801.377 602.526 801.377 602.483 C 801.377 597.859 805.126 594.11 809.751 594.11 C 813.71 594.11 817.028 596.858 817.9 600.551 L 811.683 600.551 L 811.683 600.554 Z" style="" fill="white"/>
        <path fill-rule="evenodd" clip-rule="evenodd" d="M 811.683 623.735 C 811.64 623.738 811.597 623.739 811.554 623.739 C 810.334 623.739 809.322 622.846 809.137 621.678 L 801.378 621.678 C 801.378 621.72 801.377 621.763 801.377 621.806 C 801.377 626.431 805.126 630.18 809.751 630.18 C 813.71 630.18 817.028 627.431 817.9 623.739 L 811.683 623.739 L 811.683 623.735 Z" style="" fill="white"/>
        <path fill-rule="evenodd" clip-rule="evenodd" d="M 831.006 600.164 L 827.141 600.164 L 827.141 600.551 C 829.276 600.551 831.006 602.281 831.006 604.416 L 831.006 600.164 Z" style="" fill="white"/>
        <path fill-rule="evenodd" clip-rule="evenodd" d="M 831.006 609.697 L 827.141 609.697 L 827.141 608.795 C 829.276 608.795 831.006 607.065 831.006 604.931 L 831.006 609.697 Z" style="" fill="white"/>
        <path fill-rule="evenodd" clip-rule="evenodd" d="M 827.141 615.236 L 831.264 615.236 L 831.264 619.101 L 831.006 619.101 C 831.006 616.967 829.276 615.236 827.141 615.236 Z" style="" fill="white"/>
        <path fill-rule="evenodd" clip-rule="evenodd" d="M 831.264 624.64 L 827.141 624.64 L 827.141 623.739 C 829.276 623.739 831.006 622.008 831.006 619.874 L 831.264 619.874 L 831.264 624.64 Z" style="" fill="white"/>
        <rect x="742.377" y="637.651" width="51.528" height="51.528" style="" fill="#161616"/>
        <rect x="749.591" y="645.381" width="6.441" height="36.07" style="" fill="white"/>
        <rect x="44.83" y="69.563" width="6.441" height="27.052" transform="matrix(0, 1, -1, 0, 846.207336, 600.550903)" style="" fill="white"/>
        <rect x="44.314" y="84.378" width="6.441" height="26.408" transform="matrix(0, 1, -1, 0, 860.506409, 615.880615)" style="" fill="white"/>
        <rect x="45.603" y="99.192" width="6.441" height="27.825" transform="matrix(0, 1, -1, 0, 876.608948, 629.406738)" style="" fill="white"/>
        <path fill-rule="evenodd" clip-rule="evenodd" d="M 785.661 669.212 C 785.661 673.837 781.912 677.586 777.288 677.586 C 774.913 677.586 772.769 676.597 771.246 675.009 L 779.924 675.009 L 779.924 670.243 L 779.924 666.507 L 769.361 666.507 C 770.486 663.21 773.61 660.839 777.288 660.839 C 781.912 660.839 785.661 664.588 785.661 669.212 Z" style="" fill="white"/>
        <path fill-rule="evenodd" clip-rule="evenodd" d="M 785.661 673.077 C 785.661 677.701 781.907 681.45 777.275 681.45 C 773.31 681.45 769.988 678.702 769.114 675.009 L 779.214 675.009 L 779.214 665.992 L 772.805 665.992 C 774.099 665.176 775.632 664.704 777.275 664.704 C 781.907 664.704 785.661 668.453 785.661 673.077 Z" style="" fill="white"/>
        <path fill-rule="evenodd" clip-rule="evenodd" d="M 785.661 653.754 C 785.661 658.378 781.907 662.127 777.275 662.127 C 775.238 662.127 773.37 661.401 771.917 660.195 L 779.935 660.195 L 779.935 651.822 L 769.114 651.822 C 769.988 648.129 773.31 645.381 777.275 645.381 C 781.907 645.381 785.661 649.129 785.661 653.754 Z" style="" fill="white"/>
        <path fill-rule="evenodd" clip-rule="evenodd" d="M 785.68 658.134 C 785.68 662.758 781.931 666.507 777.306 666.507 C 773.923 666.507 771.008 664.5 769.687 661.612 L 779.22 661.612 L 779.22 651.822 L 771.804 651.822 C 773.276 650.538 775.2 649.76 777.306 649.76 C 781.931 649.76 785.68 653.509 785.68 658.134 Z" style="" fill="white"/>
        <path fill-rule="evenodd" clip-rule="evenodd" d="M 779.891 651.564 L 775.253 651.564 L 775.253 651.823 C 775.287 651.822 775.321 651.822 775.355 651.822 C 777.49 651.822 779.22 653.552 779.22 655.686 L 779.891 655.686 L 779.891 651.564 Z" style="" fill="white"/>
        <path fill-rule="evenodd" clip-rule="evenodd" d="M 779.22 656.33 C 779.22 658.465 777.49 660.195 775.355 660.195 L 775.355 660.581 L 779.478 660.581 L 779.478 656.202 L 779.218 656.202 C 779.219 656.244 779.22 656.287 779.22 656.33 Z" style="" fill="white"/>
        <path fill-rule="evenodd" clip-rule="evenodd" d="M 779.891 666.507 L 775.253 666.507 L 775.253 666.637 C 775.287 666.637 775.321 666.636 775.355 666.636 C 777.447 666.636 779.15 668.297 779.218 670.372 L 779.891 670.372 L 779.891 666.507 Z" style="" fill="white"/>
        <path fill-rule="evenodd" clip-rule="evenodd" d="M 779.22 671.145 C 779.22 673.279 777.49 675.009 775.355 675.009 L 775.355 675.525 L 779.478 675.525 L 779.478 671.145 L 779.22 671.145 Z" style="" fill="white"/>
        <rect x="779.22" y="653.883" width="6.441" height="4.638" style="" fill="white"/>
        <rect x="779.735" y="669.084" width="5.926" height="4.38" style="" fill="white"/>
        <rect x="793.648" y="637.651" width="51.528" height="51.528" style="" fill="#161616"/>
        <rect x="801.377" y="645.381" width="6.441" height="36.07" style="" fill="white"/>
        <rect x="105.652" y="99.217" width="6.441" height="36.07" transform="matrix(0, 1, -1, 0, 936.683533, 569.381653)" style="" fill="white"/>
      </g>
    </g>
  </g>
</svg>