<svg width="1920" height="1080" viewBox="0 0 1920 1080" fill="none" xmlns="http://www.w3.org/2000/svg">
<g clip-path="url(#clip0_1295_61)">
<path d="M1920 0H0V1080H1920V0Z" fill="url(#paint0_linear_1295_61)" fill-opacity="0.5"/>
<path d="M178.384 167.951C178.384 169.673 178.671 170.93 179.245 171.723C179.819 172.516 180.707 173.103 181.91 173.486L180.229 178.324C178.37 178.078 176.744 177.49 175.35 176.561C173.956 175.604 172.944 174.169 172.316 172.256C170.758 174.251 168.817 175.768 166.494 176.807C164.17 177.818 161.601 178.324 158.786 178.324C154.467 178.324 151.064 177.108 148.577 174.675C146.089 172.242 144.846 169.017 144.846 164.999C144.846 160.544 146.581 157.127 150.053 154.749C153.524 152.371 158.54 151.182 165.1 151.182H171.455V147.574C171.455 144.458 170.539 142.258 168.708 140.973C166.904 139.661 164.389 139.005 161.164 139.005C159.742 139.005 158.075 139.183 156.162 139.538C154.248 139.866 152.171 140.426 149.93 141.219L148.126 136.012C150.777 135.028 153.264 134.331 155.588 133.921C157.911 133.511 160.125 133.306 162.23 133.306C167.614 133.306 171.646 134.563 174.325 137.078C177.031 139.565 178.384 142.955 178.384 147.246V167.951ZM160.549 173.076C162.681 173.076 164.717 172.543 166.658 171.477C168.598 170.384 170.197 168.88 171.455 166.967V155.856H165.223C160.467 155.856 157.105 156.676 155.137 158.316C153.196 159.956 152.226 162.156 152.226 164.917C152.226 167.596 152.909 169.632 154.276 171.026C155.67 172.393 157.761 173.076 160.549 173.076ZM211.315 172.625C214.623 172.625 217.233 172.01 219.146 170.78C221.087 169.523 222.057 167.855 222.057 165.778C222.057 164.466 221.811 163.332 221.319 162.375C220.855 161.418 219.884 160.557 218.408 159.792C216.932 159.027 214.664 158.261 211.602 157.496C208.623 156.758 206.026 155.911 203.812 154.954C201.626 153.97 199.917 152.699 198.687 151.141C197.485 149.583 196.883 147.56 196.883 145.073C196.883 142.64 197.567 140.549 198.933 138.8C200.327 137.023 202.254 135.67 204.714 134.741C207.174 133.784 210.031 133.306 213.283 133.306C216.755 133.306 219.775 133.771 222.344 134.7C224.941 135.602 227.141 136.723 228.945 138.062L225.911 142.736C224.271 141.615 222.467 140.7 220.499 139.989C218.531 139.251 216.153 138.882 213.365 138.882C209.976 138.882 207.571 139.415 206.149 140.481C204.728 141.52 204.017 142.873 204.017 144.54C204.017 145.797 204.359 146.85 205.042 147.697C205.753 148.517 206.942 149.269 208.609 149.952C210.277 150.608 212.573 151.332 215.497 152.125C218.313 152.863 220.759 153.751 222.836 154.79C224.941 155.829 226.581 157.195 227.756 158.89C228.932 160.585 229.519 162.771 229.519 165.45C229.519 168.511 228.645 170.999 226.895 172.912C225.146 174.798 222.877 176.178 220.089 177.053C217.329 177.9 214.404 178.324 211.315 178.324C207.407 178.324 204.072 177.764 201.311 176.643C198.578 175.495 196.282 174.115 194.423 172.502L198.359 167.951C200.054 169.345 201.995 170.479 204.181 171.354C206.395 172.201 208.773 172.625 211.315 172.625ZM281.721 134.208L266.551 177.668C265.54 180.593 264.255 183.271 262.697 185.704C261.167 188.137 259.158 190.146 256.67 191.731C254.21 193.344 251.081 194.341 247.281 194.724L246.215 189.23C249.195 188.738 251.545 187.986 253.267 186.975C254.989 185.964 256.342 184.665 257.326 183.08C258.338 181.495 259.226 179.595 259.991 177.381H257.695L242.607 134.208H249.987L262.369 172.133L274.587 134.208H281.721ZM294.973 177.381V134.208H300.836L301.369 140.194C303.119 137.98 305.305 136.285 307.929 135.11C310.581 133.907 313.15 133.306 315.637 133.306C319.874 133.306 322.949 134.427 324.862 136.668C326.803 138.909 327.773 142.025 327.773 146.016V177.381H320.885V151.1C320.885 148.148 320.721 145.77 320.393 143.966C320.065 142.135 319.382 140.809 318.343 139.989C317.305 139.142 315.692 138.718 313.505 138.718C311.811 138.718 310.212 139.087 308.708 139.825C307.232 140.563 305.907 141.492 304.731 142.613C303.583 143.706 302.627 144.813 301.861 145.934V177.381H294.973ZM363.657 172.379C365.817 172.379 367.826 172.024 369.684 171.313C371.57 170.602 373.306 169.7 374.891 168.607L378.253 173.117C376.367 174.73 374.099 176.001 371.447 176.93C368.796 177.859 366.199 178.324 363.657 178.324C359.366 178.324 355.703 177.408 352.669 175.577C349.663 173.718 347.367 171.122 345.781 167.787C344.196 164.425 343.403 160.489 343.403 155.979C343.403 151.66 344.196 147.793 345.781 144.376C347.394 140.932 349.704 138.226 352.71 136.258C355.744 134.29 359.421 133.306 363.739 133.306C366.5 133.306 369.083 133.73 371.488 134.577C373.921 135.397 376.149 136.641 378.171 138.308L374.809 142.9C372.978 141.615 371.133 140.659 369.274 140.03C367.443 139.374 365.571 139.046 363.657 139.046C359.94 139.046 356.879 140.44 354.473 143.228C352.068 146.016 350.865 150.266 350.865 155.979C350.865 159.806 351.412 162.935 352.505 165.368C353.626 167.773 355.143 169.55 357.056 170.698C358.997 171.819 361.197 172.379 363.657 172.379ZM409.668 163.892C411.554 163.892 413.126 164.534 414.383 165.819C415.668 167.104 416.31 168.648 416.31 170.452C416.31 171.436 416.187 172.434 415.941 173.445C415.723 174.456 415.313 175.604 414.711 176.889L408.069 192.1H401.837L405.773 175.905C404.953 175.304 404.297 174.525 403.805 173.568C403.341 172.584 403.108 171.545 403.108 170.452C403.108 168.621 403.737 167.076 404.994 165.819C406.252 164.534 407.81 163.892 409.668 163.892ZM491.645 177.381V134.208H497.508L498.041 140.194C499.791 137.98 501.977 136.285 504.601 135.11C507.253 133.907 509.822 133.306 512.309 133.306C516.546 133.306 519.621 134.427 521.534 136.668C523.475 138.909 524.445 142.025 524.445 146.016V177.381H517.557V151.1C517.557 148.148 517.393 145.77 517.065 143.966C516.737 142.135 516.054 140.809 515.015 139.989C513.977 139.142 512.364 138.718 510.177 138.718C508.483 138.718 506.884 139.087 505.38 139.825C503.904 140.563 502.579 141.492 501.403 142.613C500.255 143.706 499.299 144.813 498.533 145.934V177.381H491.645ZM557.254 133.306C561.327 133.306 564.73 134.235 567.463 136.094C570.224 137.925 572.288 140.522 573.654 143.884C575.048 147.246 575.745 151.209 575.745 155.774C575.745 160.175 575.035 164.07 573.613 167.459C572.192 170.848 570.101 173.513 567.34 175.454C564.607 177.367 561.218 178.324 557.172 178.324C553.127 178.324 549.724 177.395 546.963 175.536C544.203 173.677 542.112 171.067 540.69 167.705C539.296 164.316 538.599 160.366 538.599 155.856C538.599 151.401 539.31 147.478 540.731 144.089C542.153 140.7 544.244 138.062 547.004 136.176C549.792 134.263 553.209 133.306 557.254 133.306ZM557.254 138.923C553.537 138.923 550.722 140.303 548.808 143.064C546.922 145.797 545.979 150.061 545.979 155.856C545.979 161.541 546.909 165.764 548.767 168.525C550.653 171.286 553.455 172.666 557.172 172.666C560.89 172.666 563.678 171.286 565.536 168.525C567.422 165.764 568.365 161.514 568.365 155.774C568.365 150.034 567.436 145.797 565.577 143.064C563.719 140.303 560.944 138.923 557.254 138.923ZM589.981 177.381V134.208H595.844L596.377 140.194C598.127 137.98 600.313 136.285 602.937 135.11C605.589 133.907 608.158 133.306 610.645 133.306C614.882 133.306 617.957 134.427 619.87 136.668C621.811 138.909 622.781 142.025 622.781 146.016V177.381H615.893V151.1C615.893 148.148 615.729 145.77 615.401 143.966C615.073 142.135 614.39 140.809 613.351 139.989C612.313 139.142 610.7 138.718 608.513 138.718C606.819 138.718 605.22 139.087 603.716 139.825C602.24 140.563 600.915 141.492 599.739 142.613C598.591 143.706 597.635 144.813 596.869 145.934V177.381H589.981ZM639.067 157.988V152.002H671.949V157.988H639.067ZM695.205 139.825C696.791 137.748 698.608 136.149 700.658 135.028C702.736 133.88 705.018 133.306 707.505 133.306C711.359 133.306 714.475 134.235 716.853 136.094C719.231 137.953 720.967 140.577 722.06 143.966C723.154 147.328 723.7 151.264 723.7 155.774C723.7 160.12 723.044 164.001 721.732 167.418C720.42 170.807 718.493 173.472 715.951 175.413C713.437 177.354 710.321 178.324 706.603 178.324C701.601 178.324 697.679 176.52 694.836 172.912L694.344 177.381H688.317V116.824L695.205 115.963V139.825ZM704.963 172.748C708.571 172.748 711.346 171.354 713.286 168.566C715.227 165.778 716.197 161.5 716.197 155.733C716.197 151.961 715.815 148.831 715.049 146.344C714.284 143.829 713.136 141.957 711.605 140.727C710.102 139.47 708.243 138.841 706.029 138.841C703.624 138.841 701.506 139.565 699.674 141.014C697.87 142.435 696.381 144.021 695.205 145.77V167.172C696.326 168.867 697.734 170.22 699.428 171.231C701.15 172.242 702.995 172.748 704.963 172.748ZM754.295 116.824V166.721C754.295 168.853 754.951 170.37 756.263 171.272C757.602 172.147 759.324 172.584 761.429 172.584C762.741 172.584 763.985 172.447 765.16 172.174C766.335 171.901 767.511 171.532 768.686 171.067L770.531 176.11C769.356 176.684 767.893 177.19 766.144 177.627C764.422 178.092 762.468 178.324 760.281 178.324C756.454 178.324 753.352 177.272 750.974 175.167C748.596 173.035 747.407 170.097 747.407 166.352V122.277H734.164V116.824H754.295ZM803.094 133.306C807.167 133.306 810.57 134.235 813.303 136.094C816.064 137.925 818.127 140.522 819.494 143.884C820.888 147.246 821.585 151.209 821.585 155.774C821.585 160.175 820.874 164.07 819.453 167.459C818.032 170.848 815.941 173.513 813.18 175.454C810.447 177.367 807.057 178.324 803.012 178.324C798.967 178.324 795.564 177.395 792.803 175.536C790.042 173.677 787.951 171.067 786.53 167.705C785.136 164.316 784.439 160.366 784.439 155.856C784.439 151.401 785.15 147.478 786.571 144.089C787.992 140.7 790.083 138.062 792.844 136.176C795.632 134.263 799.049 133.306 803.094 133.306ZM803.094 138.923C799.377 138.923 796.561 140.303 794.648 143.064C792.762 145.797 791.819 150.061 791.819 155.856C791.819 161.541 792.748 165.764 794.607 168.525C796.493 171.286 799.295 172.666 803.012 172.666C806.729 172.666 809.517 171.286 811.376 168.525C813.262 165.764 814.205 161.514 814.205 155.774C814.205 150.034 813.276 145.797 811.417 143.064C809.558 140.303 806.784 138.923 803.094 138.923ZM855.337 172.379C857.496 172.379 859.505 172.024 861.364 171.313C863.25 170.602 864.986 169.7 866.571 168.607L869.933 173.117C868.047 174.73 865.778 176.001 863.127 176.93C860.476 177.859 857.879 178.324 855.337 178.324C851.046 178.324 847.383 177.408 844.349 175.577C841.342 173.718 839.046 171.122 837.461 167.787C835.876 164.425 835.083 160.489 835.083 155.979C835.083 151.66 835.876 147.793 837.461 144.376C839.074 140.932 841.383 138.226 844.39 136.258C847.424 134.29 851.1 133.306 855.419 133.306C858.18 133.306 860.763 133.73 863.168 134.577C865.601 135.397 867.828 136.641 869.851 138.308L866.489 142.9C864.658 141.615 862.813 140.659 860.954 140.03C859.123 139.374 857.25 139.046 855.337 139.046C851.62 139.046 848.558 140.44 846.153 143.228C843.748 146.016 842.545 150.266 842.545 155.979C842.545 159.806 843.092 162.935 844.185 165.368C845.306 167.773 846.823 169.55 848.736 170.698C850.677 171.819 852.877 172.379 855.337 172.379ZM921.151 134.208L901.717 153.642L923.406 177.381H914.345L893.107 153.806L912.213 134.208H921.151ZM892.328 115.963V177.381H885.44V116.824L892.328 115.963ZM956.01 134.208V171.928H968.187V177.381H935.797V171.928H949.122V139.661H936.207V134.208H956.01ZM950.516 113.995C952.047 113.995 953.263 114.46 954.165 115.389C955.094 116.318 955.559 117.453 955.559 118.792C955.559 120.186 955.094 121.361 954.165 122.318C953.263 123.247 952.047 123.712 950.516 123.712C949.067 123.712 947.878 123.247 946.949 122.318C946.02 121.361 945.555 120.186 945.555 118.792C945.555 117.453 946.02 116.318 946.949 115.389C947.878 114.46 949.067 113.995 950.516 113.995ZM983.325 177.381V134.208H989.188L989.721 140.194C991.47 137.98 993.657 136.285 996.281 135.11C998.932 133.907 1001.5 133.306 1003.99 133.306C1008.23 133.306 1011.3 134.427 1013.21 136.668C1015.15 138.909 1016.12 142.025 1016.12 146.016V177.381H1009.24V151.1C1009.24 148.148 1009.07 145.77 1008.74 143.966C1008.42 142.135 1007.73 140.809 1006.69 139.989C1005.66 139.142 1004.04 138.718 1001.86 138.718C1000.16 138.718 998.563 139.087 997.06 139.825C995.584 140.563 994.258 141.492 993.083 142.613C991.935 143.706 990.978 144.813 990.213 145.934V177.381H983.325ZM1067.59 129.616L1069.72 136.094C1067.89 136.668 1065.94 137.023 1063.86 137.16C1061.78 137.297 1059.53 137.365 1057.09 137.365C1059.58 138.513 1061.45 140.003 1062.71 141.834C1063.97 143.638 1064.6 145.77 1064.6 148.23C1064.6 151.073 1063.95 153.601 1062.67 155.815C1061.38 158.029 1059.53 159.765 1057.09 161.022C1054.69 162.279 1051.78 162.908 1048.36 162.908C1046.91 162.908 1045.69 162.84 1044.71 162.703C1043.75 162.566 1042.82 162.361 1041.92 162.088C1041.27 162.525 1040.72 163.127 1040.28 163.892C1039.87 164.657 1039.67 165.45 1039.67 166.27C1039.67 167.309 1040.08 168.17 1040.9 168.853C1041.72 169.536 1043.23 169.878 1045.45 169.878H1053.24C1056.14 169.878 1058.73 170.397 1061.03 171.436C1063.35 172.475 1065.17 173.869 1066.48 175.618C1067.82 177.367 1068.49 179.363 1068.49 181.604C1068.49 185.841 1066.69 189.093 1063.08 191.362C1059.5 193.631 1054.43 194.765 1047.87 194.765C1043.28 194.765 1039.65 194.287 1037 193.33C1034.35 192.401 1032.45 190.966 1031.3 189.025C1030.18 187.112 1029.62 184.693 1029.62 181.768H1035.85C1035.85 183.435 1036.18 184.816 1036.84 185.909C1037.49 187.002 1038.68 187.809 1040.41 188.328C1042.13 188.875 1044.6 189.148 1047.83 189.148C1051 189.148 1053.58 188.875 1055.58 188.328C1057.6 187.809 1059.09 187.016 1060.04 185.95C1061.03 184.911 1061.52 183.613 1061.52 182.055C1061.52 180.005 1060.59 178.461 1058.73 177.422C1056.87 176.383 1054.55 175.864 1051.76 175.864H1044.05C1040.34 175.864 1037.59 175.044 1035.81 173.404C1034.06 171.764 1033.19 169.878 1033.19 167.746C1033.19 166.352 1033.59 164.999 1034.38 163.687C1035.2 162.375 1036.39 161.213 1037.95 160.202C1035.46 158.89 1033.63 157.264 1032.45 155.323C1031.28 153.382 1030.69 151.032 1030.69 148.271C1030.69 145.346 1031.41 142.763 1032.86 140.522C1034.31 138.253 1036.33 136.477 1038.93 135.192C1041.53 133.907 1044.52 133.265 1047.91 133.265C1051.54 133.238 1054.5 133.087 1056.76 132.814C1059.03 132.513 1060.97 132.09 1062.59 131.543C1064.23 130.996 1065.89 130.354 1067.59 129.616ZM1047.91 138.308C1044.44 138.308 1041.87 139.251 1040.2 141.137C1038.56 142.996 1037.74 145.374 1037.74 148.271C1037.74 151.196 1038.59 153.601 1040.28 155.487C1041.98 157.373 1044.57 158.316 1048.07 158.316C1051.13 158.316 1053.46 157.428 1055.04 155.651C1056.66 153.874 1057.46 151.401 1057.46 148.23C1057.46 144.977 1056.66 142.517 1055.04 140.85C1053.46 139.155 1051.08 138.308 1047.91 138.308ZM1098.02 163.892C1099.91 163.892 1101.48 164.534 1102.73 165.819C1104.02 167.104 1104.66 168.648 1104.66 170.452C1104.66 171.436 1104.54 172.434 1104.29 173.445C1104.07 174.456 1103.66 175.604 1103.06 176.889L1096.42 192.1H1090.19L1094.12 175.905C1093.3 175.304 1092.65 174.525 1092.16 173.568C1091.69 172.584 1091.46 171.545 1091.46 170.452C1091.46 168.621 1092.09 167.076 1093.35 165.819C1094.6 164.534 1096.16 163.892 1098.02 163.892ZM1199.51 172.379C1201.67 172.379 1203.68 172.024 1205.54 171.313C1207.43 170.602 1209.16 169.7 1210.75 168.607L1214.11 173.117C1212.22 174.73 1209.95 176.001 1207.3 176.93C1204.65 177.859 1202.05 178.324 1199.51 178.324C1195.22 178.324 1191.56 177.408 1188.52 175.577C1185.52 173.718 1183.22 171.122 1181.64 167.787C1180.05 164.425 1179.26 160.489 1179.26 155.979C1179.26 151.66 1180.05 147.793 1181.64 144.376C1183.25 140.932 1185.56 138.226 1188.57 136.258C1191.6 134.29 1195.28 133.306 1199.59 133.306C1202.36 133.306 1204.94 133.73 1207.34 134.577C1209.78 135.397 1212 136.641 1214.03 138.308L1210.66 142.9C1208.83 141.615 1206.99 140.659 1205.13 140.03C1203.3 139.374 1201.43 139.046 1199.51 139.046C1195.8 139.046 1192.73 140.44 1190.33 143.228C1187.92 146.016 1186.72 150.266 1186.72 155.979C1186.72 159.806 1187.27 162.935 1188.36 165.368C1189.48 167.773 1191 169.55 1192.91 170.698C1194.85 171.819 1197.05 172.379 1199.51 172.379ZM1245.61 133.306C1249.68 133.306 1253.08 134.235 1255.81 136.094C1258.58 137.925 1260.64 140.522 1262.01 143.884C1263.4 147.246 1264.1 151.209 1264.1 155.774C1264.1 160.175 1263.39 164.07 1261.96 167.459C1260.54 170.848 1258.45 173.513 1255.69 175.454C1252.96 177.367 1249.57 178.324 1245.52 178.324C1241.48 178.324 1238.08 177.395 1235.31 175.536C1232.55 173.677 1230.46 171.067 1229.04 167.705C1227.65 164.316 1226.95 160.366 1226.95 155.856C1226.95 151.401 1227.66 147.478 1229.08 144.089C1230.5 140.7 1232.6 138.062 1235.36 136.176C1238.14 134.263 1241.56 133.306 1245.61 133.306ZM1245.61 138.923C1241.89 138.923 1239.07 140.303 1237.16 143.064C1235.27 145.797 1234.33 150.061 1234.33 155.856C1234.33 161.541 1235.26 165.764 1237.12 168.525C1239 171.286 1241.81 172.666 1245.52 172.666C1249.24 172.666 1252.03 171.286 1253.89 168.525C1255.77 165.764 1256.72 161.514 1256.72 155.774C1256.72 150.034 1255.79 145.797 1253.93 143.064C1252.07 140.303 1249.3 138.923 1245.61 138.923ZM1278.33 177.381V134.208H1284.2L1284.73 140.194C1286.48 137.98 1288.66 136.285 1291.29 135.11C1293.94 133.907 1296.51 133.306 1299 133.306C1303.23 133.306 1306.31 134.427 1308.22 136.668C1310.16 138.909 1311.13 142.025 1311.13 146.016V177.381H1304.24V151.1C1304.24 148.148 1304.08 145.77 1303.75 143.966C1303.42 142.135 1302.74 140.809 1301.7 139.989C1300.66 139.142 1299.05 138.718 1296.86 138.718C1295.17 138.718 1293.57 139.087 1292.07 139.825C1290.59 140.563 1289.27 141.492 1288.09 142.613C1286.94 143.706 1285.99 144.813 1285.22 145.934V177.381H1278.33ZM1347.02 172.379C1349.18 172.379 1351.19 172.024 1353.04 171.313C1354.93 170.602 1356.67 169.7 1358.25 168.607L1361.61 173.117C1359.73 174.73 1357.46 176.001 1354.81 176.93C1352.16 177.859 1349.56 178.324 1347.02 178.324C1342.73 178.324 1339.06 177.408 1336.03 175.577C1333.02 173.718 1330.73 171.122 1329.14 167.787C1327.56 164.425 1326.76 160.489 1326.76 155.979C1326.76 151.66 1327.56 147.793 1329.14 144.376C1330.75 140.932 1333.06 138.226 1336.07 136.258C1339.1 134.29 1342.78 133.306 1347.1 133.306C1349.86 133.306 1352.44 133.73 1354.85 134.577C1357.28 135.397 1359.51 136.641 1361.53 138.308L1358.17 142.9C1356.34 141.615 1354.49 140.659 1352.63 140.03C1350.8 139.374 1348.93 139.046 1347.02 139.046C1343.3 139.046 1340.24 140.44 1337.83 143.228C1335.43 146.016 1334.22 150.266 1334.22 155.979C1334.22 159.806 1334.77 162.935 1335.86 165.368C1336.99 167.773 1338.5 169.55 1340.42 170.698C1342.36 171.819 1344.56 172.379 1347.02 172.379ZM1383.56 134.208V164.794C1383.56 167.637 1384.14 169.687 1385.32 170.944C1386.5 172.201 1388.33 172.83 1390.81 172.83C1393.19 172.83 1395.43 172.16 1397.54 170.821C1399.67 169.454 1401.32 167.842 1402.5 165.983V134.208H1409.39V177.381H1403.52L1402.95 171.559C1401.26 173.746 1399.16 175.427 1396.68 176.602C1394.19 177.75 1391.67 178.324 1389.13 178.324C1384.95 178.324 1381.82 177.217 1379.74 175.003C1377.69 172.762 1376.67 169.632 1376.67 165.614V134.208H1383.56ZM1426.25 177.381V172.092H1432.97V139.497H1426.25V134.208H1438.22L1439.49 144.417C1441.16 140.864 1443.18 138.117 1445.56 136.176C1447.94 134.235 1451.08 133.265 1454.99 133.265C1456.19 133.265 1457.26 133.361 1458.19 133.552C1459.14 133.716 1460.11 133.935 1461.1 134.208L1459.09 140.358C1458.19 140.112 1457.37 139.934 1456.63 139.825C1455.89 139.688 1455.04 139.62 1454.09 139.62C1450.78 139.62 1447.94 140.795 1445.56 143.146C1443.18 145.497 1441.28 149.05 1439.86 153.806V172.092H1448.63V177.381H1426.25ZM1454.45 148.804V139.415L1455.15 134.208H1461.1L1460.11 148.804H1454.45ZM1475.41 177.381V172.092H1482.14V139.497H1475.41V134.208H1487.39L1488.66 144.417C1490.33 140.864 1492.35 138.117 1494.73 136.176C1497.1 134.235 1500.25 133.265 1504.16 133.265C1505.36 133.265 1506.42 133.361 1507.35 133.552C1508.31 133.716 1509.28 133.935 1510.26 134.208L1508.26 140.358C1507.35 140.112 1506.53 139.934 1505.8 139.825C1505.06 139.688 1504.21 139.62 1503.25 139.62C1499.95 139.62 1497.1 140.795 1494.73 143.146C1492.35 145.497 1490.45 149.05 1489.03 153.806V172.092H1497.8V177.381H1475.41ZM1503.62 148.804V139.415L1504.32 134.208H1510.26L1509.28 148.804H1503.62ZM1529.58 158.234C1529.72 161.569 1530.36 164.302 1531.51 166.434C1532.66 168.539 1534.18 170.097 1536.06 171.108C1537.95 172.092 1540 172.584 1542.21 172.584C1544.43 172.584 1546.42 172.256 1548.2 171.6C1550 170.944 1551.85 169.974 1553.73 168.689L1556.97 173.24C1554.95 174.825 1552.64 176.069 1550.04 176.971C1547.47 177.873 1544.84 178.324 1542.13 178.324C1537.95 178.324 1534.38 177.381 1531.43 175.495C1528.48 173.609 1526.22 170.985 1524.66 167.623C1523.13 164.234 1522.37 160.311 1522.37 155.856C1522.37 151.483 1523.15 147.601 1524.71 144.212C1526.26 140.823 1528.45 138.158 1531.27 136.217C1534.08 134.276 1537.4 133.306 1541.23 133.306C1544.86 133.306 1547.99 134.167 1550.62 135.889C1553.24 137.584 1555.25 140.016 1556.64 143.187C1558.07 146.33 1558.78 150.089 1558.78 154.462C1558.78 155.2 1558.76 155.897 1558.74 156.553C1558.71 157.182 1558.67 157.742 1558.61 158.234H1529.58ZM1541.31 138.964C1538.11 138.964 1535.43 140.098 1533.27 142.367C1531.14 144.636 1529.93 148.148 1529.63 152.904H1552.13C1552.05 148.285 1551.04 144.813 1549.1 142.49C1547.16 140.139 1544.56 138.964 1541.31 138.964ZM1573.34 177.381V134.208H1579.2L1579.74 140.194C1581.49 137.98 1583.67 136.285 1586.3 135.11C1588.95 133.907 1591.52 133.306 1594 133.306C1598.24 133.306 1601.32 134.427 1603.23 136.668C1605.17 138.909 1606.14 142.025 1606.14 146.016V177.381H1599.25V151.1C1599.25 148.148 1599.09 145.77 1598.76 143.966C1598.43 142.135 1597.75 140.809 1596.71 139.989C1595.67 139.142 1594.06 138.718 1591.87 138.718C1590.18 138.718 1588.58 139.087 1587.08 139.825C1585.6 140.563 1584.27 141.492 1583.1 142.613C1581.95 143.706 1580.99 144.813 1580.23 145.934V177.381H1573.34ZM1656.78 175.208C1655.31 176.192 1653.52 176.957 1651.41 177.504C1649.31 178.051 1647.25 178.324 1645.22 178.324C1640.58 178.324 1637 177.108 1634.48 174.675C1631.97 172.242 1630.71 169.113 1630.71 165.286V139.538H1620.79V134.208H1630.71V124.409L1637.6 123.589V134.208H1652.52L1651.7 139.538H1637.6V165.204C1637.6 167.609 1638.23 169.441 1639.48 170.698C1640.77 171.955 1642.89 172.584 1645.84 172.584C1647.45 172.584 1648.94 172.393 1650.31 172.01C1651.67 171.627 1652.94 171.135 1654.12 170.534L1656.78 175.208ZM1688.04 163.892C1689.92 163.892 1691.49 164.534 1692.75 165.819C1694.04 167.104 1694.68 168.648 1694.68 170.452C1694.68 171.436 1694.55 172.434 1694.31 173.445C1694.09 174.456 1693.68 175.604 1693.08 176.889L1686.44 192.1H1680.2L1684.14 175.905C1683.32 175.304 1682.66 174.525 1682.17 173.568C1681.71 172.584 1681.48 171.545 1681.48 170.452C1681.48 168.621 1682.1 167.076 1683.36 165.819C1684.62 164.534 1686.18 163.892 1688.04 163.892ZM412.62 241.306C416.447 241.306 419.495 242.235 421.763 244.094C424.059 245.953 425.713 248.577 426.724 251.966C427.736 255.328 428.241 259.264 428.241 263.774C428.241 268.12 427.626 272.001 426.396 275.418C425.194 278.807 423.362 281.472 420.902 283.413C418.442 285.354 415.34 286.324 411.595 286.324C406.867 286.324 403.067 284.657 400.197 281.322V301.904L393.309 302.765V242.208H399.172L399.746 248.235C401.332 246.021 403.218 244.313 405.404 243.11C407.618 241.907 410.024 241.306 412.62 241.306ZM410.98 246.841C408.602 246.841 406.498 247.565 404.666 249.014C402.862 250.435 401.373 252.021 400.197 253.77V275.172C401.318 276.839 402.726 278.165 404.42 279.149C406.142 280.106 408.028 280.584 410.078 280.584C413.659 280.584 416.351 279.217 418.155 276.484C419.959 273.751 420.861 269.5 420.861 263.733C420.861 259.961 420.506 256.831 419.795 254.344C419.085 251.829 418.005 249.957 416.556 248.727C415.108 247.47 413.249 246.841 410.98 246.841ZM473.391 275.951C473.391 277.673 473.678 278.93 474.252 279.723C474.826 280.516 475.715 281.103 476.917 281.486L475.236 286.324C473.378 286.078 471.751 285.49 470.357 284.561C468.963 283.604 467.952 282.169 467.323 280.256C465.765 282.251 463.825 283.768 461.501 284.807C459.178 285.818 456.609 286.324 453.793 286.324C449.475 286.324 446.072 285.108 443.584 282.675C441.097 280.242 439.853 277.017 439.853 272.999C439.853 268.544 441.589 265.127 445.06 262.749C448.532 260.371 453.547 259.182 460.107 259.182H466.462V255.574C466.462 252.458 465.547 250.258 463.715 248.973C461.911 247.661 459.397 247.005 456.171 247.005C454.75 247.005 453.083 247.183 451.169 247.538C449.256 247.866 447.179 248.426 444.937 249.219L443.133 244.012C445.785 243.028 448.272 242.331 450.595 241.921C452.919 241.511 455.133 241.306 457.237 241.306C462.622 241.306 466.654 242.563 469.332 245.078C472.038 247.565 473.391 250.955 473.391 255.246V275.951ZM455.556 281.076C457.688 281.076 459.725 280.543 461.665 279.477C463.606 278.384 465.205 276.88 466.462 274.967V263.856H460.23C455.474 263.856 452.112 264.676 450.144 266.316C448.204 267.956 447.233 270.156 447.233 272.917C447.233 275.596 447.917 277.632 449.283 279.026C450.677 280.393 452.768 281.076 455.556 281.076ZM492.055 285.381V280.092H498.779V247.497H492.055V242.208H504.027L505.298 252.417C506.966 248.864 508.988 246.117 511.366 244.176C513.744 242.235 516.888 241.265 520.796 241.265C521.999 241.265 523.065 241.361 523.994 241.552C524.951 241.716 525.921 241.935 526.905 242.208L524.896 248.358C523.994 248.112 523.174 247.934 522.436 247.825C521.698 247.688 520.851 247.62 519.894 247.62C516.587 247.62 513.744 248.795 511.366 251.146C508.988 253.497 507.089 257.05 505.667 261.806V280.092H514.441V285.381H492.055ZM520.263 256.804V247.415L520.96 242.208H526.905L525.921 256.804H520.263ZM571.727 275.951C571.727 277.673 572.014 278.93 572.588 279.723C573.162 280.516 574.051 281.103 575.253 281.486L573.572 286.324C571.714 286.078 570.087 285.49 568.693 284.561C567.299 283.604 566.288 282.169 565.659 280.256C564.101 282.251 562.161 283.768 559.837 284.807C557.514 285.818 554.945 286.324 552.129 286.324C547.811 286.324 544.408 285.108 541.92 282.675C539.433 280.242 538.189 277.017 538.189 272.999C538.189 268.544 539.925 265.127 543.396 262.749C546.868 260.371 551.883 259.182 558.443 259.182H564.798V255.574C564.798 252.458 563.883 250.258 562.051 248.973C560.247 247.661 557.733 247.005 554.507 247.005C553.086 247.005 551.419 247.183 549.505 247.538C547.592 247.866 545.515 248.426 543.273 249.219L541.469 244.012C544.121 243.028 546.608 242.331 548.931 241.921C551.255 241.511 553.469 241.306 555.573 241.306C560.958 241.306 564.99 242.563 567.668 245.078C570.374 247.565 571.727 250.955 571.727 255.246V275.951ZM553.892 281.076C556.024 281.076 558.061 280.543 560.001 279.477C561.942 278.384 563.541 276.88 564.798 274.967V263.856H558.566C553.81 263.856 550.448 264.676 548.48 266.316C546.54 267.956 545.569 270.156 545.569 272.917C545.569 275.596 546.253 277.632 547.619 279.026C549.013 280.393 551.104 281.076 553.892 281.076ZM606.791 224.824V274.721C606.791 276.853 607.447 278.37 608.759 279.272C610.099 280.147 611.821 280.584 613.925 280.584C615.237 280.584 616.481 280.447 617.656 280.174C618.832 279.901 620.007 279.532 621.182 279.067L623.027 284.11C621.852 284.684 620.39 285.19 618.64 285.627C616.918 286.092 614.964 286.324 612.777 286.324C608.951 286.324 605.848 285.272 603.47 283.167C601.092 281.035 599.903 278.097 599.903 274.352V230.277H586.66V224.824H606.791ZM655.959 224.824V274.721C655.959 276.853 656.615 278.37 657.927 279.272C659.267 280.147 660.989 280.584 663.093 280.584C664.405 280.584 665.649 280.447 666.824 280.174C668 279.901 669.175 279.532 670.35 279.067L672.195 284.11C671.02 284.684 669.558 285.19 667.808 285.627C666.086 286.092 664.132 286.324 661.945 286.324C658.119 286.324 655.016 285.272 652.638 283.167C650.26 281.035 649.071 278.097 649.071 274.352V230.277H635.828V224.824H655.959ZM693.729 266.234C693.866 269.569 694.508 272.302 695.656 274.434C696.804 276.539 698.321 278.097 700.207 279.108C702.093 280.092 704.143 280.584 706.357 280.584C708.571 280.584 710.567 280.256 712.343 279.6C714.147 278.944 715.992 277.974 717.878 276.689L721.117 281.24C719.095 282.825 716.785 284.069 714.188 284.971C711.619 285.873 708.981 286.324 706.275 286.324C702.093 286.324 698.526 285.381 695.574 283.495C692.622 281.609 690.367 278.985 688.809 275.623C687.279 272.234 686.513 268.311 686.513 263.856C686.513 259.483 687.292 255.601 688.85 252.212C690.408 248.823 692.595 246.158 695.41 244.217C698.226 242.276 701.547 241.306 705.373 241.306C709.009 241.306 712.138 242.167 714.762 243.889C717.386 245.584 719.395 248.016 720.789 251.187C722.211 254.33 722.921 258.089 722.921 262.462C722.921 263.2 722.908 263.897 722.88 264.553C722.853 265.182 722.812 265.742 722.757 266.234H693.729ZM705.455 246.964C702.257 246.964 699.579 248.098 697.419 250.367C695.287 252.636 694.071 256.148 693.77 260.904H716.279C716.197 256.285 715.186 252.813 713.245 250.49C711.305 248.139 708.708 246.964 705.455 246.964ZM754.295 224.824V274.721C754.295 276.853 754.951 278.37 756.263 279.272C757.602 280.147 759.324 280.584 761.429 280.584C762.741 280.584 763.985 280.447 765.16 280.174C766.335 279.901 767.511 279.532 768.686 279.067L770.531 284.11C769.356 284.684 767.893 285.19 766.144 285.627C764.422 286.092 762.468 286.324 760.281 286.324C756.454 286.324 753.352 285.272 750.974 283.167C748.596 281.035 747.407 278.097 747.407 274.352V230.277H734.164V224.824H754.295ZM803.012 271.892C804.898 271.892 806.47 272.534 807.727 273.819C809.012 275.104 809.654 276.648 809.654 278.452C809.654 279.436 809.531 280.434 809.285 281.445C809.066 282.456 808.656 283.604 808.055 284.889L801.413 300.1H795.181L799.117 283.905C798.297 283.304 797.641 282.525 797.149 281.568C796.684 280.584 796.452 279.545 796.452 278.452C796.452 276.621 797.081 275.076 798.338 273.819C799.595 272.534 801.153 271.892 803.012 271.892ZM890.401 266.234C890.538 269.569 891.18 272.302 892.328 274.434C893.476 276.539 894.993 278.097 896.879 279.108C898.765 280.092 900.815 280.584 903.029 280.584C905.243 280.584 907.238 280.256 909.015 279.6C910.819 278.944 912.664 277.974 914.55 276.689L917.789 281.24C915.766 282.825 913.457 284.069 910.86 284.971C908.291 285.873 905.653 286.324 902.947 286.324C898.765 286.324 895.198 285.381 892.246 283.495C889.294 281.609 887.039 278.985 885.481 275.623C883.95 272.234 883.185 268.311 883.185 263.856C883.185 259.483 883.964 255.601 885.522 252.212C887.08 248.823 889.267 246.158 892.082 244.217C894.897 242.276 898.218 241.306 902.045 241.306C905.68 241.306 908.81 242.167 911.434 243.889C914.058 245.584 916.067 248.016 917.461 251.187C918.882 254.33 919.593 258.089 919.593 262.462C919.593 263.2 919.579 263.897 919.552 264.553C919.525 265.182 919.484 265.742 919.429 266.234H890.401ZM902.127 246.964C898.929 246.964 896.25 248.098 894.091 250.367C891.959 252.636 890.743 256.148 890.442 260.904H912.951C912.869 256.285 911.858 252.813 909.917 250.49C907.976 248.139 905.38 246.964 902.127 246.964ZM970.155 242.208L954.452 285.381H946.457L930.877 242.208H938.175L950.68 279.108L963.021 242.208H970.155ZM988.737 266.234C988.874 269.569 989.516 272.302 990.664 274.434C991.812 276.539 993.329 278.097 995.215 279.108C997.101 280.092 999.151 280.584 1001.36 280.584C1003.58 280.584 1005.57 280.256 1007.35 279.6C1009.15 278.944 1011 277.974 1012.89 276.689L1016.12 281.24C1014.1 282.825 1011.79 284.069 1009.2 284.971C1006.63 285.873 1003.99 286.324 1001.28 286.324C997.101 286.324 993.534 285.381 990.582 283.495C987.63 281.609 985.375 278.985 983.817 275.623C982.286 272.234 981.521 268.311 981.521 263.856C981.521 259.483 982.3 255.601 983.858 252.212C985.416 248.823 987.603 246.158 990.418 244.217C993.233 242.276 996.554 241.306 1000.38 241.306C1004.02 241.306 1007.15 242.167 1009.77 243.889C1012.39 245.584 1014.4 248.016 1015.8 251.187C1017.22 254.33 1017.93 258.089 1017.93 262.462C1017.93 263.2 1017.92 263.897 1017.89 264.553C1017.86 265.182 1017.82 265.742 1017.76 266.234H988.737ZM1000.46 246.964C997.265 246.964 994.586 248.098 992.427 250.367C990.295 252.636 989.079 256.148 988.778 260.904H1011.29C1011.2 256.285 1010.19 252.813 1008.25 250.49C1006.31 248.139 1003.72 246.964 1000.46 246.964ZM1032.49 285.381V242.208H1038.36L1038.89 248.194C1040.64 245.98 1042.82 244.285 1045.45 243.11C1048.1 241.907 1050.67 241.306 1053.16 241.306C1057.39 241.306 1060.47 242.427 1062.38 244.668C1064.32 246.909 1065.29 250.025 1065.29 254.016V285.381H1058.4V259.1C1058.4 256.148 1058.24 253.77 1057.91 251.966C1057.58 250.135 1056.9 248.809 1055.86 247.989C1054.82 247.142 1053.21 246.718 1051.02 246.718C1049.33 246.718 1047.73 247.087 1046.23 247.825C1044.75 248.563 1043.43 249.492 1042.25 250.613C1041.1 251.706 1040.15 252.813 1039.38 253.934V285.381H1032.49ZM1115.94 283.208C1114.46 284.192 1112.67 284.957 1110.57 285.504C1108.46 286.051 1106.4 286.324 1104.37 286.324C1099.73 286.324 1096.15 285.108 1093.63 282.675C1091.12 280.242 1089.86 277.113 1089.86 273.286V247.538H1079.94V242.208H1089.86V232.409L1096.75 231.589V242.208H1111.67L1110.85 247.538H1096.75V273.204C1096.75 275.609 1097.38 277.441 1098.63 278.698C1099.92 279.955 1102.04 280.584 1104.99 280.584C1106.6 280.584 1108.09 280.393 1109.46 280.01C1110.83 279.627 1112.1 279.135 1113.27 278.534L1115.94 283.208ZM1196.81 224.824V274.721C1196.81 276.853 1197.46 278.37 1198.77 279.272C1200.11 280.147 1201.84 280.584 1203.94 280.584C1205.25 280.584 1206.5 280.447 1207.67 280.174C1208.85 279.901 1210.02 279.532 1211.2 279.067L1213.04 284.11C1211.87 284.684 1210.41 285.19 1208.66 285.627C1206.93 286.092 1204.98 286.324 1202.79 286.324C1198.97 286.324 1195.86 285.272 1193.49 283.167C1191.11 281.035 1189.92 278.097 1189.92 274.352V230.277H1176.68V224.824H1196.81ZM1245.61 241.306C1249.68 241.306 1253.08 242.235 1255.81 244.094C1258.58 245.925 1260.64 248.522 1262.01 251.884C1263.4 255.246 1264.1 259.209 1264.1 263.774C1264.1 268.175 1263.39 272.07 1261.96 275.459C1260.54 278.848 1258.45 281.513 1255.69 283.454C1252.96 285.367 1249.57 286.324 1245.52 286.324C1241.48 286.324 1238.08 285.395 1235.31 283.536C1232.55 281.677 1230.46 279.067 1229.04 275.705C1227.65 272.316 1226.95 268.366 1226.95 263.856C1226.95 259.401 1227.66 255.478 1229.08 252.089C1230.5 248.7 1232.6 246.062 1235.36 244.176C1238.14 242.263 1241.56 241.306 1245.61 241.306ZM1245.61 246.923C1241.89 246.923 1239.07 248.303 1237.16 251.064C1235.27 253.797 1234.33 258.061 1234.33 263.856C1234.33 269.541 1235.26 273.764 1237.12 276.525C1239 279.286 1241.81 280.666 1245.52 280.666C1249.24 280.666 1252.03 279.286 1253.89 276.525C1255.77 273.764 1256.72 269.514 1256.72 263.774C1256.72 258.034 1255.79 253.797 1253.93 251.064C1252.07 248.303 1249.3 246.923 1245.61 246.923ZM1294.77 241.306C1298.85 241.306 1302.25 242.235 1304.98 244.094C1307.74 245.925 1309.81 248.522 1311.17 251.884C1312.57 255.246 1313.26 259.209 1313.26 263.774C1313.26 268.175 1312.55 272.07 1311.13 275.459C1309.71 278.848 1307.62 281.513 1304.86 283.454C1302.13 285.367 1298.74 286.324 1294.69 286.324C1290.65 286.324 1287.24 285.395 1284.48 283.536C1281.72 281.677 1279.63 279.067 1278.21 275.705C1276.82 272.316 1276.12 268.366 1276.12 263.856C1276.12 259.401 1276.83 255.478 1278.25 252.089C1279.67 248.7 1281.76 246.062 1284.52 244.176C1287.31 242.263 1290.73 241.306 1294.77 241.306ZM1294.77 246.923C1291.06 246.923 1288.24 248.303 1286.33 251.064C1284.44 253.797 1283.5 258.061 1283.5 263.856C1283.5 269.541 1284.43 273.764 1286.29 276.525C1288.17 279.286 1290.97 280.666 1294.69 280.666C1298.41 280.666 1301.2 279.286 1303.06 276.525C1304.94 273.764 1305.88 269.514 1305.88 263.774C1305.88 258.034 1304.96 253.797 1303.1 251.064C1301.24 248.303 1298.46 246.923 1294.77 246.923ZM1346.81 241.306C1350.64 241.306 1353.69 242.235 1355.95 244.094C1358.25 245.953 1359.9 248.577 1360.92 251.966C1361.93 255.328 1362.43 259.264 1362.43 263.774C1362.43 268.12 1361.82 272.001 1360.59 275.418C1359.39 278.807 1357.55 281.472 1355.09 283.413C1352.63 285.354 1349.53 286.324 1345.79 286.324C1341.06 286.324 1337.26 284.657 1334.39 281.322V301.904L1327.5 302.765V242.208H1333.36L1333.94 248.235C1335.52 246.021 1337.41 244.313 1339.6 243.11C1341.81 241.907 1344.22 241.306 1346.81 241.306ZM1345.17 246.841C1342.79 246.841 1340.69 247.565 1338.86 249.014C1337.05 250.435 1335.56 252.021 1334.39 253.77V275.172C1335.51 276.839 1336.92 278.165 1338.61 279.149C1340.33 280.106 1342.22 280.584 1344.27 280.584C1347.85 280.584 1350.54 279.217 1352.35 276.484C1354.15 273.751 1355.05 269.5 1355.05 263.733C1355.05 259.961 1354.7 256.831 1353.99 254.344C1353.28 251.829 1352.2 249.957 1350.75 248.727C1349.3 247.47 1347.44 246.841 1345.17 246.841ZM1391.35 280.625C1394.65 280.625 1397.26 280.01 1399.18 278.78C1401.12 277.523 1402.09 275.855 1402.09 273.778C1402.09 272.466 1401.84 271.332 1401.35 270.375C1400.89 269.418 1399.92 268.557 1398.44 267.792C1396.96 267.027 1394.7 266.261 1391.63 265.496C1388.65 264.758 1386.06 263.911 1383.84 262.954C1381.66 261.97 1379.95 260.699 1378.72 259.141C1377.52 257.583 1376.91 255.56 1376.91 253.073C1376.91 250.64 1377.6 248.549 1378.96 246.8C1380.36 245.023 1382.29 243.67 1384.75 242.741C1387.21 241.784 1390.06 241.306 1393.31 241.306C1396.79 241.306 1399.81 241.771 1402.38 242.7C1404.97 243.602 1407.17 244.723 1408.98 246.062L1405.94 250.736C1404.3 249.615 1402.5 248.7 1400.53 247.989C1398.56 247.251 1396.18 246.882 1393.4 246.882C1390.01 246.882 1387.6 247.415 1386.18 248.481C1384.76 249.52 1384.05 250.873 1384.05 252.54C1384.05 253.797 1384.39 254.85 1385.07 255.697C1385.78 256.517 1386.97 257.269 1388.64 257.952C1390.31 258.608 1392.6 259.332 1395.53 260.125C1398.34 260.863 1400.79 261.751 1402.87 262.79C1404.97 263.829 1406.61 265.195 1407.79 266.89C1408.96 268.585 1409.55 270.771 1409.55 273.45C1409.55 276.511 1408.68 278.999 1406.93 280.912C1405.18 282.798 1402.91 284.178 1400.12 285.053C1397.36 285.9 1394.44 286.324 1391.35 286.324C1387.44 286.324 1384.1 285.764 1381.34 284.643C1378.61 283.495 1376.31 282.115 1374.45 280.502L1378.39 275.951C1380.09 277.345 1382.03 278.479 1384.21 279.354C1386.43 280.201 1388.8 280.625 1391.35 280.625ZM1442.2 271.892C1444.08 271.892 1445.65 272.534 1446.91 273.819C1448.2 275.104 1448.84 276.648 1448.84 278.452C1448.84 279.436 1448.71 280.434 1448.47 281.445C1448.25 282.456 1447.84 283.604 1447.24 284.889L1440.6 300.1H1434.36L1438.3 283.905C1437.48 283.304 1436.82 282.525 1436.33 281.568C1435.87 280.584 1435.64 279.545 1435.64 278.452C1435.64 276.621 1436.26 275.076 1437.52 273.819C1438.78 272.534 1440.34 271.892 1442.2 271.892ZM511.161 388.379C513.321 388.379 515.33 388.024 517.188 387.313C519.074 386.602 520.81 385.7 522.395 384.607L525.757 389.117C523.871 390.73 521.603 392.001 518.951 392.93C516.3 393.859 513.703 394.324 511.161 394.324C506.87 394.324 503.207 393.408 500.173 391.577C497.167 389.718 494.871 387.122 493.285 383.787C491.7 380.425 490.907 376.489 490.907 371.979C490.907 367.66 491.7 363.793 493.285 360.376C494.898 356.932 497.208 354.226 500.214 352.258C503.248 350.29 506.925 349.306 511.243 349.306C514.004 349.306 516.587 349.73 518.992 350.577C521.425 351.397 523.653 352.641 525.675 354.308L522.313 358.9C520.482 357.615 518.637 356.659 516.778 356.03C514.947 355.374 513.075 355.046 511.161 355.046C507.444 355.046 504.383 356.44 501.977 359.228C499.572 362.016 498.369 366.266 498.369 371.979C498.369 375.806 498.916 378.935 500.009 381.368C501.13 383.773 502.647 385.55 504.56 386.698C506.501 387.819 508.701 388.379 511.161 388.379ZM571.727 383.951C571.727 385.673 572.014 386.93 572.588 387.723C573.162 388.516 574.051 389.103 575.253 389.486L573.572 394.324C571.714 394.078 570.087 393.49 568.693 392.561C567.299 391.604 566.288 390.169 565.659 388.256C564.101 390.251 562.161 391.768 559.837 392.807C557.514 393.818 554.945 394.324 552.129 394.324C547.811 394.324 544.408 393.108 541.92 390.675C539.433 388.242 538.189 385.017 538.189 380.999C538.189 376.544 539.925 373.127 543.396 370.749C546.868 368.371 551.883 367.182 558.443 367.182H564.798V363.574C564.798 360.458 563.883 358.258 562.051 356.973C560.247 355.661 557.733 355.005 554.507 355.005C553.086 355.005 551.419 355.183 549.505 355.538C547.592 355.866 545.515 356.426 543.273 357.219L541.469 352.012C544.121 351.028 546.608 350.331 548.931 349.921C551.255 349.511 553.469 349.306 555.573 349.306C560.958 349.306 564.99 350.563 567.668 353.078C570.374 355.565 571.727 358.955 571.727 363.246V383.951ZM553.892 389.076C556.024 389.076 558.061 388.543 560.001 387.477C561.942 386.384 563.541 384.88 564.798 382.967V371.856H558.566C553.81 371.856 550.448 372.676 548.48 374.316C546.54 375.956 545.569 378.156 545.569 380.917C545.569 383.596 546.253 385.632 547.619 387.026C549.013 388.393 551.104 389.076 553.892 389.076ZM589.981 393.381V350.208H595.844L596.377 356.194C598.127 353.98 600.313 352.285 602.937 351.11C605.589 349.907 608.158 349.306 610.645 349.306C614.882 349.306 617.957 350.427 619.87 352.668C621.811 354.909 622.781 358.025 622.781 362.016V393.381H615.893V367.1C615.893 364.148 615.729 361.77 615.401 359.966C615.073 358.135 614.39 356.809 613.351 355.989C612.313 355.142 610.7 354.718 608.513 354.718C606.819 354.718 605.22 355.087 603.716 355.825C602.24 356.563 600.915 357.492 599.739 358.613C598.591 359.706 597.635 360.813 596.869 361.934V393.381H589.981ZM658.665 388.379C660.825 388.379 662.834 388.024 664.692 387.313C666.578 386.602 668.314 385.7 669.899 384.607L673.261 389.117C671.375 390.73 669.107 392.001 666.455 392.93C663.804 393.859 661.207 394.324 658.665 394.324C654.374 394.324 650.711 393.408 647.677 391.577C644.671 389.718 642.375 387.122 640.789 383.787C639.204 380.425 638.411 376.489 638.411 371.979C638.411 367.66 639.204 363.793 640.789 360.376C642.402 356.932 644.712 354.226 647.718 352.258C650.752 350.29 654.429 349.306 658.747 349.306C661.508 349.306 664.091 349.73 666.496 350.577C668.929 351.397 671.157 352.641 673.179 354.308L669.817 358.9C667.986 357.615 666.141 356.659 664.282 356.03C662.451 355.374 660.579 355.046 658.665 355.046C654.948 355.046 651.887 356.44 649.481 359.228C647.076 362.016 645.873 366.266 645.873 371.979C645.873 375.806 646.42 378.935 647.513 381.368C648.634 383.773 650.151 385.55 652.064 386.698C654.005 387.819 656.205 388.379 658.665 388.379ZM693.729 374.234C693.866 377.569 694.508 380.302 695.656 382.434C696.804 384.539 698.321 386.097 700.207 387.108C702.093 388.092 704.143 388.584 706.357 388.584C708.571 388.584 710.567 388.256 712.343 387.6C714.147 386.944 715.992 385.974 717.878 384.689L721.117 389.24C719.095 390.825 716.785 392.069 714.188 392.971C711.619 393.873 708.981 394.324 706.275 394.324C702.093 394.324 698.526 393.381 695.574 391.495C692.622 389.609 690.367 386.985 688.809 383.623C687.279 380.234 686.513 376.311 686.513 371.856C686.513 367.483 687.292 363.601 688.85 360.212C690.408 356.823 692.595 354.158 695.41 352.217C698.226 350.276 701.547 349.306 705.373 349.306C709.009 349.306 712.138 350.167 714.762 351.889C717.386 353.584 719.395 356.016 720.789 359.187C722.211 362.33 722.921 366.089 722.921 370.462C722.921 371.2 722.908 371.897 722.88 372.553C722.853 373.182 722.812 373.742 722.757 374.234H693.729ZM705.455 354.964C702.257 354.964 699.579 356.098 697.419 358.367C695.287 360.636 694.071 364.148 693.77 368.904H716.279C716.197 364.285 715.186 360.813 713.245 358.49C711.305 356.139 708.708 354.964 705.455 354.964ZM754.295 332.824V382.721C754.295 384.853 754.951 386.37 756.263 387.272C757.602 388.147 759.324 388.584 761.429 388.584C762.741 388.584 763.985 388.447 765.16 388.174C766.335 387.901 767.511 387.532 768.686 387.067L770.531 392.11C769.356 392.684 767.893 393.19 766.144 393.627C764.422 394.092 762.468 394.324 760.281 394.324C756.454 394.324 753.352 393.272 750.974 391.167C748.596 389.035 747.407 386.097 747.407 382.352V338.277H734.164V332.824H754.295ZM803.463 332.824V382.721C803.463 384.853 804.119 386.37 805.431 387.272C806.77 388.147 808.492 388.584 810.597 388.584C811.909 388.584 813.153 388.447 814.328 388.174C815.503 387.901 816.679 387.532 817.854 387.067L819.699 392.11C818.524 392.684 817.061 393.19 815.312 393.627C813.59 394.092 811.636 394.324 809.449 394.324C805.622 394.324 802.52 393.272 800.142 391.167C797.764 389.035 796.575 386.097 796.575 382.352V338.277H783.332V332.824H803.463ZM866.735 383.951C866.735 385.673 867.022 386.93 867.596 387.723C868.17 388.516 869.058 389.103 870.261 389.486L868.58 394.324C866.721 394.078 865.095 393.49 863.701 392.561C862.307 391.604 861.296 390.169 860.667 388.256C859.109 390.251 857.168 391.768 854.845 392.807C852.522 393.818 849.952 394.324 847.137 394.324C842.818 394.324 839.415 393.108 836.928 390.675C834.441 388.242 833.197 385.017 833.197 380.999C833.197 376.544 834.933 373.127 838.404 370.749C841.875 368.371 846.891 367.182 853.451 367.182H859.806V363.574C859.806 360.458 858.89 358.258 857.059 356.973C855.255 355.661 852.74 355.005 849.515 355.005C848.094 355.005 846.426 355.183 844.513 355.538C842.6 355.866 840.522 356.426 838.281 357.219L836.477 352.012C839.128 351.028 841.616 350.331 843.939 349.921C846.262 349.511 848.476 349.306 850.581 349.306C855.966 349.306 859.997 350.563 862.676 353.078C865.382 355.565 866.735 358.955 866.735 363.246V383.951ZM848.9 389.076C851.032 389.076 853.068 388.543 855.009 387.477C856.95 386.384 858.549 384.88 859.806 382.967V371.856H853.574C848.818 371.856 845.456 372.676 843.488 374.316C841.547 375.956 840.577 378.156 840.577 380.917C840.577 383.596 841.26 385.632 842.627 387.026C844.021 388.393 846.112 389.076 848.9 389.076ZM919.265 391.208C917.789 392.192 915.999 392.957 913.894 393.504C911.789 394.051 909.726 394.324 907.703 394.324C903.056 394.324 899.476 393.108 896.961 390.675C894.446 388.242 893.189 385.113 893.189 381.286V355.538H883.267V350.208H893.189V340.409L900.077 339.589V350.208H915.001L914.181 355.538H900.077V381.204C900.077 383.609 900.706 385.441 901.963 386.698C903.248 387.955 905.366 388.584 908.318 388.584C909.931 388.584 911.42 388.393 912.787 388.01C914.154 387.627 915.425 387.135 916.6 386.534L919.265 391.208ZM956.01 350.208V387.928H968.187V393.381H935.797V387.928H949.122V355.661H936.207V350.208H956.01ZM950.516 329.995C952.047 329.995 953.263 330.46 954.165 331.389C955.094 332.318 955.559 333.453 955.559 334.792C955.559 336.186 955.094 337.361 954.165 338.318C953.263 339.247 952.047 339.712 950.516 339.712C949.067 339.712 947.878 339.247 946.949 338.318C946.02 337.361 945.555 336.186 945.555 334.792C945.555 333.453 946.02 332.318 946.949 331.389C947.878 330.46 949.067 329.995 950.516 329.995ZM999.766 349.306C1003.84 349.306 1007.24 350.235 1009.97 352.094C1012.74 353.925 1014.8 356.522 1016.17 359.884C1017.56 363.246 1018.26 367.209 1018.26 371.774C1018.26 376.175 1017.55 380.07 1016.12 383.459C1014.7 386.848 1012.61 389.513 1009.85 391.454C1007.12 393.367 1003.73 394.324 999.684 394.324C995.639 394.324 992.236 393.395 989.475 391.536C986.714 389.677 984.623 387.067 983.202 383.705C981.808 380.316 981.111 376.366 981.111 371.856C981.111 367.401 981.822 363.478 983.243 360.089C984.664 356.7 986.755 354.062 989.516 352.176C992.304 350.263 995.721 349.306 999.766 349.306ZM999.766 354.923C996.049 354.923 993.233 356.303 991.32 359.064C989.434 361.797 988.491 366.061 988.491 371.856C988.491 377.541 989.42 381.764 991.279 384.525C993.165 387.286 995.967 388.666 999.684 388.666C1003.4 388.666 1006.19 387.286 1008.05 384.525C1009.93 381.764 1010.88 377.514 1010.88 371.774C1010.88 366.034 1009.95 361.797 1008.09 359.064C1006.23 356.303 1003.46 354.923 999.766 354.923ZM1032.49 393.381V350.208H1038.36L1038.89 356.194C1040.64 353.98 1042.82 352.285 1045.45 351.11C1048.1 349.907 1050.67 349.306 1053.16 349.306C1057.39 349.306 1060.47 350.427 1062.38 352.668C1064.32 354.909 1065.29 358.025 1065.29 362.016V393.381H1058.4V367.1C1058.4 364.148 1058.24 361.77 1057.91 359.966C1057.58 358.135 1056.9 356.809 1055.86 355.989C1054.82 355.142 1053.21 354.718 1051.02 354.718C1049.33 354.718 1047.73 355.087 1046.23 355.825C1044.75 356.563 1043.43 357.492 1042.25 358.613C1041.1 359.706 1040.15 360.813 1039.38 361.934V393.381H1032.49ZM1145.51 388.625C1148.81 388.625 1151.42 388.01 1153.34 386.78C1155.28 385.523 1156.25 383.855 1156.25 381.778C1156.25 380.466 1156 379.332 1155.51 378.375C1155.05 377.418 1154.08 376.557 1152.6 375.792C1151.12 375.027 1148.86 374.261 1145.79 373.496C1142.81 372.758 1140.22 371.911 1138 370.954C1135.82 369.97 1134.11 368.699 1132.88 367.141C1131.68 365.583 1131.07 363.56 1131.07 361.073C1131.07 358.64 1131.76 356.549 1133.12 354.8C1134.52 353.023 1136.45 351.67 1138.91 350.741C1141.37 349.784 1144.22 349.306 1147.47 349.306C1150.95 349.306 1153.97 349.771 1156.54 350.7C1159.13 351.602 1161.33 352.723 1163.14 354.062L1160.1 358.736C1158.46 357.615 1156.66 356.7 1154.69 355.989C1152.72 355.251 1150.34 354.882 1147.56 354.882C1144.17 354.882 1141.76 355.415 1140.34 356.481C1138.92 357.52 1138.21 358.873 1138.21 360.54C1138.21 361.797 1138.55 362.85 1139.23 363.697C1139.94 364.517 1141.13 365.269 1142.8 365.952C1144.47 366.608 1146.76 367.332 1149.69 368.125C1152.5 368.863 1154.95 369.751 1157.03 370.79C1159.13 371.829 1160.77 373.195 1161.95 374.89C1163.12 376.585 1163.71 378.771 1163.71 381.45C1163.71 384.511 1162.84 386.999 1161.09 388.912C1159.34 390.798 1157.07 392.178 1154.28 393.053C1151.52 393.9 1148.6 394.324 1145.51 394.324C1141.6 394.324 1138.26 393.764 1135.5 392.643C1132.77 391.495 1130.47 390.115 1128.61 388.502L1132.55 383.951C1134.25 385.345 1136.19 386.479 1138.37 387.354C1140.59 388.201 1142.96 388.625 1145.51 388.625ZM1210.91 383.951C1210.91 385.673 1211.2 386.93 1211.77 387.723C1212.35 388.516 1213.23 389.103 1214.44 389.486L1212.76 394.324C1210.9 394.078 1209.27 393.49 1207.88 392.561C1206.48 391.604 1205.47 390.169 1204.84 388.256C1203.28 390.251 1201.34 391.768 1199.02 392.807C1196.7 393.818 1194.13 394.324 1191.31 394.324C1186.99 394.324 1183.59 393.108 1181.1 390.675C1178.62 388.242 1177.37 385.017 1177.37 380.999C1177.37 376.544 1179.11 373.127 1182.58 370.749C1186.05 368.371 1191.07 367.182 1197.63 367.182H1203.98V363.574C1203.98 360.458 1203.07 358.258 1201.23 356.973C1199.43 355.661 1196.92 355.005 1193.69 355.005C1192.27 355.005 1190.6 355.183 1188.69 355.538C1186.78 355.866 1184.7 356.426 1182.46 357.219L1180.65 352.012C1183.3 351.028 1185.79 350.331 1188.11 349.921C1190.44 349.511 1192.65 349.306 1194.76 349.306C1200.14 349.306 1204.17 350.563 1206.85 353.078C1209.56 355.565 1210.91 358.955 1210.91 363.246V383.951ZM1193.08 389.076C1195.21 389.076 1197.24 388.543 1199.18 387.477C1201.13 386.384 1202.72 384.88 1203.98 382.967V371.856H1197.75C1192.99 371.856 1189.63 372.676 1187.66 374.316C1185.72 375.956 1184.75 378.156 1184.75 380.917C1184.75 383.596 1185.44 385.632 1186.8 387.026C1188.2 388.393 1190.29 389.076 1193.08 389.076ZM1254.67 331.963C1256.99 331.963 1259.09 332.168 1260.98 332.578C1262.87 332.988 1264.66 333.562 1266.35 334.3L1264.14 339.425C1262.74 338.824 1261.27 338.373 1259.71 338.072C1258.15 337.771 1256.54 337.621 1254.87 337.621C1251.87 337.621 1249.6 338.209 1248.07 339.384C1246.56 340.559 1245.81 342.363 1245.81 344.796V353.57H1260.45L1259.71 358.982H1245.81V393.381H1238.92V358.982H1228.63V353.57H1238.92V344.96C1238.92 342.281 1239.61 339.972 1240.97 338.031C1242.37 336.09 1244.25 334.601 1246.63 333.562C1249.01 332.496 1251.69 331.963 1254.67 331.963ZM1283.74 374.234C1283.88 377.569 1284.52 380.302 1285.67 382.434C1286.82 384.539 1288.34 386.097 1290.22 387.108C1292.11 388.092 1294.16 388.584 1296.37 388.584C1298.59 388.584 1300.58 388.256 1302.36 387.6C1304.16 386.944 1306.01 385.974 1307.89 384.689L1311.13 389.24C1309.11 390.825 1306.8 392.069 1304.2 392.971C1301.63 393.873 1299 394.324 1296.29 394.324C1292.11 394.324 1288.54 393.381 1285.59 391.495C1282.64 389.609 1280.38 386.985 1278.82 383.623C1277.29 380.234 1276.53 376.311 1276.53 371.856C1276.53 367.483 1277.31 363.601 1278.87 360.212C1280.42 356.823 1282.61 354.158 1285.43 352.217C1288.24 350.276 1291.56 349.306 1295.39 349.306C1299.02 349.306 1302.15 350.167 1304.78 351.889C1307.4 353.584 1309.41 356.016 1310.8 359.187C1312.23 362.33 1312.94 366.089 1312.94 370.462C1312.94 371.2 1312.92 371.897 1312.9 372.553C1312.87 373.182 1312.83 373.742 1312.77 374.234H1283.74ZM1295.47 354.964C1292.27 354.964 1289.59 356.098 1287.43 358.367C1285.3 360.636 1284.09 364.148 1283.79 368.904H1306.29C1306.21 364.285 1305.2 360.813 1303.26 358.49C1301.32 356.139 1298.72 354.964 1295.47 354.964ZM1361.78 391.208C1360.3 392.192 1358.51 392.957 1356.41 393.504C1354.3 394.051 1352.24 394.324 1350.21 394.324C1345.57 394.324 1341.99 393.108 1339.47 390.675C1336.96 388.242 1335.7 385.113 1335.7 381.286V355.538H1325.78V350.208H1335.7V340.409L1342.59 339.589V350.208H1357.51L1356.69 355.538H1342.59V381.204C1342.59 383.609 1343.22 385.441 1344.47 386.698C1345.76 387.955 1347.88 388.584 1350.83 388.584C1352.44 388.584 1353.93 388.393 1355.3 388.01C1356.67 387.627 1357.94 387.135 1359.11 386.534L1361.78 391.208ZM1412.58 350.208L1397.41 393.668C1396.4 396.593 1395.12 399.271 1393.56 401.704C1392.03 404.137 1390.02 406.146 1387.53 407.731C1385.07 409.344 1381.94 410.341 1378.14 410.724L1377.08 405.23C1380.06 404.738 1382.41 403.986 1384.13 402.975C1385.85 401.964 1387.21 400.665 1388.19 399.08C1389.2 397.495 1390.09 395.595 1390.85 393.381H1388.56L1373.47 350.208H1380.85L1393.23 388.133L1405.45 350.208H1412.58Z" fill="url(#paint1_linear_1295_61)"/>
<path d="M770.465 507.021H760.707L755.131 475.328L749.063 507.021H739.551L731.679 463.848H738.731L744.225 502.757L751.113 469.342H759.272L765.791 502.757L771.285 463.848H778.009L770.465 507.021ZM809.506 463.848V501.568H821.683V507.021H789.293V501.568H802.618V469.301H789.703V463.848H809.506ZM804.012 443.635C805.543 443.635 806.759 444.1 807.661 445.029C808.59 445.958 809.055 447.093 809.055 448.432C809.055 449.826 808.59 451.001 807.661 451.958C806.759 452.887 805.543 453.352 804.012 453.352C802.563 453.352 801.374 452.887 800.445 451.958C799.516 451.001 799.051 449.826 799.051 448.432C799.051 447.093 799.516 445.958 800.445 445.029C801.374 444.1 802.563 443.635 804.012 443.635ZM871.097 504.848C869.621 505.832 867.831 506.597 865.726 507.144C863.621 507.691 861.558 507.964 859.535 507.964C854.888 507.964 851.308 506.748 848.793 504.315C846.278 501.882 845.021 498.753 845.021 494.926V469.178H835.099V463.848H845.021V454.049L851.909 453.229V463.848H866.833L866.013 469.178H851.909V494.844C851.909 497.249 852.538 499.081 853.795 500.338C855.08 501.595 857.198 502.224 860.15 502.224C861.763 502.224 863.252 502.033 864.619 501.65C865.986 501.267 867.257 500.775 868.432 500.174L871.097 504.848ZM892.877 445.808V469.752C894.572 467.483 896.649 465.789 899.109 464.668C901.596 463.52 904.111 462.946 906.653 462.946C910.862 462.946 913.937 464.067 915.878 466.308C917.819 468.549 918.789 471.665 918.789 475.656V507.021H911.901V475.82C911.901 473.223 911.3 471.337 910.097 470.162C908.894 468.959 907.008 468.358 904.439 468.358C902.799 468.358 901.241 468.727 899.765 469.465C898.289 470.203 896.963 471.119 895.788 472.212C894.613 473.305 893.642 474.426 892.877 475.574V507.021H885.989V446.546L892.877 445.808ZM1020.16 466.39C1020.16 469.205 1019.54 471.665 1018.31 473.77C1017.11 475.875 1015.47 477.61 1013.39 478.977C1011.32 480.344 1008.98 481.341 1006.38 481.97L1023.11 507.021H1014.58L999.167 482.79H991.541V507.021H984.407V450.564H998.921C1005.89 450.564 1011.17 451.903 1014.75 454.582C1018.35 457.233 1020.16 461.169 1020.16 466.39ZM1012.53 466.39C1012.53 462.755 1011.49 460.158 1009.42 458.6C1007.34 457.015 1004.11 456.222 999.741 456.222H991.541V477.214H999.741C1003.79 477.214 1006.93 476.394 1009.17 474.754C1011.41 473.087 1012.53 470.299 1012.53 466.39ZM1040.38 463.848V494.434C1040.38 497.277 1040.97 499.327 1042.14 500.584C1043.32 501.841 1045.15 502.47 1047.64 502.47C1050.02 502.47 1052.26 501.8 1054.36 500.461C1056.49 499.094 1058.15 497.482 1059.32 495.623V463.848H1066.21V507.021H1060.35L1059.77 501.199C1058.08 503.386 1055.99 505.067 1053.5 506.242C1051.01 507.39 1048.5 507.964 1045.96 507.964C1041.77 507.964 1038.65 506.857 1036.57 504.643C1034.52 502.402 1033.49 499.272 1033.49 495.254V463.848H1040.38ZM1097.34 502.265C1100.65 502.265 1103.26 501.65 1105.17 500.42C1107.11 499.163 1108.08 497.495 1108.08 495.418C1108.08 494.106 1107.83 492.972 1107.34 492.015C1106.88 491.058 1105.91 490.197 1104.43 489.432C1102.96 488.667 1100.69 487.901 1097.63 487.136C1094.65 486.398 1092.05 485.551 1089.84 484.594C1087.65 483.61 1085.94 482.339 1084.71 480.781C1083.51 479.223 1082.91 477.2 1082.91 474.713C1082.91 472.28 1083.59 470.189 1084.96 468.44C1086.35 466.663 1088.28 465.31 1090.74 464.381C1093.2 463.424 1096.05 462.946 1099.31 462.946C1102.78 462.946 1105.8 463.411 1108.37 464.34C1110.96 465.242 1113.16 466.363 1114.97 467.702L1111.93 472.376C1110.29 471.255 1108.49 470.34 1106.52 469.629C1104.55 468.891 1102.18 468.522 1099.39 468.522C1096 468.522 1093.59 469.055 1092.17 470.121C1090.75 471.16 1090.04 472.513 1090.04 474.18C1090.04 475.437 1090.38 476.49 1091.07 477.337C1091.78 478.157 1092.97 478.909 1094.63 479.592C1096.3 480.248 1098.6 480.972 1101.52 481.765C1104.34 482.503 1106.78 483.391 1108.86 484.43C1110.96 485.469 1112.6 486.835 1113.78 488.53C1114.96 490.225 1115.54 492.411 1115.54 495.09C1115.54 498.151 1114.67 500.639 1112.92 502.552C1111.17 504.438 1108.9 505.818 1106.11 506.693C1103.35 507.54 1100.43 507.964 1097.34 507.964C1093.43 507.964 1090.1 507.404 1087.33 506.283C1084.6 505.135 1082.31 503.755 1080.45 502.142L1084.38 497.591C1086.08 498.985 1088.02 500.119 1090.2 500.994C1092.42 501.841 1094.8 502.265 1097.34 502.265ZM1166.1 504.848C1164.63 505.832 1162.84 506.597 1160.73 507.144C1158.63 507.691 1156.57 507.964 1154.54 507.964C1149.9 507.964 1146.32 506.748 1143.8 504.315C1141.29 501.882 1140.03 498.753 1140.03 494.926V469.178H1130.11V463.848H1140.03V454.049L1146.92 453.229V463.848H1161.84L1161.02 469.178H1146.92V494.844C1146.92 497.249 1147.55 499.081 1148.8 500.338C1150.09 501.595 1152.21 502.224 1155.16 502.224C1156.77 502.224 1158.26 502.033 1159.63 501.65C1160.99 501.267 1162.26 500.775 1163.44 500.174L1166.1 504.848Z" fill="url(#paint2_linear_1295_61)"/>
<path d="M1704.21 716.975L1688.99 707.545C1688.86 706.061 1688.71 704.581 1688.56 703.107L1701.66 690.903C1702.99 689.662 1703.59 687.824 1703.23 686.049C1702.88 684.264 1701.63 682.794 1699.92 682.166L1683.18 675.925C1682.76 674.476 1682.32 673.037 1681.87 671.592L1692.3 657.099C1693.37 655.626 1693.59 653.709 1692.89 652.037C1692.2 650.363 1690.68 649.163 1688.91 648.869L1671.26 645.998C1670.57 644.66 1669.86 643.342 1669.14 642.045L1676.56 625.75C1677.32 624.093 1677.16 622.179 1676.15 620.654C1675.14 619.142 1673.43 618.258 1671.6 618.327L1653.68 618.951C1652.75 617.793 1651.81 616.646 1650.85 615.519L1654.98 598.08C1655.39 596.308 1654.87 594.439 1653.58 593.157C1652.3 591.874 1650.44 591.343 1648.66 591.759L1631.22 595.885C1630.09 594.928 1628.94 593.982 1627.78 593.056L1628.41 575.132C1628.47 573.318 1627.59 571.595 1626.08 570.59C1624.56 569.577 1622.65 569.425 1620.98 570.177L1604.72 577.597C1603.41 576.875 1602.09 576.161 1600.77 575.471L1597.89 557.824C1597.6 556.035 1596.4 554.516 1594.72 553.837C1593.05 553.14 1591.12 553.365 1589.66 554.426L1575.17 564.862C1573.74 564.408 1572.3 563.971 1570.87 563.555L1564.63 546.809C1563.99 545.103 1562.52 543.852 1560.75 543.498C1558.96 543.148 1557.14 543.741 1555.89 545.065L1543.69 558.171C1542.21 558.008 1540.73 557.859 1539.25 557.737L1529.82 542.482C1528.87 540.94 1527.18 540 1525.35 540C1523.52 540 1521.85 540.94 1520.91 542.482L1511.48 557.737C1510 557.859 1508.51 558.008 1507.04 558.171L1494.84 545.065C1493.6 543.741 1491.76 543.148 1489.98 543.498C1488.2 543.855 1486.73 545.103 1486.1 546.809L1479.86 563.555C1478.41 563.971 1476.98 564.411 1475.56 564.862L1461.07 554.426C1459.59 553.362 1457.67 553.137 1456.01 553.837C1454.33 554.53 1453.13 556.049 1452.84 557.824L1449.96 575.471C1448.63 576.161 1447.31 576.872 1446.01 577.597L1429.75 570.177C1428.09 569.421 1426.18 569.577 1424.65 570.59C1423.14 571.595 1422.25 573.318 1422.32 575.132L1422.95 593.056C1421.79 593.982 1420.64 594.928 1419.51 595.885L1402.07 591.759C1400.3 591.347 1398.43 591.874 1397.15 593.157C1395.86 594.443 1395.33 596.298 1395.75 598.08L1399.84 615.519C1398.89 616.649 1397.94 617.793 1397.02 618.951L1379.09 618.327C1377.29 618.275 1375.56 619.142 1374.55 620.654C1373.54 622.158 1373.39 624.086 1374.14 625.75L1381.56 642.045C1380.84 643.353 1380.12 644.67 1379.43 645.998L1361.79 648.869C1359.99 649.16 1358.48 650.359 1357.8 652.037C1357.1 653.719 1357.33 655.643 1358.39 657.099L1368.82 671.592C1368.37 673.024 1367.93 674.462 1367.51 675.925L1350.77 682.166C1349.07 682.801 1347.82 684.271 1347.46 686.049C1347.11 687.831 1347.7 689.655 1349.03 690.903L1362.14 703.107C1361.97 704.581 1361.83 706.064 1361.7 707.545L1346.48 716.975C1344.94 717.929 1344 719.614 1344 721.448C1344 723.282 1344.94 724.949 1346.48 725.886L1361.7 735.316C1361.83 736.8 1361.97 738.28 1362.14 739.754L1349.03 751.958C1347.7 753.195 1347.11 755.033 1347.46 756.812C1347.82 758.597 1349.07 760.064 1350.77 760.695L1367.51 766.935C1367.93 768.385 1368.37 769.823 1368.82 771.269L1358.39 785.761C1357.33 787.238 1357.1 789.156 1357.8 790.823C1358.5 792.505 1360.01 793.704 1361.82 793.992L1379.47 796.863C1380.16 798.201 1380.87 799.519 1381.59 800.815L1374.17 817.076C1373.42 818.73 1373.57 820.647 1374.59 822.172C1375.6 823.687 1377.32 824.571 1379.13 824.499L1397.02 823.871C1397.95 825.036 1398.89 826.177 1399.85 827.31L1395.76 844.75C1395.34 846.518 1395.86 848.355 1397.15 849.638C1398.43 850.931 1400.29 851.448 1402.08 851.032L1419.52 846.941C1420.65 847.905 1421.8 848.841 1422.95 849.763L1422.33 867.688C1422.26 869.501 1423.15 871.224 1424.66 872.229C1426.16 873.238 1428.09 873.391 1429.75 872.635L1446.01 865.216C1447.33 865.944 1448.64 866.651 1449.97 867.341L1452.84 884.988C1453.14 886.784 1454.33 888.303 1456.01 889.01C1457.69 889.707 1459.62 889.482 1461.07 888.424L1475.57 877.988C1477 878.442 1478.44 878.886 1479.9 879.302L1486.14 896.048C1486.78 897.747 1488.25 899.005 1490.03 899.352C1491.81 899.713 1493.63 899.116 1494.88 897.785L1507.08 884.68C1508.56 884.85 1510.04 884.992 1511.52 885.123L1520.95 900.344C1521.9 901.88 1523.59 902.826 1525.39 902.826C1527.19 902.826 1528.89 901.883 1529.86 900.344L1539.29 885.123C1540.78 884.992 1542.26 884.85 1543.73 884.68L1555.93 897.785C1557.17 899.116 1559.01 899.713 1560.79 899.352C1562.57 899.002 1564.04 897.747 1564.67 896.048L1570.91 879.302C1572.36 878.886 1573.8 878.442 1575.24 877.988L1589.74 888.424C1591.21 889.482 1593.13 889.707 1594.8 889.01C1596.48 888.32 1597.68 886.798 1597.97 884.988L1600.85 867.341C1602.18 866.651 1603.49 865.933 1604.8 865.216L1621.06 872.635C1622.71 873.391 1624.63 873.238 1626.16 872.229C1627.67 871.217 1628.55 869.501 1628.48 867.688L1627.86 849.763C1629.02 848.837 1630.16 847.905 1631.29 846.941L1648.73 851.032C1650.5 851.448 1652.37 850.931 1653.66 849.638C1654.95 848.352 1655.47 846.504 1655.05 844.75L1650.96 827.31C1651.92 826.177 1652.86 825.036 1653.78 823.871L1671.71 824.499C1673.52 824.571 1675.25 823.687 1676.25 822.172C1677.26 820.661 1677.42 818.736 1676.66 817.076L1669.24 800.815C1669.96 799.501 1670.68 798.184 1671.36 796.863L1689.01 793.992C1690.81 793.704 1692.32 792.505 1693 790.823C1693.69 789.149 1693.47 787.218 1692.41 785.761L1681.97 771.269C1682.42 769.837 1682.86 768.398 1683.28 766.935L1700.03 760.695C1701.73 760.057 1702.99 758.59 1703.33 756.812C1703.69 755.03 1703.1 753.206 1701.76 751.958L1688.66 739.754C1688.82 738.28 1688.96 736.796 1689.09 735.316L1704.31 725.886C1705.85 724.936 1706.8 723.247 1706.8 721.448C1706.8 719.648 1705.86 717.946 1704.32 716.975H1704.21ZM1602.28 843.522C1596.45 842.267 1592.78 836.519 1594.03 830.694C1595.27 824.87 1600.99 821.16 1606.82 822.408C1612.64 823.653 1616.35 829.411 1615.11 835.236C1613.86 841.061 1608.14 844.77 1602.31 843.522H1602.28ZM1597.11 808.505C1591.81 807.368 1586.57 810.745 1585.46 816.063L1580.05 841.303C1563.38 848.862 1544.69 853.091 1525.27 853.091C1505.3 853.091 1486.44 848.688 1469.45 840.783L1464.05 815.543C1462.91 810.239 1457.7 806.841 1452.4 807.985L1430.1 812.77C1425.98 808.505 1422.13 803.963 1418.59 799.179H1527.11C1528.34 799.179 1529.16 798.957 1529.16 797.841V759.356C1529.16 758.24 1528.34 758.018 1527.11 758.018H1495.39V733.714H1529.68C1532.81 733.714 1546.42 734.609 1550.76 752.02C1552.12 757.359 1555.13 774.764 1557.17 780.346C1559.21 786.587 1567.5 799.068 1576.34 799.068H1630.43C1631.04 799.068 1631.7 798.999 1632.39 798.874C1628.64 803.97 1624.52 808.79 1620.11 813.297L1597.3 808.408L1597.11 808.505ZM1446.99 843.002C1441.16 844.257 1435.44 840.548 1434.19 834.716C1432.95 828.891 1436.65 823.136 1442.48 821.888C1448.31 820.643 1454.03 824.353 1455.28 830.174C1456.52 835.999 1452.82 841.754 1446.99 843.002ZM1405.73 676.237C1408.14 681.681 1405.69 688.06 1400.25 690.487C1394.81 692.904 1388.46 690.445 1386.04 685.009C1383.61 679.573 1386.08 673.186 1391.52 670.76C1396.96 668.346 1403.3 670.801 1405.73 676.237ZM1393.08 706.193L1416.31 695.861C1421.26 693.659 1423.52 687.852 1421.3 682.894L1416.51 672.077H1435.31V756.673H1397.51C1394.22 745.093 1392.45 732.889 1392.45 720.269C1392.45 715.45 1392.71 710.7 1393.21 706.019L1393.08 706.193ZM1495.01 697.976V673.013H1539.73C1542.04 673.013 1556.06 675.686 1556.06 686.153C1556.06 694.855 1545.31 697.976 1536.47 697.976H1494.87H1495.01ZM1657.61 720.442C1657.61 723.757 1657.49 727.03 1657.25 730.289H1643.62C1642.26 730.289 1641.71 731.183 1641.71 732.518V738.759C1641.71 753.459 1633.43 756.683 1626.15 757.481C1619.21 758.261 1611.55 754.582 1610.61 750.339C1606.52 727.352 1599.73 722.464 1588.98 713.935C1602.33 705.475 1616.19 692.959 1616.19 676.144C1616.19 658.081 1603.82 646.709 1595.39 641.127C1583.53 633.326 1570.43 631.766 1566.89 631.766H1426.13C1445.23 610.478 1471.2 595.362 1500.33 589.814L1516.93 607.219C1520.68 611.137 1526.88 611.31 1530.84 607.538L1549.42 589.787C1588.25 597.033 1621.19 621.233 1640.26 654.62L1627.53 683.328C1625.34 688.285 1627.58 694.11 1632.52 696.294L1657 707.181C1657.42 711.515 1657.65 715.918 1657.65 720.356L1657.61 720.442ZM1516.85 575.173C1521.15 571.047 1527.98 571.221 1532.07 575.523C1536.16 579.822 1536.02 586.652 1531.71 590.778C1527.41 594.904 1520.58 594.731 1516.49 590.425C1512.4 586.126 1512.54 579.295 1516.85 575.17V575.173ZM1643.05 676.758C1645.46 671.314 1651.82 668.853 1657.27 671.28C1662.71 673.693 1665.17 680.086 1662.74 685.529C1660.33 690.972 1653.97 693.434 1648.53 691.007C1643.08 688.594 1640.62 682.201 1643.05 676.758Z" fill="url(#paint3_linear_1295_61)"/>
<path d="M394.039 593.906C417.439 597.546 441.359 597.546 464.759 593.906C455.919 576.746 444.479 565.826 429.399 565.826C412.239 565.826 401.319 579.866 394.039 593.906Z" fill="url(#paint4_linear_1295_61)"/>
<path d="M367 685.426H315C316.56 717.146 331.12 745.746 353.48 765.506C362.32 762.386 370.64 760.306 379.48 758.226C371.68 737.426 367.52 710.906 367 685.426Z" fill="url(#paint5_linear_1295_61)"/>
<path d="M367 675.026C367.52 647.466 371.68 621.986 379.48 601.706C370.64 599.626 362.32 597.546 353.48 594.426C331.12 614.706 316.56 643.306 315 675.026H367Z" fill="url(#paint6_linear_1295_61)"/>
<path d="M461.125 570.506C466.325 576.226 471.525 584.026 475.165 592.346C481.925 590.786 488.685 589.226 495.445 587.146C485.045 579.346 473.605 574.146 461.125 570.506Z" fill="url(#paint7_linear_1295_61)"/>
<path d="M429.398 607.426C416.398 607.426 402.878 606.386 389.878 603.786C382.078 623.026 377.918 647.986 377.398 675.026H481.398C480.878 649.026 476.718 623.546 468.918 603.786C455.918 606.386 442.398 607.426 429.398 607.426Z" fill="url(#paint8_linear_1295_61)"/>
<path d="M505.328 594.947C496.488 598.067 488.168 600.147 479.328 602.227C487.128 623.027 491.288 649.547 491.808 675.027H543.808C542.248 643.307 527.688 614.707 505.328 594.947Z" fill="url(#paint9_linear_1295_61)"/>
<path d="M383.647 768.626C376.887 770.186 370.127 771.746 363.367 773.826C373.767 781.106 385.207 786.826 397.687 790.466C392.487 784.226 387.807 776.946 383.647 768.626Z" fill="url(#paint10_linear_1295_61)"/>
<path d="M383.647 591.826C387.807 583.506 392.487 576.226 397.687 570.506C385.207 574.146 373.767 579.866 363.367 587.146C370.127 588.706 376.887 590.786 383.647 591.826Z" fill="url(#paint11_linear_1295_61)"/>
<path d="M450.199 764.466C431.479 762.906 412.759 763.426 394.039 766.546C402.359 783.706 414.319 794.626 429.399 794.626C437.719 794.626 444.479 791.506 450.199 786.306V764.466Z" fill="url(#paint12_linear_1295_61)"/>
<path d="M450.198 701.026H480.358C480.878 695.826 480.878 690.626 480.878 685.426H377.398C377.918 711.426 382.078 736.906 389.878 756.666C410.158 753.026 429.918 752.506 450.198 754.066V701.026Z" fill="url(#paint13_linear_1295_61)"/>
<path d="M541.713 701.026C542.753 695.826 543.273 690.626 543.273 685.426H491.793C491.793 690.626 491.273 695.826 491.273 701.026H541.713Z" fill="url(#paint14_linear_1295_61)"/>
<path d="M460.602 711.426V773.826H627.002V711.426H460.602ZM481.402 763.426H471.002V721.826H481.402V763.426ZM502.202 763.426H491.802V721.826H502.202V763.426ZM523.002 763.426H512.602V721.826H523.002V763.426ZM575.002 732.226H564.602V721.826H575.002V732.226ZM595.802 732.226H585.402V721.826H595.802V732.226ZM616.602 732.226H606.202V721.826H616.602V732.226Z" fill="url(#paint15_linear_1295_61)"/>
<path d="M627 846.626V784.226H460.6V846.626H538.6V867.426H315V877.826H627V867.426H549V846.626H627ZM606.2 794.626H616.6V805.026H606.2V794.626ZM585.4 794.626H595.8V805.026H585.4V794.626ZM564.6 794.626H575V805.026H564.6V794.626ZM481.4 836.226H471V794.626H481.4V836.226ZM502.2 836.226H491.8V794.626H502.2V836.226ZM523 836.226H512.6V794.626H523V836.226Z" fill="url(#paint16_linear_1295_61)"/>
</g>
<defs>
<linearGradient id="paint0_linear_1295_61" x1="960" y1="0" x2="960" y2="1080" gradientUnits="userSpaceOnUse">
<stop stop-color="#323232"/>
<stop offset="1"/>
</linearGradient>
<linearGradient id="paint1_linear_1295_61" x1="143.184" y1="421.191" x2="1782.41" y2="421.191" gradientUnits="userSpaceOnUse">
<stop stop-color="#0095D5"/>
<stop offset="0.464053" stop-color="#7272E1"/>
<stop offset="1" stop-color="#7E6EE3"/>
</linearGradient>
<linearGradient id="paint2_linear_1295_61" x1="951.501" y1="426.021" x2="951.501" y2="534.021" gradientUnits="userSpaceOnUse">
<stop stop-color="#B32BD5"/>
<stop offset="1" stop-color="#DA3C8E"/>
</linearGradient>
<linearGradient id="paint3_linear_1295_61" x1="1525.4" y1="540" x2="1525.4" y2="902.826" gradientUnits="userSpaceOnUse">
<stop stop-color="#B32BD5"/>
<stop offset="1" stop-color="#DA3C8E"/>
</linearGradient>
<linearGradient id="paint4_linear_1295_61" x1="394.221" y1="596.713" x2="465.649" y2="596.713" gradientUnits="userSpaceOnUse">
<stop stop-color="#0095D5"/>
<stop offset="0.464053" stop-color="#7272E1"/>
<stop offset="1" stop-color="#7E6EE3"/>
</linearGradient>
<linearGradient id="paint5_linear_1295_61" x1="315.166" y1="765.706" x2="380.291" y2="765.706" gradientUnits="userSpaceOnUse">
<stop stop-color="#0095D5"/>
<stop offset="0.464053" stop-color="#7272E1"/>
<stop offset="1" stop-color="#7E6EE3"/>
</linearGradient>
<linearGradient id="paint6_linear_1295_61" x1="315.166" y1="675.228" x2="380.291" y2="675.228" gradientUnits="userSpaceOnUse">
<stop stop-color="#0095D5"/>
<stop offset="0.464053" stop-color="#7272E1"/>
<stop offset="1" stop-color="#7E6EE3"/>
</linearGradient>
<linearGradient id="paint7_linear_1295_61" x1="461.213" y1="592.4" x2="495.877" y2="592.4" gradientUnits="userSpaceOnUse">
<stop stop-color="#0095D5"/>
<stop offset="0.464053" stop-color="#7272E1"/>
<stop offset="1" stop-color="#7E6EE3"/>
</linearGradient>
<linearGradient id="paint8_linear_1295_61" x1="377.667" y1="675.204" x2="482.707" y2="675.204" gradientUnits="userSpaceOnUse">
<stop stop-color="#0095D5"/>
<stop offset="0.464053" stop-color="#7272E1"/>
<stop offset="1" stop-color="#7E6EE3"/>
</linearGradient>
<linearGradient id="paint9_linear_1295_61" x1="479.494" y1="675.227" x2="544.619" y2="675.227" gradientUnits="userSpaceOnUse">
<stop stop-color="#0095D5"/>
<stop offset="0.464053" stop-color="#7272E1"/>
<stop offset="1" stop-color="#7E6EE3"/>
</linearGradient>
<linearGradient id="paint10_linear_1295_61" x1="363.456" y1="790.521" x2="398.119" y2="790.521" gradientUnits="userSpaceOnUse">
<stop stop-color="#0095D5"/>
<stop offset="0.464053" stop-color="#7272E1"/>
<stop offset="1" stop-color="#7E6EE3"/>
</linearGradient>
<linearGradient id="paint11_linear_1295_61" x1="363.456" y1="591.879" x2="398.119" y2="591.879" gradientUnits="userSpaceOnUse">
<stop stop-color="#0095D5"/>
<stop offset="0.464053" stop-color="#7272E1"/>
<stop offset="1" stop-color="#7E6EE3"/>
</linearGradient>
<linearGradient id="paint12_linear_1295_61" x1="394.184" y1="794.704" x2="450.905" y2="794.704" gradientUnits="userSpaceOnUse">
<stop stop-color="#0095D5"/>
<stop offset="0.464053" stop-color="#7272E1"/>
<stop offset="1" stop-color="#7E6EE3"/>
</linearGradient>
<linearGradient id="paint13_linear_1295_61" x1="377.665" y1="756.844" x2="482.18" y2="756.844" gradientUnits="userSpaceOnUse">
<stop stop-color="#0095D5"/>
<stop offset="0.464053" stop-color="#7272E1"/>
<stop offset="1" stop-color="#7E6EE3"/>
</linearGradient>
<linearGradient id="paint14_linear_1295_61" x1="491.408" y1="701.065" x2="543.927" y2="701.065" gradientUnits="userSpaceOnUse">
<stop stop-color="#0095D5"/>
<stop offset="0.464053" stop-color="#7272E1"/>
<stop offset="1" stop-color="#7E6EE3"/>
</linearGradient>
<linearGradient id="paint15_linear_1295_61" x1="461.031" y1="773.982" x2="629.095" y2="773.982" gradientUnits="userSpaceOnUse">
<stop stop-color="#0095D5"/>
<stop offset="0.464053" stop-color="#7272E1"/>
<stop offset="1" stop-color="#7E6EE3"/>
</linearGradient>
<linearGradient id="paint16_linear_1295_61" x1="315.804" y1="878.06" x2="630.924" y2="878.06" gradientUnits="userSpaceOnUse">
<stop stop-color="#0095D5"/>
<stop offset="0.464053" stop-color="#7272E1"/>
<stop offset="1" stop-color="#7E6EE3"/>
</linearGradient>
<clipPath id="clip0_1295_61">
<rect width="1920" height="1080" fill="white"/>
</clipPath>
</defs>
</svg>
