<svg width="1920" height="1080" viewBox="0 0 1920 1080" fill="none" xmlns="http://www.w3.org/2000/svg">
<g clip-path="url(#clip0_1312_2)">
<path d="M1920 0H0V1080H1920V0Z" fill="url(#paint0_linear_1312_2)" fill-opacity="0.5"/>
<path d="M328.741 126.746V145.77H349.651V151.633H328.741V171.682H354.407V177.381H321.607V120.924H353.669L352.849 126.746H328.741ZM369.135 177.381V172.092H375.859V139.497H369.135V134.208H381.107L382.378 144.417C384.046 140.864 386.068 138.117 388.446 136.176C390.824 134.235 393.968 133.265 397.876 133.265C399.079 133.265 400.145 133.361 401.074 133.552C402.031 133.716 403.001 133.935 403.985 134.208L401.976 140.358C401.074 140.112 400.254 139.934 399.516 139.825C398.778 139.688 397.931 139.62 396.974 139.62C393.667 139.62 390.824 140.795 388.446 143.146C386.068 145.497 384.169 149.05 382.747 153.806V172.092H391.521V177.381H369.135ZM397.343 148.804V139.415L398.04 134.208H403.985L403.001 148.804H397.343ZM418.303 177.381V172.092H425.027V139.497H418.303V134.208H430.275L431.546 144.417C433.214 140.864 435.236 138.117 437.614 136.176C439.992 134.235 443.136 133.265 447.044 133.265C448.247 133.265 449.313 133.361 450.242 133.552C451.199 133.716 452.169 133.935 453.153 134.208L451.144 140.358C450.242 140.112 449.422 139.934 448.684 139.825C447.946 139.688 447.099 139.62 446.142 139.62C442.835 139.62 439.992 140.795 437.614 143.146C435.236 145.497 433.337 149.05 431.915 153.806V172.092H440.689V177.381H418.303ZM446.511 148.804V139.415L447.208 134.208H453.153L452.169 148.804H446.511ZM483.502 133.306C487.575 133.306 490.978 134.235 493.711 136.094C496.472 137.925 498.536 140.522 499.902 143.884C501.296 147.246 501.993 151.209 501.993 155.774C501.993 160.175 501.283 164.07 499.861 167.459C498.44 170.848 496.349 173.513 493.588 175.454C490.855 177.367 487.466 178.324 483.42 178.324C479.375 178.324 475.972 177.395 473.211 175.536C470.451 173.677 468.36 171.067 466.938 167.705C465.544 164.316 464.847 160.366 464.847 155.856C464.847 151.401 465.558 147.478 466.979 144.089C468.401 140.7 470.492 138.062 473.252 136.176C476.04 134.263 479.457 133.306 483.502 133.306ZM483.502 138.923C479.785 138.923 476.97 140.303 475.056 143.064C473.17 145.797 472.227 150.061 472.227 155.856C472.227 161.541 473.157 165.764 475.015 168.525C476.901 171.286 479.703 172.666 483.42 172.666C487.138 172.666 489.926 171.286 491.784 168.525C493.67 165.764 494.613 161.514 494.613 155.774C494.613 150.034 493.684 145.797 491.825 143.064C489.967 140.303 487.192 138.923 483.502 138.923ZM516.639 177.381V172.092H523.363V139.497H516.639V134.208H528.611L529.882 144.417C531.55 140.864 533.572 138.117 535.95 136.176C538.328 134.235 541.472 133.265 545.38 133.265C546.583 133.265 547.649 133.361 548.578 133.552C549.535 133.716 550.505 133.935 551.489 134.208L549.48 140.358C548.578 140.112 547.758 139.934 547.02 139.825C546.282 139.688 545.435 139.62 544.478 139.62C541.171 139.62 538.328 140.795 535.95 143.146C533.572 145.497 531.673 149.05 530.251 153.806V172.092H539.025V177.381H516.639ZM544.847 148.804V139.415L545.544 134.208H551.489L550.505 148.804H544.847ZM621.453 116.168V140.112C623.148 137.843 625.225 136.149 627.685 135.028C630.173 133.88 632.687 133.306 635.229 133.306C639.439 133.306 642.514 134.427 644.454 136.668C646.395 138.909 647.365 142.025 647.365 146.016V177.381H640.477V146.18C640.477 143.583 639.876 141.697 638.673 140.522C637.471 139.319 635.585 138.718 633.015 138.718C631.375 138.718 629.817 139.087 628.341 139.825C626.865 140.563 625.54 141.479 624.364 142.572C623.189 143.665 622.219 144.786 621.453 145.934V177.381H614.565V116.906L621.453 116.168ZM694.647 167.951C694.647 169.673 694.934 170.93 695.508 171.723C696.082 172.516 696.971 173.103 698.173 173.486L696.492 178.324C694.634 178.078 693.007 177.49 691.613 176.561C690.219 175.604 689.208 174.169 688.579 172.256C687.021 174.251 685.081 175.768 682.757 176.807C680.434 177.818 677.865 178.324 675.049 178.324C670.731 178.324 667.328 177.108 664.84 174.675C662.353 172.242 661.109 169.017 661.109 164.999C661.109 160.544 662.845 157.127 666.316 154.749C669.788 152.371 674.803 151.182 681.363 151.182H687.718V147.574C687.718 144.458 686.803 142.258 684.971 140.973C683.167 139.661 680.653 139.005 677.427 139.005C676.006 139.005 674.339 139.183 672.425 139.538C670.512 139.866 668.435 140.426 666.193 141.219L664.389 136.012C667.041 135.028 669.528 134.331 671.851 133.921C674.175 133.511 676.389 133.306 678.493 133.306C683.878 133.306 687.91 134.563 690.588 137.078C693.294 139.565 694.647 142.955 694.647 147.246V167.951ZM676.812 173.076C678.944 173.076 680.981 172.543 682.921 171.477C684.862 170.384 686.461 168.88 687.718 166.967V155.856H681.486C676.73 155.856 673.368 156.676 671.4 158.316C669.46 159.956 668.489 162.156 668.489 164.917C668.489 167.596 669.173 169.632 670.539 171.026C671.933 172.393 674.024 173.076 676.812 173.076ZM712.901 177.381V134.208H718.764L719.297 140.194C721.046 137.98 723.233 136.285 725.857 135.11C728.508 133.907 731.078 133.306 733.565 133.306C737.802 133.306 740.877 134.427 742.79 136.668C744.731 138.909 745.701 142.025 745.701 146.016V177.381H738.813V151.1C738.813 148.148 738.649 145.77 738.321 143.966C737.993 142.135 737.31 140.809 736.271 139.989C735.232 139.142 733.62 138.718 731.433 138.718C729.738 138.718 728.139 139.087 726.636 139.825C725.16 140.563 723.834 141.492 722.659 142.613C721.511 143.706 720.554 144.813 719.789 145.934V177.381H712.901ZM787.899 115.963L794.787 116.824V177.381H788.76L788.104 171.682C786.491 173.978 784.633 175.659 782.528 176.725C780.451 177.791 778.223 178.324 775.845 178.324C772.1 178.324 769.012 177.381 766.579 175.495C764.146 173.609 762.342 170.985 761.167 167.623C759.992 164.234 759.404 160.311 759.404 155.856C759.404 151.537 760.074 147.683 761.413 144.294C762.752 140.877 764.679 138.199 767.194 136.258C769.736 134.29 772.784 133.306 776.337 133.306C778.824 133.306 781.011 133.743 782.897 134.618C784.783 135.465 786.45 136.723 787.899 138.39V115.963ZM778.141 138.841C774.533 138.841 771.759 140.249 769.818 143.064C767.877 145.879 766.907 150.143 766.907 155.856C766.907 159.573 767.303 162.689 768.096 165.204C768.889 167.719 770.05 169.605 771.581 170.862C773.139 172.119 775.039 172.748 777.28 172.748C779.74 172.748 781.831 172.051 783.553 170.657C785.302 169.263 786.751 167.691 787.899 165.942V144.376C786.724 142.627 785.302 141.274 783.635 140.317C781.968 139.333 780.136 138.841 778.141 138.841ZM828.047 116.824V166.721C828.047 168.853 828.703 170.37 830.015 171.272C831.354 172.147 833.076 172.584 835.181 172.584C836.493 172.584 837.737 172.447 838.912 172.174C840.087 171.901 841.263 171.532 842.438 171.067L844.283 176.11C843.108 176.684 841.645 177.19 839.896 177.627C838.174 178.092 836.22 178.324 834.033 178.324C830.206 178.324 827.104 177.272 824.726 175.167C822.348 173.035 821.159 170.097 821.159 166.352V122.277H807.916V116.824H828.047ZM882.258 134.208V171.928H894.435V177.381H862.045V171.928H875.37V139.661H862.455V134.208H882.258ZM876.764 113.995C878.295 113.995 879.511 114.46 880.413 115.389C881.342 116.318 881.807 117.453 881.807 118.792C881.807 120.186 881.342 121.361 880.413 122.318C879.511 123.247 878.295 123.712 876.764 123.712C875.315 123.712 874.126 123.247 873.197 122.318C872.268 121.361 871.803 120.186 871.803 118.792C871.803 117.453 872.268 116.318 873.197 115.389C874.126 114.46 875.315 113.995 876.764 113.995ZM909.573 177.381V134.208H915.436L915.969 140.194C917.718 137.98 919.905 136.285 922.529 135.11C925.18 133.907 927.75 133.306 930.237 133.306C934.474 133.306 937.549 134.427 939.462 136.668C941.403 138.909 942.373 142.025 942.373 146.016V177.381H935.485V151.1C935.485 148.148 935.321 145.77 934.993 143.966C934.665 142.135 933.982 140.809 932.943 139.989C931.904 139.142 930.292 138.718 928.105 138.718C926.41 138.718 924.811 139.087 923.308 139.825C921.832 140.563 920.506 141.492 919.331 142.613C918.183 143.706 917.226 144.813 916.461 145.934V177.381H909.573ZM993.837 129.616L995.969 136.094C994.138 136.668 992.183 137.023 990.106 137.16C988.029 137.297 985.774 137.365 983.341 137.365C985.828 138.513 987.701 140.003 988.958 141.834C990.215 143.638 990.844 145.77 990.844 148.23C990.844 151.073 990.202 153.601 988.917 155.815C987.632 158.029 985.774 159.765 983.341 161.022C980.936 162.279 978.025 162.908 974.608 162.908C973.159 162.908 971.943 162.84 970.959 162.703C970.002 162.566 969.073 162.361 968.171 162.088C967.515 162.525 966.968 163.127 966.531 163.892C966.121 164.657 965.916 165.45 965.916 166.27C965.916 167.309 966.326 168.17 967.146 168.853C967.966 169.536 969.483 169.878 971.697 169.878H979.487C982.384 169.878 984.981 170.397 987.277 171.436C989.6 172.475 991.418 173.869 992.73 175.618C994.069 177.367 994.739 179.363 994.739 181.604C994.739 185.841 992.935 189.093 989.327 191.362C985.746 193.631 980.676 194.765 974.116 194.765C969.524 194.765 965.902 194.287 963.251 193.33C960.6 192.401 958.7 190.966 957.552 189.025C956.431 187.112 955.871 184.693 955.871 181.768H962.103C962.103 183.435 962.431 184.816 963.087 185.909C963.743 187.002 964.932 187.809 966.654 188.328C968.376 188.875 970.85 189.148 974.075 189.148C977.246 189.148 979.829 188.875 981.824 188.328C983.847 187.809 985.336 187.016 986.293 185.95C987.277 184.911 987.769 183.613 987.769 182.055C987.769 180.005 986.84 178.461 984.981 177.422C983.122 176.383 980.799 175.864 978.011 175.864H970.303C966.586 175.864 963.839 175.044 962.062 173.404C960.313 171.764 959.438 169.878 959.438 167.746C959.438 166.352 959.834 164.999 960.627 163.687C961.447 162.375 962.636 161.213 964.194 160.202C961.707 158.89 959.875 157.264 958.7 155.323C957.525 153.382 956.937 151.032 956.937 148.271C956.937 145.346 957.661 142.763 959.11 140.522C960.559 138.253 962.581 136.477 965.178 135.192C967.775 133.907 970.768 133.265 974.157 133.265C977.792 133.238 980.744 133.087 983.013 132.814C985.282 132.513 987.222 132.09 988.835 131.543C990.475 130.996 992.142 130.354 993.837 129.616ZM974.157 138.308C970.686 138.308 968.116 139.251 966.449 141.137C964.809 142.996 963.989 145.374 963.989 148.271C963.989 151.196 964.836 153.601 966.531 155.487C968.226 157.373 970.822 158.316 974.321 158.316C977.382 158.316 979.706 157.428 981.291 155.651C982.904 153.874 983.71 151.401 983.71 148.23C983.71 144.977 982.904 142.517 981.291 140.85C979.706 139.155 977.328 138.308 974.157 138.308ZM1089.06 177.381H1079.3L1073.72 145.688L1067.65 177.381H1058.14L1050.27 134.208H1057.32L1062.82 173.117L1069.7 139.702H1077.86L1084.38 173.117L1089.88 134.208H1096.6L1089.06 177.381ZM1128.1 134.208V171.928H1140.27V177.381H1107.88V171.928H1121.21V139.661H1108.29V134.208H1128.1ZM1122.6 113.995C1124.13 113.995 1125.35 114.46 1126.25 115.389C1127.18 116.318 1127.65 117.453 1127.65 118.792C1127.65 120.186 1127.18 121.361 1126.25 122.318C1125.35 123.247 1124.13 123.712 1122.6 123.712C1121.16 123.712 1119.97 123.247 1119.04 122.318C1118.11 121.361 1117.64 120.186 1117.64 118.792C1117.64 117.453 1118.11 116.318 1119.04 115.389C1119.97 114.46 1121.16 113.995 1122.6 113.995ZM1189.69 175.208C1188.21 176.192 1186.42 176.957 1184.32 177.504C1182.21 178.051 1180.15 178.324 1178.13 178.324C1173.48 178.324 1169.9 177.108 1167.38 174.675C1164.87 172.242 1163.61 169.113 1163.61 165.286V139.538H1153.69V134.208H1163.61V124.409L1170.5 123.589V134.208H1185.42L1184.6 139.538H1170.5V165.204C1170.5 167.609 1171.13 169.441 1172.39 170.698C1173.67 171.955 1175.79 172.584 1178.74 172.584C1180.35 172.584 1181.84 172.393 1183.21 172.01C1184.58 171.627 1185.85 171.135 1187.02 170.534L1189.69 175.208ZM1211.47 116.168V140.112C1213.16 137.843 1215.24 136.149 1217.7 135.028C1220.19 133.88 1222.7 133.306 1225.24 133.306C1229.45 133.306 1232.53 134.427 1234.47 136.668C1236.41 138.909 1237.38 142.025 1237.38 146.016V177.381H1230.49V146.18C1230.49 143.583 1229.89 141.697 1228.69 140.522C1227.49 139.319 1225.6 138.718 1223.03 138.718C1221.39 138.718 1219.83 139.087 1218.36 139.825C1216.88 140.563 1215.56 141.479 1214.38 142.572C1213.2 143.665 1212.23 144.786 1211.47 145.934V177.381H1204.58V116.906L1211.47 116.168ZM1331.37 133.306C1332.76 133.306 1334.09 133.607 1335.35 134.208C1336.63 134.809 1337.68 135.971 1338.5 137.693C1339.32 139.415 1339.73 141.93 1339.73 145.237V177.381H1333.34V146.344C1333.34 143.638 1333.17 141.684 1332.85 140.481C1332.52 139.278 1331.58 138.677 1330.02 138.677C1328.73 138.677 1327.45 139.087 1326.16 139.907C1324.91 140.7 1323.68 142.012 1322.47 143.843V177.381H1316.04V146.344C1316.04 143.638 1315.87 141.684 1315.54 140.481C1315.22 139.278 1314.27 138.677 1312.72 138.677C1311.38 138.677 1310.08 139.087 1308.82 139.907C1307.59 140.7 1306.37 142.012 1305.17 143.843V177.381H1298.82V134.208H1304.23L1304.64 139.21C1305.81 137.543 1307.13 136.149 1308.57 135.028C1310.05 133.88 1311.87 133.306 1314.03 133.306C1315.67 133.306 1317.21 133.702 1318.66 134.495C1320.11 135.26 1321.18 136.764 1321.86 139.005C1323.03 137.31 1324.36 135.944 1325.84 134.905C1327.31 133.839 1329.16 133.306 1331.37 133.306ZM1373.94 134.208V171.928H1386.11V177.381H1353.72V171.928H1367.05V139.661H1354.13V134.208H1373.94ZM1368.44 113.995C1369.97 113.995 1371.19 114.46 1372.09 115.389C1373.02 116.318 1373.49 117.453 1373.49 118.792C1373.49 120.186 1373.02 121.361 1372.09 122.318C1371.19 123.247 1369.97 123.712 1368.44 123.712C1367 123.712 1365.81 123.247 1364.88 122.318C1363.95 121.361 1363.48 120.186 1363.48 118.792C1363.48 117.453 1363.95 116.318 1364.88 115.389C1365.81 114.46 1367 113.995 1368.44 113.995ZM1406.66 158.234C1406.8 161.569 1407.44 164.302 1408.59 166.434C1409.74 168.539 1411.26 170.097 1413.14 171.108C1415.03 172.092 1417.08 172.584 1419.29 172.584C1421.51 172.584 1423.5 172.256 1425.28 171.6C1427.08 170.944 1428.93 169.974 1430.81 168.689L1434.05 173.24C1432.03 174.825 1429.72 176.069 1427.12 176.971C1424.55 177.873 1421.92 178.324 1419.21 178.324C1415.03 178.324 1411.46 177.381 1408.51 175.495C1405.56 173.609 1403.3 170.985 1401.74 167.623C1400.21 164.234 1399.45 160.311 1399.45 155.856C1399.45 151.483 1400.23 147.601 1401.79 144.212C1403.34 140.823 1405.53 138.158 1408.35 136.217C1411.16 134.276 1414.48 133.306 1418.31 133.306C1421.94 133.306 1425.07 134.167 1427.7 135.889C1430.32 137.584 1432.33 140.016 1433.72 143.187C1435.15 146.33 1435.86 150.089 1435.86 154.462C1435.86 155.2 1435.84 155.897 1435.82 156.553C1435.79 157.182 1435.75 157.742 1435.69 158.234H1406.66ZM1418.39 138.964C1415.19 138.964 1412.51 140.098 1410.35 142.367C1408.22 144.636 1407.01 148.148 1406.71 152.904H1429.21C1429.13 148.285 1428.12 144.813 1426.18 142.49C1424.24 140.139 1421.64 138.964 1418.39 138.964ZM1484.7 175.208C1483.22 176.192 1481.43 176.957 1479.33 177.504C1477.22 178.051 1475.16 178.324 1473.13 178.324C1468.49 178.324 1464.91 177.108 1462.39 174.675C1459.88 172.242 1458.62 169.113 1458.62 165.286V139.538H1448.7V134.208H1458.62V124.409L1465.51 123.589V134.208H1480.43L1479.61 139.538H1465.51V165.204C1465.51 167.609 1466.14 169.441 1467.39 170.698C1468.68 171.955 1470.8 172.584 1473.75 172.584C1475.36 172.584 1476.85 172.393 1478.22 172.01C1479.59 171.627 1480.86 171.135 1482.03 170.534L1484.7 175.208ZM1533.86 175.208C1532.39 176.192 1530.6 176.957 1528.49 177.504C1526.39 178.051 1524.33 178.324 1522.3 178.324C1517.66 178.324 1514.08 177.108 1511.56 174.675C1509.05 172.242 1507.79 169.113 1507.79 165.286V139.538H1497.87V134.208H1507.79V124.409L1514.68 123.589V134.208H1529.6L1528.78 139.538H1514.68V165.204C1514.68 167.609 1515.31 169.441 1516.56 170.698C1517.85 171.955 1519.97 172.584 1522.92 172.584C1524.53 172.584 1526.02 172.393 1527.39 172.01C1528.75 171.627 1530.02 171.135 1531.2 170.534L1533.86 175.208ZM1554.17 158.234C1554.31 161.569 1554.95 164.302 1556.1 166.434C1557.24 168.539 1558.76 170.097 1560.65 171.108C1562.53 172.092 1564.58 172.584 1566.8 172.584C1569.01 172.584 1571.01 172.256 1572.78 171.6C1574.59 170.944 1576.43 169.974 1578.32 168.689L1581.56 173.24C1579.53 174.825 1577.22 176.069 1574.63 176.971C1572.06 177.873 1569.42 178.324 1566.71 178.324C1562.53 178.324 1558.97 177.381 1556.01 175.495C1553.06 173.609 1550.81 170.985 1549.25 167.623C1547.72 164.234 1546.95 160.311 1546.95 155.856C1546.95 151.483 1547.73 147.601 1549.29 144.212C1550.85 140.823 1553.03 138.158 1555.85 136.217C1558.66 134.276 1561.99 133.306 1565.81 133.306C1569.45 133.306 1572.58 134.167 1575.2 135.889C1577.83 137.584 1579.83 140.016 1581.23 143.187C1582.65 146.33 1583.36 150.089 1583.36 154.462C1583.36 155.2 1583.35 155.897 1583.32 156.553C1583.29 157.182 1583.25 157.742 1583.2 158.234H1554.17ZM1565.89 138.964C1562.7 138.964 1560.02 140.098 1557.86 142.367C1555.73 144.636 1554.51 148.148 1554.21 152.904H1576.72C1576.64 148.285 1575.63 144.813 1573.68 142.49C1571.74 140.139 1569.15 138.964 1565.89 138.964Z" fill="url(#paint1_linear_1312_2)"/>
<path d="M809.506 263.848V301.568H821.683V307.021H789.293V301.568H802.618V269.301H789.703V263.848H809.506ZM804.012 243.635C805.543 243.635 806.759 244.1 807.661 245.029C808.59 245.958 809.055 247.093 809.055 248.432C809.055 249.826 808.59 251.001 807.661 251.958C806.759 252.887 805.543 253.352 804.012 253.352C802.563 253.352 801.374 252.887 800.445 251.958C799.516 251.001 799.051 249.826 799.051 248.432C799.051 247.093 799.516 245.958 800.445 245.029C801.374 244.1 802.563 243.635 804.012 243.635ZM836.821 307.021V263.848H842.684L843.217 269.834C844.966 267.62 847.153 265.925 849.777 264.75C852.428 263.547 854.998 262.946 857.485 262.946C861.722 262.946 864.797 264.067 866.71 266.308C868.651 268.549 869.621 271.665 869.621 275.656V307.021H862.733V280.74C862.733 277.788 862.569 275.41 862.241 273.606C861.913 271.775 861.23 270.449 860.191 269.629C859.152 268.782 857.54 268.358 855.353 268.358C853.658 268.358 852.059 268.727 850.556 269.465C849.08 270.203 847.754 271.132 846.579 272.253C845.431 273.346 844.474 274.453 843.709 275.574V307.021H836.821ZM970.991 266.39C970.991 269.205 970.376 271.665 969.146 273.77C967.943 275.875 966.303 277.61 964.226 278.977C962.149 280.344 959.812 281.341 957.215 281.97L973.943 307.021H965.415L949.999 282.79H942.373V307.021H935.239V250.564H949.753C956.723 250.564 961.998 251.903 965.579 254.582C969.187 257.233 970.991 261.169 970.991 266.39ZM963.365 266.39C963.365 262.755 962.326 260.158 960.249 258.6C958.172 257.015 954.946 256.222 950.573 256.222H942.373V277.214H950.573C954.618 277.214 957.762 276.394 960.003 274.754C962.244 273.087 963.365 270.299 963.365 266.39ZM991.213 263.848V294.434C991.213 297.277 991.801 299.327 992.976 300.584C994.151 301.841 995.983 302.47 998.47 302.47C1000.85 302.47 1003.09 301.8 1005.19 300.461C1007.33 299.094 1008.98 297.482 1010.15 295.623V263.848H1017.04V307.021H1011.18L1010.61 301.199C1008.91 303.386 1006.82 305.067 1004.33 306.242C1001.85 307.39 999.331 307.964 996.789 307.964C992.607 307.964 989.477 306.857 987.4 304.643C985.35 302.402 984.325 299.272 984.325 295.254V263.848H991.213ZM1048.17 302.265C1051.48 302.265 1054.09 301.65 1056 300.42C1057.94 299.163 1058.91 297.495 1058.91 295.418C1058.91 294.106 1058.67 292.972 1058.17 292.015C1057.71 291.058 1056.74 290.197 1055.26 289.432C1053.79 288.667 1051.52 287.901 1048.46 287.136C1045.48 286.398 1042.88 285.551 1040.67 284.594C1038.48 283.61 1036.77 282.339 1035.54 280.781C1034.34 279.223 1033.74 277.2 1033.74 274.713C1033.74 272.28 1034.42 270.189 1035.79 268.44C1037.18 266.663 1039.11 265.31 1041.57 264.381C1044.03 263.424 1046.89 262.946 1050.14 262.946C1053.61 262.946 1056.63 263.411 1059.2 264.34C1061.8 265.242 1064 266.363 1065.8 267.702L1062.77 272.376C1061.13 271.255 1059.32 270.34 1057.35 269.629C1055.39 268.891 1053.01 268.522 1050.22 268.522C1046.83 268.522 1044.43 269.055 1043 270.121C1041.58 271.16 1040.87 272.513 1040.87 274.18C1040.87 275.437 1041.21 276.49 1041.9 277.337C1042.61 278.157 1043.8 278.909 1045.46 279.592C1047.13 280.248 1049.43 280.972 1052.35 281.765C1055.17 282.503 1057.61 283.391 1059.69 284.43C1061.8 285.469 1063.44 286.835 1064.61 288.53C1065.79 290.225 1066.37 292.411 1066.37 295.09C1066.37 298.151 1065.5 300.639 1063.75 302.552C1062 304.438 1059.73 305.818 1056.94 306.693C1054.18 307.54 1051.26 307.964 1048.17 307.964C1044.26 307.964 1040.93 307.404 1038.17 306.283C1035.43 305.135 1033.14 303.755 1031.28 302.142L1035.21 297.591C1036.91 298.985 1038.85 300.119 1041.04 300.994C1043.25 301.841 1045.63 302.265 1048.17 302.265ZM1116.94 304.848C1115.46 305.832 1113.67 306.597 1111.57 307.144C1109.46 307.691 1107.4 307.964 1105.37 307.964C1100.73 307.964 1097.15 306.748 1094.63 304.315C1092.12 301.882 1090.86 298.753 1090.86 294.926V269.178H1080.94V263.848H1090.86V254.049L1097.75 253.229V263.848H1112.67L1111.85 269.178H1097.75V294.844C1097.75 297.249 1098.38 299.081 1099.63 300.338C1100.92 301.595 1103.04 302.224 1105.99 302.224C1107.6 302.224 1109.09 302.033 1110.46 301.65C1111.83 301.267 1113.1 300.775 1114.27 300.174L1116.94 304.848Z" fill="url(#paint2_linear_1312_2)"/>
<path d="M1704.21 716.975L1688.99 707.545C1688.86 706.061 1688.71 704.581 1688.56 703.107L1701.66 690.903C1702.99 689.662 1703.59 687.824 1703.23 686.049C1702.88 684.264 1701.63 682.794 1699.92 682.166L1683.18 675.925C1682.76 674.476 1682.32 673.037 1681.87 671.592L1692.3 657.099C1693.37 655.626 1693.59 653.709 1692.89 652.037C1692.2 650.363 1690.68 649.163 1688.91 648.869L1671.26 645.998C1670.57 644.66 1669.86 643.342 1669.14 642.045L1676.56 625.75C1677.32 624.093 1677.16 622.179 1676.15 620.654C1675.14 619.142 1673.43 618.258 1671.6 618.327L1653.68 618.951C1652.75 617.793 1651.81 616.646 1650.85 615.519L1654.98 598.08C1655.39 596.308 1654.87 594.439 1653.58 593.157C1652.3 591.874 1650.44 591.343 1648.66 591.759L1631.22 595.885C1630.09 594.928 1628.94 593.982 1627.78 593.056L1628.41 575.132C1628.47 573.318 1627.59 571.595 1626.08 570.59C1624.56 569.577 1622.65 569.425 1620.98 570.177L1604.72 577.597C1603.41 576.875 1602.09 576.161 1600.77 575.471L1597.89 557.824C1597.6 556.035 1596.4 554.516 1594.72 553.837C1593.05 553.14 1591.12 553.365 1589.66 554.426L1575.17 564.862C1573.74 564.408 1572.3 563.971 1570.87 563.555L1564.63 546.809C1563.99 545.103 1562.52 543.852 1560.75 543.498C1558.96 543.148 1557.14 543.741 1555.89 545.065L1543.69 558.171C1542.21 558.008 1540.73 557.859 1539.25 557.737L1529.82 542.482C1528.87 540.94 1527.18 540 1525.35 540C1523.52 540 1521.85 540.94 1520.91 542.482L1511.48 557.737C1510 557.859 1508.51 558.008 1507.04 558.171L1494.84 545.065C1493.6 543.741 1491.76 543.148 1489.98 543.498C1488.2 543.855 1486.73 545.103 1486.1 546.809L1479.86 563.555C1478.41 563.971 1476.98 564.411 1475.56 564.862L1461.07 554.426C1459.59 553.362 1457.67 553.137 1456.01 553.837C1454.33 554.53 1453.13 556.049 1452.84 557.824L1449.96 575.471C1448.63 576.161 1447.31 576.872 1446.01 577.597L1429.75 570.177C1428.09 569.421 1426.18 569.577 1424.65 570.59C1423.14 571.595 1422.25 573.318 1422.32 575.132L1422.95 593.056C1421.79 593.982 1420.64 594.928 1419.51 595.885L1402.07 591.759C1400.3 591.347 1398.43 591.874 1397.15 593.157C1395.86 594.443 1395.33 596.298 1395.75 598.08L1399.84 615.519C1398.89 616.649 1397.94 617.793 1397.02 618.951L1379.09 618.327C1377.29 618.275 1375.56 619.142 1374.55 620.654C1373.54 622.158 1373.39 624.086 1374.14 625.75L1381.56 642.045C1380.84 643.353 1380.12 644.67 1379.43 645.998L1361.79 648.869C1359.99 649.16 1358.48 650.359 1357.8 652.037C1357.1 653.719 1357.33 655.643 1358.39 657.099L1368.82 671.592C1368.37 673.024 1367.93 674.462 1367.51 675.925L1350.77 682.166C1349.07 682.801 1347.82 684.271 1347.46 686.049C1347.11 687.831 1347.7 689.655 1349.03 690.903L1362.14 703.107C1361.97 704.581 1361.83 706.064 1361.7 707.545L1346.48 716.975C1344.94 717.929 1344 719.614 1344 721.448C1344 723.282 1344.94 724.949 1346.48 725.886L1361.7 735.316C1361.83 736.8 1361.97 738.28 1362.14 739.754L1349.03 751.958C1347.7 753.195 1347.11 755.033 1347.46 756.812C1347.82 758.597 1349.07 760.064 1350.77 760.695L1367.51 766.935C1367.93 768.385 1368.37 769.823 1368.82 771.269L1358.39 785.761C1357.33 787.238 1357.1 789.156 1357.8 790.823C1358.5 792.505 1360.01 793.704 1361.82 793.992L1379.47 796.863C1380.16 798.201 1380.87 799.519 1381.59 800.815L1374.17 817.076C1373.42 818.73 1373.57 820.647 1374.59 822.172C1375.6 823.687 1377.32 824.571 1379.13 824.499L1397.02 823.871C1397.95 825.036 1398.89 826.177 1399.85 827.31L1395.76 844.75C1395.34 846.518 1395.86 848.355 1397.15 849.638C1398.43 850.931 1400.29 851.448 1402.08 851.032L1419.52 846.941C1420.65 847.905 1421.8 848.841 1422.95 849.763L1422.33 867.688C1422.26 869.501 1423.15 871.224 1424.66 872.229C1426.16 873.238 1428.09 873.391 1429.75 872.635L1446.01 865.216C1447.33 865.944 1448.64 866.651 1449.97 867.341L1452.84 884.988C1453.14 886.784 1454.33 888.303 1456.01 889.01C1457.69 889.707 1459.62 889.482 1461.07 888.424L1475.57 877.988C1477 878.442 1478.44 878.886 1479.9 879.302L1486.14 896.048C1486.78 897.747 1488.25 899.005 1490.03 899.352C1491.81 899.713 1493.63 899.116 1494.88 897.785L1507.08 884.68C1508.56 884.85 1510.04 884.992 1511.52 885.123L1520.95 900.344C1521.9 901.88 1523.59 902.826 1525.39 902.826C1527.19 902.826 1528.89 901.883 1529.86 900.344L1539.29 885.123C1540.78 884.992 1542.26 884.85 1543.73 884.68L1555.93 897.785C1557.17 899.116 1559.01 899.713 1560.79 899.352C1562.57 899.002 1564.04 897.747 1564.67 896.048L1570.91 879.302C1572.36 878.886 1573.8 878.442 1575.24 877.988L1589.74 888.424C1591.21 889.482 1593.13 889.707 1594.8 889.01C1596.48 888.32 1597.68 886.798 1597.97 884.988L1600.85 867.341C1602.18 866.651 1603.49 865.933 1604.8 865.216L1621.06 872.635C1622.71 873.391 1624.63 873.238 1626.16 872.229C1627.67 871.217 1628.55 869.501 1628.48 867.688L1627.86 849.763C1629.02 848.837 1630.16 847.905 1631.29 846.941L1648.73 851.032C1650.5 851.448 1652.37 850.931 1653.66 849.638C1654.95 848.352 1655.47 846.504 1655.05 844.75L1650.96 827.31C1651.92 826.177 1652.86 825.036 1653.78 823.871L1671.71 824.499C1673.52 824.571 1675.24 823.687 1676.25 822.172C1677.26 820.661 1677.42 818.736 1676.66 817.076L1669.24 800.815C1669.96 799.501 1670.68 798.184 1671.36 796.863L1689.01 793.992C1690.81 793.704 1692.32 792.505 1693 790.823C1693.69 789.149 1693.47 787.218 1692.41 785.761L1681.97 771.269C1682.42 769.837 1682.86 768.398 1683.28 766.935L1700.03 760.695C1701.73 760.057 1702.99 758.59 1703.33 756.812C1703.69 755.03 1703.1 753.206 1701.76 751.958L1688.66 739.754C1688.82 738.28 1688.96 736.796 1689.09 735.316L1704.31 725.886C1705.85 724.936 1706.8 723.247 1706.8 721.448C1706.8 719.648 1705.86 717.946 1704.32 716.975H1704.21ZM1602.28 843.522C1596.45 842.267 1592.78 836.519 1594.03 830.694C1595.27 824.87 1600.99 821.16 1606.82 822.408C1612.64 823.653 1616.35 829.411 1615.11 835.236C1613.86 841.061 1608.14 844.77 1602.31 843.522H1602.28ZM1597.11 808.505C1591.81 807.368 1586.57 810.745 1585.46 816.063L1580.05 841.303C1563.38 848.862 1544.69 853.091 1525.27 853.091C1505.3 853.091 1486.44 848.688 1469.45 840.783L1464.05 815.543C1462.91 810.239 1457.7 806.841 1452.4 807.985L1430.1 812.77C1425.98 808.505 1422.13 803.963 1418.59 799.179H1527.11C1528.34 799.179 1529.16 798.957 1529.16 797.841V759.356C1529.16 758.24 1528.34 758.018 1527.11 758.018H1495.39V733.714H1529.68C1532.81 733.714 1546.42 734.609 1550.76 752.02C1552.12 757.359 1555.13 774.764 1557.17 780.346C1559.21 786.587 1567.5 799.068 1576.34 799.068H1630.43C1631.04 799.068 1631.7 798.999 1632.39 798.874C1628.64 803.97 1624.52 808.79 1620.11 813.297L1597.3 808.408L1597.11 808.505ZM1446.99 843.002C1441.16 844.257 1435.44 840.548 1434.19 834.716C1432.95 828.891 1436.65 823.136 1442.48 821.888C1448.31 820.643 1454.03 824.353 1455.28 830.174C1456.52 835.999 1452.82 841.754 1446.99 843.002ZM1405.73 676.237C1408.14 681.681 1405.69 688.06 1400.25 690.487C1394.81 692.904 1388.46 690.445 1386.04 685.009C1383.61 679.573 1386.08 673.186 1391.52 670.76C1396.96 668.346 1403.3 670.801 1405.73 676.237ZM1393.08 706.193L1416.31 695.861C1421.26 693.659 1423.52 687.852 1421.3 682.894L1416.51 672.077H1435.31V756.673H1397.51C1394.22 745.093 1392.45 732.889 1392.45 720.269C1392.45 715.45 1392.71 710.7 1393.21 706.019L1393.08 706.193ZM1495.01 697.976V673.013H1539.73C1542.04 673.013 1556.06 675.686 1556.06 686.153C1556.06 694.855 1545.31 697.976 1536.47 697.976H1494.87H1495.01ZM1657.61 720.442C1657.61 723.757 1657.49 727.03 1657.25 730.289H1643.62C1642.26 730.289 1641.71 731.183 1641.71 732.518V738.759C1641.71 753.459 1633.43 756.683 1626.15 757.481C1619.21 758.261 1611.55 754.582 1610.61 750.339C1606.52 727.352 1599.73 722.464 1588.98 713.935C1602.33 705.475 1616.19 692.959 1616.19 676.144C1616.19 658.081 1603.82 646.709 1595.39 641.127C1583.53 633.326 1570.43 631.766 1566.89 631.766H1426.13C1445.23 610.478 1471.2 595.362 1500.33 589.814L1516.93 607.219C1520.68 611.137 1526.88 611.31 1530.84 607.538L1549.42 589.787C1588.25 597.033 1621.19 621.233 1640.26 654.62L1627.53 683.328C1625.34 688.285 1627.58 694.11 1632.52 696.294L1657 707.181C1657.42 711.515 1657.65 715.918 1657.65 720.356L1657.61 720.442ZM1516.85 575.173C1521.15 571.047 1527.98 571.221 1532.07 575.523C1536.16 579.822 1536.02 586.652 1531.71 590.778C1527.41 594.904 1520.58 594.731 1516.49 590.425C1512.4 586.126 1512.54 579.295 1516.85 575.17V575.173ZM1643.05 676.758C1645.46 671.314 1651.82 668.853 1657.27 671.28C1662.71 673.693 1665.17 680.086 1662.74 685.529C1660.33 690.972 1653.97 693.434 1648.53 691.007C1643.08 688.594 1640.62 682.201 1643.05 676.758Z" fill="url(#paint3_linear_1312_2)"/>
<g filter="url(#filter0_d_1312_2)">
<g filter="url(#filter1_d_1312_2)">
<path fill-rule="evenodd" clip-rule="evenodd" d="M167 568V574.252V918H455V568H167ZM179.522 580.504H442.478V805.51H179.522V580.504ZM279.696 599.188V592.935H342.304V642.953H317.408V680.417H392.538V727.87L421.715 757.031L386.302 792.395L350.864 757.031L380.016 727.919V692.922H317.408H242.277V731.363C253.022 734.174 261.06 743.922 261.06 755.492C261.06 769.231 249.773 780.501 236.016 780.501C222.259 780.501 210.973 769.231 210.973 755.492C210.973 743.922 219.01 734.174 229.755 731.363V680.417H304.886V642.953H279.696V599.188ZM292.217 605.44H329.783V630.449H292.217V605.44ZM404.008 757.031L386.302 739.349L368.571 757.031L386.302 774.713L404.008 757.031ZM236.016 742.988C243.006 742.988 248.538 748.512 248.538 755.492C248.538 762.472 243.006 767.997 236.016 767.997C229.027 767.997 223.495 762.472 223.495 755.492C223.495 748.512 229.027 742.988 236.016 742.988ZM304.739 818.014H179.522V905.496H304.739V818.014ZM317.261 818.014H442.478V905.496H317.261V818.014ZM192.043 843.023V830.518H292.217V843.023H192.043ZM336.043 830.518V843.023H423.696V830.518H336.043ZM336.043 868.031V855.527H423.696V868.031H336.043ZM192.043 880.536V893.04H292.217V880.536H192.043ZM336.043 893.04V880.536H423.696V893.04H336.043Z" fill="url(#paint4_linear_1312_2)"/>
</g>
</g>
</g>
<defs>
<filter id="filter0_d_1312_2" x="163" y="568" width="296" height="358" filterUnits="userSpaceOnUse" color-interpolation-filters="sRGB">
<feFlood flood-opacity="0" result="BackgroundImageFix"/>
<feColorMatrix in="SourceAlpha" type="matrix" values="0 0 0 0 0 0 0 0 0 0 0 0 0 0 0 0 0 0 127 0" result="hardAlpha"/>
<feOffset dy="4"/>
<feGaussianBlur stdDeviation="2"/>
<feComposite in2="hardAlpha" operator="out"/>
<feColorMatrix type="matrix" values="0 0 0 0 0 0 0 0 0 0 0 0 0 0 0 0 0 0 0.25 0"/>
<feBlend mode="normal" in2="BackgroundImageFix" result="effect1_dropShadow_1312_2"/>
<feBlend mode="normal" in="SourceGraphic" in2="effect1_dropShadow_1312_2" result="shape"/>
</filter>
<filter id="filter1_d_1312_2" x="155" y="556" width="328" height="390" filterUnits="userSpaceOnUse" color-interpolation-filters="sRGB">
<feFlood flood-opacity="0" result="BackgroundImageFix"/>
<feColorMatrix in="SourceAlpha" type="matrix" values="0 0 0 0 0 0 0 0 0 0 0 0 0 0 0 0 0 0 127 0" result="hardAlpha"/>
<feOffset dx="8" dy="8"/>
<feGaussianBlur stdDeviation="10"/>
<feColorMatrix type="matrix" values="0 0 0 0 0 0 0 0 0 0 0 0 0 0 0 0 0 0 0.5 0"/>
<feBlend mode="normal" in2="BackgroundImageFix" result="effect1_dropShadow_1312_2"/>
<feBlend mode="normal" in="SourceGraphic" in2="effect1_dropShadow_1312_2" result="shape"/>
</filter>
<linearGradient id="paint0_linear_1312_2" x1="960" y1="0" x2="960" y2="1080" gradientUnits="userSpaceOnUse">
<stop stop-color="#323232"/>
<stop offset="1"/>
</linearGradient>
<linearGradient id="paint1_linear_1312_2" x1="314.297" y1="204.651" x2="1606.09" y2="204.651" gradientUnits="userSpaceOnUse">
<stop stop-color="#0095D5"/>
<stop offset="0.464053" stop-color="#7272E1"/>
<stop offset="1" stop-color="#7E6EE3"/>
</linearGradient>
<linearGradient id="paint2_linear_1312_2" x1="951.5" y1="226.021" x2="951.5" y2="334.021" gradientUnits="userSpaceOnUse">
<stop stop-color="#B32BD5"/>
<stop offset="1" stop-color="#DA3C8E"/>
</linearGradient>
<linearGradient id="paint3_linear_1312_2" x1="1525.4" y1="540" x2="1525.4" y2="902.826" gradientUnits="userSpaceOnUse">
<stop stop-color="#B32BD5"/>
<stop offset="1" stop-color="#DA3C8E"/>
</linearGradient>
<linearGradient id="paint4_linear_1312_2" x1="311" y1="568" x2="311" y2="918" gradientUnits="userSpaceOnUse">
<stop stop-color="#B32BD5"/>
<stop offset="1" stop-color="#DA3C8E"/>
</linearGradient>
<clipPath id="clip0_1312_2">
<rect width="1920" height="1080" fill="white"/>
</clipPath>
</defs>
</svg>
