<?xml version="1.0" encoding="utf-8"?>
<svg width="1920" height="1080" viewBox="0 0 1920 1080" fill="none" xmlns="http://www.w3.org/2000/svg">
  <g id="ink-handbook">
    <g id="background">
      <title>background</title>
      <rect width="1920" height="1080" fill="#323232"/>
      <rect width="1920" height="1080" fill="url(#paint0_linear_433:2)" fill-opacity="0.15"/>
    </g>
    <path d="M 1760.209 814.149 L 1744.988 804.719 C 1744.86 803.235 1744.714 801.755 1744.555 800.281 L 1757.66 788.077 C 1758.992 786.836 1759.588 784.998 1759.227 783.223 C 1758.877 781.438 1757.626 779.968 1755.923 779.34 L 1739.177 773.099 C 1738.758 771.65 1738.318 770.211 1737.867 768.766 L 1748.303 754.273 C 1749.367 752.8 1749.586 750.883 1748.892 749.211 C 1748.199 747.537 1746.684 746.337 1744.905 746.043 L 1727.258 743.172 C 1726.571 741.834 1725.857 740.516 1725.136 739.219 L 1732.555 722.924 C 1733.315 721.267 1733.159 719.353 1732.146 717.828 C 1731.137 716.316 1729.428 715.432 1727.604 715.501 L 1709.68 716.125 C 1708.754 714.967 1707.811 713.82 1706.851 712.693 L 1710.977 695.254 C 1711.393 693.482 1710.869 691.613 1709.579 690.331 C 1708.3 689.048 1706.442 688.517 1704.656 688.933 L 1687.217 693.059 C 1686.087 692.102 1684.939 691.156 1683.778 690.23 L 1684.405 672.306 C 1684.474 670.492 1683.59 668.769 1682.079 667.764 C 1680.564 666.751 1678.646 666.599 1676.982 667.351 L 1660.722 674.771 C 1659.408 674.049 1658.09 673.335 1656.769 672.645 L 1653.892 654.998 C 1653.6 653.209 1652.401 651.69 1650.723 651.011 C 1649.048 650.314 1647.117 650.539 1645.661 651.6 L 1631.169 662.036 C 1629.74 661.582 1628.305 661.145 1626.87 660.729 L 1620.629 643.983 C 1619.994 642.277 1618.524 641.026 1616.746 640.672 C 1614.964 640.322 1613.14 640.915 1611.892 642.239 L 1599.688 655.345 C 1598.214 655.182 1596.73 655.033 1595.25 654.911 L 1585.82 639.656 C 1584.866 638.114 1583.178 637.174 1581.347 637.174 C 1579.517 637.174 1577.845 638.114 1576.909 639.656 L 1567.479 654.911 C 1565.995 655.033 1564.511 655.182 1563.041 655.345 L 1550.837 642.239 C 1549.599 640.915 1547.762 640.322 1545.983 640.672 C 1544.198 641.029 1542.728 642.277 1542.1 643.983 L 1535.86 660.729 C 1534.41 661.145 1532.975 661.585 1531.56 662.036 L 1517.068 651.6 C 1515.595 650.536 1513.674 650.311 1512.006 651.011 C 1510.332 651.704 1509.129 653.223 1508.837 654.998 L 1505.96 672.645 C 1504.628 673.335 1503.311 674.046 1502.007 674.771 L 1485.747 667.351 C 1484.093 666.595 1482.176 666.751 1480.65 667.764 C 1479.139 668.769 1478.255 670.492 1478.324 672.306 L 1478.948 690.23 C 1477.79 691.156 1476.642 692.102 1475.509 693.059 L 1458.07 688.933 C 1456.298 688.521 1454.429 689.048 1453.146 690.331 C 1451.857 691.617 1451.333 693.472 1451.749 695.254 L 1455.84 712.693 C 1454.887 713.823 1453.944 714.967 1453.018 716.125 L 1435.093 715.501 C 1433.287 715.449 1431.557 716.316 1430.552 717.828 C 1429.539 719.332 1429.387 721.26 1430.139 722.924 L 1437.558 739.219 C 1436.837 740.527 1436.123 741.844 1435.433 743.172 L 1417.786 746.043 C 1415.993 746.334 1414.482 747.533 1413.799 749.211 C 1413.105 750.893 1413.331 752.817 1414.388 754.273 L 1424.824 768.766 C 1424.37 770.198 1423.93 771.636 1423.513 773.099 L 1406.768 779.34 C 1405.069 779.975 1403.817 781.445 1403.464 783.223 C 1403.11 785.005 1403.703 786.829 1405.031 788.077 L 1418.136 800.281 C 1417.973 801.755 1417.828 803.238 1417.703 804.719 L 1402.482 814.149 C 1400.94 815.103 1400 816.788 1400 818.622 C 1400 820.456 1400.94 822.123 1402.482 823.06 L 1417.703 832.49 C 1417.828 833.974 1417.973 835.454 1418.136 836.928 L 1405.031 849.132 C 1403.703 850.369 1403.11 852.207 1403.464 853.986 C 1403.817 855.771 1405.069 857.238 1406.768 857.869 L 1423.513 864.109 C 1423.93 865.559 1424.37 866.997 1424.824 868.443 L 1414.388 882.935 C 1413.327 884.412 1413.102 886.33 1413.799 887.997 C 1414.496 889.679 1416.011 890.878 1417.821 891.166 L 1435.468 894.037 C 1436.158 895.375 1436.865 896.693 1437.593 897.989 L 1430.174 914.25 C 1429.418 915.904 1429.574 917.821 1430.586 919.346 C 1431.599 920.861 1433.322 921.745 1435.128 921.673 L 1453.018 921.045 C 1453.951 922.21 1454.89 923.351 1455.847 924.484 L 1451.756 941.924 C 1451.34 943.692 1451.863 945.529 1453.153 946.812 C 1454.433 948.105 1456.294 948.622 1458.076 948.206 L 1475.516 944.115 C 1476.649 945.079 1477.797 946.015 1478.955 946.937 L 1478.331 964.862 C 1478.262 966.675 1479.146 968.398 1480.657 969.403 C 1482.162 970.412 1484.09 970.565 1485.754 969.809 L 1502.014 962.39 C 1503.325 963.118 1504.642 963.825 1505.967 964.515 L 1508.844 982.162 C 1509.136 983.958 1510.335 985.477 1512.013 986.184 C 1513.688 986.881 1515.619 986.656 1517.075 985.598 L 1531.567 975.162 C 1532.999 975.616 1534.438 976.06 1535.901 976.476 L 1542.142 993.222 C 1542.776 994.921 1544.246 996.179 1546.025 996.526 C 1547.807 996.887 1549.631 996.29 1550.879 994.959 L 1563.083 981.854 C 1564.556 982.024 1566.04 982.166 1567.521 982.297 L 1576.951 997.518 C 1577.901 999.054 1579.589 1000 1581.389 1000 C 1583.188 1000 1584.891 999.057 1585.861 997.518 L 1595.292 982.297 C 1596.776 982.166 1598.256 982.024 1599.729 981.854 L 1611.933 994.959 C 1613.171 996.29 1615.009 996.887 1616.787 996.526 C 1618.573 996.176 1620.043 994.921 1620.67 993.222 L 1626.911 976.476 C 1628.36 976.06 1629.799 975.616 1631.245 975.162 L 1645.737 985.598 C 1647.211 986.656 1649.131 986.881 1650.799 986.184 C 1652.477 985.494 1653.677 983.972 1653.968 982.162 L 1656.846 964.515 C 1658.177 963.825 1659.494 963.107 1660.798 962.39 L 1677.058 969.809 C 1678.712 970.565 1680.629 970.412 1682.155 969.403 C 1683.667 968.391 1684.547 966.675 1684.481 964.862 L 1683.857 946.937 C 1685.015 946.011 1686.163 945.079 1687.293 944.115 L 1704.732 948.206 C 1706.504 948.622 1708.373 948.105 1709.656 946.812 C 1710.945 945.526 1711.469 943.678 1711.053 941.924 L 1706.962 924.484 C 1707.919 923.351 1708.862 922.21 1709.784 921.045 L 1727.708 921.673 C 1729.515 921.745 1731.245 920.861 1732.25 919.346 C 1733.263 917.835 1733.419 915.91 1732.659 914.25 L 1725.24 897.989 C 1725.965 896.675 1726.675 895.358 1727.362 894.037 L 1745.009 891.166 C 1746.805 890.878 1748.317 889.679 1748.996 887.997 C 1749.69 886.323 1749.471 884.392 1748.407 882.935 L 1737.971 868.443 C 1738.422 867.011 1738.862 865.572 1739.281 864.109 L 1756.027 857.869 C 1757.73 857.231 1758.985 855.764 1759.331 853.986 C 1759.692 852.204 1759.096 850.38 1757.764 849.132 L 1744.659 836.928 C 1744.818 835.454 1744.964 833.97 1745.092 832.49 L 1760.313 823.06 C 1761.855 822.11 1762.795 820.421 1762.795 818.622 C 1762.795 816.822 1761.859 815.12 1760.316 814.149 L 1760.209 814.149 Z M 1658.277 940.696 C 1652.453 939.441 1648.778 933.693 1650.026 927.868 C 1651.271 922.044 1656.995 918.334 1662.819 919.582 C 1668.644 920.827 1672.354 926.585 1671.106 932.41 C 1669.857 938.235 1664.137 941.944 1658.312 940.696 L 1658.277 940.696 Z M 1653.112 905.679 C 1647.807 904.542 1642.572 907.919 1641.462 913.237 L 1636.054 938.477 C 1619.377 946.036 1600.69 950.265 1581.274 950.265 C 1561.304 950.265 1542.444 945.862 1525.455 937.957 L 1520.046 912.717 C 1518.909 907.413 1513.702 904.015 1508.397 905.159 L 1486.104 909.944 C 1481.978 905.679 1478.13 901.137 1474.593 896.353 L 1583.112 896.353 C 1584.339 896.353 1585.157 896.131 1585.157 895.015 L 1585.157 856.53 C 1585.157 855.414 1584.339 855.192 1583.112 855.192 L 1551.388 855.192 L 1551.388 830.888 L 1585.678 830.888 C 1588.808 830.888 1602.423 831.783 1606.757 849.194 C 1608.12 854.533 1611.126 871.938 1613.171 877.52 C 1615.21 883.761 1623.503 896.242 1632.344 896.242 L 1686.43 896.242 C 1687.044 896.242 1687.699 896.173 1688.389 896.048 C 1684.644 901.144 1680.519 905.964 1676.115 910.471 L 1653.302 905.582 L 1653.112 905.679 Z M 1502.989 940.176 C 1497.164 941.431 1491.443 937.722 1490.195 931.89 C 1488.95 926.065 1492.65 920.31 1498.481 919.062 C 1504.306 917.817 1510.027 921.527 1511.275 927.348 C 1512.519 933.173 1508.817 938.928 1502.989 940.176 Z M 1461.731 773.411 C 1464.144 778.855 1461.689 785.234 1456.253 787.661 C 1450.81 790.078 1444.465 787.619 1442.038 782.183 C 1439.611 776.747 1442.079 770.36 1447.516 767.934 C 1452.959 765.52 1459.304 767.975 1461.731 773.411 Z M 1449.076 803.367 L 1472.305 793.035 C 1477.263 790.833 1479.517 785.026 1477.298 780.068 L 1472.513 769.251 L 1491.305 769.251 L 1491.305 853.847 L 1453.514 853.847 C 1450.224 842.267 1448.452 830.063 1448.452 817.443 C 1448.452 812.624 1448.712 807.874 1449.211 803.193 L 1449.076 803.367 Z M 1551.007 795.15 L 1551.007 770.187 L 1595.732 770.187 C 1598.044 770.187 1612.062 772.86 1612.062 783.327 C 1612.062 792.029 1601.314 795.15 1592.473 795.15 L 1550.868 795.15 L 1551.007 795.15 Z M 1713.611 817.616 C 1713.611 820.931 1713.49 824.204 1713.247 827.463 L 1699.622 827.463 C 1698.259 827.463 1697.712 828.357 1697.712 829.692 L 1697.712 835.933 C 1697.712 850.633 1689.425 853.857 1682.145 854.655 C 1675.211 855.435 1667.548 851.756 1666.612 847.513 C 1662.521 824.526 1655.726 819.638 1644.978 811.109 C 1658.326 802.649 1672.194 790.133 1672.194 773.318 C 1672.194 755.255 1659.817 743.883 1651.392 738.301 C 1639.535 730.5 1626.429 728.94 1622.893 728.94 L 1482.131 728.94 C 1501.234 707.652 1527.202 692.536 1556.326 686.988 L 1572.933 704.393 C 1576.677 708.311 1582.883 708.484 1586.836 704.712 L 1605.419 686.961 C 1644.25 694.207 1677.187 718.407 1696.255 751.794 L 1683.531 780.502 C 1681.337 785.459 1683.576 791.284 1688.524 793.468 L 1713.001 804.355 C 1713.424 808.689 1713.646 813.092 1713.646 817.53 L 1713.611 817.616 Z M 1572.849 672.347 C 1577.149 668.221 1583.979 668.395 1588.07 672.697 C 1592.161 676.996 1592.022 683.826 1587.713 687.952 C 1583.414 692.078 1576.583 691.905 1572.492 687.599 C 1568.401 683.3 1568.54 676.469 1572.849 672.344 L 1572.849 672.347 Z M 1699.05 773.932 C 1701.46 768.488 1707.822 766.027 1713.265 768.454 C 1718.708 770.867 1721.17 777.26 1718.743 782.703 C 1716.333 788.146 1709.971 790.608 1704.528 788.181 C 1699.085 785.768 1696.623 779.375 1699.05 773.932 Z" style="fill: rgb(90, 174, 251);">
      <title>rust logo</title>
    </path>
    <text style="fill: rgb(155, 155, 155); font-family: Fira Mono, monospace; font-size: 82px; white-space: pre; --darkreader-inline-fill:#a9a196;" x="640.221" y="178.381"><title>text-l1</title>Using Rust to</text>
    <text style="fill: rgb(90, 174, 251); font-family: Fira Mono, monospace; font-size: 82px; white-space: pre;" y="278.021" x="23.556" transform="matrix(1, 0, 0, 1, 395.277435, 50)"><title>text-l2</title>Write a multi threaded<tspan x="23.555999755859375" dy="1em">​</tspan></text>
    <text style="fill: rgb(90, 174, 251); font-family: Fira Mono, monospace; font-size: 82px; white-space: pre;" y="278.021" x="23.556" transform="matrix(1, 0, 0, 1, 567.464722, 50)"><title>text-l3</title><tspan x="23.555999755859375" dy="1em">​</tspan>non binary tree</text>
    <g id="1421942630 1" transform="matrix(1, 0, 0, 1, -598.454224, -1.706627)">
      <title>term icon</title>
      <rect x="750.5" y="658.5" width="369" height="315.948" fill="black" fill-opacity="0.5"/>
      <g id="g63">
        <g id="g-1">
          <path id="path-1" fill-rule="evenodd" clip-rule="evenodd" d="M858.119 862.464L863.132 862.384L867.748 862.119L871.992 861.695L875.838 861.084L879.313 860.262L880.878 859.811L882.363 859.307L883.769 858.777L885.069 858.193L886.263 857.53L887.35 856.867L889.313 855.408L890.215 854.639L891.011 853.843L891.78 853.047L892.47 852.198L893.106 851.323L893.663 850.448L894.167 849.546L894.592 848.617L894.937 847.662L895.228 846.681L895.441 845.673L895.626 844.665L895.732 843.577L895.759 842.516L895.706 840.951L895.52 839.439L895.228 837.98L894.831 836.575L894.327 835.222L893.69 833.948L892.947 832.702L892.098 831.535L891.143 830.394L890.109 829.306L888.995 828.245L887.828 827.237L886.581 826.256L885.228 825.328L883.822 824.399L882.337 823.524L879.18 821.826L875.785 820.235L872.151 818.749L868.278 817.317L851.885 812.065L847.827 810.765L843.795 809.412L835.757 806.441L833.794 805.645L831.858 804.823L830.001 803.948L828.224 803.019L826.447 802.038L824.776 801.03L823.104 799.995L821.539 798.881L820.027 797.767L818.569 796.547L817.216 795.274L815.889 793.974L814.643 792.595L813.476 791.136L812.388 789.65L811.38 788.112L810.452 786.494L809.682 784.796L808.993 782.992L808.436 781.109L808.011 779.119L807.719 777.05L807.507 774.902L807.454 772.674L807.613 768.668L808.197 764.875L809.072 761.294L810.346 757.846L811.964 754.609L812.892 753.044L813.927 751.559L815.041 750.073L816.287 748.668L818.966 745.962L820.452 744.662L822.017 743.469L825.386 741.214L829.073 739.224L833.078 737.447L837.428 735.935L842.097 734.662L847.084 733.574L852.416 732.779V706.465H874.883V732.328L880.745 732.46L886.395 732.858L891.86 733.521L894.486 733.972L897.112 734.45L901.966 735.537L906.316 736.545L910.11 737.553L913.346 738.508L908.226 756.387L904.778 755.326L900.905 754.291L896.661 753.23L891.966 752.142L889.446 751.612L886.793 751.188L883.955 750.816L880.984 750.498L874.591 750.1L867.562 749.967L863.636 750.047L859.922 750.286L856.448 750.71L853.211 751.294L850.187 752.01L847.402 752.938L844.856 753.999L843.662 754.609L842.521 755.246L841.46 755.909L840.479 756.625L839.524 757.368L838.702 758.164L837.906 758.96L837.19 759.808L836.5 760.684L835.943 761.586L835.413 762.541L834.962 763.549L834.59 764.557L834.298 765.591L834.033 766.679L833.874 767.793L833.768 768.933L833.741 770.127L833.768 771.4L833.901 772.674L834.086 773.841L834.378 774.981L834.749 776.069L835.2 777.103L835.731 778.111L836.314 779.066L836.978 779.968L837.747 780.844L838.543 781.692L839.444 782.515L840.426 783.337L841.46 784.106L842.575 784.875L843.768 785.592L844.988 786.308L846.315 786.998L849.073 788.324L852.044 789.544L855.28 790.738L870.002 795.539L890.082 802.648L894.671 804.584L896.847 805.619L898.969 806.68L901.011 807.82L902.974 808.988L904.884 810.208L906.714 811.481L908.465 812.807L910.136 814.187L911.701 815.619L913.187 817.104L914.592 818.67L915.866 820.314L917.112 821.985L918.226 823.762L919.234 825.566L920.136 827.476L920.853 829.492L921.463 831.588L921.94 833.763L922.285 836.071L922.524 838.431L922.577 840.925L922.365 844.877L921.834 848.644L920.906 852.225L919.659 855.62L918.863 857.238L917.988 858.803L917.059 860.315L916.025 861.774L914.858 863.207L913.637 864.586L912.311 865.886L910.905 867.159L909.393 868.379L907.802 869.546L906.104 870.66L904.3 871.668L900.401 873.578L896.104 875.276L891.382 876.708L886.289 877.928L880.798 878.883L874.883 879.653V909.203H852.416V880.104L843.37 879.918L839.206 879.653L835.227 879.308L831.46 878.883L827.932 878.3L824.616 877.663L821.539 876.92L815.942 875.355L811.115 873.843L807.03 872.385L805.279 871.642L803.688 870.926L810.425 853.763L814.722 855.328L819.391 856.867L824.457 858.299L829.948 859.732L832.866 860.368L835.97 860.925L839.232 861.403L842.681 861.774L850.028 862.305L858.119 862.464ZM938.811 908.513H1074.23V926.63H938.811V908.513Z" fill="#66FF00"/>
          <path id="path-2" fill-rule="evenodd" clip-rule="evenodd" d="M858.119 862.464L863.132 862.384L867.748 862.119L871.992 861.695L875.838 861.084L879.313 860.262L880.878 859.811L882.363 859.307L883.769 858.777L885.069 858.193L886.263 857.53L887.35 856.867L889.313 855.408L890.215 854.639L891.011 853.843L891.78 853.047L892.47 852.198L893.106 851.323L893.663 850.448L894.167 849.546L894.592 848.617L894.937 847.662L895.228 846.681L895.441 845.673L895.626 844.665L895.732 843.577L895.759 842.516L895.706 840.951L895.52 839.439L895.228 837.98L894.831 836.575L894.327 835.222L893.69 833.948L892.947 832.702L892.098 831.535L891.143 830.394L890.109 829.306L888.995 828.245L887.828 827.237L886.581 826.256L885.228 825.328L883.822 824.399L882.337 823.524L879.18 821.826L875.785 820.235L872.151 818.749L868.278 817.317L851.885 812.065L847.827 810.765L843.795 809.412L835.757 806.441L833.794 805.645L831.858 804.823L830.001 803.948L828.224 803.019L826.447 802.038L824.776 801.03L823.104 799.995L821.539 798.881L820.027 797.767L818.569 796.547L817.216 795.274L815.889 793.974L814.643 792.595L813.476 791.136L812.388 789.65L811.38 788.112L810.452 786.494L809.682 784.796L808.993 782.992L808.436 781.109L808.011 779.119L807.719 777.05L807.507 774.902L807.454 772.674L807.613 768.668L808.197 764.875L809.072 761.294L810.346 757.846L811.964 754.609L812.892 753.044L813.927 751.559L815.041 750.073L816.287 748.668L818.966 745.962L820.452 744.662L822.017 743.468L825.386 741.214L829.073 739.224L833.078 737.447L837.428 735.935L842.097 734.662L847.084 733.574L852.416 732.779V706.465H874.883V732.328L880.745 732.46L886.395 732.858L891.86 733.521L894.486 733.972L897.112 734.45L901.966 735.537L906.316 736.545L910.11 737.553L913.346 738.508L908.226 756.387L904.778 755.326L900.905 754.291L896.661 753.23L891.966 752.142L889.446 751.612L886.793 751.188L883.955 750.816L880.984 750.498L874.591 750.1L867.562 749.967L863.636 750.047L859.922 750.286L856.448 750.71L853.211 751.294L850.187 752.01L847.402 752.938L844.856 753.999L843.662 754.609L842.521 755.246L841.46 755.909L840.479 756.625L839.524 757.368L838.702 758.164L837.906 758.96L837.19 759.808L836.5 760.684L835.943 761.586L835.413 762.541L834.962 763.549L834.59 764.557L834.298 765.591L834.033 766.679L833.874 767.793L833.768 768.933L833.741 770.127L833.768 771.4L833.901 772.674L834.086 773.841L834.378 774.981L834.749 776.069L835.2 777.103L835.731 778.111L836.314 779.066L836.978 779.968L837.747 780.844L838.543 781.692L839.444 782.515L840.426 783.337L841.46 784.106L842.575 784.875L843.768 785.592L844.988 786.308L846.315 786.998L849.073 788.324L852.044 789.544L855.28 790.738L870.002 795.539L890.082 802.648L894.671 804.584L896.847 805.619L898.969 806.68L901.011 807.82L902.974 808.988L904.884 810.208L906.714 811.481L908.465 812.807L910.136 814.187L911.701 815.619L913.187 817.104L914.592 818.67L915.866 820.314L917.112 821.985L918.226 823.762L919.234 825.566L920.136 827.476L920.853 829.492L921.463 831.588L921.94 833.763L922.285 836.071L922.524 838.431L922.577 840.925L922.364 844.877L921.834 848.644L920.906 852.225L919.659 855.62L918.863 857.238L917.988 858.803L917.059 860.315L916.025 861.774L914.858 863.207L913.637 864.586L912.311 865.886L910.905 867.159L909.393 868.379L907.802 869.546L906.104 870.66L904.3 871.668L900.401 873.578L896.104 875.276L891.382 876.708L886.289 877.928L880.798 878.883L874.883 879.653V909.202H852.416V880.104L843.37 879.918L839.206 879.653L835.227 879.308L831.46 878.883L827.932 878.3L824.616 877.663L821.539 876.92L815.942 875.355L811.115 873.843L807.03 872.385L805.279 871.642L803.688 870.926L810.425 853.763L814.722 855.328L819.391 856.867L824.457 858.299L829.948 859.732L832.866 860.368L835.97 860.925L839.232 861.403L842.681 861.774L850.028 862.305L858.119 862.464Z" stroke-width="9.69922" style="paint-order: fill; fill: rgb(59, 148, 0); stroke: rgb(59, 148, 0);"/>
          <path id="path-3" fill-rule="evenodd" clip-rule="evenodd" d="M938.809 908.513H1074.22V926.63H938.809V908.513Z" stroke-width="9.69922" style="paint-order: fill; fill: rgb(59, 148, 0); stroke: rgb(59, 148, 0);"/>
        </g>
      </g>
      <rect x="750.5" y="658.5" width="369" height="315.948" stroke="#9B9B9B" stroke-width="13"/>
    </g>
    <path d="M 912.155 674.064 L 1007.844 674.064 C 1011.809 674.064 1015.019 670.85 1015.019 666.885 L 1015.019 609.472 C 1015.019 605.507 1011.809 602.297 1007.844 602.297 L 912.155 602.297 C 908.19 602.297 904.98 605.507 904.98 609.472 L 904.98 666.885 C 904.98 670.85 908.19 674.064 912.155 674.064 Z M 919.33 616.651 L 1000.665 616.651 L 1000.665 659.709 L 919.33 659.709 L 919.33 616.651 Z M 857.134 829.56 L 857.134 772.144 C 857.134 768.182 853.921 764.969 849.956 764.969 L 792.543 764.969 C 788.578 764.969 785.368 768.182 785.368 772.144 L 785.368 829.56 C 785.368 833.522 788.578 836.735 792.543 836.735 L 849.956 836.735 C 853.921 836.735 857.134 833.522 857.134 829.56 Z M 842.78 822.385 L 799.721 822.385 L 799.721 779.326 L 842.78 779.326 L 842.78 822.385 Z M 931.293 764.969 C 927.332 764.969 924.118 768.182 924.118 772.144 L 924.118 829.56 C 924.118 833.522 927.332 836.735 931.293 836.735 L 988.709 836.735 C 992.671 836.735 995.885 833.522 995.885 829.56 L 995.885 772.144 C 995.885 768.182 992.671 764.969 988.709 764.969 L 931.293 764.969 Z M 981.531 822.381 L 938.472 822.381 L 938.472 779.323 L 981.531 779.323 L 981.531 822.381 Z M 919.332 927.64 L 861.919 927.64 C 857.958 927.64 854.744 930.853 854.744 934.818 L 854.744 992.231 C 854.744 996.196 857.958 999.406 861.919 999.406 L 919.332 999.406 C 923.297 999.406 926.511 996.196 926.511 992.231 L 926.511 934.818 C 926.511 930.853 923.297 927.64 919.332 927.64 Z M 912.157 985.056 L 869.098 985.056 L 869.098 941.998 L 912.157 941.998 L 912.157 985.056 Z M 1058.083 927.643 L 1000.67 927.643 L 1000.67 927.64 C 996.705 927.64 993.492 930.853 993.492 934.818 L 993.492 992.231 C 993.492 996.196 996.705 999.406 1000.67 999.406 L 1058.083 999.406 C 1062.045 999.406 1065.258 996.196 1065.258 992.231 L 1065.258 934.818 C 1065.258 930.853 1062.045 927.64 1058.083 927.64 L 1058.083 927.643 Z M 1050.905 985.056 L 1007.846 985.056 L 1007.846 941.998 L 1050.905 941.998 L 1050.905 985.056 Z M 1127.458 764.97 L 1070.045 764.97 C 1066.08 764.97 1062.866 768.184 1062.866 772.145 L 1062.866 829.562 C 1062.866 833.523 1066.08 836.737 1070.045 836.737 L 1127.458 836.737 C 1131.422 836.737 1134.633 833.523 1134.633 829.562 L 1134.633 772.145 C 1134.633 768.184 1131.422 764.97 1127.458 764.97 Z M 1120.282 822.383 L 1077.223 822.383 L 1077.223 779.325 L 1120.282 779.325 L 1120.282 822.383 Z M 814.076 748.223 L 814.076 719.518 C 814.076 715.553 817.29 712.339 821.255 712.339 L 952.828 712.339 L 952.828 690.809 C 952.828 686.848 956.038 683.634 960.003 683.634 C 963.968 683.634 967.178 686.848 967.178 690.809 L 967.178 712.339 L 1098.751 712.339 C 1102.716 712.339 1105.93 715.553 1105.93 719.518 L 1105.93 748.226 L 1105.93 748.223 C 1105.93 752.187 1102.716 755.401 1098.751 755.401 C 1094.79 755.401 1091.576 752.187 1091.576 748.223 L 1091.576 726.694 L 967.18 726.694 L 967.18 748.223 C 967.18 752.187 963.969 755.401 960.005 755.401 C 956.04 755.401 952.829 752.187 952.829 748.223 L 952.829 726.694 L 828.433 726.694 L 828.433 748.223 C 828.433 752.187 825.219 755.401 821.258 755.401 C 817.292 755.401 814.079 752.187 814.079 748.223 L 814.076 748.223 Z M 1022.2 889.365 L 897.804 889.365 L 897.804 910.894 C 897.804 914.855 894.591 918.069 890.629 918.069 C 886.664 918.069 883.451 914.855 883.451 910.894 L 883.451 882.186 C 883.451 878.224 886.664 875.01 890.629 875.01 L 952.828 875.01 L 952.828 853.481 C 952.828 849.516 956.039 846.302 960.003 846.302 C 963.968 846.302 967.179 849.516 967.179 853.481 L 967.179 875.01 L 1029.378 875.01 C 1033.342 875.01 1036.556 878.224 1036.556 882.186 L 1036.556 910.894 C 1036.556 914.855 1033.342 918.069 1029.378 918.069 C 1025.416 918.069 1022.202 914.855 1022.202 910.894 L 1022.2 889.365 Z" style="fill: rgb(90, 174, 251);">
      <title>tree</title>
    </path>
  </g>
</svg>