<?xml version="1.0" encoding="utf-8"?>
<svg width="1920" height="1080" viewBox="0 0 1920 1080" fill="none" xmlns="http://www.w3.org/2000/svg">
  <defs>
    <symbol id="t" overflow="visible">
      <path d="m18.766-1.125c-0.96875 0.5-1.9805 0.875-3.0312 1.125-1.043 0.25781-2.1367 0.39062-3.2812 0.39062-3.3984 0-6.0898-0.94531-8.0781-2.8438-1.9922-1.9062-2.9844-4.4844-2.9844-7.7344 0-3.2578 0.99219-5.8359 2.9844-7.7344 1.9883-1.9062 4.6797-2.8594 8.0781-2.8594 1.1445 0 2.2383 0.13281 3.2812 0.39062 1.0508 0.25 2.0625 0.625 3.0312 1.125v4.2188c-0.98047-0.65625-1.9453-1.1406-2.8906-1.4531-0.94922-0.3125-1.9492-0.46875-3-0.46875-1.875 0-3.3516 0.60547-4.4219 1.8125-1.0742 1.1992-1.6094 2.8555-1.6094 4.9688 0 2.1055 0.53516 3.7617 1.6094 4.9688 1.0703 1.1992 2.5469 1.7969 4.4219 1.7969 1.0508 0 2.0508-0.14844 3-0.45312 0.94531-0.3125 1.9102-0.80078 2.8906-1.4688z"/>
    </symbol>
    <symbol id="c" overflow="visible">
      <path d="m13.734-11.141c-0.4375-0.19531-0.87109-0.34375-1.2969-0.4375-0.41797-0.10156-0.83984-0.15625-1.2656-0.15625-1.2617 0-2.2305 0.40625-2.9062 1.2188-0.67969 0.80469-1.0156 1.9531-1.0156 3.4531v7.0625h-4.8906v-15.312h4.8906v2.5156c0.625-1 1.3438-1.7266 2.1562-2.1875 0.82031-0.46875 1.8008-0.70312 2.9375-0.70312 0.16406 0 0.34375 0.011719 0.53125 0.03125 0.19531 0.011719 0.47656 0.039062 0.84375 0.078125z"/>
    </symbol>
    <symbol id="a" overflow="visible">
      <path d="m17.641-7.7031v1.4062h-11.453c0.125 1.1484 0.53906 2.0078 1.25 2.5781 0.70703 0.57422 1.7031 0.85938 2.9844 0.85938 1.0312 0 2.082-0.14844 3.1562-0.45312 1.082-0.3125 2.1914-0.77344 3.3281-1.3906v3.7656c-1.1562 0.4375-2.3125 0.76562-3.4688 0.98438-1.1562 0.22656-2.3125 0.34375-3.4688 0.34375-2.7734 0-4.9297-0.70312-6.4688-2.1094-1.5312-1.4062-2.2969-3.3789-2.2969-5.9219 0-2.5 0.75391-4.4609 2.2656-5.8906 1.5078-1.4375 3.582-2.1562 6.2188-2.1562 2.4062 0 4.332 0.73047 5.7812 2.1875 1.4453 1.4492 2.1719 3.3828 2.1719 5.7969zm-5.0312-1.625c0-0.92578-0.27344-1.6719-0.8125-2.2344-0.54297-0.57031-1.25-0.85938-2.125-0.85938-0.94922 0-1.7188 0.26562-2.3125 0.79688s-0.96484 1.2969-1.1094 2.2969z"/>
    </symbol>
    <symbol id="k" overflow="visible">
      <path d="m9.2188-6.8906c-1.0234 0-1.793 0.17188-2.3125 0.51562-0.51172 0.34375-0.76562 0.85547-0.76562 1.5312 0 0.625 0.20703 1.1172 0.625 1.4688 0.41406 0.34375 0.98828 0.51562 1.7188 0.51562 0.92578 0 1.7031-0.32812 2.3281-0.98438 0.63281-0.66406 0.95312-1.4922 0.95312-2.4844v-0.5625zm7.4688-1.8438v8.7344h-4.9219v-2.2656c-0.65625 0.92969-1.3984 1.6055-2.2188 2.0312-0.82422 0.41406-1.8242 0.625-3 0.625-1.5859 0-2.8711-0.45703-3.8594-1.375-0.99219-0.92578-1.4844-2.1289-1.4844-3.6094 0-1.7891 0.61328-3.1016 1.8438-3.9375 1.2383-0.84375 3.1797-1.2656 5.8281-1.2656h2.8906v-0.39062c0-0.76953-0.30859-1.332-0.92188-1.6875-0.61719-0.36328-1.5703-0.54688-2.8594-0.54688-1.0547 0-2.0312 0.10547-2.9375 0.3125-0.89844 0.21094-1.7305 0.52344-2.5 0.9375v-3.7344c1.0391-0.25 2.0859-0.44141 3.1406-0.57812 1.0625-0.13281 2.125-0.20312 3.1875-0.20312 2.7578 0 4.75 0.54688 5.9688 1.6406 1.2266 1.0859 1.8438 2.8555 1.8438 5.3125z"/>
    </symbol>
    <symbol id="b" overflow="visible">
      <path d="m7.7031-19.656v4.3438h5.0469v3.5h-5.0469v6.5c0 0.71094 0.14062 1.1875 0.42188 1.4375s0.83594 0.375 1.6719 0.375h2.5156v3.5h-4.1875c-1.9375 0-3.3125-0.39844-4.125-1.2031-0.80469-0.8125-1.2031-2.1797-1.2031-4.1094v-6.5h-2.4219v-3.5h2.4219v-4.3438z"/>
    </symbol>
    <symbol id="j" overflow="visible">
      <path d="m12.766-13.078v-8.2031h4.9219v21.281h-4.9219v-2.2188c-0.66797 0.90625-1.4062 1.5703-2.2188 1.9844s-1.7578 0.625-2.8281 0.625c-1.8867 0-3.4336-0.75-4.6406-2.25-1.2109-1.5-1.8125-3.4258-1.8125-5.7812 0-2.3633 0.60156-4.2969 1.8125-5.7969 1.207-1.5 2.7539-2.25 4.6406-2.25 1.0625 0 2 0.21484 2.8125 0.64062 0.82031 0.42969 1.5664 1.0859 2.2344 1.9688zm-3.2188 9.9219c1.0391 0 1.8359-0.37891 2.3906-1.1406 0.55078-0.76953 0.82812-1.8828 0.82812-3.3438 0-1.457-0.27734-2.5664-0.82812-3.3281-0.55469-0.76953-1.3516-1.1562-2.3906-1.1562-1.043 0-1.8398 0.38672-2.3906 1.1562-0.55469 0.76172-0.82812 1.8711-0.82812 3.3281 0 1.4609 0.27344 2.5742 0.82812 3.3438 0.55078 0.76172 1.3477 1.1406 2.3906 1.1406z"/>
    </symbol>
    <symbol id="i" overflow="visible">
      <path d="m10.5-3.1562c1.0508 0 1.8516-0.37891 2.4062-1.1406 0.55078-0.76953 0.82812-1.8828 0.82812-3.3438 0-1.457-0.27734-2.5664-0.82812-3.3281-0.55469-0.76953-1.3555-1.1562-2.4062-1.1562-1.0547 0-1.8594 0.38672-2.4219 1.1562-0.55469 0.77344-0.82812 1.8828-0.82812 3.3281 0 1.4492 0.27344 2.5586 0.82812 3.3281 0.5625 0.77344 1.3672 1.1562 2.4219 1.1562zm-3.25-9.9219c0.67578-0.88281 1.4219-1.5391 2.2344-1.9688 0.82031-0.42578 1.7656-0.64062 2.8281-0.64062 1.8945 0 3.4453 0.75 4.6562 2.25 1.207 1.5 1.8125 3.4336 1.8125 5.7969 0 2.3555-0.60547 4.2812-1.8125 5.7812-1.2109 1.5-2.7617 2.25-4.6562 2.25-1.0625 0-2.0078-0.21094-2.8281-0.625-0.8125-0.42578-1.5586-1.0859-2.2344-1.9844v2.2188h-4.8906v-21.281h4.8906z"/>
    </symbol>
    <symbol id="e" overflow="visible">
      <path d="m0.34375-15.312h4.8906l4.125 10.391 3.5-10.391h4.8906l-6.4375 16.766c-0.64844 1.6953-1.4023 2.8828-2.2656 3.5625-0.86719 0.6875-2 1.0312-3.4062 1.0312h-2.8438v-3.2188h1.5312c0.83203 0 1.4375-0.13672 1.8125-0.40625 0.38281-0.26172 0.67969-0.73047 0.89062-1.4062l0.14062-0.42188z"/>
    </symbol>
    <symbol id="h" overflow="visible">
      <path d="m2.5781-20.406h14.203v3.9688h-8.9531v3.7969h8.4219v3.9844h-8.4219v8.6562h-5.25z"/>
    </symbol>
    <symbol id="g" overflow="visible">
      <path d="m2.1875-5.9688v-9.3438h4.9219v1.5312c0 0.83594-0.007813 1.875-0.015625 3.125-0.011719 1.25-0.015625 2.0859-0.015625 2.5 0 1.2422 0.03125 2.1328 0.09375 2.6719 0.070313 0.54297 0.17969 0.93359 0.32812 1.1719 0.20703 0.32422 0.47266 0.57422 0.79688 0.75 0.32031 0.16797 0.69141 0.25 1.1094 0.25 1.0195 0 1.8203-0.39062 2.4062-1.1719 0.58203-0.78125 0.875-1.8672 0.875-3.2656v-7.5625h4.8906v15.312h-4.8906v-2.2188c-0.74219 0.89844-1.5234 1.5586-2.3438 1.9844-0.82422 0.41406-1.7344 0.625-2.7344 0.625-1.7617 0-3.1055-0.53906-4.0312-1.625-0.92969-1.082-1.3906-2.6602-1.3906-4.7344z"/>
    </symbol>
    <symbol id="f" overflow="visible">
      <path d="m17.75-9.3281v9.3281h-4.9219v-7.1406c0-1.3203-0.03125-2.2344-0.09375-2.7344s-0.16797-0.86719-0.3125-1.1094c-0.1875-0.3125-0.44922-0.55469-0.78125-0.73438-0.32422-0.17578-0.69531-0.26562-1.1094-0.26562-1.0234 0-1.8242 0.39844-2.4062 1.1875-0.58594 0.78125-0.875 1.8711-0.875 3.2656v7.5312h-4.8906v-15.312h4.8906v2.2344c0.73828-0.88281 1.5195-1.5391 2.3438-1.9688 0.83203-0.42578 1.75-0.64062 2.75-0.64062 1.7695 0 3.1133 0.54688 4.0312 1.6406 0.91406 1.0859 1.375 2.6562 1.375 4.7188z"/>
    </symbol>
    <symbol id="s" overflow="visible">
      <path d="m2.3594-21.281h4.8906v11.594l5.625-5.625h5.6875l-7.4688 7.0312 8.0625 8.2812h-5.9375l-5.9688-6.3906v6.3906h-4.8906z"/>
    </symbol>
    <symbol id="r" overflow="visible">
      <path d="m12.422-21.281v3.2188h-2.7031c-0.6875 0-1.1719 0.125-1.4531 0.375-0.27344 0.25-0.40625 0.6875-0.40625 1.3125v1.0625h4.1875v3.5h-4.1875v11.812h-4.8906v-11.812h-2.4375v-3.5h2.4375v-1.0625c0-1.6641 0.46094-2.8984 1.3906-3.7031 0.92578-0.80078 2.3672-1.2031 4.3281-1.2031z"/>
    </symbol>
    <symbol id="d" overflow="visible">
      <path d="m9.6406-12.188c-1.0859 0-1.9141 0.39062-2.4844 1.1719-0.57422 0.78125-0.85938 1.9062-0.85938 3.375s0.28516 2.5938 0.85938 3.375c0.57031 0.77344 1.3984 1.1562 2.4844 1.1562 1.0625 0 1.875-0.38281 2.4375-1.1562 0.57031-0.78125 0.85938-1.9062 0.85938-3.375s-0.28906-2.5938-0.85938-3.375c-0.5625-0.78125-1.375-1.1719-2.4375-1.1719zm0-3.5c2.6328 0 4.6914 0.71484 6.1719 2.1406 1.4766 1.418 2.2188 3.3867 2.2188 5.9062 0 2.5117-0.74219 4.4805-2.2188 5.9062-1.4805 1.418-3.5391 2.125-6.1719 2.125-2.6484 0-4.7148-0.70703-6.2031-2.125-1.4922-1.4258-2.2344-3.3945-2.2344-5.9062 0-2.5195 0.74219-4.4883 2.2344-5.9062 1.4883-1.4258 3.5547-2.1406 6.2031-2.1406z"/>
    </symbol>
    <symbol id="q" overflow="visible">
      <path d="m16.547-12.766c0.61328-0.94531 1.3477-1.6719 2.2031-2.1719 0.85156-0.5 1.7891-0.75 2.8125-0.75 1.7578 0 3.0977 0.54688 4.0156 1.6406 0.92578 1.0859 1.3906 2.6562 1.3906 4.7188v9.3281h-4.9219v-7.9844-0.35938c0.007813-0.13281 0.015625-0.32031 0.015625-0.5625 0-1.082-0.16406-1.8633-0.48438-2.3438-0.3125-0.48828-0.82422-0.73438-1.5312-0.73438-0.92969 0-1.6484 0.38672-2.1562 1.1562-0.51172 0.76172-0.77344 1.8672-0.78125 3.3125v7.5156h-4.9219v-7.9844c0-1.6953-0.14844-2.7852-0.4375-3.2656-0.29297-0.48828-0.8125-0.73438-1.5625-0.73438-0.9375 0-1.6641 0.38672-2.1719 1.1562-0.51172 0.76172-0.76562 1.8594-0.76562 3.2969v7.5312h-4.9219v-15.312h4.9219v2.2344c0.60156-0.86328 1.2891-1.5156 2.0625-1.9531 0.78125-0.4375 1.6406-0.65625 2.5781-0.65625 1.0625 0 2 0.25781 2.8125 0.76562 0.8125 0.51172 1.4258 1.2305 1.8438 2.1562z"/>
    </symbol>
    <symbol id="p" overflow="visible">
      <path d="m17.75-9.3281v9.3281h-4.9219v-7.1094c0-1.3438-0.03125-2.2656-0.09375-2.7656s-0.16797-0.86719-0.3125-1.1094c-0.1875-0.3125-0.44922-0.55469-0.78125-0.73438-0.32422-0.17578-0.69531-0.26562-1.1094-0.26562-1.0234 0-1.8242 0.39844-2.4062 1.1875-0.58594 0.78125-0.875 1.8711-0.875 3.2656v7.5312h-4.8906v-21.281h4.8906v8.2031c0.73828-0.88281 1.5195-1.5391 2.3438-1.9688 0.83203-0.42578 1.75-0.64062 2.75-0.64062 1.7695 0 3.1133 0.54688 4.0312 1.6406 0.91406 1.0859 1.375 2.6562 1.375 4.7188z"/>
    </symbol>
    <symbol id="o" overflow="visible">
      <path d="m2.5781-20.406h5.875l7.4219 14v-14h4.9844v20.406h-5.875l-7.4219-14v14h-4.9844z"/>
    </symbol>
    <symbol id="n" overflow="visible">
      <path d="m2.5781-20.406h8.7344c2.5938 0 4.582 0.57812 5.9688 1.7344 1.3945 1.1484 2.0938 2.7891 2.0938 4.9219 0 2.1367-0.69922 3.7812-2.0938 4.9375-1.3867 1.1562-3.375 1.7344-5.9688 1.7344h-3.4844v7.0781h-5.25zm5.25 3.8125v5.7031h2.9219c1.0195 0 1.8047-0.25 2.3594-0.75 0.5625-0.5 0.84375-1.2031 0.84375-2.1094 0-0.91406-0.28125-1.6172-0.84375-2.1094-0.55469-0.48828-1.3398-0.73438-2.3594-0.73438z"/>
    </symbol>
    <symbol id="m" overflow="visible">
      <path d="m2.3594-15.312h4.8906v15.031c0 2.0508-0.49609 3.6172-1.4844 4.7031-0.98047 1.082-2.4062 1.625-4.2812 1.625h-2.4219v-3.2188h0.85938c0.92578 0 1.5625-0.21094 1.9062-0.625 0.35156-0.41797 0.53125-1.2461 0.53125-2.4844zm0-5.9688h4.8906v4h-4.8906z"/>
    </symbol>
    <symbol id="l" overflow="visible">
      <path d="m14.719-14.828v3.9844c-0.65625-0.45703-1.3242-0.79688-2-1.0156-0.66797-0.21875-1.3594-0.32812-2.0781-0.32812-1.3672 0-2.4336 0.40234-3.2031 1.2031-0.76172 0.79297-1.1406 1.9062-1.1406 3.3438 0 1.4297 0.37891 2.543 1.1406 3.3438 0.76953 0.79297 1.8359 1.1875 3.2031 1.1875 0.75781 0 1.4844-0.10938 2.1719-0.32812 0.6875-0.22656 1.3203-0.56641 1.9062-1.0156v4c-0.76172 0.28125-1.5391 0.48828-2.3281 0.625-0.78125 0.14453-1.5742 0.21875-2.375 0.21875-2.7617 0-4.9219-0.70703-6.4844-2.125-1.5547-1.4141-2.3281-3.3828-2.3281-5.9062 0-2.5312 0.77344-4.5039 2.3281-5.9219 1.5625-1.4141 3.7227-2.125 6.4844-2.125 0.80078 0 1.5938 0.074219 2.375 0.21875 0.78125 0.13672 1.5547 0.35156 2.3281 0.64062z"/>
    </symbol>
    <linearGradient gradientUnits="userSpaceOnUse" x1="960" y1="0" x2="960" y2="1080" id="gradient-0">
      <stop offset="0" style="stop-color: rgba(50, 50, 50, 1)"/>
      <stop offset="1" style="stop-color: rgba(0, 0, 0, 1)"/>
    </linearGradient>
  </defs>
  <g id="ink-handbook">
    <g id="background">
      <title>background</title>
      <rect width="1920" height="1080" style="fill: url(#gradient-0); fill-opacity: 0.5;"/>
      <rect width="1920" height="1080" fill="url(#paint0_linear_433:2)" style="fill-opacity: 0.5;"/>
    </g>
    <path d="M 1760.209 814.149 L 1744.988 804.719 C 1744.86 803.235 1744.714 801.755 1744.555 800.281 L 1757.66 788.077 C 1758.992 786.836 1759.588 784.998 1759.227 783.223 C 1758.877 781.438 1757.626 779.968 1755.923 779.34 L 1739.177 773.099 C 1738.758 771.65 1738.318 770.211 1737.867 768.766 L 1748.303 754.273 C 1749.367 752.8 1749.586 750.883 1748.892 749.211 C 1748.199 747.537 1746.684 746.337 1744.905 746.043 L 1727.258 743.172 C 1726.571 741.834 1725.857 740.516 1725.136 739.219 L 1732.555 722.924 C 1733.315 721.267 1733.159 719.353 1732.146 717.828 C 1731.137 716.316 1729.428 715.432 1727.604 715.501 L 1709.68 716.125 C 1708.754 714.967 1707.811 713.82 1706.851 712.693 L 1710.977 695.254 C 1711.393 693.482 1710.869 691.613 1709.579 690.331 C 1708.3 689.048 1706.442 688.517 1704.656 688.933 L 1687.217 693.059 C 1686.087 692.102 1684.939 691.156 1683.778 690.23 L 1684.405 672.306 C 1684.474 670.492 1683.59 668.769 1682.079 667.764 C 1680.564 666.751 1678.646 666.599 1676.982 667.351 L 1660.722 674.771 C 1659.408 674.049 1658.09 673.335 1656.769 672.645 L 1653.892 654.998 C 1653.6 653.209 1652.401 651.69 1650.723 651.011 C 1649.048 650.314 1647.117 650.539 1645.661 651.6 L 1631.169 662.036 C 1629.74 661.582 1628.305 661.145 1626.87 660.729 L 1620.629 643.983 C 1619.994 642.277 1618.524 641.026 1616.746 640.672 C 1614.964 640.322 1613.14 640.915 1611.892 642.239 L 1599.688 655.345 C 1598.214 655.182 1596.73 655.033 1595.25 654.911 L 1585.82 639.656 C 1584.866 638.114 1583.178 637.174 1581.347 637.174 C 1579.517 637.174 1577.845 638.114 1576.909 639.656 L 1567.479 654.911 C 1565.995 655.033 1564.511 655.182 1563.041 655.345 L 1550.837 642.239 C 1549.599 640.915 1547.762 640.322 1545.983 640.672 C 1544.198 641.029 1542.728 642.277 1542.1 643.983 L 1535.86 660.729 C 1534.41 661.145 1532.975 661.585 1531.56 662.036 L 1517.068 651.6 C 1515.595 650.536 1513.674 650.311 1512.006 651.011 C 1510.332 651.704 1509.129 653.223 1508.837 654.998 L 1505.96 672.645 C 1504.628 673.335 1503.311 674.046 1502.007 674.771 L 1485.747 667.351 C 1484.093 666.595 1482.176 666.751 1480.65 667.764 C 1479.139 668.769 1478.255 670.492 1478.324 672.306 L 1478.948 690.23 C 1477.79 691.156 1476.642 692.102 1475.509 693.059 L 1458.07 688.933 C 1456.298 688.521 1454.429 689.048 1453.146 690.331 C 1451.857 691.617 1451.333 693.472 1451.749 695.254 L 1455.84 712.693 C 1454.887 713.823 1453.944 714.967 1453.018 716.125 L 1435.093 715.501 C 1433.287 715.449 1431.557 716.316 1430.552 717.828 C 1429.539 719.332 1429.387 721.26 1430.139 722.924 L 1437.558 739.219 C 1436.837 740.527 1436.123 741.844 1435.433 743.172 L 1417.786 746.043 C 1415.993 746.334 1414.482 747.533 1413.799 749.211 C 1413.105 750.893 1413.331 752.817 1414.388 754.273 L 1424.824 768.766 C 1424.37 770.198 1423.93 771.636 1423.513 773.099 L 1406.768 779.34 C 1405.069 779.975 1403.817 781.445 1403.464 783.223 C 1403.11 785.005 1403.703 786.829 1405.031 788.077 L 1418.136 800.281 C 1417.973 801.755 1417.828 803.238 1417.703 804.719 L 1402.482 814.149 C 1400.94 815.103 1400 816.788 1400 818.622 C 1400 820.456 1400.94 822.123 1402.482 823.06 L 1417.703 832.49 C 1417.828 833.974 1417.973 835.454 1418.136 836.928 L 1405.031 849.132 C 1403.703 850.369 1403.11 852.207 1403.464 853.986 C 1403.817 855.771 1405.069 857.238 1406.768 857.869 L 1423.513 864.109 C 1423.93 865.559 1424.37 866.997 1424.824 868.443 L 1414.388 882.935 C 1413.327 884.412 1413.102 886.33 1413.799 887.997 C 1414.496 889.679 1416.011 890.878 1417.821 891.166 L 1435.468 894.037 C 1436.158 895.375 1436.865 896.693 1437.593 897.989 L 1430.174 914.25 C 1429.418 915.904 1429.574 917.821 1430.586 919.346 C 1431.599 920.861 1433.322 921.745 1435.128 921.673 L 1453.018 921.045 C 1453.951 922.21 1454.89 923.351 1455.847 924.484 L 1451.756 941.924 C 1451.34 943.692 1451.863 945.529 1453.153 946.812 C 1454.433 948.105 1456.294 948.622 1458.076 948.206 L 1475.516 944.115 C 1476.649 945.079 1477.797 946.015 1478.955 946.937 L 1478.331 964.862 C 1478.262 966.675 1479.146 968.398 1480.657 969.403 C 1482.162 970.412 1484.09 970.565 1485.754 969.809 L 1502.014 962.39 C 1503.325 963.118 1504.642 963.825 1505.967 964.515 L 1508.844 982.162 C 1509.136 983.958 1510.335 985.477 1512.013 986.184 C 1513.688 986.881 1515.619 986.656 1517.075 985.598 L 1531.567 975.162 C 1532.999 975.616 1534.438 976.06 1535.901 976.476 L 1542.142 993.222 C 1542.776 994.921 1544.246 996.179 1546.025 996.526 C 1547.807 996.887 1549.631 996.29 1550.879 994.959 L 1563.083 981.854 C 1564.556 982.024 1566.04 982.166 1567.521 982.297 L 1576.951 997.518 C 1577.901 999.054 1579.589 1000 1581.389 1000 C 1583.188 1000 1584.891 999.057 1585.861 997.518 L 1595.292 982.297 C 1596.776 982.166 1598.256 982.024 1599.729 981.854 L 1611.933 994.959 C 1613.171 996.29 1615.009 996.887 1616.787 996.526 C 1618.573 996.176 1620.043 994.921 1620.67 993.222 L 1626.911 976.476 C 1628.36 976.06 1629.799 975.616 1631.245 975.162 L 1645.737 985.598 C 1647.211 986.656 1649.131 986.881 1650.799 986.184 C 1652.477 985.494 1653.677 983.972 1653.968 982.162 L 1656.846 964.515 C 1658.177 963.825 1659.494 963.107 1660.798 962.39 L 1677.058 969.809 C 1678.712 970.565 1680.629 970.412 1682.155 969.403 C 1683.667 968.391 1684.547 966.675 1684.481 964.862 L 1683.857 946.937 C 1685.015 946.011 1686.163 945.079 1687.293 944.115 L 1704.732 948.206 C 1706.504 948.622 1708.373 948.105 1709.656 946.812 C 1710.945 945.526 1711.469 943.678 1711.053 941.924 L 1706.962 924.484 C 1707.919 923.351 1708.862 922.21 1709.784 921.045 L 1727.708 921.673 C 1729.515 921.745 1731.245 920.861 1732.25 919.346 C 1733.263 917.835 1733.419 915.91 1732.659 914.25 L 1725.24 897.989 C 1725.965 896.675 1726.675 895.358 1727.362 894.037 L 1745.009 891.166 C 1746.805 890.878 1748.317 889.679 1748.996 887.997 C 1749.69 886.323 1749.471 884.392 1748.407 882.935 L 1737.971 868.443 C 1738.422 867.011 1738.862 865.572 1739.281 864.109 L 1756.027 857.869 C 1757.73 857.231 1758.985 855.764 1759.331 853.986 C 1759.692 852.204 1759.096 850.38 1757.764 849.132 L 1744.659 836.928 C 1744.818 835.454 1744.964 833.97 1745.092 832.49 L 1760.313 823.06 C 1761.855 822.11 1762.795 820.421 1762.795 818.622 C 1762.795 816.822 1761.859 815.12 1760.316 814.149 L 1760.209 814.149 Z M 1658.277 940.696 C 1652.453 939.441 1648.778 933.693 1650.026 927.868 C 1651.271 922.044 1656.995 918.334 1662.819 919.582 C 1668.644 920.827 1672.354 926.585 1671.106 932.41 C 1669.857 938.235 1664.137 941.944 1658.312 940.696 L 1658.277 940.696 Z M 1653.112 905.679 C 1647.807 904.542 1642.572 907.919 1641.462 913.237 L 1636.054 938.477 C 1619.377 946.036 1600.69 950.265 1581.274 950.265 C 1561.304 950.265 1542.444 945.862 1525.455 937.957 L 1520.046 912.717 C 1518.909 907.413 1513.702 904.015 1508.397 905.159 L 1486.104 909.944 C 1481.978 905.679 1478.13 901.137 1474.593 896.353 L 1583.112 896.353 C 1584.339 896.353 1585.157 896.131 1585.157 895.015 L 1585.157 856.53 C 1585.157 855.414 1584.339 855.192 1583.112 855.192 L 1551.388 855.192 L 1551.388 830.888 L 1585.678 830.888 C 1588.808 830.888 1602.423 831.783 1606.757 849.194 C 1608.12 854.533 1611.126 871.938 1613.171 877.52 C 1615.21 883.761 1623.503 896.242 1632.344 896.242 L 1686.43 896.242 C 1687.044 896.242 1687.699 896.173 1688.389 896.048 C 1684.644 901.144 1680.519 905.964 1676.115 910.471 L 1653.302 905.582 L 1653.112 905.679 Z M 1502.989 940.176 C 1497.164 941.431 1491.443 937.722 1490.195 931.89 C 1488.95 926.065 1492.65 920.31 1498.481 919.062 C 1504.306 917.817 1510.027 921.527 1511.275 927.348 C 1512.519 933.173 1508.817 938.928 1502.989 940.176 Z M 1461.731 773.411 C 1464.144 778.855 1461.689 785.234 1456.253 787.661 C 1450.81 790.078 1444.465 787.619 1442.038 782.183 C 1439.611 776.747 1442.079 770.36 1447.516 767.934 C 1452.959 765.52 1459.304 767.975 1461.731 773.411 Z M 1449.076 803.367 L 1472.305 793.035 C 1477.263 790.833 1479.517 785.026 1477.298 780.068 L 1472.513 769.251 L 1491.305 769.251 L 1491.305 853.847 L 1453.514 853.847 C 1450.224 842.267 1448.452 830.063 1448.452 817.443 C 1448.452 812.624 1448.712 807.874 1449.211 803.193 L 1449.076 803.367 Z M 1551.007 795.15 L 1551.007 770.187 L 1595.732 770.187 C 1598.044 770.187 1612.062 772.86 1612.062 783.327 C 1612.062 792.029 1601.314 795.15 1592.473 795.15 L 1550.868 795.15 L 1551.007 795.15 Z M 1713.611 817.616 C 1713.611 820.931 1713.49 824.204 1713.247 827.463 L 1699.622 827.463 C 1698.259 827.463 1697.712 828.357 1697.712 829.692 L 1697.712 835.933 C 1697.712 850.633 1689.425 853.857 1682.145 854.655 C 1675.211 855.435 1667.548 851.756 1666.612 847.513 C 1662.521 824.526 1655.726 819.638 1644.978 811.109 C 1658.326 802.649 1672.194 790.133 1672.194 773.318 C 1672.194 755.255 1659.817 743.883 1651.392 738.301 C 1639.535 730.5 1626.429 728.94 1622.893 728.94 L 1482.131 728.94 C 1501.234 707.652 1527.202 692.536 1556.326 686.988 L 1572.933 704.393 C 1576.677 708.311 1582.883 708.484 1586.836 704.712 L 1605.419 686.961 C 1644.25 694.207 1677.187 718.407 1696.255 751.794 L 1683.531 780.502 C 1681.337 785.459 1683.576 791.284 1688.524 793.468 L 1713.001 804.355 C 1713.424 808.689 1713.646 813.092 1713.646 817.53 L 1713.611 817.616 Z M 1572.849 672.347 C 1577.149 668.221 1583.979 668.395 1588.07 672.697 C 1592.161 676.996 1592.022 683.826 1587.713 687.952 C 1583.414 692.078 1576.583 691.905 1572.492 687.599 C 1568.401 683.3 1568.54 676.469 1572.849 672.344 L 1572.849 672.347 Z M 1699.05 773.932 C 1701.46 768.488 1707.822 766.027 1713.265 768.454 C 1718.708 770.867 1721.17 777.26 1718.743 782.703 C 1716.333 788.146 1709.971 790.608 1704.528 788.181 C 1699.085 785.768 1696.623 779.375 1699.05 773.932 Z" style="fill: rgb(90, 174, 251);">
      <title>rust logo</title>
    </path>
    <text style="fill: rgb(155, 155, 155); font-family: Fira Mono, monospace; font-size: 82px; white-space: pre; --darkreader-inline-fill:#a9a196;" x="640.238" y="178.381"><title>text-l1</title>Using Rust to</text>
    <text style="fill: rgb(90, 174, 251); font-family: Fira Mono, monospace; font-size: 82px; white-space: pre;" y="328.021" x="246.709">Write code with async / await</text>
    <text style="fill: rgb(90, 174, 251); font-family: Fira Mono, monospace; font-size: 82px; white-space: pre;" y="278.021" x="23.556" transform="matrix(1, 0, 0, 1, 616.693481, 50)"><title>text-l3</title><tspan x="23.555999755859375" dy="1em">​</tspan>(using tokio)</text>
    <g id="1421942630 1" transform="matrix(1, 0, 0, 1, -598.454224, -1.706627)">
      <title>term icon</title>
      <rect x="750.5" y="658.5" width="369" height="315.948" fill="black" fill-opacity="0.5"/>
      <g id="g63">
        <g id="g-1">
          <path id="path-1" fill-rule="evenodd" clip-rule="evenodd" d="M858.119 862.464L863.132 862.384L867.748 862.119L871.992 861.695L875.838 861.084L879.313 860.262L880.878 859.811L882.363 859.307L883.769 858.777L885.069 858.193L886.263 857.53L887.35 856.867L889.313 855.408L890.215 854.639L891.011 853.843L891.78 853.047L892.47 852.198L893.106 851.323L893.663 850.448L894.167 849.546L894.592 848.617L894.937 847.662L895.228 846.681L895.441 845.673L895.626 844.665L895.732 843.577L895.759 842.516L895.706 840.951L895.52 839.439L895.228 837.98L894.831 836.575L894.327 835.222L893.69 833.948L892.947 832.702L892.098 831.535L891.143 830.394L890.109 829.306L888.995 828.245L887.828 827.237L886.581 826.256L885.228 825.328L883.822 824.399L882.337 823.524L879.18 821.826L875.785 820.235L872.151 818.749L868.278 817.317L851.885 812.065L847.827 810.765L843.795 809.412L835.757 806.441L833.794 805.645L831.858 804.823L830.001 803.948L828.224 803.019L826.447 802.038L824.776 801.03L823.104 799.995L821.539 798.881L820.027 797.767L818.569 796.547L817.216 795.274L815.889 793.974L814.643 792.595L813.476 791.136L812.388 789.65L811.38 788.112L810.452 786.494L809.682 784.796L808.993 782.992L808.436 781.109L808.011 779.119L807.719 777.05L807.507 774.902L807.454 772.674L807.613 768.668L808.197 764.875L809.072 761.294L810.346 757.846L811.964 754.609L812.892 753.044L813.927 751.559L815.041 750.073L816.287 748.668L818.966 745.962L820.452 744.662L822.017 743.469L825.386 741.214L829.073 739.224L833.078 737.447L837.428 735.935L842.097 734.662L847.084 733.574L852.416 732.779V706.465H874.883V732.328L880.745 732.46L886.395 732.858L891.86 733.521L894.486 733.972L897.112 734.45L901.966 735.537L906.316 736.545L910.11 737.553L913.346 738.508L908.226 756.387L904.778 755.326L900.905 754.291L896.661 753.23L891.966 752.142L889.446 751.612L886.793 751.188L883.955 750.816L880.984 750.498L874.591 750.1L867.562 749.967L863.636 750.047L859.922 750.286L856.448 750.71L853.211 751.294L850.187 752.01L847.402 752.938L844.856 753.999L843.662 754.609L842.521 755.246L841.46 755.909L840.479 756.625L839.524 757.368L838.702 758.164L837.906 758.96L837.19 759.808L836.5 760.684L835.943 761.586L835.413 762.541L834.962 763.549L834.59 764.557L834.298 765.591L834.033 766.679L833.874 767.793L833.768 768.933L833.741 770.127L833.768 771.4L833.901 772.674L834.086 773.841L834.378 774.981L834.749 776.069L835.2 777.103L835.731 778.111L836.314 779.066L836.978 779.968L837.747 780.844L838.543 781.692L839.444 782.515L840.426 783.337L841.46 784.106L842.575 784.875L843.768 785.592L844.988 786.308L846.315 786.998L849.073 788.324L852.044 789.544L855.28 790.738L870.002 795.539L890.082 802.648L894.671 804.584L896.847 805.619L898.969 806.68L901.011 807.82L902.974 808.988L904.884 810.208L906.714 811.481L908.465 812.807L910.136 814.187L911.701 815.619L913.187 817.104L914.592 818.67L915.866 820.314L917.112 821.985L918.226 823.762L919.234 825.566L920.136 827.476L920.853 829.492L921.463 831.588L921.94 833.763L922.285 836.071L922.524 838.431L922.577 840.925L922.365 844.877L921.834 848.644L920.906 852.225L919.659 855.62L918.863 857.238L917.988 858.803L917.059 860.315L916.025 861.774L914.858 863.207L913.637 864.586L912.311 865.886L910.905 867.159L909.393 868.379L907.802 869.546L906.104 870.66L904.3 871.668L900.401 873.578L896.104 875.276L891.382 876.708L886.289 877.928L880.798 878.883L874.883 879.653V909.203H852.416V880.104L843.37 879.918L839.206 879.653L835.227 879.308L831.46 878.883L827.932 878.3L824.616 877.663L821.539 876.92L815.942 875.355L811.115 873.843L807.03 872.385L805.279 871.642L803.688 870.926L810.425 853.763L814.722 855.328L819.391 856.867L824.457 858.299L829.948 859.732L832.866 860.368L835.97 860.925L839.232 861.403L842.681 861.774L850.028 862.305L858.119 862.464ZM938.811 908.513H1074.23V926.63H938.811V908.513Z" fill="#66FF00"/>
          <path id="path-2" fill-rule="evenodd" clip-rule="evenodd" d="M858.119 862.464L863.132 862.384L867.748 862.119L871.992 861.695L875.838 861.084L879.313 860.262L880.878 859.811L882.363 859.307L883.769 858.777L885.069 858.193L886.263 857.53L887.35 856.867L889.313 855.408L890.215 854.639L891.011 853.843L891.78 853.047L892.47 852.198L893.106 851.323L893.663 850.448L894.167 849.546L894.592 848.617L894.937 847.662L895.228 846.681L895.441 845.673L895.626 844.665L895.732 843.577L895.759 842.516L895.706 840.951L895.52 839.439L895.228 837.98L894.831 836.575L894.327 835.222L893.69 833.948L892.947 832.702L892.098 831.535L891.143 830.394L890.109 829.306L888.995 828.245L887.828 827.237L886.581 826.256L885.228 825.328L883.822 824.399L882.337 823.524L879.18 821.826L875.785 820.235L872.151 818.749L868.278 817.317L851.885 812.065L847.827 810.765L843.795 809.412L835.757 806.441L833.794 805.645L831.858 804.823L830.001 803.948L828.224 803.019L826.447 802.038L824.776 801.03L823.104 799.995L821.539 798.881L820.027 797.767L818.569 796.547L817.216 795.274L815.889 793.974L814.643 792.595L813.476 791.136L812.388 789.65L811.38 788.112L810.452 786.494L809.682 784.796L808.993 782.992L808.436 781.109L808.011 779.119L807.719 777.05L807.507 774.902L807.454 772.674L807.613 768.668L808.197 764.875L809.072 761.294L810.346 757.846L811.964 754.609L812.892 753.044L813.927 751.559L815.041 750.073L816.287 748.668L818.966 745.962L820.452 744.662L822.017 743.468L825.386 741.214L829.073 739.224L833.078 737.447L837.428 735.935L842.097 734.662L847.084 733.574L852.416 732.779V706.465H874.883V732.328L880.745 732.46L886.395 732.858L891.86 733.521L894.486 733.972L897.112 734.45L901.966 735.537L906.316 736.545L910.11 737.553L913.346 738.508L908.226 756.387L904.778 755.326L900.905 754.291L896.661 753.23L891.966 752.142L889.446 751.612L886.793 751.188L883.955 750.816L880.984 750.498L874.591 750.1L867.562 749.967L863.636 750.047L859.922 750.286L856.448 750.71L853.211 751.294L850.187 752.01L847.402 752.938L844.856 753.999L843.662 754.609L842.521 755.246L841.46 755.909L840.479 756.625L839.524 757.368L838.702 758.164L837.906 758.96L837.19 759.808L836.5 760.684L835.943 761.586L835.413 762.541L834.962 763.549L834.59 764.557L834.298 765.591L834.033 766.679L833.874 767.793L833.768 768.933L833.741 770.127L833.768 771.4L833.901 772.674L834.086 773.841L834.378 774.981L834.749 776.069L835.2 777.103L835.731 778.111L836.314 779.066L836.978 779.968L837.747 780.844L838.543 781.692L839.444 782.515L840.426 783.337L841.46 784.106L842.575 784.875L843.768 785.592L844.988 786.308L846.315 786.998L849.073 788.324L852.044 789.544L855.28 790.738L870.002 795.539L890.082 802.648L894.671 804.584L896.847 805.619L898.969 806.68L901.011 807.82L902.974 808.988L904.884 810.208L906.714 811.481L908.465 812.807L910.136 814.187L911.701 815.619L913.187 817.104L914.592 818.67L915.866 820.314L917.112 821.985L918.226 823.762L919.234 825.566L920.136 827.476L920.853 829.492L921.463 831.588L921.94 833.763L922.285 836.071L922.524 838.431L922.577 840.925L922.364 844.877L921.834 848.644L920.906 852.225L919.659 855.62L918.863 857.238L917.988 858.803L917.059 860.315L916.025 861.774L914.858 863.207L913.637 864.586L912.311 865.886L910.905 867.159L909.393 868.379L907.802 869.546L906.104 870.66L904.3 871.668L900.401 873.578L896.104 875.276L891.382 876.708L886.289 877.928L880.798 878.883L874.883 879.653V909.202H852.416V880.104L843.37 879.918L839.206 879.653L835.227 879.308L831.46 878.883L827.932 878.3L824.616 877.663L821.539 876.92L815.942 875.355L811.115 873.843L807.03 872.385L805.279 871.642L803.688 870.926L810.425 853.763L814.722 855.328L819.391 856.867L824.457 858.299L829.948 859.732L832.866 860.368L835.97 860.925L839.232 861.403L842.681 861.774L850.028 862.305L858.119 862.464Z" stroke-width="9.69922" style="paint-order: fill; fill: rgb(59, 148, 0); stroke: rgb(59, 148, 0);"/>
          <path id="path-3" fill-rule="evenodd" clip-rule="evenodd" d="M938.809 908.513H1074.22V926.63H938.809V908.513Z" stroke-width="9.69922" style="paint-order: fill; fill: rgb(59, 148, 0); stroke: rgb(59, 148, 0);"/>
        </g>
      </g>
      <rect x="750.5" y="658.5" width="369" height="315.948" stroke="#9B9B9B" stroke-width="13"/>
    </g>
    <g transform="matrix(1.089808, 0, 0, 1.089808, -144.930786, -15.77829)" style="">
      <title>tokio</title>
      <path d="M 1060.794 743.749 L 1042.085 743.749 L 1042.085 732.663 L 1091.627 732.663 L 1091.627 743.749 L 1072.919 743.749 L 1072.919 800.911 L 1060.447 800.911 L 1060.794 743.749 Z" style="fill: rgb(142, 159, 233);"/>
      <path d="M 1099.943 795.374 C 1095.441 790.868 1093.013 785.326 1093.013 778.396 C 1093.013 771.466 1095.094 765.925 1099.943 761.419 C 1104.449 756.917 1110.336 754.839 1117.959 754.839 C 1125.582 754.839 1131.469 756.917 1135.971 761.419 C 1140.477 765.925 1142.555 771.466 1142.555 778.396 C 1142.555 785.326 1140.477 790.868 1135.625 795.374 C 1131.123 799.876 1125.232 801.954 1117.613 801.954 C 1109.99 801.954 1104.449 799.529 1099.943 795.374 Z M 1108.258 768.349 C 1105.834 770.773 1104.449 774.241 1104.449 778.396 C 1104.449 782.552 1105.834 786.019 1108.258 788.443 C 1110.683 790.868 1113.799 792.253 1117.613 792.253 C 1121.422 792.253 1124.539 790.868 1126.967 788.443 C 1129.391 786.019 1130.777 782.552 1130.777 778.396 C 1130.777 774.241 1129.391 770.773 1126.967 768.349 C 1124.539 765.925 1121.422 764.54 1117.613 764.54 C 1114.146 764.54 1111.029 765.925 1108.258 768.349 Z" style="fill: rgb(142, 159, 233);"/>
      <path d="M 1154.334 729.2 L 1165.766 729.2 L 1165.766 800.911 L 1154.334 800.911 L 1154.334 729.2 Z M 1198.332 800.911 L 1185.168 800.911 L 1165.766 777.007 L 1185.168 756.22 L 1197.639 756.22 L 1178.93 776.315 L 1198.332 800.911 Z" style="fill: rgb(142, 159, 233);"/>
      <path d="M 1208.028 745.831 C 1206.643 744.442 1205.95 742.71 1205.95 740.979 C 1205.95 739.247 1206.643 737.516 1208.028 736.13 C 1209.414 734.745 1211.149 734.049 1212.881 734.049 C 1214.612 734.049 1216.344 734.745 1217.729 736.13 C 1219.114 737.516 1219.807 739.247 1219.807 740.979 C 1219.807 742.71 1219.114 744.442 1217.729 745.831 C 1216.344 747.216 1214.612 747.909 1212.881 747.909 C 1211.149 747.909 1209.414 747.216 1208.028 745.831 Z M 1206.989 800.915 L 1206.989 755.878 L 1218.422 755.878 L 1218.422 800.568 L 1206.989 800.915 Z" style="fill: rgb(142, 159, 233);"/>
      <path d="M 1237.131 795.374 C 1232.625 790.868 1230.2 785.326 1230.2 778.396 C 1230.2 771.466 1232.278 765.925 1237.131 761.419 C 1241.633 756.917 1247.52 754.839 1255.143 754.839 C 1262.766 754.839 1268.653 756.917 1273.159 761.419 C 1277.661 765.925 1279.739 771.466 1279.739 778.396 C 1279.739 785.326 1277.661 790.868 1272.813 795.374 C 1268.307 799.876 1262.419 801.954 1254.797 801.954 C 1247.174 801.954 1241.633 799.529 1237.131 795.374 Z M 1245.442 768.349 C 1243.018 770.773 1241.633 774.241 1241.633 778.396 C 1241.633 782.552 1243.018 786.019 1245.442 788.443 C 1247.87 790.868 1250.987 792.253 1254.797 792.253 C 1258.61 792.253 1261.727 790.868 1264.151 788.443 C 1266.575 786.019 1267.96 782.552 1267.96 778.396 C 1267.96 774.241 1266.575 770.773 1264.151 768.349 C 1261.727 765.925 1258.61 764.54 1254.797 764.54 C 1251.333 764.54 1248.217 765.925 1245.442 768.349 Z" style="fill: rgb(142, 159, 233);"/>
      <path d="M 815.167 813.386 C 818.418 813.386 821.054 810.75 821.054 807.498 C 821.054 804.243 818.418 801.607 815.167 801.607 C 811.911 801.607 809.275 804.243 809.275 807.498 C 809.275 810.75 811.911 813.386 815.167 813.386 Z" style="fill: rgb(142, 159, 233);"/>
      <path d="M 887.92 843.873 C 884.457 843.873 882.029 846.644 882.029 849.761 C 882.029 853.224 884.803 855.652 887.92 855.652 C 891.383 855.652 893.807 852.878 893.807 849.761 C 893.807 846.297 891.037 843.873 887.92 843.873 Z" style="fill: rgb(142, 159, 233);"/>
      <path d="M 887.92 686.241 C 891.383 686.241 893.807 683.471 893.807 680.354 C 893.807 677.237 891.037 674.116 887.92 674.116 C 884.457 674.116 882.029 676.891 882.029 680.008 C 882.029 683.125 884.457 686.241 887.92 686.241 Z" style="fill: rgb(142, 159, 233);"/>
      <path d="M 960.67 728.511 C 964.137 728.511 966.561 725.737 966.561 722.62 C 966.561 719.503 963.787 716.733 960.67 716.733 C 957.553 716.733 954.782 719.503 954.782 722.62 C 954.782 725.737 957.206 728.511 960.67 728.511 Z" style="fill: rgb(142, 159, 233);"/>
      <path d="M 815.167 728.507 C 818.63 728.507 821.054 725.737 821.054 722.616 C 821.054 719.499 818.63 716.383 815.167 716.383 C 811.7 716.383 809.275 719.153 809.275 722.27 C 809.275 725.391 811.7 728.507 815.167 728.507 Z" style="fill: rgb(142, 159, 233);"/>
      <path d="M 960.67 813.386 C 963.921 813.386 966.561 810.75 966.561 807.498 C 966.561 804.243 963.921 801.607 960.67 801.607 C 957.418 801.607 954.782 804.243 954.782 807.498 C 954.782 810.75 957.418 813.386 960.67 813.386 Z" style="fill: rgb(142, 159, 233);"/>
      <path d="M 887.92 758.995 C 884.457 758.995 882.029 761.765 882.029 764.882 C 882.029 768.003 884.803 770.773 887.92 770.773 C 891.383 770.773 893.807 768.003 893.807 764.882 C 893.807 761.765 891.037 758.995 887.92 758.995 Z" style="fill: rgb(142, 159, 233);"/>
      <path d="M 1005.014 761.073 L 928.104 761.073 L 927.758 761.073 C 927.412 756.917 926.373 752.757 924.641 748.948 L 948.545 735.091 L 952.008 733.01 L 947.852 726.083 L 944.385 728.161 L 920.828 742.018 C 918.057 738.208 914.594 734.745 910.434 731.971 L 911.127 730.932 L 949.93 664.416 L 952.008 660.953 L 945.082 656.793 L 943 660.26 L 904.201 726.43 L 903.508 727.468 C 899.695 726.083 895.885 725.044 891.73 724.352 L 891.73 697.674 L 891.73 693.864 L 883.76 693.864 L 883.76 697.674 L 883.76 724.352 C 879.601 724.698 875.445 725.737 871.982 727.468 L 870.943 726.43 L 832.486 660.26 L 830.408 656.793 L 823.478 660.953 L 825.556 664.416 L 864.013 730.585 L 864.705 731.624 C 860.896 734.399 857.429 737.862 854.658 741.671 L 831.101 727.815 L 827.638 725.737 L 823.478 732.663 L 826.945 734.745 L 850.849 748.602 C 849.117 752.411 848.078 756.571 847.728 760.726 L 847.382 760.726 L 770.819 760.726 L 766.663 760.726 L 766.663 768.696 L 770.819 768.696 L 847.382 768.696 L 847.728 768.696 C 848.078 772.851 849.117 777.011 850.849 780.821 L 826.945 794.677 L 823.478 796.755 L 827.638 803.685 L 831.101 801.607 L 854.658 787.751 C 857.082 791.214 859.857 793.984 862.974 796.409 L 861.935 797.794 L 823.824 864.66 L 821.747 868.123 L 828.677 872.279 L 830.755 868.816 L 869.207 802.646 L 869.904 801.261 C 874.06 803.339 878.562 804.724 883.76 805.07 L 883.76 831.402 L 883.76 835.558 L 891.73 835.558 L 891.73 831.402 L 891.73 805.07 C 896.924 804.724 901.426 802.993 905.932 800.915 L 906.625 801.954 L 945.428 868.469 L 947.506 871.933 L 954.432 867.777 L 952.354 864.314 L 913.901 798.14 L 913.209 796.755 C 916.326 794.331 919.096 791.56 921.174 788.443 L 944.731 802.3 L 948.198 804.378 L 952.354 797.448 L 948.891 795.37 L 924.987 781.513 C 926.719 777.704 927.758 773.544 928.104 769.388 L 928.451 769.388 L 1005.014 769.388 L 1009.169 769.388 L 1009.169 761.073 L 1005.014 761.073 Z M 887.916 796.755 C 870.25 796.755 856.043 782.552 856.043 764.882 C 856.043 747.216 870.25 733.01 887.916 733.01 C 905.586 733.01 919.789 747.216 919.789 764.882 C 919.789 782.552 905.24 796.755 887.916 796.755 Z" style="fill: rgb(142, 159, 233);"/>
    </g>
  </g>
</svg>