<svg width="1920" height="1080" viewBox="0 0 1920 1080" fill="none" xmlns="http://www.w3.org/2000/svg">
<g clip-path="url(#clip0_1338_2)">
<path d="M1920 0H0V1080H1920V0Z" fill="url(#paint0_linear_1338_2)" fill-opacity="0.5"/>
<path d="M363.403 127.033V177.381H356.31V127.033H338.68V120.924H381.279L380.541 127.033H363.403ZM409.25 133.306C413.323 133.306 416.726 134.235 419.459 136.094C422.22 137.925 424.284 140.522 425.65 143.884C427.044 147.246 427.741 151.209 427.741 155.774C427.741 160.175 427.031 164.07 425.609 167.459C424.188 170.848 422.097 173.513 419.336 175.454C416.603 177.367 413.214 178.324 409.168 178.324C405.123 178.324 401.72 177.395 398.959 175.536C396.199 173.677 394.108 171.067 392.686 167.705C391.292 164.316 390.595 160.366 390.595 155.856C390.595 151.401 391.306 147.478 392.727 144.089C394.149 140.7 396.24 138.062 399 136.176C401.788 134.263 405.205 133.306 409.25 133.306ZM409.25 138.923C405.533 138.923 402.718 140.303 400.804 143.064C398.918 145.797 397.975 150.061 397.975 155.856C397.975 161.541 398.905 165.764 400.763 168.525C402.649 171.286 405.451 172.666 409.168 172.666C412.886 172.666 415.674 171.286 417.532 168.525C419.418 165.764 420.361 161.514 420.361 155.774C420.361 150.034 419.432 145.797 417.573 143.064C415.715 140.303 412.94 138.923 409.25 138.923ZM478.139 134.208L458.705 153.642L480.394 177.381H471.333L450.095 153.806L469.201 134.208H478.139ZM449.316 115.963V177.381H442.428V116.824L449.316 115.963ZM512.998 134.208V171.928H525.175V177.381H492.785V171.928H506.11V139.661H493.195V134.208H512.998ZM507.504 113.995C509.035 113.995 510.251 114.46 511.153 115.389C512.083 116.318 512.547 117.453 512.547 118.792C512.547 120.186 512.083 121.361 511.153 122.318C510.251 123.247 509.035 123.712 507.504 123.712C506.056 123.712 504.867 123.247 503.937 122.318C503.008 121.361 502.543 120.186 502.543 118.792C502.543 117.453 503.008 116.318 503.937 115.389C504.867 114.46 506.056 113.995 507.504 113.995ZM556.754 133.306C560.827 133.306 564.23 134.235 566.963 136.094C569.724 137.925 571.788 140.522 573.154 143.884C574.548 147.246 575.245 151.209 575.245 155.774C575.245 160.175 574.535 164.07 573.113 167.459C571.692 170.848 569.601 173.513 566.84 175.454C564.107 177.367 560.718 178.324 556.672 178.324C552.627 178.324 549.224 177.395 546.463 175.536C543.703 173.677 541.612 171.067 540.19 167.705C538.796 164.316 538.099 160.366 538.099 155.856C538.099 151.401 538.81 147.478 540.231 144.089C541.653 140.7 543.744 138.062 546.504 136.176C549.292 134.263 552.709 133.306 556.754 133.306ZM556.754 138.923C553.037 138.923 550.222 140.303 548.308 143.064C546.422 145.797 545.479 150.061 545.479 155.856C545.479 161.541 546.409 165.764 548.267 168.525C550.153 171.286 552.955 172.666 556.672 172.666C560.39 172.666 563.178 171.286 565.036 168.525C566.922 165.764 567.865 161.514 567.865 155.774C567.865 150.034 566.936 145.797 565.077 143.064C563.219 140.303 560.444 138.923 556.754 138.923ZM669.563 167.951C669.563 169.673 669.85 170.93 670.424 171.723C670.998 172.516 671.887 173.103 673.089 173.486L671.408 178.324C669.55 178.078 667.923 177.49 666.529 176.561C665.135 175.604 664.124 174.169 663.495 172.256C661.937 174.251 659.997 175.768 657.673 176.807C655.35 177.818 652.781 178.324 649.965 178.324C645.647 178.324 642.244 177.108 639.756 174.675C637.269 172.242 636.025 169.017 636.025 164.999C636.025 160.544 637.761 157.127 641.232 154.749C644.704 152.371 649.719 151.182 656.279 151.182H662.634V147.574C662.634 144.458 661.719 142.258 659.887 140.973C658.083 139.661 655.569 139.005 652.343 139.005C650.922 139.005 649.255 139.183 647.341 139.538C645.428 139.866 643.351 140.426 641.109 141.219L639.305 136.012C641.957 135.028 644.444 134.331 646.767 133.921C649.091 133.511 651.305 133.306 653.409 133.306C658.794 133.306 662.826 134.563 665.504 137.078C668.21 139.565 669.563 142.955 669.563 147.246V167.951ZM651.728 173.076C653.86 173.076 655.897 172.543 657.837 171.477C659.778 170.384 661.377 168.88 662.634 166.967V155.856H656.402C651.646 155.856 648.284 156.676 646.316 158.316C644.376 159.956 643.405 162.156 643.405 164.917C643.405 167.596 644.089 169.632 645.455 171.026C646.849 172.393 648.94 173.076 651.728 173.076ZM702.495 172.625C705.803 172.625 708.413 172.01 710.326 170.78C712.267 169.523 713.237 167.855 713.237 165.778C713.237 164.466 712.991 163.332 712.499 162.375C712.035 161.418 711.064 160.557 709.588 159.792C708.112 159.027 705.844 158.261 702.782 157.496C699.803 156.758 697.206 155.911 694.992 154.954C692.806 153.97 691.097 152.699 689.867 151.141C688.665 149.583 688.063 147.56 688.063 145.073C688.063 142.64 688.747 140.549 690.113 138.8C691.507 137.023 693.434 135.67 695.894 134.741C698.354 133.784 701.211 133.306 704.463 133.306C707.935 133.306 710.955 133.771 713.524 134.7C716.121 135.602 718.321 136.723 720.125 138.062L717.091 142.736C715.451 141.615 713.647 140.7 711.679 139.989C709.711 139.251 707.333 138.882 704.545 138.882C701.156 138.882 698.751 139.415 697.329 140.481C695.908 141.52 695.197 142.873 695.197 144.54C695.197 145.797 695.539 146.85 696.222 147.697C696.933 148.517 698.122 149.269 699.789 149.952C701.457 150.608 703.753 151.332 706.677 152.125C709.493 152.863 711.939 153.751 714.016 154.79C716.121 155.829 717.761 157.195 718.936 158.89C720.112 160.585 720.699 162.771 720.699 165.45C720.699 168.511 719.825 170.999 718.075 172.912C716.326 174.798 714.057 176.178 711.269 177.053C708.509 177.9 705.584 178.324 702.495 178.324C698.587 178.324 695.252 177.764 692.491 176.643C689.758 175.495 687.462 174.115 685.603 172.502L689.539 167.951C691.234 169.345 693.175 170.479 695.361 171.354C697.575 172.201 699.953 172.625 702.495 172.625ZM772.901 134.208L757.731 177.668C756.72 180.593 755.435 183.271 753.877 185.704C752.346 188.137 750.337 190.146 747.85 191.731C745.39 193.344 742.26 194.341 738.461 194.724L737.395 189.23C740.374 188.738 742.725 187.986 744.447 186.975C746.169 185.964 747.522 184.665 748.506 183.08C749.517 181.495 750.406 179.595 751.171 177.381H748.875L733.787 134.208H741.167L753.549 172.133L765.767 134.208H772.901ZM786.153 177.381V134.208H792.016L792.549 140.194C794.298 137.98 796.485 136.285 799.109 135.11C801.76 133.907 804.33 133.306 806.817 133.306C811.054 133.306 814.129 134.427 816.042 136.668C817.983 138.909 818.953 142.025 818.953 146.016V177.381H812.065V151.1C812.065 148.148 811.901 145.77 811.573 143.966C811.245 142.135 810.562 140.809 809.523 139.989C808.484 139.142 806.872 138.718 804.685 138.718C802.99 138.718 801.391 139.087 799.888 139.825C798.412 140.563 797.086 141.492 795.911 142.613C794.763 143.706 793.806 144.813 793.041 145.934V177.381H786.153ZM854.837 172.379C856.996 172.379 859.005 172.024 860.864 171.313C862.75 170.602 864.486 169.7 866.071 168.607L869.433 173.117C867.547 174.73 865.278 176.001 862.627 176.93C859.976 177.859 857.379 178.324 854.837 178.324C850.546 178.324 846.883 177.408 843.849 175.577C840.842 173.718 838.546 171.122 836.961 167.787C835.376 164.425 834.583 160.489 834.583 155.979C834.583 151.66 835.376 147.793 836.961 144.376C838.574 140.932 840.883 138.226 843.89 136.258C846.924 134.29 850.6 133.306 854.919 133.306C857.68 133.306 860.263 133.73 862.668 134.577C865.101 135.397 867.328 136.641 869.351 138.308L865.989 142.9C864.158 141.615 862.313 140.659 860.454 140.03C858.623 139.374 856.75 139.046 854.837 139.046C851.12 139.046 848.058 140.44 845.653 143.228C843.248 146.016 842.045 150.266 842.045 155.979C842.045 159.806 842.592 162.935 843.685 165.368C844.806 167.773 846.323 169.55 848.236 170.698C850.177 171.819 852.377 172.379 854.837 172.379ZM953.173 172.379C955.332 172.379 957.341 172.024 959.2 171.313C961.086 170.602 962.822 169.7 964.407 168.607L967.769 173.117C965.883 174.73 963.614 176.001 960.963 176.93C958.312 177.859 955.715 178.324 953.173 178.324C948.882 178.324 945.219 177.408 942.185 175.577C939.178 173.718 936.882 171.122 935.297 167.787C933.712 164.425 932.919 160.489 932.919 155.979C932.919 151.66 933.712 147.793 935.297 144.376C936.91 140.932 939.219 138.226 942.226 136.258C945.26 134.29 948.936 133.306 953.255 133.306C956.016 133.306 958.599 133.73 961.004 134.577C963.437 135.397 965.664 136.641 967.687 138.308L964.325 142.9C962.494 141.615 960.649 140.659 958.79 140.03C956.959 139.374 955.086 139.046 953.173 139.046C949.456 139.046 946.394 140.44 943.989 143.228C941.584 146.016 940.381 150.266 940.381 155.979C940.381 159.806 940.928 162.935 942.021 165.368C943.142 167.773 944.659 169.55 946.572 170.698C948.513 171.819 950.713 172.379 953.173 172.379ZM1013.74 167.951C1013.74 169.673 1014.03 170.93 1014.6 171.723C1015.17 172.516 1016.06 173.103 1017.26 173.486L1015.58 178.324C1013.73 178.078 1012.1 177.49 1010.7 176.561C1009.31 175.604 1008.3 174.169 1007.67 172.256C1006.11 174.251 1004.17 175.768 1001.85 176.807C999.526 177.818 996.956 178.324 994.141 178.324C989.822 178.324 986.419 177.108 983.932 174.675C981.445 172.242 980.201 169.017 980.201 164.999C980.201 160.544 981.937 157.127 985.408 154.749C988.879 152.371 993.895 151.182 1000.45 151.182H1006.81V147.574C1006.81 144.458 1005.89 142.258 1004.06 140.973C1002.26 139.661 999.744 139.005 996.519 139.005C995.098 139.005 993.43 139.183 991.517 139.538C989.604 139.866 987.526 140.426 985.285 141.219L983.481 136.012C986.132 135.028 988.62 134.331 990.943 133.921C993.266 133.511 995.48 133.306 997.585 133.306C1002.97 133.306 1007 134.563 1009.68 137.078C1012.39 139.565 1013.74 142.955 1013.74 147.246V167.951ZM995.904 173.076C998.036 173.076 1000.07 172.543 1002.01 171.477C1003.95 170.384 1005.55 168.88 1006.81 166.967V155.856H1000.58C995.822 155.856 992.46 156.676 990.492 158.316C988.551 159.956 987.581 162.156 987.581 164.917C987.581 167.596 988.264 169.632 989.631 171.026C991.025 172.393 993.116 173.076 995.904 173.076ZM1031.99 177.381V134.208H1037.86L1038.39 140.194C1040.14 137.98 1042.32 136.285 1044.95 135.11C1047.6 133.907 1050.17 133.306 1052.66 133.306C1056.89 133.306 1059.97 134.427 1061.88 136.668C1063.82 138.909 1064.79 142.025 1064.79 146.016V177.381H1057.9V151.1C1057.9 148.148 1057.74 145.77 1057.41 143.966C1057.08 142.135 1056.4 140.809 1055.36 139.989C1054.32 139.142 1052.71 138.718 1050.52 138.718C1048.83 138.718 1047.23 139.087 1045.73 139.825C1044.25 140.563 1042.93 141.492 1041.75 142.613C1040.6 143.706 1039.65 144.813 1038.88 145.934V177.381H1031.99ZM1100.68 172.379C1102.84 172.379 1104.85 172.024 1106.7 171.313C1108.59 170.602 1110.33 169.7 1111.91 168.607L1115.27 173.117C1113.39 174.73 1111.12 176.001 1108.47 176.93C1105.82 177.859 1103.22 178.324 1100.68 178.324C1096.39 178.324 1092.72 177.408 1089.69 175.577C1086.68 173.718 1084.39 171.122 1082.8 167.787C1081.22 164.425 1080.42 160.489 1080.42 155.979C1080.42 151.66 1081.22 147.793 1082.8 144.376C1084.41 140.932 1086.72 138.226 1089.73 136.258C1092.76 134.29 1096.44 133.306 1100.76 133.306C1103.52 133.306 1106.1 133.73 1108.51 134.577C1110.94 135.397 1113.17 136.641 1115.19 138.308L1111.83 142.9C1110 141.615 1108.15 140.659 1106.29 140.03C1104.46 139.374 1102.59 139.046 1100.68 139.046C1096.96 139.046 1093.9 140.44 1091.49 143.228C1089.09 146.016 1087.88 150.266 1087.88 155.979C1087.88 159.806 1088.43 162.935 1089.52 165.368C1090.65 167.773 1092.16 169.55 1094.08 170.698C1096.02 171.819 1098.22 172.379 1100.68 172.379ZM1135.74 158.234C1135.88 161.569 1136.52 164.302 1137.67 166.434C1138.82 168.539 1140.33 170.097 1142.22 171.108C1144.1 172.092 1146.15 172.584 1148.37 172.584C1150.58 172.584 1152.58 172.256 1154.35 171.6C1156.16 170.944 1158 169.974 1159.89 168.689L1163.13 173.24C1161.11 174.825 1158.8 176.069 1156.2 176.971C1153.63 177.873 1150.99 178.324 1148.29 178.324C1144.1 178.324 1140.54 177.381 1137.59 175.495C1134.63 173.609 1132.38 170.985 1130.82 167.623C1129.29 164.234 1128.52 160.311 1128.52 155.856C1128.52 151.483 1129.3 147.601 1130.86 144.212C1132.42 140.823 1134.61 138.158 1137.42 136.217C1140.24 134.276 1143.56 133.306 1147.38 133.306C1151.02 133.306 1154.15 134.167 1156.77 135.889C1159.4 137.584 1161.41 140.016 1162.8 143.187C1164.22 146.33 1164.93 150.089 1164.93 154.462C1164.93 155.2 1164.92 155.897 1164.89 156.553C1164.86 157.182 1164.82 157.742 1164.77 158.234H1135.74ZM1147.47 138.964C1144.27 138.964 1141.59 140.098 1139.43 142.367C1137.3 144.636 1136.08 148.148 1135.78 152.904H1158.29C1158.21 148.285 1157.2 144.813 1155.26 142.49C1153.32 140.139 1150.72 138.964 1147.47 138.964ZM1196.31 116.824V166.721C1196.31 168.853 1196.96 170.37 1198.27 171.272C1199.61 172.147 1201.34 172.584 1203.44 172.584C1204.75 172.584 1206 172.447 1207.17 172.174C1208.35 171.901 1209.52 171.532 1210.7 171.067L1212.54 176.11C1211.37 176.684 1209.91 177.19 1208.16 177.627C1206.43 178.092 1204.48 178.324 1202.29 178.324C1198.47 178.324 1195.36 177.272 1192.99 175.167C1190.61 173.035 1189.42 170.097 1189.42 166.352V122.277H1176.18V116.824H1196.31ZM1292.51 172.625C1295.82 172.625 1298.43 172.01 1300.34 170.78C1302.28 169.523 1303.25 167.855 1303.25 165.778C1303.25 164.466 1303.01 163.332 1302.51 162.375C1302.05 161.418 1301.08 160.557 1299.6 159.792C1298.13 159.027 1295.86 158.261 1292.8 157.496C1289.82 156.758 1287.22 155.911 1285.01 154.954C1282.82 153.97 1281.11 152.699 1279.88 151.141C1278.68 149.583 1278.08 147.56 1278.08 145.073C1278.08 142.64 1278.76 140.549 1280.13 138.8C1281.52 137.023 1283.45 135.67 1285.91 134.741C1288.37 133.784 1291.23 133.306 1294.48 133.306C1297.95 133.306 1300.97 133.771 1303.54 134.7C1306.14 135.602 1308.34 136.723 1310.14 138.062L1307.11 142.736C1305.47 141.615 1303.66 140.7 1301.69 139.989C1299.73 139.251 1297.35 138.882 1294.56 138.882C1291.17 138.882 1288.77 139.415 1287.34 140.481C1285.92 141.52 1285.21 142.873 1285.21 144.54C1285.21 145.797 1285.55 146.85 1286.24 147.697C1286.95 148.517 1288.14 149.269 1289.8 149.952C1291.47 150.608 1293.77 151.332 1296.69 152.125C1299.51 152.863 1301.95 153.751 1304.03 154.79C1306.14 155.829 1307.78 157.195 1308.95 158.89C1310.13 160.585 1310.71 162.771 1310.71 165.45C1310.71 168.511 1309.84 170.999 1308.09 172.912C1306.34 174.798 1304.07 176.178 1301.28 177.053C1298.52 177.9 1295.6 178.324 1292.51 178.324C1288.6 178.324 1285.27 177.764 1282.51 176.643C1279.77 175.495 1277.48 174.115 1275.62 172.502L1279.55 167.951C1281.25 169.345 1283.19 170.479 1285.38 171.354C1287.59 172.201 1289.97 172.625 1292.51 172.625ZM1357.91 167.951C1357.91 169.673 1358.2 170.93 1358.78 171.723C1359.35 172.516 1360.24 173.103 1361.44 173.486L1359.76 178.324C1357.9 178.078 1356.27 177.49 1354.88 176.561C1353.49 175.604 1352.48 174.169 1351.85 172.256C1350.29 174.251 1348.35 175.768 1346.02 176.807C1343.7 177.818 1341.13 178.324 1338.32 178.324C1334 178.324 1330.6 177.108 1328.11 174.675C1325.62 172.242 1324.38 169.017 1324.38 164.999C1324.38 160.544 1326.11 157.127 1329.58 154.749C1333.06 152.371 1338.07 151.182 1344.63 151.182H1350.99V147.574C1350.99 144.458 1350.07 142.258 1348.24 140.973C1346.43 139.661 1343.92 139.005 1340.69 139.005C1339.27 139.005 1337.61 139.183 1335.69 139.538C1333.78 139.866 1331.7 140.426 1329.46 141.219L1327.66 136.012C1330.31 135.028 1332.8 134.331 1335.12 133.921C1337.44 133.511 1339.66 133.306 1341.76 133.306C1347.15 133.306 1351.18 134.563 1353.86 137.078C1356.56 139.565 1357.91 142.955 1357.91 147.246V167.951ZM1340.08 173.076C1342.21 173.076 1344.25 172.543 1346.19 171.477C1348.13 170.384 1349.73 168.88 1350.99 166.967V155.856H1344.75C1340 155.856 1336.64 156.676 1334.67 158.316C1332.73 159.956 1331.76 162.156 1331.76 164.917C1331.76 167.596 1332.44 169.632 1333.81 171.026C1335.2 172.393 1337.29 173.076 1340.08 173.076ZM1401.67 115.963C1403.99 115.963 1406.1 116.168 1407.98 116.578C1409.87 116.988 1411.66 117.562 1413.36 118.3L1411.14 123.425C1409.75 122.824 1408.27 122.373 1406.71 122.072C1405.16 121.771 1403.54 121.621 1401.88 121.621C1398.87 121.621 1396.6 122.209 1395.07 123.384C1393.57 124.559 1392.81 126.363 1392.81 128.796V137.57H1407.45L1406.71 142.982H1392.81V177.381H1385.93V142.982H1375.64V137.57H1385.93V128.96C1385.93 126.281 1386.61 123.972 1387.98 122.031C1389.37 120.09 1391.26 118.601 1393.63 117.562C1396.01 116.496 1398.69 115.963 1401.67 115.963ZM1430.75 158.234C1430.89 161.569 1431.53 164.302 1432.68 166.434C1433.82 168.539 1435.34 170.097 1437.23 171.108C1439.11 172.092 1441.16 172.584 1443.38 172.584C1445.59 172.584 1447.59 172.256 1449.36 171.6C1451.17 170.944 1453.01 169.974 1454.9 168.689L1458.14 173.24C1456.11 174.825 1453.8 176.069 1451.21 176.971C1448.64 177.873 1446 178.324 1443.29 178.324C1439.11 178.324 1435.55 177.381 1432.59 175.495C1429.64 173.609 1427.39 170.985 1425.83 167.623C1424.3 164.234 1423.53 160.311 1423.53 155.856C1423.53 151.483 1424.31 147.601 1425.87 144.212C1427.43 140.823 1429.61 138.158 1432.43 136.217C1435.25 134.276 1438.57 133.306 1442.39 133.306C1446.03 133.306 1449.16 134.167 1451.78 135.889C1454.41 137.584 1456.41 140.016 1457.81 143.187C1459.23 146.33 1459.94 150.089 1459.94 154.462C1459.94 155.2 1459.93 155.897 1459.9 156.553C1459.87 157.182 1459.83 157.742 1459.78 158.234H1430.75ZM1442.47 138.964C1439.28 138.964 1436.6 140.098 1434.44 142.367C1432.31 144.636 1431.09 148.148 1430.79 152.904H1453.3C1453.22 148.285 1452.21 144.813 1450.26 142.49C1448.32 140.139 1445.73 138.964 1442.47 138.964ZM1508.78 175.208C1507.3 176.192 1505.51 176.957 1503.41 177.504C1501.31 178.051 1499.24 178.324 1497.22 178.324C1492.57 178.324 1488.99 177.108 1486.48 174.675C1483.96 172.242 1482.7 169.113 1482.7 165.286V139.538H1472.78V134.208H1482.7V124.409L1489.59 123.589V134.208H1504.52L1503.7 139.538H1489.59V165.204C1489.59 167.609 1490.22 169.441 1491.48 170.698C1492.76 171.955 1494.88 172.584 1497.83 172.584C1499.45 172.584 1500.94 172.393 1502.3 172.01C1503.67 171.627 1504.94 171.135 1506.12 170.534L1508.78 175.208ZM1559.59 134.208L1544.42 177.668C1543.41 180.593 1542.12 183.271 1540.56 185.704C1539.03 188.137 1537.02 190.146 1534.54 191.731C1532.08 193.344 1528.95 194.341 1525.15 194.724L1524.08 189.23C1527.06 188.738 1529.41 187.986 1531.13 186.975C1532.86 185.964 1534.21 184.665 1535.19 183.08C1536.2 181.495 1537.09 179.595 1537.86 177.381H1535.56L1520.47 134.208H1527.85L1540.24 172.133L1552.45 134.208H1559.59Z" fill="url(#paint1_linear_1338_2)"/>
<path d="M809.506 263.848V301.568H821.683V307.021H789.293V301.568H802.618V269.301H789.703V263.848H809.506ZM804.012 243.635C805.543 243.635 806.759 244.1 807.661 245.029C808.59 245.958 809.055 247.093 809.055 248.432C809.055 249.826 808.59 251.001 807.661 251.958C806.759 252.887 805.543 253.352 804.012 253.352C802.563 253.352 801.374 252.887 800.445 251.958C799.516 251.001 799.051 249.826 799.051 248.432C799.051 247.093 799.516 245.958 800.445 245.029C801.374 244.1 802.563 243.635 804.012 243.635ZM836.821 307.021V263.848H842.684L843.217 269.834C844.966 267.62 847.153 265.925 849.777 264.75C852.428 263.547 854.998 262.946 857.485 262.946C861.722 262.946 864.797 264.067 866.71 266.308C868.651 268.549 869.621 271.665 869.621 275.656V307.021H862.733V280.74C862.733 277.788 862.569 275.41 862.241 273.606C861.913 271.775 861.23 270.449 860.191 269.629C859.152 268.782 857.54 268.358 855.353 268.358C853.658 268.358 852.059 268.727 850.556 269.465C849.08 270.203 847.754 271.132 846.579 272.253C845.431 273.346 844.474 274.453 843.709 275.574V307.021H836.821ZM970.991 266.39C970.991 269.205 970.376 271.665 969.146 273.77C967.943 275.875 966.303 277.61 964.226 278.977C962.149 280.344 959.812 281.341 957.215 281.97L973.943 307.021H965.415L949.999 282.79H942.373V307.021H935.239V250.564H949.753C956.723 250.564 961.998 251.903 965.579 254.582C969.187 257.233 970.991 261.169 970.991 266.39ZM963.365 266.39C963.365 262.755 962.326 260.158 960.249 258.6C958.172 257.015 954.946 256.222 950.573 256.222H942.373V277.214H950.573C954.618 277.214 957.762 276.394 960.003 274.754C962.244 273.087 963.365 270.299 963.365 266.39ZM991.213 263.848V294.434C991.213 297.277 991.801 299.327 992.976 300.584C994.151 301.841 995.983 302.47 998.47 302.47C1000.85 302.47 1003.09 301.8 1005.19 300.461C1007.33 299.094 1008.98 297.482 1010.15 295.623V263.848H1017.04V307.021H1011.18L1010.61 301.199C1008.91 303.386 1006.82 305.067 1004.33 306.242C1001.85 307.39 999.331 307.964 996.789 307.964C992.607 307.964 989.477 306.857 987.4 304.643C985.35 302.402 984.325 299.272 984.325 295.254V263.848H991.213ZM1048.17 302.265C1051.48 302.265 1054.09 301.65 1056 300.42C1057.94 299.163 1058.91 297.495 1058.91 295.418C1058.91 294.106 1058.67 292.972 1058.17 292.015C1057.71 291.058 1056.74 290.197 1055.26 289.432C1053.79 288.667 1051.52 287.901 1048.46 287.136C1045.48 286.398 1042.88 285.551 1040.67 284.594C1038.48 283.61 1036.77 282.339 1035.54 280.781C1034.34 279.223 1033.74 277.2 1033.74 274.713C1033.74 272.28 1034.42 270.189 1035.79 268.44C1037.18 266.663 1039.11 265.31 1041.57 264.381C1044.03 263.424 1046.89 262.946 1050.14 262.946C1053.61 262.946 1056.63 263.411 1059.2 264.34C1061.8 265.242 1064 266.363 1065.8 267.702L1062.77 272.376C1061.13 271.255 1059.32 270.34 1057.35 269.629C1055.39 268.891 1053.01 268.522 1050.22 268.522C1046.83 268.522 1044.43 269.055 1043 270.121C1041.58 271.16 1040.87 272.513 1040.87 274.18C1040.87 275.437 1041.21 276.49 1041.9 277.337C1042.61 278.157 1043.8 278.909 1045.46 279.592C1047.13 280.248 1049.43 280.972 1052.35 281.765C1055.17 282.503 1057.61 283.391 1059.69 284.43C1061.8 285.469 1063.44 286.835 1064.61 288.53C1065.79 290.225 1066.37 292.411 1066.37 295.09C1066.37 298.151 1065.5 300.639 1063.75 302.552C1062 304.438 1059.73 305.818 1056.94 306.693C1054.18 307.54 1051.26 307.964 1048.17 307.964C1044.26 307.964 1040.93 307.404 1038.17 306.283C1035.43 305.135 1033.14 303.755 1031.28 302.142L1035.21 297.591C1036.91 298.985 1038.85 300.119 1041.04 300.994C1043.25 301.841 1045.63 302.265 1048.17 302.265ZM1116.94 304.848C1115.46 305.832 1113.67 306.597 1111.57 307.144C1109.46 307.691 1107.4 307.964 1105.37 307.964C1100.73 307.964 1097.15 306.748 1094.63 304.315C1092.12 301.882 1090.86 298.753 1090.86 294.926V269.178H1080.94V263.848H1090.86V254.049L1097.75 253.229V263.848H1112.67L1111.85 269.178H1097.75V294.844C1097.75 297.249 1098.38 299.081 1099.63 300.338C1100.92 301.595 1103.04 302.224 1105.99 302.224C1107.6 302.224 1109.09 302.033 1110.46 301.65C1111.83 301.267 1113.1 300.775 1114.27 300.174L1116.94 304.848Z" fill="url(#paint2_linear_1338_2)"/>
<path d="M614.639 634.587H585.469V617.301H662.716V634.587H633.546V723.719H614.099L614.639 634.587Z" fill="url(#paint3_linear_1338_2)"/>
<path d="M675.679 715.08C668.656 708.057 664.875 699.414 664.875 688.61C664.875 677.806 668.116 669.163 675.679 662.141C682.702 655.118 691.885 651.877 703.769 651.877C715.654 651.877 724.837 655.118 731.859 662.141C738.881 669.163 742.123 677.806 742.123 688.61C742.123 699.414 738.881 708.057 731.319 715.08C724.297 722.102 715.113 725.343 703.229 725.343C691.345 725.343 682.702 721.562 675.679 715.08ZM688.643 672.944C684.862 676.726 682.702 682.128 682.702 688.61C682.702 695.093 684.862 700.494 688.643 704.276C692.425 708.057 697.287 710.218 703.229 710.218C709.171 710.218 714.033 708.057 717.814 704.276C721.595 700.494 723.756 695.093 723.756 688.61C723.756 682.128 721.595 676.726 717.814 672.944C714.033 669.163 709.171 667.002 703.229 667.002C697.827 667.002 692.965 669.163 688.643 672.944Z" fill="url(#paint4_linear_1338_2)"/>
<path d="M760.5 611.898H778.326V723.719H760.5V611.898ZM829.104 723.719H808.578L778.326 686.445L808.578 654.033H828.024L798.852 685.365L829.104 723.719Z" fill="url(#paint5_linear_1338_2)"/>
<path d="M844.224 637.829C842.064 635.669 840.984 632.968 840.984 630.267C840.984 627.566 842.064 624.865 844.224 622.704C846.384 620.543 849.09 619.463 851.79 619.463C854.49 619.463 857.19 620.543 859.35 622.704C861.51 624.865 862.59 627.566 862.59 630.267C862.59 632.968 861.51 635.669 859.35 637.829C857.19 639.991 854.49 641.071 851.79 641.071C849.09 641.071 846.384 639.991 844.224 637.829ZM842.604 723.721V653.495H860.43V723.18L842.604 723.721Z" fill="url(#paint6_linear_1338_2)"/>
<path d="M889.572 715.08C882.546 708.057 878.766 699.414 878.766 688.61C878.766 677.806 882.006 669.163 889.572 662.141C896.592 655.118 905.772 651.877 917.658 651.877C929.544 651.877 938.724 655.118 945.75 662.141C952.77 669.163 956.01 677.806 956.01 688.61C956.01 699.414 952.77 708.057 945.21 715.08C938.184 722.102 929.004 725.343 917.118 725.343C905.232 725.343 896.592 721.562 889.572 715.08ZM902.532 672.944C898.752 676.726 896.592 682.128 896.592 688.61C896.592 695.093 898.752 700.494 902.532 704.276C906.318 708.057 911.178 710.218 917.118 710.218C923.064 710.218 927.924 708.057 931.704 704.276C935.484 700.494 937.644 695.093 937.644 688.61C937.644 682.128 935.484 676.726 931.704 672.944C927.924 669.163 923.064 667.002 917.118 667.002C911.718 667.002 906.858 669.163 902.532 672.944Z" fill="url(#paint7_linear_1338_2)"/>
<path d="M231.605 743.169C236.677 743.169 240.788 739.058 240.788 733.986C240.788 728.914 236.677 724.803 231.605 724.803C226.534 724.803 222.422 728.914 222.422 733.986C222.422 739.058 226.534 743.169 231.605 743.169Z" fill="url(#paint8_linear_1338_2)"/>
<path d="M345.09 790.703C339.688 790.703 335.906 795.024 335.906 799.886C335.906 805.289 340.228 809.07 345.09 809.07C350.492 809.07 354.273 804.748 354.273 799.886C354.273 794.484 349.952 790.703 345.09 790.703Z" fill="url(#paint9_linear_1338_2)"/>
<path d="M345.09 544.918C350.492 544.918 354.273 540.597 354.273 535.735C354.273 530.873 349.952 526.012 345.09 526.012C339.688 526.012 335.906 530.333 335.906 535.195C335.906 540.057 339.688 544.918 345.09 544.918Z" fill="url(#paint10_linear_1338_2)"/>
<path d="M458.527 610.824C463.929 610.824 467.71 606.502 467.71 601.64C467.71 596.778 463.389 592.457 458.527 592.457C453.666 592.457 449.344 596.778 449.344 601.64C449.344 606.502 453.125 610.824 458.527 610.824Z" fill="url(#paint11_linear_1338_2)"/>
<path d="M231.605 610.819C237.007 610.819 240.788 606.497 240.788 601.635C240.788 596.773 237.007 591.912 231.605 591.912C226.203 591.912 222.422 596.233 222.422 601.095C222.422 605.957 226.203 610.819 231.605 610.819Z" fill="url(#paint12_linear_1338_2)"/>
<path d="M458.527 743.169C463.599 743.169 467.71 739.058 467.71 733.986C467.71 728.914 463.599 724.803 458.527 724.803C453.455 724.803 449.344 728.914 449.344 733.986C449.344 739.058 453.455 743.169 458.527 743.169Z" fill="url(#paint13_linear_1338_2)"/>
<path d="M345.09 658.357C339.688 658.357 335.906 662.679 335.906 667.54C335.906 672.402 340.228 676.724 345.09 676.724C350.492 676.724 354.273 672.402 354.273 667.54C354.273 662.679 349.952 658.357 345.09 658.357Z" fill="url(#paint14_linear_1338_2)"/>
<path d="M527.653 661.598H407.73H407.19C406.649 655.116 405.029 648.633 402.328 642.692L439.601 621.084L445.003 617.843L438.521 607.038L433.119 610.28L396.386 631.887C392.065 625.946 386.662 620.543 380.18 616.222L381.26 614.601L441.762 510.884L445.003 505.482L434.2 499L430.958 504.402L370.457 607.579L369.376 609.2C363.434 607.038 357.492 605.418 351.01 604.338V562.743V556.801H338.585V562.743V604.338C332.103 604.878 325.621 606.498 320.219 609.2L318.598 607.579L258.637 504.402L255.395 499L244.592 505.482L247.833 510.884L307.794 614.061L308.875 615.681C302.932 620.003 297.53 625.405 293.209 631.347L256.476 609.74L251.074 606.498L244.592 617.302L249.994 620.543L287.267 642.151C284.566 648.093 282.946 654.576 282.405 661.058H281.865H162.482H156V673.482H162.482H281.865H282.405C282.946 679.965 284.566 686.447 287.267 692.389L249.994 713.997L244.592 717.238L251.074 728.042L256.476 724.8L293.209 703.193C296.99 708.595 301.312 712.916 306.173 716.698L304.553 718.859L245.132 823.116L241.891 828.518L252.695 835L255.936 829.598L315.897 726.421L316.978 724.26C323.46 727.502 330.482 729.662 338.585 730.203V771.257V777.74H351.01V771.257V730.203C359.113 729.662 366.135 726.962 373.157 723.72L374.238 725.341L434.74 829.058L437.981 834.46L448.784 827.978L445.543 822.576L385.582 719.399L384.502 717.238C389.363 713.457 393.685 709.135 396.926 704.273L433.659 725.881L439.061 729.122L445.543 718.319L440.141 715.077L402.868 693.47C405.569 687.527 407.19 681.045 407.73 674.563H408.27H527.653H534.135V661.598H527.653ZM345.068 717.238C317.518 717.238 295.37 695.09 295.37 667.54C295.37 639.99 317.518 617.843 345.068 617.843C372.617 617.843 394.765 639.99 394.765 667.54C394.765 695.09 372.077 717.238 345.068 717.238Z" fill="url(#paint15_linear_1338_2)"/>
<path d="M1740.21 675.975L1724.99 666.545C1724.86 665.061 1724.71 663.581 1724.56 662.107L1737.66 649.903C1738.99 648.662 1739.59 646.824 1739.23 645.049C1738.88 643.264 1737.63 641.794 1735.92 641.166L1719.18 634.925C1718.76 633.476 1718.32 632.037 1717.87 630.592L1728.3 616.099C1729.37 614.626 1729.59 612.709 1728.89 611.037C1728.2 609.363 1726.68 608.163 1724.91 607.869L1707.26 604.998C1706.57 603.66 1705.86 602.342 1705.14 601.045L1712.56 584.75C1713.32 583.093 1713.16 581.179 1712.15 579.654C1711.14 578.142 1709.43 577.258 1707.6 577.327L1689.68 577.951C1688.75 576.793 1687.81 575.646 1686.85 574.519L1690.98 557.08C1691.39 555.308 1690.87 553.439 1689.58 552.157C1688.3 550.874 1686.44 550.343 1684.66 550.759L1667.22 554.885C1666.09 553.928 1664.94 552.982 1663.78 552.056L1664.41 534.132C1664.47 532.318 1663.59 530.595 1662.08 529.59C1660.56 528.577 1658.65 528.425 1656.98 529.177L1640.72 536.597C1639.41 535.875 1638.09 535.161 1636.77 534.471L1633.89 516.824C1633.6 515.035 1632.4 513.516 1630.72 512.837C1629.05 512.14 1627.12 512.365 1625.66 513.426L1611.17 523.862C1609.74 523.408 1608.3 522.971 1606.87 522.555L1600.63 505.809C1599.99 504.103 1598.52 502.852 1596.75 502.498C1594.96 502.148 1593.14 502.741 1591.89 504.065L1579.69 517.171C1578.21 517.008 1576.73 516.859 1575.25 516.737L1565.82 501.482C1564.87 499.94 1563.18 499 1561.35 499C1559.52 499 1557.85 499.94 1556.91 501.482L1547.48 516.737C1546 516.859 1544.51 517.008 1543.04 517.171L1530.84 504.065C1529.6 502.741 1527.76 502.148 1525.98 502.498C1524.2 502.855 1522.73 504.103 1522.1 505.809L1515.86 522.555C1514.41 522.971 1512.98 523.411 1511.56 523.862L1497.07 513.426C1495.59 512.362 1493.67 512.137 1492.01 512.837C1490.33 513.53 1489.13 515.049 1488.84 516.824L1485.96 534.471C1484.63 535.161 1483.31 535.872 1482.01 536.597L1465.75 529.177C1464.09 528.421 1462.18 528.577 1460.65 529.59C1459.14 530.595 1458.25 532.318 1458.32 534.132L1458.95 552.056C1457.79 552.982 1456.64 553.928 1455.51 554.885L1438.07 550.759C1436.3 550.347 1434.43 550.874 1433.15 552.157C1431.86 553.443 1431.33 555.298 1431.75 557.08L1435.84 574.519C1434.89 575.649 1433.94 576.793 1433.02 577.951L1415.09 577.327C1413.29 577.275 1411.56 578.142 1410.55 579.654C1409.54 581.158 1409.39 583.086 1410.14 584.75L1417.56 601.045C1416.84 602.353 1416.12 603.67 1415.43 604.998L1397.79 607.869C1395.99 608.16 1394.48 609.359 1393.8 611.037C1393.1 612.719 1393.33 614.643 1394.39 616.099L1404.82 630.592C1404.37 632.024 1403.93 633.462 1403.51 634.925L1386.77 641.166C1385.07 641.801 1383.82 643.271 1383.46 645.049C1383.11 646.831 1383.7 648.655 1385.03 649.903L1398.14 662.107C1397.97 663.581 1397.83 665.064 1397.7 666.545L1382.48 675.975C1380.94 676.929 1380 678.614 1380 680.448C1380 682.282 1380.94 683.949 1382.48 684.886L1397.7 694.316C1397.83 695.8 1397.97 697.28 1398.14 698.754L1385.03 710.958C1383.7 712.195 1383.11 714.033 1383.46 715.812C1383.82 717.597 1385.07 719.064 1386.77 719.695L1403.51 725.935C1403.93 727.385 1404.37 728.823 1404.82 730.269L1394.39 744.761C1393.33 746.238 1393.1 748.156 1393.8 749.823C1394.5 751.505 1396.01 752.704 1397.82 752.992L1415.47 755.863C1416.16 757.201 1416.87 758.519 1417.59 759.815L1410.17 776.076C1409.42 777.73 1409.57 779.647 1410.59 781.172C1411.6 782.687 1413.32 783.571 1415.13 783.499L1433.02 782.871C1433.95 784.036 1434.89 785.177 1435.85 786.31L1431.76 803.75C1431.34 805.518 1431.86 807.355 1433.15 808.638C1434.43 809.931 1436.29 810.448 1438.08 810.032L1455.52 805.941C1456.65 806.905 1457.8 807.841 1458.95 808.763L1458.33 826.688C1458.26 828.501 1459.15 830.224 1460.66 831.229C1462.16 832.238 1464.09 832.391 1465.75 831.635L1482.01 824.216C1483.33 824.944 1484.64 825.651 1485.97 826.341L1488.84 843.988C1489.14 845.784 1490.33 847.303 1492.01 848.01C1493.69 848.707 1495.62 848.482 1497.07 847.424L1511.57 836.988C1513 837.442 1514.44 837.886 1515.9 838.302L1522.14 855.048C1522.78 856.747 1524.25 858.005 1526.03 858.352C1527.81 858.713 1529.63 858.116 1530.88 856.785L1543.08 843.68C1544.56 843.85 1546.04 843.992 1547.52 844.123L1556.95 859.344C1557.9 860.88 1559.59 861.826 1561.39 861.826C1563.19 861.826 1564.89 860.883 1565.86 859.344L1575.29 844.123C1576.78 843.992 1578.26 843.85 1579.73 843.68L1591.93 856.785C1593.17 858.116 1595.01 858.713 1596.79 858.352C1598.57 858.002 1600.04 856.747 1600.67 855.048L1606.91 838.302C1608.36 837.886 1609.8 837.442 1611.24 836.988L1625.74 847.424C1627.21 848.482 1629.13 848.707 1630.8 848.01C1632.48 847.32 1633.68 845.798 1633.97 843.988L1636.85 826.341C1638.18 825.651 1639.49 824.933 1640.8 824.216L1657.06 831.635C1658.71 832.391 1660.63 832.238 1662.16 831.229C1663.67 830.217 1664.55 828.501 1664.48 826.688L1663.86 808.763C1665.02 807.837 1666.16 806.905 1667.29 805.941L1684.73 810.032C1686.5 810.448 1688.37 809.931 1689.66 808.638C1690.95 807.352 1691.47 805.504 1691.05 803.75L1686.96 786.31C1687.92 785.177 1688.86 784.036 1689.78 782.871L1707.71 783.499C1709.52 783.571 1711.25 782.687 1712.25 781.172C1713.26 779.661 1713.42 777.736 1712.66 776.076L1705.24 759.815C1705.96 758.501 1706.68 757.184 1707.36 755.863L1725.01 752.992C1726.81 752.704 1728.32 751.505 1729 749.823C1729.69 748.149 1729.47 746.218 1728.41 744.761L1717.97 730.269C1718.42 728.837 1718.86 727.398 1719.28 725.935L1736.03 719.695C1737.73 719.057 1738.99 717.59 1739.33 715.812C1739.69 714.03 1739.1 712.206 1737.76 710.958L1724.66 698.754C1724.82 697.28 1724.96 695.796 1725.09 694.316L1740.31 684.886C1741.85 683.936 1742.8 682.247 1742.8 680.448C1742.8 678.648 1741.86 676.946 1740.32 675.975H1740.21ZM1638.28 802.522C1632.45 801.267 1628.78 795.519 1630.03 789.694C1631.27 783.87 1636.99 780.16 1642.82 781.408C1648.64 782.653 1652.35 788.411 1651.11 794.236C1649.86 800.061 1644.14 803.77 1638.31 802.522H1638.28ZM1633.11 767.505C1627.81 766.368 1622.57 769.745 1621.46 775.063L1616.05 800.303C1599.38 807.862 1580.69 812.091 1561.27 812.091C1541.3 812.091 1522.44 807.688 1505.45 799.783L1500.05 774.543C1498.91 769.239 1493.7 765.841 1488.4 766.985L1466.1 771.77C1461.98 767.505 1458.13 762.963 1454.59 758.179H1563.11C1564.34 758.179 1565.16 757.957 1565.16 756.841V718.356C1565.16 717.24 1564.34 717.018 1563.11 717.018H1531.39V692.714H1565.68C1568.81 692.714 1582.42 693.609 1586.76 711.02C1588.12 716.359 1591.13 733.764 1593.17 739.346C1595.21 745.587 1603.5 758.068 1612.34 758.068H1666.43C1667.04 758.068 1667.7 757.999 1668.39 757.874C1664.64 762.97 1660.52 767.79 1656.11 772.297L1633.3 767.408L1633.11 767.505ZM1482.99 802.002C1477.16 803.257 1471.44 799.548 1470.19 793.716C1468.95 787.891 1472.65 782.136 1478.48 780.888C1484.31 779.643 1490.03 783.353 1491.28 789.174C1492.52 794.999 1488.82 800.754 1482.99 802.002ZM1441.73 635.237C1444.14 640.681 1441.69 647.06 1436.25 649.487C1430.81 651.904 1424.46 649.445 1422.04 644.009C1419.61 638.573 1422.08 632.186 1427.52 629.76C1432.96 627.346 1439.3 629.801 1441.73 635.237ZM1429.08 665.193L1452.31 654.861C1457.26 652.659 1459.52 646.852 1457.3 641.894L1452.51 631.077H1471.31V715.673H1433.51C1430.22 704.093 1428.45 691.889 1428.45 679.269C1428.45 674.45 1428.71 669.7 1429.21 665.019L1429.08 665.193ZM1531.01 656.976V632.013H1575.73C1578.04 632.013 1592.06 634.686 1592.06 645.153C1592.06 653.855 1581.31 656.976 1572.47 656.976H1530.87H1531.01ZM1693.61 679.442C1693.61 682.757 1693.49 686.03 1693.25 689.289H1679.62C1678.26 689.289 1677.71 690.183 1677.71 691.518V697.759C1677.71 712.459 1669.43 715.683 1662.15 716.481C1655.21 717.261 1647.55 713.582 1646.61 709.339C1642.52 686.352 1635.73 681.464 1624.98 672.935C1638.33 664.475 1652.19 651.959 1652.19 635.144C1652.19 617.081 1639.82 605.709 1631.39 600.127C1619.53 592.326 1606.43 590.766 1602.89 590.766H1462.13C1481.23 569.478 1507.2 554.362 1536.33 548.814L1552.93 566.219C1556.68 570.137 1562.88 570.31 1566.84 566.538L1585.42 548.787C1624.25 556.033 1657.19 580.233 1676.26 613.62L1663.53 642.328C1661.34 647.285 1663.58 653.11 1668.52 655.294L1693 666.181C1693.42 670.515 1693.65 674.918 1693.65 679.356L1693.61 679.442ZM1552.85 534.173C1557.15 530.047 1563.98 530.221 1568.07 534.523C1572.16 538.822 1572.02 545.652 1567.71 549.778C1563.41 553.904 1556.58 553.731 1552.49 549.425C1548.4 545.126 1548.54 538.295 1552.85 534.17V534.173ZM1679.05 635.758C1681.46 630.314 1687.82 627.853 1693.27 630.28C1698.71 632.693 1701.17 639.086 1698.74 644.529C1696.33 649.972 1689.97 652.434 1684.53 650.007C1679.08 647.594 1676.62 641.201 1679.05 635.758Z" fill="url(#paint16_linear_1338_2)"/>
</g>
<defs>
<linearGradient id="paint0_linear_1338_2" x1="960" y1="0" x2="960" y2="1080" gradientUnits="userSpaceOnUse">
<stop stop-color="#323232"/>
<stop offset="1"/>
</linearGradient>
<linearGradient id="paint1_linear_1338_2" x1="338.171" y1="204.651" x2="1580.47" y2="204.651" gradientUnits="userSpaceOnUse">
<stop stop-color="#0095D5"/>
<stop offset="0.464053" stop-color="#7272E1"/>
<stop offset="1" stop-color="#7E6EE3"/>
</linearGradient>
<linearGradient id="paint2_linear_1338_2" x1="951.5" y1="226.021" x2="951.5" y2="334.021" gradientUnits="userSpaceOnUse">
<stop stop-color="#B32BD5"/>
<stop offset="1" stop-color="#DA3C8E"/>
</linearGradient>
<linearGradient id="paint3_linear_1338_2" x1="624.093" y1="617.301" x2="624.093" y2="723.719" gradientUnits="userSpaceOnUse">
<stop stop-color="#806EE3"/>
<stop offset="1" stop-color="#B32BD5"/>
</linearGradient>
<linearGradient id="paint4_linear_1338_2" x1="703.499" y1="651.877" x2="703.499" y2="725.343" gradientUnits="userSpaceOnUse">
<stop stop-color="#806EE3"/>
<stop offset="1" stop-color="#B32BD5"/>
</linearGradient>
<linearGradient id="paint5_linear_1338_2" x1="794.802" y1="611.898" x2="794.802" y2="723.719" gradientUnits="userSpaceOnUse">
<stop stop-color="#806EE3"/>
<stop offset="1" stop-color="#B32BD5"/>
</linearGradient>
<linearGradient id="paint6_linear_1338_2" x1="851.787" y1="619.463" x2="851.787" y2="723.721" gradientUnits="userSpaceOnUse">
<stop stop-color="#806EE3"/>
<stop offset="1" stop-color="#B32BD5"/>
</linearGradient>
<linearGradient id="paint7_linear_1338_2" x1="917.388" y1="651.877" x2="917.388" y2="725.343" gradientUnits="userSpaceOnUse">
<stop stop-color="#806EE3"/>
<stop offset="1" stop-color="#B32BD5"/>
</linearGradient>
<linearGradient id="paint8_linear_1338_2" x1="231.605" y1="724.803" x2="231.605" y2="743.169" gradientUnits="userSpaceOnUse">
<stop stop-color="#806EE3"/>
<stop offset="1" stop-color="#B32BD5"/>
</linearGradient>
<linearGradient id="paint9_linear_1338_2" x1="345.09" y1="790.703" x2="345.09" y2="809.07" gradientUnits="userSpaceOnUse">
<stop stop-color="#806EE3"/>
<stop offset="1" stop-color="#B32BD5"/>
</linearGradient>
<linearGradient id="paint10_linear_1338_2" x1="345.09" y1="526.012" x2="345.09" y2="544.918" gradientUnits="userSpaceOnUse">
<stop stop-color="#806EE3"/>
<stop offset="1" stop-color="#B32BD5"/>
</linearGradient>
<linearGradient id="paint11_linear_1338_2" x1="458.527" y1="592.457" x2="458.527" y2="610.824" gradientUnits="userSpaceOnUse">
<stop stop-color="#806EE3"/>
<stop offset="1" stop-color="#B32BD5"/>
</linearGradient>
<linearGradient id="paint12_linear_1338_2" x1="231.605" y1="591.912" x2="231.605" y2="610.819" gradientUnits="userSpaceOnUse">
<stop stop-color="#806EE3"/>
<stop offset="1" stop-color="#B32BD5"/>
</linearGradient>
<linearGradient id="paint13_linear_1338_2" x1="458.527" y1="724.803" x2="458.527" y2="743.169" gradientUnits="userSpaceOnUse">
<stop stop-color="#806EE3"/>
<stop offset="1" stop-color="#B32BD5"/>
</linearGradient>
<linearGradient id="paint14_linear_1338_2" x1="345.09" y1="658.357" x2="345.09" y2="676.724" gradientUnits="userSpaceOnUse">
<stop stop-color="#806EE3"/>
<stop offset="1" stop-color="#B32BD5"/>
</linearGradient>
<linearGradient id="paint15_linear_1338_2" x1="345.068" y1="499" x2="345.068" y2="835" gradientUnits="userSpaceOnUse">
<stop stop-color="#806EE3"/>
<stop offset="1" stop-color="#B32BD5"/>
</linearGradient>
<linearGradient id="paint16_linear_1338_2" x1="1561.4" y1="499" x2="1561.4" y2="861.826" gradientUnits="userSpaceOnUse">
<stop stop-color="#B32BD5"/>
<stop offset="1" stop-color="#DA3C8E"/>
</linearGradient>
<clipPath id="clip0_1338_2">
<rect width="1920" height="1080" fill="white"/>
</clipPath>
</defs>
</svg>
