<svg width="1920" height="1080" viewBox="0 0 1920 1080" fill="none" xmlns="http://www.w3.org/2000/svg">
<g clip-path="url(#clip0_1293_61)">
<path d="M1920 0H0V1080H1920V0Z" fill="url(#paint0_linear_1293_61)" fill-opacity="0.5"/>
<path d="M510.907 127.033V177.381H503.814V127.033H486.184V120.924H528.783L528.045 127.033H510.907ZM556.754 133.306C560.827 133.306 564.23 134.235 566.963 136.094C569.724 137.925 571.788 140.522 573.154 143.884C574.548 147.246 575.245 151.209 575.245 155.774C575.245 160.175 574.535 164.07 573.113 167.459C571.692 170.848 569.601 173.513 566.84 175.454C564.107 177.367 560.718 178.324 556.672 178.324C552.627 178.324 549.224 177.395 546.463 175.536C543.703 173.677 541.612 171.067 540.19 167.705C538.796 164.316 538.099 160.366 538.099 155.856C538.099 151.401 538.81 147.478 540.231 144.089C541.653 140.7 543.744 138.062 546.504 136.176C549.292 134.263 552.709 133.306 556.754 133.306ZM556.754 138.923C553.037 138.923 550.222 140.303 548.308 143.064C546.422 145.797 545.479 150.061 545.479 155.856C545.479 161.541 546.409 165.764 548.267 168.525C550.153 171.286 552.955 172.666 556.672 172.666C560.39 172.666 563.178 171.286 565.036 168.525C566.922 165.764 567.865 161.514 567.865 155.774C567.865 150.034 566.936 145.797 565.077 143.064C563.219 140.303 560.444 138.923 556.754 138.923ZM625.643 134.208L606.209 153.642L627.898 177.381H618.837L597.599 153.806L616.705 134.208H625.643ZM596.82 115.963V177.381H589.932V116.824L596.82 115.963ZM660.502 134.208V171.928H672.679V177.381H640.289V171.928H653.614V139.661H640.699V134.208H660.502ZM655.008 113.995C656.539 113.995 657.755 114.46 658.657 115.389C659.587 116.318 660.051 117.453 660.051 118.792C660.051 120.186 659.587 121.361 658.657 122.318C657.755 123.247 656.539 123.712 655.008 123.712C653.56 123.712 652.371 123.247 651.441 122.318C650.512 121.361 650.047 120.186 650.047 118.792C650.047 117.453 650.512 116.318 651.441 115.389C652.371 114.46 653.56 113.995 655.008 113.995ZM704.258 133.306C708.331 133.306 711.734 134.235 714.467 136.094C717.228 137.925 719.292 140.522 720.658 143.884C722.052 147.246 722.749 151.209 722.749 155.774C722.749 160.175 722.039 164.07 720.617 167.459C719.196 170.848 717.105 173.513 714.344 175.454C711.611 177.367 708.222 178.324 704.176 178.324C700.131 178.324 696.728 177.395 693.967 175.536C691.207 173.677 689.116 171.067 687.694 167.705C686.3 164.316 685.603 160.366 685.603 155.856C685.603 151.401 686.314 147.478 687.735 144.089C689.157 140.7 691.248 138.062 694.008 136.176C696.796 134.263 700.213 133.306 704.258 133.306ZM704.258 138.923C700.541 138.923 697.726 140.303 695.812 143.064C693.926 145.797 692.983 150.061 692.983 155.856C692.983 161.541 693.913 165.764 695.771 168.525C697.657 171.286 700.459 172.666 704.176 172.666C707.894 172.666 710.682 171.286 712.54 168.525C714.426 165.764 715.369 161.514 715.369 155.774C715.369 150.034 714.44 145.797 712.581 143.064C710.723 140.303 707.948 138.923 704.258 138.923ZM820.429 175.208C818.953 176.192 817.163 176.957 815.058 177.504C812.953 178.051 810.89 178.324 808.867 178.324C804.22 178.324 800.64 177.108 798.125 174.675C795.61 172.242 794.353 169.113 794.353 165.286V139.538H784.431V134.208H794.353V124.409L801.241 123.589V134.208H816.165L815.345 139.538H801.241V165.204C801.241 167.609 801.87 169.441 803.127 170.698C804.412 171.955 806.53 172.584 809.482 172.584C811.095 172.584 812.584 172.393 813.951 172.01C815.318 171.627 816.589 171.135 817.764 170.534L820.429 175.208ZM835.731 177.381V172.092H842.455V139.497H835.731V134.208H847.703L848.974 144.417C850.641 140.864 852.664 138.117 855.042 136.176C857.42 134.235 860.563 133.265 864.472 133.265C865.675 133.265 866.741 133.361 867.67 133.552C868.627 133.716 869.597 133.935 870.581 134.208L868.572 140.358C867.67 140.112 866.85 139.934 866.112 139.825C865.374 139.688 864.527 139.62 863.57 139.62C860.263 139.62 857.42 140.795 855.042 143.146C852.664 145.497 850.764 149.05 849.343 153.806V172.092H858.117V177.381H835.731ZM863.939 148.804V139.415L864.636 134.208H870.581L869.597 148.804H863.939ZM915.403 167.951C915.403 169.673 915.69 170.93 916.264 171.723C916.838 172.516 917.726 173.103 918.929 173.486L917.248 178.324C915.389 178.078 913.763 177.49 912.369 176.561C910.975 175.604 909.964 174.169 909.335 172.256C907.777 174.251 905.836 175.768 903.513 176.807C901.19 177.818 898.62 178.324 895.805 178.324C891.486 178.324 888.083 177.108 885.596 174.675C883.109 172.242 881.865 169.017 881.865 164.999C881.865 160.544 883.601 157.127 887.072 154.749C890.543 152.371 895.559 151.182 902.119 151.182H908.474V147.574C908.474 144.458 907.558 142.258 905.727 140.973C903.923 139.661 901.408 139.005 898.183 139.005C896.762 139.005 895.094 139.183 893.181 139.538C891.268 139.866 889.19 140.426 886.949 141.219L885.145 136.012C887.796 135.028 890.284 134.331 892.607 133.921C894.93 133.511 897.144 133.306 899.249 133.306C904.634 133.306 908.665 134.563 911.344 137.078C914.05 139.565 915.403 142.955 915.403 147.246V167.951ZM897.568 173.076C899.7 173.076 901.736 172.543 903.677 171.477C905.618 170.384 907.217 168.88 908.474 166.967V155.856H902.242C897.486 155.856 894.124 156.676 892.156 158.316C890.215 159.956 889.245 162.156 889.245 164.917C889.245 167.596 889.928 169.632 891.295 171.026C892.689 172.393 894.78 173.076 897.568 173.076ZM953.173 172.379C955.332 172.379 957.341 172.024 959.2 171.313C961.086 170.602 962.822 169.7 964.407 168.607L967.769 173.117C965.883 174.73 963.614 176.001 960.963 176.93C958.312 177.859 955.715 178.324 953.173 178.324C948.882 178.324 945.219 177.408 942.185 175.577C939.178 173.718 936.882 171.122 935.297 167.787C933.712 164.425 932.919 160.489 932.919 155.979C932.919 151.66 933.712 147.793 935.297 144.376C936.91 140.932 939.219 138.226 942.226 136.258C945.26 134.29 948.936 133.306 953.255 133.306C956.016 133.306 958.599 133.73 961.004 134.577C963.437 135.397 965.664 136.641 967.687 138.308L964.325 142.9C962.494 141.615 960.649 140.659 958.79 140.03C956.959 139.374 955.086 139.046 953.173 139.046C949.456 139.046 946.394 140.44 943.989 143.228C941.584 146.016 940.381 150.266 940.381 155.979C940.381 159.806 940.928 162.935 942.021 165.368C943.142 167.773 944.659 169.55 946.572 170.698C948.513 171.819 950.713 172.379 953.173 172.379ZM1004.68 134.208V171.928H1016.85V177.381H984.465V171.928H997.79V139.661H984.875V134.208H1004.68ZM999.184 113.995C1000.71 113.995 1001.93 114.46 1002.83 115.389C1003.76 116.318 1004.23 117.453 1004.23 118.792C1004.23 120.186 1003.76 121.361 1002.83 122.318C1001.93 123.247 1000.71 123.712 999.184 123.712C997.735 123.712 996.546 123.247 995.617 122.318C994.688 121.361 994.223 120.186 994.223 118.792C994.223 117.453 994.688 116.318 995.617 115.389C996.546 114.46 997.735 113.995 999.184 113.995ZM1031.99 177.381V134.208H1037.86L1038.39 140.194C1040.14 137.98 1042.32 136.285 1044.95 135.11C1047.6 133.907 1050.17 133.306 1052.66 133.306C1056.89 133.306 1059.97 134.427 1061.88 136.668C1063.82 138.909 1064.79 142.025 1064.79 146.016V177.381H1057.9V151.1C1057.9 148.148 1057.74 145.77 1057.41 143.966C1057.08 142.135 1056.4 140.809 1055.36 139.989C1054.32 139.142 1052.71 138.718 1050.52 138.718C1048.83 138.718 1047.23 139.087 1045.73 139.825C1044.25 140.563 1042.93 141.492 1041.75 142.613C1040.6 143.706 1039.65 144.813 1038.88 145.934V177.381H1031.99ZM1116.26 129.616L1118.39 136.094C1116.56 136.668 1114.6 137.023 1112.53 137.16C1110.45 137.297 1108.19 137.365 1105.76 137.365C1108.25 138.513 1110.12 140.003 1111.38 141.834C1112.64 143.638 1113.26 145.77 1113.26 148.23C1113.26 151.073 1112.62 153.601 1111.34 155.815C1110.05 158.029 1108.19 159.765 1105.76 161.022C1103.36 162.279 1100.44 162.908 1097.03 162.908C1095.58 162.908 1094.36 162.84 1093.38 162.703C1092.42 162.566 1091.49 162.361 1090.59 162.088C1089.93 162.525 1089.39 163.127 1088.95 163.892C1088.54 164.657 1088.34 165.45 1088.34 166.27C1088.34 167.309 1088.75 168.17 1089.57 168.853C1090.39 169.536 1091.9 169.878 1094.12 169.878H1101.91C1104.8 169.878 1107.4 170.397 1109.7 171.436C1112.02 172.475 1113.84 173.869 1115.15 175.618C1116.49 177.367 1117.16 179.363 1117.16 181.604C1117.16 185.841 1115.35 189.093 1111.75 191.362C1108.17 193.631 1103.1 194.765 1096.54 194.765C1091.94 194.765 1088.32 194.287 1085.67 193.33C1083.02 192.401 1081.12 190.966 1079.97 189.025C1078.85 187.112 1078.29 184.693 1078.29 181.768H1084.52C1084.52 183.435 1084.85 184.816 1085.51 185.909C1086.16 187.002 1087.35 187.809 1089.07 188.328C1090.8 188.875 1093.27 189.148 1096.49 189.148C1099.67 189.148 1102.25 188.875 1104.24 188.328C1106.27 187.809 1107.76 187.016 1108.71 185.95C1109.7 184.911 1110.19 183.613 1110.19 182.055C1110.19 180.005 1109.26 178.461 1107.4 177.422C1105.54 176.383 1103.22 175.864 1100.43 175.864H1092.72C1089.01 175.864 1086.26 175.044 1084.48 173.404C1082.73 171.764 1081.86 169.878 1081.86 167.746C1081.86 166.352 1082.25 164.999 1083.05 163.687C1083.87 162.375 1085.06 161.213 1086.61 160.202C1084.13 158.89 1082.3 157.264 1081.12 155.323C1079.94 153.382 1079.36 151.032 1079.36 148.271C1079.36 145.346 1080.08 142.763 1081.53 140.522C1082.98 138.253 1085 136.477 1087.6 135.192C1090.19 133.907 1093.19 133.265 1096.58 133.265C1100.21 133.238 1103.16 133.087 1105.43 132.814C1107.7 132.513 1109.64 132.09 1111.25 131.543C1112.89 130.996 1114.56 130.354 1116.26 129.616ZM1096.58 138.308C1093.11 138.308 1090.54 139.251 1088.87 141.137C1087.23 142.996 1086.41 145.374 1086.41 148.271C1086.41 151.196 1087.26 153.601 1088.95 155.487C1090.65 157.373 1093.24 158.316 1096.74 158.316C1099.8 158.316 1102.13 157.428 1103.71 155.651C1105.32 153.874 1106.13 151.401 1106.13 148.23C1106.13 144.977 1105.32 142.517 1103.71 140.85C1102.13 139.155 1099.75 138.308 1096.58 138.308ZM1146.69 163.892C1148.57 163.892 1150.15 164.534 1151.4 165.819C1152.69 167.104 1153.33 168.648 1153.33 170.452C1153.33 171.436 1153.21 172.434 1152.96 173.445C1152.74 174.456 1152.33 175.604 1151.73 176.889L1145.09 192.1H1138.86L1142.79 175.905C1141.97 175.304 1141.32 174.525 1140.82 173.568C1140.36 172.584 1140.13 171.545 1140.13 170.452C1140.13 168.621 1140.76 167.076 1142.01 165.819C1143.27 164.534 1144.83 163.892 1146.69 163.892ZM1265.81 149.214C1265.81 154.899 1265.03 159.942 1263.47 164.343C1261.94 168.716 1259.63 172.147 1256.54 174.634C1253.46 177.094 1249.62 178.324 1245.02 178.324C1240.46 178.324 1236.62 177.121 1233.5 174.716C1230.41 172.283 1228.09 168.894 1226.53 164.548C1225 160.202 1224.24 155.118 1224.24 149.296C1224.24 143.583 1225 138.527 1226.53 134.126C1228.09 129.725 1230.41 126.281 1233.5 123.794C1236.62 121.279 1240.46 120.022 1245.02 120.022C1249.62 120.022 1253.46 121.238 1256.54 123.671C1259.63 126.104 1261.94 129.507 1263.47 133.88C1265.03 138.253 1265.81 143.365 1265.81 149.214ZM1258.35 149.214C1258.35 141.697 1257.31 135.944 1255.23 131.953C1253.18 127.962 1249.78 125.967 1245.02 125.967C1240.27 125.967 1236.85 127.976 1234.77 131.994C1232.72 136.012 1231.7 141.779 1231.7 149.296C1231.7 156.813 1232.76 162.539 1234.9 166.475C1237.03 170.384 1240.4 172.338 1245.02 172.338C1249.78 172.338 1253.18 170.37 1255.23 166.434C1257.31 162.471 1258.35 156.731 1258.35 149.214ZM1297.59 127.033V177.381H1290.5V127.033H1272.87V120.924H1315.47L1314.73 127.033H1297.59ZM1332.41 158.234C1332.55 161.569 1333.19 164.302 1334.34 166.434C1335.49 168.539 1337 170.097 1338.89 171.108C1340.78 172.092 1342.83 172.584 1345.04 172.584C1347.25 172.584 1349.25 172.256 1351.03 171.6C1352.83 170.944 1354.68 169.974 1356.56 168.689L1359.8 173.24C1357.78 174.825 1355.47 176.069 1352.87 176.971C1350.3 177.873 1347.66 178.324 1344.96 178.324C1340.78 178.324 1337.21 177.381 1334.26 175.495C1331.31 173.609 1329.05 170.985 1327.49 167.623C1325.96 164.234 1325.2 160.311 1325.2 155.856C1325.2 151.483 1325.98 147.601 1327.53 144.212C1329.09 140.823 1331.28 138.158 1334.09 136.217C1336.91 134.276 1340.23 133.306 1344.06 133.306C1347.69 133.306 1350.82 134.167 1353.45 135.889C1356.07 137.584 1358.08 140.016 1359.47 143.187C1360.89 146.33 1361.6 150.089 1361.6 154.462C1361.6 155.2 1361.59 155.897 1361.56 156.553C1361.54 157.182 1361.5 157.742 1361.44 158.234H1332.41ZM1344.14 138.964C1340.94 138.964 1338.26 140.098 1336.1 142.367C1333.97 144.636 1332.75 148.148 1332.45 152.904H1354.96C1354.88 148.285 1353.87 144.813 1351.93 142.49C1349.99 140.139 1347.39 138.964 1344.14 138.964ZM1392.98 116.824V166.721C1392.98 168.853 1393.63 170.37 1394.95 171.272C1396.29 172.147 1398.01 172.584 1400.11 172.584C1401.42 172.584 1402.67 172.447 1403.84 172.174C1405.02 171.901 1406.19 171.532 1407.37 171.067L1409.21 176.11C1408.04 176.684 1406.58 177.19 1404.83 177.627C1403.11 178.092 1401.15 178.324 1398.96 178.324C1395.14 178.324 1392.04 177.272 1389.66 175.167C1387.28 173.035 1386.09 170.097 1386.09 166.352V122.277H1372.85V116.824H1392.98ZM360.082 241.306C364.155 241.306 367.558 242.235 370.291 244.094C373.052 245.925 375.116 248.522 376.482 251.884C377.876 255.246 378.573 259.209 378.573 263.774C378.573 268.175 377.863 272.07 376.441 275.459C375.02 278.848 372.929 281.513 370.168 283.454C367.435 285.367 364.046 286.324 360 286.324C355.955 286.324 352.552 285.395 349.791 283.536C347.031 281.677 344.94 279.067 343.518 275.705C342.124 272.316 341.427 268.366 341.427 263.856C341.427 259.401 342.138 255.478 343.559 252.089C344.981 248.7 347.072 246.062 349.832 244.176C352.62 242.263 356.037 241.306 360.082 241.306ZM360.082 246.923C356.365 246.923 353.55 248.303 351.636 251.064C349.75 253.797 348.807 258.061 348.807 263.856C348.807 269.541 349.737 273.764 351.595 276.525C353.481 279.286 356.283 280.666 360 280.666C363.718 280.666 366.506 279.286 368.364 276.525C370.25 273.764 371.193 269.514 371.193 263.774C371.193 258.034 370.264 253.797 368.405 251.064C366.547 248.303 363.772 246.923 360.082 246.923ZM399.697 247.825C401.283 245.748 403.1 244.149 405.15 243.028C407.228 241.88 409.51 241.306 411.997 241.306C415.851 241.306 418.967 242.235 421.345 244.094C423.723 245.953 425.459 248.577 426.552 251.966C427.646 255.328 428.192 259.264 428.192 263.774C428.192 268.12 427.536 272.001 426.224 275.418C424.912 278.807 422.985 281.472 420.443 283.413C417.929 285.354 414.813 286.324 411.095 286.324C406.093 286.324 402.171 284.52 399.328 280.912L398.836 285.381H392.809V224.824L399.697 223.963V247.825ZM409.455 280.748C413.063 280.748 415.838 279.354 417.778 276.566C419.719 273.778 420.689 269.5 420.689 263.733C420.689 259.961 420.307 256.831 419.541 254.344C418.776 251.829 417.628 249.957 416.097 248.727C414.594 247.47 412.735 246.841 410.521 246.841C408.116 246.841 405.998 247.565 404.166 249.014C402.362 250.435 400.873 252.021 399.697 253.77V275.172C400.818 276.867 402.226 278.22 403.92 279.231C405.642 280.242 407.487 280.748 409.455 280.748ZM456.655 280.625C459.963 280.625 462.573 280.01 464.486 278.78C466.427 277.523 467.397 275.855 467.397 273.778C467.397 272.466 467.151 271.332 466.659 270.375C466.195 269.418 465.224 268.557 463.748 267.792C462.272 267.027 460.004 266.261 456.942 265.496C453.963 264.758 451.366 263.911 449.152 262.954C446.966 261.97 445.257 260.699 444.027 259.141C442.825 257.583 442.223 255.56 442.223 253.073C442.223 250.64 442.907 248.549 444.273 246.8C445.667 245.023 447.594 243.67 450.054 242.741C452.514 241.784 455.371 241.306 458.623 241.306C462.095 241.306 465.115 241.771 467.684 242.7C470.281 243.602 472.481 244.723 474.285 246.062L471.251 250.736C469.611 249.615 467.807 248.7 465.839 247.989C463.871 247.251 461.493 246.882 458.705 246.882C455.316 246.882 452.911 247.415 451.489 248.481C450.068 249.52 449.357 250.873 449.357 252.54C449.357 253.797 449.699 254.85 450.382 255.697C451.093 256.517 452.282 257.269 453.949 257.952C455.617 258.608 457.913 259.332 460.837 260.125C463.653 260.863 466.099 261.751 468.176 262.79C470.281 263.829 471.921 265.195 473.096 266.89C474.272 268.585 474.859 270.771 474.859 273.45C474.859 276.511 473.985 278.999 472.235 280.912C470.486 282.798 468.217 284.178 465.429 285.053C462.669 285.9 459.744 286.324 456.655 286.324C452.747 286.324 449.412 285.764 446.651 284.643C443.918 283.495 441.622 282.115 439.763 280.502L443.699 275.951C445.394 277.345 447.335 278.479 449.521 279.354C451.735 280.201 454.113 280.625 456.655 280.625ZM496.557 266.234C496.694 269.569 497.336 272.302 498.484 274.434C499.632 276.539 501.149 278.097 503.035 279.108C504.921 280.092 506.971 280.584 509.185 280.584C511.399 280.584 513.395 280.256 515.171 279.6C516.975 278.944 518.82 277.974 520.706 276.689L523.945 281.24C521.923 282.825 519.613 284.069 517.016 284.971C514.447 285.873 511.809 286.324 509.103 286.324C504.921 286.324 501.354 285.381 498.402 283.495C495.45 281.609 493.195 278.985 491.637 275.623C490.107 272.234 489.341 268.311 489.341 263.856C489.341 259.483 490.12 255.601 491.678 252.212C493.236 248.823 495.423 246.158 498.238 244.217C501.054 242.276 504.375 241.306 508.201 241.306C511.837 241.306 514.966 242.167 517.59 243.889C520.214 245.584 522.223 248.016 523.617 251.187C525.039 254.33 525.749 258.089 525.749 262.462C525.749 263.2 525.736 263.897 525.708 264.553C525.681 265.182 525.64 265.742 525.585 266.234H496.557ZM508.283 246.964C505.085 246.964 502.407 248.098 500.247 250.367C498.115 252.636 496.899 256.148 496.598 260.904H519.107C519.025 256.285 518.014 252.813 516.073 250.49C514.133 248.139 511.536 246.964 508.283 246.964ZM540.723 285.381V280.092H547.447V247.497H540.723V242.208H552.695L553.966 252.417C555.634 248.864 557.656 246.117 560.034 244.176C562.412 242.235 565.556 241.265 569.464 241.265C570.667 241.265 571.733 241.361 572.662 241.552C573.619 241.716 574.589 241.935 575.573 242.208L573.564 248.358C572.662 248.112 571.842 247.934 571.104 247.825C570.366 247.688 569.519 247.62 568.562 247.62C565.255 247.62 562.412 248.795 560.034 251.146C557.656 253.497 555.757 257.05 554.335 261.806V280.092H563.109V285.381H540.723ZM568.931 256.804V247.415L569.628 242.208H575.573L574.589 256.804H568.931ZM625.479 242.208L609.776 285.381H601.781L586.201 242.208H593.499L606.004 279.108L618.345 242.208H625.479ZM669.563 275.951C669.563 277.673 669.85 278.93 670.424 279.723C670.998 280.516 671.887 281.103 673.089 281.486L671.408 286.324C669.55 286.078 667.923 285.49 666.529 284.561C665.135 283.604 664.124 282.169 663.495 280.256C661.937 282.251 659.997 283.768 657.673 284.807C655.35 285.818 652.781 286.324 649.965 286.324C645.647 286.324 642.244 285.108 639.756 282.675C637.269 280.242 636.025 277.017 636.025 272.999C636.025 268.544 637.761 265.127 641.232 262.749C644.704 260.371 649.719 259.182 656.279 259.182H662.634V255.574C662.634 252.458 661.719 250.258 659.887 248.973C658.083 247.661 655.569 247.005 652.343 247.005C650.922 247.005 649.255 247.183 647.341 247.538C645.428 247.866 643.351 248.426 641.109 249.219L639.305 244.012C641.957 243.028 644.444 242.331 646.767 241.921C649.091 241.511 651.305 241.306 653.409 241.306C658.794 241.306 662.826 242.563 665.504 245.078C668.21 247.565 669.563 250.955 669.563 255.246V275.951ZM651.728 281.076C653.86 281.076 655.897 280.543 657.837 279.477C659.778 278.384 661.377 276.88 662.634 274.967V263.856H656.402C651.646 263.856 648.284 264.676 646.316 266.316C644.376 267.956 643.405 270.156 643.405 272.917C643.405 275.596 644.089 277.632 645.455 279.026C646.849 280.393 648.94 281.076 651.728 281.076ZM694.705 247.825C696.291 245.748 698.108 244.149 700.158 243.028C702.236 241.88 704.518 241.306 707.005 241.306C710.859 241.306 713.975 242.235 716.353 244.094C718.731 245.953 720.467 248.577 721.56 251.966C722.654 255.328 723.2 259.264 723.2 263.774C723.2 268.12 722.544 272.001 721.232 275.418C719.92 278.807 717.993 281.472 715.451 283.413C712.937 285.354 709.821 286.324 706.103 286.324C701.101 286.324 697.179 284.52 694.336 280.912L693.844 285.381H687.817V224.824L694.705 223.963V247.825ZM704.463 280.748C708.071 280.748 710.846 279.354 712.786 276.566C714.727 273.778 715.697 269.5 715.697 263.733C715.697 259.961 715.315 256.831 714.549 254.344C713.784 251.829 712.636 249.957 711.105 248.727C709.602 247.47 707.743 246.841 705.529 246.841C703.124 246.841 701.006 247.565 699.174 249.014C697.37 250.435 695.881 252.021 694.705 253.77V275.172C695.826 276.867 697.234 278.22 698.928 279.231C700.65 280.242 702.495 280.748 704.463 280.748ZM758.838 242.208V279.928H771.015V285.381H738.625V279.928H751.95V247.661H739.035V242.208H758.838ZM753.344 221.995C754.875 221.995 756.091 222.46 756.993 223.389C757.922 224.318 758.387 225.453 758.387 226.792C758.387 228.186 757.922 229.361 756.993 230.318C756.091 231.247 754.875 231.712 753.344 231.712C751.895 231.712 750.706 231.247 749.777 230.318C748.848 229.361 748.383 228.186 748.383 226.792C748.383 225.453 748.848 224.318 749.777 223.389C750.706 222.46 751.895 221.995 753.344 221.995ZM802.963 224.824V274.721C802.963 276.853 803.619 278.37 804.931 279.272C806.27 280.147 807.992 280.584 810.097 280.584C811.409 280.584 812.653 280.447 813.828 280.174C815.003 279.901 816.179 279.532 817.354 279.067L819.199 284.11C818.024 284.684 816.561 285.19 814.812 285.627C813.09 286.092 811.136 286.324 808.949 286.324C805.122 286.324 802.02 285.272 799.642 283.167C797.264 281.035 796.075 278.097 796.075 274.352V230.277H782.832V224.824H802.963ZM857.174 242.208V279.928H869.351V285.381H836.961V279.928H850.286V247.661H837.371V242.208H857.174ZM851.68 221.995C853.211 221.995 854.427 222.46 855.329 223.389C856.258 224.318 856.723 225.453 856.723 226.792C856.723 228.186 856.258 229.361 855.329 230.318C854.427 231.247 853.211 231.712 851.68 231.712C850.231 231.712 849.042 231.247 848.113 230.318C847.184 229.361 846.719 228.186 846.719 226.792C846.719 225.453 847.184 224.318 848.113 223.389C849.042 222.46 850.231 221.995 851.68 221.995ZM918.765 283.208C917.289 284.192 915.499 284.957 913.394 285.504C911.289 286.051 909.226 286.324 907.203 286.324C902.556 286.324 898.976 285.108 896.461 282.675C893.946 280.242 892.689 277.113 892.689 273.286V247.538H882.767V242.208H892.689V232.409L899.577 231.589V242.208H914.501L913.681 247.538H899.577V273.204C899.577 275.609 900.206 277.441 901.463 278.698C902.748 279.955 904.866 280.584 907.818 280.584C909.431 280.584 910.92 280.393 912.287 280.01C913.654 279.627 914.925 279.135 916.1 278.534L918.765 283.208ZM969.573 242.208L954.403 285.668C953.392 288.593 952.107 291.271 950.549 293.704C949.018 296.137 947.009 298.146 944.522 299.731C942.062 301.344 938.932 302.341 935.133 302.724L934.067 297.23C937.046 296.738 939.397 295.986 941.119 294.975C942.841 293.964 944.194 292.665 945.178 291.08C946.189 289.495 947.078 287.595 947.843 285.381H945.547L930.459 242.208H937.839L950.221 280.133L962.439 242.208H969.573ZM999.184 271.892C1001.07 271.892 1002.64 272.534 1003.9 273.819C1005.18 275.104 1005.83 276.648 1005.83 278.452C1005.83 279.436 1005.7 280.434 1005.46 281.445C1005.24 282.456 1004.83 283.604 1004.23 284.889L997.585 300.1H991.353L995.289 283.905C994.469 283.304 993.813 282.525 993.321 281.568C992.856 280.584 992.624 279.545 992.624 278.452C992.624 276.621 993.253 275.076 994.51 273.819C995.767 272.534 997.325 271.892 999.184 271.892ZM1112.07 275.951C1112.07 277.673 1112.36 278.93 1112.94 279.723C1113.51 280.516 1114.4 281.103 1115.6 281.486L1113.92 286.324C1112.06 286.078 1110.43 285.49 1109.04 284.561C1107.65 283.604 1106.64 282.169 1106.01 280.256C1104.45 282.251 1102.51 283.768 1100.18 284.807C1097.86 285.818 1095.29 286.324 1092.48 286.324C1088.16 286.324 1084.76 285.108 1082.27 282.675C1079.78 280.242 1078.54 277.017 1078.54 272.999C1078.54 268.544 1080.27 265.127 1083.74 262.749C1087.22 260.371 1092.23 259.182 1098.79 259.182H1105.15V255.574C1105.15 252.458 1104.23 250.258 1102.4 248.973C1100.59 247.661 1098.08 247.005 1094.85 247.005C1093.43 247.005 1091.77 247.183 1089.85 247.538C1087.94 247.866 1085.86 248.426 1083.62 249.219L1081.82 244.012C1084.47 243.028 1086.96 242.331 1089.28 241.921C1091.6 241.511 1093.82 241.306 1095.92 241.306C1101.31 241.306 1105.34 242.563 1108.02 245.078C1110.72 247.565 1112.07 250.955 1112.07 255.246V275.951ZM1094.24 281.076C1096.37 281.076 1098.41 280.543 1100.35 279.477C1102.29 278.384 1103.89 276.88 1105.15 274.967V263.856H1098.91C1094.16 263.856 1090.8 264.676 1088.83 266.316C1086.89 267.956 1085.92 270.156 1085.92 272.917C1085.92 275.596 1086.6 277.632 1087.97 279.026C1089.36 280.393 1091.45 281.076 1094.24 281.076ZM1130.33 285.381V242.208H1136.19L1136.72 248.194C1138.47 245.98 1140.66 244.285 1143.28 243.11C1145.94 241.907 1148.51 241.306 1150.99 241.306C1155.23 241.306 1158.3 242.427 1160.22 244.668C1162.16 246.909 1163.13 250.025 1163.13 254.016V285.381H1156.24V259.1C1156.24 256.148 1156.08 253.77 1155.75 251.966C1155.42 250.135 1154.74 248.809 1153.7 247.989C1152.66 247.142 1151.05 246.718 1148.86 246.718C1147.17 246.718 1145.57 247.087 1144.06 247.825C1142.59 248.563 1141.26 249.492 1140.09 250.613C1138.94 251.706 1137.98 252.813 1137.22 253.934V285.381H1130.33ZM1205.33 223.963L1212.21 224.824V285.381H1206.19L1205.53 279.682C1203.92 281.978 1202.06 283.659 1199.96 284.725C1197.88 285.791 1195.65 286.324 1193.27 286.324C1189.53 286.324 1186.44 285.381 1184.01 283.495C1181.57 281.609 1179.77 278.985 1178.59 275.623C1177.42 272.234 1176.83 268.311 1176.83 263.856C1176.83 259.537 1177.5 255.683 1178.84 252.294C1180.18 248.877 1182.11 246.199 1184.62 244.258C1187.16 242.29 1190.21 241.306 1193.76 241.306C1196.25 241.306 1198.44 241.743 1200.32 242.618C1202.21 243.465 1203.88 244.723 1205.33 246.39V223.963ZM1195.57 246.841C1191.96 246.841 1189.19 248.249 1187.25 251.064C1185.31 253.879 1184.33 258.143 1184.33 263.856C1184.33 267.573 1184.73 270.689 1185.52 273.204C1186.32 275.719 1187.48 277.605 1189.01 278.862C1190.57 280.119 1192.47 280.748 1194.71 280.748C1197.17 280.748 1199.26 280.051 1200.98 278.657C1202.73 277.263 1204.18 275.691 1205.33 273.942V252.376C1204.15 250.627 1202.73 249.274 1201.06 248.317C1199.4 247.333 1197.56 246.841 1195.57 246.841ZM1310.3 228.924V266.644C1310.3 268.995 1309.99 271.345 1309.36 273.696C1308.76 276.019 1307.72 278.138 1306.25 280.051C1304.8 281.937 1302.83 283.454 1300.34 284.602C1297.85 285.75 1294.75 286.324 1291.03 286.324C1288.27 286.324 1285.55 285.887 1282.88 285.012C1280.22 284.137 1277.78 282.866 1275.54 281.199L1278.69 276.484C1281.15 278.015 1283.4 279.053 1285.42 279.6C1287.44 280.119 1289.29 280.379 1290.95 280.379C1294.89 280.379 1297.91 279.122 1300.01 276.607C1302.15 274.092 1303.21 270.635 1303.21 266.234V234.746H1286.48V228.924H1310.3ZM1357.91 275.951C1357.91 277.673 1358.2 278.93 1358.78 279.723C1359.35 280.516 1360.24 281.103 1361.44 281.486L1359.76 286.324C1357.9 286.078 1356.27 285.49 1354.88 284.561C1353.49 283.604 1352.48 282.169 1351.85 280.256C1350.29 282.251 1348.35 283.768 1346.02 284.807C1343.7 285.818 1341.13 286.324 1338.32 286.324C1334 286.324 1330.6 285.108 1328.11 282.675C1325.62 280.242 1324.38 277.017 1324.38 272.999C1324.38 268.544 1326.11 265.127 1329.58 262.749C1333.06 260.371 1338.07 259.182 1344.63 259.182H1350.99V255.574C1350.99 252.458 1350.07 250.258 1348.24 248.973C1346.43 247.661 1343.92 247.005 1340.69 247.005C1339.27 247.005 1337.61 247.183 1335.69 247.538C1333.78 247.866 1331.7 248.426 1329.46 249.219L1327.66 244.012C1330.31 243.028 1332.8 242.331 1335.12 241.921C1337.44 241.511 1339.66 241.306 1341.76 241.306C1347.15 241.306 1351.18 242.563 1353.86 245.078C1356.56 247.565 1357.91 250.955 1357.91 255.246V275.951ZM1340.08 281.076C1342.21 281.076 1344.25 280.543 1346.19 279.477C1348.13 278.384 1349.73 276.88 1350.99 274.967V263.856H1344.75C1340 263.856 1336.64 264.676 1334.67 266.316C1332.73 267.956 1331.76 270.156 1331.76 272.917C1331.76 275.596 1332.44 277.632 1333.81 279.026C1335.2 280.393 1337.29 281.076 1340.08 281.076ZM1381.58 266.234C1381.72 269.569 1382.36 272.302 1383.51 274.434C1384.66 276.539 1386.17 278.097 1388.06 279.108C1389.94 280.092 1391.99 280.584 1394.21 280.584C1396.42 280.584 1398.42 280.256 1400.19 279.6C1402 278.944 1403.84 277.974 1405.73 276.689L1408.97 281.24C1406.95 282.825 1404.64 284.069 1402.04 284.971C1399.47 285.873 1396.83 286.324 1394.13 286.324C1389.94 286.324 1386.38 285.381 1383.43 283.495C1380.47 281.609 1378.22 278.985 1376.66 275.623C1375.13 272.234 1374.36 268.311 1374.36 263.856C1374.36 259.483 1375.14 255.601 1376.7 252.212C1378.26 248.823 1380.45 246.158 1383.26 244.217C1386.08 242.276 1389.4 241.306 1393.22 241.306C1396.86 241.306 1399.99 242.167 1402.61 243.889C1405.24 245.584 1407.25 248.016 1408.64 251.187C1410.06 254.33 1410.77 258.089 1410.77 262.462C1410.77 263.2 1410.76 263.897 1410.73 264.553C1410.7 265.182 1410.66 265.742 1410.61 266.234H1381.58ZM1393.31 246.964C1390.11 246.964 1387.43 248.098 1385.27 250.367C1383.14 252.636 1381.92 256.148 1381.62 260.904H1404.13C1404.05 256.285 1403.04 252.813 1401.1 250.49C1399.16 248.139 1396.56 246.964 1393.31 246.964ZM1460.43 237.616L1462.56 244.094C1460.73 244.668 1458.78 245.023 1456.7 245.16C1454.62 245.297 1452.37 245.365 1449.94 245.365C1452.42 246.513 1454.3 248.003 1455.55 249.834C1456.81 251.638 1457.44 253.77 1457.44 256.23C1457.44 259.073 1456.8 261.601 1455.51 263.815C1454.23 266.029 1452.37 267.765 1449.94 269.022C1447.53 270.279 1444.62 270.908 1441.2 270.908C1439.76 270.908 1438.54 270.84 1437.55 270.703C1436.6 270.566 1435.67 270.361 1434.77 270.088C1434.11 270.525 1433.56 271.127 1433.13 271.892C1432.72 272.657 1432.51 273.45 1432.51 274.27C1432.51 275.309 1432.92 276.17 1433.74 276.853C1434.56 277.536 1436.08 277.878 1438.29 277.878H1446.08C1448.98 277.878 1451.58 278.397 1453.87 279.436C1456.2 280.475 1458.01 281.869 1459.33 283.618C1460.67 285.367 1461.33 287.363 1461.33 289.604C1461.33 293.841 1459.53 297.093 1455.92 299.362C1452.34 301.631 1447.27 302.765 1440.71 302.765C1436.12 302.765 1432.5 302.287 1429.85 301.33C1427.2 300.401 1425.3 298.966 1424.15 297.025C1423.03 295.112 1422.47 292.693 1422.47 289.768H1428.7C1428.7 291.435 1429.03 292.816 1429.68 293.909C1430.34 295.002 1431.53 295.809 1433.25 296.328C1434.97 296.875 1437.45 297.148 1440.67 297.148C1443.84 297.148 1446.42 296.875 1448.42 296.328C1450.44 295.809 1451.93 295.016 1452.89 293.95C1453.87 292.911 1454.36 291.613 1454.36 290.055C1454.36 288.005 1453.44 286.461 1451.58 285.422C1449.72 284.383 1447.39 283.864 1444.61 283.864H1436.9C1433.18 283.864 1430.43 283.044 1428.66 281.404C1426.91 279.764 1426.03 277.878 1426.03 275.746C1426.03 274.352 1426.43 272.999 1427.22 271.687C1428.04 270.375 1429.23 269.213 1430.79 268.202C1428.3 266.89 1426.47 265.264 1425.3 263.323C1424.12 261.382 1423.53 259.032 1423.53 256.271C1423.53 253.346 1424.26 250.763 1425.71 248.522C1427.15 246.253 1429.18 244.477 1431.77 243.192C1434.37 241.907 1437.36 241.265 1440.75 241.265C1444.39 241.238 1447.34 241.087 1449.61 240.814C1451.88 240.513 1453.82 240.09 1455.43 239.543C1457.07 238.996 1458.74 238.354 1460.43 237.616ZM1440.75 246.308C1437.28 246.308 1434.71 247.251 1433.04 249.137C1431.4 250.996 1430.58 253.374 1430.58 256.271C1430.58 259.196 1431.43 261.601 1433.13 263.487C1434.82 265.373 1437.42 266.316 1440.92 266.316C1443.98 266.316 1446.3 265.428 1447.89 263.651C1449.5 261.874 1450.31 259.401 1450.31 256.23C1450.31 252.977 1449.5 250.517 1447.89 248.85C1446.3 247.155 1443.92 246.308 1440.75 246.308ZM1479.92 266.234C1480.05 269.569 1480.7 272.302 1481.84 274.434C1482.99 276.539 1484.51 278.097 1486.39 279.108C1488.28 280.092 1490.33 280.584 1492.54 280.584C1494.76 280.584 1496.75 280.256 1498.53 279.6C1500.33 278.944 1502.18 277.974 1504.07 276.689L1507.3 281.24C1505.28 282.825 1502.97 284.069 1500.38 284.971C1497.81 285.873 1495.17 286.324 1492.46 286.324C1488.28 286.324 1484.71 285.381 1481.76 283.495C1478.81 281.609 1476.55 278.985 1475 275.623C1473.47 272.234 1472.7 268.311 1472.7 263.856C1472.7 259.483 1473.48 255.601 1475.04 252.212C1476.6 248.823 1478.78 246.158 1481.6 244.217C1484.41 242.276 1487.73 241.306 1491.56 241.306C1495.2 241.306 1498.33 242.167 1500.95 243.889C1503.57 245.584 1505.58 248.016 1506.98 251.187C1508.4 254.33 1509.11 258.089 1509.11 262.462C1509.11 263.2 1509.1 263.897 1509.07 264.553C1509.04 265.182 1509 265.742 1508.94 266.234H1479.92ZM1491.64 246.964C1488.44 246.964 1485.77 248.098 1483.61 250.367C1481.47 252.636 1480.26 256.148 1479.96 260.904H1502.47C1502.38 256.285 1501.37 252.813 1499.43 250.49C1497.49 248.139 1494.9 246.964 1491.64 246.964ZM1524.08 285.381V280.092H1530.81V247.497H1524.08V242.208H1536.05L1537.33 252.417C1538.99 248.864 1541.02 246.117 1543.39 244.176C1545.77 242.235 1548.91 241.265 1552.82 241.265C1554.03 241.265 1555.09 241.361 1556.02 241.552C1556.98 241.716 1557.95 241.935 1558.93 242.208L1556.92 248.358C1556.02 248.112 1555.2 247.934 1554.46 247.825C1553.73 247.688 1552.88 247.62 1551.92 247.62C1548.61 247.62 1545.77 248.795 1543.39 251.146C1541.02 253.497 1539.12 257.05 1537.69 261.806V280.092H1546.47V285.381H1524.08ZM1552.29 256.804V247.415L1552.99 242.208H1558.93L1557.95 256.804H1552.29Z" fill="url(#paint1_linear_1293_61)"/>
<path d="M770.465 407.021H760.707L755.131 375.328L749.063 407.021H739.551L731.679 363.848H738.731L744.225 402.757L751.113 369.342H759.272L765.791 402.757L771.285 363.848H778.009L770.465 407.021ZM809.506 363.848V401.568H821.683V407.021H789.293V401.568H802.618V369.301H789.703V363.848H809.506ZM804.012 343.635C805.543 343.635 806.759 344.1 807.661 345.029C808.59 345.958 809.055 347.093 809.055 348.432C809.055 349.826 808.59 351.001 807.661 351.958C806.759 352.887 805.543 353.352 804.012 353.352C802.563 353.352 801.374 352.887 800.445 351.958C799.516 351.001 799.051 349.826 799.051 348.432C799.051 347.093 799.516 345.958 800.445 345.029C801.374 344.1 802.563 343.635 804.012 343.635ZM871.097 404.848C869.621 405.832 867.831 406.597 865.726 407.144C863.621 407.691 861.558 407.964 859.535 407.964C854.888 407.964 851.308 406.748 848.793 404.315C846.278 401.882 845.021 398.753 845.021 394.926V369.178H835.099V363.848H845.021V354.049L851.909 353.229V363.848H866.833L866.013 369.178H851.909V394.844C851.909 397.249 852.538 399.081 853.795 400.338C855.08 401.595 857.198 402.224 860.15 402.224C861.763 402.224 863.252 402.033 864.619 401.65C865.986 401.267 867.257 400.775 868.432 400.174L871.097 404.848ZM892.877 345.808V369.752C894.572 367.483 896.649 365.789 899.109 364.668C901.596 363.52 904.111 362.946 906.653 362.946C910.862 362.946 913.937 364.067 915.878 366.308C917.819 368.549 918.789 371.665 918.789 375.656V407.021H911.901V375.82C911.901 373.223 911.3 371.337 910.097 370.162C908.894 368.959 907.008 368.358 904.439 368.358C902.799 368.358 901.241 368.727 899.765 369.465C898.289 370.203 896.963 371.119 895.788 372.212C894.613 373.305 893.642 374.426 892.877 375.574V407.021H885.989V346.546L892.877 345.808ZM1020.16 366.39C1020.16 369.205 1019.54 371.665 1018.31 373.77C1017.11 375.875 1015.47 377.61 1013.39 378.977C1011.32 380.344 1008.98 381.341 1006.38 381.97L1023.11 407.021H1014.58L999.167 382.79H991.541V407.021H984.407V350.564H998.921C1005.89 350.564 1011.17 351.903 1014.75 354.582C1018.35 357.233 1020.16 361.169 1020.16 366.39ZM1012.53 366.39C1012.53 362.755 1011.49 360.158 1009.42 358.6C1007.34 357.015 1004.11 356.222 999.741 356.222H991.541V377.214H999.741C1003.79 377.214 1006.93 376.394 1009.17 374.754C1011.41 373.087 1012.53 370.299 1012.53 366.39ZM1040.38 363.848V394.434C1040.38 397.277 1040.97 399.327 1042.14 400.584C1043.32 401.841 1045.15 402.47 1047.64 402.47C1050.02 402.47 1052.26 401.8 1054.36 400.461C1056.49 399.094 1058.15 397.482 1059.32 395.623V363.848H1066.21V407.021H1060.35L1059.77 401.199C1058.08 403.386 1055.99 405.067 1053.5 406.242C1051.01 407.39 1048.5 407.964 1045.96 407.964C1041.77 407.964 1038.65 406.857 1036.57 404.643C1034.52 402.402 1033.49 399.272 1033.49 395.254V363.848H1040.38ZM1097.34 402.265C1100.65 402.265 1103.26 401.65 1105.17 400.42C1107.11 399.163 1108.08 397.495 1108.08 395.418C1108.08 394.106 1107.83 392.972 1107.34 392.015C1106.88 391.058 1105.91 390.197 1104.43 389.432C1102.96 388.667 1100.69 387.901 1097.63 387.136C1094.65 386.398 1092.05 385.551 1089.84 384.594C1087.65 383.61 1085.94 382.339 1084.71 380.781C1083.51 379.223 1082.91 377.2 1082.91 374.713C1082.91 372.28 1083.59 370.189 1084.96 368.44C1086.35 366.663 1088.28 365.31 1090.74 364.381C1093.2 363.424 1096.05 362.946 1099.31 362.946C1102.78 362.946 1105.8 363.411 1108.37 364.34C1110.96 365.242 1113.16 366.363 1114.97 367.702L1111.93 372.376C1110.29 371.255 1108.49 370.34 1106.52 369.629C1104.55 368.891 1102.18 368.522 1099.39 368.522C1096 368.522 1093.59 369.055 1092.17 370.121C1090.75 371.16 1090.04 372.513 1090.04 374.18C1090.04 375.437 1090.38 376.49 1091.07 377.337C1091.78 378.157 1092.97 378.909 1094.63 379.592C1096.3 380.248 1098.6 380.972 1101.52 381.765C1104.34 382.503 1106.78 383.391 1108.86 384.43C1110.96 385.469 1112.6 386.835 1113.78 388.53C1114.96 390.225 1115.54 392.411 1115.54 395.09C1115.54 398.151 1114.67 400.639 1112.92 402.552C1111.17 404.438 1108.9 405.818 1106.11 406.693C1103.35 407.54 1100.43 407.964 1097.34 407.964C1093.43 407.964 1090.1 407.404 1087.33 406.283C1084.6 405.135 1082.31 403.755 1080.45 402.142L1084.38 397.591C1086.08 398.985 1088.02 400.119 1090.2 400.994C1092.42 401.841 1094.8 402.265 1097.34 402.265ZM1166.1 404.848C1164.63 405.832 1162.84 406.597 1160.73 407.144C1158.63 407.691 1156.57 407.964 1154.54 407.964C1149.9 407.964 1146.32 406.748 1143.8 404.315C1141.29 401.882 1140.03 398.753 1140.03 394.926V369.178H1130.11V363.848H1140.03V354.049L1146.92 353.229V363.848H1161.84L1161.02 369.178H1146.92V394.844C1146.92 397.249 1147.55 399.081 1148.8 400.338C1150.09 401.595 1152.21 402.224 1155.16 402.224C1156.77 402.224 1158.26 402.033 1159.63 401.65C1160.99 401.267 1162.26 400.775 1163.44 400.174L1166.1 404.848Z" fill="url(#paint2_linear_1293_61)"/>
<path d="M1704.21 716.975L1688.99 707.545C1688.86 706.061 1688.71 704.581 1688.56 703.107L1701.66 690.903C1702.99 689.662 1703.59 687.824 1703.23 686.049C1702.88 684.264 1701.63 682.794 1699.92 682.166L1683.18 675.925C1682.76 674.476 1682.32 673.037 1681.87 671.592L1692.3 657.099C1693.37 655.626 1693.59 653.709 1692.89 652.037C1692.2 650.363 1690.68 649.163 1688.91 648.869L1671.26 645.998C1670.57 644.66 1669.86 643.342 1669.14 642.045L1676.56 625.75C1677.32 624.093 1677.16 622.179 1676.15 620.654C1675.14 619.142 1673.43 618.258 1671.6 618.327L1653.68 618.951C1652.75 617.793 1651.81 616.646 1650.85 615.519L1654.98 598.08C1655.39 596.308 1654.87 594.439 1653.58 593.157C1652.3 591.874 1650.44 591.343 1648.66 591.759L1631.22 595.885C1630.09 594.928 1628.94 593.982 1627.78 593.056L1628.41 575.132C1628.47 573.318 1627.59 571.595 1626.08 570.59C1624.56 569.577 1622.65 569.425 1620.98 570.177L1604.72 577.597C1603.41 576.875 1602.09 576.161 1600.77 575.471L1597.89 557.824C1597.6 556.035 1596.4 554.516 1594.72 553.837C1593.05 553.14 1591.12 553.365 1589.66 554.426L1575.17 564.862C1573.74 564.408 1572.3 563.971 1570.87 563.555L1564.63 546.809C1563.99 545.103 1562.52 543.852 1560.75 543.498C1558.96 543.148 1557.14 543.741 1555.89 545.065L1543.69 558.171C1542.21 558.008 1540.73 557.859 1539.25 557.737L1529.82 542.482C1528.87 540.94 1527.18 540 1525.35 540C1523.52 540 1521.85 540.94 1520.91 542.482L1511.48 557.737C1510 557.859 1508.51 558.008 1507.04 558.171L1494.84 545.065C1493.6 543.741 1491.76 543.148 1489.98 543.498C1488.2 543.855 1486.73 545.103 1486.1 546.809L1479.86 563.555C1478.41 563.971 1476.98 564.411 1475.56 564.862L1461.07 554.426C1459.59 553.362 1457.67 553.137 1456.01 553.837C1454.33 554.53 1453.13 556.049 1452.84 557.824L1449.96 575.471C1448.63 576.161 1447.31 576.872 1446.01 577.597L1429.75 570.177C1428.09 569.421 1426.18 569.577 1424.65 570.59C1423.14 571.595 1422.25 573.318 1422.32 575.132L1422.95 593.056C1421.79 593.982 1420.64 594.928 1419.51 595.885L1402.07 591.759C1400.3 591.347 1398.43 591.874 1397.15 593.157C1395.86 594.443 1395.33 596.298 1395.75 598.08L1399.84 615.519C1398.89 616.649 1397.94 617.793 1397.02 618.951L1379.09 618.327C1377.29 618.275 1375.56 619.142 1374.55 620.654C1373.54 622.158 1373.39 624.086 1374.14 625.75L1381.56 642.045C1380.84 643.353 1380.12 644.67 1379.43 645.998L1361.79 648.869C1359.99 649.16 1358.48 650.359 1357.8 652.037C1357.1 653.719 1357.33 655.643 1358.39 657.099L1368.82 671.592C1368.37 673.024 1367.93 674.462 1367.51 675.925L1350.77 682.166C1349.07 682.801 1347.82 684.271 1347.46 686.049C1347.11 687.831 1347.7 689.655 1349.03 690.903L1362.14 703.107C1361.97 704.581 1361.83 706.064 1361.7 707.545L1346.48 716.975C1344.94 717.929 1344 719.614 1344 721.448C1344 723.282 1344.94 724.949 1346.48 725.886L1361.7 735.316C1361.83 736.8 1361.97 738.28 1362.14 739.754L1349.03 751.958C1347.7 753.195 1347.11 755.033 1347.46 756.812C1347.82 758.597 1349.07 760.064 1350.77 760.695L1367.51 766.935C1367.93 768.385 1368.37 769.823 1368.82 771.269L1358.39 785.761C1357.33 787.238 1357.1 789.156 1357.8 790.823C1358.5 792.505 1360.01 793.704 1361.82 793.992L1379.47 796.863C1380.16 798.201 1380.87 799.519 1381.59 800.815L1374.17 817.076C1373.42 818.73 1373.57 820.647 1374.59 822.172C1375.6 823.687 1377.32 824.571 1379.13 824.499L1397.02 823.871C1397.95 825.036 1398.89 826.177 1399.85 827.31L1395.76 844.75C1395.34 846.518 1395.86 848.355 1397.15 849.638C1398.43 850.931 1400.29 851.448 1402.08 851.032L1419.52 846.941C1420.65 847.905 1421.8 848.841 1422.95 849.763L1422.33 867.688C1422.26 869.501 1423.15 871.224 1424.66 872.229C1426.16 873.238 1428.09 873.391 1429.75 872.635L1446.01 865.216C1447.33 865.944 1448.64 866.651 1449.97 867.341L1452.84 884.988C1453.14 886.784 1454.33 888.303 1456.01 889.01C1457.69 889.707 1459.62 889.482 1461.07 888.424L1475.57 877.988C1477 878.442 1478.44 878.886 1479.9 879.302L1486.14 896.048C1486.78 897.747 1488.25 899.005 1490.03 899.352C1491.81 899.713 1493.63 899.116 1494.88 897.785L1507.08 884.68C1508.56 884.85 1510.04 884.992 1511.52 885.123L1520.95 900.344C1521.9 901.88 1523.59 902.826 1525.39 902.826C1527.19 902.826 1528.89 901.883 1529.86 900.344L1539.29 885.123C1540.78 884.992 1542.26 884.85 1543.73 884.68L1555.93 897.785C1557.17 899.116 1559.01 899.713 1560.79 899.352C1562.57 899.002 1564.04 897.747 1564.67 896.048L1570.91 879.302C1572.36 878.886 1573.8 878.442 1575.24 877.988L1589.74 888.424C1591.21 889.482 1593.13 889.707 1594.8 889.01C1596.48 888.32 1597.68 886.798 1597.97 884.988L1600.85 867.341C1602.18 866.651 1603.49 865.933 1604.8 865.216L1621.06 872.635C1622.71 873.391 1624.63 873.238 1626.16 872.229C1627.67 871.217 1628.55 869.501 1628.48 867.688L1627.86 849.763C1629.02 848.837 1630.16 847.905 1631.29 846.941L1648.73 851.032C1650.5 851.448 1652.37 850.931 1653.66 849.638C1654.95 848.352 1655.47 846.504 1655.05 844.75L1650.96 827.31C1651.92 826.177 1652.86 825.036 1653.78 823.871L1671.71 824.499C1673.52 824.571 1675.24 823.687 1676.25 822.172C1677.26 820.661 1677.42 818.736 1676.66 817.076L1669.24 800.815C1669.96 799.501 1670.68 798.184 1671.36 796.863L1689.01 793.992C1690.81 793.704 1692.32 792.505 1693 790.823C1693.69 789.149 1693.47 787.218 1692.41 785.761L1681.97 771.269C1682.42 769.837 1682.86 768.398 1683.28 766.935L1700.03 760.695C1701.73 760.057 1702.99 758.59 1703.33 756.812C1703.69 755.03 1703.1 753.206 1701.76 751.958L1688.66 739.754C1688.82 738.28 1688.96 736.796 1689.09 735.316L1704.31 725.886C1705.85 724.936 1706.8 723.247 1706.8 721.448C1706.8 719.648 1705.86 717.946 1704.32 716.975H1704.21ZM1602.28 843.522C1596.45 842.267 1592.78 836.519 1594.03 830.694C1595.27 824.87 1600.99 821.16 1606.82 822.408C1612.64 823.653 1616.35 829.411 1615.11 835.236C1613.86 841.061 1608.14 844.77 1602.31 843.522H1602.28ZM1597.11 808.505C1591.81 807.368 1586.57 810.745 1585.46 816.063L1580.05 841.303C1563.38 848.862 1544.69 853.091 1525.27 853.091C1505.3 853.091 1486.44 848.688 1469.45 840.783L1464.05 815.543C1462.91 810.239 1457.7 806.841 1452.4 807.985L1430.1 812.77C1425.98 808.505 1422.13 803.963 1418.59 799.179H1527.11C1528.34 799.179 1529.16 798.957 1529.16 797.841V759.356C1529.16 758.24 1528.34 758.018 1527.11 758.018H1495.39V733.714H1529.68C1532.81 733.714 1546.42 734.609 1550.76 752.02C1552.12 757.359 1555.13 774.764 1557.17 780.346C1559.21 786.587 1567.5 799.068 1576.34 799.068H1630.43C1631.04 799.068 1631.7 798.999 1632.39 798.874C1628.64 803.97 1624.52 808.79 1620.11 813.297L1597.3 808.408L1597.11 808.505ZM1446.99 843.002C1441.16 844.257 1435.44 840.548 1434.19 834.716C1432.95 828.891 1436.65 823.136 1442.48 821.888C1448.31 820.643 1454.03 824.353 1455.28 830.174C1456.52 835.999 1452.82 841.754 1446.99 843.002ZM1405.73 676.237C1408.14 681.681 1405.69 688.06 1400.25 690.487C1394.81 692.904 1388.46 690.445 1386.04 685.009C1383.61 679.573 1386.08 673.186 1391.52 670.76C1396.96 668.346 1403.3 670.801 1405.73 676.237ZM1393.08 706.193L1416.31 695.861C1421.26 693.659 1423.52 687.852 1421.3 682.894L1416.51 672.077H1435.31V756.673H1397.51C1394.22 745.093 1392.45 732.889 1392.45 720.269C1392.45 715.45 1392.71 710.7 1393.21 706.019L1393.08 706.193ZM1495.01 697.976V673.013H1539.73C1542.04 673.013 1556.06 675.686 1556.06 686.153C1556.06 694.855 1545.31 697.976 1536.47 697.976H1494.87H1495.01ZM1657.61 720.442C1657.61 723.757 1657.49 727.03 1657.25 730.289H1643.62C1642.26 730.289 1641.71 731.183 1641.71 732.518V738.759C1641.71 753.459 1633.43 756.683 1626.15 757.481C1619.21 758.261 1611.55 754.582 1610.61 750.339C1606.52 727.352 1599.73 722.464 1588.98 713.935C1602.33 705.475 1616.19 692.959 1616.19 676.144C1616.19 658.081 1603.82 646.709 1595.39 641.127C1583.53 633.326 1570.43 631.766 1566.89 631.766H1426.13C1445.23 610.478 1471.2 595.362 1500.33 589.814L1516.93 607.219C1520.68 611.137 1526.88 611.31 1530.84 607.538L1549.42 589.787C1588.25 597.033 1621.19 621.233 1640.26 654.62L1627.53 683.328C1625.34 688.285 1627.58 694.11 1632.52 696.294L1657 707.181C1657.42 711.515 1657.65 715.918 1657.65 720.356L1657.61 720.442ZM1516.85 575.173C1521.15 571.047 1527.98 571.221 1532.07 575.523C1536.16 579.822 1536.02 586.652 1531.71 590.778C1527.41 594.904 1520.58 594.731 1516.49 590.425C1512.4 586.126 1512.54 579.295 1516.85 575.17V575.173ZM1643.05 676.758C1645.46 671.314 1651.82 668.853 1657.27 671.28C1662.71 673.693 1665.17 680.086 1662.74 685.529C1660.33 690.972 1653.97 693.434 1648.53 691.007C1643.08 688.594 1640.62 682.201 1643.05 676.758Z" fill="url(#paint3_linear_1293_61)"/>
<path d="M394.035 593.906C417.435 597.546 441.355 597.546 464.755 593.906C455.915 576.746 444.475 565.826 429.395 565.826C412.235 565.826 401.315 579.866 394.035 593.906Z" fill="url(#paint4_linear_1293_61)"/>
<path d="M367 685.426H315C316.56 717.146 331.12 745.746 353.48 765.506C362.32 762.386 370.64 760.306 379.48 758.226C371.68 737.426 367.52 710.906 367 685.426Z" fill="url(#paint5_linear_1293_61)"/>
<path d="M367 675.026C367.52 647.466 371.68 621.986 379.48 601.706C370.64 599.626 362.32 597.546 353.48 594.426C331.12 614.706 316.56 643.306 315 675.026H367Z" fill="url(#paint6_linear_1293_61)"/>
<path d="M461.129 570.506C466.329 576.226 471.529 584.026 475.169 592.346C481.929 590.786 488.689 589.226 495.449 587.146C485.049 579.346 473.609 574.146 461.129 570.506Z" fill="url(#paint7_linear_1293_61)"/>
<path d="M429.398 607.426C416.398 607.426 402.878 606.386 389.878 603.786C382.078 623.026 377.918 647.986 377.398 675.026H481.398C480.878 649.026 476.718 623.546 468.918 603.786C455.918 606.386 442.398 607.426 429.398 607.426Z" fill="url(#paint8_linear_1293_61)"/>
<path d="M505.328 594.947C496.488 598.067 488.168 600.147 479.328 602.227C487.128 623.027 491.288 649.547 491.808 675.027H543.808C542.248 643.307 527.688 614.707 505.328 594.947Z" fill="url(#paint9_linear_1293_61)"/>
<path d="M383.643 768.626C376.883 770.186 370.123 771.746 363.363 773.826C373.763 781.106 385.203 786.826 397.683 790.466C392.483 784.226 387.803 776.946 383.643 768.626Z" fill="url(#paint10_linear_1293_61)"/>
<path d="M383.643 591.826C387.803 583.506 392.483 576.226 397.683 570.506C385.203 574.146 373.763 579.866 363.363 587.146C370.123 588.706 376.883 590.786 383.643 591.826Z" fill="url(#paint11_linear_1293_61)"/>
<path d="M450.195 764.466C431.475 762.906 412.755 763.426 394.035 766.546C402.355 783.706 414.315 794.626 429.395 794.626C437.715 794.626 444.475 791.506 450.195 786.306V764.466Z" fill="url(#paint12_linear_1293_61)"/>
<path d="M450.198 701.026H480.358C480.878 695.826 480.878 690.626 480.878 685.426H377.398C377.918 711.426 382.078 736.906 389.878 756.666C410.158 753.026 429.918 752.506 450.198 754.066V701.026Z" fill="url(#paint13_linear_1293_61)"/>
<path d="M541.713 701.026C542.753 695.826 543.273 690.626 543.273 685.426H491.793C491.793 690.626 491.273 695.826 491.273 701.026H541.713Z" fill="url(#paint14_linear_1293_61)"/>
<path d="M460.602 711.426V773.826H627.002V711.426H460.602ZM481.402 763.426H471.002V721.826H481.402V763.426ZM502.202 763.426H491.802V721.826H502.202V763.426ZM523.002 763.426H512.602V721.826H523.002V763.426ZM575.002 732.226H564.602V721.826H575.002V732.226ZM595.802 732.226H585.402V721.826H595.802V732.226ZM616.602 732.226H606.202V721.826H616.602V732.226Z" fill="url(#paint15_linear_1293_61)"/>
<path d="M627 846.626V784.226H460.6V846.626H538.6V867.426H315V877.826H627V867.426H549V846.626H627ZM606.2 794.626H616.6V805.026H606.2V794.626ZM585.4 794.626H595.8V805.026H585.4V794.626ZM564.6 794.626H575V805.026H564.6V794.626ZM481.4 836.226H471V794.626H481.4V836.226ZM502.2 836.226H491.8V794.626H502.2V836.226ZM523 836.226H512.6V794.626H523V836.226Z" fill="url(#paint16_linear_1293_61)"/>
</g>
<defs>
<linearGradient id="paint0_linear_1293_61" x1="960" y1="0" x2="960" y2="1080" gradientUnits="userSpaceOnUse">
<stop stop-color="#323232"/>
<stop offset="1"/>
</linearGradient>
<linearGradient id="paint1_linear_1293_61" x1="338.171" y1="312.921" x2="1580.47" y2="312.921" gradientUnits="userSpaceOnUse">
<stop stop-color="#0095D5"/>
<stop offset="0.464053" stop-color="#7272E1"/>
<stop offset="1" stop-color="#7E6EE3"/>
</linearGradient>
<linearGradient id="paint2_linear_1293_61" x1="951.501" y1="326.021" x2="951.501" y2="434.021" gradientUnits="userSpaceOnUse">
<stop stop-color="#B32BD5"/>
<stop offset="1" stop-color="#DA3C8E"/>
</linearGradient>
<linearGradient id="paint3_linear_1293_61" x1="1525.4" y1="540" x2="1525.4" y2="902.826" gradientUnits="userSpaceOnUse">
<stop stop-color="#B32BD5"/>
<stop offset="1" stop-color="#DA3C8E"/>
</linearGradient>
<linearGradient id="paint4_linear_1293_61" x1="394.217" y1="596.713" x2="465.645" y2="596.713" gradientUnits="userSpaceOnUse">
<stop stop-color="#0095D5"/>
<stop offset="0.464053" stop-color="#7272E1"/>
<stop offset="1" stop-color="#7E6EE3"/>
</linearGradient>
<linearGradient id="paint5_linear_1293_61" x1="315.166" y1="765.706" x2="380.291" y2="765.706" gradientUnits="userSpaceOnUse">
<stop stop-color="#0095D5"/>
<stop offset="0.464053" stop-color="#7272E1"/>
<stop offset="1" stop-color="#7E6EE3"/>
</linearGradient>
<linearGradient id="paint6_linear_1293_61" x1="315.166" y1="675.228" x2="380.291" y2="675.228" gradientUnits="userSpaceOnUse">
<stop stop-color="#0095D5"/>
<stop offset="0.464053" stop-color="#7272E1"/>
<stop offset="1" stop-color="#7E6EE3"/>
</linearGradient>
<linearGradient id="paint7_linear_1293_61" x1="461.217" y1="592.4" x2="495.881" y2="592.4" gradientUnits="userSpaceOnUse">
<stop stop-color="#0095D5"/>
<stop offset="0.464053" stop-color="#7272E1"/>
<stop offset="1" stop-color="#7E6EE3"/>
</linearGradient>
<linearGradient id="paint8_linear_1293_61" x1="377.667" y1="675.204" x2="482.707" y2="675.204" gradientUnits="userSpaceOnUse">
<stop stop-color="#0095D5"/>
<stop offset="0.464053" stop-color="#7272E1"/>
<stop offset="1" stop-color="#7E6EE3"/>
</linearGradient>
<linearGradient id="paint9_linear_1293_61" x1="479.494" y1="675.227" x2="544.619" y2="675.227" gradientUnits="userSpaceOnUse">
<stop stop-color="#0095D5"/>
<stop offset="0.464053" stop-color="#7272E1"/>
<stop offset="1" stop-color="#7E6EE3"/>
</linearGradient>
<linearGradient id="paint10_linear_1293_61" x1="363.452" y1="790.521" x2="398.115" y2="790.521" gradientUnits="userSpaceOnUse">
<stop stop-color="#0095D5"/>
<stop offset="0.464053" stop-color="#7272E1"/>
<stop offset="1" stop-color="#7E6EE3"/>
</linearGradient>
<linearGradient id="paint11_linear_1293_61" x1="363.452" y1="591.879" x2="398.115" y2="591.879" gradientUnits="userSpaceOnUse">
<stop stop-color="#0095D5"/>
<stop offset="0.464053" stop-color="#7272E1"/>
<stop offset="1" stop-color="#7E6EE3"/>
</linearGradient>
<linearGradient id="paint12_linear_1293_61" x1="394.18" y1="794.704" x2="450.902" y2="794.704" gradientUnits="userSpaceOnUse">
<stop stop-color="#0095D5"/>
<stop offset="0.464053" stop-color="#7272E1"/>
<stop offset="1" stop-color="#7E6EE3"/>
</linearGradient>
<linearGradient id="paint13_linear_1293_61" x1="377.665" y1="756.844" x2="482.18" y2="756.844" gradientUnits="userSpaceOnUse">
<stop stop-color="#0095D5"/>
<stop offset="0.464053" stop-color="#7272E1"/>
<stop offset="1" stop-color="#7E6EE3"/>
</linearGradient>
<linearGradient id="paint14_linear_1293_61" x1="491.408" y1="701.065" x2="543.927" y2="701.065" gradientUnits="userSpaceOnUse">
<stop stop-color="#0095D5"/>
<stop offset="0.464053" stop-color="#7272E1"/>
<stop offset="1" stop-color="#7E6EE3"/>
</linearGradient>
<linearGradient id="paint15_linear_1293_61" x1="461.031" y1="773.982" x2="629.095" y2="773.982" gradientUnits="userSpaceOnUse">
<stop stop-color="#0095D5"/>
<stop offset="0.464053" stop-color="#7272E1"/>
<stop offset="1" stop-color="#7E6EE3"/>
</linearGradient>
<linearGradient id="paint16_linear_1293_61" x1="315.804" y1="878.06" x2="630.924" y2="878.06" gradientUnits="userSpaceOnUse">
<stop stop-color="#0095D5"/>
<stop offset="0.464053" stop-color="#7272E1"/>
<stop offset="1" stop-color="#7E6EE3"/>
</linearGradient>
<clipPath id="clip0_1293_61">
<rect width="1920" height="1080" fill="white"/>
</clipPath>
</defs>
</svg>
