<svg width="1920" height="1080" viewBox="0 0 1920 1080" fill="none" xmlns="http://www.w3.org/2000/svg">
<g clip-path="url(#clip0_1239_2)">
<path d="M1920 0H0V1080H1920V0Z" fill="url(#paint0_linear_1239_2)" fill-opacity="0.5"/>
<path d="M199.852 178.324C195.396 178.324 191.515 177.244 188.208 175.085C184.928 172.926 182.386 169.687 180.582 165.368C178.778 161.049 177.876 155.637 177.876 149.132C177.876 144.267 178.518 140.016 179.803 136.381C181.115 132.746 182.878 129.712 185.092 127.279C187.333 124.846 189.861 123.029 192.677 121.826C195.519 120.623 198.458 120.022 201.492 120.022C205.182 120.022 208.243 120.555 210.676 121.621C213.108 122.66 215.432 124.19 217.646 126.213L213.341 130.682C211.619 129.069 209.801 127.88 207.888 127.115C206.002 126.35 203.883 125.967 201.533 125.967C199.483 125.967 197.501 126.363 195.588 127.156C193.674 127.949 191.952 129.247 190.422 131.051C188.918 132.828 187.716 135.192 186.814 138.144C185.939 141.096 185.502 144.759 185.502 149.132C185.502 154.571 186.062 158.999 187.183 162.416C188.331 165.833 190.012 168.347 192.226 169.96C194.467 171.545 197.228 172.338 200.508 172.338C202.476 172.338 204.334 172.106 206.084 171.641C207.86 171.176 209.582 170.507 211.25 169.632V152.412H200.139L199.278 146.508H218.302V173.404C215.76 174.771 213.054 175.932 210.184 176.889C207.314 177.846 203.87 178.324 199.852 178.324ZM238.442 134.208V164.794C238.442 167.637 239.029 169.687 240.205 170.944C241.38 172.201 243.211 172.83 245.699 172.83C248.077 172.83 250.318 172.16 252.423 170.821C254.555 169.454 256.208 167.842 257.384 165.983V134.208H264.272V177.381H258.409L257.835 171.559C256.14 173.746 254.049 175.427 251.562 176.602C249.074 177.75 246.56 178.324 244.017 178.324C239.836 178.324 236.706 177.217 234.629 175.003C232.579 172.762 231.554 169.632 231.554 165.614V134.208H238.442ZM302.574 134.208V171.928H314.751V177.381H282.361V171.928H295.686V139.661H282.771V134.208H302.574ZM297.08 113.995C298.611 113.995 299.827 114.46 300.729 115.389C301.659 116.318 302.123 117.453 302.123 118.792C302.123 120.186 301.659 121.361 300.729 122.318C299.827 123.247 298.611 123.712 297.08 123.712C295.632 123.712 294.443 123.247 293.513 122.318C292.584 121.361 292.119 120.186 292.119 118.792C292.119 117.453 292.584 116.318 293.513 115.389C294.443 114.46 295.632 113.995 297.08 113.995ZM355.719 115.963L362.607 116.824V177.381H356.58L355.924 171.682C354.312 173.978 352.453 175.659 350.348 176.725C348.271 177.791 346.043 178.324 343.665 178.324C339.921 178.324 336.832 177.381 334.399 175.495C331.967 173.609 330.163 170.985 328.987 167.623C327.812 164.234 327.224 160.311 327.224 155.856C327.224 151.537 327.894 147.683 329.233 144.294C330.573 140.877 332.5 138.199 335.014 136.258C337.556 134.29 340.604 133.306 344.157 133.306C346.645 133.306 348.831 133.743 350.717 134.618C352.603 135.465 354.271 136.723 355.719 138.39V115.963ZM345.961 138.841C342.353 138.841 339.579 140.249 337.638 143.064C335.698 145.879 334.727 150.143 334.727 155.856C334.727 159.573 335.124 162.689 335.916 165.204C336.709 167.719 337.871 169.605 339.401 170.862C340.959 172.119 342.859 172.748 345.1 172.748C347.56 172.748 349.651 172.051 351.373 170.657C353.123 169.263 354.571 167.691 355.719 165.942V144.376C354.544 142.627 353.123 141.274 351.455 140.317C349.788 139.333 347.957 138.841 345.961 138.841ZM384.469 158.234C384.606 161.569 385.248 164.302 386.396 166.434C387.544 168.539 389.061 170.097 390.947 171.108C392.833 172.092 394.883 172.584 397.097 172.584C399.311 172.584 401.307 172.256 403.083 171.6C404.887 170.944 406.732 169.974 408.618 168.689L411.857 173.24C409.835 174.825 407.525 176.069 404.928 176.971C402.359 177.873 399.721 178.324 397.015 178.324C392.833 178.324 389.266 177.381 386.314 175.495C383.362 173.609 381.107 170.985 379.549 167.623C378.019 164.234 377.253 160.311 377.253 155.856C377.253 151.483 378.032 147.601 379.59 144.212C381.148 140.823 383.335 138.158 386.15 136.217C388.966 134.276 392.287 133.306 396.113 133.306C399.749 133.306 402.878 134.167 405.502 135.889C408.126 137.584 410.135 140.016 411.529 143.187C412.951 146.33 413.661 150.089 413.661 154.462C413.661 155.2 413.648 155.897 413.62 156.553C413.593 157.182 413.552 157.742 413.497 158.234H384.469ZM396.195 138.964C392.997 138.964 390.319 140.098 388.159 142.367C386.027 144.636 384.811 148.148 384.51 152.904H407.019C406.937 148.285 405.926 144.813 403.985 142.49C402.045 140.139 399.448 138.964 396.195 138.964ZM511.669 175.208C510.193 176.192 508.403 176.957 506.298 177.504C504.194 178.051 502.13 178.324 500.107 178.324C495.461 178.324 491.88 177.108 489.365 174.675C486.851 172.242 485.593 169.113 485.593 165.286V139.538H475.671V134.208H485.593V124.409L492.481 123.589V134.208H507.405L506.585 139.538H492.481V165.204C492.481 167.609 493.11 169.441 494.367 170.698C495.652 171.955 497.77 172.584 500.722 172.584C502.335 172.584 503.825 172.393 505.191 172.01C506.558 171.627 507.829 171.135 509.004 170.534L511.669 175.208ZM543.002 133.306C547.075 133.306 550.478 134.235 553.211 136.094C555.972 137.925 558.036 140.522 559.402 143.884C560.796 147.246 561.493 151.209 561.493 155.774C561.493 160.175 560.783 164.07 559.361 167.459C557.94 170.848 555.849 173.513 553.088 175.454C550.355 177.367 546.966 178.324 542.92 178.324C538.875 178.324 535.472 177.395 532.711 175.536C529.951 173.677 527.86 171.067 526.438 167.705C525.044 164.316 524.347 160.366 524.347 155.856C524.347 151.401 525.058 147.478 526.479 144.089C527.901 140.7 529.992 138.062 532.752 136.176C535.54 134.263 538.957 133.306 543.002 133.306ZM543.002 138.923C539.285 138.923 536.47 140.303 534.556 143.064C532.67 145.797 531.727 150.061 531.727 155.856C531.727 161.541 532.657 165.764 534.515 168.525C536.401 171.286 539.203 172.666 542.92 172.666C546.638 172.666 549.426 171.286 551.284 168.525C553.17 165.764 554.113 161.514 554.113 155.774C554.113 150.034 553.184 145.797 551.325 143.064C549.467 140.303 546.692 138.923 543.002 138.923ZM659.173 175.208C657.697 176.192 655.907 176.957 653.802 177.504C651.698 178.051 649.634 178.324 647.611 178.324C642.965 178.324 639.384 177.108 636.869 174.675C634.355 172.242 633.097 169.113 633.097 165.286V139.538H623.175V134.208H633.097V124.409L639.985 123.589V134.208H654.909L654.089 139.538H639.985V165.204C639.985 167.609 640.614 169.441 641.871 170.698C643.156 171.955 645.274 172.584 648.226 172.584C649.839 172.584 651.329 172.393 652.695 172.01C654.062 171.627 655.333 171.135 656.508 170.534L659.173 175.208ZM680.953 134.208V164.794C680.953 167.637 681.541 169.687 682.716 170.944C683.892 172.201 685.723 172.83 688.21 172.83C690.588 172.83 692.83 172.16 694.934 170.821C697.066 169.454 698.72 167.842 699.895 165.983V134.208H706.783V177.381H700.92L700.346 171.559C698.652 173.746 696.561 175.427 694.073 176.602C691.586 177.75 689.071 178.324 686.529 178.324C682.347 178.324 679.218 177.217 677.14 175.003C675.09 172.762 674.065 169.632 674.065 165.614V134.208H680.953ZM745.086 134.208V171.928H757.263V177.381H724.873V171.928H738.198V139.661H725.283V134.208H745.086ZM739.592 113.995C741.123 113.995 742.339 114.46 743.241 115.389C744.171 116.318 744.635 117.453 744.635 118.792C744.635 120.186 744.171 121.361 743.241 122.318C742.339 123.247 741.123 123.712 739.592 123.712C738.144 123.712 736.955 123.247 736.025 122.318C735.096 121.361 734.631 120.186 734.631 118.792C734.631 117.453 735.096 116.318 736.025 115.389C736.955 114.46 738.144 113.995 739.592 113.995ZM797.903 115.963C800.226 115.963 802.331 116.168 804.217 116.578C806.103 116.988 807.893 117.562 809.588 118.3L807.374 123.425C805.98 122.824 804.504 122.373 802.946 122.072C801.388 121.771 799.775 121.621 798.108 121.621C795.101 121.621 792.833 122.209 791.302 123.384C789.799 124.559 789.047 126.363 789.047 128.796V137.57H803.684L802.946 142.982H789.047V177.381H782.159V142.982H771.868V137.57H782.159V128.96C782.159 126.281 782.842 123.972 784.209 122.031C785.603 120.09 787.489 118.601 789.867 117.562C792.245 116.496 794.924 115.963 797.903 115.963ZM857.485 134.208L842.315 177.668C841.304 180.593 840.019 183.271 838.461 185.704C836.93 188.137 834.921 190.146 832.434 191.731C829.974 193.344 826.844 194.341 823.045 194.724L821.979 189.23C824.958 188.738 827.309 187.986 829.031 186.975C830.753 185.964 832.106 184.665 833.09 183.08C834.101 181.495 834.99 179.595 835.755 177.381H833.459L818.371 134.208H825.751L838.133 172.133L850.351 134.208H857.485ZM929.089 148.681C929.089 152.945 929.458 156.772 930.196 160.161C930.934 163.523 932.027 166.612 933.476 169.427C934.925 172.215 936.742 174.866 938.929 177.381C941.143 179.923 943.712 182.492 946.637 185.089L943.029 188.861C938.601 185.226 934.802 181.508 931.631 177.709C928.488 173.91 926.069 169.673 924.374 164.999C922.707 160.325 921.873 154.886 921.873 148.681C921.873 142.449 922.707 136.996 924.374 132.322C926.069 127.648 928.488 123.411 931.631 119.612C934.802 115.813 938.601 112.109 943.029 108.501L946.637 112.273C943.685 114.897 941.102 117.48 938.888 120.022C936.701 122.537 934.884 125.188 933.435 127.976C931.986 130.737 930.893 133.812 930.155 137.201C929.444 140.563 929.089 144.39 929.089 148.681ZM999.987 167.951C999.987 169.673 1000.27 170.93 1000.85 171.723C1001.42 172.516 1002.31 173.103 1003.51 173.486L1001.83 178.324C999.973 178.078 998.347 177.49 996.953 176.561C995.559 175.604 994.548 174.169 993.919 172.256C992.361 174.251 990.42 175.768 988.097 176.807C985.774 177.818 983.204 178.324 980.389 178.324C976.07 178.324 972.667 177.108 970.18 174.675C967.693 172.242 966.449 169.017 966.449 164.999C966.449 160.544 968.185 157.127 971.656 154.749C975.127 152.371 980.143 151.182 986.703 151.182H993.058V147.574C993.058 144.458 992.142 142.258 990.311 140.973C988.507 139.661 985.992 139.005 982.767 139.005C981.346 139.005 979.678 139.183 977.765 139.538C975.852 139.866 973.774 140.426 971.533 141.219L969.729 136.012C972.38 135.028 974.868 134.331 977.191 133.921C979.514 133.511 981.728 133.306 983.833 133.306C989.218 133.306 993.249 134.563 995.928 137.078C998.634 139.565 999.987 142.955 999.987 147.246V167.951ZM982.152 173.076C984.284 173.076 986.32 172.543 988.261 171.477C990.202 170.384 991.801 168.88 993.058 166.967V155.856H986.826C982.07 155.856 978.708 156.676 976.74 158.316C974.799 159.956 973.829 162.156 973.829 164.917C973.829 167.596 974.512 169.632 975.879 171.026C977.273 172.393 979.364 173.076 982.152 173.076ZM1044.07 115.963L1050.96 116.824V177.381H1044.93L1044.28 171.682C1042.66 173.978 1040.8 175.659 1038.7 176.725C1036.62 177.791 1034.4 178.324 1032.02 178.324C1028.27 178.324 1025.18 177.381 1022.75 175.495C1020.32 173.609 1018.51 170.985 1017.34 167.623C1016.16 164.234 1015.58 160.311 1015.58 155.856C1015.58 151.537 1016.25 147.683 1017.59 144.294C1018.92 140.877 1020.85 138.199 1023.37 136.258C1025.91 134.29 1028.96 133.306 1032.51 133.306C1035 133.306 1037.18 133.743 1039.07 134.618C1040.96 135.465 1042.62 136.723 1044.07 138.39V115.963ZM1034.31 138.841C1030.71 138.841 1027.93 140.249 1025.99 143.064C1024.05 145.879 1023.08 150.143 1023.08 155.856C1023.08 159.573 1023.48 162.689 1024.27 165.204C1025.06 167.719 1026.22 169.605 1027.75 170.862C1029.31 172.119 1031.21 172.748 1033.45 172.748C1035.91 172.748 1038 172.051 1039.73 170.657C1041.47 169.263 1042.92 167.691 1044.07 165.942V144.376C1042.9 142.627 1041.47 141.274 1039.81 140.317C1038.14 139.333 1036.31 138.841 1034.31 138.841ZM1093.24 115.963L1100.13 116.824V177.381H1094.1L1093.44 171.682C1091.83 173.978 1089.97 175.659 1087.87 176.725C1085.79 177.791 1083.56 178.324 1081.18 178.324C1077.44 178.324 1074.35 177.381 1071.92 175.495C1069.49 173.609 1067.68 170.985 1066.51 167.623C1065.33 164.234 1064.74 160.311 1064.74 155.856C1064.74 151.537 1065.41 147.683 1066.75 144.294C1068.09 140.877 1070.02 138.199 1072.53 136.258C1075.08 134.29 1078.12 133.306 1081.68 133.306C1084.16 133.306 1086.35 133.743 1088.24 134.618C1090.12 135.465 1091.79 136.723 1093.24 138.39V115.963ZM1083.48 138.841C1079.87 138.841 1077.1 140.249 1075.16 143.064C1073.22 145.879 1072.25 150.143 1072.25 155.856C1072.25 159.573 1072.64 162.689 1073.44 165.204C1074.23 167.719 1075.39 169.605 1076.92 170.862C1078.48 172.119 1080.38 172.748 1082.62 172.748C1085.08 172.748 1087.17 172.051 1088.89 170.657C1090.64 169.263 1092.09 167.691 1093.24 165.942V144.376C1092.06 142.627 1090.64 141.274 1088.97 140.317C1087.31 139.333 1085.48 138.841 1083.48 138.841ZM1187.6 134.208V171.928H1199.77V177.381H1167.38V171.928H1180.71V139.661H1167.79V134.208H1187.6ZM1182.1 113.995C1183.63 113.995 1184.85 114.46 1185.75 115.389C1186.68 116.318 1187.15 117.453 1187.15 118.792C1187.15 120.186 1186.68 121.361 1185.75 122.318C1184.85 123.247 1183.63 123.712 1182.1 123.712C1180.66 123.712 1179.47 123.247 1178.54 122.318C1177.61 121.361 1177.14 120.186 1177.14 118.792C1177.14 117.453 1177.61 116.318 1178.54 115.389C1179.47 114.46 1180.66 113.995 1182.1 113.995ZM1214.91 177.381V134.208H1220.78L1221.31 140.194C1223.06 137.98 1225.24 136.285 1227.87 135.11C1230.52 133.907 1233.09 133.306 1235.58 133.306C1239.81 133.306 1242.89 134.427 1244.8 136.668C1246.74 138.909 1247.71 142.025 1247.71 146.016V177.381H1240.82V151.1C1240.82 148.148 1240.66 145.77 1240.33 143.966C1240 142.135 1239.32 140.809 1238.28 139.989C1237.24 139.142 1235.63 138.718 1233.44 138.718C1231.75 138.718 1230.15 139.087 1228.65 139.825C1227.17 140.563 1225.85 141.492 1224.67 142.613C1223.52 143.706 1222.57 144.813 1221.8 145.934V177.381H1214.91ZM1298.36 175.208C1296.88 176.192 1295.09 176.957 1292.99 177.504C1290.88 178.051 1288.82 178.324 1286.79 178.324C1282.15 178.324 1278.57 177.108 1276.05 174.675C1273.54 172.242 1272.28 169.113 1272.28 165.286V139.538H1262.36V134.208H1272.28V124.409L1279.17 123.589V134.208H1294.09L1293.27 139.538H1279.17V165.204C1279.17 167.609 1279.8 169.441 1281.05 170.698C1282.34 171.955 1284.46 172.584 1287.41 172.584C1289.02 172.584 1290.51 172.393 1291.88 172.01C1293.25 171.627 1294.52 171.135 1295.69 170.534L1298.36 175.208ZM1318.66 158.234C1318.8 161.569 1319.44 164.302 1320.59 166.434C1321.74 168.539 1323.25 170.097 1325.14 171.108C1327.02 172.092 1329.07 172.584 1331.29 172.584C1333.5 172.584 1335.5 172.256 1337.27 171.6C1339.08 170.944 1340.92 169.974 1342.81 168.689L1346.05 173.24C1344.03 174.825 1341.72 176.069 1339.12 176.971C1336.55 177.873 1333.91 178.324 1331.21 178.324C1327.02 178.324 1323.46 177.381 1320.51 175.495C1317.55 173.609 1315.3 170.985 1313.74 167.623C1312.21 164.234 1311.44 160.311 1311.44 155.856C1311.44 151.483 1312.22 147.601 1313.78 144.212C1315.34 140.823 1317.53 138.158 1320.34 136.217C1323.16 134.276 1326.48 133.306 1330.3 133.306C1333.94 133.306 1337.07 134.167 1339.69 135.889C1342.32 137.584 1344.33 140.016 1345.72 143.187C1347.14 146.33 1347.85 150.089 1347.85 154.462C1347.85 155.2 1347.84 155.897 1347.81 156.553C1347.78 157.182 1347.74 157.742 1347.69 158.234H1318.66ZM1330.39 138.964C1327.19 138.964 1324.51 140.098 1322.35 142.367C1320.22 144.636 1319 148.148 1318.7 152.904H1341.21C1341.13 148.285 1340.12 144.813 1338.18 142.49C1336.24 140.139 1333.64 138.964 1330.39 138.964ZM1362.83 177.381V172.092H1369.55V139.497H1362.83V134.208H1374.8L1376.07 144.417C1377.74 140.864 1379.76 138.117 1382.14 136.176C1384.52 134.235 1387.66 133.265 1391.57 133.265C1392.77 133.265 1393.84 133.361 1394.77 133.552C1395.72 133.716 1396.69 133.935 1397.68 134.208L1395.67 140.358C1394.77 140.112 1393.95 139.934 1393.21 139.825C1392.47 139.688 1391.62 139.62 1390.67 139.62C1387.36 139.62 1384.52 140.795 1382.14 143.146C1379.76 145.497 1377.86 149.05 1376.44 153.806V172.092H1385.21V177.381H1362.83ZM1391.03 148.804V139.415L1391.73 134.208H1397.68L1396.69 148.804H1391.03ZM1442.5 167.951C1442.5 169.673 1442.79 170.93 1443.36 171.723C1443.93 172.516 1444.82 173.103 1446.02 173.486L1444.34 178.324C1442.49 178.078 1440.86 177.49 1439.46 176.561C1438.07 175.604 1437.06 174.169 1436.43 172.256C1434.87 174.251 1432.93 175.768 1430.61 176.807C1428.29 177.818 1425.72 178.324 1422.9 178.324C1418.58 178.324 1415.18 177.108 1412.69 174.675C1410.2 172.242 1408.96 169.017 1408.96 164.999C1408.96 160.544 1410.7 157.127 1414.17 154.749C1417.64 152.371 1422.65 151.182 1429.21 151.182H1435.57V147.574C1435.57 144.458 1434.65 142.258 1432.82 140.973C1431.02 139.661 1428.5 139.005 1425.28 139.005C1423.86 139.005 1422.19 139.183 1420.28 139.538C1418.36 139.866 1416.29 140.426 1414.04 141.219L1412.24 136.012C1414.89 135.028 1417.38 134.331 1419.7 133.921C1422.03 133.511 1424.24 133.306 1426.34 133.306C1431.73 133.306 1435.76 134.563 1438.44 137.078C1441.15 139.565 1442.5 142.955 1442.5 147.246V167.951ZM1424.66 173.076C1426.8 173.076 1428.83 172.543 1430.77 171.477C1432.71 170.384 1434.31 168.88 1435.57 166.967V155.856H1429.34C1424.58 155.856 1421.22 156.676 1419.25 158.316C1417.31 159.956 1416.34 162.156 1416.34 164.917C1416.34 167.596 1417.02 169.632 1418.39 171.026C1419.78 172.393 1421.88 173.076 1424.66 173.076ZM1480.27 172.379C1482.43 172.379 1484.44 172.024 1486.3 171.313C1488.18 170.602 1489.92 169.7 1491.5 168.607L1494.86 173.117C1492.98 174.73 1490.71 176.001 1488.06 176.93C1485.41 177.859 1482.81 178.324 1480.27 178.324C1475.98 178.324 1472.31 177.408 1469.28 175.577C1466.27 173.718 1463.98 171.122 1462.39 167.787C1460.81 164.425 1460.01 160.489 1460.01 155.979C1460.01 151.66 1460.81 147.793 1462.39 144.376C1464.01 140.932 1466.32 138.226 1469.32 136.258C1472.36 134.29 1476.03 133.306 1480.35 133.306C1483.11 133.306 1485.69 133.73 1488.1 134.577C1490.53 135.397 1492.76 136.641 1494.78 138.308L1491.42 142.9C1489.59 141.615 1487.74 140.659 1485.89 140.03C1484.05 139.374 1482.18 139.046 1480.27 139.046C1476.55 139.046 1473.49 140.44 1471.08 143.228C1468.68 146.016 1467.48 150.266 1467.48 155.979C1467.48 159.806 1468.02 162.935 1469.12 165.368C1470.24 167.773 1471.75 169.55 1473.67 170.698C1475.61 171.819 1477.81 172.379 1480.27 172.379ZM1544.2 175.208C1542.72 176.192 1540.93 176.957 1538.83 177.504C1536.72 178.051 1534.66 178.324 1532.63 178.324C1527.99 178.324 1524.41 177.108 1521.89 174.675C1519.38 172.242 1518.12 169.113 1518.12 165.286V139.538H1508.2V134.208H1518.12V124.409L1525.01 123.589V134.208H1539.93L1539.11 139.538H1525.01V165.204C1525.01 167.609 1525.64 169.441 1526.89 170.698C1528.18 171.955 1530.3 172.584 1533.25 172.584C1534.86 172.584 1536.35 172.393 1537.72 172.01C1539.09 171.627 1540.36 171.135 1541.53 170.534L1544.2 175.208ZM1580.94 134.208V171.928H1593.12V177.381H1560.73V171.928H1574.05V139.661H1561.14V134.208H1580.94ZM1575.45 113.995C1576.98 113.995 1578.19 114.46 1579.1 115.389C1580.03 116.318 1580.49 117.453 1580.49 118.792C1580.49 120.186 1580.03 121.361 1579.1 122.318C1578.19 123.247 1576.98 123.712 1575.45 123.712C1574 123.712 1572.81 123.247 1571.88 122.318C1570.95 121.361 1570.49 120.186 1570.49 118.792C1570.49 117.453 1570.95 116.318 1571.88 115.389C1572.81 114.46 1574 113.995 1575.45 113.995ZM1644.25 134.208L1628.55 177.381H1620.56L1604.98 134.208H1612.27L1624.78 171.108L1637.12 134.208H1644.25ZM1679.28 134.208V171.928H1691.45V177.381H1659.06V171.928H1672.39V139.661H1659.47V134.208H1679.28ZM1673.78 113.995C1675.31 113.995 1676.53 114.46 1677.43 115.389C1678.36 116.318 1678.83 117.453 1678.83 118.792C1678.83 120.186 1678.36 121.361 1677.43 122.318C1676.53 123.247 1675.31 123.712 1673.78 123.712C1672.33 123.712 1671.15 123.247 1670.22 122.318C1669.29 121.361 1668.82 120.186 1668.82 118.792C1668.82 117.453 1669.29 116.318 1670.22 115.389C1671.15 114.46 1672.33 113.995 1673.78 113.995ZM1740.87 175.208C1739.39 176.192 1737.6 176.957 1735.5 177.504C1733.39 178.051 1731.33 178.324 1729.31 178.324C1724.66 178.324 1721.08 177.108 1718.56 174.675C1716.05 172.242 1714.79 169.113 1714.79 165.286V139.538H1704.87V134.208H1714.79V124.409L1721.68 123.589V134.208H1736.6L1735.78 139.538H1721.68V165.204C1721.68 167.609 1722.31 169.441 1723.57 170.698C1724.85 171.955 1726.97 172.584 1729.92 172.584C1731.53 172.584 1733.02 172.393 1734.39 172.01C1735.76 171.627 1737.03 171.135 1738.2 170.534L1740.87 175.208ZM1791.68 134.208L1776.51 177.668C1775.5 180.593 1774.21 183.271 1772.65 185.704C1771.12 188.137 1769.11 190.146 1766.63 191.731C1764.17 193.344 1761.04 194.341 1757.24 194.724L1756.17 189.23C1759.15 188.738 1761.5 187.986 1763.22 186.975C1764.94 185.964 1766.3 184.665 1767.28 183.08C1768.29 181.495 1769.18 179.595 1769.95 177.381H1767.65L1752.56 134.208H1759.94L1772.32 172.133L1784.54 134.208H1791.68ZM1828.46 148.681C1828.46 144.39 1828.09 140.563 1827.36 137.201C1826.64 133.812 1825.57 130.737 1824.12 127.976C1822.67 125.188 1820.84 122.537 1818.62 120.022C1816.44 117.48 1813.87 114.897 1810.91 112.273L1814.52 108.501C1818.98 112.109 1822.78 115.813 1825.92 119.612C1829.06 123.411 1831.47 127.648 1833.14 132.322C1834.83 136.996 1835.68 142.449 1835.68 148.681C1835.68 154.886 1834.83 160.325 1833.14 164.999C1831.47 169.673 1829.06 173.91 1825.92 177.709C1822.78 181.508 1818.98 185.226 1814.52 188.861L1810.91 185.089C1813.84 182.492 1816.39 179.923 1818.58 177.381C1820.8 174.866 1822.63 172.215 1824.08 169.427C1825.52 166.612 1826.62 163.523 1827.36 160.161C1828.09 156.772 1828.46 152.945 1828.46 148.681Z" fill="#9CC1E4"/>
<path d="M535.753 324.848C534.277 325.832 532.487 326.597 530.382 327.144C528.278 327.691 526.214 327.964 524.191 327.964C519.545 327.964 515.964 326.748 513.449 324.315C510.935 321.882 509.677 318.753 509.677 314.926V289.178H499.755V283.848H509.677V274.049L516.565 273.229V283.848H531.489L530.669 289.178H516.565V314.844C516.565 317.249 517.194 319.081 518.451 320.338C519.736 321.595 521.854 322.224 524.806 322.224C526.419 322.224 527.909 322.033 529.275 321.65C530.642 321.267 531.913 320.775 533.088 320.174L535.753 324.848ZM567.086 282.946C571.159 282.946 574.562 283.875 577.295 285.734C580.056 287.565 582.12 290.162 583.486 293.524C584.88 296.886 585.577 300.849 585.577 305.414C585.577 309.815 584.867 313.71 583.445 317.099C582.024 320.488 579.933 323.153 577.172 325.094C574.439 327.007 571.05 327.964 567.004 327.964C562.959 327.964 559.556 327.035 556.795 325.176C554.035 323.317 551.944 320.707 550.522 317.345C549.128 313.956 548.431 310.006 548.431 305.496C548.431 301.041 549.142 297.118 550.563 293.729C551.985 290.34 554.076 287.702 556.836 285.816C559.624 283.903 563.041 282.946 567.086 282.946ZM567.086 288.563C563.369 288.563 560.554 289.943 558.64 292.704C556.754 295.437 555.811 299.701 555.811 305.496C555.811 311.181 556.741 315.404 558.599 318.165C560.485 320.926 563.287 322.306 567.004 322.306C570.722 322.306 573.51 320.926 575.368 318.165C577.254 315.404 578.197 311.154 578.197 305.414C578.197 299.674 577.268 295.437 575.409 292.704C573.551 289.943 570.776 288.563 567.086 288.563ZM684.897 283.848L669.727 327.308C668.716 330.233 667.431 332.911 665.873 335.344C664.343 337.777 662.334 339.786 659.846 341.371C657.386 342.984 654.257 343.981 650.457 344.364L649.391 338.87C652.371 338.378 654.721 337.626 656.443 336.615C658.165 335.604 659.518 334.305 660.502 332.72C661.514 331.135 662.402 329.235 663.167 327.021H660.871L645.783 283.848H653.163L665.545 321.773L677.763 283.848H684.897ZM714.59 282.946C718.663 282.946 722.066 283.875 724.799 285.734C727.56 287.565 729.624 290.162 730.99 293.524C732.384 296.886 733.081 300.849 733.081 305.414C733.081 309.815 732.371 313.71 730.949 317.099C729.528 320.488 727.437 323.153 724.676 325.094C721.943 327.007 718.554 327.964 714.508 327.964C710.463 327.964 707.06 327.035 704.299 325.176C701.539 323.317 699.448 320.707 698.026 317.345C696.632 313.956 695.935 310.006 695.935 305.496C695.935 301.041 696.646 297.118 698.067 293.729C699.489 290.34 701.58 287.702 704.34 285.816C707.128 283.903 710.545 282.946 714.59 282.946ZM714.59 288.563C710.873 288.563 708.058 289.943 706.144 292.704C704.258 295.437 703.315 299.701 703.315 305.496C703.315 311.181 704.245 315.404 706.103 318.165C707.989 320.926 710.791 322.306 714.508 322.306C718.226 322.306 721.014 320.926 722.872 318.165C724.758 315.404 725.701 311.154 725.701 305.414C725.701 299.674 724.772 295.437 722.913 292.704C721.055 289.943 718.28 288.563 714.59 288.563ZM754.205 283.848V314.434C754.205 317.277 754.793 319.327 755.968 320.584C757.144 321.841 758.975 322.47 761.462 322.47C763.84 322.47 766.082 321.8 768.186 320.461C770.318 319.094 771.972 317.482 773.147 315.623V283.848H780.035V327.021H774.172L773.598 321.199C771.904 323.386 769.813 325.067 767.325 326.242C764.838 327.39 762.323 327.964 759.781 327.964C755.599 327.964 752.47 326.857 750.392 324.643C748.342 322.402 747.317 319.272 747.317 315.254V283.848H754.205ZM796.895 327.021V321.732H803.619V289.137H796.895V283.848H808.867L810.138 294.057C811.805 290.504 813.828 287.757 816.206 285.816C818.584 283.875 821.727 282.905 825.636 282.905C826.839 282.905 827.905 283.001 828.834 283.192C829.791 283.356 830.761 283.575 831.745 283.848L829.736 289.998C828.834 289.752 828.014 289.574 827.276 289.465C826.538 289.328 825.691 289.26 824.734 289.26C821.427 289.26 818.584 290.435 816.206 292.786C813.828 295.137 811.928 298.69 810.507 303.446V321.732H819.281V327.021H796.895ZM825.103 298.444V289.055L825.8 283.848H831.745L830.761 298.444H825.103ZM914.337 322.019C916.496 322.019 918.505 321.664 920.364 320.953C922.25 320.242 923.986 319.34 925.571 318.247L928.933 322.757C927.047 324.37 924.778 325.641 922.127 326.57C919.476 327.499 916.879 327.964 914.337 327.964C910.046 327.964 906.383 327.048 903.349 325.217C900.342 323.358 898.046 320.762 896.461 317.427C894.876 314.065 894.083 310.129 894.083 305.619C894.083 301.3 894.876 297.433 896.461 294.016C898.074 290.572 900.383 287.866 903.39 285.898C906.424 283.93 910.1 282.946 914.419 282.946C917.18 282.946 919.763 283.37 922.168 284.217C924.601 285.037 926.828 286.281 928.851 287.948L925.489 292.54C923.658 291.255 921.813 290.299 919.954 289.67C918.123 289.014 916.25 288.686 914.337 288.686C910.62 288.686 907.558 290.08 905.153 292.868C902.748 295.656 901.545 299.906 901.545 305.619C901.545 309.446 902.092 312.575 903.185 315.008C904.306 317.413 905.823 319.19 907.736 320.338C909.677 321.459 911.877 322.019 914.337 322.019ZM960.799 266.464V316.361C960.799 318.493 961.455 320.01 962.767 320.912C964.106 321.787 965.828 322.224 967.933 322.224C969.245 322.224 970.489 322.087 971.664 321.814C972.839 321.541 974.015 321.172 975.19 320.707L977.035 325.75C975.86 326.324 974.397 326.83 972.648 327.267C970.926 327.732 968.972 327.964 966.785 327.964C962.958 327.964 959.856 326.912 957.478 324.807C955.1 322.675 953.911 319.737 953.911 315.992V271.917H940.668V266.464H960.799ZM1024.07 317.591C1024.07 319.313 1024.36 320.57 1024.93 321.363C1025.51 322.156 1026.39 322.743 1027.6 323.126L1025.92 327.964C1024.06 327.718 1022.43 327.13 1021.04 326.201C1019.64 325.244 1018.63 323.809 1018 321.896C1016.45 323.891 1014.5 325.408 1012.18 326.447C1009.86 327.458 1007.29 327.964 1004.47 327.964C1000.15 327.964 996.751 326.748 994.264 324.315C991.777 321.882 990.533 318.657 990.533 314.639C990.533 310.184 992.269 306.767 995.74 304.389C999.211 302.011 1004.23 300.822 1010.79 300.822H1017.14V297.214C1017.14 294.098 1016.23 291.898 1014.4 290.613C1012.59 289.301 1010.08 288.645 1006.85 288.645C1005.43 288.645 1003.76 288.823 1001.85 289.178C999.936 289.506 997.858 290.066 995.617 290.859L993.813 285.652C996.464 284.668 998.952 283.971 1001.28 283.561C1003.6 283.151 1005.81 282.946 1007.92 282.946C1013.3 282.946 1017.33 284.203 1020.01 286.718C1022.72 289.205 1024.07 292.595 1024.07 296.886V317.591ZM1006.24 322.716C1008.37 322.716 1010.4 322.183 1012.35 321.117C1014.29 320.024 1015.88 318.52 1017.14 316.607V305.496H1010.91C1006.15 305.496 1002.79 306.316 1000.82 307.956C998.883 309.596 997.913 311.796 997.913 314.557C997.913 317.236 998.596 319.272 999.963 320.666C1001.36 322.033 1003.45 322.716 1006.24 322.716ZM1061.64 282.946C1065.46 282.946 1068.51 283.875 1070.78 285.734C1073.07 287.593 1074.73 290.217 1075.74 293.606C1076.75 296.968 1077.26 300.904 1077.26 305.414C1077.26 309.76 1076.64 313.641 1075.41 317.058C1074.21 320.447 1072.38 323.112 1069.92 325.053C1067.46 326.994 1064.36 327.964 1060.61 327.964C1055.88 327.964 1052.08 326.297 1049.21 322.962V343.544L1042.32 344.405V283.848H1048.19L1048.76 289.875C1050.35 287.661 1052.23 285.953 1054.42 284.75C1056.63 283.547 1059.04 282.946 1061.64 282.946ZM1060 288.481C1057.62 288.481 1055.51 289.205 1053.68 290.654C1051.88 292.075 1050.39 293.661 1049.21 295.41V316.812C1050.33 318.479 1051.74 319.805 1053.44 320.789C1055.16 321.746 1057.04 322.224 1059.09 322.224C1062.67 322.224 1065.37 320.857 1067.17 318.124C1068.97 315.391 1069.88 311.14 1069.88 305.373C1069.88 301.601 1069.52 298.471 1068.81 295.984C1068.1 293.469 1067.02 291.597 1065.57 290.367C1064.12 289.11 1062.26 288.481 1060 288.481ZM1161.78 269.662C1165.47 269.662 1168.55 270.127 1171.04 271.056C1173.53 271.985 1175.89 273.352 1178.13 275.156L1174.16 279.789C1172.38 278.286 1170.5 277.22 1168.5 276.591C1166.53 275.935 1164.47 275.607 1162.31 275.607C1159.22 275.607 1156.36 276.345 1153.74 277.821C1151.12 279.27 1149 281.689 1147.38 285.078C1145.8 288.44 1145.01 293.005 1145.01 298.772C1145.01 304.375 1145.76 308.872 1147.26 312.261C1148.79 315.65 1150.86 318.097 1153.45 319.6C1156.05 321.103 1158.95 321.855 1162.14 321.855C1165.32 321.855 1167.91 321.377 1169.93 320.42C1171.98 319.463 1173.76 318.37 1175.26 317.14L1178.95 321.814C1177.23 323.481 1174.99 324.93 1172.23 326.16C1169.47 327.363 1166.08 327.964 1162.06 327.964C1157.5 327.964 1153.36 326.843 1149.64 324.602C1145.95 322.361 1143.03 319.081 1140.87 314.762C1138.71 310.416 1137.63 305.086 1137.63 298.772C1137.63 292.431 1138.72 287.101 1140.91 282.782C1143.12 278.463 1146.06 275.197 1149.72 272.983C1153.41 270.769 1157.43 269.662 1161.78 269.662ZM1192.7 327.021V270.564H1199.83V320.666H1225.58L1224.76 327.021H1192.7ZM1271.51 270.564V276.263H1258.96V321.322H1271.51V327.021H1239.2V321.322H1251.75V276.263H1239.2V270.564H1271.51ZM1368.25 317.591C1368.25 319.313 1368.53 320.57 1369.11 321.363C1369.68 322.156 1370.57 322.743 1371.77 323.126L1370.09 327.964C1368.23 327.718 1366.61 327.13 1365.21 326.201C1363.82 325.244 1362.81 323.809 1362.18 321.896C1360.62 323.891 1358.68 325.408 1356.36 326.447C1354.03 327.458 1351.46 327.964 1348.65 327.964C1344.33 327.964 1340.93 326.748 1338.44 324.315C1335.95 321.882 1334.71 318.657 1334.71 314.639C1334.71 310.184 1336.44 306.767 1339.92 304.389C1343.39 302.011 1348.4 300.822 1354.96 300.822H1361.32V297.214C1361.32 294.098 1360.4 291.898 1358.57 290.613C1356.77 289.301 1354.25 288.645 1351.03 288.645C1349.61 288.645 1347.94 288.823 1346.02 289.178C1344.11 289.506 1342.03 290.066 1339.79 290.859L1337.99 285.652C1340.64 284.668 1343.13 283.971 1345.45 283.561C1347.77 283.151 1349.99 282.946 1352.09 282.946C1357.48 282.946 1361.51 284.203 1364.19 286.718C1366.89 289.205 1368.25 292.595 1368.25 296.886V317.591ZM1350.41 322.716C1352.54 322.716 1354.58 322.183 1356.52 321.117C1358.46 320.024 1360.06 318.52 1361.32 316.607V305.496H1355.09C1350.33 305.496 1346.97 306.316 1345 307.956C1343.06 309.596 1342.09 311.796 1342.09 314.557C1342.09 317.236 1342.77 319.272 1344.14 320.666C1345.53 322.033 1347.62 322.716 1350.41 322.716ZM1405.81 282.946C1409.64 282.946 1412.69 283.875 1414.95 285.734C1417.25 287.593 1418.9 290.217 1419.92 293.606C1420.93 296.968 1421.43 300.904 1421.43 305.414C1421.43 309.76 1420.82 313.641 1419.59 317.058C1418.39 320.447 1416.55 323.112 1414.09 325.053C1411.63 326.994 1408.53 327.964 1404.79 327.964C1400.06 327.964 1396.26 326.297 1393.39 322.962V343.544L1386.5 344.405V283.848H1392.36L1392.94 289.875C1394.52 287.661 1396.41 285.953 1398.6 284.75C1400.81 283.547 1403.22 282.946 1405.81 282.946ZM1404.17 288.481C1401.79 288.481 1399.69 289.205 1397.86 290.654C1396.05 292.075 1394.56 293.661 1393.39 295.41V316.812C1394.51 318.479 1395.92 319.805 1397.61 320.789C1399.33 321.746 1401.22 322.224 1403.27 322.224C1406.85 322.224 1409.54 320.857 1411.35 318.124C1413.15 315.391 1414.05 311.14 1414.05 305.373C1414.05 301.601 1413.7 298.471 1412.99 295.984C1412.28 293.469 1411.2 291.597 1409.75 290.367C1408.3 289.11 1406.44 288.481 1404.17 288.481ZM1454.98 282.946C1458.81 282.946 1461.85 283.875 1464.12 285.734C1466.42 287.593 1468.07 290.217 1469.08 293.606C1470.1 296.968 1470.6 300.904 1470.6 305.414C1470.6 309.76 1469.99 313.641 1468.76 317.058C1467.55 320.447 1465.72 323.112 1463.26 325.053C1460.8 326.994 1457.7 327.964 1453.95 327.964C1449.23 327.964 1445.43 326.297 1442.56 322.962V343.544L1435.67 344.405V283.848H1441.53L1442.11 289.875C1443.69 287.661 1445.58 285.953 1447.76 284.75C1449.98 283.547 1452.38 282.946 1454.98 282.946ZM1453.34 288.481C1450.96 288.481 1448.86 289.205 1447.03 290.654C1445.22 292.075 1443.73 293.661 1442.56 295.41V316.812C1443.68 318.479 1445.09 319.805 1446.78 320.789C1448.5 321.746 1450.39 322.224 1452.44 322.224C1456.02 322.224 1458.71 320.857 1460.51 318.124C1462.32 315.391 1463.22 311.14 1463.22 305.373C1463.22 301.601 1462.87 298.471 1462.15 295.984C1461.44 293.469 1460.36 291.597 1458.92 290.367C1457.47 289.11 1455.61 288.481 1453.34 288.481ZM1499.51 322.265C1502.82 322.265 1505.43 321.65 1507.35 320.42C1509.29 319.163 1510.26 317.495 1510.26 315.418C1510.26 314.106 1510.01 312.972 1509.52 312.015C1509.05 311.058 1508.08 310.197 1506.61 309.432C1505.13 308.667 1502.86 307.901 1499.8 307.136C1496.82 306.398 1494.23 305.551 1492.01 304.594C1489.83 303.61 1488.12 302.339 1486.89 300.781C1485.68 299.223 1485.08 297.2 1485.08 294.713C1485.08 292.28 1485.77 290.189 1487.13 288.44C1488.53 286.663 1490.45 285.31 1492.91 284.381C1495.37 283.424 1498.23 282.946 1501.48 282.946C1504.95 282.946 1507.97 283.411 1510.54 284.34C1513.14 285.242 1515.34 286.363 1517.14 287.702L1514.11 292.376C1512.47 291.255 1510.67 290.34 1508.7 289.629C1506.73 288.891 1504.35 288.522 1501.56 288.522C1498.18 288.522 1495.77 289.055 1494.35 290.121C1492.93 291.16 1492.22 292.513 1492.22 294.18C1492.22 295.437 1492.56 296.49 1493.24 297.337C1493.95 298.157 1495.14 298.909 1496.81 299.592C1498.48 300.248 1500.77 300.972 1503.7 301.765C1506.51 302.503 1508.96 303.391 1511.04 304.43C1513.14 305.469 1514.78 306.835 1515.96 308.53C1517.13 310.225 1517.72 312.411 1517.72 315.09C1517.72 318.151 1516.84 320.639 1515.09 322.552C1513.35 324.438 1511.08 325.818 1508.29 326.693C1505.53 327.54 1502.6 327.964 1499.51 327.964C1495.61 327.964 1492.27 327.404 1489.51 326.283C1486.78 325.135 1484.48 323.755 1482.62 322.142L1486.56 317.591C1488.25 318.985 1490.19 320.119 1492.38 320.994C1494.59 321.841 1496.97 322.265 1499.51 322.265Z" fill="white"/>
<path d="M1760.21 814.149L1744.99 804.719C1744.86 803.235 1744.71 801.755 1744.56 800.281L1757.66 788.077C1758.99 786.836 1759.59 784.998 1759.23 783.223C1758.88 781.438 1757.63 779.968 1755.92 779.34L1739.18 773.099C1738.76 771.65 1738.32 770.211 1737.87 768.766L1748.3 754.273C1749.37 752.8 1749.59 750.883 1748.89 749.211C1748.2 747.537 1746.68 746.337 1744.91 746.043L1727.26 743.172C1726.57 741.834 1725.86 740.516 1725.14 739.219L1732.56 722.924C1733.32 721.267 1733.16 719.353 1732.15 717.828C1731.14 716.316 1729.43 715.432 1727.6 715.501L1709.68 716.125C1708.75 714.967 1707.81 713.82 1706.85 712.693L1710.98 695.254C1711.39 693.482 1710.87 691.613 1709.58 690.331C1708.3 689.048 1706.44 688.517 1704.66 688.933L1687.22 693.059C1686.09 692.102 1684.94 691.156 1683.78 690.23L1684.41 672.306C1684.47 670.492 1683.59 668.769 1682.08 667.764C1680.56 666.751 1678.65 666.599 1676.98 667.351L1660.72 674.771C1659.41 674.049 1658.09 673.335 1656.77 672.645L1653.89 654.998C1653.6 653.209 1652.4 651.69 1650.72 651.011C1649.05 650.314 1647.12 650.539 1645.66 651.6L1631.17 662.036C1629.74 661.582 1628.3 661.145 1626.87 660.729L1620.63 643.983C1619.99 642.277 1618.52 641.026 1616.75 640.672C1614.96 640.322 1613.14 640.915 1611.89 642.239L1599.69 655.345C1598.21 655.182 1596.73 655.033 1595.25 654.911L1585.82 639.656C1584.87 638.114 1583.18 637.174 1581.35 637.174C1579.52 637.174 1577.85 638.114 1576.91 639.656L1567.48 654.911C1566 655.033 1564.51 655.182 1563.04 655.345L1550.84 642.239C1549.6 640.915 1547.76 640.322 1545.98 640.672C1544.2 641.029 1542.73 642.277 1542.1 643.983L1535.86 660.729C1534.41 661.145 1532.98 661.585 1531.56 662.036L1517.07 651.6C1515.59 650.536 1513.67 650.311 1512.01 651.011C1510.33 651.704 1509.13 653.223 1508.84 654.998L1505.96 672.645C1504.63 673.335 1503.31 674.046 1502.01 674.771L1485.75 667.351C1484.09 666.595 1482.18 666.751 1480.65 667.764C1479.14 668.769 1478.25 670.492 1478.32 672.306L1478.95 690.23C1477.79 691.156 1476.64 692.102 1475.51 693.059L1458.07 688.933C1456.3 688.521 1454.43 689.048 1453.15 690.331C1451.86 691.617 1451.33 693.472 1451.75 695.254L1455.84 712.693C1454.89 713.823 1453.94 714.967 1453.02 716.125L1435.09 715.501C1433.29 715.449 1431.56 716.316 1430.55 717.828C1429.54 719.332 1429.39 721.26 1430.14 722.924L1437.56 739.219C1436.84 740.527 1436.12 741.844 1435.43 743.172L1417.79 746.043C1415.99 746.334 1414.48 747.533 1413.8 749.211C1413.1 750.893 1413.33 752.817 1414.39 754.273L1424.82 768.766C1424.37 770.198 1423.93 771.636 1423.51 773.099L1406.77 779.34C1405.07 779.975 1403.82 781.445 1403.46 783.223C1403.11 785.005 1403.7 786.829 1405.03 788.077L1418.14 800.281C1417.97 801.755 1417.83 803.238 1417.7 804.719L1402.48 814.149C1400.94 815.103 1400 816.788 1400 818.622C1400 820.456 1400.94 822.123 1402.48 823.06L1417.7 832.49C1417.83 833.974 1417.97 835.454 1418.14 836.928L1405.03 849.132C1403.7 850.369 1403.11 852.207 1403.46 853.986C1403.82 855.771 1405.07 857.238 1406.77 857.869L1423.51 864.109C1423.93 865.559 1424.37 866.997 1424.82 868.443L1414.39 882.935C1413.33 884.412 1413.1 886.33 1413.8 887.997C1414.5 889.679 1416.01 890.878 1417.82 891.166L1435.47 894.037C1436.16 895.375 1436.87 896.693 1437.59 897.989L1430.17 914.25C1429.42 915.904 1429.57 917.821 1430.59 919.346C1431.6 920.861 1433.32 921.745 1435.13 921.673L1453.02 921.045C1453.95 922.21 1454.89 923.351 1455.85 924.484L1451.76 941.924C1451.34 943.692 1451.86 945.529 1453.15 946.812C1454.43 948.105 1456.29 948.622 1458.08 948.206L1475.52 944.115C1476.65 945.079 1477.8 946.015 1478.95 946.937L1478.33 964.862C1478.26 966.675 1479.15 968.398 1480.66 969.403C1482.16 970.412 1484.09 970.565 1485.75 969.809L1502.01 962.39C1503.33 963.118 1504.64 963.825 1505.97 964.515L1508.84 982.162C1509.14 983.958 1510.33 985.477 1512.01 986.184C1513.69 986.881 1515.62 986.656 1517.07 985.598L1531.57 975.162C1533 975.616 1534.44 976.06 1535.9 976.476L1542.14 993.222C1542.78 994.921 1544.25 996.179 1546.03 996.526C1547.81 996.887 1549.63 996.29 1550.88 994.959L1563.08 981.854C1564.56 982.024 1566.04 982.166 1567.52 982.297L1576.95 997.518C1577.9 999.054 1579.59 1000 1581.39 1000C1583.19 1000 1584.89 999.057 1585.86 997.518L1595.29 982.297C1596.78 982.166 1598.26 982.024 1599.73 981.854L1611.93 994.959C1613.17 996.29 1615.01 996.887 1616.79 996.526C1618.57 996.176 1620.04 994.921 1620.67 993.222L1626.91 976.476C1628.36 976.06 1629.8 975.616 1631.24 975.162L1645.74 985.598C1647.21 986.656 1649.13 986.881 1650.8 986.184C1652.48 985.494 1653.68 983.972 1653.97 982.162L1656.85 964.515C1658.18 963.825 1659.49 963.107 1660.8 962.39L1677.06 969.809C1678.71 970.565 1680.63 970.412 1682.16 969.403C1683.67 968.391 1684.55 966.675 1684.48 964.862L1683.86 946.937C1685.02 946.011 1686.16 945.079 1687.29 944.115L1704.73 948.206C1706.5 948.622 1708.37 948.105 1709.66 946.812C1710.95 945.526 1711.47 943.678 1711.05 941.924L1706.96 924.484C1707.92 923.351 1708.86 922.21 1709.78 921.045L1727.71 921.673C1729.52 921.745 1731.25 920.861 1732.25 919.346C1733.26 917.835 1733.42 915.91 1732.66 914.25L1725.24 897.989C1725.96 896.675 1726.68 895.358 1727.36 894.037L1745.01 891.166C1746.81 890.878 1748.32 889.679 1749 887.997C1749.69 886.323 1749.47 884.392 1748.41 882.935L1737.97 868.443C1738.42 867.011 1738.86 865.572 1739.28 864.109L1756.03 857.869C1757.73 857.231 1758.99 855.764 1759.33 853.986C1759.69 852.204 1759.1 850.38 1757.76 849.132L1744.66 836.928C1744.82 835.454 1744.96 833.97 1745.09 832.49L1760.31 823.06C1761.85 822.11 1762.8 820.421 1762.8 818.622C1762.8 816.822 1761.86 815.12 1760.32 814.149H1760.21ZM1658.28 940.696C1652.45 939.441 1648.78 933.693 1650.03 927.868C1651.27 922.044 1656.99 918.334 1662.82 919.582C1668.64 920.827 1672.35 926.585 1671.11 932.41C1669.86 938.235 1664.14 941.944 1658.31 940.696H1658.28ZM1653.11 905.679C1647.81 904.542 1642.57 907.919 1641.46 913.237L1636.05 938.477C1619.38 946.036 1600.69 950.265 1581.27 950.265C1561.3 950.265 1542.44 945.862 1525.45 937.957L1520.05 912.717C1518.91 907.413 1513.7 904.015 1508.4 905.159L1486.1 909.944C1481.98 905.679 1478.13 901.137 1474.59 896.353H1583.11C1584.34 896.353 1585.16 896.131 1585.16 895.015V856.53C1585.16 855.414 1584.34 855.192 1583.11 855.192H1551.39V830.888H1585.68C1588.81 830.888 1602.42 831.783 1606.76 849.194C1608.12 854.533 1611.13 871.938 1613.17 877.52C1615.21 883.761 1623.5 896.242 1632.34 896.242H1686.43C1687.04 896.242 1687.7 896.173 1688.39 896.048C1684.64 901.144 1680.52 905.964 1676.11 910.471L1653.3 905.582L1653.11 905.679ZM1502.99 940.176C1497.16 941.431 1491.44 937.722 1490.19 931.89C1488.95 926.065 1492.65 920.31 1498.48 919.062C1504.31 917.817 1510.03 921.527 1511.28 927.348C1512.52 933.173 1508.82 938.928 1502.99 940.176ZM1461.73 773.411C1464.14 778.855 1461.69 785.234 1456.25 787.661C1450.81 790.078 1444.46 787.619 1442.04 782.183C1439.61 776.747 1442.08 770.36 1447.52 767.934C1452.96 765.52 1459.3 767.975 1461.73 773.411ZM1449.08 803.367L1472.31 793.035C1477.26 790.833 1479.52 785.026 1477.3 780.068L1472.51 769.251H1491.31V853.847H1453.51C1450.22 842.267 1448.45 830.063 1448.45 817.443C1448.45 812.624 1448.71 807.874 1449.21 803.193L1449.08 803.367ZM1551.01 795.15V770.187H1595.73C1598.04 770.187 1612.06 772.86 1612.06 783.327C1612.06 792.029 1601.31 795.15 1592.47 795.15H1550.87H1551.01ZM1713.61 817.616C1713.61 820.931 1713.49 824.204 1713.25 827.463H1699.62C1698.26 827.463 1697.71 828.357 1697.71 829.692V835.933C1697.71 850.633 1689.43 853.857 1682.15 854.655C1675.21 855.435 1667.55 851.756 1666.61 847.513C1662.52 824.526 1655.73 819.638 1644.98 811.109C1658.33 802.649 1672.19 790.133 1672.19 773.318C1672.19 755.255 1659.82 743.883 1651.39 738.301C1639.53 730.5 1626.43 728.94 1622.89 728.94H1482.13C1501.23 707.652 1527.2 692.536 1556.33 686.988L1572.93 704.393C1576.68 708.311 1582.88 708.484 1586.84 704.712L1605.42 686.961C1644.25 694.207 1677.19 718.407 1696.26 751.794L1683.53 780.502C1681.34 785.459 1683.58 791.284 1688.52 793.468L1713 804.355C1713.42 808.689 1713.65 813.092 1713.65 817.53L1713.61 817.616ZM1572.85 672.347C1577.15 668.221 1583.98 668.395 1588.07 672.697C1592.16 676.996 1592.02 683.826 1587.71 687.952C1583.41 692.078 1576.58 691.905 1572.49 687.599C1568.4 683.3 1568.54 676.469 1572.85 672.344V672.347ZM1699.05 773.932C1701.46 768.488 1707.82 766.027 1713.27 768.454C1718.71 770.867 1721.17 777.26 1718.74 782.703C1716.33 788.146 1709.97 790.608 1704.53 788.181C1699.08 785.768 1696.62 779.375 1699.05 773.932Z" fill="url(#paint1_linear_1239_2)"/>
<path d="M552.355 684.857H279.648C268.462 684.891 257.744 689.543 249.83 697.796C241.923 706.046 237.461 717.228 237.43 728.895V906.917C237.461 918.584 241.923 929.768 249.83 938.019C257.744 946.271 268.462 950.921 279.648 950.958H552.355C563.541 950.921 574.258 946.271 582.169 938.019C590.079 929.768 594.54 918.584 594.573 906.917V728.895C594.54 717.228 590.079 706.046 582.169 697.796C574.258 689.543 563.541 684.891 552.355 684.857ZM401.462 828.549L334.501 881.771C332.226 883.461 329.512 884.385 326.719 884.43C322.726 884.463 318.948 882.541 316.515 879.243C314.43 876.428 313.515 872.855 313.969 869.335C314.426 865.81 316.215 862.621 318.937 860.483L372.637 817.906L318.937 775.328C315.29 772.43 313.405 767.721 313.994 762.978C314.576 758.236 317.54 754.179 321.773 752.335C326.001 750.495 330.851 751.143 334.501 754.045L401.462 807.262C404.676 809.777 406.565 813.718 406.565 817.906C406.565 822.096 404.676 826.038 401.462 828.549ZM505.291 884.43H427.23C422.673 884.43 418.462 881.896 416.183 877.779C413.905 873.663 413.905 868.59 416.183 864.472C418.462 860.356 422.673 857.82 427.23 857.82H505.291C509.848 857.82 514.058 860.356 516.337 864.472C518.616 868.59 518.616 873.663 516.337 877.779C514.058 881.896 509.848 884.43 505.291 884.43Z" fill="url(#paint2_linear_1239_2)"/>
<path d="M558.386 701.286H477.962C467.41 701.286 458.855 709.84 458.855 720.393V800.817C458.855 811.369 467.41 819.924 477.962 819.924H558.386C568.939 819.924 577.493 811.369 577.493 800.817V720.393C577.493 709.84 568.939 701.286 558.386 701.286Z" fill="url(#paint3_linear_1239_2)"/>
<path fill-rule="evenodd" clip-rule="evenodd" d="M494.977 724.915H504.636V730.503V734.534C508.164 733.65 510.789 730.313 510.789 726.604C510.789 722.273 507.208 718.762 502.79 718.762C498.964 718.762 495.765 721.396 494.977 724.915Z" fill="white"/>
<path fill-rule="evenodd" clip-rule="evenodd" d="M495.105 735.709C496.071 739.05 499.146 741.653 502.789 741.653C507.207 741.653 510.788 737.828 510.788 733.496C510.788 729.787 508.163 726.681 504.635 725.863V735.709H495.105Z" fill="white"/>
<path d="M482.485 718.762H476.332V753.221H482.485V718.762Z" fill="white"/>
<path d="M510.79 726.146H504.637V733.776H510.79V726.146Z" fill="white"/>
<path fill-rule="evenodd" clip-rule="evenodd" d="M476.332 724.915V718.762H503.53V724.915H476.332Z" fill="white"/>
<path fill-rule="evenodd" clip-rule="evenodd" d="M476.332 741.653V735.499H503.53V741.653H476.332Z" fill="white"/>
<path fill-rule="evenodd" clip-rule="evenodd" d="M501.293 738.01L496.074 741.271L503.542 753.221H510.798L501.293 738.01Z" fill="white"/>
<path fill-rule="evenodd" clip-rule="evenodd" d="M504.883 724.669H500.945V724.915C502.984 724.915 504.637 726.568 504.637 728.608H504.883V724.669Z" fill="white"/>
<path fill-rule="evenodd" clip-rule="evenodd" d="M504.883 735.745H500.945V735.499C502.984 735.499 504.637 733.846 504.637 731.807H504.883V735.745Z" fill="white"/>
<path fill-rule="evenodd" clip-rule="evenodd" d="M559.773 726.761C559.773 731.179 556.142 734.761 551.665 734.761C550.076 734.761 548.593 734.309 547.342 733.529H553.619V724.915H543.773C544.619 721.387 547.831 718.762 551.665 718.762C556.142 718.762 559.773 722.343 559.773 726.761Z" fill="white"/>
<path fill-rule="evenodd" clip-rule="evenodd" d="M559.77 730.945C559.77 735.364 556.188 738.945 551.771 738.945C548.538 738.945 545.753 737.028 544.492 734.268H553.845V723.93H547.923C549.064 723.303 550.376 722.946 551.771 722.946C556.188 722.946 559.77 726.528 559.77 730.945Z" fill="white"/>
<path fill-rule="evenodd" clip-rule="evenodd" d="M559.771 741.037C559.771 745.455 556.141 749.037 551.663 749.037C550.074 749.037 548.592 748.586 547.34 747.806H553.681V738.945H543.836C544.767 735.542 547.919 733.038 551.663 733.038C556.141 733.038 559.771 736.619 559.771 741.037Z" fill="white"/>
<path fill-rule="evenodd" clip-rule="evenodd" d="M559.77 745.221C559.77 749.639 556.188 753.221 551.771 753.221C548.538 753.221 545.753 751.303 544.492 748.544H554.584V738.207H547.923C549.064 737.579 550.376 737.222 551.771 737.222C556.188 737.222 559.77 740.803 559.77 745.221Z" fill="white"/>
<path d="M559.771 726.884H553.617V730.577H559.771V726.884Z" fill="white"/>
<path fill-rule="evenodd" clip-rule="evenodd" d="M553.617 741.16H559.771V745.345H553.617V742.514V741.16Z" fill="white"/>
<path d="M551.648 718.762H532.695V724.915H551.648V718.762Z" fill="white"/>
<path d="M552.386 747.068H532.695V753.221H552.386V747.068Z" fill="white"/>
<path d="M552.386 732.791H536.387V738.944H552.386V732.791Z" fill="white"/>
<path fill-rule="evenodd" clip-rule="evenodd" d="M535.158 724.918C535.117 724.916 535.076 724.915 535.035 724.915C533.87 724.915 532.903 725.768 532.726 726.884H525.313C525.313 726.843 525.312 726.802 525.312 726.761C525.312 722.343 528.894 718.762 533.313 718.762C537.095 718.762 540.265 721.387 541.098 724.915H535.158V724.918Z" fill="white"/>
<path fill-rule="evenodd" clip-rule="evenodd" d="M535.158 747.064C535.117 747.067 535.076 747.068 535.035 747.068C533.87 747.068 532.903 746.214 532.726 745.099H525.313C525.313 745.139 525.312 745.18 525.312 745.221C525.312 749.639 528.894 753.221 533.313 753.221C537.095 753.221 540.265 750.595 541.098 747.068H535.158V747.064Z" fill="white"/>
<path fill-rule="evenodd" clip-rule="evenodd" d="M553.618 724.545H549.926V724.915C551.965 724.915 553.618 726.568 553.618 728.608V724.545Z" fill="white"/>
<path fill-rule="evenodd" clip-rule="evenodd" d="M553.618 733.653H549.926V732.791C551.965 732.791 553.618 731.138 553.618 729.1V733.653Z" fill="white"/>
<path fill-rule="evenodd" clip-rule="evenodd" d="M549.926 738.944H553.865V742.637H553.618C553.618 740.598 551.965 738.944 549.926 738.944Z" fill="white"/>
<path fill-rule="evenodd" clip-rule="evenodd" d="M553.865 747.929H549.926V747.068C551.965 747.068 553.618 745.414 553.618 743.375H553.865V747.929Z" fill="white"/>
<path d="M481.993 767.743H475.84V802.203H481.993V767.743Z" fill="white"/>
<path d="M501.684 773.897V767.743H475.84V773.897H501.684Z" fill="white"/>
<path d="M501.191 788.049V781.896H475.963V788.049H501.191Z" fill="white"/>
<path d="M502.422 802.203V796.049H475.839V802.203H502.422Z" fill="white"/>
<path fill-rule="evenodd" clip-rule="evenodd" d="M510.299 790.51C510.299 794.929 506.717 798.51 502.3 798.51C500.031 798.51 497.982 797.566 496.527 796.048H504.818V791.495V787.926H494.727C495.801 784.776 498.786 782.511 502.3 782.511C506.717 782.511 510.299 786.093 510.299 790.51Z" fill="white"/>
<path fill-rule="evenodd" clip-rule="evenodd" d="M510.296 794.203C510.296 798.62 506.71 802.202 502.285 802.202C498.497 802.202 495.323 799.577 494.488 796.048H504.137V787.434H498.014C499.251 786.655 500.715 786.204 502.285 786.204C506.71 786.204 510.296 789.785 510.296 794.203Z" fill="white"/>
<path fill-rule="evenodd" clip-rule="evenodd" d="M510.296 775.742C510.296 780.16 506.71 783.741 502.285 783.741C500.339 783.741 498.554 783.048 497.166 781.896H504.826V773.897H494.488C495.323 770.368 498.497 767.743 502.285 767.743C506.71 767.743 510.296 771.324 510.296 775.742Z" fill="white"/>
<path fill-rule="evenodd" clip-rule="evenodd" d="M510.318 779.927C510.318 784.344 506.736 787.926 502.318 787.926C499.086 787.926 496.301 786.009 495.039 783.25H504.146V773.897H497.062C498.468 772.67 500.306 771.927 502.318 771.927C506.736 771.927 510.318 775.508 510.318 779.927Z" fill="white"/>
<path fill-rule="evenodd" clip-rule="evenodd" d="M504.786 773.65H500.355V773.898C500.388 773.897 500.42 773.897 500.453 773.897C502.493 773.897 504.145 775.55 504.145 777.588H504.786V773.65Z" fill="white"/>
<path fill-rule="evenodd" clip-rule="evenodd" d="M504.146 778.203C504.146 780.243 502.493 781.896 500.453 781.896V782.264H504.392V778.081H504.144C504.145 778.121 504.146 778.162 504.146 778.203Z" fill="white"/>
<path fill-rule="evenodd" clip-rule="evenodd" d="M504.786 787.926H500.355V788.05C500.388 788.05 500.42 788.049 500.453 788.049C502.451 788.049 504.078 789.636 504.143 791.619H504.786V787.926Z" fill="white"/>
<path fill-rule="evenodd" clip-rule="evenodd" d="M504.146 792.357C504.146 794.396 502.493 796.048 500.453 796.048V796.541H504.392V792.357H504.146Z" fill="white"/>
<path d="M510.298 775.866H504.145V780.297H510.298V775.866Z" fill="white"/>
<path d="M510.298 790.388H504.637V794.573H510.298V790.388Z" fill="white"/>
<path d="M531.466 767.743H525.312V802.203H531.466V767.743Z" fill="white"/>
<path d="M559.789 802.225V796.072H525.33V802.225H559.789Z" fill="white"/>
</g>
<defs>
<linearGradient id="paint0_linear_1239_2" x1="960" y1="0" x2="960" y2="1080" gradientUnits="userSpaceOnUse">
<stop stop-color="#323232"/>
<stop offset="1"/>
</linearGradient>
<linearGradient id="paint1_linear_1239_2" x1="1581.4" y1="637.174" x2="1581.4" y2="1000" gradientUnits="userSpaceOnUse">
<stop stop-color="#B32BD5"/>
<stop offset="1" stop-color="#DA3C8E"/>
</linearGradient>
<linearGradient id="paint2_linear_1239_2" x1="416" y1="684.858" x2="416" y2="950.958" gradientUnits="userSpaceOnUse">
<stop stop-color="#B32BD5"/>
<stop offset="1" stop-color="#DA3C8E"/>
</linearGradient>
<linearGradient id="paint3_linear_1239_2" x1="518.175" y1="701.286" x2="518.175" y2="819.924" gradientUnits="userSpaceOnUse">
<stop stop-color="#161616"/>
<stop offset="1"/>
</linearGradient>
<clipPath id="clip0_1239_2">
<rect width="1920" height="1080" fill="white"/>
</clipPath>
</defs>
</svg>
