<svg width="1920" height="1080" viewBox="0 0 1920 1080" fill="none" xmlns="http://www.w3.org/2000/svg">
<g id="typescript-template-project" clip-path="url(#clip0)">
<rect width="1920" height="1080" fill="white"/>
<g id="Rectangle">
<rect x="1" width="1920" height="1080" fill="#323232"/>
<rect x="1" width="1920" height="1080" fill="url(#paint0_linear)" fill-opacity="0.15"/>
</g>
<g id="karma-seeklogo.com" filter="url(#filter0_d)">
<g id="Group">
<path id="Vector" d="M1561.3 813.202L1606.07 880.029H1676.83L1596.64 761.456L1561.3 813.202Z" fill="#429F87"/>
<path id="Vector_2" d="M1418.64 849.033L1451.42 818.135L1503.82 880.029L1470.18 755.872L1441.78 802.627L1418.64 849.033Z" fill="#429F87"/>
<path id="Vector_3" d="M1418.64 849.033L1470.18 755.872L1437.41 786.785L1385 724.889L1418.64 849.033Z" fill="#56C5A8"/>
<path id="Vector_4" d="M1670.09 655.689H1599.32L1555.98 719.771V655.689H1491.06V722.152L1525.67 849.8L1533.74 880.029H1555.98V823.942L1670.09 655.689Z" fill="#56C5A8"/>
</g>
</g>
<g id="jasmine-seeklogo.com" filter="url(#filter1_d)">
<g id="Group_2">
<path id="Vector_5" d="M1091.74 743.487H1113.62L1119.06 736.041V677.731H1086.31V736.048L1091.74 743.487Z" fill="#8A4182"/>
<path id="Vector_6" d="M1077.64 769.494L1084.4 748.795L1078.96 741.352L1023.21 723.334L1013.09 754.315L1068.85 772.337L1077.64 769.494Z" fill="#8A4182"/>
<path id="Vector_7" d="M1098.14 790.877L1080.44 778.082L1071.65 780.927L1037.19 828.103L1063.68 847.25L1098.14 800.072V790.877Z" fill="#8A4182"/>
<path id="Vector_8" d="M1124.92 778.08L1107.22 790.873L1107.22 800.074L1141.68 847.25L1168.18 828.103L1133.71 780.923L1124.92 778.08Z" fill="#8A4182"/>
<path id="Vector_9" d="M1120.96 748.791L1127.73 769.492L1136.52 772.333L1192.28 754.315L1182.16 723.332L1126.4 741.354L1120.96 748.791Z" fill="#8A4182"/>
<path id="Vector_10" d="M1102.69 627.118C1024.8 627.118 961.424 690.145 961.424 767.615C961.424 845.113 1024.8 908.158 1102.69 908.158C1180.57 908.158 1243.94 845.113 1243.94 767.615C1243.94 690.145 1180.57 627.118 1102.69 627.118ZM1102.69 655.566C1164.89 655.566 1215.34 705.726 1215.34 767.615C1215.34 829.524 1164.89 879.706 1102.69 879.706C1040.46 879.706 990.027 829.524 990.027 767.615C990.027 705.726 1040.46 655.566 1102.69 655.566Z" fill="#8A4182"/>
<path id="Vector_11" d="M1188.25 798.845L1145.87 785.145L1148.67 776.558L1191.05 790.257L1188.25 798.845Z" fill="#8A4182"/>
<path id="Vector_12" d="M1134.19 731.163L1126.85 725.857L1153.04 689.995L1160.38 695.301L1134.19 731.163Z" fill="#8A4182"/>
<path id="Vector_13" d="M1071.63 730.837L1045.44 694.973L1052.78 689.667L1078.97 725.529L1071.63 730.837Z" fill="#8A4182"/>
<path id="Vector_14" d="M1016.95 798.309L1014.14 789.722L1056.52 776.028L1059.32 784.615L1016.95 798.309Z" fill="#8A4182"/>
<path id="Vector_15" d="M1097.87 857.199H1106.94V812.87H1097.87V857.199Z" fill="#8A4182"/>
</g>
</g>
<path id="Java vs Kotlin" d="M435.067 322H423.817V242.625H395.942V232.75H462.817V242.625H435.067V322ZM461.834 255H473.584L488.084 293.125C489.334 296.458 490.459 299.667 491.459 302.75C492.459 305.75 493.209 308.625 493.709 311.375H494.209C494.709 309.292 495.501 306.583 496.584 303.25C497.667 299.833 498.792 296.417 499.959 293L513.584 255H525.459L496.584 331.25C494.251 337.583 491.209 342.625 487.459 346.375C483.792 350.125 478.709 352 472.209 352C470.209 352 468.459 351.875 466.959 351.625C465.459 351.458 464.167 351.25 463.084 351V342.25C464.001 342.417 465.084 342.583 466.334 342.75C467.667 342.917 469.042 343 470.459 343C474.292 343 477.376 341.917 479.709 339.75C482.126 337.583 484.001 334.708 485.334 331.125L488.834 322.25L461.834 255ZM567.93 253.75C576.18 253.75 582.805 256.625 587.805 262.375C592.888 268.125 595.43 276.792 595.43 288.375C595.43 299.792 592.888 308.458 587.805 314.375C582.805 320.292 576.138 323.25 567.805 323.25C562.638 323.25 558.346 322.292 554.93 320.375C551.596 318.375 548.971 316.083 547.055 313.5H546.305C546.471 314.917 546.638 316.708 546.805 318.875C546.971 321.042 547.055 322.917 547.055 324.5V352H536.055V255H545.055L546.555 264.125H547.055C549.055 261.208 551.68 258.75 554.93 256.75C558.18 254.75 562.513 253.75 567.93 253.75ZM565.93 263C559.096 263 554.263 264.917 551.43 268.75C548.68 272.583 547.221 278.417 547.055 286.25V288.375C547.055 296.625 548.388 303 551.055 307.5C553.805 311.917 558.846 314.125 566.18 314.125C570.263 314.125 573.596 313 576.18 310.75C578.846 308.5 580.805 305.458 582.055 301.625C583.388 297.708 584.055 293.25 584.055 288.25C584.055 280.583 582.555 274.458 579.555 269.875C576.638 265.292 572.096 263 565.93 263ZM638.834 253.75C644.584 253.75 649.501 255 653.584 257.5C657.751 260 660.917 263.542 663.084 268.125C665.334 272.625 666.459 277.917 666.459 284V290.625H620.584C620.751 298.208 622.667 304 626.334 308C630.084 311.917 635.292 313.875 641.959 313.875C646.209 313.875 649.959 313.5 653.209 312.75C656.542 311.917 659.959 310.75 663.459 309.25V318.875C660.042 320.375 656.667 321.458 653.334 322.125C650.001 322.875 646.042 323.25 641.459 323.25C635.126 323.25 629.501 321.958 624.584 319.375C619.751 316.792 615.959 312.958 613.209 307.875C610.542 302.708 609.209 296.417 609.209 289C609.209 281.667 610.417 275.375 612.834 270.125C615.334 264.875 618.792 260.833 623.209 258C627.709 255.167 632.917 253.75 638.834 253.75ZM638.709 262.75C633.459 262.75 629.292 264.458 626.209 267.875C623.209 271.208 621.417 275.875 620.834 281.875H654.959C654.876 276.208 653.542 271.625 650.959 268.125C648.376 264.542 644.292 262.75 638.709 262.75ZM735.641 298.125C735.641 306.042 732.766 312.208 727.016 316.625C721.266 321.042 713.516 323.25 703.766 323.25C698.766 323.25 694.141 322.875 689.891 322.125C685.641 321.375 682.099 320.333 679.266 319V308.25C682.266 309.583 685.974 310.792 690.391 311.875C694.891 312.958 699.516 313.5 704.266 313.5C710.932 313.5 715.932 312.208 719.266 309.625C722.682 307.042 724.391 303.542 724.391 299.125C724.391 296.208 723.766 293.75 722.516 291.75C721.266 289.75 719.099 287.917 716.016 286.25C713.016 284.5 708.807 282.667 703.391 280.75C695.807 278 690.057 274.625 686.141 270.625C682.307 266.625 680.391 261.167 680.391 254.25C680.391 249.5 681.599 245.458 684.016 242.125C686.432 238.708 689.766 236.083 694.016 234.25C698.349 232.417 703.307 231.5 708.891 231.5C713.807 231.5 718.307 231.958 722.391 232.875C726.474 233.792 730.182 235 733.516 236.5L730.016 246.125C726.932 244.792 723.557 243.667 719.891 242.75C716.307 241.833 712.557 241.375 708.641 241.375C703.057 241.375 698.849 242.583 696.016 245C693.182 247.333 691.766 250.458 691.766 254.375C691.766 257.375 692.391 259.875 693.641 261.875C694.891 263.875 696.932 265.667 699.766 267.25C702.599 268.833 706.432 270.542 711.266 272.375C716.516 274.292 720.932 276.375 724.516 278.625C728.182 280.792 730.932 283.417 732.766 286.5C734.682 289.583 735.641 293.458 735.641 298.125ZM778.994 323.25C773.077 323.25 767.786 322.042 763.119 319.625C758.536 317.208 754.911 313.458 752.244 308.375C749.661 303.292 748.369 296.792 748.369 288.875C748.369 280.625 749.744 273.917 752.494 268.75C755.244 263.583 758.952 259.792 763.619 257.375C768.369 254.958 773.744 253.75 779.744 253.75C783.161 253.75 786.452 254.125 789.619 254.875C792.786 255.542 795.369 256.375 797.369 257.375L793.994 266.5C791.994 265.75 789.661 265.042 786.994 264.375C784.327 263.708 781.827 263.375 779.494 263.375C766.327 263.375 759.744 271.833 759.744 288.75C759.744 296.833 761.327 303.042 764.494 307.375C767.744 311.625 772.536 313.75 778.869 313.75C782.536 313.75 785.744 313.375 788.494 312.625C791.327 311.875 793.911 310.958 796.244 309.875V319.625C793.994 320.792 791.494 321.667 788.744 322.25C786.077 322.917 782.827 323.25 778.994 323.25ZM843.428 253.75C844.678 253.75 846.011 253.833 847.428 254C848.928 254.083 850.219 254.25 851.303 254.5L849.928 264.625C848.844 264.375 847.636 264.167 846.303 264C845.053 263.833 843.844 263.75 842.678 263.75C839.261 263.75 836.053 264.708 833.053 266.625C830.053 268.458 827.636 271.083 825.803 274.5C824.053 277.833 823.178 281.75 823.178 286.25V322H812.178V255H821.178L822.428 267.25H822.928C825.094 263.583 827.886 260.417 831.303 257.75C834.719 255.083 838.761 253.75 843.428 253.75ZM869.438 229.875C871.105 229.875 872.563 230.458 873.813 231.625C875.147 232.708 875.813 234.458 875.813 236.875C875.813 239.208 875.147 240.958 873.813 242.125C872.563 243.292 871.105 243.875 869.438 243.875C867.605 243.875 866.063 243.292 864.813 242.125C863.563 240.958 862.938 239.208 862.938 236.875C862.938 234.458 863.563 232.708 864.813 231.625C866.063 230.458 867.605 229.875 869.438 229.875ZM874.813 255V322H863.813V255H874.813ZM927.915 253.75C936.165 253.75 942.79 256.625 947.79 262.375C952.873 268.125 955.415 276.792 955.415 288.375C955.415 299.792 952.873 308.458 947.79 314.375C942.79 320.292 936.123 323.25 927.79 323.25C922.623 323.25 918.332 322.292 914.915 320.375C911.582 318.375 908.957 316.083 907.04 313.5H906.29C906.457 314.917 906.623 316.708 906.79 318.875C906.957 321.042 907.04 322.917 907.04 324.5V352H896.04V255H905.04L906.54 264.125H907.04C909.04 261.208 911.665 258.75 914.915 256.75C918.165 254.75 922.498 253.75 927.915 253.75ZM925.915 263C919.082 263 914.248 264.917 911.415 268.75C908.665 272.583 907.207 278.417 907.04 286.25V288.375C907.04 296.625 908.373 303 911.04 307.5C913.79 311.917 918.832 314.125 926.165 314.125C930.248 314.125 933.582 313 936.165 310.75C938.832 308.5 940.79 305.458 942.04 301.625C943.373 297.708 944.04 293.25 944.04 288.25C944.04 280.583 942.54 274.458 939.54 269.875C936.623 265.292 932.082 263 925.915 263ZM995.319 314.25C996.986 314.25 998.694 314.125 1000.44 313.875C1002.19 313.542 1003.61 313.208 1004.69 312.875V321.25C1003.53 321.833 1001.86 322.292 999.694 322.625C997.528 323.042 995.444 323.25 993.444 323.25C989.944 323.25 986.694 322.667 983.694 321.5C980.778 320.25 978.403 318.125 976.569 315.125C974.736 312.125 973.819 307.917 973.819 302.5V263.5H964.319V258.25L973.944 253.875L978.319 239.625H984.819V255H1004.19V263.5H984.819V302.25C984.819 306.333 985.778 309.375 987.694 311.375C989.694 313.292 992.236 314.25 995.319 314.25ZM1030.61 307.5L1031.49 308.875C1030.4 313.292 1028.82 318.125 1026.74 323.375C1024.74 328.708 1022.74 333.625 1020.74 338.125H1012.61C1013.78 333.375 1014.94 328.167 1016.11 322.5C1017.36 316.833 1018.28 311.833 1018.86 307.5H1030.61ZM1150.78 322H1137.53L1105.9 279.375L1096.78 287.375V322H1085.53V232.75H1096.78V276.75C1099.28 273.917 1101.82 271.083 1104.4 268.25C1106.99 265.417 1109.57 262.583 1112.15 259.75L1136.28 232.75H1149.4L1114.03 271.625L1150.78 322ZM1186.8 253.875C1194.96 253.875 1201 255.667 1204.92 259.25C1208.84 262.833 1210.8 268.542 1210.8 276.375V322H1202.8L1200.67 312.5H1200.17C1197.25 316.167 1194.17 318.875 1190.92 320.625C1187.75 322.375 1183.34 323.25 1177.67 323.25C1171.59 323.25 1166.55 321.667 1162.55 318.5C1158.55 315.25 1156.55 310.208 1156.55 303.375C1156.55 296.708 1159.17 291.583 1164.42 288C1169.67 284.333 1177.75 282.333 1188.67 282L1200.05 281.625V277.625C1200.05 272.042 1198.84 268.167 1196.42 266C1194 263.833 1190.59 262.75 1186.17 262.75C1182.67 262.75 1179.34 263.292 1176.17 264.375C1173 265.375 1170.05 266.542 1167.3 267.875L1163.92 259.625C1166.84 258.042 1170.3 256.708 1174.3 255.625C1178.3 254.458 1182.46 253.875 1186.8 253.875ZM1199.92 289.25L1190.05 289.625C1181.71 289.958 1175.92 291.292 1172.67 293.625C1169.5 295.958 1167.92 299.25 1167.92 303.5C1167.92 307.25 1169.05 310 1171.3 311.75C1173.63 313.5 1176.59 314.375 1180.17 314.375C1185.84 314.375 1190.55 312.833 1194.3 309.75C1198.05 306.583 1199.92 301.75 1199.92 295.25V289.25ZM1262.74 253.75C1263.99 253.75 1265.32 253.833 1266.74 254C1268.24 254.083 1269.53 254.25 1270.61 254.5L1269.24 264.625C1268.16 264.375 1266.95 264.167 1265.61 264C1264.36 263.833 1263.16 263.75 1261.99 263.75C1258.57 263.75 1255.36 264.708 1252.36 266.625C1249.36 268.458 1246.95 271.083 1245.11 274.5C1243.36 277.833 1242.49 281.75 1242.49 286.25V322H1231.49V255H1240.49L1241.74 267.25H1242.24C1244.41 263.583 1247.2 260.417 1250.61 257.75C1254.03 255.083 1258.07 253.75 1262.74 253.75ZM1356.63 253.75C1364.21 253.75 1369.88 255.708 1373.63 259.625C1377.38 263.458 1379.25 269.708 1379.25 278.375V322H1368.38V278.875C1368.38 268.292 1363.83 263 1354.75 263C1348.25 263 1343.58 264.875 1340.75 268.625C1338 272.375 1336.63 277.833 1336.63 285V322H1325.75V278.875C1325.75 268.292 1321.17 263 1312 263C1305.25 263 1300.58 265.083 1298 269.25C1295.42 273.417 1294.13 279.417 1294.13 287.25V322H1283.13V255H1292L1293.63 264.125H1294.25C1296.33 260.625 1299.13 258.042 1302.63 256.375C1306.21 254.625 1310 253.75 1314 253.75C1324.5 253.75 1331.33 257.5 1334.5 265H1335.13C1337.38 261.167 1340.42 258.333 1344.25 256.5C1348.17 254.667 1352.29 253.75 1356.63 253.75ZM1425.32 253.875C1433.49 253.875 1439.53 255.667 1443.45 259.25C1447.36 262.833 1449.32 268.542 1449.32 276.375V322H1441.32L1439.2 312.5H1438.7C1435.78 316.167 1432.7 318.875 1429.45 320.625C1426.28 322.375 1421.86 323.25 1416.2 323.25C1410.11 323.25 1405.07 321.667 1401.07 318.5C1397.07 315.25 1395.07 310.208 1395.07 303.375C1395.07 296.708 1397.7 291.583 1402.95 288C1408.2 284.333 1416.28 282.333 1427.2 282L1438.57 281.625V277.625C1438.57 272.042 1437.36 268.167 1434.95 266C1432.53 263.833 1429.11 262.75 1424.7 262.75C1421.2 262.75 1417.86 263.292 1414.7 264.375C1411.53 265.375 1408.57 266.542 1405.82 267.875L1402.45 259.625C1405.36 258.042 1408.82 256.708 1412.82 255.625C1416.82 254.458 1420.99 253.875 1425.32 253.875ZM1438.45 289.25L1428.57 289.625C1420.24 289.958 1414.45 291.292 1411.2 293.625C1408.03 295.958 1406.45 299.25 1406.45 303.5C1406.45 307.25 1407.57 310 1409.82 311.75C1412.15 313.5 1415.11 314.375 1418.7 314.375C1424.36 314.375 1429.07 312.833 1432.82 309.75C1436.57 306.583 1438.45 301.75 1438.45 295.25V289.25ZM1482.51 307.5L1483.39 308.875C1482.31 313.292 1480.72 318.125 1478.64 323.375C1476.64 328.708 1474.64 333.625 1472.64 338.125H1464.51C1465.68 333.375 1466.85 328.167 1468.01 322.5C1469.26 316.833 1470.18 311.833 1470.76 307.5H1482.51ZM376.553 515.75C374.553 515.75 372.803 515.583 371.303 515.25C369.803 515 368.47 514.625 367.303 514.125V504.625C368.637 504.958 370.053 505.25 371.553 505.5C373.053 505.75 374.637 505.875 376.303 505.875C378.387 505.875 380.345 505.458 382.178 504.625C384.095 503.792 385.637 502.333 386.803 500.25C387.97 498.167 388.553 495.25 388.553 491.5V402.75H399.803V490.625C399.803 499.208 397.678 505.542 393.428 509.625C389.178 513.708 383.553 515.75 376.553 515.75ZM447.233 423.875C455.4 423.875 461.441 425.667 465.358 429.25C469.275 432.833 471.233 438.542 471.233 446.375V492H463.233L461.108 482.5H460.608C457.691 486.167 454.608 488.875 451.358 490.625C448.191 492.375 443.775 493.25 438.108 493.25C432.025 493.25 426.983 491.667 422.983 488.5C418.983 485.25 416.983 480.208 416.983 473.375C416.983 466.708 419.608 461.583 424.858 458C430.108 454.333 438.191 452.333 449.108 452L460.483 451.625V447.625C460.483 442.042 459.275 438.167 456.858 436C454.441 433.833 451.025 432.75 446.608 432.75C443.108 432.75 439.775 433.292 436.608 434.375C433.441 435.375 430.483 436.542 427.733 437.875L424.358 429.625C427.275 428.042 430.733 426.708 434.733 425.625C438.733 424.458 442.9 423.875 447.233 423.875ZM460.358 459.25L450.483 459.625C442.15 459.958 436.358 461.292 433.108 463.625C429.941 465.958 428.358 469.25 428.358 473.5C428.358 477.25 429.483 480 431.733 481.75C434.066 483.5 437.025 484.375 440.608 484.375C446.275 484.375 450.983 482.833 454.733 479.75C458.483 476.583 460.358 471.75 460.358 465.25V459.25ZM535.551 473.5C535.551 480 533.135 484.917 528.301 488.25C523.468 491.583 516.968 493.25 508.801 493.25C504.135 493.25 500.093 492.875 496.676 492.125C493.343 491.375 490.385 490.333 487.801 489V479C490.468 480.333 493.676 481.583 497.426 482.75C501.26 483.833 505.135 484.375 509.051 484.375C514.635 484.375 518.676 483.5 521.176 481.75C523.676 479.917 524.926 477.5 524.926 474.5C524.926 472.833 524.468 471.333 523.551 470C522.635 468.667 520.968 467.333 518.551 466C516.218 464.667 512.843 463.167 508.426 461.5C504.093 459.833 500.385 458.167 497.301 456.5C494.218 454.833 491.843 452.833 490.176 450.5C488.51 448.167 487.676 445.167 487.676 441.5C487.676 435.833 489.968 431.458 494.551 428.375C499.218 425.292 505.301 423.75 512.801 423.75C516.885 423.75 520.676 424.167 524.176 425C527.76 425.75 531.093 426.833 534.176 428.25L530.426 437C527.593 435.833 524.635 434.833 521.551 434C518.468 433.167 515.301 432.75 512.051 432.75C507.551 432.75 504.093 433.5 501.676 435C499.343 436.417 498.176 438.375 498.176 440.875C498.176 442.708 498.718 444.292 499.801 445.625C500.885 446.875 502.676 448.125 505.176 449.375C507.76 450.542 511.176 451.958 515.426 453.625C519.676 455.208 523.301 456.833 526.301 458.5C529.301 460.167 531.593 462.208 533.176 464.625C534.76 466.958 535.551 469.917 535.551 473.5ZM625.241 423.75C632.824 423.75 638.491 425.708 642.241 429.625C645.991 433.458 647.866 439.708 647.866 448.375V492H636.991V448.875C636.991 438.292 632.449 433 623.366 433C616.866 433 612.199 434.875 609.366 438.625C606.616 442.375 605.241 447.833 605.241 455V492H594.366V448.875C594.366 438.292 589.782 433 580.616 433C573.866 433 569.199 435.083 566.616 439.25C564.032 443.417 562.741 449.417 562.741 457.25V492H551.741V425H560.616L562.241 434.125H562.866C564.949 430.625 567.741 428.042 571.241 426.375C574.824 424.625 578.616 423.75 582.616 423.75C593.116 423.75 599.949 427.5 603.116 435H603.741C605.991 431.167 609.032 428.333 612.866 426.5C616.782 424.667 620.907 423.75 625.241 423.75ZM674.187 399.875C675.854 399.875 677.312 400.458 678.562 401.625C679.895 402.708 680.562 404.458 680.562 406.875C680.562 409.208 679.895 410.958 678.562 412.125C677.312 413.292 675.854 413.875 674.187 413.875C672.354 413.875 670.812 413.292 669.562 412.125C668.312 410.958 667.687 409.208 667.687 406.875C667.687 404.458 668.312 402.708 669.562 401.625C670.812 400.458 672.354 399.875 674.187 399.875ZM679.562 425V492H668.562V425H679.562ZM733.039 423.75C741.039 423.75 747.08 425.708 751.164 429.625C755.247 433.458 757.289 439.708 757.289 448.375V492H746.414V449.125C746.414 438.375 741.414 433 731.414 433C723.997 433 718.872 435.083 716.039 439.25C713.205 443.417 711.789 449.417 711.789 457.25V492H700.789V425H709.664L711.289 434.125H711.914C714.08 430.625 717.08 428.042 720.914 426.375C724.747 424.625 728.789 423.75 733.039 423.75ZM803.934 423.75C809.684 423.75 814.601 425 818.684 427.5C822.851 430 826.017 433.542 828.184 438.125C830.434 442.625 831.559 447.917 831.559 454V460.625H785.684C785.851 468.208 787.767 474 791.434 478C795.184 481.917 800.392 483.875 807.059 483.875C811.309 483.875 815.059 483.5 818.309 482.75C821.642 481.917 825.059 480.75 828.559 479.25V488.875C825.142 490.375 821.767 491.458 818.434 492.125C815.101 492.875 811.142 493.25 806.559 493.25C800.226 493.25 794.601 491.958 789.684 489.375C784.851 486.792 781.059 482.958 778.309 477.875C775.642 472.708 774.309 466.417 774.309 459C774.309 451.667 775.517 445.375 777.934 440.125C780.434 434.875 783.892 430.833 788.309 428C792.809 425.167 798.017 423.75 803.934 423.75ZM803.809 432.75C798.559 432.75 794.392 434.458 791.309 437.875C788.309 441.208 786.517 445.875 785.934 451.875H820.059C819.976 446.208 818.642 441.625 816.059 438.125C813.476 434.542 809.392 432.75 803.809 432.75ZM861.116 477.5L861.991 478.875C860.907 483.292 859.324 488.125 857.241 493.375C855.241 498.708 853.241 503.625 851.241 508.125H843.116C844.282 503.375 845.449 498.167 846.616 492.5C847.866 486.833 848.782 481.833 849.366 477.5H861.116ZM1018.53 402.75L994.784 492H983.409L966.034 433.5C965.367 431.083 964.7 428.667 964.034 426.25C963.367 423.833 962.825 421.708 962.409 419.875C961.992 417.958 961.7 416.625 961.534 415.875C961.45 416.958 960.992 419.292 960.159 422.875C959.409 426.375 958.45 430.042 957.284 433.875L940.409 492H929.034L905.409 402.75H917.159L931.034 457.25C932.034 461.083 932.867 464.792 933.534 468.375C934.284 471.958 934.867 475.333 935.284 478.5C935.7 475.25 936.325 471.708 937.159 467.875C937.992 464.042 938.95 460.292 940.034 456.625L955.784 402.75H967.409L983.784 457C984.95 460.833 985.95 464.667 986.784 468.5C987.617 472.25 988.242 475.583 988.659 478.5C989.075 475.417 989.659 472.083 990.409 468.5C991.159 464.833 992.034 461.042 993.034 457.125L1006.78 402.75H1018.53ZM1054.18 423.75C1059.93 423.75 1064.84 425 1068.93 427.5C1073.09 430 1076.26 433.542 1078.43 438.125C1080.68 442.625 1081.8 447.917 1081.8 454V460.625H1035.93C1036.09 468.208 1038.01 474 1041.68 478C1045.43 481.917 1050.64 483.875 1057.3 483.875C1061.55 483.875 1065.3 483.5 1068.55 482.75C1071.89 481.917 1075.3 480.75 1078.8 479.25V488.875C1075.39 490.375 1072.01 491.458 1068.68 492.125C1065.34 492.875 1061.39 493.25 1056.8 493.25C1050.47 493.25 1044.84 491.958 1039.93 489.375C1035.09 486.792 1031.3 482.958 1028.55 477.875C1025.89 472.708 1024.55 466.417 1024.55 459C1024.55 451.667 1025.76 445.375 1028.18 440.125C1030.68 434.875 1034.14 430.833 1038.55 428C1043.05 425.167 1048.26 423.75 1054.18 423.75ZM1054.05 432.75C1048.8 432.75 1044.64 434.458 1041.55 437.875C1038.55 441.208 1036.76 445.875 1036.18 451.875H1070.3C1070.22 446.208 1068.89 441.625 1066.3 438.125C1063.72 434.542 1059.64 432.75 1054.05 432.75ZM1109.86 397V420.125C1109.86 422.958 1109.78 425.625 1109.61 428.125C1109.53 430.542 1109.4 432.458 1109.23 433.875H1109.86C1111.78 431.042 1114.4 428.667 1117.73 426.75C1121.07 424.833 1125.36 423.875 1130.61 423.875C1138.94 423.875 1145.61 426.792 1150.61 432.625C1155.69 438.375 1158.23 447 1158.23 458.5C1158.23 470 1155.69 478.667 1150.61 484.5C1145.53 490.333 1138.86 493.25 1130.61 493.25C1125.36 493.25 1121.07 492.292 1117.73 490.375C1114.4 488.458 1111.78 486.167 1109.86 483.5H1108.98L1106.73 492H1098.86V397H1109.86ZM1128.73 433C1121.65 433 1116.73 435.042 1113.98 439.125C1111.23 443.208 1109.86 449.542 1109.86 458.125V458.625C1109.86 466.875 1111.19 473.208 1113.86 477.625C1116.61 481.958 1121.65 484.125 1128.98 484.125C1134.98 484.125 1139.44 481.917 1142.36 477.5C1145.36 473.083 1146.86 466.708 1146.86 458.375C1146.86 441.458 1140.82 433 1128.73 433ZM1207.64 423.75C1215.89 423.75 1222.51 426.625 1227.51 432.375C1232.6 438.125 1235.14 446.792 1235.14 458.375C1235.14 469.792 1232.6 478.458 1227.51 484.375C1222.51 490.292 1215.85 493.25 1207.51 493.25C1202.35 493.25 1198.06 492.292 1194.64 490.375C1191.31 488.375 1188.68 486.083 1186.76 483.5H1186.01C1186.18 484.917 1186.35 486.708 1186.51 488.875C1186.68 491.042 1186.76 492.917 1186.76 494.5V522H1175.76V425H1184.76L1186.26 434.125H1186.76C1188.76 431.208 1191.39 428.75 1194.64 426.75C1197.89 424.75 1202.22 423.75 1207.64 423.75ZM1205.64 433C1198.81 433 1193.97 434.917 1191.14 438.75C1188.39 442.583 1186.93 448.417 1186.76 456.25V458.375C1186.76 466.625 1188.1 473 1190.76 477.5C1193.51 481.917 1198.56 484.125 1205.89 484.125C1209.97 484.125 1213.31 483 1215.89 480.75C1218.56 478.5 1220.51 475.458 1221.76 471.625C1223.1 467.708 1223.76 463.25 1223.76 458.25C1223.76 450.583 1222.26 444.458 1219.26 439.875C1216.35 435.292 1211.81 433 1205.64 433ZM1278.04 423.875C1286.21 423.875 1292.25 425.667 1296.17 429.25C1300.09 432.833 1302.04 438.542 1302.04 446.375V492H1294.04L1291.92 482.5H1291.42C1288.5 486.167 1285.42 488.875 1282.17 490.625C1279 492.375 1274.59 493.25 1268.92 493.25C1262.84 493.25 1257.79 491.667 1253.79 488.5C1249.79 485.25 1247.79 480.208 1247.79 473.375C1247.79 466.708 1250.42 461.583 1255.67 458C1260.92 454.333 1269 452.333 1279.92 452L1291.29 451.625V447.625C1291.29 442.042 1290.09 438.167 1287.67 436C1285.25 433.833 1281.84 432.75 1277.42 432.75C1273.92 432.75 1270.59 433.292 1267.42 434.375C1264.25 435.375 1261.29 436.542 1258.54 437.875L1255.17 429.625C1258.09 428.042 1261.54 426.708 1265.54 425.625C1269.54 424.458 1273.71 423.875 1278.04 423.875ZM1291.17 459.25L1281.29 459.625C1272.96 459.958 1267.17 461.292 1263.92 463.625C1260.75 465.958 1259.17 469.25 1259.17 473.5C1259.17 477.25 1260.29 480 1262.54 481.75C1264.88 483.5 1267.84 484.375 1271.42 484.375C1277.09 484.375 1281.79 482.833 1285.54 479.75C1289.29 476.583 1291.17 471.75 1291.17 465.25V459.25ZM1349.61 493.25C1343.7 493.25 1338.4 492.042 1333.74 489.625C1329.15 487.208 1325.53 483.458 1322.86 478.375C1320.28 473.292 1318.99 466.792 1318.99 458.875C1318.99 450.625 1320.36 443.917 1323.11 438.75C1325.86 433.583 1329.57 429.792 1334.24 427.375C1338.99 424.958 1344.36 423.75 1350.36 423.75C1353.78 423.75 1357.07 424.125 1360.24 424.875C1363.4 425.542 1365.99 426.375 1367.99 427.375L1364.61 436.5C1362.61 435.75 1360.28 435.042 1357.61 434.375C1354.95 433.708 1352.45 433.375 1350.11 433.375C1336.95 433.375 1330.36 441.833 1330.36 458.75C1330.36 466.833 1331.95 473.042 1335.11 477.375C1338.36 481.625 1343.15 483.75 1349.49 483.75C1353.15 483.75 1356.36 483.375 1359.11 482.625C1361.95 481.875 1364.53 480.958 1366.86 479.875V489.625C1364.61 490.792 1362.11 491.667 1359.36 492.25C1356.7 492.917 1353.45 493.25 1349.61 493.25ZM1393.67 397V446.625C1393.67 447.958 1393.59 449.708 1393.42 451.875C1393.34 454.042 1393.25 455.917 1393.17 457.5H1393.67C1394.17 456.833 1394.92 455.875 1395.92 454.625C1396.92 453.375 1397.92 452.125 1398.92 450.875C1400 449.542 1400.92 448.458 1401.67 447.625L1423.05 425H1435.92L1408.8 453.625L1437.8 492H1424.55L1401.3 460.75L1393.67 467.375V492H1382.8V397H1393.67ZM1540.41 471.75H1527.41V492H1516.79V471.75H1474.04V462.375L1516.04 402.25H1527.41V461.875H1540.41V471.75ZM1516.79 461.875V433.75C1516.79 429.417 1516.87 425.75 1517.04 422.75C1517.21 419.667 1517.33 416.75 1517.41 414H1516.91C1516.25 415.583 1515.41 417.292 1514.41 419.125C1513.41 420.958 1512.46 422.5 1511.54 423.75L1484.79 461.875H1516.79Z" fill="#61DAFB"/>
<path id="Android development" d="M665.238 163.72C665.238 168.787 663.398 172.733 659.718 175.56C656.038 178.387 651.078 179.8 644.838 179.8C641.638 179.8 638.678 179.56 635.958 179.08C633.238 178.6 630.971 177.933 629.158 177.08V170.2C631.078 171.053 633.451 171.827 636.278 172.52C639.158 173.213 642.118 173.56 645.158 173.56C649.425 173.56 652.625 172.733 654.758 171.08C656.945 169.427 658.038 167.187 658.038 164.36C658.038 162.493 657.638 160.92 656.838 159.64C656.038 158.36 654.651 157.187 652.678 156.12C650.758 155 648.065 153.827 644.598 152.6C639.745 150.84 636.065 148.68 633.558 146.12C631.105 143.56 629.878 140.067 629.878 135.64C629.878 132.6 630.651 130.013 632.198 127.88C633.745 125.693 635.878 124.013 638.598 122.84C641.371 121.667 644.545 121.08 648.118 121.08C651.265 121.08 654.145 121.373 656.758 121.96C659.371 122.547 661.745 123.32 663.878 124.28L661.638 130.44C659.665 129.587 657.505 128.867 655.158 128.28C652.865 127.693 650.465 127.4 647.958 127.4C644.385 127.4 641.691 128.173 639.878 129.72C638.065 131.213 637.158 133.213 637.158 135.72C637.158 137.64 637.558 139.24 638.358 140.52C639.158 141.8 640.465 142.947 642.278 143.96C644.091 144.973 646.545 146.067 649.638 147.24C652.998 148.467 655.825 149.8 658.118 151.24C660.465 152.627 662.225 154.307 663.398 156.28C664.625 158.253 665.238 160.733 665.238 163.72ZM690.104 174.04C691.171 174.04 692.264 173.96 693.384 173.8C694.504 173.587 695.411 173.373 696.104 173.16V178.52C695.358 178.893 694.291 179.187 692.904 179.4C691.518 179.667 690.184 179.8 688.904 179.8C686.664 179.8 684.584 179.427 682.664 178.68C680.798 177.88 679.278 176.52 678.104 174.6C676.931 172.68 676.344 169.987 676.344 166.52V141.56H670.264V138.2L676.424 135.4L679.224 126.28H683.384V136.12H695.784V141.56H683.384V166.36C683.384 168.973 683.998 170.92 685.224 172.2C686.504 173.427 688.131 174.04 690.104 174.04ZM720.931 135.4C726.157 135.4 730.024 136.547 732.531 138.84C735.037 141.133 736.291 144.787 736.291 149.8V179H731.171L729.811 172.92H729.491C727.624 175.267 725.651 177 723.571 178.12C721.544 179.24 718.717 179.8 715.091 179.8C711.197 179.8 707.971 178.787 705.411 176.76C702.851 174.68 701.571 171.453 701.571 167.08C701.571 162.813 703.251 159.533 706.611 157.24C709.971 154.893 715.144 153.613 722.131 153.4L729.411 153.16V150.6C729.411 147.027 728.637 144.547 727.091 143.16C725.544 141.773 723.357 141.08 720.531 141.08C718.291 141.08 716.157 141.427 714.131 142.12C712.104 142.76 710.211 143.507 708.451 144.36L706.291 139.08C708.157 138.067 710.371 137.213 712.931 136.52C715.491 135.773 718.157 135.4 720.931 135.4ZM729.331 158.04L723.011 158.28C717.677 158.493 713.971 159.347 711.891 160.84C709.864 162.333 708.851 164.44 708.851 167.16C708.851 169.56 709.571 171.32 711.011 172.44C712.504 173.56 714.397 174.12 716.691 174.12C720.317 174.12 723.331 173.133 725.731 171.16C728.131 169.133 729.331 166.04 729.331 161.88V158.04ZM769.534 135.32C770.334 135.32 771.188 135.373 772.094 135.48C773.054 135.533 773.881 135.64 774.574 135.8L773.694 142.28C773.001 142.12 772.228 141.987 771.374 141.88C770.574 141.773 769.801 141.72 769.054 141.72C766.868 141.72 764.814 142.333 762.894 143.56C760.974 144.733 759.428 146.413 758.254 148.6C757.134 150.733 756.574 153.24 756.574 156.12V179H749.534V136.12H755.294L756.094 143.96H756.414C757.801 141.613 759.588 139.587 761.774 137.88C763.961 136.173 766.548 135.32 769.534 135.32ZM796.901 174.04C797.968 174.04 799.061 173.96 800.181 173.8C801.301 173.587 802.208 173.373 802.901 173.16V178.52C802.155 178.893 801.088 179.187 799.701 179.4C798.315 179.667 796.981 179.8 795.701 179.8C793.461 179.8 791.381 179.427 789.461 178.68C787.595 177.88 786.075 176.52 784.901 174.6C783.728 172.68 783.141 169.987 783.141 166.52V141.56H777.061V138.2L783.221 135.4L786.021 126.28H790.181V136.12H802.581V141.56H790.181V166.36C790.181 168.973 790.795 170.92 792.021 172.2C793.301 173.427 794.928 174.04 796.901 174.04ZM828.048 135.32C831.728 135.32 834.874 136.12 837.488 137.72C840.154 139.32 842.181 141.587 843.568 144.52C845.008 147.4 845.728 150.787 845.728 154.68V158.92H816.368C816.474 163.773 817.701 167.48 820.048 170.04C822.448 172.547 825.781 173.8 830.048 173.8C832.768 173.8 835.168 173.56 837.248 173.08C839.381 172.547 841.568 171.8 843.808 170.84V177C841.621 177.96 839.461 178.653 837.328 179.08C835.194 179.56 832.661 179.8 829.728 179.8C825.674 179.8 822.074 178.973 818.928 177.32C815.834 175.667 813.408 173.213 811.648 169.96C809.941 166.653 809.088 162.627 809.088 157.88C809.088 153.187 809.861 149.16 811.408 145.8C813.008 142.44 815.221 139.853 818.048 138.04C820.928 136.227 824.261 135.32 828.048 135.32ZM827.968 141.08C824.608 141.08 821.941 142.173 819.968 144.36C818.048 146.493 816.901 149.48 816.528 153.32H838.368C838.314 149.693 837.461 146.76 835.808 144.52C834.154 142.227 831.541 141.08 827.968 141.08ZM876.644 135.32C877.444 135.32 878.297 135.373 879.204 135.48C880.164 135.533 880.99 135.64 881.684 135.8L880.804 142.28C880.11 142.12 879.337 141.987 878.484 141.88C877.684 141.773 876.91 141.72 876.164 141.72C873.977 141.72 871.924 142.333 870.004 143.56C868.084 144.733 866.537 146.413 865.364 148.6C864.244 150.733 863.684 153.24 863.684 156.12V179H856.644V136.12H862.404L863.204 143.96H863.524C864.91 141.613 866.697 139.587 868.884 137.88C871.07 136.173 873.657 135.32 876.644 135.32ZM926.552 121.88C934.019 121.88 939.459 123.347 942.872 126.28C946.285 129.213 947.992 133.347 947.992 138.68C947.992 141.827 947.272 144.787 945.832 147.56C944.445 150.28 942.072 152.493 938.712 154.2C935.405 155.907 930.899 156.76 925.192 156.76H918.632V179H911.432V121.88H926.552ZM925.912 128.04H918.632V150.6H924.392C929.832 150.6 933.885 149.72 936.552 147.96C939.219 146.2 940.552 143.213 940.552 139C940.552 135.32 939.379 132.573 937.032 130.76C934.685 128.947 930.979 128.04 925.912 128.04ZM978.909 135.32C979.709 135.32 980.563 135.373 981.469 135.48C982.429 135.533 983.256 135.64 983.949 135.8L983.069 142.28C982.376 142.12 981.603 141.987 980.749 141.88C979.949 141.773 979.176 141.72 978.429 141.72C976.243 141.72 974.189 142.333 972.269 143.56C970.349 144.733 968.803 146.413 967.629 148.6C966.509 150.733 965.949 153.24 965.949 156.12V179H958.909V136.12H964.669L965.469 143.96H965.789C967.176 141.613 968.963 139.587 971.149 137.88C973.336 136.173 975.923 135.32 978.909 135.32ZM1027.67 157.48C1027.67 164.573 1025.86 170.067 1022.23 173.96C1018.66 177.853 1013.81 179.8 1007.67 179.8C1003.89 179.8 1000.5 178.947 997.514 177.24C994.58 175.48 992.26 172.947 990.554 169.64C988.847 166.28 987.994 162.227 987.994 157.48C987.994 150.387 989.78 144.92 993.354 141.08C996.927 137.24 1001.78 135.32 1007.91 135.32C1011.81 135.32 1015.22 136.2 1018.15 137.96C1021.14 139.667 1023.46 142.173 1025.11 145.48C1026.82 148.733 1027.67 152.733 1027.67 157.48ZM995.274 157.48C995.274 162.547 996.26 166.573 998.234 169.56C1000.26 172.493 1003.46 173.96 1007.83 173.96C1012.15 173.96 1015.33 172.493 1017.35 169.56C1019.38 166.573 1020.39 162.547 1020.39 157.48C1020.39 152.413 1019.38 148.44 1017.35 145.56C1015.33 142.68 1012.13 141.24 1007.75 141.24C1003.38 141.24 1000.21 142.68 998.234 145.56C996.26 148.44 995.274 152.413 995.274 157.48ZM1038.27 124.52C1038.27 122.973 1038.67 121.853 1039.47 121.16C1040.27 120.413 1041.26 120.04 1042.43 120.04C1043.5 120.04 1044.43 120.413 1045.23 121.16C1046.08 121.853 1046.51 122.973 1046.51 124.52C1046.51 126.013 1046.08 127.133 1045.23 127.88C1044.43 128.627 1043.5 129 1042.43 129C1041.26 129 1040.27 128.627 1039.47 127.88C1038.67 127.133 1038.27 126.013 1038.27 124.52ZM1033.79 198.2C1032.46 198.2 1031.28 198.093 1030.27 197.88C1029.26 197.72 1028.38 197.507 1027.63 197.24V191.56C1028.43 191.773 1029.26 191.96 1030.11 192.12C1030.96 192.28 1031.9 192.36 1032.91 192.36C1034.62 192.36 1036.03 191.88 1037.15 190.92C1038.27 190.013 1038.83 188.253 1038.83 185.64V136.12H1045.87V185.4C1045.87 189.4 1044.91 192.52 1042.99 194.76C1041.07 197.053 1038 198.2 1033.79 198.2ZM1076.02 135.32C1079.7 135.32 1082.84 136.12 1085.46 137.72C1088.12 139.32 1090.15 141.587 1091.54 144.52C1092.98 147.4 1093.7 150.787 1093.7 154.68V158.92H1064.34C1064.44 163.773 1065.67 167.48 1068.02 170.04C1070.42 172.547 1073.75 173.8 1078.02 173.8C1080.74 173.8 1083.14 173.56 1085.22 173.08C1087.35 172.547 1089.54 171.8 1091.78 170.84V177C1089.59 177.96 1087.43 178.653 1085.3 179.08C1083.16 179.56 1080.63 179.8 1077.7 179.8C1073.64 179.8 1070.04 178.973 1066.9 177.32C1063.8 175.667 1061.38 173.213 1059.62 169.96C1057.91 166.653 1057.06 162.627 1057.06 157.88C1057.06 153.187 1057.83 149.16 1059.38 145.8C1060.98 142.44 1063.19 139.853 1066.02 138.04C1068.9 136.227 1072.23 135.32 1076.02 135.32ZM1075.94 141.08C1072.58 141.08 1069.91 142.173 1067.94 144.36C1066.02 146.493 1064.87 149.48 1064.5 153.32H1086.34C1086.28 149.693 1085.43 146.76 1083.78 144.52C1082.12 142.227 1079.51 141.08 1075.94 141.08ZM1121.81 179.8C1118.03 179.8 1114.64 179.027 1111.65 177.48C1108.72 175.933 1106.4 173.533 1104.69 170.28C1103.04 167.027 1102.21 162.867 1102.21 157.8C1102.21 152.52 1103.09 148.227 1104.85 144.92C1106.61 141.613 1108.99 139.187 1111.97 137.64C1115.01 136.093 1118.45 135.32 1122.29 135.32C1124.48 135.32 1126.59 135.56 1128.61 136.04C1130.64 136.467 1132.29 137 1133.57 137.64L1131.41 143.48C1130.13 143 1128.64 142.547 1126.93 142.12C1125.23 141.693 1123.63 141.48 1122.13 141.48C1113.71 141.48 1109.49 146.893 1109.49 157.72C1109.49 162.893 1110.51 166.867 1112.53 169.64C1114.61 172.36 1117.68 173.72 1121.73 173.72C1124.08 173.72 1126.13 173.48 1127.89 173C1129.71 172.52 1131.36 171.933 1132.85 171.24V177.48C1131.41 178.227 1129.81 178.787 1128.05 179.16C1126.35 179.587 1124.27 179.8 1121.81 179.8ZM1157.37 174.04C1158.44 174.04 1159.53 173.96 1160.65 173.8C1161.77 173.587 1162.68 173.373 1163.37 173.16V178.52C1162.62 178.893 1161.56 179.187 1160.17 179.4C1158.78 179.667 1157.45 179.8 1156.17 179.8C1153.93 179.8 1151.85 179.427 1149.93 178.68C1148.06 177.88 1146.54 176.52 1145.37 174.6C1144.2 172.68 1143.61 169.987 1143.61 166.52V141.56H1137.53V138.2L1143.69 135.4L1146.49 126.28H1150.65V136.12H1163.05V141.56H1150.65V166.36C1150.65 168.973 1151.26 170.92 1152.49 172.2C1153.77 173.427 1155.4 174.04 1157.37 174.04ZM1212.5 141.56H1201.7V179H1194.66V141.56H1187.14V138.28L1194.66 135.88V133.4C1194.66 127.853 1195.88 123.88 1198.34 121.48C1200.79 119.027 1204.2 117.8 1208.58 117.8C1210.28 117.8 1211.83 117.96 1213.22 118.28C1214.66 118.547 1215.88 118.867 1216.9 119.24L1215.06 124.76C1214.2 124.493 1213.22 124.227 1212.1 123.96C1210.98 123.693 1209.83 123.56 1208.66 123.56C1206.31 123.56 1204.55 124.36 1203.38 125.96C1202.26 127.507 1201.7 129.96 1201.7 133.32V136.12H1212.5V141.56ZM1257.52 157.48C1257.52 164.573 1255.7 170.067 1252.08 173.96C1248.5 177.853 1243.65 179.8 1237.52 179.8C1233.73 179.8 1230.34 178.947 1227.36 177.24C1224.42 175.48 1222.1 172.947 1220.4 169.64C1218.69 166.28 1217.84 162.227 1217.84 157.48C1217.84 150.387 1219.62 144.92 1223.2 141.08C1226.77 137.24 1231.62 135.32 1237.76 135.32C1241.65 135.32 1245.06 136.2 1248 137.96C1250.98 139.667 1253.3 142.173 1254.96 145.48C1256.66 148.733 1257.52 152.733 1257.52 157.48ZM1225.12 157.48C1225.12 162.547 1226.1 166.573 1228.08 169.56C1230.1 172.493 1233.3 173.96 1237.68 173.96C1242 173.96 1245.17 172.493 1247.2 169.56C1249.22 166.573 1250.24 162.547 1250.24 157.48C1250.24 152.413 1249.22 148.44 1247.2 145.56C1245.17 142.68 1241.97 141.24 1237.6 141.24C1233.22 141.24 1230.05 142.68 1228.08 145.56C1226.1 148.44 1225.12 152.413 1225.12 157.48ZM1288.68 135.32C1289.48 135.32 1290.33 135.373 1291.24 135.48C1292.2 135.533 1293.02 135.64 1293.72 135.8L1292.84 142.28C1292.14 142.12 1291.37 141.987 1290.52 141.88C1289.72 141.773 1288.94 141.72 1288.2 141.72C1286.01 141.72 1283.96 142.333 1282.04 143.56C1280.12 144.733 1278.57 146.413 1277.4 148.6C1276.28 150.733 1275.72 153.24 1275.72 156.12V179H1268.68V136.12H1274.44L1275.24 143.96H1275.56C1276.94 141.613 1278.73 139.587 1280.92 137.88C1283.1 136.173 1285.69 135.32 1288.68 135.32Z" fill="#9B9B9B"/>
<g id="typescript-seeklogo.com" filter="url(#filter2_d)">
<g id="Group_3">
<path id="Vector_16" d="M167 775V903H295H423V775V647H295H167V775Z" fill="#007ACC"/>
<path id="Vector_17" d="M223.612 775.849L223.531 786.333H240.191H256.851V833.673V881.012H268.635H280.42V833.673V786.333H297.08H313.74V776.052C313.74 770.363 313.618 765.609 313.456 765.487C313.334 765.325 293.057 765.243 268.473 765.284L223.734 765.406L223.612 775.849Z" fill="white"/>
<path id="Vector_18" d="M373.566 765.108C380.067 766.734 385.025 769.619 389.576 774.332C391.933 776.852 395.427 781.444 395.712 782.541C395.793 782.866 384.659 790.343 377.914 794.528C377.67 794.691 376.695 793.634 375.598 792.009C372.306 787.214 368.852 785.141 363.57 784.776C355.808 784.247 350.81 788.311 350.851 795.097C350.851 797.088 351.135 798.266 351.948 799.892C353.655 803.427 356.824 805.54 366.78 809.847C385.106 817.731 392.949 822.932 397.825 830.327C403.27 838.576 404.489 851.742 400.791 861.535C396.728 872.181 386.65 879.414 372.469 881.812C368.08 882.584 357.678 882.462 352.964 881.609C342.683 879.78 332.931 874.701 326.917 868.037C324.56 865.436 319.968 858.65 320.253 858.162C320.375 858 321.431 857.35 322.61 856.659C323.747 856.009 328.055 853.53 332.118 851.173L339.473 846.906L341.017 849.182C343.171 852.473 347.885 856.984 350.729 858.487C358.897 862.795 370.112 862.185 375.638 857.228C377.995 855.074 378.97 852.839 378.97 849.548C378.97 846.581 378.605 845.281 377.06 843.046C375.069 840.202 371.006 837.804 359.466 832.806C346.259 827.117 340.57 823.582 335.369 817.974C332.362 814.724 329.518 809.522 328.339 805.174C327.364 801.558 327.12 792.496 327.892 788.839C330.615 776.08 340.245 767.181 354.142 764.539C358.653 763.686 369.137 764.011 373.566 765.108Z" fill="white"/>
</g>
</g>
<g id="webpack-seeklogo.com" filter="url(#filter3_d)">
<g id="Group_4">
<path id="Vector_19" d="M692.033 630.456L564.299 704.203V851.698L692.033 925.446L819.768 851.698V704.203L692.033 630.456Z" fill="url(#paint1_radial)"/>
<path id="Vector_20" d="M692.033 705.263L628.689 741.834V814.978L692.033 851.55L755.378 814.978V741.834L692.033 705.263Z" fill="#6F95DB"/>
<g id="Group_5">
<path id="Vector_21" d="M692 630L564 704.249L692 773.943L820 704.705L692 630Z" fill="white" fill-opacity="0.1"/>
</g>
<g id="Group_6">
<path id="Vector_22" d="M692 783.509L564 851.381L692 925.174L819.544 850.925L692 783.509Z" fill="white" fill-opacity="0.1"/>
</g>
</g>
</g>
</g>
<defs>
<filter id="filter0_d" x="1385" y="655" width="308" height="242" filterUnits="userSpaceOnUse" color-interpolation-filters="sRGB">
<feFlood flood-opacity="0" result="BackgroundImageFix"/>
<feColorMatrix in="SourceAlpha" type="matrix" values="0 0 0 0 0 0 0 0 0 0 0 0 0 0 0 0 0 0 127 0"/>
<feOffset dx="8" dy="8"/>
<feGaussianBlur stdDeviation="4"/>
<feColorMatrix type="matrix" values="0 0 0 0 0 0 0 0 0 0 0 0 0 0 0 0 0 0 0.25 0"/>
<feBlend mode="normal" in2="BackgroundImageFix" result="effect1_dropShadow"/>
<feBlend mode="normal" in="SourceGraphic" in2="effect1_dropShadow" result="shape"/>
</filter>
<filter id="filter1_d" x="961" y="627" width="299" height="298" filterUnits="userSpaceOnUse" color-interpolation-filters="sRGB">
<feFlood flood-opacity="0" result="BackgroundImageFix"/>
<feColorMatrix in="SourceAlpha" type="matrix" values="0 0 0 0 0 0 0 0 0 0 0 0 0 0 0 0 0 0 127 0"/>
<feOffset dx="8" dy="8"/>
<feGaussianBlur stdDeviation="4"/>
<feColorMatrix type="matrix" values="0 0 0 0 0 0 0 0 0 0 0 0 0 0 0 0 0 0 0.25 0"/>
<feBlend mode="normal" in2="BackgroundImageFix" result="effect1_dropShadow"/>
<feBlend mode="normal" in="SourceGraphic" in2="effect1_dropShadow" result="shape"/>
</filter>
<filter id="filter2_d" x="167" y="647" width="272" height="272" filterUnits="userSpaceOnUse" color-interpolation-filters="sRGB">
<feFlood flood-opacity="0" result="BackgroundImageFix"/>
<feColorMatrix in="SourceAlpha" type="matrix" values="0 0 0 0 0 0 0 0 0 0 0 0 0 0 0 0 0 0 127 0"/>
<feOffset dx="8" dy="8"/>
<feGaussianBlur stdDeviation="4"/>
<feColorMatrix type="matrix" values="0 0 0 0 0 0 0 0 0 0 0 0 0 0 0 0 0 0 0.25 0"/>
<feBlend mode="normal" in2="BackgroundImageFix" result="effect1_dropShadow"/>
<feBlend mode="normal" in="SourceGraphic" in2="effect1_dropShadow" result="shape"/>
</filter>
<filter id="filter3_d" x="564" y="630" width="272" height="312" filterUnits="userSpaceOnUse" color-interpolation-filters="sRGB">
<feFlood flood-opacity="0" result="BackgroundImageFix"/>
<feColorMatrix in="SourceAlpha" type="matrix" values="0 0 0 0 0 0 0 0 0 0 0 0 0 0 0 0 0 0 127 0"/>
<feOffset dx="8" dy="8"/>
<feGaussianBlur stdDeviation="4"/>
<feColorMatrix type="matrix" values="0 0 0 0 0 0 0 0 0 0 0 0 0 0 0 0 0 0 0.25 0"/>
<feBlend mode="normal" in2="BackgroundImageFix" result="effect1_dropShadow"/>
<feBlend mode="normal" in="SourceGraphic" in2="effect1_dropShadow" result="shape"/>
</filter>
<linearGradient id="paint0_linear" x1="949.605" y1="-540" x2="32.2584" y2="1110.2" gradientUnits="userSpaceOnUse">
<stop stop-color="#0B0B0B" stop-opacity="0.01"/>
<stop offset="1"/>
</linearGradient>
<radialGradient id="paint1_radial" cx="0" cy="0" r="1" gradientUnits="userSpaceOnUse" gradientTransform="translate(692.033 777.951) scale(127.735 147.495)">
<stop stop-color="#93B4E7"/>
<stop offset="0.592734" stop-color="#B9D1F8"/>
<stop offset="1" stop-color="#9CB6E0"/>
</radialGradient>
<clipPath id="clip0">
<rect width="1920" height="1080" fill="white"/>
</clipPath>
</defs>
</svg>
