<?xml version="1.0" encoding="UTF-8"?>
<svg width="1920px" height="1080px" viewBox="0 0 1920 1080" version="1.1" xmlns="http://www.w3.org/2000/svg" xmlns:xlink="http://www.w3.org/1999/xlink">
    <!-- Generator: Sketch 51.2 (57519) - http://www.bohemiancoding.com/sketch -->
    <title>vue.js</title>
    <desc>Created with Sketch.</desc>
    <defs>
        <linearGradient x1="100%" y1="0%" x2="0%" y2="101.186989%" id="linearGradient-1">
            <stop stop-color="#0B0B0B" stop-opacity="0" offset="0%"></stop>
            <stop stop-color="#000000" offset="100%"></stop>
        </linearGradient>
        <rect id="path-2" x="0" y="0" width="1920" height="1080"></rect>
    </defs>
    <g id="vue.js" stroke="none" stroke-width="1" fill="none" fill-rule="evenodd">
        <g id="Rectangle">
            <use fill="#323232" xlink:href="#path-2"></use>
            <use fill-opacity="0.15" fill="url(#linearGradient-1)" xlink:href="#path-2"></use>
        </g>
        <g id="browser" transform="translate(440.000000, 579.000000)" fill="#61DAFB" fill-rule="nonzero">
            <path d="M326.0625,278 L6.9375,278 C3.108,278 0,274.8725 0,271.05 L0,6.95 C0,3.1275 3.108,0 6.9375,0 L326.0625,0 C329.878125,0 333,3.1275 333,6.95 L333,271.05 C333,274.8725 329.878125,278 326.0625,278 Z M13.875,264.1 L319.125,264.1 L319.125,13.9 L13.875,13.9 L13.875,264.1 Z" id="Shape"></path>
            <path d="M319.065217,70 L13.9347826,70 C10.1067826,70 7,66.85 7,63 C7,59.15 10.1067826,56 13.9347826,56 L319.065217,56 C322.879348,56 326,59.15 326,63 C326,66.85 322.879348,70 319.065217,70 Z" id="Shape"></path>
            <path d="M111.082536,242 C108.782528,242 106.524086,240.863643 105.207817,238.784942 L63.0594755,171.795335 C61.5492292,169.356325 61.660073,166.307564 63.3504404,163.993276 L105.498781,106.828996 C107.771079,103.710944 112.093985,103.073476 115.183755,105.401621 C118.25967,107.674334 118.924732,112.011891 116.63858,115.088368 L77.3028991,168.455555 L116.929545,231.440198 C118.966299,234.669114 117.996416,238.965096 114.754236,240.974507 C113.631943,241.681266 112.343384,242 111.082536,242 Z" id="Shape"></path>
            <path d="M221.940376,242 C220.679314,242 219.390537,241.681302 218.254197,240.933053 C215.011468,238.910011 214.027563,234.628367 216.078519,231.399813 L255.711873,168.422234 L216.355676,115.047177 C214.082994,111.957188 214.734311,107.633975 217.810746,105.361517 C220.887182,103.075202 225.224678,103.740312 227.49736,106.816444 L269.638978,163.974313 C271.34349,166.274484 271.454352,169.364473 269.929992,171.775496 L227.774516,238.75759 C226.485739,240.863771 224.240773,242 221.940376,242 Z" id="Shape"></path>
            <path d="M138.955578,230 C137.800656,230 136.645734,229.709164 135.560386,229.127493 C132.206938,227.257835 131.010272,223.047643 132.888759,219.65456 L187.963229,121.545993 C189.841716,118.194458 194.057877,116.989568 197.453069,118.928472 C200.792602,120.79813 201.989268,124.994473 200.110781,128.359858 L145.036312,226.468424 C143.756157,228.725863 141.390654,230 138.955578,230 Z" id="Shape"></path>
            <path d="M42,35 C42,38.8675 38.8675,42 35,42 C31.1325,42 28,38.8675 28,35 C28,31.1325 31.1325,28 35,28 C38.8675,28 42,31.1325 42,35 Z" id="Shape"></path>
            <path d="M69,35 C69,38.8675 65.8675,42 62,42 C58.1325,42 55,38.8675 55,35 C55,31.1325 58.1325,28 62,28 C65.8675,28 69,31.1325 69,35 Z" id="Shape"></path>
            <path d="M97,35 C97,38.8675 93.8675,42 90,42 C86.1325,42 83,38.8675 83,35 C83,31.1325 86.1325,28 90,28 C93.8675,28 97,31.1325 97,35 Z" id="Shape"></path>
        </g>
        <text id="Getting-started-with" font-family="GoogleSans-Regular, Google Sans" font-size="80" font-weight="normal" fill="#9B9B9B">
            <tspan x="597.86" y="170">Getting started with</tspan>
        </text>
        <text id="Vue.js" font-family="GoogleSans-Regular, Google Sans" font-size="150" font-weight="normal" fill="#61DAFB">
            <tspan x="763.55" y="333">Vue.js</tspan>
        </text>
        <g id="Vue.js_Logo" transform="translate(1122.000000, 540.000000)" fill-rule="nonzero">
            <g id="g10" transform="translate(202.000000, 175.000000) scale(-1, 1) rotate(-180.000000) translate(-202.000000, -175.000000) ">
                <g id="g12" transform="translate(0.128362, 0.017650)" fill="#4DBA87">
                    <polygon id="path14" points="248.111111 348.947674 201.628212 268.365163 155.145313 348.947674 0.350636364 348.947674 201.628212 0.0174360465 402.905788 348.947674"></polygon>
                </g>
                <g id="g16" transform="translate(80.098059, 139.575790)" fill="#435466">
                    <polygon id="path18" points="168.141414 209.389535 121.658515 128.807023 75.1756162 209.389535 0.891969697 209.389535 121.658515 0.0318023256 242.425061 209.389535"></polygon>
                </g>
            </g>
        </g>
    </g>
</svg>