<svg width="61" height="61" viewBox="0 0 61 61" fill="none" xmlns="http://www.w3.org/2000/svg">
<circle cx="30.0986" cy="30.9014" r="30.0986" fill="white"/>
<circle cx="30.0987" cy="30.9014" r="27.2256" fill="#192838"/>
<path d="M39.0235 13.2426C38.3984 12.8987 37.6129 13.1267 37.269 13.7518L29.9662 27.0276C28.9591 24.7124 27.2057 22.6996 24.8225 21.3886C19.0978 18.2396 11.9042 20.3275 8.75514 26.0522C5.60607 31.7768 7.69401 38.9704 13.4187 42.1195C15.8019 43.4305 18.4407 43.8337 20.9353 43.4448L20.3628 44.4855C20.3522 44.5049 20.342 44.5244 20.3325 44.5442C20.3219 44.5658 20.312 44.5877 20.3028 44.6098C20.0506 45.2117 20.2876 45.9185 20.872 46.24L24.5246 48.2492C25.1497 48.5931 25.9352 48.3651 26.279 47.74L27.2711 45.9364C27.615 45.3113 27.387 44.5258 26.7619 44.182L26.0441 43.7871L41.3356 15.9888C41.6795 15.3637 41.4515 14.5782 40.8264 14.2343L39.0235 13.2426ZM25.4026 35.2095C23.4941 38.6789 19.1344 39.9443 15.665 38.0358C12.1956 36.1274 10.9302 31.7677 12.8387 28.2983C14.7472 24.8289 19.1068 23.5635 22.5762 25.472C26.0457 27.3804 27.3111 31.7401 25.4026 35.2095Z" fill="white" stroke="white" stroke-width="1.04512"/>
<path d="M51.3935 21.9333C51.3987 21.924 51.4037 21.9147 51.4086 21.9054L51.5422 21.6639C51.8873 21.0398 51.6612 20.254 51.0371 19.9088L47.3883 17.8908C46.7642 17.5457 45.9784 17.7718 45.6332 18.3959L44.6663 20.1443C44.3211 20.7685 44.5472 21.5543 45.1713 21.8995L45.8902 22.297L32.0863 47.2563L31.3384 46.8426C30.7143 46.4975 29.9285 46.7236 29.5833 47.3477L28.6163 49.0961C28.2711 49.7203 28.4973 50.5061 29.1214 50.8512L34.6774 53.924C35.3015 54.2692 36.0873 54.0431 36.4325 53.4189L37.2506 51.9397C37.678 51.1669 37.398 50.1939 36.6252 49.7665L36.1463 49.5017L50.5614 23.4372C50.5662 23.4291 50.5709 23.4208 50.5755 23.4125L51.3935 21.9333Z" fill="#4DCBFF" stroke="#4DCBFF" stroke-width="1.04512"/>
</svg>
