<svg width="1920" height="1080" viewBox="0 0 1920 1080" fill="none" xmlns="http://www.w3.org/2000/svg">
<g id="annotation-processing">
<g id="Rectangle">
<rect width="1920" height="1080" fill="#323232"/>
<rect width="1920" height="1080" fill="url(#paint0_linear)" fill-opacity="0.15"/>
</g>
<g id="cpu">
<g id="Group">
<path id="Vector" d="M908.556 762.865H749.159C746.817 762.865 744.922 760.968 744.922 758.625V599.103C744.922 596.759 746.817 594.862 749.159 594.862H908.556C910.898 594.862 912.793 596.759 912.793 599.103V758.625C912.791 760.968 910.898 762.865 908.556 762.865ZM753.398 754.384H904.319V603.343H753.398V754.384Z" fill="#806EE3"/>
</g>
<g id="Group_2">
<path id="Vector_2" d="M880.77 735.06H776.944C774.6 735.06 772.707 733.161 772.707 730.819V626.911C772.707 624.567 774.602 622.67 776.944 622.67H880.768C883.112 622.67 885.004 624.567 885.004 626.911V730.819C885.007 733.161 883.112 735.06 880.77 735.06ZM781.181 726.579H876.533V631.151H781.181V726.579Z" fill="#806EE3"/>
</g>
<g id="Group_3">
<g id="Group_4">
<path id="Vector_3" d="M778.022 616.998C775.678 616.998 773.785 615.102 773.785 612.758V568.24C773.785 565.897 775.68 564 778.022 564C780.364 564 782.259 565.897 782.259 568.24V612.758C782.259 615.102 780.364 616.998 778.022 616.998Z" fill="#806EE3"/>
</g>
<g id="Group_5">
<path id="Vector_4" d="M803.444 616.998C801.1 616.998 799.207 615.102 799.207 612.758V568.24C799.207 565.897 801.102 564 803.444 564C805.786 564 807.681 565.897 807.681 568.24V612.758C807.681 615.102 805.786 616.998 803.444 616.998Z" fill="#806EE3"/>
</g>
<g id="Group_6">
<path id="Vector_5" d="M828.858 616.998C826.516 616.998 824.621 615.102 824.621 612.758V568.24C824.621 565.897 826.516 564 828.858 564C831.202 564 833.095 565.897 833.095 568.24V612.758C833.097 615.102 831.202 616.998 828.858 616.998Z" fill="#806EE3"/>
</g>
<g id="Group_7">
<path id="Vector_6" d="M854.276 616.998C851.934 616.998 850.039 615.102 850.039 612.758V568.24C850.039 565.897 851.934 564 854.276 564C856.62 564 858.513 565.897 858.513 568.24V612.758C858.513 615.102 856.62 616.998 854.276 616.998Z" fill="#806EE3"/>
</g>
<g id="Group_8">
<path id="Vector_7" d="M879.694 616.998C877.352 616.998 875.457 615.102 875.457 612.758V568.24C875.457 565.897 877.352 564 879.694 564C882.038 564 883.931 565.897 883.931 568.24V612.758C883.931 615.102 882.038 616.998 879.694 616.998Z" fill="#806EE3"/>
</g>
<g id="Group_9">
<path id="Vector_8" d="M778.022 793.903C775.678 793.903 773.785 792.007 773.785 789.663V745.148C773.785 742.802 775.68 740.908 778.022 740.908C780.364 740.908 782.259 742.804 782.259 745.148V789.666C782.259 792.007 780.364 793.903 778.022 793.903Z" fill="#806EE3"/>
</g>
<g id="Group_10">
<path id="Vector_9" d="M803.444 793.903C801.1 793.903 799.207 792.007 799.207 789.663V745.148C799.207 742.802 801.102 740.908 803.444 740.908C805.786 740.908 807.681 742.804 807.681 745.148V789.666C807.681 792.007 805.786 793.903 803.444 793.903Z" fill="#806EE3"/>
</g>
<g id="Group_11">
<path id="Vector_10" d="M828.858 793.903C826.516 793.903 824.621 792.007 824.621 789.663V745.148C824.621 742.802 826.516 740.908 828.858 740.908C831.202 740.908 833.095 742.804 833.095 745.148V789.666C833.097 792.007 831.202 793.903 828.858 793.903Z" fill="#806EE3"/>
</g>
<g id="Group_12">
<path id="Vector_11" d="M854.276 793.903C851.934 793.903 850.039 792.007 850.039 789.663V745.148C850.039 742.802 851.934 740.908 854.276 740.908C856.62 740.908 858.513 742.804 858.513 745.148V789.666C858.513 792.007 856.62 793.903 854.276 793.903Z" fill="#806EE3"/>
</g>
<g id="Group_13">
<path id="Vector_12" d="M879.694 793.903C877.352 793.903 875.457 792.007 875.457 789.663V745.148C875.457 742.802 877.352 740.908 879.694 740.908C882.038 740.908 883.931 742.804 883.931 745.148V789.666C883.931 792.007 882.038 793.903 879.694 793.903Z" fill="#806EE3"/>
</g>
</g>
<g id="Group_14">
<g id="Group_15">
<path id="Vector_13" d="M762.719 734.062H718.237C715.895 734.062 714 732.168 714 729.822C714 727.478 715.895 725.582 718.237 725.582H762.722C765.063 725.582 766.958 727.478 766.958 729.822C766.956 732.171 765.061 734.062 762.719 734.062Z" fill="#806EE3"/>
</g>
<g id="Group_16">
<path id="Vector_14" d="M762.719 708.626H718.237C715.895 708.626 714 706.732 714 704.386C714 702.042 715.895 700.145 718.237 700.145H762.722C765.063 700.145 766.958 702.042 766.958 704.386C766.956 706.732 765.061 708.626 762.719 708.626Z" fill="#806EE3"/>
</g>
<g id="Group_17">
<path id="Vector_15" d="M762.719 683.187H718.237C715.895 683.187 714 681.293 714 678.949C714 676.605 715.895 674.709 718.237 674.709H762.722C765.063 674.709 766.958 676.605 766.958 678.949C766.958 681.293 765.061 683.187 762.719 683.187Z" fill="#806EE3"/>
</g>
<g id="Group_18">
<path id="Vector_16" d="M762.719 657.748H718.237C715.895 657.748 714 655.851 714 653.508C714 651.164 715.895 649.267 718.237 649.267H762.722C765.063 649.267 766.958 651.164 766.958 653.508C766.956 655.851 765.061 657.748 762.719 657.748Z" fill="#806EE3"/>
</g>
<g id="Group_19">
<path id="Vector_17" d="M762.719 632.309H718.237C715.895 632.309 714 630.412 714 628.069C714 625.725 715.895 623.828 718.237 623.828H762.722C765.063 623.828 766.958 625.725 766.958 628.069C766.956 630.412 765.061 632.309 762.719 632.309Z" fill="#806EE3"/>
</g>
<g id="Group_20">
<path id="Vector_18" d="M939.485 734.062H895.002C892.661 734.062 890.766 732.168 890.766 729.822C890.766 727.478 892.661 725.582 895.002 725.582H939.487C941.829 725.582 943.724 727.478 943.724 729.822C943.722 732.171 941.827 734.062 939.485 734.062Z" fill="#806EE3"/>
</g>
<g id="Group_21">
<path id="Vector_19" d="M939.485 708.626H895.002C892.661 708.626 890.766 706.732 890.766 704.386C890.766 702.042 892.661 700.145 895.002 700.145H939.487C941.829 700.145 943.724 702.042 943.724 704.386C943.722 706.732 941.827 708.626 939.485 708.626Z" fill="#806EE3"/>
</g>
<g id="Group_22">
<path id="Vector_20" d="M939.485 683.187H895.002C892.661 683.187 890.766 681.293 890.766 678.949C890.766 676.605 892.661 674.709 895.002 674.709H939.487C941.829 674.709 943.724 676.605 943.724 678.949C943.724 681.293 941.827 683.187 939.485 683.187Z" fill="#806EE3"/>
</g>
<g id="Group_23">
<path id="Vector_21" d="M939.485 657.748H895.002C892.661 657.748 890.766 655.851 890.766 653.508C890.766 651.164 892.661 649.267 895.002 649.267H939.487C941.829 649.267 943.724 651.164 943.724 653.508C943.722 655.851 941.827 657.748 939.485 657.748Z" fill="#806EE3"/>
</g>
<g id="Group_24">
<path id="Vector_22" d="M939.485 632.309H895.002C892.661 632.309 890.766 630.412 890.766 628.069C890.766 625.725 892.661 623.828 895.002 623.828H939.487C941.829 623.828 943.724 625.725 943.724 628.069C943.722 630.412 941.827 632.309 939.485 632.309Z" fill="#806EE3"/>
</g>
</g>
</g>
<g id="process">
<path id="Vector_23" d="M1060.31 574H1013.32C1010.34 574 1008 576.339 1008 579.316V626.308C1008 629.285 1010.34 631.624 1013.32 631.624H1060.31C1063.29 631.624 1065.62 629.285 1065.62 626.308V579.316C1065.41 576.339 1063.07 574 1060.31 574Z" fill="#0893D6"/>
<path id="Vector_24" d="M1204.68 574H1157.69C1154.71 574 1152.38 576.339 1152.38 579.316V626.308C1152.38 629.285 1154.71 631.624 1157.69 631.624H1204.68C1207.66 631.624 1210 629.285 1210 626.308V579.316C1210 576.339 1207.66 574 1204.68 574Z" fill="#0893D6"/>
<path id="Vector_25" d="M1204.68 718.592H1157.69C1154.71 718.592 1152.38 720.931 1152.38 723.908V770.687C1152.38 773.664 1154.71 776.003 1157.69 776.003H1204.68C1207.66 776.003 1210 773.664 1210 770.687V723.695C1210 720.931 1207.66 718.592 1204.68 718.592Z" fill="#0893D6"/>
<path id="Vector_26" d="M1120.48 584.419C1118.36 582.293 1115.17 582.293 1113.04 584.419C1110.92 586.545 1110.92 589.735 1113.04 591.861L1118.57 597.39H1086.68C1083.7 597.39 1081.36 599.729 1081.36 602.706C1081.36 605.683 1083.7 608.022 1086.68 608.022H1118.78L1113.25 613.55C1111.13 615.676 1111.13 618.866 1113.25 620.992C1114.32 622.056 1115.59 622.481 1117.08 622.481C1118.36 622.481 1119.85 622.056 1120.91 620.992L1135.58 606.321C1137.71 604.194 1137.71 601.005 1135.58 598.878L1120.48 584.419Z" fill="#0893D6"/>
<path id="Vector_27" d="M1181.3 647.359C1178.32 647.359 1175.98 649.698 1175.98 652.675V684.783L1170.45 679.254C1168.32 677.128 1165.14 677.128 1163.01 679.254C1160.88 681.381 1160.88 684.57 1163.01 686.697L1177.68 701.368C1178.74 702.432 1180.02 702.857 1181.51 702.857C1183 702.857 1184.27 702.219 1185.34 701.368L1200.01 686.697C1202.13 684.57 1202.13 681.381 1200.01 679.254C1197.88 677.128 1194.69 677.128 1192.57 679.254L1187.04 684.783V652.675C1186.61 649.698 1184.06 647.359 1181.3 647.359Z" fill="#0893D6"/>
<path id="Vector_28" d="M1060.31 718.592H1013.32C1010.34 718.592 1008 720.931 1008 723.908V770.687C1008 773.664 1010.34 776.003 1013.32 776.003H1060.31C1063.29 776.003 1065.62 773.664 1065.62 770.687V723.695C1065.41 720.931 1063.07 718.592 1060.31 718.592Z" fill="#0893D6"/>
<path id="Vector_29" d="M1131.12 741.982H1099.01L1104.54 736.453C1106.66 734.327 1106.66 731.137 1104.54 729.011C1102.41 726.885 1099.22 726.885 1097.09 729.011L1082.42 743.683C1080.3 745.809 1080.3 748.999 1082.42 751.125L1097.09 765.797C1098.16 766.86 1099.43 767.285 1100.92 767.285C1102.2 767.285 1103.69 766.86 1104.75 765.797C1106.88 763.67 1106.88 760.481 1104.75 758.355L1099.22 752.826H1131.33C1134.31 752.826 1136.64 750.487 1136.64 747.51C1136.22 744.321 1133.88 741.982 1131.12 741.982Z" fill="#0893D6"/>
</g>
<g id="Android_robot" filter="url(#filter0_d)">
<g id="Group_25">
<g id="b-link">
<g id="b">
<path id="Oval" fill-rule="evenodd" clip-rule="evenodd" d="M1576.5 683.082C1621.66 683.082 1658.27 649.234 1658.27 607.482C1658.27 565.729 1621.66 531.882 1576.5 531.882C1531.34 531.882 1494.73 565.729 1494.73 607.482C1494.73 649.234 1531.34 683.082 1576.5 683.082Z" fill="#A4C639" stroke="white" stroke-width="12.96"/>
<rect id="Rectangle_2" x="1494.73" y="588.582" width="163.545" height="163.8" rx="19.8" fill="#A4C639" stroke="white" stroke-width="12.96"/>
</g>
</g>
<g id="a-link">
<g id="a">
<path id="Rectangle_3" fill-rule="evenodd" clip-rule="evenodd" d="M1530.87 514.114C1529.3 511.288 1525.74 510.267 1522.92 511.835C1520.1 513.4 1519.08 516.952 1520.64 519.773L1552.45 577.244C1554.01 580.07 1557.57 581.091 1560.4 579.523C1563.22 577.958 1564.23 574.406 1562.67 571.585L1530.87 514.114Z" fill="#A4C639" stroke="white" stroke-width="6.48"/>
<rect id="c" width="43.1329" height="119.7" rx="21.5664" transform="matrix(-1 0 0 1 1705 607.482)" fill="#A4C639" stroke="white" stroke-width="6.48"/>
<g id="c-link">
<rect id="c_2" width="43.1329" height="119.7" rx="21.5664" transform="matrix(-1 0 0 1 1628.62 694.782)" fill="#A4C639" stroke="white" stroke-width="6.48"/>
</g>
</g>
</g>
<g id="a_2">
<path id="Rectangle_4" fill-rule="evenodd" clip-rule="evenodd" d="M1622.13 514.114C1623.7 511.288 1627.26 510.267 1630.08 511.835C1632.9 513.4 1633.92 516.952 1632.36 519.773L1600.55 577.244C1598.99 580.07 1595.43 581.091 1592.6 579.523C1589.78 577.958 1588.77 574.406 1590.33 571.585L1622.13 514.114Z" fill="#A4C639" stroke="white" stroke-width="6.48"/>
<rect id="c_3" x="1448" y="607.482" width="43.1329" height="119.7" rx="21.5664" fill="#A4C639" stroke="white" stroke-width="6.48"/>
<g id="c-link_2">
<rect id="c_4" x="1524.38" y="694.782" width="43.1329" height="119.7" rx="21.5664" fill="#A4C639" stroke="white" stroke-width="6.48"/>
</g>
</g>
<g id="b_2">
<path id="Oval_2" fill-rule="evenodd" clip-rule="evenodd" d="M1576.5 683.082C1621.66 683.082 1658.27 649.234 1658.27 607.482C1658.27 565.729 1621.66 531.882 1576.5 531.882C1531.34 531.882 1494.73 565.729 1494.73 607.482C1494.73 649.234 1531.34 683.082 1576.5 683.082Z" fill="#A4C639"/>
<rect id="Rectangle_5" x="1494.73" y="588.582" width="163.545" height="163.8" rx="19.8" fill="#A4C639"/>
</g>
</g>
<g id="Group_26">
<g id="Path">
<path fill-rule="evenodd" clip-rule="evenodd" d="M1491.13 610.632H1661.87H1491.13Z" fill="white"/>
<path d="M1491.13 610.632H1661.87" stroke="white" stroke-width="6.48"/>
</g>
<path id="Oval_3" fill-rule="evenodd" clip-rule="evenodd" d="M1538.76 574.182C1540.74 574.182 1542.35 572.57 1542.35 570.582C1542.35 568.593 1540.74 566.982 1538.76 566.982C1536.77 566.982 1535.16 568.593 1535.16 570.582C1535.16 572.57 1536.77 574.182 1538.76 574.182Z" fill="white" stroke="white" stroke-width="6.48"/>
<path id="Oval_4" fill-rule="evenodd" clip-rule="evenodd" d="M1614.24 574.182C1616.23 574.182 1617.84 572.57 1617.84 570.582C1617.84 568.593 1616.23 566.982 1614.24 566.982C1612.26 566.982 1610.65 568.593 1610.65 570.582C1610.65 572.57 1612.26 574.182 1614.24 574.182Z" fill="white" stroke="white" stroke-width="6.48"/>
</g>
</g>
<path id="Java vs Kotlin" d="M395.049 348H379.149L341.199 296.85L330.249 306.45V348H316.749V240.9H330.249V293.7C333.249 290.3 336.299 286.9 339.399 283.5C342.499 280.1 345.599 276.7 348.699 273.3L377.649 240.9H393.399L350.949 287.55L395.049 348ZM477.72 307.65C477.72 320.95 474.32 331.25 467.52 338.55C460.82 345.85 451.72 349.5 440.22 349.5C433.12 349.5 426.77 347.9 421.17 344.7C415.67 341.4 411.32 336.65 408.12 330.45C404.92 324.15 403.32 316.55 403.32 307.65C403.32 294.35 406.67 284.1 413.37 276.9C420.07 269.7 429.17 266.1 440.67 266.1C447.97 266.1 454.37 267.75 459.87 271.05C465.47 274.25 469.82 278.95 472.92 285.15C476.12 291.25 477.72 298.75 477.72 307.65ZM416.97 307.65C416.97 317.15 418.82 324.7 422.52 330.3C426.32 335.8 432.32 338.55 440.52 338.55C448.62 338.55 454.57 335.8 458.37 330.3C462.17 324.7 464.07 317.15 464.07 307.65C464.07 298.15 462.17 290.7 458.37 285.3C454.57 279.9 448.57 277.2 440.37 277.2C432.17 277.2 426.22 279.9 422.52 285.3C418.82 290.7 416.97 298.15 416.97 307.65ZM525.491 338.7C527.491 338.7 529.541 338.55 531.641 338.25C533.741 337.85 535.441 337.45 536.741 337.05V347.1C535.341 347.8 533.341 348.35 530.741 348.75C528.141 349.25 525.641 349.5 523.241 349.5C519.041 349.5 515.141 348.8 511.541 347.4C508.041 345.9 505.191 343.35 502.991 339.75C500.791 336.15 499.691 331.1 499.691 324.6V277.8H488.291V271.5L499.841 266.25L505.091 249.15H512.891V267.6H536.141V277.8H512.891V324.3C512.891 329.2 514.041 332.85 516.341 335.25C518.741 337.55 521.791 338.7 525.491 338.7ZM566.04 348H552.84V234H566.04V348ZM598.262 237.45C600.262 237.45 602.012 238.15 603.512 239.55C605.112 240.85 605.912 242.95 605.912 245.85C605.912 248.65 605.112 250.75 603.512 252.15C602.012 253.55 600.262 254.25 598.262 254.25C596.062 254.25 594.212 253.55 592.712 252.15C591.212 250.75 590.462 248.65 590.462 245.85C590.462 242.95 591.212 240.85 592.712 239.55C594.212 238.15 596.062 237.45 598.262 237.45ZM604.712 267.6V348H591.512V267.6H604.712ZM668.884 266.1C678.484 266.1 685.734 268.45 690.634 273.15C695.534 277.75 697.984 285.25 697.984 295.65V348H684.934V296.55C684.934 283.65 678.934 277.2 666.934 277.2C658.034 277.2 651.884 279.7 648.484 284.7C645.084 289.7 643.384 296.9 643.384 306.3V348H630.184V267.6H640.834L642.784 278.55H643.534C646.134 274.35 649.734 271.25 654.334 269.25C658.934 267.15 663.784 266.1 668.884 266.1ZM792.323 266.25C802.123 266.25 809.373 268.4 814.073 272.7C818.773 277 821.123 283.85 821.123 293.25V348H811.523L808.973 336.6H808.373C804.873 341 801.173 344.25 797.273 346.35C793.473 348.45 788.173 349.5 781.373 349.5C774.073 349.5 768.023 347.6 763.223 343.8C758.423 339.9 756.023 333.85 756.023 325.65C756.023 317.65 759.173 311.5 765.473 307.2C771.773 302.8 781.473 300.4 794.573 300L808.223 299.55V294.75C808.223 288.05 806.773 283.4 803.873 280.8C800.973 278.2 796.873 276.9 791.573 276.9C787.373 276.9 783.373 277.55 779.573 278.85C775.773 280.05 772.223 281.45 768.923 283.05L764.873 273.15C768.373 271.25 772.523 269.65 777.323 268.35C782.123 266.95 787.123 266.25 792.323 266.25ZM808.073 308.7L796.223 309.15C786.223 309.55 779.273 311.15 775.373 313.95C771.573 316.75 769.673 320.7 769.673 325.8C769.673 330.3 771.023 333.6 773.723 335.7C776.523 337.8 780.073 338.85 784.373 338.85C791.173 338.85 796.823 337 801.323 333.3C805.823 329.5 808.073 323.7 808.073 315.9V308.7ZM884.655 266.1C894.255 266.1 901.505 268.45 906.405 273.15C911.305 277.75 913.755 285.25 913.755 295.65V348H900.705V296.55C900.705 283.65 894.705 277.2 882.705 277.2C873.805 277.2 867.655 279.7 864.255 284.7C860.855 289.7 859.155 296.9 859.155 306.3V348H845.955V267.6H856.605L858.555 278.55H859.305C861.905 274.35 865.505 271.25 870.105 269.25C874.705 267.15 879.555 266.1 884.655 266.1ZM967.18 349.5C957.18 349.5 949.18 346.05 943.18 339.15C937.18 332.15 934.18 321.75 934.18 307.95C934.18 294.15 937.18 283.75 943.18 276.75C949.28 269.65 957.33 266.1 967.33 266.1C973.53 266.1 978.58 267.25 982.48 269.55C986.48 271.85 989.73 274.65 992.23 277.95H993.13C993.03 276.65 992.83 274.75 992.53 272.25C992.33 269.65 992.23 267.6 992.23 266.1V234H1005.43V348H994.78L992.83 337.2H992.23C989.83 340.6 986.63 343.5 982.63 345.9C978.63 348.3 973.48 349.5 967.18 349.5ZM969.28 338.55C977.78 338.55 983.73 336.25 987.13 331.65C990.63 326.95 992.38 319.9 992.38 310.5V308.1C992.38 298.1 990.73 290.45 987.43 285.15C984.13 279.75 978.03 277.05 969.13 277.05C962.03 277.05 956.68 279.9 953.08 285.6C949.58 291.2 947.83 298.75 947.83 308.25C947.83 317.85 949.58 325.3 953.08 330.6C956.68 335.9 962.08 338.55 969.28 338.55ZM1138.93 348L1126.03 314.85H1083.58L1070.83 348H1057.18L1099.03 240.45H1111.18L1152.88 348H1138.93ZM1121.98 302.85L1109.98 270.45C1109.68 269.65 1109.18 268.2 1108.48 266.1C1107.78 264 1107.08 261.85 1106.38 259.65C1105.78 257.35 1105.28 255.6 1104.88 254.4C1104.18 257.5 1103.38 260.55 1102.48 263.55C1101.58 266.45 1100.83 268.75 1100.23 270.45L1088.08 302.85H1121.98ZM1204.43 266.1C1214.03 266.1 1221.28 268.45 1226.18 273.15C1231.08 277.75 1233.53 285.25 1233.53 295.65V348H1220.48V296.55C1220.48 283.65 1214.48 277.2 1202.48 277.2C1193.58 277.2 1187.43 279.7 1184.03 284.7C1180.63 289.7 1178.93 296.9 1178.93 306.3V348H1165.73V267.6H1176.38L1178.33 278.55H1179.08C1181.68 274.35 1185.28 271.25 1189.88 269.25C1194.48 267.15 1199.33 266.1 1204.43 266.1ZM1286.96 349.5C1276.96 349.5 1268.96 346.05 1262.96 339.15C1256.96 332.15 1253.96 321.75 1253.96 307.95C1253.96 294.15 1256.96 283.75 1262.96 276.75C1269.06 269.65 1277.11 266.1 1287.11 266.1C1293.31 266.1 1298.36 267.25 1302.26 269.55C1306.26 271.85 1309.51 274.65 1312.01 277.95H1312.91C1312.81 276.65 1312.61 274.75 1312.31 272.25C1312.11 269.65 1312.01 267.6 1312.01 266.1V234H1325.21V348H1314.56L1312.61 337.2H1312.01C1309.61 340.6 1306.41 343.5 1302.41 345.9C1298.41 348.3 1293.26 349.5 1286.96 349.5ZM1289.06 338.55C1297.56 338.55 1303.51 336.25 1306.91 331.65C1310.41 326.95 1312.16 319.9 1312.16 310.5V308.1C1312.16 298.1 1310.51 290.45 1307.21 285.15C1303.91 279.75 1297.81 277.05 1288.91 277.05C1281.81 277.05 1276.46 279.9 1272.86 285.6C1269.36 291.2 1267.61 298.75 1267.61 308.25C1267.61 317.85 1269.36 325.3 1272.86 330.6C1276.46 335.9 1281.86 338.55 1289.06 338.55ZM1388.24 266.1C1389.74 266.1 1391.34 266.2 1393.04 266.4C1394.84 266.5 1396.39 266.7 1397.69 267L1396.04 279.15C1394.74 278.85 1393.29 278.6 1391.69 278.4C1390.19 278.2 1388.74 278.1 1387.34 278.1C1383.24 278.1 1379.39 279.25 1375.79 281.55C1372.19 283.75 1369.29 286.9 1367.09 291C1364.99 295 1363.94 299.7 1363.94 305.1V348H1350.74V267.6H1361.54L1363.04 282.3H1363.64C1366.24 277.9 1369.59 274.1 1373.69 270.9C1377.79 267.7 1382.64 266.1 1388.24 266.1ZM1479.67 307.65C1479.67 320.95 1476.27 331.25 1469.47 338.55C1462.77 345.85 1453.67 349.5 1442.17 349.5C1435.07 349.5 1428.72 347.9 1423.12 344.7C1417.62 341.4 1413.27 336.65 1410.07 330.45C1406.87 324.15 1405.27 316.55 1405.27 307.65C1405.27 294.35 1408.62 284.1 1415.32 276.9C1422.02 269.7 1431.12 266.1 1442.62 266.1C1449.92 266.1 1456.32 267.75 1461.82 271.05C1467.42 274.25 1471.77 278.95 1474.87 285.15C1478.07 291.25 1479.67 298.75 1479.67 307.65ZM1418.92 307.65C1418.92 317.15 1420.77 324.7 1424.47 330.3C1428.27 335.8 1434.27 338.55 1442.47 338.55C1450.57 338.55 1456.52 335.8 1460.32 330.3C1464.12 324.7 1466.02 317.15 1466.02 307.65C1466.02 298.15 1464.12 290.7 1460.32 285.3C1456.52 279.9 1450.52 277.2 1442.32 277.2C1434.12 277.2 1428.17 279.9 1424.47 285.3C1420.77 290.7 1418.92 298.15 1418.92 307.65ZM1507.34 237.45C1509.34 237.45 1511.09 238.15 1512.59 239.55C1514.19 240.85 1514.99 242.95 1514.99 245.85C1514.99 248.65 1514.19 250.75 1512.59 252.15C1511.09 253.55 1509.34 254.25 1507.34 254.25C1505.14 254.25 1503.29 253.55 1501.79 252.15C1500.29 250.75 1499.54 248.65 1499.54 245.85C1499.54 242.95 1500.29 240.85 1501.79 239.55C1503.29 238.15 1505.14 237.45 1507.34 237.45ZM1513.79 267.6V348H1500.59V267.6H1513.79ZM1567.77 349.5C1557.77 349.5 1549.77 346.05 1543.77 339.15C1537.77 332.15 1534.77 321.75 1534.77 307.95C1534.77 294.15 1537.77 283.75 1543.77 276.75C1549.87 269.65 1557.92 266.1 1567.92 266.1C1574.12 266.1 1579.17 267.25 1583.07 269.55C1587.07 271.85 1590.32 274.65 1592.82 277.95H1593.72C1593.62 276.65 1593.42 274.75 1593.12 272.25C1592.92 269.65 1592.82 267.6 1592.82 266.1V234H1606.02V348H1595.37L1593.42 337.2H1592.82C1590.42 340.6 1587.22 343.5 1583.22 345.9C1579.22 348.3 1574.07 349.5 1567.77 349.5ZM1569.87 338.55C1578.37 338.55 1584.32 336.25 1587.72 331.65C1591.22 326.95 1592.97 319.9 1592.97 310.5V308.1C1592.97 298.1 1591.32 290.45 1588.02 285.15C1584.72 279.75 1578.62 277.05 1569.72 277.05C1562.62 277.05 1557.27 279.9 1553.67 285.6C1550.17 291.2 1548.42 298.75 1548.42 308.25C1548.42 317.85 1550.17 325.3 1553.67 330.6C1557.27 335.9 1562.67 338.55 1569.87 338.55Z" fill="#61DAFB"/>
<path id="Android development" d="M534.069 179L527.189 161.32H504.549L497.749 179H490.469L512.789 121.64H519.269L541.509 179H534.069ZM525.029 154.92L518.629 137.64C518.469 137.213 518.202 136.44 517.829 135.32C517.455 134.2 517.082 133.053 516.709 131.88C516.389 130.653 516.122 129.72 515.909 129.08C515.535 130.733 515.109 132.36 514.629 133.96C514.149 135.507 513.749 136.733 513.429 137.64L506.949 154.92H525.029ZM569.003 135.32C574.123 135.32 577.989 136.573 580.603 139.08C583.216 141.533 584.523 145.533 584.523 151.08V179H577.563V151.56C577.563 144.68 574.363 141.24 567.963 141.24C563.216 141.24 559.936 142.573 558.123 145.24C556.309 147.907 555.403 151.747 555.403 156.76V179H548.363V136.12H554.043L555.083 141.96H555.483C556.869 139.72 558.789 138.067 561.243 137C563.696 135.88 566.283 135.32 569.003 135.32ZM618.456 135.32C623.576 135.32 627.442 136.573 630.056 139.08C632.669 141.533 633.976 145.533 633.976 151.08V179H627.016V151.56C627.016 144.68 623.816 141.24 617.416 141.24C612.669 141.24 609.389 142.573 607.576 145.24C605.762 147.907 604.856 151.747 604.856 156.76V179H597.816V136.12H603.496L604.536 141.96H604.936C606.322 139.72 608.242 138.067 610.696 137C613.149 135.88 615.736 135.32 618.456 135.32ZM684.549 157.48C684.549 164.573 682.735 170.067 679.109 173.96C675.535 177.853 670.682 179.8 664.549 179.8C660.762 179.8 657.375 178.947 654.389 177.24C651.455 175.48 649.135 172.947 647.429 169.64C645.722 166.28 644.869 162.227 644.869 157.48C644.869 150.387 646.655 144.92 650.229 141.08C653.802 137.24 658.655 135.32 664.789 135.32C668.682 135.32 672.095 136.2 675.029 137.96C678.015 139.667 680.335 142.173 681.989 145.48C683.695 148.733 684.549 152.733 684.549 157.48ZM652.149 157.48C652.149 162.547 653.135 166.573 655.109 169.56C657.135 172.493 660.335 173.96 664.709 173.96C669.029 173.96 672.202 172.493 674.229 169.56C676.255 166.573 677.269 162.547 677.269 157.48C677.269 152.413 676.255 148.44 674.229 145.56C672.202 142.68 669.002 141.24 664.629 141.24C660.255 141.24 657.082 142.68 655.109 145.56C653.135 148.44 652.149 152.413 652.149 157.48ZM710.026 174.04C711.093 174.04 712.186 173.96 713.306 173.8C714.426 173.587 715.333 173.373 716.026 173.16V178.52C715.28 178.893 714.213 179.187 712.826 179.4C711.44 179.667 710.106 179.8 708.826 179.8C706.586 179.8 704.506 179.427 702.586 178.68C700.72 177.88 699.2 176.52 698.026 174.6C696.853 172.68 696.266 169.987 696.266 166.52V141.56H690.186V138.2L696.346 135.4L699.146 126.28H703.306V136.12H715.706V141.56H703.306V166.36C703.306 168.973 703.92 170.92 705.146 172.2C706.426 173.427 708.053 174.04 710.026 174.04ZM740.853 135.4C746.079 135.4 749.946 136.547 752.453 138.84C754.959 141.133 756.213 144.787 756.213 149.8V179H751.093L749.733 172.92H749.413C747.546 175.267 745.573 177 743.493 178.12C741.466 179.24 738.639 179.8 735.013 179.8C731.119 179.8 727.893 178.787 725.333 176.76C722.773 174.68 721.493 171.453 721.493 167.08C721.493 162.813 723.173 159.533 726.533 157.24C729.893 154.893 735.066 153.613 742.053 153.4L749.333 153.16V150.6C749.333 147.027 748.559 144.547 747.013 143.16C745.466 141.773 743.279 141.08 740.453 141.08C738.213 141.08 736.079 141.427 734.053 142.12C732.026 142.76 730.133 143.507 728.372 144.36L726.213 139.08C728.079 138.067 730.293 137.213 732.853 136.52C735.413 135.773 738.079 135.4 740.853 135.4ZM749.253 158.04L742.933 158.28C737.599 158.493 733.893 159.347 731.813 160.84C729.786 162.333 728.773 164.44 728.773 167.16C728.773 169.56 729.493 171.32 730.933 172.44C732.426 173.56 734.319 174.12 736.613 174.12C740.239 174.12 743.253 173.133 745.653 171.16C748.053 169.133 749.253 166.04 749.253 161.88V158.04ZM783.776 174.04C784.843 174.04 785.936 173.96 787.056 173.8C788.176 173.587 789.083 173.373 789.776 173.16V178.52C789.03 178.893 787.963 179.187 786.576 179.4C785.19 179.667 783.856 179.8 782.576 179.8C780.336 179.8 778.256 179.427 776.336 178.68C774.47 177.88 772.95 176.52 771.776 174.6C770.603 172.68 770.016 169.987 770.016 166.52V141.56H763.936V138.2L770.096 135.4L772.896 126.28H777.056V136.12H789.456V141.56H777.056V166.36C777.056 168.973 777.67 170.92 778.896 172.2C780.176 173.427 781.803 174.04 783.776 174.04ZM801.963 120.04C803.029 120.04 803.963 120.413 804.763 121.16C805.616 121.853 806.043 122.973 806.043 124.52C806.043 126.013 805.616 127.133 804.763 127.88C803.963 128.627 803.029 129 801.963 129C800.789 129 799.803 128.627 799.003 127.88C798.203 127.133 797.803 126.013 797.803 124.52C797.803 122.973 798.203 121.853 799.003 121.16C799.803 120.413 800.789 120.04 801.963 120.04ZM805.403 136.12V179H798.363V136.12H805.403ZM856.267 157.48C856.267 164.573 854.454 170.067 850.828 173.96C847.254 177.853 842.401 179.8 836.268 179.8C832.481 179.8 829.094 178.947 826.108 177.24C823.174 175.48 820.854 172.947 819.148 169.64C817.441 166.28 816.588 162.227 816.588 157.48C816.588 150.387 818.374 144.92 821.948 141.08C825.521 137.24 830.374 135.32 836.508 135.32C840.401 135.32 843.814 136.2 846.748 137.96C849.734 139.667 852.054 142.173 853.708 145.48C855.414 148.733 856.267 152.733 856.267 157.48ZM823.868 157.48C823.868 162.547 824.854 166.573 826.828 169.56C828.854 172.493 832.054 173.96 836.428 173.96C840.748 173.96 843.921 172.493 845.948 169.56C847.974 166.573 848.988 162.547 848.988 157.48C848.988 152.413 847.974 148.44 845.948 145.56C843.921 142.68 840.721 141.24 836.348 141.24C831.974 141.24 828.801 142.68 826.828 145.56C824.854 148.44 823.868 152.413 823.868 157.48ZM888.065 135.32C893.185 135.32 897.052 136.573 899.665 139.08C902.278 141.533 903.585 145.533 903.585 151.08V179H896.625V151.56C896.625 144.68 893.425 141.24 887.025 141.24C882.278 141.24 878.998 142.573 877.185 145.24C875.372 147.907 874.465 151.747 874.465 156.76V179H867.425V136.12H873.105L874.145 141.96H874.545C875.932 139.72 877.852 138.067 880.305 137C882.758 135.88 885.345 135.32 888.065 135.32ZM953.739 121.88C961.206 121.88 966.646 123.347 970.059 126.28C973.473 129.213 975.179 133.347 975.179 138.68C975.179 141.827 974.459 144.787 973.019 147.56C971.633 150.28 969.259 152.493 965.899 154.2C962.593 155.907 958.086 156.76 952.379 156.76H945.819V179H938.619V121.88H953.739ZM953.099 128.04H945.819V150.6H951.579C957.019 150.6 961.073 149.72 963.739 147.96C966.406 146.2 967.739 143.213 967.739 139C967.739 135.32 966.566 132.573 964.219 130.76C961.873 128.947 958.166 128.04 953.099 128.04ZM1006.1 135.32C1006.9 135.32 1007.75 135.373 1008.66 135.48C1009.62 135.533 1010.44 135.64 1011.14 135.8L1010.26 142.28C1009.56 142.12 1008.79 141.987 1007.94 141.88C1007.14 141.773 1006.36 141.72 1005.62 141.72C1003.43 141.72 1001.38 142.333 999.457 143.56C997.537 144.733 995.99 146.413 994.817 148.6C993.697 150.733 993.137 153.24 993.137 156.12V179H986.097V136.12H991.857L992.657 143.96H992.977C994.364 141.613 996.15 139.587 998.337 137.88C1000.52 136.173 1003.11 135.32 1006.1 135.32ZM1054.86 157.48C1054.86 164.573 1053.05 170.067 1049.42 173.96C1045.85 177.853 1040.99 179.8 1034.86 179.8C1031.07 179.8 1027.69 178.947 1024.7 177.24C1021.77 175.48 1019.45 172.947 1017.74 169.64C1016.03 166.28 1015.18 162.227 1015.18 157.48C1015.18 150.387 1016.97 144.92 1020.54 141.08C1024.11 137.24 1028.97 135.32 1035.1 135.32C1038.99 135.32 1042.41 136.2 1045.34 137.96C1048.33 139.667 1050.65 142.173 1052.3 145.48C1054.01 148.733 1054.86 152.733 1054.86 157.48ZM1022.46 157.48C1022.46 162.547 1023.45 166.573 1025.42 169.56C1027.45 172.493 1030.65 173.96 1035.02 173.96C1039.34 173.96 1042.51 172.493 1044.54 169.56C1046.57 166.573 1047.58 162.547 1047.58 157.48C1047.58 152.413 1046.57 148.44 1044.54 145.56C1042.51 142.68 1039.31 141.24 1034.94 141.24C1030.57 141.24 1027.39 142.68 1025.42 145.56C1023.45 148.44 1022.46 152.413 1022.46 157.48ZM1083.22 179.8C1079.43 179.8 1076.05 179.027 1073.06 177.48C1070.13 175.933 1067.81 173.533 1066.1 170.28C1064.45 167.027 1063.62 162.867 1063.62 157.8C1063.62 152.52 1064.5 148.227 1066.26 144.92C1068.02 141.613 1070.39 139.187 1073.38 137.64C1076.42 136.093 1079.86 135.32 1083.7 135.32C1085.89 135.32 1087.99 135.56 1090.02 136.04C1092.05 136.467 1093.7 137 1094.98 137.64L1092.82 143.48C1091.54 143 1090.05 142.547 1088.34 142.12C1086.63 141.693 1085.03 141.48 1083.54 141.48C1075.11 141.48 1070.9 146.893 1070.9 157.72C1070.9 162.893 1071.91 166.867 1073.94 169.64C1076.02 172.36 1079.09 173.72 1083.14 173.72C1085.49 173.72 1087.54 173.48 1089.3 173C1091.11 172.52 1092.77 171.933 1094.26 171.24V177.48C1092.82 178.227 1091.22 178.787 1089.46 179.16C1087.75 179.587 1085.67 179.8 1083.22 179.8ZM1121.02 135.32C1124.7 135.32 1127.84 136.12 1130.46 137.72C1133.12 139.32 1135.15 141.587 1136.54 144.52C1137.98 147.4 1138.7 150.787 1138.7 154.68V158.92H1109.34C1109.44 163.773 1110.67 167.48 1113.02 170.04C1115.42 172.547 1118.75 173.8 1123.02 173.8C1125.74 173.8 1128.14 173.56 1130.22 173.08C1132.35 172.547 1134.54 171.8 1136.78 170.84V177C1134.59 177.96 1132.43 178.653 1130.3 179.08C1128.16 179.56 1125.63 179.8 1122.7 179.8C1118.64 179.8 1115.04 178.973 1111.9 177.32C1108.8 175.667 1106.38 173.213 1104.62 169.96C1102.91 166.653 1102.06 162.627 1102.06 157.88C1102.06 153.187 1102.83 149.16 1104.38 145.8C1105.98 142.44 1108.19 139.853 1111.02 138.04C1113.9 136.227 1117.23 135.32 1121.02 135.32ZM1120.94 141.08C1117.58 141.08 1114.91 142.173 1112.94 144.36C1111.02 146.493 1109.87 149.48 1109.5 153.32H1131.34C1131.28 149.693 1130.43 146.76 1128.78 144.52C1127.12 142.227 1124.51 141.08 1120.94 141.08ZM1177.53 167.16C1177.53 171.32 1175.99 174.467 1172.89 176.6C1169.8 178.733 1165.64 179.8 1160.41 179.8C1157.43 179.8 1154.84 179.56 1152.65 179.08C1150.52 178.6 1148.63 177.933 1146.97 177.08V170.68C1148.68 171.533 1150.73 172.333 1153.13 173.08C1155.59 173.773 1158.07 174.12 1160.57 174.12C1164.15 174.12 1166.73 173.56 1168.33 172.44C1169.93 171.267 1170.73 169.72 1170.73 167.8C1170.73 166.733 1170.44 165.773 1169.85 164.92C1169.27 164.067 1168.2 163.213 1166.65 162.36C1165.16 161.507 1163 160.547 1160.17 159.48C1157.4 158.413 1155.03 157.347 1153.05 156.28C1151.08 155.213 1149.56 153.933 1148.49 152.44C1147.43 150.947 1146.89 149.027 1146.89 146.68C1146.89 143.053 1148.36 140.253 1151.29 138.28C1154.28 136.307 1158.17 135.32 1162.97 135.32C1165.59 135.32 1168.01 135.587 1170.25 136.12C1172.55 136.6 1174.68 137.293 1176.65 138.2L1174.25 143.8C1172.44 143.053 1170.55 142.413 1168.57 141.88C1166.6 141.347 1164.57 141.08 1162.49 141.08C1159.61 141.08 1157.4 141.56 1155.85 142.52C1154.36 143.427 1153.61 144.68 1153.61 146.28C1153.61 147.453 1153.96 148.467 1154.65 149.32C1155.35 150.12 1156.49 150.92 1158.09 151.72C1159.75 152.467 1161.93 153.373 1164.65 154.44C1167.37 155.453 1169.69 156.493 1171.61 157.56C1173.53 158.627 1175 159.933 1176.01 161.48C1177.03 162.973 1177.53 164.867 1177.53 167.16ZM1215.81 167.16C1215.81 171.32 1214.27 174.467 1211.17 176.6C1208.08 178.733 1203.92 179.8 1198.69 179.8C1195.71 179.8 1193.12 179.56 1190.93 179.08C1188.8 178.6 1186.91 177.933 1185.25 177.08V170.68C1186.96 171.533 1189.01 172.333 1191.41 173.08C1193.87 173.773 1196.35 174.12 1198.85 174.12C1202.43 174.12 1205.01 173.56 1206.61 172.44C1208.21 171.267 1209.01 169.72 1209.01 167.8C1209.01 166.733 1208.72 165.773 1208.13 164.92C1207.55 164.067 1206.48 163.213 1204.93 162.36C1203.44 161.507 1201.28 160.547 1198.45 159.48C1195.68 158.413 1193.31 157.347 1191.33 156.28C1189.36 155.213 1187.84 153.933 1186.77 152.44C1185.71 150.947 1185.17 149.027 1185.17 146.68C1185.17 143.053 1186.64 140.253 1189.57 138.28C1192.56 136.307 1196.45 135.32 1201.25 135.32C1203.87 135.32 1206.29 135.587 1208.53 136.12C1210.83 136.6 1212.96 137.293 1214.93 138.2L1212.53 143.8C1210.72 143.053 1208.83 142.413 1206.85 141.88C1204.88 141.347 1202.85 141.08 1200.77 141.08C1197.89 141.08 1195.68 141.56 1194.13 142.52C1192.64 143.427 1191.89 144.68 1191.89 146.28C1191.89 147.453 1192.24 148.467 1192.93 149.32C1193.63 150.12 1194.77 150.92 1196.37 151.72C1198.03 152.467 1200.21 153.373 1202.93 154.44C1205.65 155.453 1207.97 156.493 1209.89 157.56C1211.81 158.627 1213.28 159.933 1214.29 161.48C1215.31 162.973 1215.81 164.867 1215.81 167.16ZM1229.78 120.04C1230.84 120.04 1231.78 120.413 1232.58 121.16C1233.43 121.853 1233.86 122.973 1233.86 124.52C1233.86 126.013 1233.43 127.133 1232.58 127.88C1231.78 128.627 1230.84 129 1229.78 129C1228.6 129 1227.62 128.627 1226.82 127.88C1226.02 127.133 1225.62 126.013 1225.62 124.52C1225.62 122.973 1226.02 121.853 1226.82 121.16C1227.62 120.413 1228.6 120.04 1229.78 120.04ZM1233.22 136.12V179H1226.18V136.12H1233.22ZM1267.44 135.32C1272.56 135.32 1276.43 136.573 1279.04 139.08C1281.65 141.533 1282.96 145.533 1282.96 151.08V179H1276V151.56C1276 144.68 1272.8 141.24 1266.4 141.24C1261.65 141.24 1258.37 142.573 1256.56 145.24C1254.75 147.907 1253.84 151.747 1253.84 156.76V179H1246.8V136.12H1252.48L1253.52 141.96H1253.92C1255.31 139.72 1257.23 138.067 1259.68 137C1262.13 135.88 1264.72 135.32 1267.44 135.32ZM1311.45 135.32C1314.28 135.32 1316.81 135.853 1319.05 136.92C1321.35 137.987 1323.29 139.613 1324.89 141.8H1325.29L1326.25 136.12H1331.85V179.72C1331.85 185.853 1330.28 190.467 1327.13 193.56C1324.04 196.653 1319.21 198.2 1312.65 198.2C1306.36 198.2 1301.21 197.293 1297.21 195.48V189C1301.43 191.24 1306.71 192.36 1313.05 192.36C1316.73 192.36 1319.61 191.267 1321.69 189.08C1323.83 186.947 1324.89 184.013 1324.89 180.28V178.6C1324.89 177.96 1324.92 177.053 1324.97 175.88C1325.03 174.653 1325.08 173.8 1325.13 173.32H1324.81C1321.93 177.64 1317.51 179.8 1311.53 179.8C1305.99 179.8 1301.64 177.853 1298.49 173.96C1295.4 170.067 1293.85 164.627 1293.85 157.64C1293.85 150.813 1295.4 145.4 1298.49 141.4C1301.64 137.347 1305.96 135.32 1311.45 135.32ZM1312.41 141.24C1308.84 141.24 1306.07 142.68 1304.09 145.56C1302.12 148.387 1301.13 152.44 1301.13 157.72C1301.13 163 1302.09 167.053 1304.01 169.88C1305.99 172.653 1308.84 174.04 1312.57 174.04C1316.89 174.04 1320.04 172.893 1322.01 170.6C1323.99 168.253 1324.97 164.493 1324.97 159.32V157.64C1324.97 151.773 1323.96 147.587 1321.93 145.08C1319.91 142.52 1316.73 141.24 1312.41 141.24ZM1369.85 120.04C1370.92 120.04 1371.85 120.413 1372.65 121.16C1373.51 121.853 1373.93 122.973 1373.93 124.52C1373.93 126.013 1373.51 127.133 1372.65 127.88C1371.85 128.627 1370.92 129 1369.85 129C1368.68 129 1367.69 128.627 1366.89 127.88C1366.09 127.133 1365.69 126.013 1365.69 124.52C1365.69 122.973 1366.09 121.853 1366.89 121.16C1367.69 120.413 1368.68 120.04 1369.85 120.04ZM1373.29 136.12V179H1366.25V136.12H1373.29ZM1407.52 135.32C1412.64 135.32 1416.5 136.573 1419.12 139.08C1421.73 141.533 1423.04 145.533 1423.04 151.08V179H1416.08V151.56C1416.08 144.68 1412.88 141.24 1406.48 141.24C1401.73 141.24 1398.45 142.573 1396.64 145.24C1394.82 147.907 1393.92 151.747 1393.92 156.76V179H1386.88V136.12H1392.56L1393.6 141.96H1394C1395.38 139.72 1397.3 138.067 1399.76 137C1402.21 135.88 1404.8 135.32 1407.52 135.32Z" fill="#9B9B9B"/>
<g id="code-file">
<path id="Vector_30" d="M358.609 714.81V725.661C358.609 729.278 357.256 732.443 354.55 735.156L347.785 741.938L354.55 749.172C357.256 751.433 358.609 755.05 358.609 758.667V769.066C358.609 779.013 366.727 787.151 376.648 787.151H383.864V778.108H376.648C371.688 778.108 367.629 774.039 367.629 769.066V758.215C367.629 752.337 364.923 746.459 360.864 742.39L360.413 741.938L360.864 741.034C365.374 736.964 367.629 731.087 367.629 725.209V714.81C367.629 709.837 371.688 705.767 376.648 705.767H383.864V696.725H376.648C366.727 696.725 358.609 704.863 358.609 714.81Z" fill="#0893D6"/>
<path id="Vector_31" d="M427.162 725.209V714.81C427.162 704.863 419.044 696.725 409.122 696.725H401.906V705.767H409.122C414.083 705.767 418.142 709.837 418.142 714.81V726.113C418.142 731.991 420.848 737.869 424.907 741.938L425.358 742.39L424.907 742.842C420.397 746.911 418.142 752.789 418.142 758.667V769.066C418.142 774.039 414.083 778.108 409.122 778.108H401.906V787.151H409.122C419.044 787.151 427.162 779.013 427.162 769.066V758.215C427.162 754.598 428.515 751.433 431.221 748.72L437.985 741.938L431.221 734.704C428.515 732.443 427.162 728.826 427.162 725.209Z" fill="#0893D6"/>
<path id="Vector_32" d="M422.202 543H257.59V597.256H239.551V678.639H257.59V814.279H465.046V600.421L422.202 543ZM424.457 561.085L451.516 597.256H424.457V561.085ZM248.571 606.298H352.298V669.597H248.571V606.298ZM266.61 805.236V678.639H361.318V597.256H266.61V552.043H415.437V606.298H456.026V805.236H266.61Z" fill="#0893D6"/>
<g id="Kotlin-logo" filter="url(#filter1_d)">
<path id="XMLID_2_" d="M274.965 666.704L303.68 637.989L332.204 666.704H274.965Z" fill="url(#paint1_linear)"/>
<path id="Shape" d="M274.965 609.465H303.68L274.965 640.47V609.465Z" fill="url(#paint2_linear)"/>
<path id="Shape_2" d="M303.68 609.465L274.965 639.706V666.704L303.68 637.989L332.204 609.465H303.68Z" fill="url(#paint3_linear)"/>
</g>
</g>
</g>
<defs>
<filter id="filter0_d" x="1440.76" y="505.858" width="271.48" height="317.863" filterUnits="userSpaceOnUse" color-interpolation-filters="sRGB">
<feFlood flood-opacity="0" result="BackgroundImageFix"/>
<feColorMatrix in="SourceAlpha" type="matrix" values="0 0 0 0 0 0 0 0 0 0 0 0 0 0 0 0 0 0 127 0"/>
<feOffset dy="2"/>
<feGaussianBlur stdDeviation="2"/>
<feColorMatrix type="matrix" values="0 0 0 0 0 0 0 0 0 0 0 0 0 0 0 0 0 0 0.5 0"/>
<feBlend mode="normal" in2="BackgroundImageFix" result="effect1_dropShadow"/>
<feBlend mode="normal" in="SourceGraphic" in2="effect1_dropShadow" result="shape"/>
</filter>
<filter id="filter1_d" x="258.965" y="593.465" width="111.24" height="111.24" filterUnits="userSpaceOnUse" color-interpolation-filters="sRGB">
<feFlood flood-opacity="0" result="BackgroundImageFix"/>
<feColorMatrix in="SourceAlpha" type="matrix" values="0 0 0 0 0 0 0 0 0 0 0 0 0 0 0 0 0 0 127 0"/>
<feOffset dx="11" dy="11"/>
<feGaussianBlur stdDeviation="13.5"/>
<feColorMatrix type="matrix" values="0 0 0 0 0 0 0 0 0 0 0 0 0 0 0 0 0 0 0.5 0"/>
<feBlend mode="normal" in2="BackgroundImageFix" result="effect1_dropShadow"/>
<feBlend mode="normal" in="SourceGraphic" in2="effect1_dropShadow" result="shape"/>
</filter>
<linearGradient id="paint0_linear" x1="948.605" y1="-540" x2="31.2584" y2="1110.2" gradientUnits="userSpaceOnUse">
<stop stop-color="#0B0B0B" stop-opacity="0.01"/>
<stop offset="1"/>
</linearGradient>
<linearGradient id="paint1_linear" x1="317.143" y1="686.857" x2="325.155" y2="655.024" gradientUnits="userSpaceOnUse">
<stop offset="0.09677" stop-color="#0095D5"/>
<stop offset="0.3007" stop-color="#238AD9"/>
<stop offset="0.6211" stop-color="#557BDE"/>
<stop offset="0.8643" stop-color="#7472E2"/>
<stop offset="1" stop-color="#806EE3"/>
</linearGradient>
<linearGradient id="paint2_linear" x1="286.254" y1="629.449" x2="303.065" y2="615.029" gradientUnits="userSpaceOnUse">
<stop offset="0.1183" stop-color="#0095D5"/>
<stop offset="0.4178" stop-color="#3C83DC"/>
<stop offset="0.6962" stop-color="#6D74E1"/>
<stop offset="0.8333" stop-color="#806EE3"/>
</linearGradient>
<linearGradient id="paint3_linear" x1="291.96" y1="688.723" x2="345.225" y2="635.458" gradientUnits="userSpaceOnUse">
<stop offset="0.1075" stop-color="#C757BC"/>
<stop offset="0.2138" stop-color="#D0609A"/>
<stop offset="0.4254" stop-color="#E1725C"/>
<stop offset="0.6048" stop-color="#EE7E2F"/>
<stop offset="0.743" stop-color="#F58613"/>
<stop offset="0.8232" stop-color="#F88909"/>
</linearGradient>
</defs>
</svg>
