<svg width="1920" height="1080" viewBox="0 0 1920 1080" fill="none" xmlns="http://www.w3.org/2000/svg">
<g clip-path="url(#clip0_1342_8)">
<path d="M1920 0H0V1080H1920V0Z" fill="url(#paint0_linear_1342_8)" fill-opacity="0.5"/>
<path d="M421.804 161.514C421.804 158.671 421.244 156.485 420.123 154.954C419.03 153.396 417.568 152.316 415.736 151.715C413.905 151.114 411.896 150.813 409.709 150.813H400.074V171.518H409.381C410.775 171.518 412.197 171.381 413.645 171.108C415.094 170.835 416.433 170.343 417.663 169.632C418.921 168.921 419.918 167.924 420.656 166.639C421.422 165.327 421.804 163.619 421.804 161.514ZM419.549 135.52C419.549 132.322 418.552 130.053 416.556 128.714C414.588 127.347 411.896 126.664 408.479 126.664H400.074V144.95H409.176C412.511 144.95 415.067 144.212 416.843 142.736C418.647 141.233 419.549 138.827 419.549 135.52ZM429.307 161.268C429.307 164.329 428.692 166.899 427.462 168.976C426.26 171.053 424.633 172.707 422.583 173.937C420.561 175.167 418.292 176.055 415.777 176.602C413.29 177.121 410.748 177.381 408.151 177.381H392.981V120.924H406.88C409.368 120.924 411.787 121.156 414.137 121.621C416.515 122.058 418.647 122.824 420.533 123.917C422.447 124.983 423.977 126.432 425.125 128.263C426.273 130.094 426.847 132.39 426.847 135.151C426.847 137.584 426.342 139.647 425.33 141.342C424.346 143.009 423.048 144.349 421.435 145.36C419.85 146.371 418.155 147.082 416.351 147.492C418.456 147.82 420.492 148.462 422.46 149.419C424.456 150.348 426.096 151.77 427.38 153.683C428.665 155.569 429.307 158.097 429.307 161.268ZM458.918 133.306C462.991 133.306 466.394 134.235 469.127 136.094C471.888 137.925 473.952 140.522 475.318 143.884C476.712 147.246 477.409 151.209 477.409 155.774C477.409 160.175 476.699 164.07 475.277 167.459C473.856 170.848 471.765 173.513 469.004 175.454C466.271 177.367 462.882 178.324 458.836 178.324C454.791 178.324 451.388 177.395 448.627 175.536C445.867 173.677 443.776 171.067 442.354 167.705C440.96 164.316 440.263 160.366 440.263 155.856C440.263 151.401 440.974 147.478 442.395 144.089C443.817 140.7 445.908 138.062 448.668 136.176C451.456 134.263 454.873 133.306 458.918 133.306ZM458.918 138.923C455.201 138.923 452.386 140.303 450.472 143.064C448.586 145.797 447.643 150.061 447.643 155.856C447.643 161.541 448.573 165.764 450.431 168.525C452.317 171.286 455.119 172.666 458.836 172.666C462.554 172.666 465.342 171.286 467.2 168.525C469.086 165.764 470.029 161.514 470.029 155.774C470.029 150.034 469.1 145.797 467.241 143.064C465.383 140.303 462.608 138.923 458.918 138.923ZM495.827 177.381H487.955L503.904 154.585L489.923 134.208H498.082L508.086 150.28L518.213 134.208H526.085L512.145 154.298L528.053 177.381H519.607L507.799 158.849L495.827 177.381ZM620.895 167.951C620.895 169.673 621.182 170.93 621.756 171.723C622.33 172.516 623.219 173.103 624.421 173.486L622.74 178.324C620.882 178.078 619.255 177.49 617.861 176.561C616.467 175.604 615.456 174.169 614.827 172.256C613.269 174.251 611.329 175.768 609.005 176.807C606.682 177.818 604.113 178.324 601.297 178.324C596.979 178.324 593.576 177.108 591.088 174.675C588.601 172.242 587.357 169.017 587.357 164.999C587.357 160.544 589.093 157.127 592.564 154.749C596.036 152.371 601.051 151.182 607.611 151.182H613.966V147.574C613.966 144.458 613.051 142.258 611.219 140.973C609.415 139.661 606.901 139.005 603.675 139.005C602.254 139.005 600.587 139.183 598.673 139.538C596.76 139.866 594.683 140.426 592.441 141.219L590.637 136.012C593.289 135.028 595.776 134.331 598.099 133.921C600.423 133.511 602.637 133.306 604.741 133.306C610.126 133.306 614.158 134.563 616.836 137.078C619.542 139.565 620.895 142.955 620.895 147.246V167.951ZM603.06 173.076C605.192 173.076 607.229 172.543 609.169 171.477C611.11 170.384 612.709 168.88 613.966 166.967V155.856H607.734C602.978 155.856 599.616 156.676 597.648 158.316C595.708 159.956 594.737 162.156 594.737 164.917C594.737 167.596 595.421 169.632 596.787 171.026C598.181 172.393 600.272 173.076 603.06 173.076ZM639.149 177.381V134.208H645.012L645.545 140.194C647.295 137.98 649.481 136.285 652.105 135.11C654.757 133.907 657.326 133.306 659.813 133.306C664.05 133.306 667.125 134.427 669.038 136.668C670.979 138.909 671.949 142.025 671.949 146.016V177.381H665.061V151.1C665.061 148.148 664.897 145.77 664.569 143.966C664.241 142.135 663.558 140.809 662.519 139.989C661.481 139.142 659.868 138.718 657.681 138.718C655.987 138.718 654.388 139.087 652.884 139.825C651.408 140.563 650.083 141.492 648.907 142.613C647.759 143.706 646.803 144.813 646.037 145.934V177.381H639.149ZM714.147 115.963L721.035 116.824V177.381H715.008L714.352 171.682C712.74 173.978 710.881 175.659 708.776 176.725C706.699 177.791 704.471 178.324 702.093 178.324C698.349 178.324 695.26 177.381 692.827 175.495C690.395 173.609 688.591 170.985 687.415 167.623C686.24 164.234 685.652 160.311 685.652 155.856C685.652 151.537 686.322 147.683 687.661 144.294C689.001 140.877 690.928 138.199 693.442 136.258C695.984 134.29 699.032 133.306 702.585 133.306C705.073 133.306 707.259 133.743 709.145 134.618C711.031 135.465 712.699 136.723 714.147 138.39V115.963ZM704.389 138.841C700.781 138.841 698.007 140.249 696.066 143.064C694.126 145.879 693.155 150.143 693.155 155.856C693.155 159.573 693.552 162.689 694.344 165.204C695.137 167.719 696.299 169.605 697.829 170.862C699.387 172.119 701.287 172.748 703.528 172.748C705.988 172.748 708.079 172.051 709.801 170.657C711.551 169.263 712.999 167.691 714.147 165.942V144.376C712.972 142.627 711.551 141.274 709.883 140.317C708.216 139.333 706.385 138.841 704.389 138.841ZM816.46 138.349C816.46 135.424 815.886 133.115 814.738 131.42C813.59 129.698 812.018 128.468 810.023 127.73C808.028 126.965 805.745 126.582 803.176 126.582H795.017V150.69H802.889C805.54 150.69 807.877 150.335 809.9 149.624C811.923 148.886 813.522 147.629 814.697 145.852C815.872 144.048 816.46 141.547 816.46 138.349ZM824.086 138.267C824.086 142.668 823.143 146.194 821.257 148.845C819.398 151.496 816.829 153.423 813.549 154.626C810.269 155.829 806.497 156.43 802.233 156.43H795.017V177.381H787.883V120.924H802.315C809.039 120.924 814.342 122.345 818.223 125.188C822.132 128.003 824.086 132.363 824.086 138.267ZM857.674 134.208V171.928H869.851V177.381H837.461V171.928H850.786V139.661H837.871V134.208H857.674ZM852.18 113.995C853.711 113.995 854.927 114.46 855.829 115.389C856.758 116.318 857.223 117.453 857.223 118.792C857.223 120.186 856.758 121.361 855.829 122.318C854.927 123.247 853.711 123.712 852.18 123.712C850.731 123.712 849.542 123.247 848.613 122.318C847.684 121.361 847.219 120.186 847.219 118.792C847.219 117.453 847.684 116.318 848.613 115.389C849.542 114.46 850.731 113.995 852.18 113.995ZM884.989 177.381V134.208H890.852L891.385 140.194C893.134 137.98 895.321 136.285 897.945 135.11C900.596 133.907 903.166 133.306 905.653 133.306C909.89 133.306 912.965 134.427 914.878 136.668C916.819 138.909 917.789 142.025 917.789 146.016V177.381H910.901V151.1C910.901 148.148 910.737 145.77 910.409 143.966C910.081 142.135 909.398 140.809 908.359 139.989C907.32 139.142 905.708 138.718 903.521 138.718C901.826 138.718 900.227 139.087 898.724 139.825C897.248 140.563 895.922 141.492 894.747 142.613C893.599 143.706 892.642 144.813 891.877 145.934V177.381H884.989ZM988.737 158.234C988.874 161.569 989.516 164.302 990.664 166.434C991.812 168.539 993.329 170.097 995.215 171.108C997.101 172.092 999.151 172.584 1001.36 172.584C1003.58 172.584 1005.57 172.256 1007.35 171.6C1009.15 170.944 1011 169.974 1012.89 168.689L1016.12 173.24C1014.1 174.825 1011.79 176.069 1009.2 176.971C1006.63 177.873 1003.99 178.324 1001.28 178.324C997.101 178.324 993.534 177.381 990.582 175.495C987.63 173.609 985.375 170.985 983.817 167.623C982.286 164.234 981.521 160.311 981.521 155.856C981.521 151.483 982.3 147.601 983.858 144.212C985.416 140.823 987.603 138.158 990.418 136.217C993.233 134.276 996.554 133.306 1000.38 133.306C1004.02 133.306 1007.15 134.167 1009.77 135.889C1012.39 137.584 1014.4 140.016 1015.8 143.187C1017.22 146.33 1017.93 150.089 1017.93 154.462C1017.93 155.2 1017.92 155.897 1017.89 156.553C1017.86 157.182 1017.82 157.742 1017.76 158.234H988.737ZM1000.46 138.964C997.265 138.964 994.586 140.098 992.427 142.367C990.295 144.636 989.079 148.148 988.778 152.904H1011.29C1011.2 148.285 1010.19 144.813 1008.25 142.49C1006.31 140.139 1003.72 138.964 1000.46 138.964ZM1036.67 177.381H1028.8L1044.75 154.585L1030.77 134.208H1038.93L1048.93 150.28L1059.06 134.208H1066.93L1052.99 154.298L1068.9 177.381H1060.45L1048.65 158.849L1036.67 177.381ZM1100.97 133.306C1104.8 133.306 1107.85 134.235 1110.11 136.094C1112.41 137.953 1114.06 140.577 1115.08 143.966C1116.09 147.328 1116.59 151.264 1116.59 155.774C1116.59 160.12 1115.98 164.001 1114.75 167.418C1113.55 170.807 1111.71 173.472 1109.25 175.413C1106.79 177.354 1103.69 178.324 1099.95 178.324C1095.22 178.324 1091.42 176.657 1088.55 173.322V193.904L1081.66 194.765V134.208H1087.52L1088.1 140.235C1089.68 138.021 1091.57 136.313 1093.76 135.11C1095.97 133.907 1098.38 133.306 1100.97 133.306ZM1099.33 138.841C1096.95 138.841 1094.85 139.565 1093.02 141.014C1091.21 142.435 1089.72 144.021 1088.55 145.77V167.172C1089.67 168.839 1091.08 170.165 1092.77 171.149C1094.49 172.106 1096.38 172.584 1098.43 172.584C1102.01 172.584 1104.7 171.217 1106.51 168.484C1108.31 165.751 1109.21 161.5 1109.21 155.733C1109.21 151.961 1108.86 148.831 1108.15 146.344C1107.44 143.829 1106.36 141.957 1104.91 140.727C1103.46 139.47 1101.6 138.841 1099.33 138.841ZM1147.64 116.824V166.721C1147.64 168.853 1148.29 170.37 1149.61 171.272C1150.95 172.147 1152.67 172.584 1154.77 172.584C1156.08 172.584 1157.33 172.447 1158.5 172.174C1159.68 171.901 1160.85 171.532 1162.03 171.067L1163.87 176.11C1162.7 176.684 1161.24 177.19 1159.49 177.627C1157.77 178.092 1155.81 178.324 1153.62 178.324C1149.8 178.324 1146.7 177.272 1144.32 175.167C1141.94 173.035 1140.75 170.097 1140.75 166.352V122.277H1127.51V116.824H1147.64ZM1196.44 133.306C1200.51 133.306 1203.91 134.235 1206.65 136.094C1209.41 137.925 1211.47 140.522 1212.84 143.884C1214.23 147.246 1214.93 151.209 1214.93 155.774C1214.93 160.175 1214.22 164.07 1212.8 167.459C1211.38 170.848 1209.28 173.513 1206.52 175.454C1203.79 177.367 1200.4 178.324 1196.36 178.324C1192.31 178.324 1188.91 177.395 1186.15 175.536C1183.39 173.677 1181.3 171.067 1179.87 167.705C1178.48 164.316 1177.78 160.366 1177.78 155.856C1177.78 151.401 1178.49 147.478 1179.91 144.089C1181.34 140.7 1183.43 138.062 1186.19 136.176C1188.98 134.263 1192.39 133.306 1196.44 133.306ZM1196.44 138.923C1192.72 138.923 1189.91 140.303 1187.99 143.064C1186.11 145.797 1185.16 150.061 1185.16 155.856C1185.16 161.541 1186.09 165.764 1187.95 168.525C1189.84 171.286 1192.64 172.666 1196.36 172.666C1200.07 172.666 1202.86 171.286 1204.72 168.525C1206.61 165.764 1207.55 161.514 1207.55 155.774C1207.55 150.034 1206.62 145.797 1204.76 143.064C1202.9 140.303 1200.13 138.923 1196.44 138.923ZM1229.57 177.381V172.092H1236.3V139.497H1229.57V134.208H1241.55L1242.82 144.417C1244.49 140.864 1246.51 138.117 1248.89 136.176C1251.26 134.235 1254.41 133.265 1258.32 133.265C1259.52 133.265 1260.58 133.361 1261.51 133.552C1262.47 133.716 1263.44 133.935 1264.42 134.208L1262.42 140.358C1261.51 140.112 1260.69 139.934 1259.96 139.825C1259.22 139.688 1258.37 139.62 1257.41 139.62C1254.11 139.62 1251.26 140.795 1248.89 143.146C1246.51 145.497 1244.61 149.05 1243.19 153.806V172.092H1251.96V177.381H1229.57ZM1257.78 148.804V139.415L1258.48 134.208H1264.42L1263.44 148.804H1257.78ZM1309.25 167.951C1309.25 169.673 1309.53 170.93 1310.11 171.723C1310.68 172.516 1311.57 173.103 1312.77 173.486L1311.09 178.324C1309.23 178.078 1307.61 177.49 1306.21 176.561C1304.82 175.604 1303.81 174.169 1303.18 172.256C1301.62 174.251 1299.68 175.768 1297.36 176.807C1295.03 177.818 1292.46 178.324 1289.65 178.324C1285.33 178.324 1281.93 177.108 1279.44 174.675C1276.95 172.242 1275.71 169.017 1275.71 164.999C1275.71 160.544 1277.44 157.127 1280.92 154.749C1284.39 152.371 1289.4 151.182 1295.96 151.182H1302.32V147.574C1302.32 144.458 1301.4 142.258 1299.57 140.973C1297.77 139.661 1295.25 139.005 1292.03 139.005C1290.61 139.005 1288.94 139.183 1287.02 139.538C1285.11 139.866 1283.03 140.426 1280.79 141.219L1278.99 136.012C1281.64 135.028 1284.13 134.331 1286.45 133.921C1288.77 133.511 1290.99 133.306 1293.09 133.306C1298.48 133.306 1302.51 134.563 1305.19 137.078C1307.89 139.565 1309.25 142.955 1309.25 147.246V167.951ZM1291.41 173.076C1293.54 173.076 1295.58 172.543 1297.52 171.477C1299.46 170.384 1301.06 168.88 1302.32 166.967V155.856H1296.09C1291.33 155.856 1287.97 156.676 1286 158.316C1284.06 159.956 1283.09 162.156 1283.09 164.917C1283.09 167.596 1283.77 169.632 1285.14 171.026C1286.53 172.393 1288.62 173.076 1291.41 173.076ZM1361.78 175.208C1360.3 176.192 1358.51 176.957 1356.41 177.504C1354.3 178.051 1352.24 178.324 1350.21 178.324C1345.57 178.324 1341.99 177.108 1339.47 174.675C1336.96 172.242 1335.7 169.113 1335.7 165.286V139.538H1325.78V134.208H1335.7V124.409L1342.59 123.589V134.208H1357.51L1356.69 139.538H1342.59V165.204C1342.59 167.609 1343.22 169.441 1344.47 170.698C1345.76 171.955 1347.88 172.584 1350.83 172.584C1352.44 172.584 1353.93 172.393 1355.3 172.01C1356.67 171.627 1357.94 171.135 1359.11 170.534L1361.78 175.208ZM1398.52 134.208V171.928H1410.7V177.381H1378.31V171.928H1391.63V139.661H1378.72V134.208H1398.52ZM1393.03 113.995C1394.56 113.995 1395.77 114.46 1396.68 115.389C1397.61 116.318 1398.07 117.453 1398.07 118.792C1398.07 120.186 1397.61 121.361 1396.68 122.318C1395.77 123.247 1394.56 123.712 1393.03 123.712C1391.58 123.712 1390.39 123.247 1389.46 122.318C1388.53 121.361 1388.07 120.186 1388.07 118.792C1388.07 117.453 1388.53 116.318 1389.46 115.389C1390.39 114.46 1391.58 113.995 1393.03 113.995ZM1442.28 133.306C1446.35 133.306 1449.75 134.235 1452.49 136.094C1455.25 137.925 1457.31 140.522 1458.68 143.884C1460.07 147.246 1460.77 151.209 1460.77 155.774C1460.77 160.175 1460.06 164.07 1458.64 167.459C1457.22 170.848 1455.12 173.513 1452.36 175.454C1449.63 177.367 1446.24 178.324 1442.2 178.324C1438.15 178.324 1434.75 177.395 1431.99 175.536C1429.23 173.677 1427.14 171.067 1425.71 167.705C1424.32 164.316 1423.62 160.366 1423.62 155.856C1423.62 151.401 1424.33 147.478 1425.75 144.089C1427.18 140.7 1429.27 138.062 1432.03 136.176C1434.82 134.263 1438.23 133.306 1442.28 133.306ZM1442.28 138.923C1438.56 138.923 1435.75 140.303 1433.83 143.064C1431.95 145.797 1431 150.061 1431 155.856C1431 161.541 1431.93 165.764 1433.79 168.525C1435.68 171.286 1438.48 172.666 1442.2 172.666C1445.91 172.666 1448.7 171.286 1450.56 168.525C1452.45 165.764 1453.39 161.514 1453.39 155.774C1453.39 150.034 1452.46 145.797 1450.6 143.064C1448.74 140.303 1445.97 138.923 1442.28 138.923ZM1475 177.381V134.208H1480.87L1481.4 140.194C1483.15 137.98 1485.34 136.285 1487.96 135.11C1490.61 133.907 1493.18 133.306 1495.67 133.306C1499.91 133.306 1502.98 134.427 1504.89 136.668C1506.83 138.909 1507.8 142.025 1507.8 146.016V177.381H1500.92V151.1C1500.92 148.148 1500.75 145.77 1500.42 143.966C1500.1 142.135 1499.41 140.809 1498.37 139.989C1497.34 139.142 1495.72 138.718 1493.54 138.718C1491.84 138.718 1490.24 139.087 1488.74 139.825C1487.26 140.563 1485.94 141.492 1484.76 142.613C1483.61 143.706 1482.66 144.813 1481.89 145.934V177.381H1475Z" fill="url(#paint1_linear_1342_8)"/>
<path d="M809.506 263.848V301.568H821.683V307.021H789.293V301.568H802.618V269.301H789.703V263.848H809.506ZM804.012 243.635C805.543 243.635 806.759 244.1 807.661 245.029C808.59 245.958 809.055 247.093 809.055 248.432C809.055 249.826 808.59 251.001 807.661 251.958C806.759 252.887 805.543 253.352 804.012 253.352C802.563 253.352 801.374 252.887 800.445 251.958C799.516 251.001 799.051 249.826 799.051 248.432C799.051 247.093 799.516 245.958 800.445 245.029C801.374 244.1 802.563 243.635 804.012 243.635ZM836.821 307.021V263.848H842.684L843.217 269.834C844.966 267.62 847.153 265.925 849.777 264.75C852.428 263.547 854.998 262.946 857.485 262.946C861.722 262.946 864.797 264.067 866.71 266.308C868.651 268.549 869.621 271.665 869.621 275.656V307.021H862.733V280.74C862.733 277.788 862.569 275.41 862.241 273.606C861.913 271.775 861.23 270.449 860.191 269.629C859.152 268.782 857.54 268.358 855.353 268.358C853.658 268.358 852.059 268.727 850.556 269.465C849.08 270.203 847.754 271.132 846.579 272.253C845.431 273.346 844.474 274.453 843.709 275.574V307.021H836.821ZM970.991 266.39C970.991 269.205 970.376 271.665 969.146 273.77C967.943 275.875 966.303 277.61 964.226 278.977C962.149 280.344 959.812 281.341 957.215 281.97L973.943 307.021H965.415L949.999 282.79H942.373V307.021H935.239V250.564H949.753C956.723 250.564 961.998 251.903 965.579 254.582C969.187 257.233 970.991 261.169 970.991 266.39ZM963.365 266.39C963.365 262.755 962.326 260.158 960.249 258.6C958.172 257.015 954.946 256.222 950.573 256.222H942.373V277.214H950.573C954.618 277.214 957.762 276.394 960.003 274.754C962.244 273.087 963.365 270.299 963.365 266.39ZM991.213 263.848V294.434C991.213 297.277 991.801 299.327 992.976 300.584C994.151 301.841 995.983 302.47 998.47 302.47C1000.85 302.47 1003.09 301.8 1005.19 300.461C1007.33 299.094 1008.98 297.482 1010.15 295.623V263.848H1017.04V307.021H1011.18L1010.61 301.199C1008.91 303.386 1006.82 305.067 1004.33 306.242C1001.85 307.39 999.331 307.964 996.789 307.964C992.607 307.964 989.477 306.857 987.4 304.643C985.35 302.402 984.325 299.272 984.325 295.254V263.848H991.213ZM1048.17 302.265C1051.48 302.265 1054.09 301.65 1056 300.42C1057.94 299.163 1058.91 297.495 1058.91 295.418C1058.91 294.106 1058.67 292.972 1058.17 292.015C1057.71 291.058 1056.74 290.197 1055.26 289.432C1053.79 288.667 1051.52 287.901 1048.46 287.136C1045.48 286.398 1042.88 285.551 1040.67 284.594C1038.48 283.61 1036.77 282.339 1035.54 280.781C1034.34 279.223 1033.74 277.2 1033.74 274.713C1033.74 272.28 1034.42 270.189 1035.79 268.44C1037.18 266.663 1039.11 265.31 1041.57 264.381C1044.03 263.424 1046.89 262.946 1050.14 262.946C1053.61 262.946 1056.63 263.411 1059.2 264.34C1061.8 265.242 1064 266.363 1065.8 267.702L1062.77 272.376C1061.13 271.255 1059.32 270.34 1057.35 269.629C1055.39 268.891 1053.01 268.522 1050.22 268.522C1046.83 268.522 1044.43 269.055 1043 270.121C1041.58 271.16 1040.87 272.513 1040.87 274.18C1040.87 275.437 1041.21 276.49 1041.9 277.337C1042.61 278.157 1043.8 278.909 1045.46 279.592C1047.13 280.248 1049.43 280.972 1052.35 281.765C1055.17 282.503 1057.61 283.391 1059.69 284.43C1061.8 285.469 1063.44 286.835 1064.61 288.53C1065.79 290.225 1066.37 292.411 1066.37 295.09C1066.37 298.151 1065.5 300.639 1063.75 302.552C1062 304.438 1059.73 305.818 1056.94 306.693C1054.18 307.54 1051.26 307.964 1048.17 307.964C1044.26 307.964 1040.93 307.404 1038.17 306.283C1035.43 305.135 1033.14 303.755 1031.28 302.142L1035.21 297.591C1036.91 298.985 1038.85 300.119 1041.04 300.994C1043.25 301.841 1045.63 302.265 1048.17 302.265ZM1116.94 304.848C1115.46 305.832 1113.67 306.597 1111.57 307.144C1109.46 307.691 1107.4 307.964 1105.37 307.964C1100.73 307.964 1097.15 306.748 1094.63 304.315C1092.12 301.882 1090.86 298.753 1090.86 294.926V269.178H1080.94V263.848H1090.86V254.049L1097.75 253.229V263.848H1112.67L1111.85 269.178H1097.75V294.844C1097.75 297.249 1098.38 299.081 1099.63 300.338C1100.92 301.595 1103.04 302.224 1105.99 302.224C1107.6 302.224 1109.09 302.033 1110.46 301.65C1111.83 301.267 1113.1 300.775 1114.27 300.174L1116.94 304.848Z" fill="url(#paint2_linear_1342_8)"/>
<path d="M1740.21 675.975L1724.99 666.545C1724.86 665.061 1724.71 663.581 1724.56 662.107L1737.66 649.903C1738.99 648.662 1739.59 646.824 1739.23 645.049C1738.88 643.264 1737.63 641.794 1735.92 641.166L1719.18 634.925C1718.76 633.476 1718.32 632.037 1717.87 630.592L1728.3 616.099C1729.37 614.626 1729.59 612.709 1728.89 611.037C1728.2 609.363 1726.68 608.163 1724.91 607.869L1707.26 604.998C1706.57 603.66 1705.86 602.342 1705.14 601.045L1712.56 584.75C1713.32 583.093 1713.16 581.179 1712.15 579.654C1711.14 578.142 1709.43 577.258 1707.6 577.327L1689.68 577.951C1688.75 576.793 1687.81 575.646 1686.85 574.519L1690.98 557.08C1691.39 555.308 1690.87 553.439 1689.58 552.157C1688.3 550.874 1686.44 550.343 1684.66 550.759L1667.22 554.885C1666.09 553.928 1664.94 552.982 1663.78 552.056L1664.41 534.132C1664.47 532.318 1663.59 530.595 1662.08 529.59C1660.56 528.577 1658.65 528.425 1656.98 529.177L1640.72 536.597C1639.41 535.875 1638.09 535.161 1636.77 534.471L1633.89 516.824C1633.6 515.035 1632.4 513.516 1630.72 512.837C1629.05 512.14 1627.12 512.365 1625.66 513.426L1611.17 523.862C1609.74 523.408 1608.3 522.971 1606.87 522.555L1600.63 505.809C1599.99 504.103 1598.52 502.852 1596.75 502.498C1594.96 502.148 1593.14 502.741 1591.89 504.065L1579.69 517.171C1578.21 517.008 1576.73 516.859 1575.25 516.737L1565.82 501.482C1564.87 499.94 1563.18 499 1561.35 499C1559.52 499 1557.85 499.94 1556.91 501.482L1547.48 516.737C1546 516.859 1544.51 517.008 1543.04 517.171L1530.84 504.065C1529.6 502.741 1527.76 502.148 1525.98 502.498C1524.2 502.855 1522.73 504.103 1522.1 505.809L1515.86 522.555C1514.41 522.971 1512.98 523.411 1511.56 523.862L1497.07 513.426C1495.59 512.362 1493.67 512.137 1492.01 512.837C1490.33 513.53 1489.13 515.049 1488.84 516.824L1485.96 534.471C1484.63 535.161 1483.31 535.872 1482.01 536.597L1465.75 529.177C1464.09 528.421 1462.18 528.577 1460.65 529.59C1459.14 530.595 1458.25 532.318 1458.32 534.132L1458.95 552.056C1457.79 552.982 1456.64 553.928 1455.51 554.885L1438.07 550.759C1436.3 550.347 1434.43 550.874 1433.15 552.157C1431.86 553.443 1431.33 555.298 1431.75 557.08L1435.84 574.519C1434.89 575.649 1433.94 576.793 1433.02 577.951L1415.09 577.327C1413.29 577.275 1411.56 578.142 1410.55 579.654C1409.54 581.158 1409.39 583.086 1410.14 584.75L1417.56 601.045C1416.84 602.353 1416.12 603.67 1415.43 604.998L1397.79 607.869C1395.99 608.16 1394.48 609.359 1393.8 611.037C1393.1 612.719 1393.33 614.643 1394.39 616.099L1404.82 630.592C1404.37 632.024 1403.93 633.462 1403.51 634.925L1386.77 641.166C1385.07 641.801 1383.82 643.271 1383.46 645.049C1383.11 646.831 1383.7 648.655 1385.03 649.903L1398.14 662.107C1397.97 663.581 1397.83 665.064 1397.7 666.545L1382.48 675.975C1380.94 676.929 1380 678.614 1380 680.448C1380 682.282 1380.94 683.949 1382.48 684.886L1397.7 694.316C1397.83 695.8 1397.97 697.28 1398.14 698.754L1385.03 710.958C1383.7 712.195 1383.11 714.033 1383.46 715.812C1383.82 717.597 1385.07 719.064 1386.77 719.695L1403.51 725.935C1403.93 727.385 1404.37 728.823 1404.82 730.269L1394.39 744.761C1393.33 746.238 1393.1 748.156 1393.8 749.823C1394.5 751.505 1396.01 752.704 1397.82 752.992L1415.47 755.863C1416.16 757.201 1416.87 758.519 1417.59 759.815L1410.17 776.076C1409.42 777.73 1409.57 779.647 1410.59 781.172C1411.6 782.687 1413.32 783.571 1415.13 783.499L1433.02 782.871C1433.95 784.036 1434.89 785.177 1435.85 786.31L1431.76 803.75C1431.34 805.518 1431.86 807.355 1433.15 808.638C1434.43 809.931 1436.29 810.448 1438.08 810.032L1455.52 805.941C1456.65 806.905 1457.8 807.841 1458.95 808.763L1458.33 826.688C1458.26 828.501 1459.15 830.224 1460.66 831.229C1462.16 832.238 1464.09 832.391 1465.75 831.635L1482.01 824.216C1483.33 824.944 1484.64 825.651 1485.97 826.341L1488.84 843.988C1489.14 845.784 1490.33 847.303 1492.01 848.01C1493.69 848.707 1495.62 848.482 1497.07 847.424L1511.57 836.988C1513 837.442 1514.44 837.886 1515.9 838.302L1522.14 855.048C1522.78 856.747 1524.25 858.005 1526.03 858.352C1527.81 858.713 1529.63 858.116 1530.88 856.785L1543.08 843.68C1544.56 843.85 1546.04 843.992 1547.52 844.123L1556.95 859.344C1557.9 860.88 1559.59 861.826 1561.39 861.826C1563.19 861.826 1564.89 860.883 1565.86 859.344L1575.29 844.123C1576.78 843.992 1578.26 843.85 1579.73 843.68L1591.93 856.785C1593.17 858.116 1595.01 858.713 1596.79 858.352C1598.57 858.002 1600.04 856.747 1600.67 855.048L1606.91 838.302C1608.36 837.886 1609.8 837.442 1611.24 836.988L1625.74 847.424C1627.21 848.482 1629.13 848.707 1630.8 848.01C1632.48 847.32 1633.68 845.798 1633.97 843.988L1636.85 826.341C1638.18 825.651 1639.49 824.933 1640.8 824.216L1657.06 831.635C1658.71 832.391 1660.63 832.238 1662.16 831.229C1663.67 830.217 1664.55 828.501 1664.48 826.688L1663.86 808.763C1665.02 807.837 1666.16 806.905 1667.29 805.941L1684.73 810.032C1686.5 810.448 1688.37 809.931 1689.66 808.638C1690.95 807.352 1691.47 805.504 1691.05 803.75L1686.96 786.31C1687.92 785.177 1688.86 784.036 1689.78 782.871L1707.71 783.499C1709.52 783.571 1711.24 782.687 1712.25 781.172C1713.26 779.661 1713.42 777.736 1712.66 776.076L1705.24 759.815C1705.96 758.501 1706.68 757.184 1707.36 755.863L1725.01 752.992C1726.81 752.704 1728.32 751.505 1729 749.823C1729.69 748.149 1729.47 746.218 1728.41 744.761L1717.97 730.269C1718.42 728.837 1718.86 727.398 1719.28 725.935L1736.03 719.695C1737.73 719.057 1738.99 717.59 1739.33 715.812C1739.69 714.03 1739.1 712.206 1737.76 710.958L1724.66 698.754C1724.82 697.28 1724.96 695.796 1725.09 694.316L1740.31 684.886C1741.85 683.936 1742.8 682.247 1742.8 680.448C1742.8 678.648 1741.86 676.946 1740.32 675.975H1740.21ZM1638.28 802.522C1632.45 801.267 1628.78 795.519 1630.03 789.694C1631.27 783.87 1636.99 780.16 1642.82 781.408C1648.64 782.653 1652.35 788.411 1651.11 794.236C1649.86 800.061 1644.14 803.77 1638.31 802.522H1638.28ZM1633.11 767.505C1627.81 766.368 1622.57 769.745 1621.46 775.063L1616.05 800.303C1599.38 807.862 1580.69 812.091 1561.27 812.091C1541.3 812.091 1522.44 807.688 1505.45 799.783L1500.05 774.543C1498.91 769.239 1493.7 765.841 1488.4 766.985L1466.1 771.77C1461.98 767.505 1458.13 762.963 1454.59 758.179H1563.11C1564.34 758.179 1565.16 757.957 1565.16 756.841V718.356C1565.16 717.24 1564.34 717.018 1563.11 717.018H1531.39V692.714H1565.68C1568.81 692.714 1582.42 693.609 1586.76 711.02C1588.12 716.359 1591.13 733.764 1593.17 739.346C1595.21 745.587 1603.5 758.068 1612.34 758.068H1666.43C1667.04 758.068 1667.7 757.999 1668.39 757.874C1664.64 762.97 1660.52 767.79 1656.11 772.297L1633.3 767.408L1633.11 767.505ZM1482.99 802.002C1477.16 803.257 1471.44 799.548 1470.19 793.716C1468.95 787.891 1472.65 782.136 1478.48 780.888C1484.31 779.643 1490.03 783.353 1491.28 789.174C1492.52 794.999 1488.82 800.754 1482.99 802.002ZM1441.73 635.237C1444.14 640.681 1441.69 647.06 1436.25 649.487C1430.81 651.904 1424.46 649.445 1422.04 644.009C1419.61 638.573 1422.08 632.186 1427.52 629.76C1432.96 627.346 1439.3 629.801 1441.73 635.237ZM1429.08 665.193L1452.31 654.861C1457.26 652.659 1459.52 646.852 1457.3 641.894L1452.51 631.077H1471.31V715.673H1433.51C1430.22 704.093 1428.45 691.889 1428.45 679.269C1428.45 674.45 1428.71 669.7 1429.21 665.019L1429.08 665.193ZM1531.01 656.976V632.013H1575.73C1578.04 632.013 1592.06 634.686 1592.06 645.153C1592.06 653.855 1581.31 656.976 1572.47 656.976H1530.87H1531.01ZM1693.61 679.442C1693.61 682.757 1693.49 686.03 1693.25 689.289H1679.62C1678.26 689.289 1677.71 690.183 1677.71 691.518V697.759C1677.71 712.459 1669.43 715.683 1662.15 716.481C1655.21 717.261 1647.55 713.582 1646.61 709.339C1642.52 686.352 1635.73 681.464 1624.98 672.935C1638.33 664.475 1652.19 651.959 1652.19 635.144C1652.19 617.081 1639.82 605.709 1631.39 600.127C1619.53 592.326 1606.43 590.766 1602.89 590.766H1462.13C1481.23 569.478 1507.2 554.362 1536.33 548.814L1552.93 566.219C1556.68 570.137 1562.88 570.31 1566.84 566.538L1585.42 548.787C1624.25 556.033 1657.19 580.233 1676.26 613.62L1663.53 642.328C1661.34 647.285 1663.58 653.11 1668.52 655.294L1693 666.181C1693.42 670.515 1693.65 674.918 1693.65 679.356L1693.61 679.442ZM1552.85 534.173C1557.15 530.047 1563.98 530.221 1568.07 534.523C1572.16 538.822 1572.02 545.652 1567.71 549.778C1563.41 553.904 1556.58 553.731 1552.49 549.425C1548.4 545.126 1548.54 538.295 1552.85 534.17V534.173ZM1679.05 635.758C1681.46 630.314 1687.82 627.853 1693.27 630.28C1698.71 632.693 1701.17 639.086 1698.74 644.529C1696.33 649.972 1689.97 652.434 1684.53 650.007C1679.08 647.594 1676.62 641.201 1679.05 635.758Z" fill="url(#paint3_linear_1342_8)"/>
<path d="M420.692 636.402H348.692C344.716 636.402 341.492 639.626 341.492 643.602V715.602C341.492 719.579 344.716 722.802 348.692 722.802H420.692C424.669 722.802 427.892 719.579 427.892 715.602V643.602C427.892 639.626 424.669 636.402 420.692 636.402Z" fill="url(#paint4_linear_1342_8)"/>
<path d="M527.098 614.874V600.474H492.682V571.674H463.882V537.258H449.482V571.674H427.882V537.258H413.482V571.674H391.882V537.258H377.482V571.674H355.882V537.258H341.482V571.674H319.882V537.258H305.482V571.674H276.682V600.474H242.266V614.874H276.682V636.474H242.266V650.874H276.682V672.474H242.266V686.874H276.682V708.474H242.266V722.874H276.682V744.474H242.266V758.874H276.682V787.674H305.482V822.162H319.882V787.674H341.482V822.162H355.882V787.674H377.482V822.162H391.882V787.674H413.482V822.162H427.882V787.674H449.482V822.162H463.882V787.674H492.682V758.874H527.098V744.474H492.682V722.874H527.098V708.474H492.682V686.874H527.098V672.474H492.682V650.874H527.098V636.474H492.682V614.874H527.098ZM442.282 744.474H327.082C325.172 744.474 323.341 743.716 321.99 742.365C320.64 741.015 319.882 739.184 319.882 737.274V622.074C319.882 620.165 320.64 618.333 321.99 616.983C323.341 615.633 325.172 614.874 327.082 614.874H442.282C444.191 614.874 446.023 615.633 447.373 616.983C448.723 618.333 449.482 620.165 449.482 622.074V737.274C449.482 739.184 448.723 741.015 447.373 742.365C446.023 743.716 444.191 744.474 442.282 744.474Z" fill="url(#paint5_linear_1342_8)"/>
</g>
<defs>
<linearGradient id="paint0_linear_1342_8" x1="960" y1="0" x2="960" y2="1080" gradientUnits="userSpaceOnUse">
<stop stop-color="#323232"/>
<stop offset="1"/>
</linearGradient>
<linearGradient id="paint1_linear_1342_8" x1="387.916" y1="204.651" x2="1530.23" y2="204.651" gradientUnits="userSpaceOnUse">
<stop stop-color="#0095D5"/>
<stop offset="0.464053" stop-color="#7272E1"/>
<stop offset="1" stop-color="#7E6EE3"/>
</linearGradient>
<linearGradient id="paint2_linear_1342_8" x1="951.5" y1="226.021" x2="951.5" y2="334.021" gradientUnits="userSpaceOnUse">
<stop stop-color="#B32BD5"/>
<stop offset="1" stop-color="#DA3C8E"/>
</linearGradient>
<linearGradient id="paint3_linear_1342_8" x1="1561.4" y1="499" x2="1561.4" y2="861.826" gradientUnits="userSpaceOnUse">
<stop stop-color="#B32BD5"/>
<stop offset="1" stop-color="#DA3C8E"/>
</linearGradient>
<linearGradient id="paint4_linear_1342_8" x1="341.715" y1="723.018" x2="428.979" y2="723.018" gradientUnits="userSpaceOnUse">
<stop stop-color="#0095D5"/>
<stop offset="0.464053" stop-color="#7272E1"/>
<stop offset="1" stop-color="#7E6EE3"/>
</linearGradient>
<linearGradient id="paint5_linear_1342_8" x1="243" y1="822.875" x2="530.68" y2="822.875" gradientUnits="userSpaceOnUse">
<stop stop-color="#0095D5"/>
<stop offset="0.464053" stop-color="#7272E1"/>
<stop offset="1" stop-color="#7E6EE3"/>
</linearGradient>
<clipPath id="clip0_1342_8">
<rect width="1920" height="1080" fill="white"/>
</clipPath>
</defs>
</svg>
