<svg width="1920" height="1080" viewBox="0 0 1920 1080" fill="none" xmlns="http://www.w3.org/2000/svg">
<g clip-path="url(#clip0_1246_89)">
<path d="M1920 0H0V1080H1920V0Z" fill="url(#paint0_linear_1246_89)" fill-opacity="0.5"/>
<path d="M408.052 161.514C408.052 158.671 407.492 156.485 406.371 154.954C405.278 153.396 403.816 152.316 401.984 151.715C400.153 151.114 398.144 150.813 395.957 150.813H386.322V171.518H395.629C397.023 171.518 398.445 171.381 399.893 171.108C401.342 170.835 402.681 170.343 403.911 169.632C405.169 168.921 406.166 167.924 406.904 166.639C407.67 165.327 408.052 163.619 408.052 161.514ZM405.797 135.52C405.797 132.322 404.8 130.053 402.804 128.714C400.836 127.347 398.144 126.664 394.727 126.664H386.322V144.95H395.424C398.759 144.95 401.315 144.212 403.091 142.736C404.895 141.233 405.797 138.827 405.797 135.52ZM415.555 161.268C415.555 164.329 414.94 166.899 413.71 168.976C412.508 171.053 410.881 172.707 408.831 173.937C406.809 175.167 404.54 176.055 402.025 176.602C399.538 177.121 396.996 177.381 394.399 177.381H379.229V120.924H393.128C395.616 120.924 398.035 121.156 400.385 121.621C402.763 122.058 404.895 122.824 406.781 123.917C408.695 124.983 410.225 126.432 411.373 128.263C412.521 130.094 413.095 132.39 413.095 135.151C413.095 137.584 412.59 139.647 411.578 141.342C410.594 143.009 409.296 144.349 407.683 145.36C406.098 146.371 404.403 147.082 402.599 147.492C404.704 147.82 406.74 148.462 408.708 149.419C410.704 150.348 412.344 151.77 413.628 153.683C414.913 155.569 415.555 158.097 415.555 161.268ZM435.613 134.208V164.794C435.613 167.637 436.201 169.687 437.376 170.944C438.552 172.201 440.383 172.83 442.87 172.83C445.248 172.83 447.49 172.16 449.594 170.821C451.726 169.454 453.38 167.842 454.555 165.983V134.208H461.443V177.381H455.58L455.006 171.559C453.312 173.746 451.221 175.427 448.733 176.602C446.246 177.75 443.731 178.324 441.189 178.324C437.007 178.324 433.878 177.217 431.8 175.003C429.75 172.762 428.725 169.632 428.725 165.614V134.208H435.613ZM499.746 134.208V171.928H511.923V177.381H479.533V171.928H492.858V139.661H479.943V134.208H499.746ZM494.252 113.995C495.783 113.995 496.999 114.46 497.901 115.389C498.831 116.318 499.295 117.453 499.295 118.792C499.295 120.186 498.831 121.361 497.901 122.318C496.999 123.247 495.783 123.712 494.252 123.712C492.804 123.712 491.615 123.247 490.685 122.318C489.756 121.361 489.291 120.186 489.291 118.792C489.291 117.453 489.756 116.318 490.685 115.389C491.615 114.46 492.804 113.995 494.252 113.995ZM543.871 116.824V166.721C543.871 168.853 544.527 170.37 545.839 171.272C547.179 172.147 548.901 172.584 551.005 172.584C552.317 172.584 553.561 172.447 554.736 172.174C555.912 171.901 557.087 171.532 558.262 171.067L560.107 176.11C558.932 176.684 557.47 177.19 555.72 177.627C553.998 178.092 552.044 178.324 549.857 178.324C546.031 178.324 542.928 177.272 540.55 175.167C538.172 173.035 536.983 170.097 536.983 166.352V122.277H523.74V116.824H543.871ZM602.059 115.963L608.947 116.824V177.381H602.92L602.264 171.682C600.652 173.978 598.793 175.659 596.688 176.725C594.611 177.791 592.383 178.324 590.005 178.324C586.261 178.324 583.172 177.381 580.739 175.495C578.307 173.609 576.503 170.985 575.327 167.623C574.152 164.234 573.564 160.311 573.564 155.856C573.564 151.537 574.234 147.683 575.573 144.294C576.913 140.877 578.84 138.199 581.354 136.258C583.896 134.29 586.944 133.306 590.497 133.306C592.985 133.306 595.171 133.743 597.057 134.618C598.943 135.465 600.611 136.723 602.059 138.39V115.963ZM592.301 138.841C588.693 138.841 585.919 140.249 583.978 143.064C582.038 145.879 581.067 150.143 581.067 155.856C581.067 159.573 581.464 162.689 582.256 165.204C583.049 167.719 584.211 169.605 585.741 170.862C587.299 172.119 589.199 172.748 591.44 172.748C593.9 172.748 595.991 172.051 597.713 170.657C599.463 169.263 600.911 167.691 602.059 165.942V144.376C600.884 142.627 599.463 141.274 597.795 140.317C596.128 139.333 594.297 138.841 592.301 138.841ZM705.479 167.951C705.479 169.673 705.766 170.93 706.34 171.723C706.914 172.516 707.803 173.103 709.005 173.486L707.324 178.324C705.466 178.078 703.839 177.49 702.445 176.561C701.051 175.604 700.04 174.169 699.411 172.256C697.853 174.251 695.913 175.768 693.589 176.807C691.266 177.818 688.697 178.324 685.881 178.324C681.563 178.324 678.16 177.108 675.672 174.675C673.185 172.242 671.941 169.017 671.941 164.999C671.941 160.544 673.677 157.127 677.148 154.749C680.62 152.371 685.635 151.182 692.195 151.182H698.55V147.574C698.55 144.458 697.635 142.258 695.803 140.973C693.999 139.661 691.485 139.005 688.259 139.005C686.838 139.005 685.171 139.183 683.257 139.538C681.344 139.866 679.267 140.426 677.025 141.219L675.221 136.012C677.873 135.028 680.36 134.331 682.683 133.921C685.007 133.511 687.221 133.306 689.325 133.306C694.71 133.306 698.742 134.563 701.42 137.078C704.126 139.565 705.479 142.955 705.479 147.246V167.951ZM687.644 173.076C689.776 173.076 691.813 172.543 693.753 171.477C695.694 170.384 697.293 168.88 698.55 166.967V155.856H692.318C687.562 155.856 684.2 156.676 682.232 158.316C680.292 159.956 679.321 162.156 679.321 164.917C679.321 167.596 680.005 169.632 681.371 171.026C682.765 172.393 684.856 173.076 687.644 173.076ZM787.579 172.625C790.886 172.625 793.497 172.01 795.41 170.78C797.351 169.523 798.321 167.855 798.321 165.778C798.321 164.466 798.075 163.332 797.583 162.375C797.118 161.418 796.148 160.557 794.672 159.792C793.196 159.027 790.927 158.261 787.866 157.496C784.887 156.758 782.29 155.911 780.076 154.954C777.889 153.97 776.181 152.699 774.951 151.141C773.748 149.583 773.147 147.56 773.147 145.073C773.147 142.64 773.83 140.549 775.197 138.8C776.591 137.023 778.518 135.67 780.978 134.741C783.438 133.784 786.294 133.306 789.547 133.306C793.018 133.306 796.039 133.771 798.608 134.7C801.205 135.602 803.405 136.723 805.209 138.062L802.175 142.736C800.535 141.615 798.731 140.7 796.763 139.989C794.795 139.251 792.417 138.882 789.629 138.882C786.24 138.882 783.834 139.415 782.413 140.481C780.992 141.52 780.281 142.873 780.281 144.54C780.281 145.797 780.623 146.85 781.306 147.697C782.017 148.517 783.206 149.269 784.873 149.952C786.54 150.608 788.836 151.332 791.761 152.125C794.576 152.863 797.023 153.751 799.1 154.79C801.205 155.829 802.845 157.195 804.02 158.89C805.195 160.585 805.783 162.771 805.783 165.45C805.783 168.511 804.908 170.999 803.159 172.912C801.41 174.798 799.141 176.178 796.353 177.053C793.592 177.9 790.668 178.324 787.579 178.324C783.67 178.324 780.336 177.764 777.575 176.643C774.842 175.495 772.546 174.115 770.687 172.502L774.623 167.951C776.318 169.345 778.258 170.479 780.445 171.354C782.659 172.201 785.037 172.625 787.579 172.625ZM843.922 134.208V171.928H856.099V177.381H823.709V171.928H837.034V139.661H824.119V134.208H843.922ZM838.428 113.995C839.959 113.995 841.175 114.46 842.077 115.389C843.006 116.318 843.471 117.453 843.471 118.792C843.471 120.186 843.006 121.361 842.077 122.318C841.175 123.247 839.959 123.712 838.428 123.712C836.979 123.712 835.79 123.247 834.861 122.318C833.932 121.361 833.467 120.186 833.467 118.792C833.467 117.453 833.932 116.318 834.861 115.389C835.79 114.46 836.979 113.995 838.428 113.995ZM899.691 133.306C901.085 133.306 902.411 133.607 903.668 134.208C904.953 134.809 906.005 135.971 906.825 137.693C907.645 139.415 908.055 141.93 908.055 145.237V177.381H901.659V146.344C901.659 143.638 901.495 141.684 901.167 140.481C900.839 139.278 899.896 138.677 898.338 138.677C897.053 138.677 895.769 139.087 894.484 139.907C893.227 140.7 891.997 142.012 890.794 143.843V177.381H884.357V146.344C884.357 143.638 884.193 141.684 883.865 140.481C883.537 139.278 882.594 138.677 881.036 138.677C879.697 138.677 878.398 139.087 877.141 139.907C875.911 140.7 874.695 142.012 873.492 143.843V177.381H867.137V134.208H872.549L872.959 139.21C874.134 137.543 875.446 136.149 876.895 135.028C878.371 133.88 880.189 133.306 882.348 133.306C883.988 133.306 885.532 133.702 886.981 134.495C888.43 135.26 889.496 136.764 890.179 139.005C891.354 137.31 892.68 135.944 894.156 134.905C895.632 133.839 897.477 133.306 899.691 133.306ZM939.716 133.306C943.543 133.306 946.59 134.235 948.859 136.094C951.155 137.953 952.809 140.577 953.82 143.966C954.831 147.328 955.337 151.264 955.337 155.774C955.337 160.12 954.722 164.001 953.492 167.418C952.289 170.807 950.458 173.472 947.998 175.413C945.538 177.354 942.436 178.324 938.691 178.324C933.962 178.324 930.163 176.657 927.293 173.322V193.904L920.405 194.765V134.208H926.268L926.842 140.235C928.427 138.021 930.313 136.313 932.5 135.11C934.714 133.907 937.119 133.306 939.716 133.306ZM938.076 138.841C935.698 138.841 933.593 139.565 931.762 141.014C929.958 142.435 928.468 144.021 927.293 145.77V167.172C928.414 168.839 929.821 170.165 931.516 171.149C933.238 172.106 935.124 172.584 937.174 172.584C940.755 172.584 943.447 171.217 945.251 168.484C947.055 165.751 947.957 161.5 947.957 155.733C947.957 151.961 947.602 148.831 946.891 146.344C946.18 143.829 945.101 141.957 943.652 140.727C942.203 139.47 940.345 138.841 938.076 138.841ZM986.383 116.824V166.721C986.383 168.853 987.039 170.37 988.351 171.272C989.69 172.147 991.412 172.584 993.517 172.584C994.829 172.584 996.073 172.447 997.248 172.174C998.423 171.901 999.599 171.532 1000.77 171.067L1002.62 176.11C1001.44 176.684 999.981 177.19 998.232 177.627C996.51 178.092 994.556 178.324 992.369 178.324C988.542 178.324 985.44 177.272 983.062 175.167C980.684 173.035 979.495 170.097 979.495 166.352V122.277H966.252V116.824H986.383ZM1024.15 158.234C1024.29 161.569 1024.93 164.302 1026.08 166.434C1027.23 168.539 1028.75 170.097 1030.63 171.108C1032.52 172.092 1034.57 172.584 1036.78 172.584C1039 172.584 1040.99 172.256 1042.77 171.6C1044.57 170.944 1046.42 169.974 1048.3 168.689L1051.54 173.24C1049.52 174.825 1047.21 176.069 1044.61 176.971C1042.04 177.873 1039.41 178.324 1036.7 178.324C1032.52 178.324 1028.95 177.381 1026 175.495C1023.05 173.609 1020.79 170.985 1019.23 167.623C1017.7 164.234 1016.94 160.311 1016.94 155.856C1016.94 151.483 1017.72 147.601 1019.27 144.212C1020.83 140.823 1023.02 138.158 1025.83 136.217C1028.65 134.276 1031.97 133.306 1035.8 133.306C1039.43 133.306 1042.56 134.167 1045.19 135.889C1047.81 137.584 1049.82 140.016 1051.21 143.187C1052.63 146.33 1053.35 150.089 1053.35 154.462C1053.35 155.2 1053.33 155.897 1053.3 156.553C1053.28 157.182 1053.24 157.742 1053.18 158.234H1024.15ZM1035.88 138.964C1032.68 138.964 1030 140.098 1027.84 142.367C1025.71 144.636 1024.49 148.148 1024.19 152.904H1046.7C1046.62 148.285 1045.61 144.813 1043.67 142.49C1041.73 140.139 1039.13 138.964 1035.88 138.964ZM1136.59 172.379C1138.75 172.379 1140.76 172.024 1142.62 171.313C1144.51 170.602 1146.24 169.7 1147.83 168.607L1151.19 173.117C1149.3 174.73 1147.03 176.001 1144.38 176.93C1141.73 177.859 1139.13 178.324 1136.59 178.324C1132.3 178.324 1128.64 177.408 1125.6 175.577C1122.6 173.718 1120.3 171.122 1118.72 167.787C1117.13 164.425 1116.34 160.489 1116.34 155.979C1116.34 151.66 1117.13 147.793 1118.72 144.376C1120.33 140.932 1122.64 138.226 1125.65 136.258C1128.68 134.29 1132.36 133.306 1136.67 133.306C1139.44 133.306 1142.02 133.73 1144.42 134.577C1146.86 135.397 1149.08 136.641 1151.11 138.308L1147.74 142.9C1145.91 141.615 1144.07 140.659 1142.21 140.03C1140.38 139.374 1138.51 139.046 1136.59 139.046C1132.88 139.046 1129.81 140.44 1127.41 143.228C1125 146.016 1123.8 150.266 1123.8 155.979C1123.8 159.806 1124.35 162.935 1125.44 165.368C1126.56 167.773 1128.08 169.55 1129.99 170.698C1131.93 171.819 1134.13 172.379 1136.59 172.379ZM1173.13 116.168V140.112C1174.83 137.843 1176.9 136.149 1179.36 135.028C1181.85 133.88 1184.37 133.306 1186.91 133.306C1191.12 133.306 1194.19 134.427 1196.13 136.668C1198.07 138.909 1199.04 142.025 1199.04 146.016V177.381H1192.16V146.18C1192.16 143.583 1191.56 141.697 1190.35 140.522C1189.15 139.319 1187.26 138.718 1184.69 138.718C1183.05 138.718 1181.5 139.087 1180.02 139.825C1178.54 140.563 1177.22 141.479 1176.04 142.572C1174.87 143.665 1173.9 144.786 1173.13 145.934V177.381H1166.24V116.906L1173.13 116.168ZM1246.33 167.951C1246.33 169.673 1246.61 170.93 1247.19 171.723C1247.76 172.516 1248.65 173.103 1249.85 173.486L1248.17 178.324C1246.31 178.078 1244.69 177.49 1243.29 176.561C1241.9 175.604 1240.89 174.169 1240.26 172.256C1238.7 174.251 1236.76 175.768 1234.44 176.807C1232.11 177.818 1229.54 178.324 1226.73 178.324C1222.41 178.324 1219.01 177.108 1216.52 174.675C1214.03 172.242 1212.79 169.017 1212.79 164.999C1212.79 160.544 1214.52 157.127 1218 154.749C1221.47 152.371 1226.48 151.182 1233.04 151.182H1239.4V147.574C1239.4 144.458 1238.48 142.258 1236.65 140.973C1234.85 139.661 1232.33 139.005 1229.11 139.005C1227.69 139.005 1226.02 139.183 1224.1 139.538C1222.19 139.866 1220.11 140.426 1217.87 141.219L1216.07 136.012C1218.72 135.028 1221.21 134.331 1223.53 133.921C1225.85 133.511 1228.07 133.306 1230.17 133.306C1235.56 133.306 1239.59 134.563 1242.27 137.078C1244.97 139.565 1246.33 142.955 1246.33 147.246V167.951ZM1228.49 173.076C1230.62 173.076 1232.66 172.543 1234.6 171.477C1236.54 170.384 1238.14 168.88 1239.4 166.967V155.856H1233.17C1228.41 155.856 1225.05 156.676 1223.08 158.316C1221.14 159.956 1220.17 162.156 1220.17 164.917C1220.17 167.596 1220.85 169.632 1222.22 171.026C1223.61 172.393 1225.7 173.076 1228.49 173.076ZM1298.86 175.208C1297.38 176.192 1295.59 176.957 1293.49 177.504C1291.38 178.051 1289.32 178.324 1287.29 178.324C1282.65 178.324 1279.07 177.108 1276.55 174.675C1274.04 172.242 1272.78 169.113 1272.78 165.286V139.538H1262.86V134.208H1272.78V124.409L1279.67 123.589V134.208H1294.59L1293.77 139.538H1279.67V165.204C1279.67 167.609 1280.3 169.441 1281.55 170.698C1282.84 171.955 1284.96 172.584 1287.91 172.584C1289.52 172.584 1291.01 172.393 1292.38 172.01C1293.75 171.627 1295.02 171.135 1296.19 170.534L1298.86 175.208ZM1377.59 172.625C1380.9 172.625 1383.51 172.01 1385.43 170.78C1387.37 169.523 1388.34 167.855 1388.34 165.778C1388.34 164.466 1388.09 163.332 1387.6 162.375C1387.13 161.418 1386.16 160.557 1384.69 159.792C1383.21 159.027 1380.94 158.261 1377.88 157.496C1374.9 156.758 1372.31 155.911 1370.09 154.954C1367.91 153.97 1366.2 152.699 1364.97 151.141C1363.76 149.583 1363.16 147.56 1363.16 145.073C1363.16 142.64 1363.85 140.549 1365.21 138.8C1366.61 137.023 1368.53 135.67 1370.99 134.741C1373.45 133.784 1376.31 133.306 1379.56 133.306C1383.03 133.306 1386.05 133.771 1388.62 134.7C1391.22 135.602 1393.42 136.723 1395.22 138.062L1392.19 142.736C1390.55 141.615 1388.75 140.7 1386.78 139.989C1384.81 139.251 1382.43 138.882 1379.64 138.882C1376.26 138.882 1373.85 139.415 1372.43 140.481C1371.01 141.52 1370.3 142.873 1370.3 144.54C1370.3 145.797 1370.64 146.85 1371.32 147.697C1372.03 148.517 1373.22 149.269 1374.89 149.952C1376.56 150.608 1378.85 151.332 1381.78 152.125C1384.59 152.863 1387.04 153.751 1389.12 154.79C1391.22 155.829 1392.86 157.195 1394.04 158.89C1395.21 160.585 1395.8 162.771 1395.8 165.45C1395.8 168.511 1394.92 170.999 1393.17 172.912C1391.43 174.798 1389.16 176.178 1386.37 177.053C1383.61 177.9 1380.68 178.324 1377.59 178.324C1373.69 178.324 1370.35 177.764 1367.59 176.643C1364.86 175.495 1362.56 174.115 1360.7 172.502L1364.64 167.951C1366.33 169.345 1368.27 170.479 1370.46 171.354C1372.67 172.201 1375.05 172.625 1377.59 172.625ZM1417.5 158.234C1417.63 161.569 1418.28 164.302 1419.42 166.434C1420.57 168.539 1422.09 170.097 1423.97 171.108C1425.86 172.092 1427.91 172.584 1430.12 172.584C1432.34 172.584 1434.33 172.256 1436.11 171.6C1437.91 170.944 1439.76 169.974 1441.65 168.689L1444.88 173.24C1442.86 174.825 1440.55 176.069 1437.96 176.971C1435.39 177.873 1432.75 178.324 1430.04 178.324C1425.86 178.324 1422.29 177.381 1419.34 175.495C1416.39 173.609 1414.13 170.985 1412.58 167.623C1411.05 164.234 1410.28 160.311 1410.28 155.856C1410.28 151.483 1411.06 147.601 1412.62 144.212C1414.18 140.823 1416.36 138.158 1419.18 136.217C1421.99 134.276 1425.31 133.306 1429.14 133.306C1432.78 133.306 1435.91 134.167 1438.53 135.889C1441.15 137.584 1443.16 140.016 1444.56 143.187C1445.98 146.33 1446.69 150.089 1446.69 154.462C1446.69 155.2 1446.68 155.897 1446.65 156.553C1446.62 157.182 1446.58 157.742 1446.52 158.234H1417.5ZM1429.22 138.964C1426.02 138.964 1423.35 140.098 1421.19 142.367C1419.05 144.636 1417.84 148.148 1417.54 152.904H1440.05C1439.96 148.285 1438.95 144.813 1437.01 142.49C1435.07 140.139 1432.48 138.964 1429.22 138.964ZM1461.66 177.381V172.092H1468.39V139.497H1461.66V134.208H1473.63L1474.91 144.417C1476.57 140.864 1478.6 138.117 1480.97 136.176C1483.35 134.235 1486.5 133.265 1490.4 133.265C1491.61 133.265 1492.67 133.361 1493.6 133.552C1494.56 133.716 1495.53 133.935 1496.51 134.208L1494.5 140.358C1493.6 140.112 1492.78 139.934 1492.04 139.825C1491.31 139.688 1490.46 139.62 1489.5 139.62C1486.19 139.62 1483.35 140.795 1480.97 143.146C1478.6 145.497 1476.7 149.05 1475.27 153.806V172.092H1484.05V177.381H1461.66ZM1489.87 148.804V139.415L1490.57 134.208H1496.51L1495.53 148.804H1489.87ZM1546.42 134.208L1530.72 177.381H1522.72L1507.14 134.208H1514.44L1526.94 171.108L1539.28 134.208H1546.42ZM1565 158.234C1565.14 161.569 1565.78 164.302 1566.93 166.434C1568.08 168.539 1569.59 170.097 1571.48 171.108C1573.36 172.092 1575.41 172.584 1577.63 172.584C1579.84 172.584 1581.84 172.256 1583.61 171.6C1585.42 170.944 1587.26 169.974 1589.15 168.689L1592.39 173.24C1590.37 174.825 1588.06 176.069 1585.46 176.971C1582.89 177.873 1580.25 178.324 1577.55 178.324C1573.36 178.324 1569.8 177.381 1566.85 175.495C1563.89 173.609 1561.64 170.985 1560.08 167.623C1558.55 164.234 1557.78 160.311 1557.78 155.856C1557.78 151.483 1558.56 147.601 1560.12 144.212C1561.68 140.823 1563.87 138.158 1566.68 136.217C1569.5 134.276 1572.82 133.306 1576.64 133.306C1580.28 133.306 1583.41 134.167 1586.03 135.889C1588.66 137.584 1590.67 140.016 1592.06 143.187C1593.48 146.33 1594.19 150.089 1594.19 154.462C1594.19 155.2 1594.18 155.897 1594.15 156.553C1594.12 157.182 1594.08 157.742 1594.03 158.234H1565ZM1576.73 138.964C1573.53 138.964 1570.85 140.098 1568.69 142.367C1566.56 144.636 1565.34 148.148 1565.04 152.904H1587.55C1587.47 148.285 1586.46 144.813 1584.52 142.49C1582.58 140.139 1579.98 138.964 1576.73 138.964ZM1609.17 177.381V172.092H1615.89V139.497H1609.17V134.208H1621.14L1622.41 144.417C1624.08 140.864 1626.1 138.117 1628.48 136.176C1630.86 134.235 1634 133.265 1637.91 133.265C1639.11 133.265 1640.18 133.361 1641.11 133.552C1642.06 133.716 1643.03 133.935 1644.02 134.208L1642.01 140.358C1641.11 140.112 1640.29 139.934 1639.55 139.825C1638.81 139.688 1637.96 139.62 1637.01 139.62C1633.7 139.62 1630.86 140.795 1628.48 143.146C1626.1 145.497 1624.2 149.05 1622.78 153.806V172.092H1631.55V177.381H1609.17ZM1637.37 148.804V139.415L1638.07 134.208H1644.02L1643.03 148.804H1637.37Z" fill="url(#paint1_linear_1246_89)"/>
<path d="M868.506 283.848V321.568H880.683V327.021H848.293V321.568H861.618V289.301H848.703V283.848H868.506ZM863.012 263.635C864.543 263.635 865.759 264.1 866.661 265.029C867.59 265.958 868.055 267.093 868.055 268.432C868.055 269.826 867.59 271.001 866.661 271.958C865.759 272.887 864.543 273.352 863.012 273.352C861.563 273.352 860.374 272.887 859.445 271.958C858.516 271.001 858.051 269.826 858.051 268.432C858.051 267.093 858.516 265.958 859.445 265.029C860.374 264.1 861.563 263.635 863.012 263.635ZM895.821 327.021V283.848H901.684L902.217 289.834C903.966 287.62 906.153 285.925 908.777 284.75C911.428 283.547 913.998 282.946 916.485 282.946C920.722 282.946 923.797 284.067 925.71 286.308C927.651 288.549 928.621 291.665 928.621 295.656V327.021H921.733V300.74C921.733 297.788 921.569 295.41 921.241 293.606C920.913 291.775 920.23 290.449 919.191 289.629C918.152 288.782 916.54 288.358 914.353 288.358C912.658 288.358 911.059 288.727 909.556 289.465C908.08 290.203 906.754 291.132 905.579 292.253C904.431 293.346 903.474 294.453 902.709 295.574V327.021H895.821ZM1029.99 286.39C1029.99 289.205 1029.38 291.665 1028.15 293.77C1026.94 295.875 1025.3 297.61 1023.23 298.977C1021.15 300.344 1018.81 301.341 1016.22 301.97L1032.94 327.021H1024.42L1009 302.79H1001.37V327.021H994.239V270.564H1008.75C1015.72 270.564 1021 271.903 1024.58 274.582C1028.19 277.233 1029.99 281.169 1029.99 286.39ZM1022.37 286.39C1022.37 282.755 1021.33 280.158 1019.25 278.6C1017.17 277.015 1013.95 276.222 1009.57 276.222H1001.37V297.214H1009.57C1013.62 297.214 1016.76 296.394 1019 294.754C1021.24 293.087 1022.37 290.299 1022.37 286.39ZM1050.21 283.848V314.434C1050.21 317.277 1050.8 319.327 1051.98 320.584C1053.15 321.841 1054.98 322.47 1057.47 322.47C1059.85 322.47 1062.09 321.8 1064.19 320.461C1066.33 319.094 1067.98 317.482 1069.15 315.623V283.848H1076.04V327.021H1070.18L1069.61 321.199C1067.91 323.386 1065.82 325.067 1063.33 326.242C1060.85 327.39 1058.33 327.964 1055.79 327.964C1051.61 327.964 1048.48 326.857 1046.4 324.643C1044.35 322.402 1043.32 319.272 1043.32 315.254V283.848H1050.21ZM1107.17 322.265C1110.48 322.265 1113.09 321.65 1115 320.42C1116.94 319.163 1117.91 317.495 1117.91 315.418C1117.91 314.106 1117.67 312.972 1117.17 312.015C1116.71 311.058 1115.74 310.197 1114.26 309.432C1112.79 308.667 1110.52 307.901 1107.46 307.136C1104.48 306.398 1101.88 305.551 1099.67 304.594C1097.48 303.61 1095.77 302.339 1094.54 300.781C1093.34 299.223 1092.74 297.2 1092.74 294.713C1092.74 292.28 1093.42 290.189 1094.79 288.44C1096.18 286.663 1098.11 285.31 1100.57 284.381C1103.03 283.424 1105.89 282.946 1109.14 282.946C1112.61 282.946 1115.63 283.411 1118.2 284.34C1120.8 285.242 1123 286.363 1124.8 287.702L1121.77 292.376C1120.13 291.255 1118.32 290.34 1116.35 289.629C1114.39 288.891 1112.01 288.522 1109.22 288.522C1105.83 288.522 1103.43 289.055 1102 290.121C1100.58 291.16 1099.87 292.513 1099.87 294.18C1099.87 295.437 1100.21 296.49 1100.9 297.337C1101.61 298.157 1102.8 298.909 1104.46 299.592C1106.13 300.248 1108.43 300.972 1111.35 301.765C1114.17 302.503 1116.61 303.391 1118.69 304.43C1120.8 305.469 1122.44 306.835 1123.61 308.53C1124.79 310.225 1125.37 312.411 1125.37 315.09C1125.37 318.151 1124.5 320.639 1122.75 322.552C1121 324.438 1118.73 325.818 1115.94 326.693C1113.18 327.54 1110.26 327.964 1107.17 327.964C1103.26 327.964 1099.93 327.404 1097.17 326.283C1094.43 325.135 1092.14 323.755 1090.28 322.142L1094.21 317.591C1095.91 318.985 1097.85 320.119 1100.04 320.994C1102.25 321.841 1104.63 322.265 1107.17 322.265ZM1175.94 324.848C1174.46 325.832 1172.67 326.597 1170.57 327.144C1168.46 327.691 1166.4 327.964 1164.37 327.964C1159.73 327.964 1156.15 326.748 1153.63 324.315C1151.12 321.882 1149.86 318.753 1149.86 314.926V289.178H1139.94V283.848H1149.86V274.049L1156.75 273.229V283.848H1171.67L1170.85 289.178H1156.75V314.844C1156.75 317.249 1157.38 319.081 1158.63 320.338C1159.92 321.595 1162.04 322.224 1164.99 322.224C1166.6 322.224 1168.09 322.033 1169.46 321.65C1170.83 321.267 1172.1 320.775 1173.27 320.174L1175.94 324.848Z" fill="url(#paint2_linear_1246_89)"/>
<path d="M1704.21 716.975L1688.99 707.545C1688.86 706.061 1688.71 704.581 1688.56 703.107L1701.66 690.903C1702.99 689.662 1703.59 687.824 1703.23 686.049C1702.88 684.264 1701.63 682.794 1699.92 682.166L1683.18 675.925C1682.76 674.476 1682.32 673.037 1681.87 671.592L1692.3 657.099C1693.37 655.626 1693.59 653.709 1692.89 652.037C1692.2 650.363 1690.68 649.163 1688.91 648.869L1671.26 645.998C1670.57 644.66 1669.86 643.342 1669.14 642.045L1676.56 625.75C1677.32 624.093 1677.16 622.179 1676.15 620.654C1675.14 619.142 1673.43 618.258 1671.6 618.327L1653.68 618.951C1652.75 617.793 1651.81 616.646 1650.85 615.519L1654.98 598.08C1655.39 596.308 1654.87 594.439 1653.58 593.157C1652.3 591.874 1650.44 591.343 1648.66 591.759L1631.22 595.885C1630.09 594.928 1628.94 593.982 1627.78 593.056L1628.41 575.132C1628.47 573.318 1627.59 571.595 1626.08 570.59C1624.56 569.577 1622.65 569.425 1620.98 570.177L1604.72 577.597C1603.41 576.875 1602.09 576.161 1600.77 575.471L1597.89 557.824C1597.6 556.035 1596.4 554.516 1594.72 553.837C1593.05 553.14 1591.12 553.365 1589.66 554.426L1575.17 564.862C1573.74 564.408 1572.3 563.971 1570.87 563.555L1564.63 546.809C1563.99 545.103 1562.52 543.852 1560.75 543.498C1558.96 543.148 1557.14 543.741 1555.89 545.065L1543.69 558.171C1542.21 558.008 1540.73 557.859 1539.25 557.737L1529.82 542.482C1528.87 540.94 1527.18 540 1525.35 540C1523.52 540 1521.85 540.94 1520.91 542.482L1511.48 557.737C1510 557.859 1508.51 558.008 1507.04 558.171L1494.84 545.065C1493.6 543.741 1491.76 543.148 1489.98 543.498C1488.2 543.855 1486.73 545.103 1486.1 546.809L1479.86 563.555C1478.41 563.971 1476.98 564.411 1475.56 564.862L1461.07 554.426C1459.59 553.362 1457.67 553.137 1456.01 553.837C1454.33 554.53 1453.13 556.049 1452.84 557.824L1449.96 575.471C1448.63 576.161 1447.31 576.872 1446.01 577.597L1429.75 570.177C1428.09 569.421 1426.18 569.577 1424.65 570.59C1423.14 571.595 1422.25 573.318 1422.32 575.132L1422.95 593.056C1421.79 593.982 1420.64 594.928 1419.51 595.885L1402.07 591.759C1400.3 591.347 1398.43 591.874 1397.15 593.157C1395.86 594.443 1395.33 596.298 1395.75 598.08L1399.84 615.519C1398.89 616.649 1397.94 617.793 1397.02 618.951L1379.09 618.327C1377.29 618.275 1375.56 619.142 1374.55 620.654C1373.54 622.158 1373.39 624.086 1374.14 625.75L1381.56 642.045C1380.84 643.353 1380.12 644.67 1379.43 645.998L1361.79 648.869C1359.99 649.16 1358.48 650.359 1357.8 652.037C1357.1 653.719 1357.33 655.643 1358.39 657.099L1368.82 671.592C1368.37 673.024 1367.93 674.462 1367.51 675.925L1350.77 682.166C1349.07 682.801 1347.82 684.271 1347.46 686.049C1347.11 687.831 1347.7 689.655 1349.03 690.903L1362.14 703.107C1361.97 704.581 1361.83 706.064 1361.7 707.545L1346.48 716.975C1344.94 717.929 1344 719.614 1344 721.448C1344 723.282 1344.94 724.949 1346.48 725.886L1361.7 735.316C1361.83 736.8 1361.97 738.28 1362.14 739.754L1349.03 751.958C1347.7 753.195 1347.11 755.033 1347.46 756.812C1347.82 758.597 1349.07 760.064 1350.77 760.695L1367.51 766.935C1367.93 768.385 1368.37 769.823 1368.82 771.269L1358.39 785.761C1357.33 787.238 1357.1 789.156 1357.8 790.823C1358.5 792.505 1360.01 793.704 1361.82 793.992L1379.47 796.863C1380.16 798.201 1380.87 799.519 1381.59 800.815L1374.17 817.076C1373.42 818.73 1373.57 820.647 1374.59 822.172C1375.6 823.687 1377.32 824.571 1379.13 824.499L1397.02 823.871C1397.95 825.036 1398.89 826.177 1399.85 827.31L1395.76 844.75C1395.34 846.518 1395.86 848.355 1397.15 849.638C1398.43 850.931 1400.29 851.448 1402.08 851.032L1419.52 846.941C1420.65 847.905 1421.8 848.841 1422.95 849.763L1422.33 867.688C1422.26 869.501 1423.15 871.224 1424.66 872.229C1426.16 873.238 1428.09 873.391 1429.75 872.635L1446.01 865.216C1447.33 865.944 1448.64 866.651 1449.97 867.341L1452.84 884.988C1453.14 886.784 1454.33 888.303 1456.01 889.01C1457.69 889.707 1459.62 889.482 1461.07 888.424L1475.57 877.988C1477 878.442 1478.44 878.886 1479.9 879.302L1486.14 896.048C1486.78 897.747 1488.25 899.005 1490.03 899.352C1491.81 899.713 1493.63 899.116 1494.88 897.785L1507.08 884.68C1508.56 884.85 1510.04 884.992 1511.52 885.123L1520.95 900.344C1521.9 901.88 1523.59 902.826 1525.39 902.826C1527.19 902.826 1528.89 901.883 1529.86 900.344L1539.29 885.123C1540.78 884.992 1542.26 884.85 1543.73 884.68L1555.93 897.785C1557.17 899.116 1559.01 899.713 1560.79 899.352C1562.57 899.002 1564.04 897.747 1564.67 896.048L1570.91 879.302C1572.36 878.886 1573.8 878.442 1575.24 877.988L1589.74 888.424C1591.21 889.482 1593.13 889.707 1594.8 889.01C1596.48 888.32 1597.68 886.798 1597.97 884.988L1600.85 867.341C1602.18 866.651 1603.49 865.933 1604.8 865.216L1621.06 872.635C1622.71 873.391 1624.63 873.238 1626.16 872.229C1627.67 871.217 1628.55 869.501 1628.48 867.688L1627.86 849.763C1629.02 848.837 1630.16 847.905 1631.29 846.941L1648.73 851.032C1650.5 851.448 1652.37 850.931 1653.66 849.638C1654.95 848.352 1655.47 846.504 1655.05 844.75L1650.96 827.31C1651.92 826.177 1652.86 825.036 1653.78 823.871L1671.71 824.499C1673.52 824.571 1675.24 823.687 1676.25 822.172C1677.26 820.661 1677.42 818.736 1676.66 817.076L1669.24 800.815C1669.96 799.501 1670.68 798.184 1671.36 796.863L1689.01 793.992C1690.81 793.704 1692.32 792.505 1693 790.823C1693.69 789.149 1693.47 787.218 1692.41 785.761L1681.97 771.269C1682.42 769.837 1682.86 768.398 1683.28 766.935L1700.03 760.695C1701.73 760.057 1702.99 758.59 1703.33 756.812C1703.69 755.03 1703.1 753.206 1701.76 751.958L1688.66 739.754C1688.82 738.28 1688.96 736.796 1689.09 735.316L1704.31 725.886C1705.85 724.936 1706.8 723.247 1706.8 721.448C1706.8 719.648 1705.86 717.946 1704.32 716.975H1704.21ZM1602.28 843.522C1596.45 842.267 1592.78 836.519 1594.03 830.694C1595.27 824.87 1600.99 821.16 1606.82 822.408C1612.64 823.653 1616.35 829.411 1615.11 835.236C1613.86 841.061 1608.14 844.77 1602.31 843.522H1602.28ZM1597.11 808.505C1591.81 807.368 1586.57 810.745 1585.46 816.063L1580.05 841.303C1563.38 848.862 1544.69 853.091 1525.27 853.091C1505.3 853.091 1486.44 848.688 1469.45 840.783L1464.05 815.543C1462.91 810.239 1457.7 806.841 1452.4 807.985L1430.1 812.77C1425.98 808.505 1422.13 803.963 1418.59 799.179H1527.11C1528.34 799.179 1529.16 798.957 1529.16 797.841V759.356C1529.16 758.24 1528.34 758.018 1527.11 758.018H1495.39V733.714H1529.68C1532.81 733.714 1546.42 734.609 1550.76 752.02C1552.12 757.359 1555.13 774.764 1557.17 780.346C1559.21 786.587 1567.5 799.068 1576.34 799.068H1630.43C1631.04 799.068 1631.7 798.999 1632.39 798.874C1628.64 803.97 1624.52 808.79 1620.11 813.297L1597.3 808.408L1597.11 808.505ZM1446.99 843.002C1441.16 844.257 1435.44 840.548 1434.19 834.716C1432.95 828.891 1436.65 823.136 1442.48 821.888C1448.31 820.643 1454.03 824.353 1455.28 830.174C1456.52 835.999 1452.82 841.754 1446.99 843.002ZM1405.73 676.237C1408.14 681.681 1405.69 688.06 1400.25 690.487C1394.81 692.904 1388.46 690.445 1386.04 685.009C1383.61 679.573 1386.08 673.186 1391.52 670.76C1396.96 668.346 1403.3 670.801 1405.73 676.237ZM1393.08 706.193L1416.31 695.861C1421.26 693.659 1423.52 687.852 1421.3 682.894L1416.51 672.077H1435.31V756.673H1397.51C1394.22 745.093 1392.45 732.889 1392.45 720.269C1392.45 715.45 1392.71 710.7 1393.21 706.019L1393.08 706.193ZM1495.01 697.976V673.013H1539.73C1542.04 673.013 1556.06 675.686 1556.06 686.153C1556.06 694.855 1545.31 697.976 1536.47 697.976H1494.87H1495.01ZM1657.61 720.442C1657.61 723.757 1657.49 727.03 1657.25 730.289H1643.62C1642.26 730.289 1641.71 731.183 1641.71 732.518V738.759C1641.71 753.459 1633.43 756.683 1626.15 757.481C1619.21 758.261 1611.55 754.582 1610.61 750.339C1606.52 727.352 1599.73 722.464 1588.98 713.935C1602.33 705.475 1616.19 692.959 1616.19 676.144C1616.19 658.081 1603.82 646.709 1595.39 641.127C1583.53 633.326 1570.43 631.766 1566.89 631.766H1426.13C1445.23 610.478 1471.2 595.362 1500.33 589.814L1516.93 607.219C1520.68 611.137 1526.88 611.31 1530.84 607.538L1549.42 589.787C1588.25 597.033 1621.19 621.233 1640.26 654.62L1627.53 683.328C1625.34 688.285 1627.58 694.11 1632.52 696.294L1657 707.181C1657.42 711.515 1657.65 715.918 1657.65 720.356L1657.61 720.442ZM1516.85 575.173C1521.15 571.047 1527.98 571.221 1532.07 575.523C1536.16 579.822 1536.02 586.652 1531.71 590.778C1527.41 594.904 1520.58 594.731 1516.49 590.425C1512.4 586.126 1512.54 579.295 1516.85 575.17V575.173ZM1643.05 676.758C1645.46 671.314 1651.82 668.853 1657.27 671.28C1662.71 673.693 1665.17 680.086 1662.74 685.529C1660.33 690.972 1653.97 693.434 1648.53 691.007C1643.08 688.594 1640.62 682.201 1643.05 676.758Z" fill="url(#paint3_linear_1246_89)"/>
<path d="M394.035 593.906C417.435 597.546 441.355 597.546 464.755 593.906C455.915 576.746 444.475 565.826 429.395 565.826C412.235 565.826 401.315 579.866 394.035 593.906Z" fill="url(#paint4_linear_1246_89)"/>
<path d="M367 685.426H315C316.56 717.146 331.12 745.746 353.48 765.506C362.32 762.386 370.64 760.306 379.48 758.226C371.68 737.426 367.52 710.906 367 685.426Z" fill="url(#paint5_linear_1246_89)"/>
<path d="M367 675.026C367.52 647.466 371.68 621.986 379.48 601.706C370.64 599.626 362.32 597.546 353.48 594.426C331.12 614.706 316.56 643.306 315 675.026H367Z" fill="url(#paint6_linear_1246_89)"/>
<path d="M461.129 570.506C466.329 576.226 471.529 584.026 475.169 592.346C481.929 590.786 488.689 589.226 495.449 587.146C485.049 579.346 473.609 574.146 461.129 570.506Z" fill="url(#paint7_linear_1246_89)"/>
<path d="M429.398 607.426C416.398 607.426 402.878 606.386 389.878 603.786C382.078 623.026 377.918 647.986 377.398 675.026H481.398C480.878 649.026 476.718 623.546 468.918 603.786C455.918 606.386 442.398 607.426 429.398 607.426Z" fill="url(#paint8_linear_1246_89)"/>
<path d="M505.328 594.947C496.488 598.067 488.168 600.147 479.328 602.227C487.128 623.027 491.288 649.547 491.808 675.027H543.808C542.248 643.307 527.688 614.707 505.328 594.947Z" fill="url(#paint9_linear_1246_89)"/>
<path d="M383.643 768.626C376.883 770.186 370.123 771.746 363.363 773.826C373.763 781.106 385.203 786.826 397.683 790.466C392.483 784.226 387.803 776.946 383.643 768.626Z" fill="url(#paint10_linear_1246_89)"/>
<path d="M383.643 591.826C387.803 583.506 392.483 576.226 397.683 570.506C385.203 574.146 373.763 579.866 363.363 587.146C370.123 588.706 376.883 590.786 383.643 591.826Z" fill="url(#paint11_linear_1246_89)"/>
<path d="M450.195 764.466C431.475 762.906 412.755 763.426 394.035 766.546C402.355 783.706 414.315 794.626 429.395 794.626C437.715 794.626 444.475 791.506 450.195 786.306V764.466Z" fill="url(#paint12_linear_1246_89)"/>
<path d="M450.198 701.026H480.358C480.878 695.826 480.878 690.626 480.878 685.426H377.398C377.918 711.426 382.078 736.906 389.878 756.666C410.158 753.026 429.918 752.506 450.198 754.066V701.026Z" fill="url(#paint13_linear_1246_89)"/>
<path d="M541.713 701.026C542.753 695.826 543.273 690.626 543.273 685.426H491.793C491.793 690.626 491.273 695.826 491.273 701.026H541.713Z" fill="url(#paint14_linear_1246_89)"/>
<path d="M460.602 711.426V773.826H627.002V711.426H460.602ZM481.402 763.426H471.002V721.826H481.402V763.426ZM502.202 763.426H491.802V721.826H502.202V763.426ZM523.002 763.426H512.602V721.826H523.002V763.426ZM575.002 732.226H564.602V721.826H575.002V732.226ZM595.802 732.226H585.402V721.826H595.802V732.226ZM616.602 732.226H606.202V721.826H616.602V732.226Z" fill="url(#paint15_linear_1246_89)"/>
<path d="M627 846.626V784.226H460.6V846.626H538.6V867.426H315V877.826H627V867.426H549V846.626H627ZM606.2 794.626H616.6V805.026H606.2V794.626ZM585.4 794.626H595.8V805.026H585.4V794.626ZM564.6 794.626H575V805.026H564.6V794.626ZM481.4 836.226H471V794.626H481.4V836.226ZM502.2 836.226H491.8V794.626H502.2V836.226ZM523 836.226H512.6V794.626H523V836.226Z" fill="url(#paint16_linear_1246_89)"/>
</g>
<defs>
<linearGradient id="paint0_linear_1246_89" x1="960" y1="0" x2="960" y2="1080" gradientUnits="userSpaceOnUse">
<stop stop-color="#323232"/>
<stop offset="1"/>
</linearGradient>
<linearGradient id="paint1_linear_1246_89" x1="374.297" y1="204.651" x2="1666.09" y2="204.651" gradientUnits="userSpaceOnUse">
<stop stop-color="#0095D5"/>
<stop offset="0.464053" stop-color="#7272E1"/>
<stop offset="1" stop-color="#7E6EE3"/>
</linearGradient>
<linearGradient id="paint2_linear_1246_89" x1="1010.5" y1="246.021" x2="1010.5" y2="354.021" gradientUnits="userSpaceOnUse">
<stop stop-color="#B32BD5"/>
<stop offset="1" stop-color="#DA3C8E"/>
</linearGradient>
<linearGradient id="paint3_linear_1246_89" x1="1525.4" y1="540" x2="1525.4" y2="902.826" gradientUnits="userSpaceOnUse">
<stop stop-color="#B32BD5"/>
<stop offset="1" stop-color="#DA3C8E"/>
</linearGradient>
<linearGradient id="paint4_linear_1246_89" x1="394.217" y1="596.713" x2="465.645" y2="596.713" gradientUnits="userSpaceOnUse">
<stop stop-color="#0095D5"/>
<stop offset="0.464053" stop-color="#7272E1"/>
<stop offset="1" stop-color="#7E6EE3"/>
</linearGradient>
<linearGradient id="paint5_linear_1246_89" x1="315.166" y1="765.706" x2="380.291" y2="765.706" gradientUnits="userSpaceOnUse">
<stop stop-color="#0095D5"/>
<stop offset="0.464053" stop-color="#7272E1"/>
<stop offset="1" stop-color="#7E6EE3"/>
</linearGradient>
<linearGradient id="paint6_linear_1246_89" x1="315.166" y1="675.228" x2="380.291" y2="675.228" gradientUnits="userSpaceOnUse">
<stop stop-color="#0095D5"/>
<stop offset="0.464053" stop-color="#7272E1"/>
<stop offset="1" stop-color="#7E6EE3"/>
</linearGradient>
<linearGradient id="paint7_linear_1246_89" x1="461.217" y1="592.4" x2="495.881" y2="592.4" gradientUnits="userSpaceOnUse">
<stop stop-color="#0095D5"/>
<stop offset="0.464053" stop-color="#7272E1"/>
<stop offset="1" stop-color="#7E6EE3"/>
</linearGradient>
<linearGradient id="paint8_linear_1246_89" x1="377.667" y1="675.204" x2="482.707" y2="675.204" gradientUnits="userSpaceOnUse">
<stop stop-color="#0095D5"/>
<stop offset="0.464053" stop-color="#7272E1"/>
<stop offset="1" stop-color="#7E6EE3"/>
</linearGradient>
<linearGradient id="paint9_linear_1246_89" x1="479.494" y1="675.227" x2="544.619" y2="675.227" gradientUnits="userSpaceOnUse">
<stop stop-color="#0095D5"/>
<stop offset="0.464053" stop-color="#7272E1"/>
<stop offset="1" stop-color="#7E6EE3"/>
</linearGradient>
<linearGradient id="paint10_linear_1246_89" x1="363.452" y1="790.521" x2="398.115" y2="790.521" gradientUnits="userSpaceOnUse">
<stop stop-color="#0095D5"/>
<stop offset="0.464053" stop-color="#7272E1"/>
<stop offset="1" stop-color="#7E6EE3"/>
</linearGradient>
<linearGradient id="paint11_linear_1246_89" x1="363.452" y1="591.879" x2="398.115" y2="591.879" gradientUnits="userSpaceOnUse">
<stop stop-color="#0095D5"/>
<stop offset="0.464053" stop-color="#7272E1"/>
<stop offset="1" stop-color="#7E6EE3"/>
</linearGradient>
<linearGradient id="paint12_linear_1246_89" x1="394.18" y1="794.704" x2="450.902" y2="794.704" gradientUnits="userSpaceOnUse">
<stop stop-color="#0095D5"/>
<stop offset="0.464053" stop-color="#7272E1"/>
<stop offset="1" stop-color="#7E6EE3"/>
</linearGradient>
<linearGradient id="paint13_linear_1246_89" x1="377.665" y1="756.844" x2="482.18" y2="756.844" gradientUnits="userSpaceOnUse">
<stop stop-color="#0095D5"/>
<stop offset="0.464053" stop-color="#7272E1"/>
<stop offset="1" stop-color="#7E6EE3"/>
</linearGradient>
<linearGradient id="paint14_linear_1246_89" x1="491.408" y1="701.065" x2="543.927" y2="701.065" gradientUnits="userSpaceOnUse">
<stop stop-color="#0095D5"/>
<stop offset="0.464053" stop-color="#7272E1"/>
<stop offset="1" stop-color="#7E6EE3"/>
</linearGradient>
<linearGradient id="paint15_linear_1246_89" x1="461.031" y1="773.982" x2="629.095" y2="773.982" gradientUnits="userSpaceOnUse">
<stop stop-color="#0095D5"/>
<stop offset="0.464053" stop-color="#7272E1"/>
<stop offset="1" stop-color="#7E6EE3"/>
</linearGradient>
<linearGradient id="paint16_linear_1246_89" x1="315.804" y1="878.06" x2="630.924" y2="878.06" gradientUnits="userSpaceOnUse">
<stop stop-color="#0095D5"/>
<stop offset="0.464053" stop-color="#7272E1"/>
<stop offset="1" stop-color="#7E6EE3"/>
</linearGradient>
<clipPath id="clip0_1246_89">
<rect width="1920" height="1080" fill="white"/>
</clipPath>
</defs>
</svg>
