<svg width="1920" height="1080" viewBox="0 0 1920 1080" fill="none" xmlns="http://www.w3.org/2000/svg">
<g id="css-handbook">
<g id="background">
<rect width="1920" height="1080" fill="#323232"/>
<rect width="1920" height="1080" fill="url(#paint0_linear_432:17)" fill-opacity="0.15"/>
</g>
<path id="line2" d="M414.065 251.25C402.565 251.25 393.515 255.1 386.915 262.8C380.315 270.5 377.015 281.05 377.015 294.45C377.015 307.75 380.065 318.3 386.165 326.1C392.365 333.8 401.615 337.65 413.915 337.65C418.615 337.65 423.065 337.25 427.265 336.45C431.465 335.65 435.565 334.65 439.565 333.45V345.15C435.565 346.65 431.415 347.75 427.115 348.45C422.915 349.15 417.865 349.5 411.965 349.5C401.065 349.5 391.965 347.25 384.665 342.75C377.365 338.25 371.865 331.85 368.165 323.55C364.565 315.25 362.765 305.5 362.765 294.3C362.765 283.5 364.715 274 368.615 265.8C372.615 257.5 378.465 251.05 386.165 246.45C393.865 241.75 403.215 239.4 414.215 239.4C425.515 239.4 435.365 241.5 443.765 245.7L438.365 257.1C435.065 255.6 431.365 254.25 427.265 253.05C423.265 251.85 418.865 251.25 414.065 251.25ZM523.691 319.35C523.691 328.85 520.241 336.25 513.341 341.55C506.441 346.85 497.141 349.5 485.441 349.5C479.441 349.5 473.891 349.05 468.791 348.15C463.691 347.25 459.441 346 456.041 344.4V331.5C459.641 333.1 464.091 334.55 469.391 335.85C474.791 337.15 480.341 337.8 486.041 337.8C494.041 337.8 500.041 336.25 504.041 333.15C508.141 330.05 510.191 325.85 510.191 320.55C510.191 317.05 509.441 314.1 507.941 311.7C506.441 309.3 503.841 307.1 500.141 305.1C496.541 303 491.491 300.8 484.991 298.5C475.891 295.2 468.991 291.15 464.291 286.35C459.691 281.55 457.391 275 457.391 266.7C457.391 261 458.841 256.15 461.741 252.15C464.641 248.05 468.641 244.9 473.741 242.7C478.941 240.5 484.891 239.4 491.591 239.4C497.491 239.4 502.891 239.95 507.791 241.05C512.691 242.15 517.141 243.6 521.141 245.4L516.941 256.95C513.241 255.35 509.191 254 504.791 252.9C500.491 251.8 495.991 251.25 491.291 251.25C484.591 251.25 479.541 252.7 476.141 255.6C472.741 258.4 471.041 262.15 471.041 266.85C471.041 270.45 471.791 273.45 473.291 275.85C474.791 278.25 477.241 280.4 480.641 282.3C484.041 284.2 488.641 286.25 494.441 288.45C500.741 290.75 506.041 293.25 510.341 295.95C514.741 298.55 518.041 301.7 520.241 305.4C522.541 309.1 523.691 313.75 523.691 319.35ZM606.015 319.35C606.015 328.85 602.565 336.25 595.665 341.55C588.765 346.85 579.465 349.5 567.765 349.5C561.765 349.5 556.215 349.05 551.115 348.15C546.015 347.25 541.765 346 538.365 344.4V331.5C541.965 333.1 546.415 334.55 551.715 335.85C557.115 337.15 562.665 337.8 568.365 337.8C576.365 337.8 582.365 336.25 586.365 333.15C590.465 330.05 592.515 325.85 592.515 320.55C592.515 317.05 591.765 314.1 590.265 311.7C588.765 309.3 586.165 307.1 582.465 305.1C578.865 303 573.815 300.8 567.315 298.5C558.215 295.2 551.315 291.15 546.615 286.35C542.015 281.55 539.715 275 539.715 266.7C539.715 261 541.165 256.15 544.065 252.15C546.965 248.05 550.965 244.9 556.065 242.7C561.265 240.5 567.215 239.4 573.915 239.4C579.815 239.4 585.215 239.95 590.115 241.05C595.015 242.15 599.465 243.6 603.465 245.4L599.265 256.95C595.565 255.35 591.515 254 587.115 252.9C582.815 251.8 578.315 251.25 573.615 251.25C566.915 251.25 561.865 252.7 558.465 255.6C555.065 258.4 553.365 262.15 553.365 266.85C553.365 270.45 554.115 273.45 555.615 275.85C557.115 278.25 559.565 280.4 562.965 282.3C566.365 284.2 570.965 286.25 576.765 288.45C583.065 290.75 588.365 293.25 592.665 295.95C597.065 298.55 600.365 301.7 602.565 305.4C604.865 309.1 606.015 313.75 606.015 319.35ZM641.839 332.25C640.539 337.55 638.639 343.35 636.139 349.65C633.739 356.05 631.339 361.95 628.939 367.35H619.189C620.589 361.65 621.989 355.4 623.389 348.6C624.889 341.8 625.989 335.8 626.689 330.6H640.789L641.839 332.25ZM741.941 277.8H721.691V348H708.491V277.8H694.391V271.65L708.491 267.15V262.5C708.491 252.1 710.791 244.65 715.391 240.15C719.991 235.55 726.391 233.25 734.591 233.25C737.791 233.25 740.691 233.55 743.291 234.15C745.991 234.65 748.291 235.25 750.191 235.95L746.741 246.3C745.141 245.8 743.291 245.3 741.191 244.8C739.091 244.3 736.941 244.05 734.741 244.05C730.341 244.05 727.041 245.55 724.841 248.55C722.741 251.45 721.691 256.05 721.691 262.35V267.6H741.941V277.8ZM769.691 348H756.491V234H769.691V348ZM826.175 266.1C833.075 266.1 838.975 267.6 843.875 270.6C848.875 273.6 852.675 277.85 855.275 283.35C857.975 288.75 859.325 295.1 859.325 302.4V310.35H804.275C804.475 319.45 806.775 326.4 811.175 331.2C815.675 335.9 821.925 338.25 829.925 338.25C835.025 338.25 839.525 337.8 843.425 336.9C847.425 335.9 851.525 334.5 855.725 332.7V344.25C851.625 346.05 847.575 347.35 843.575 348.15C839.575 349.05 834.825 349.5 829.325 349.5C821.725 349.5 814.975 347.95 809.075 344.85C803.275 341.75 798.725 337.15 795.425 331.05C792.225 324.85 790.625 317.3 790.625 308.4C790.625 299.6 792.075 292.05 794.975 285.75C797.975 279.45 802.125 274.6 807.425 271.2C812.825 267.8 819.075 266.1 826.175 266.1ZM826.025 276.9C819.725 276.9 814.725 278.95 811.025 283.05C807.425 287.05 805.275 292.65 804.575 299.85H845.525C845.425 293.05 843.825 287.55 840.725 283.35C837.625 279.05 832.725 276.9 826.025 276.9ZM895.913 306.9L868.163 267.6H883.163L903.863 297.9L924.413 267.6H939.263L911.513 306.9L940.763 348H925.763L903.863 315.9L881.663 348H866.813L895.913 306.9ZM969.458 261.75C969.458 265.15 969.358 268.35 969.158 271.35C969.058 274.25 968.908 276.55 968.708 278.25H969.458C971.758 274.85 974.908 272 978.908 269.7C982.908 267.4 988.058 266.25 994.358 266.25C1004.36 266.25 1012.36 269.75 1018.36 276.75C1024.46 283.65 1027.51 294 1027.51 307.8C1027.51 321.6 1024.46 332 1018.36 339C1012.26 346 1004.26 349.5 994.358 349.5C988.058 349.5 982.908 348.35 978.908 346.05C974.908 343.75 971.758 341 969.458 337.8H968.408L965.708 348H956.258V234H969.458V261.75ZM992.108 277.2C983.608 277.2 977.708 279.65 974.408 284.55C971.108 289.45 969.458 297.05 969.458 307.35V307.95C969.458 317.85 971.058 325.45 974.258 330.75C977.558 335.95 983.608 338.55 992.408 338.55C999.608 338.55 1004.96 335.9 1008.46 330.6C1012.06 325.3 1013.86 317.65 1013.86 307.65C1013.86 287.35 1006.61 277.2 992.108 277.2ZM1118.44 307.65C1118.44 320.95 1115.04 331.25 1108.24 338.55C1101.54 345.85 1092.44 349.5 1080.94 349.5C1073.84 349.5 1067.49 347.9 1061.89 344.7C1056.39 341.4 1052.04 336.65 1048.84 330.45C1045.64 324.15 1044.04 316.55 1044.04 307.65C1044.04 294.35 1047.39 284.1 1054.09 276.9C1060.79 269.7 1069.89 266.1 1081.39 266.1C1088.69 266.1 1095.09 267.75 1100.59 271.05C1106.19 274.25 1110.54 278.95 1113.64 285.15C1116.84 291.25 1118.44 298.75 1118.44 307.65ZM1057.69 307.65C1057.69 317.15 1059.54 324.7 1063.24 330.3C1067.04 335.8 1073.04 338.55 1081.24 338.55C1089.34 338.55 1095.29 335.8 1099.09 330.3C1102.89 324.7 1104.79 317.15 1104.79 307.65C1104.79 298.15 1102.89 290.7 1099.09 285.3C1095.29 279.9 1089.29 277.2 1081.09 277.2C1072.89 277.2 1066.94 279.9 1063.24 285.3C1059.54 290.7 1057.69 298.15 1057.69 307.65ZM1155.48 306.9L1127.73 267.6H1142.73L1163.43 297.9L1183.98 267.6H1198.83L1171.08 306.9L1200.33 348H1185.33L1163.43 315.9L1141.23 348H1126.38L1155.48 306.9ZM1231.88 332.25C1230.58 337.55 1228.68 343.35 1226.18 349.65C1223.78 356.05 1221.38 361.95 1218.98 367.35H1209.23C1210.63 361.65 1212.03 355.4 1213.43 348.6C1214.93 341.8 1216.03 335.8 1216.73 330.6H1230.83L1231.88 332.25ZM1323.43 266.1C1328.73 266.1 1333.48 267.1 1337.68 269.1C1341.98 271.1 1345.63 274.15 1348.63 278.25H1349.38L1351.18 267.6H1361.68V349.35C1361.68 360.85 1358.73 369.5 1352.83 375.3C1347.03 381.1 1337.98 384 1325.68 384C1313.88 384 1304.23 382.3 1296.73 378.9V366.75C1304.63 370.95 1314.53 373.05 1326.43 373.05C1333.33 373.05 1338.73 371 1342.63 366.9C1346.63 362.9 1348.63 357.4 1348.63 350.4V347.25C1348.63 346.05 1348.68 344.35 1348.78 342.15C1348.88 339.85 1348.98 338.25 1349.08 337.35H1348.48C1343.08 345.45 1334.78 349.5 1323.58 349.5C1313.18 349.5 1305.03 345.85 1299.13 338.55C1293.33 331.25 1290.43 321.05 1290.43 307.95C1290.43 295.15 1293.33 285 1299.13 277.5C1305.03 269.9 1313.13 266.1 1323.43 266.1ZM1325.23 277.2C1318.53 277.2 1313.33 279.9 1309.63 285.3C1305.93 290.6 1304.08 298.2 1304.08 308.1C1304.08 318 1305.88 325.6 1309.48 330.9C1313.18 336.1 1318.53 338.7 1325.53 338.7C1333.63 338.7 1339.53 336.55 1343.23 332.25C1346.93 327.85 1348.78 320.8 1348.78 311.1V307.95C1348.78 296.95 1346.88 289.1 1343.08 284.4C1339.28 279.6 1333.33 277.2 1325.23 277.2ZM1424.71 266.1C1426.21 266.1 1427.81 266.2 1429.51 266.4C1431.31 266.5 1432.86 266.7 1434.16 267L1432.51 279.15C1431.21 278.85 1429.76 278.6 1428.16 278.4C1426.66 278.2 1425.21 278.1 1423.81 278.1C1419.71 278.1 1415.86 279.25 1412.26 281.55C1408.66 283.75 1405.76 286.9 1403.56 291C1401.46 295 1400.41 299.7 1400.41 305.1V348H1387.21V267.6H1398.01L1399.51 282.3H1400.11C1402.71 277.9 1406.06 274.1 1410.16 270.9C1414.26 267.7 1419.11 266.1 1424.71 266.1ZM1455.93 237.45C1457.93 237.45 1459.68 238.15 1461.18 239.55C1462.78 240.85 1463.58 242.95 1463.58 245.85C1463.58 248.65 1462.78 250.75 1461.18 252.15C1459.68 253.55 1457.93 254.25 1455.93 254.25C1453.73 254.25 1451.88 253.55 1450.38 252.15C1448.88 250.75 1448.13 248.65 1448.13 245.85C1448.13 242.95 1448.88 240.85 1450.38 239.55C1451.88 238.15 1453.73 237.45 1455.93 237.45ZM1462.38 267.6V348H1449.18V267.6H1462.38ZM1516.35 349.5C1506.35 349.5 1498.35 346.05 1492.35 339.15C1486.35 332.15 1483.35 321.75 1483.35 307.95C1483.35 294.15 1486.35 283.75 1492.35 276.75C1498.45 269.65 1506.5 266.1 1516.5 266.1C1522.7 266.1 1527.75 267.25 1531.65 269.55C1535.65 271.85 1538.9 274.65 1541.4 277.95H1542.3C1542.2 276.65 1542 274.75 1541.7 272.25C1541.5 269.65 1541.4 267.6 1541.4 266.1V234H1554.6V348H1543.95L1542 337.2H1541.4C1539 340.6 1535.8 343.5 1531.8 345.9C1527.8 348.3 1522.65 349.5 1516.35 349.5ZM1518.45 338.55C1526.95 338.55 1532.9 336.25 1536.3 331.65C1539.8 326.95 1541.55 319.9 1541.55 310.5V308.1C1541.55 298.1 1539.9 290.45 1536.6 285.15C1533.3 279.75 1527.2 277.05 1518.3 277.05C1511.2 277.05 1505.85 279.9 1502.25 285.6C1498.75 291.2 1497 298.75 1497 308.25C1497 317.85 1498.75 325.3 1502.25 330.6C1505.85 335.9 1511.25 338.55 1518.45 338.55ZM294.699 443.25C302.699 443.25 308.999 445.3 313.599 449.4C318.299 453.4 320.649 459.05 320.649 466.35C320.649 472.65 318.599 478 314.499 482.4C310.499 486.8 305.399 490.8 299.199 494.4L328.149 522.3C330.749 519.2 332.849 515.65 334.449 511.65C336.149 507.55 337.549 503.15 338.649 498.45H351.999C350.399 504.85 348.399 510.8 345.999 516.3C343.599 521.8 340.499 526.6 336.699 530.7L358.599 552H340.749L327.699 539.4C322.999 543.6 317.749 547 311.949 549.6C306.149 552.2 299.099 553.5 290.799 553.5C280.499 553.5 272.299 550.95 266.199 545.85C260.099 540.75 257.049 533.5 257.049 524.1C257.049 516.4 259.099 510.25 263.199 505.65C267.399 500.95 273.049 496.6 280.149 492.6C276.949 489 273.949 485.15 271.149 481.05C268.449 476.95 267.099 472.15 267.099 466.65C267.099 459.25 269.549 453.5 274.449 449.4C279.449 445.3 286.199 443.25 294.699 443.25ZM294.249 454.05C290.049 454.05 286.599 455.15 283.899 457.35C281.299 459.55 279.999 462.6 279.999 466.5C279.999 470.1 280.949 473.45 282.849 476.55C284.749 479.55 287.499 482.9 291.099 486.6C296.999 483.2 301.199 480 303.699 477C306.299 473.9 307.599 470.35 307.599 466.35C307.599 462.75 306.399 459.8 303.999 457.5C301.599 455.2 298.349 454.05 294.249 454.05ZM288.099 500.85C282.699 504.05 278.449 507.3 275.349 510.6C272.349 513.9 270.849 518.25 270.849 523.65C270.849 529.15 272.699 533.55 276.399 536.85C280.099 540.15 285.049 541.8 291.249 541.8C297.649 541.8 303.149 540.75 307.749 538.65C312.349 536.55 316.199 534.05 319.299 531.15L288.099 500.85ZM448.177 470.1C449.677 470.1 451.277 470.2 452.977 470.4C454.777 470.5 456.327 470.7 457.627 471L455.977 483.15C454.677 482.85 453.227 482.6 451.627 482.4C450.127 482.2 448.677 482.1 447.277 482.1C443.177 482.1 439.327 483.25 435.727 485.55C432.127 487.75 429.227 490.9 427.027 495C424.927 499 423.877 503.7 423.877 509.1V552H410.677V471.6H421.477L422.977 486.3H423.577C426.177 481.9 429.527 478.1 433.627 474.9C437.727 471.7 442.577 470.1 448.177 470.1ZM500.76 470.1C507.66 470.1 513.56 471.6 518.46 474.6C523.46 477.6 527.26 481.85 529.86 487.35C532.56 492.75 533.91 499.1 533.91 506.4V514.35H478.86C479.06 523.45 481.36 530.4 485.76 535.2C490.26 539.9 496.51 542.25 504.51 542.25C509.61 542.25 514.11 541.8 518.01 540.9C522.01 539.9 526.11 538.5 530.31 536.7V548.25C526.21 550.05 522.16 551.35 518.16 552.15C514.16 553.05 509.41 553.5 503.91 553.5C496.31 553.5 489.56 551.95 483.66 548.85C477.86 545.75 473.31 541.15 470.01 535.05C466.81 528.85 465.21 521.3 465.21 512.4C465.21 503.6 466.66 496.05 469.56 489.75C472.56 483.45 476.71 478.6 482.01 475.2C487.41 471.8 493.66 470.1 500.76 470.1ZM500.61 480.9C494.31 480.9 489.31 482.95 485.61 487.05C482.01 491.05 479.86 496.65 479.16 503.85H520.11C520.01 497.05 518.41 491.55 515.31 487.35C512.21 483.05 507.31 480.9 500.61 480.9ZM606.728 529.8C606.728 537.6 603.828 543.5 598.028 547.5C592.228 551.5 584.428 553.5 574.628 553.5C569.028 553.5 564.178 553.05 560.078 552.15C556.078 551.25 552.528 550 549.428 548.4V536.4C552.628 538 556.478 539.5 560.978 540.9C565.578 542.2 570.228 542.85 574.928 542.85C581.628 542.85 586.478 541.8 589.478 539.7C592.478 537.5 593.978 534.6 593.978 531C593.978 529 593.428 527.2 592.328 525.6C591.228 524 589.228 522.4 586.328 520.8C583.528 519.2 579.478 517.4 574.178 515.4C568.978 513.4 564.528 511.4 560.828 509.4C557.128 507.4 554.278 505 552.278 502.2C550.278 499.4 549.278 495.8 549.278 491.4C549.278 484.6 552.028 479.35 557.528 475.65C563.128 471.95 570.428 470.1 579.428 470.1C584.328 470.1 588.878 470.6 593.078 471.6C597.378 472.5 601.378 473.8 605.078 475.5L600.578 486C597.178 484.6 593.628 483.4 589.928 482.4C586.228 481.4 582.428 480.9 578.528 480.9C573.128 480.9 568.978 481.8 566.078 483.6C563.278 485.3 561.878 487.65 561.878 490.65C561.878 492.85 562.528 494.75 563.828 496.35C565.128 497.85 567.278 499.35 570.278 500.85C573.378 502.25 577.478 503.95 582.578 505.95C587.678 507.85 592.028 509.8 595.628 511.8C599.228 513.8 601.978 516.25 603.878 519.15C605.778 521.95 606.728 525.5 606.728 529.8ZM664.405 470.1C674.305 470.1 682.255 473.55 688.255 480.45C694.355 487.35 697.405 497.75 697.405 511.65C697.405 525.35 694.355 535.75 688.255 542.85C682.255 549.95 674.255 553.5 664.255 553.5C658.055 553.5 652.905 552.35 648.805 550.05C644.805 547.65 641.655 544.9 639.355 541.8H638.455C638.655 543.5 638.855 545.65 639.055 548.25C639.255 550.85 639.355 553.1 639.355 555V588H626.155V471.6H636.955L638.755 482.55H639.355C641.755 479.05 644.905 476.1 648.805 473.7C652.705 471.3 657.905 470.1 664.405 470.1ZM662.005 481.2C653.805 481.2 648.005 483.5 644.605 488.1C641.305 492.7 639.555 499.7 639.355 509.1V511.65C639.355 521.55 640.955 529.2 644.155 534.6C647.455 539.9 653.505 542.55 662.305 542.55C667.205 542.55 671.205 541.2 674.305 538.5C677.505 535.8 679.855 532.15 681.355 527.55C682.955 522.85 683.755 517.5 683.755 511.5C683.755 502.3 681.955 494.95 678.355 489.45C674.855 483.95 669.405 481.2 662.005 481.2ZM788.34 511.65C788.34 524.95 784.94 535.25 778.14 542.55C771.44 549.85 762.34 553.5 750.84 553.5C743.74 553.5 737.39 551.9 731.79 548.7C726.29 545.4 721.94 540.65 718.74 534.45C715.54 528.15 713.94 520.55 713.94 511.65C713.94 498.35 717.29 488.1 723.99 480.9C730.69 473.7 739.79 470.1 751.29 470.1C758.59 470.1 764.99 471.75 770.49 475.05C776.09 478.25 780.44 482.95 783.54 489.15C786.74 495.25 788.34 502.75 788.34 511.65ZM727.59 511.65C727.59 521.15 729.44 528.7 733.14 534.3C736.94 539.8 742.94 542.55 751.14 542.55C759.24 542.55 765.19 539.8 768.99 534.3C772.79 528.7 774.69 521.15 774.69 511.65C774.69 502.15 772.79 494.7 768.99 489.3C765.19 483.9 759.19 481.2 750.99 481.2C742.79 481.2 736.84 483.9 733.14 489.3C729.44 494.7 727.59 502.15 727.59 511.65ZM847.961 470.1C857.561 470.1 864.811 472.45 869.711 477.15C874.611 481.75 877.061 489.25 877.061 499.65V552H864.011V500.55C864.011 487.65 858.011 481.2 846.011 481.2C837.111 481.2 830.961 483.7 827.561 488.7C824.161 493.7 822.461 500.9 822.461 510.3V552H809.261V471.6H819.911L821.861 482.55H822.611C825.211 478.35 828.811 475.25 833.411 473.25C838.011 471.15 842.861 470.1 847.961 470.1ZM954.335 529.8C954.335 537.6 951.435 543.5 945.635 547.5C939.835 551.5 932.035 553.5 922.235 553.5C916.635 553.5 911.785 553.05 907.685 552.15C903.685 551.25 900.135 550 897.035 548.4V536.4C900.235 538 904.085 539.5 908.585 540.9C913.185 542.2 917.835 542.85 922.535 542.85C929.235 542.85 934.085 541.8 937.085 539.7C940.085 537.5 941.585 534.6 941.585 531C941.585 529 941.035 527.2 939.935 525.6C938.835 524 936.835 522.4 933.935 520.8C931.135 519.2 927.085 517.4 921.785 515.4C916.585 513.4 912.135 511.4 908.435 509.4C904.735 507.4 901.885 505 899.885 502.2C897.885 499.4 896.885 495.8 896.885 491.4C896.885 484.6 899.635 479.35 905.135 475.65C910.735 471.95 918.035 470.1 927.035 470.1C931.935 470.1 936.485 470.6 940.685 471.6C944.985 472.5 948.985 473.8 952.685 475.5L948.185 486C944.785 484.6 941.235 483.4 937.535 482.4C933.835 481.4 930.035 480.9 926.135 480.9C920.735 480.9 916.585 481.8 913.685 483.6C910.885 485.3 909.485 487.65 909.485 490.65C909.485 492.85 910.135 494.75 911.435 496.35C912.735 497.85 914.885 499.35 917.885 500.85C920.985 502.25 925.085 503.95 930.185 505.95C935.285 507.85 939.635 509.8 943.235 511.8C946.835 513.8 949.585 516.25 951.485 519.15C953.385 521.95 954.335 525.5 954.335 529.8ZM980.513 441.45C982.513 441.45 984.263 442.15 985.763 443.55C987.363 444.85 988.163 446.95 988.163 449.85C988.163 452.65 987.363 454.75 985.763 456.15C984.263 457.55 982.513 458.25 980.513 458.25C978.313 458.25 976.463 457.55 974.963 456.15C973.463 454.75 972.713 452.65 972.713 449.85C972.713 446.95 973.463 444.85 974.963 443.55C976.463 442.15 978.313 441.45 980.513 441.45ZM986.963 471.6V552H973.763V471.6H986.963ZM1030.13 552L999.685 471.6H1013.78L1030.88 519C1031.68 521.2 1032.53 523.65 1033.43 526.35C1034.33 529.05 1035.13 531.65 1035.83 534.15C1036.53 536.55 1037.03 538.6 1037.33 540.3H1037.93C1038.33 538.6 1038.88 536.5 1039.58 534C1040.38 531.5 1041.23 528.9 1042.13 526.2C1043.13 523.5 1043.98 521.1 1044.68 519L1061.78 471.6H1075.88L1045.28 552H1030.13ZM1119.66 470.1C1126.56 470.1 1132.46 471.6 1137.36 474.6C1142.36 477.6 1146.16 481.85 1148.76 487.35C1151.46 492.75 1152.81 499.1 1152.81 506.4V514.35H1097.76C1097.96 523.45 1100.26 530.4 1104.66 535.2C1109.16 539.9 1115.41 542.25 1123.41 542.25C1128.51 542.25 1133.01 541.8 1136.91 540.9C1140.91 539.9 1145.01 538.5 1149.21 536.7V548.25C1145.11 550.05 1141.06 551.35 1137.06 552.15C1133.06 553.05 1128.31 553.5 1122.81 553.5C1115.21 553.5 1108.46 551.95 1102.56 548.85C1096.76 545.75 1092.21 541.15 1088.91 535.05C1085.71 528.85 1084.11 521.3 1084.11 512.4C1084.11 503.6 1085.56 496.05 1088.46 489.75C1091.46 483.45 1095.61 478.6 1100.91 475.2C1106.31 471.8 1112.56 470.1 1119.66 470.1ZM1119.51 480.9C1113.21 480.9 1108.21 482.95 1104.51 487.05C1100.91 491.05 1098.76 496.65 1098.06 503.85H1139.01C1138.91 497.05 1137.31 491.55 1134.21 487.35C1131.11 483.05 1126.21 480.9 1119.51 480.9ZM1240.74 553.5C1230.74 553.5 1222.74 550.05 1216.74 543.15C1210.74 536.15 1207.74 525.75 1207.74 511.95C1207.74 498.15 1210.74 487.75 1216.74 480.75C1222.84 473.65 1230.89 470.1 1240.89 470.1C1247.09 470.1 1252.14 471.25 1256.04 473.55C1260.04 475.85 1263.29 478.65 1265.79 481.95H1266.69C1266.59 480.65 1266.39 478.75 1266.09 476.25C1265.89 473.65 1265.79 471.6 1265.79 470.1V438H1278.99V552H1268.34L1266.39 541.2H1265.79C1263.39 544.6 1260.19 547.5 1256.19 549.9C1252.19 552.3 1247.04 553.5 1240.74 553.5ZM1242.84 542.55C1251.34 542.55 1257.29 540.25 1260.69 535.65C1264.19 530.95 1265.94 523.9 1265.94 514.5V512.1C1265.94 502.1 1264.29 494.45 1260.99 489.15C1257.69 483.75 1251.59 481.05 1242.69 481.05C1235.59 481.05 1230.24 483.9 1226.64 489.6C1223.14 495.2 1221.39 502.75 1221.39 512.25C1221.39 521.85 1223.14 529.3 1226.64 534.6C1230.24 539.9 1235.64 542.55 1242.84 542.55ZM1335.57 470.1C1342.47 470.1 1348.37 471.6 1353.27 474.6C1358.27 477.6 1362.07 481.85 1364.67 487.35C1367.37 492.75 1368.72 499.1 1368.72 506.4V514.35H1313.67C1313.87 523.45 1316.17 530.4 1320.57 535.2C1325.07 539.9 1331.32 542.25 1339.32 542.25C1344.42 542.25 1348.92 541.8 1352.82 540.9C1356.82 539.9 1360.92 538.5 1365.12 536.7V548.25C1361.02 550.05 1356.97 551.35 1352.97 552.15C1348.97 553.05 1344.22 553.5 1338.72 553.5C1331.12 553.5 1324.37 551.95 1318.47 548.85C1312.67 545.75 1308.12 541.15 1304.82 535.05C1301.62 528.85 1300.02 521.3 1300.02 512.4C1300.02 503.6 1301.47 496.05 1304.37 489.75C1307.37 483.45 1311.52 478.6 1316.82 475.2C1322.22 471.8 1328.47 470.1 1335.57 470.1ZM1335.42 480.9C1329.12 480.9 1324.12 482.95 1320.42 487.05C1316.82 491.05 1314.67 496.65 1313.97 503.85H1354.92C1354.82 497.05 1353.22 491.55 1350.12 487.35C1347.02 483.05 1342.12 480.9 1335.42 480.9ZM1441.54 529.8C1441.54 537.6 1438.64 543.5 1432.84 547.5C1427.04 551.5 1419.24 553.5 1409.44 553.5C1403.84 553.5 1398.99 553.05 1394.89 552.15C1390.89 551.25 1387.34 550 1384.24 548.4V536.4C1387.44 538 1391.29 539.5 1395.79 540.9C1400.39 542.2 1405.04 542.85 1409.74 542.85C1416.44 542.85 1421.29 541.8 1424.29 539.7C1427.29 537.5 1428.79 534.6 1428.79 531C1428.79 529 1428.24 527.2 1427.14 525.6C1426.04 524 1424.04 522.4 1421.14 520.8C1418.34 519.2 1414.29 517.4 1408.99 515.4C1403.79 513.4 1399.34 511.4 1395.64 509.4C1391.94 507.4 1389.09 505 1387.09 502.2C1385.09 499.4 1384.09 495.8 1384.09 491.4C1384.09 484.6 1386.84 479.35 1392.34 475.65C1397.94 471.95 1405.24 470.1 1414.24 470.1C1419.14 470.1 1423.69 470.6 1427.89 471.6C1432.19 472.5 1436.19 473.8 1439.89 475.5L1435.39 486C1431.99 484.6 1428.44 483.4 1424.74 482.4C1421.04 481.4 1417.24 480.9 1413.34 480.9C1407.94 480.9 1403.79 481.8 1400.89 483.6C1398.09 485.3 1396.69 487.65 1396.69 490.65C1396.69 492.85 1397.34 494.75 1398.64 496.35C1399.94 497.85 1402.09 499.35 1405.09 500.85C1408.19 502.25 1412.29 503.95 1417.39 505.95C1422.49 507.85 1426.84 509.8 1430.44 511.8C1434.04 513.8 1436.79 516.25 1438.69 519.15C1440.59 521.95 1441.54 525.5 1441.54 529.8ZM1467.72 441.45C1469.72 441.45 1471.47 442.15 1472.97 443.55C1474.57 444.85 1475.37 446.95 1475.37 449.85C1475.37 452.65 1474.57 454.75 1472.97 456.15C1471.47 457.55 1469.72 458.25 1467.72 458.25C1465.52 458.25 1463.67 457.55 1462.17 456.15C1460.67 454.75 1459.92 452.65 1459.92 449.85C1459.92 446.95 1460.67 444.85 1462.17 443.55C1463.67 442.15 1465.52 441.45 1467.72 441.45ZM1474.17 471.6V552H1460.97V471.6H1474.17ZM1528.14 470.1C1533.44 470.1 1538.19 471.1 1542.39 473.1C1546.69 475.1 1550.34 478.15 1553.34 482.25H1554.09L1555.89 471.6H1566.39V553.35C1566.39 564.85 1563.44 573.5 1557.54 579.3C1551.74 585.1 1542.69 588 1530.39 588C1518.59 588 1508.94 586.3 1501.44 582.9V570.75C1509.34 574.95 1519.24 577.05 1531.14 577.05C1538.04 577.05 1543.44 575 1547.34 570.9C1551.34 566.9 1553.34 561.4 1553.34 554.4V551.25C1553.34 550.05 1553.39 548.35 1553.49 546.15C1553.59 543.85 1553.69 542.25 1553.79 541.35H1553.19C1547.79 549.45 1539.49 553.5 1528.29 553.5C1517.89 553.5 1509.74 549.85 1503.84 542.55C1498.04 535.25 1495.14 525.05 1495.14 511.95C1495.14 499.15 1498.04 489 1503.84 481.5C1509.74 473.9 1517.84 470.1 1528.14 470.1ZM1529.94 481.2C1523.24 481.2 1518.04 483.9 1514.34 489.3C1510.64 494.6 1508.79 502.2 1508.79 512.1C1508.79 522 1510.59 529.6 1514.19 534.9C1517.89 540.1 1523.24 542.7 1530.24 542.7C1538.34 542.7 1544.24 540.55 1547.94 536.25C1551.64 531.85 1553.49 524.8 1553.49 515.1V511.95C1553.49 500.95 1551.59 493.1 1547.79 488.4C1543.99 483.6 1538.04 481.2 1529.94 481.2ZM1630.63 470.1C1640.23 470.1 1647.48 472.45 1652.38 477.15C1657.28 481.75 1659.73 489.25 1659.73 499.65V552H1646.68V500.55C1646.68 487.65 1640.68 481.2 1628.68 481.2C1619.78 481.2 1613.63 483.7 1610.23 488.7C1606.83 493.7 1605.13 500.9 1605.13 510.3V552H1591.93V471.6H1602.58L1604.53 482.55H1605.28C1607.88 478.35 1611.48 475.25 1616.08 473.25C1620.68 471.15 1625.53 470.1 1630.63 470.1Z" fill="#61DAFB"/>
<path id="line1" d="M528.715 121.88C535.809 121.88 541.035 123.24 544.395 125.96C547.809 128.627 549.515 132.68 549.515 138.12C549.515 141.16 548.955 143.693 547.835 145.72C546.715 147.747 545.275 149.373 543.515 150.6C541.809 151.773 539.995 152.707 538.075 153.4L553.755 179H545.355L531.515 155.4H520.155V179H512.955V121.88H528.715ZM528.315 128.12H520.155V149.32H528.715C533.355 149.32 536.742 148.413 538.875 146.6C541.009 144.733 542.075 142.013 542.075 138.44C542.075 134.707 540.955 132.067 538.715 130.52C536.475 128.92 533.009 128.12 528.315 128.12ZM578.321 135.32C582.001 135.32 585.148 136.12 587.761 137.72C590.428 139.32 592.454 141.587 593.841 144.52C595.281 147.4 596.001 150.787 596.001 154.68V158.92H566.641C566.748 163.773 567.974 167.48 570.321 170.04C572.721 172.547 576.054 173.8 580.321 173.8C583.041 173.8 585.441 173.56 587.521 173.08C589.654 172.547 591.841 171.8 594.081 170.84V177C591.894 177.96 589.734 178.653 587.601 179.08C585.468 179.56 582.934 179.8 580.001 179.8C575.948 179.8 572.348 178.973 569.201 177.32C566.108 175.667 563.681 173.213 561.921 169.96C560.214 166.653 559.361 162.627 559.361 157.88C559.361 153.187 560.134 149.16 561.681 145.8C563.281 142.44 565.494 139.853 568.321 138.04C571.201 136.227 574.534 135.32 578.321 135.32ZM578.241 141.08C574.881 141.08 572.214 142.173 570.241 144.36C568.321 146.493 567.174 149.48 566.801 153.32H588.641C588.588 149.693 587.734 146.76 586.081 144.52C584.428 142.227 581.814 141.08 578.241 141.08ZM626.677 141.56H615.877V179H608.837V141.56H601.317V138.28L608.837 135.88V133.4C608.837 127.853 610.064 123.88 612.517 121.48C614.971 119.027 618.384 117.8 622.757 117.8C624.464 117.8 626.011 117.96 627.397 118.28C628.837 118.547 630.064 118.867 631.077 119.24L629.237 124.76C628.384 124.493 627.397 124.227 626.277 123.96C625.157 123.693 624.011 123.56 622.837 123.56C620.491 123.56 618.731 124.36 617.557 125.96C616.437 127.507 615.877 129.96 615.877 133.32V136.12H626.677V141.56ZM650.977 135.32C654.657 135.32 657.804 136.12 660.417 137.72C663.084 139.32 665.111 141.587 666.497 144.52C667.937 147.4 668.657 150.787 668.657 154.68V158.92H639.297C639.404 163.773 640.631 167.48 642.977 170.04C645.377 172.547 648.711 173.8 652.977 173.8C655.697 173.8 658.097 173.56 660.177 173.08C662.311 172.547 664.497 171.8 666.737 170.84V177C664.551 177.96 662.391 178.653 660.257 179.08C658.124 179.56 655.591 179.8 652.657 179.8C648.604 179.8 645.004 178.973 641.857 177.32C638.764 175.667 636.337 173.213 634.577 169.96C632.871 166.653 632.017 162.627 632.017 157.88C632.017 153.187 632.791 149.16 634.337 145.8C635.937 142.44 638.151 139.853 640.977 138.04C643.857 136.227 647.191 135.32 650.977 135.32ZM650.897 141.08C647.537 141.08 644.871 142.173 642.897 144.36C640.977 146.493 639.831 149.48 639.457 153.32H661.297C661.244 149.693 660.391 146.76 658.737 144.52C657.084 142.227 654.471 141.08 650.897 141.08ZM699.573 135.32C700.373 135.32 701.227 135.373 702.133 135.48C703.093 135.533 703.92 135.64 704.613 135.8L703.733 142.28C703.04 142.12 702.267 141.987 701.413 141.88C700.613 141.773 699.84 141.72 699.093 141.72C696.907 141.72 694.853 142.333 692.933 143.56C691.013 144.733 689.467 146.413 688.293 148.6C687.173 150.733 686.613 153.24 686.613 156.12V179H679.573V136.12H685.333L686.133 143.96H686.453C687.84 141.613 689.627 139.587 691.813 137.88C694 136.173 696.587 135.32 699.573 135.32ZM727.618 135.32C731.298 135.32 734.444 136.12 737.058 137.72C739.724 139.32 741.751 141.587 743.138 144.52C744.578 147.4 745.298 150.787 745.298 154.68V158.92H715.938C716.044 163.773 717.271 167.48 719.618 170.04C722.018 172.547 725.351 173.8 729.618 173.8C732.338 173.8 734.738 173.56 736.818 173.08C738.951 172.547 741.138 171.8 743.378 170.84V177C741.191 177.96 739.031 178.653 736.898 179.08C734.764 179.56 732.231 179.8 729.298 179.8C725.244 179.8 721.644 178.973 718.498 177.32C715.404 175.667 712.978 173.213 711.218 169.96C709.511 166.653 708.658 162.627 708.658 157.88C708.658 153.187 709.431 149.16 710.978 145.8C712.578 142.44 714.791 139.853 717.618 138.04C720.498 136.227 723.831 135.32 727.618 135.32ZM727.538 141.08C724.178 141.08 721.511 142.173 719.538 144.36C717.618 146.493 716.471 149.48 716.098 153.32H737.938C737.884 149.693 737.031 146.76 735.378 144.52C733.724 142.227 731.111 141.08 727.538 141.08ZM776.854 135.32C781.974 135.32 785.841 136.573 788.454 139.08C791.067 141.533 792.374 145.533 792.374 151.08V179H785.414V151.56C785.414 144.68 782.214 141.24 775.814 141.24C771.067 141.24 767.787 142.573 765.974 145.24C764.161 147.907 763.254 151.747 763.254 156.76V179H756.214V136.12H761.894L762.934 141.96H763.334C764.721 139.72 766.641 138.067 769.094 137C771.547 135.88 774.134 135.32 776.854 135.32ZM822.867 179.8C819.081 179.8 815.694 179.027 812.707 177.48C809.774 175.933 807.454 173.533 805.747 170.28C804.094 167.027 803.267 162.867 803.267 157.8C803.267 152.52 804.147 148.227 805.907 144.92C807.667 141.613 810.041 139.187 813.027 137.64C816.067 136.093 819.507 135.32 823.347 135.32C825.534 135.32 827.641 135.56 829.667 136.04C831.694 136.467 833.347 137 834.627 137.64L832.467 143.48C831.187 143 829.694 142.547 827.987 142.12C826.281 141.693 824.681 141.48 823.187 141.48C814.761 141.48 810.547 146.893 810.547 157.72C810.547 162.893 811.561 166.867 813.587 169.64C815.667 172.36 818.734 173.72 822.787 173.72C825.134 173.72 827.187 173.48 828.947 173C830.761 172.52 832.414 171.933 833.907 171.24V177.48C832.467 178.227 830.867 178.787 829.107 179.16C827.401 179.587 825.321 179.8 822.867 179.8ZM860.665 135.32C864.345 135.32 867.491 136.12 870.105 137.72C872.771 139.32 874.798 141.587 876.185 144.52C877.625 147.4 878.345 150.787 878.345 154.68V158.92H848.985C849.091 163.773 850.318 167.48 852.665 170.04C855.065 172.547 858.398 173.8 862.665 173.8C865.385 173.8 867.785 173.56 869.865 173.08C871.998 172.547 874.185 171.8 876.425 170.84V177C874.238 177.96 872.078 178.653 869.945 179.08C867.811 179.56 865.278 179.8 862.345 179.8C858.291 179.8 854.691 178.973 851.545 177.32C848.451 175.667 846.025 173.213 844.265 169.96C842.558 166.653 841.705 162.627 841.705 157.88C841.705 153.187 842.478 149.16 844.025 145.8C845.625 142.44 847.838 139.853 850.665 138.04C853.545 136.227 856.878 135.32 860.665 135.32ZM860.585 141.08C857.225 141.08 854.558 142.173 852.585 144.36C850.665 146.493 849.518 149.48 849.145 153.32H870.985C870.931 149.693 870.078 146.76 868.425 144.52C866.771 142.227 864.158 141.08 860.585 141.08ZM917.082 136.04C917.082 138.173 916.949 140.173 916.682 142.04H917.162C918.549 139.853 920.416 138.2 922.762 137.08C925.162 135.96 927.749 135.4 930.522 135.4C935.749 135.4 939.669 136.653 942.282 139.16C944.896 141.613 946.202 145.587 946.202 151.08V179H939.242V151.56C939.242 144.68 936.042 141.24 929.642 141.24C924.842 141.24 921.536 142.6 919.722 145.32C917.962 147.987 917.082 151.827 917.082 156.84V179H910.042V118.2H917.082V136.04ZM975.735 135.4C980.962 135.4 984.829 136.547 987.335 138.84C989.842 141.133 991.095 144.787 991.095 149.8V179H985.975L984.615 172.92H984.295C982.429 175.267 980.455 177 978.375 178.12C976.349 179.24 973.522 179.8 969.895 179.8C966.002 179.8 962.775 178.787 960.215 176.76C957.655 174.68 956.375 171.453 956.375 167.08C956.375 162.813 958.055 159.533 961.415 157.24C964.775 154.893 969.949 153.613 976.935 153.4L984.215 153.16V150.6C984.215 147.027 983.442 144.547 981.895 143.16C980.349 141.773 978.162 141.08 975.335 141.08C973.095 141.08 970.962 141.427 968.935 142.12C966.909 142.76 965.015 143.507 963.255 144.36L961.095 139.08C962.962 138.067 965.175 137.213 967.735 136.52C970.295 135.773 972.962 135.4 975.735 135.4ZM977.815 158.28C972.482 158.493 968.775 159.347 966.695 160.84C964.669 162.333 963.655 164.44 963.655 167.16C963.655 169.56 964.375 171.32 965.815 172.44C967.309 173.56 969.202 174.12 971.495 174.12C975.122 174.12 978.135 173.133 980.535 171.16C982.935 169.133 984.135 166.04 984.135 161.88V158.04L977.815 158.28ZM1024.98 135.32C1030.1 135.32 1033.97 136.573 1036.58 139.08C1039.19 141.533 1040.5 145.533 1040.5 151.08V179H1033.54V151.56C1033.54 144.68 1030.34 141.24 1023.94 141.24C1019.19 141.24 1015.91 142.573 1014.1 145.24C1012.29 147.907 1011.38 151.747 1011.38 156.76V179H1004.34V136.12H1010.02L1011.06 141.96H1011.46C1012.85 139.72 1014.77 138.067 1017.22 137C1019.67 135.88 1022.26 135.32 1024.98 135.32ZM1068.99 179.8C1063.66 179.8 1059.39 177.96 1056.19 174.28C1052.99 170.547 1051.39 165 1051.39 157.64C1051.39 150.28 1052.99 144.733 1056.19 141C1059.45 137.213 1063.74 135.32 1069.07 135.32C1072.38 135.32 1075.07 135.933 1077.15 137.16C1079.29 138.387 1081.02 139.88 1082.35 141.64H1082.83C1082.78 140.947 1082.67 139.933 1082.51 138.6C1082.41 137.213 1082.35 136.12 1082.35 135.32V118.2H1089.39V179H1083.71L1082.67 173.24H1082.35C1081.07 175.053 1079.37 176.6 1077.23 177.88C1075.1 179.16 1072.35 179.8 1068.99 179.8ZM1070.11 173.96C1074.65 173.96 1077.82 172.733 1079.63 170.28C1081.5 167.773 1082.43 164.013 1082.43 159V157.72C1082.43 152.387 1081.55 148.307 1079.79 145.48C1078.03 142.6 1074.78 141.16 1070.03 141.16C1066.25 141.16 1063.39 142.68 1061.47 145.72C1059.61 148.707 1058.67 152.733 1058.67 157.8C1058.67 162.92 1059.61 166.893 1061.47 169.72C1063.39 172.547 1066.27 173.96 1070.11 173.96ZM1110.05 133C1110.05 134.813 1110 136.52 1109.89 138.12C1109.84 139.667 1109.76 140.893 1109.65 141.8H1110.05C1111.28 139.987 1112.96 138.467 1115.09 137.24C1117.22 136.013 1119.97 135.4 1123.33 135.4C1128.66 135.4 1132.93 137.267 1136.13 141C1139.38 144.68 1141.01 150.2 1141.01 157.56C1141.01 164.92 1139.38 170.467 1136.13 174.2C1132.88 177.933 1128.61 179.8 1123.33 179.8C1119.97 179.8 1117.22 179.187 1115.09 177.96C1112.96 176.733 1111.28 175.267 1110.05 173.56H1109.49L1108.05 179H1103.01V118.2H1110.05V133ZM1122.13 141.24C1117.6 141.24 1114.45 142.547 1112.69 145.16C1110.93 147.773 1110.05 151.827 1110.05 157.32V157.64C1110.05 162.92 1110.9 166.973 1112.61 169.8C1114.37 172.573 1117.6 173.96 1122.29 173.96C1126.13 173.96 1128.98 172.547 1130.85 169.72C1132.77 166.893 1133.73 162.813 1133.73 157.48C1133.73 146.653 1129.86 141.24 1122.13 141.24ZM1189.51 157.48C1189.51 164.573 1187.7 170.067 1184.07 173.96C1180.5 177.853 1175.64 179.8 1169.51 179.8C1165.72 179.8 1162.34 178.947 1159.35 177.24C1156.42 175.48 1154.1 172.947 1152.39 169.64C1150.68 166.28 1149.83 162.227 1149.83 157.48C1149.83 150.387 1151.62 144.92 1155.19 141.08C1158.76 137.24 1163.62 135.32 1169.75 135.32C1173.64 135.32 1177.06 136.2 1179.99 137.96C1182.98 139.667 1185.3 142.173 1186.95 145.48C1188.66 148.733 1189.51 152.733 1189.51 157.48ZM1157.11 157.48C1157.11 162.547 1158.1 166.573 1160.07 169.56C1162.1 172.493 1165.3 173.96 1169.67 173.96C1173.99 173.96 1177.16 172.493 1179.19 169.56C1181.22 166.573 1182.23 162.547 1182.23 157.48C1182.23 152.413 1181.22 148.44 1179.19 145.56C1177.16 142.68 1173.96 141.24 1169.59 141.24C1165.22 141.24 1162.04 142.68 1160.07 145.56C1158.1 148.44 1157.11 152.413 1157.11 157.48ZM1237.95 157.48C1237.95 164.573 1236.13 170.067 1232.51 173.96C1228.93 177.853 1224.08 179.8 1217.95 179.8C1214.16 179.8 1210.77 178.947 1207.79 177.24C1204.85 175.48 1202.53 172.947 1200.83 169.64C1199.12 166.28 1198.27 162.227 1198.27 157.48C1198.27 150.387 1200.05 144.92 1203.63 141.08C1207.2 137.24 1212.05 135.32 1218.19 135.32C1222.08 135.32 1225.49 136.2 1228.43 137.96C1231.41 139.667 1233.73 142.173 1235.39 145.48C1237.09 148.733 1237.95 152.733 1237.95 157.48ZM1205.55 157.48C1205.55 162.547 1206.53 166.573 1208.51 169.56C1210.53 172.493 1213.73 173.96 1218.11 173.96C1222.43 173.96 1225.6 172.493 1227.63 169.56C1229.65 166.573 1230.67 162.547 1230.67 157.48C1230.67 152.413 1229.65 148.44 1227.63 145.56C1225.6 142.68 1222.4 141.24 1218.03 141.24C1213.65 141.24 1210.48 142.68 1208.51 145.56C1206.53 148.44 1205.55 152.413 1205.55 157.48ZM1256.06 149.96C1256.06 150.813 1256.01 151.933 1255.9 153.32C1255.85 154.707 1255.8 155.907 1255.74 156.92H1256.06C1256.38 156.493 1256.86 155.88 1257.5 155.08C1258.14 154.28 1258.78 153.48 1259.42 152.68C1260.12 151.827 1260.7 151.133 1261.18 150.6L1274.86 136.12H1283.1L1265.74 154.44L1284.3 179H1275.82L1260.94 159L1256.06 163.24V179H1249.1V118.2H1256.06V149.96ZM1332.38 141.56H1321.58V179H1314.54V141.56H1307.02V138.28L1314.54 135.88V133.4C1314.54 127.853 1315.77 123.88 1318.22 121.48C1320.67 119.027 1324.09 117.8 1328.46 117.8C1330.17 117.8 1331.71 117.96 1333.1 118.28C1334.54 118.547 1335.77 118.867 1336.78 119.24L1334.94 124.76C1334.09 124.493 1333.1 124.227 1331.98 123.96C1330.86 123.693 1329.71 123.56 1328.54 123.56C1326.19 123.56 1324.43 124.36 1323.26 125.96C1322.14 127.507 1321.58 129.96 1321.58 133.32V136.12H1332.38V141.56ZM1377.4 157.48C1377.4 164.573 1375.59 170.067 1371.96 173.96C1368.39 177.853 1363.53 179.8 1357.4 179.8C1353.61 179.8 1350.23 178.947 1347.24 177.24C1344.31 175.48 1341.99 172.947 1340.28 169.64C1338.57 166.28 1337.72 162.227 1337.72 157.48C1337.72 150.387 1339.51 144.92 1343.08 141.08C1346.65 137.24 1351.51 135.32 1357.64 135.32C1361.53 135.32 1364.95 136.2 1367.88 137.96C1370.87 139.667 1373.19 142.173 1374.84 145.48C1376.55 148.733 1377.4 152.733 1377.4 157.48ZM1345 157.48C1345 162.547 1345.99 166.573 1347.96 169.56C1349.99 172.493 1353.19 173.96 1357.56 173.96C1361.88 173.96 1365.05 172.493 1367.08 169.56C1369.11 166.573 1370.12 162.547 1370.12 157.48C1370.12 152.413 1369.11 148.44 1367.08 145.56C1365.05 142.68 1361.85 141.24 1357.48 141.24C1353.11 141.24 1349.93 142.68 1347.96 145.56C1345.99 148.44 1345 152.413 1345 157.48ZM1408.56 135.32C1409.36 135.32 1410.21 135.373 1411.12 135.48C1412.08 135.533 1412.9 135.64 1413.6 135.8L1412.72 142.28C1412.02 142.12 1411.25 141.987 1410.4 141.88C1409.6 141.773 1408.82 141.72 1408.08 141.72C1405.89 141.72 1403.84 142.333 1401.92 143.56C1400 144.733 1398.45 146.413 1397.28 148.6C1396.16 150.733 1395.6 153.24 1395.6 156.12V179H1388.56V136.12H1394.32L1395.12 143.96H1395.44C1396.82 141.613 1398.61 139.587 1400.8 137.88C1402.98 136.173 1405.57 135.32 1408.56 135.32Z" fill="#9B9B9B"/>
<g id="css">
<path id="polygon2989" d="M821.749 994L726.276 967.495L705 728.853H938.784L917.485 967.458L821.749 994Z" fill="#264DE4"/>
<path id="polygon2991" d="M899.251 952.264L917.451 748.365H821.891V973.712L899.251 952.264Z" fill="#2965F1"/>
<path id="polygon2993" d="M753.773 836.874L756.397 866.142H821.891V836.874H753.773Z" fill="#EBEBEB"/>
<path id="polygon2995" d="M748.504 777.634L751.164 806.903H821.892V777.634H821.791H748.504Z" fill="#EBEBEB"/>
<path id="polygon2997" d="M821.89 912.888L821.762 912.922L789.167 904.12L787.083 880.777H771.244H757.703L761.803 926.733L821.755 943.377L821.89 943.339V912.888Z" fill="#EBEBEB"/>
<path id="path2999" d="M760.02 664H795.467V678.824H774.843V693.648H795.467V708.473H760.02V664Z" fill="#7797E0"/>
<path id="path3001" d="M802.559 664H838.006V676.891H817.382V679.469H838.006V709.117H802.559V695.582H823.183V693.004H802.559V664Z" fill="#7797E0"/>
<path id="path3003" d="M845.094 664H880.542V676.891H859.917V679.469H880.542V709.117H845.094V695.582H865.718V693.004H845.094V664Z" fill="#7797E0"/>
<path id="polygon3005" d="M889.82 836.874L895.104 777.634H821.789V806.903H863.03L860.367 836.874H821.789V866.142H857.828L854.431 904.101L821.789 912.912V943.362L881.789 926.733L882.229 921.788L889.106 844.734L889.82 836.874Z" fill="white"/>
</g>
<g id="html">
<path id="polygon3028" d="M1215 728.853L1193.7 967.458L1097.96 994L1002.49 967.495L981.215 728.853H1215Z" fill="#E44D26"/>
<path id="polygon3030" d="M1098.11 973.712L1175.47 952.264L1193.67 748.365H1098.11V973.712Z" fill="#F16529"/>
<path id="polygon3032" d="M1056.7 806.903H1098.11V777.634H1098.01H1024.72L1025.42 785.486L1032.61 866.142H1098.11V836.874H1059.38L1056.7 806.903Z" fill="#EBEBEB"/>
<path id="polygon3034" d="M1063.3 880.777H1047.46H1033.92L1038.02 926.733L1097.97 943.377L1098.1 943.339V912.888L1097.98 912.922L1065.38 904.12L1063.3 880.777Z" fill="#EBEBEB"/>
<path id="path3036" d="M1002.96 664H1017.84V678.695H1031.44V664H1046.32V708.501H1031.44V693.599H1017.84V708.501H1002.97V664H1002.96Z" fill="#EA9079"/>
<path id="path3038" d="M1065.88 678.757H1052.78V664H1093.85V678.757H1080.75V708.501H1065.88V678.757H1065.88Z" fill="#EA9079"/>
<path id="path3040" d="M1100.37 664H1115.88L1125.42 679.636L1134.95 664H1150.46V708.501H1135.65V686.444L1125.42 702.266H1125.16L1114.92 686.444V708.501H1100.37V664Z" fill="#EA9079"/>
<path id="path3042" d="M1157.87 664H1172.74V693.792H1193.66V708.501H1157.87V664Z" fill="#EA9079"/>
<path id="polygon3044" d="M1098 866.142H1134.04L1130.65 904.101L1098 912.912V943.362L1158 926.733L1158.44 921.788L1165.32 844.734L1166.04 836.874H1158.15H1098V866.142Z" fill="white"/>
<path id="polygon3046" d="M1098 806.831V806.903H1168.6H1168.7L1169.29 800.324L1170.62 785.486L1171.32 777.634H1098V795.812V806.831Z" fill="white"/>
</g>
</g>
<defs>
<linearGradient id="paint0_linear_432:17" x1="948.605" y1="-540" x2="31.2584" y2="1110.2" gradientUnits="userSpaceOnUse">
<stop stop-color="#0B0B0B" stop-opacity="0.01"/>
<stop offset="1"/>
</linearGradient>
</defs>
</svg>
