<svg width="1920" height="1080" viewBox="0 0 1920 1080" fill="none" xmlns="http://www.w3.org/2000/svg">
<g id="DI_kotlin" clip-path="url(#clip0)">
<g id="Rectangle">
<rect width="1920" height="1080" fill="#323232"/>
<rect width="1920" height="1080" fill="url(#paint0_linear)" fill-opacity="0.15"/>
</g>
<path id="Depedency Injection" d="M538.192 149.88C538.192 159.533 535.552 166.813 530.272 171.72C525.045 176.573 517.739 179 508.352 179H492.432V121.88H510.032C515.792 121.88 520.779 122.947 524.992 125.08C529.205 127.213 532.459 130.36 534.752 134.52C537.045 138.627 538.192 143.747 538.192 149.88ZM530.592 150.12C530.592 142.493 528.699 136.92 524.912 133.4C521.179 129.827 515.872 128.04 508.992 128.04H499.632V172.84H507.392C522.859 172.84 530.592 165.267 530.592 150.12ZM566.469 135.32C570.149 135.32 573.296 136.12 575.909 137.72C578.576 139.32 580.603 141.587 581.989 144.52C583.429 147.4 584.149 150.787 584.149 154.68V158.92H554.789C554.896 163.773 556.123 167.48 558.469 170.04C560.869 172.547 564.203 173.8 568.469 173.8C571.189 173.8 573.589 173.56 575.669 173.08C577.803 172.547 579.989 171.8 582.229 170.84V177C580.043 177.96 577.883 178.653 575.749 179.08C573.616 179.56 571.083 179.8 568.149 179.8C564.096 179.8 560.496 178.973 557.349 177.32C554.256 175.667 551.829 173.213 550.069 169.96C548.363 166.653 547.509 162.627 547.509 157.88C547.509 153.187 548.283 149.16 549.829 145.8C551.429 142.44 553.643 139.853 556.469 138.04C559.349 136.227 562.683 135.32 566.469 135.32ZM566.389 141.08C563.029 141.08 560.363 142.173 558.389 144.36C556.469 146.493 555.323 149.48 554.949 153.32H576.789C576.736 149.693 575.883 146.76 574.229 144.52C572.576 142.227 569.963 141.08 566.389 141.08ZM615.466 135.32C620.746 135.32 624.986 137.16 628.186 140.84C631.439 144.52 633.066 150.067 633.066 157.48C633.066 164.787 631.439 170.333 628.186 174.12C624.986 177.907 620.719 179.8 615.386 179.8C612.079 179.8 609.332 179.187 607.146 177.96C605.012 176.68 603.332 175.213 602.106 173.56H601.626C601.732 174.467 601.839 175.613 601.946 177C602.052 178.387 602.106 179.587 602.106 180.6V198.2H595.066V136.12H600.826L601.786 141.96H602.106C603.386 140.093 605.066 138.52 607.146 137.24C609.226 135.96 611.999 135.32 615.466 135.32ZM614.186 141.24C609.812 141.24 606.719 142.467 604.906 144.92C603.146 147.373 602.212 151.107 602.106 156.12V157.48C602.106 162.76 602.959 166.84 604.666 169.72C606.426 172.547 609.652 173.96 614.346 173.96C616.959 173.96 619.092 173.24 620.746 171.8C622.452 170.36 623.706 168.413 624.506 165.96C625.359 163.453 625.786 160.6 625.786 157.4C625.786 152.493 624.826 148.573 622.906 145.64C621.039 142.707 618.132 141.24 614.186 141.24ZM660.844 135.32C664.524 135.32 667.671 136.12 670.284 137.72C672.951 139.32 674.978 141.587 676.364 144.52C677.804 147.4 678.524 150.787 678.524 154.68V158.92H649.164C649.271 163.773 650.498 167.48 652.844 170.04C655.244 172.547 658.578 173.8 662.844 173.8C665.564 173.8 667.964 173.56 670.044 173.08C672.178 172.547 674.364 171.8 676.604 170.84V177C674.418 177.96 672.258 178.653 670.124 179.08C667.991 179.56 665.458 179.8 662.524 179.8C658.471 179.8 654.871 178.973 651.724 177.32C648.631 175.667 646.204 173.213 644.444 169.96C642.738 166.653 641.884 162.627 641.884 157.88C641.884 153.187 642.658 149.16 644.204 145.8C645.804 142.44 648.018 139.853 650.844 138.04C653.724 136.227 657.058 135.32 660.844 135.32ZM660.764 141.08C657.404 141.08 654.738 142.173 652.764 144.36C650.844 146.493 649.698 149.48 649.324 153.32H671.164C671.111 149.693 670.258 146.76 668.604 144.52C666.951 142.227 664.338 141.08 660.764 141.08ZM704.641 179.8C699.307 179.8 695.041 177.96 691.841 174.28C688.641 170.547 687.041 165 687.041 157.64C687.041 150.28 688.641 144.733 691.841 141C695.094 137.213 699.387 135.32 704.721 135.32C708.027 135.32 710.721 135.933 712.801 137.16C714.934 138.387 716.667 139.88 718.001 141.64H718.481C718.427 140.947 718.321 139.933 718.161 138.6C718.054 137.213 718.001 136.12 718.001 135.32V118.2H725.041V179H719.361L718.321 173.24H718.001C716.721 175.053 715.014 176.6 712.881 177.88C710.747 179.16 708.001 179.8 704.641 179.8ZM705.761 173.96C710.294 173.96 713.467 172.733 715.281 170.28C717.147 167.773 718.081 164.013 718.081 159V157.72C718.081 152.387 717.201 148.307 715.441 145.48C713.681 142.6 710.427 141.16 705.681 141.16C701.894 141.16 699.041 142.68 697.121 145.72C695.254 148.707 694.321 152.733 694.321 157.8C694.321 162.92 695.254 166.893 697.121 169.72C699.041 172.547 701.921 173.96 705.761 173.96ZM755.219 135.32C758.899 135.32 762.046 136.12 764.659 137.72C767.326 139.32 769.353 141.587 770.739 144.52C772.179 147.4 772.899 150.787 772.899 154.68V158.92H743.539C743.646 163.773 744.873 167.48 747.219 170.04C749.619 172.547 752.953 173.8 757.219 173.8C759.939 173.8 762.339 173.56 764.419 173.08C766.553 172.547 768.739 171.8 770.979 170.84V177C768.793 177.96 766.633 178.653 764.499 179.08C762.366 179.56 759.833 179.8 756.899 179.8C752.846 179.8 749.246 178.973 746.099 177.32C743.006 175.667 740.579 173.213 738.819 169.96C737.113 166.653 736.259 162.627 736.259 157.88C736.259 153.187 737.033 149.16 738.579 145.8C740.179 142.44 742.393 139.853 745.219 138.04C748.099 136.227 751.433 135.32 755.219 135.32ZM755.139 141.08C751.779 141.08 749.113 142.173 747.139 144.36C745.219 146.493 744.073 149.48 743.699 153.32H765.539C765.486 149.693 764.633 146.76 762.979 144.52C761.326 142.227 758.713 141.08 755.139 141.08ZM804.456 135.32C809.576 135.32 813.442 136.573 816.056 139.08C818.669 141.533 819.976 145.533 819.976 151.08V179H813.016V151.56C813.016 144.68 809.816 141.24 803.416 141.24C798.669 141.24 795.389 142.573 793.576 145.24C791.762 147.907 790.856 151.747 790.856 156.76V179H783.816V136.12H789.496L790.536 141.96H790.936C792.322 139.72 794.242 138.067 796.696 137C799.149 135.88 801.736 135.32 804.456 135.32ZM850.469 179.8C846.682 179.8 843.295 179.027 840.309 177.48C837.375 175.933 835.055 173.533 833.349 170.28C831.695 167.027 830.869 162.867 830.869 157.8C830.869 152.52 831.749 148.227 833.509 144.92C835.269 141.613 837.642 139.187 840.629 137.64C843.669 136.093 847.109 135.32 850.949 135.32C853.135 135.32 855.242 135.56 857.269 136.04C859.295 136.467 860.949 137 862.229 137.64L860.069 143.48C858.789 143 857.295 142.547 855.589 142.12C853.882 141.693 852.282 141.48 850.789 141.48C842.362 141.48 838.149 146.893 838.149 157.72C838.149 162.893 839.162 166.867 841.189 169.64C843.269 172.36 846.335 173.72 850.389 173.72C852.735 173.72 854.789 173.48 856.549 173C858.362 172.52 860.015 171.933 861.509 171.24V177.48C860.069 178.227 858.469 178.787 856.709 179.16C855.002 179.587 852.922 179.8 850.469 179.8ZM864.986 136.12H872.506L881.786 160.52C882.586 162.653 883.306 164.707 883.946 166.68C884.586 168.6 885.066 170.44 885.386 172.2H885.706C886.026 170.867 886.533 169.133 887.226 167C887.92 164.813 888.64 162.627 889.386 160.44L898.106 136.12H905.706L887.226 184.92C885.733 188.973 883.786 192.2 881.386 194.6C879.04 197 875.786 198.2 871.626 198.2C870.346 198.2 869.226 198.12 868.266 197.96C867.306 197.853 866.48 197.72 865.786 197.56V191.96C866.373 192.067 867.066 192.173 867.866 192.28C868.72 192.387 869.6 192.44 870.506 192.44C872.96 192.44 874.933 191.747 876.426 190.36C877.973 188.973 879.173 187.133 880.026 184.84L882.266 179.16L864.986 136.12ZM950.309 179H929.669V174.84L936.389 173.32V127.64L929.669 126.04V121.88H950.309V126.04L943.589 127.64V173.32L950.309 174.84V179ZM981.018 135.32C986.138 135.32 990.005 136.573 992.618 139.08C995.231 141.533 996.538 145.533 996.538 151.08V179H989.578V151.56C989.578 144.68 986.378 141.24 979.978 141.24C975.231 141.24 971.951 142.573 970.138 145.24C968.325 147.907 967.418 151.747 967.418 156.76V179H960.378V136.12H966.058L967.098 141.96H967.498C968.885 139.72 970.805 138.067 973.258 137C975.711 135.88 978.298 135.32 981.018 135.32ZM1009.27 124.52C1009.27 122.973 1009.67 121.853 1010.47 121.16C1011.27 120.413 1012.26 120.04 1013.43 120.04C1014.5 120.04 1015.43 120.413 1016.23 121.16C1017.08 121.853 1017.51 122.973 1017.51 124.52C1017.51 126.013 1017.08 127.133 1016.23 127.88C1015.43 128.627 1014.5 129 1013.43 129C1012.26 129 1011.27 128.627 1010.47 127.88C1009.67 127.133 1009.27 126.013 1009.27 124.52ZM1004.79 198.2C1003.46 198.2 1002.28 198.093 1001.27 197.88C1000.26 197.72 999.378 197.507 998.631 197.24V191.56C999.431 191.773 1000.26 191.96 1001.11 192.12C1001.96 192.28 1002.9 192.36 1003.91 192.36C1005.62 192.36 1007.03 191.88 1008.15 190.92C1009.27 190.013 1009.83 188.253 1009.83 185.64V136.12H1016.87V185.4C1016.87 189.4 1015.91 192.52 1013.99 194.76C1012.07 197.053 1009 198.2 1004.79 198.2ZM1047.02 135.32C1050.7 135.32 1053.84 136.12 1056.46 137.72C1059.12 139.32 1061.15 141.587 1062.54 144.52C1063.98 147.4 1064.7 150.787 1064.7 154.68V158.92H1035.34C1035.44 163.773 1036.67 167.48 1039.02 170.04C1041.42 172.547 1044.75 173.8 1049.02 173.8C1051.74 173.8 1054.14 173.56 1056.22 173.08C1058.35 172.547 1060.54 171.8 1062.78 170.84V177C1060.59 177.96 1058.43 178.653 1056.3 179.08C1054.16 179.56 1051.63 179.8 1048.7 179.8C1044.64 179.8 1041.04 178.973 1037.9 177.32C1034.8 175.667 1032.38 173.213 1030.62 169.96C1028.91 166.653 1028.06 162.627 1028.06 157.88C1028.06 153.187 1028.83 149.16 1030.38 145.8C1031.98 142.44 1034.19 139.853 1037.02 138.04C1039.9 136.227 1043.23 135.32 1047.02 135.32ZM1046.94 141.08C1043.58 141.08 1040.91 142.173 1038.94 144.36C1037.02 146.493 1035.87 149.48 1035.5 153.32H1057.34C1057.28 149.693 1056.43 146.76 1054.78 144.52C1053.12 142.227 1050.51 141.08 1046.94 141.08ZM1092.81 179.8C1089.03 179.8 1085.64 179.027 1082.65 177.48C1079.72 175.933 1077.4 173.533 1075.69 170.28C1074.04 167.027 1073.21 162.867 1073.21 157.8C1073.21 152.52 1074.09 148.227 1075.85 144.92C1077.61 141.613 1079.99 139.187 1082.97 137.64C1086.01 136.093 1089.45 135.32 1093.29 135.32C1095.48 135.32 1097.59 135.56 1099.61 136.04C1101.64 136.467 1103.29 137 1104.57 137.64L1102.41 143.48C1101.13 143 1099.64 142.547 1097.93 142.12C1096.23 141.693 1094.63 141.48 1093.13 141.48C1084.71 141.48 1080.49 146.893 1080.49 157.72C1080.49 162.893 1081.51 166.867 1083.53 169.64C1085.61 172.36 1088.68 173.72 1092.73 173.72C1095.08 173.72 1097.13 173.48 1098.89 173C1100.71 172.52 1102.36 171.933 1103.85 171.24V177.48C1102.41 178.227 1100.81 178.787 1099.05 179.16C1097.35 179.587 1095.27 179.8 1092.81 179.8ZM1128.37 174.04C1129.44 174.04 1130.53 173.96 1131.65 173.8C1132.77 173.587 1133.68 173.373 1134.37 173.16V178.52C1133.62 178.893 1132.56 179.187 1131.17 179.4C1129.78 179.667 1128.45 179.8 1127.17 179.8C1124.93 179.8 1122.85 179.427 1120.93 178.68C1119.06 177.88 1117.54 176.52 1116.37 174.6C1115.2 172.68 1114.61 169.987 1114.61 166.52V141.56H1108.53V138.2L1114.69 135.4L1117.49 126.28H1121.65V136.12H1134.05V141.56H1121.65V166.36C1121.65 168.973 1122.26 170.92 1123.49 172.2C1124.77 173.427 1126.4 174.04 1128.37 174.04ZM1146.56 120.04C1147.62 120.04 1148.56 120.413 1149.36 121.16C1150.21 121.853 1150.64 122.973 1150.64 124.52C1150.64 126.013 1150.21 127.133 1149.36 127.88C1148.56 128.627 1147.62 129 1146.56 129C1145.38 129 1144.4 128.627 1143.6 127.88C1142.8 127.133 1142.4 126.013 1142.4 124.52C1142.4 122.973 1142.8 121.853 1143.6 121.16C1144.4 120.413 1145.38 120.04 1146.56 120.04ZM1150 136.12V179H1142.96V136.12H1150ZM1200.86 157.48C1200.86 164.573 1199.05 170.067 1195.42 173.96C1191.85 177.853 1186.99 179.8 1180.86 179.8C1177.07 179.8 1173.69 178.947 1170.7 177.24C1167.77 175.48 1165.45 172.947 1163.74 169.64C1162.03 166.28 1161.18 162.227 1161.18 157.48C1161.18 150.387 1162.97 144.92 1166.54 141.08C1170.11 137.24 1174.97 135.32 1181.1 135.32C1184.99 135.32 1188.41 136.2 1191.34 137.96C1194.33 139.667 1196.65 142.173 1198.3 145.48C1200.01 148.733 1200.86 152.733 1200.86 157.48ZM1168.46 157.48C1168.46 162.547 1169.45 166.573 1171.42 169.56C1173.45 172.493 1176.65 173.96 1181.02 173.96C1185.34 173.96 1188.51 172.493 1190.54 169.56C1192.57 166.573 1193.58 162.547 1193.58 157.48C1193.58 152.413 1192.57 148.44 1190.54 145.56C1188.51 142.68 1185.31 141.24 1180.94 141.24C1176.57 141.24 1173.39 142.68 1171.42 145.56C1169.45 148.44 1168.46 152.413 1168.46 157.48ZM1232.66 135.32C1237.78 135.32 1241.65 136.573 1244.26 139.08C1246.87 141.533 1248.18 145.533 1248.18 151.08V179H1241.22V151.56C1241.22 144.68 1238.02 141.24 1231.62 141.24C1226.87 141.24 1223.59 142.573 1221.78 145.24C1219.97 147.907 1219.06 151.747 1219.06 156.76V179H1212.02V136.12H1217.7L1218.74 141.96H1219.14C1220.53 139.72 1222.45 138.067 1224.9 137C1227.35 135.88 1229.94 135.32 1232.66 135.32ZM1317.29 178.92L1309.93 154.76C1309.24 152.573 1308.63 150.44 1308.09 148.36C1307.61 146.227 1307.24 144.573 1306.97 143.4H1306.65C1306.44 144.573 1306.09 146.227 1305.61 148.36C1305.13 150.44 1304.52 152.6 1303.77 154.84L1296.09 178.92H1288.09L1276.33 136.04H1283.61L1289.53 158.92C1290.12 161.213 1290.68 163.533 1291.21 165.88C1291.75 168.227 1292.12 170.173 1292.33 171.72H1292.65C1292.87 170.813 1293.11 169.693 1293.37 168.36C1293.69 167.027 1294.04 165.64 1294.41 164.2C1294.79 162.707 1295.16 161.373 1295.53 160.2L1303.13 136.04H1310.81L1318.17 160.2C1318.76 162.013 1319.32 163.987 1319.85 166.12C1320.44 168.253 1320.84 170.093 1321.05 171.64H1321.37C1321.53 170.307 1321.88 168.467 1322.41 166.12C1323 163.773 1323.61 161.373 1324.25 158.92L1330.25 136.04H1337.45L1325.53 178.92H1317.29ZM1348.74 120.04C1349.81 120.04 1350.74 120.413 1351.54 121.16C1352.4 121.853 1352.82 122.973 1352.82 124.52C1352.82 126.013 1352.4 127.133 1351.54 127.88C1350.74 128.627 1349.81 129 1348.74 129C1347.57 129 1346.58 128.627 1345.78 127.88C1344.98 127.133 1344.58 126.013 1344.58 124.52C1344.58 122.973 1344.98 121.853 1345.78 121.16C1346.58 120.413 1347.57 120.04 1348.74 120.04ZM1352.18 136.12V179H1345.14V136.12H1352.18ZM1380.09 174.04C1381.16 174.04 1382.25 173.96 1383.37 173.8C1384.49 173.587 1385.4 173.373 1386.09 173.16V178.52C1385.34 178.893 1384.28 179.187 1382.89 179.4C1381.5 179.667 1380.17 179.8 1378.89 179.8C1376.65 179.8 1374.57 179.427 1372.65 178.68C1370.78 177.88 1369.26 176.52 1368.09 174.6C1366.92 172.68 1366.33 169.987 1366.33 166.52V141.56H1360.25V138.2L1366.41 135.4L1369.21 126.28H1373.37V136.12H1385.77V141.56H1373.37V166.36C1373.37 168.973 1373.98 170.92 1375.21 172.2C1376.49 173.427 1378.12 174.04 1380.09 174.04ZM1401.72 118.2V136.04C1401.72 138.173 1401.58 140.173 1401.32 142.04H1401.8C1403.18 139.853 1405.05 138.2 1407.4 137.08C1409.8 135.96 1412.38 135.4 1415.16 135.4C1420.38 135.4 1424.3 136.653 1426.92 139.16C1429.53 141.613 1430.84 145.587 1430.84 151.08V179H1423.88V151.56C1423.88 144.68 1420.68 141.24 1414.28 141.24C1409.48 141.24 1406.17 142.6 1404.36 145.32C1402.6 147.987 1401.72 151.827 1401.72 156.84V179H1394.68V118.2H1401.72Z" fill="#9B9B9B"/>
<path id="Dagger 2 and Kotlin" d="M359.031 293.4C359.031 311.5 354.081 325.15 344.181 334.35C334.381 343.45 320.681 348 303.081 348H273.231V240.9H306.231C317.031 240.9 326.381 242.9 334.281 246.9C342.181 250.9 348.281 256.8 352.581 264.6C356.881 272.3 359.031 281.9 359.031 293.4ZM344.781 293.85C344.781 279.55 341.231 269.1 334.131 262.5C327.131 255.8 317.181 252.45 304.281 252.45H286.731V336.45H301.281C330.281 336.45 344.781 322.25 344.781 293.85ZM411.451 266.25C421.251 266.25 428.501 268.4 433.201 272.7C437.901 277 440.251 283.85 440.251 293.25V348H430.651L428.101 336.6H427.501C424.001 341 420.301 344.25 416.401 346.35C412.601 348.45 407.301 349.5 400.501 349.5C393.201 349.5 387.151 347.6 382.351 343.8C377.551 339.9 375.151 333.85 375.151 325.65C375.151 317.65 378.301 311.5 384.601 307.2C390.901 302.8 400.601 300.4 413.701 300L427.351 299.55V294.75C427.351 288.05 425.901 283.4 423.001 280.8C420.101 278.2 416.001 276.9 410.701 276.9C406.501 276.9 402.501 277.55 398.701 278.85C394.901 280.05 391.351 281.45 388.051 283.05L384.001 273.15C387.501 271.25 391.651 269.65 396.451 268.35C401.251 266.95 406.251 266.25 411.451 266.25ZM427.201 308.7L415.351 309.15C405.351 309.55 398.401 311.15 394.501 313.95C390.701 316.75 388.801 320.7 388.801 325.8C388.801 330.3 390.151 333.6 392.851 335.7C395.651 337.8 399.201 338.85 403.501 338.85C410.301 338.85 415.951 337 420.451 333.3C424.951 329.5 427.201 323.7 427.201 315.9V308.7ZM493.583 266.1C498.883 266.1 503.633 267.1 507.833 269.1C512.133 271.1 515.783 274.15 518.783 278.25H519.533L521.333 267.6H531.833V349.35C531.833 360.85 528.883 369.5 522.983 375.3C517.183 381.1 508.133 384 495.833 384C484.033 384 474.383 382.3 466.883 378.9V366.75C474.783 370.95 484.683 373.05 496.583 373.05C503.483 373.05 508.883 371 512.783 366.9C516.783 362.9 518.783 357.4 518.783 350.4V347.25C518.783 346.05 518.833 344.35 518.933 342.15C519.033 339.85 519.133 338.25 519.233 337.35H518.633C513.233 345.45 504.933 349.5 493.733 349.5C483.333 349.5 475.183 345.85 469.283 338.55C463.483 331.25 460.583 321.05 460.583 307.95C460.583 295.15 463.483 285 469.283 277.5C475.183 269.9 483.283 266.1 493.583 266.1ZM495.383 277.2C488.683 277.2 483.483 279.9 479.783 285.3C476.083 290.6 474.233 298.2 474.233 308.1C474.233 318 476.033 325.6 479.633 330.9C483.333 336.1 488.683 338.7 495.683 338.7C503.783 338.7 509.683 336.55 513.383 332.25C517.083 327.85 518.933 320.8 518.933 311.1V307.95C518.933 296.95 517.033 289.1 513.233 284.4C509.433 279.6 503.483 277.2 495.383 277.2ZM585.868 266.1C591.168 266.1 595.918 267.1 600.118 269.1C604.418 271.1 608.068 274.15 611.068 278.25H611.818L613.618 267.6H624.118V349.35C624.118 360.85 621.168 369.5 615.268 375.3C609.468 381.1 600.418 384 588.118 384C576.318 384 566.668 382.3 559.168 378.9V366.75C567.068 370.95 576.968 373.05 588.868 373.05C595.768 373.05 601.168 371 605.068 366.9C609.068 362.9 611.068 357.4 611.068 350.4V347.25C611.068 346.05 611.118 344.35 611.218 342.15C611.318 339.85 611.418 338.25 611.518 337.35H610.918C605.518 345.45 597.218 349.5 586.018 349.5C575.618 349.5 567.468 345.85 561.568 338.55C555.768 331.25 552.868 321.05 552.868 307.95C552.868 295.15 555.768 285 561.568 277.5C567.468 269.9 575.568 266.1 585.868 266.1ZM587.668 277.2C580.968 277.2 575.768 279.9 572.068 285.3C568.368 290.6 566.518 298.2 566.518 308.1C566.518 318 568.318 325.6 571.918 330.9C575.618 336.1 580.968 338.7 587.968 338.7C596.068 338.7 601.968 336.55 605.668 332.25C609.368 327.85 611.218 320.8 611.218 311.1V307.95C611.218 296.95 609.318 289.1 605.518 284.4C601.718 279.6 595.768 277.2 587.668 277.2ZM680.703 266.1C687.603 266.1 693.503 267.6 698.403 270.6C703.403 273.6 707.203 277.85 709.803 283.35C712.503 288.75 713.853 295.1 713.853 302.4V310.35H658.803C659.003 319.45 661.303 326.4 665.703 331.2C670.203 335.9 676.453 338.25 684.453 338.25C689.553 338.25 694.053 337.8 697.953 336.9C701.953 335.9 706.053 334.5 710.253 332.7V344.25C706.153 346.05 702.103 347.35 698.103 348.15C694.103 349.05 689.353 349.5 683.853 349.5C676.253 349.5 669.503 347.95 663.603 344.85C657.803 341.75 653.253 337.15 649.953 331.05C646.753 324.85 645.153 317.3 645.153 308.4C645.153 299.6 646.603 292.05 649.503 285.75C652.503 279.45 656.653 274.6 661.953 271.2C667.353 267.8 673.603 266.1 680.703 266.1ZM680.553 276.9C674.253 276.9 669.253 278.95 665.553 283.05C661.953 287.05 659.803 292.65 659.103 299.85H700.053C699.953 293.05 698.353 287.55 695.253 283.35C692.153 279.05 687.253 276.9 680.553 276.9ZM771.821 266.1C773.321 266.1 774.921 266.2 776.621 266.4C778.421 266.5 779.971 266.7 781.271 267L779.621 279.15C778.321 278.85 776.871 278.6 775.271 278.4C773.771 278.2 772.321 278.1 770.921 278.1C766.821 278.1 762.971 279.25 759.371 281.55C755.771 283.75 752.871 286.9 750.671 291C748.571 295 747.521 299.7 747.521 305.1V348H734.321V267.6H745.121L746.621 282.3H747.221C749.821 277.9 753.171 274.1 757.271 270.9C761.371 267.7 766.221 266.1 771.821 266.1ZM900.499 348H829.699V337.05L857.749 308.7C863.149 303.3 867.699 298.5 871.399 294.3C875.099 290.1 877.899 286 879.799 282C881.699 277.9 882.649 273.45 882.649 268.65C882.649 262.75 880.899 258.3 877.399 255.3C873.899 252.2 869.349 250.65 863.749 250.65C858.549 250.65 853.949 251.55 849.949 253.35C846.049 255.15 842.049 257.65 837.949 260.85L830.899 252C835.099 248.5 839.899 245.55 845.299 243.15C850.799 240.65 856.949 239.4 863.749 239.4C873.749 239.4 881.649 241.95 887.449 247.05C893.249 252.05 896.149 259 896.149 267.9C896.149 273.5 894.999 278.75 892.699 283.65C890.399 288.55 887.199 293.4 883.099 298.2C878.999 302.9 874.199 307.95 868.699 313.35L846.349 335.4V336H900.499V348ZM990.504 266.25C1000.3 266.25 1007.55 268.4 1012.25 272.7C1016.95 277 1019.3 283.85 1019.3 293.25V348H1009.7L1007.15 336.6H1006.55C1003.05 341 999.354 344.25 995.454 346.35C991.654 348.45 986.354 349.5 979.554 349.5C972.254 349.5 966.204 347.6 961.404 343.8C956.604 339.9 954.204 333.85 954.204 325.65C954.204 317.65 957.354 311.5 963.654 307.2C969.954 302.8 979.654 300.4 992.754 300L1006.4 299.55V294.75C1006.4 288.05 1004.95 283.4 1002.05 280.8C999.154 278.2 995.054 276.9 989.754 276.9C985.554 276.9 981.554 277.55 977.754 278.85C973.954 280.05 970.404 281.45 967.104 283.05L963.054 273.15C966.554 271.25 970.704 269.65 975.504 268.35C980.304 266.95 985.304 266.25 990.504 266.25ZM1006.25 308.7L994.404 309.15C984.404 309.55 977.454 311.15 973.554 313.95C969.754 316.75 967.854 320.7 967.854 325.8C967.854 330.3 969.204 333.6 971.904 335.7C974.704 337.8 978.254 338.85 982.554 338.85C989.354 338.85 995.004 337 999.504 333.3C1004 329.5 1006.25 323.7 1006.25 315.9V308.7ZM1082.84 266.1C1092.44 266.1 1099.69 268.45 1104.59 273.15C1109.49 277.75 1111.94 285.25 1111.94 295.65V348H1098.89V296.55C1098.89 283.65 1092.89 277.2 1080.89 277.2C1071.99 277.2 1065.84 279.7 1062.44 284.7C1059.04 289.7 1057.34 296.9 1057.34 306.3V348H1044.14V267.6H1054.79L1056.74 278.55H1057.49C1060.09 274.35 1063.69 271.25 1068.29 269.25C1072.89 267.15 1077.74 266.1 1082.84 266.1ZM1165.36 349.5C1155.36 349.5 1147.36 346.05 1141.36 339.15C1135.36 332.15 1132.36 321.75 1132.36 307.95C1132.36 294.15 1135.36 283.75 1141.36 276.75C1147.46 269.65 1155.51 266.1 1165.51 266.1C1171.71 266.1 1176.76 267.25 1180.66 269.55C1184.66 271.85 1187.91 274.65 1190.41 277.95H1191.31C1191.21 276.65 1191.01 274.75 1190.71 272.25C1190.51 269.65 1190.41 267.6 1190.41 266.1V234H1203.61V348H1192.96L1191.01 337.2H1190.41C1188.01 340.6 1184.81 343.5 1180.81 345.9C1176.81 348.3 1171.66 349.5 1165.36 349.5ZM1167.46 338.55C1175.96 338.55 1181.91 336.25 1185.31 331.65C1188.81 326.95 1190.56 319.9 1190.56 310.5V308.1C1190.56 298.1 1188.91 290.45 1185.61 285.15C1182.31 279.75 1176.21 277.05 1167.31 277.05C1160.21 277.05 1154.86 279.9 1151.26 285.6C1147.76 291.2 1146.01 298.75 1146.01 308.25C1146.01 317.85 1147.76 325.3 1151.26 330.6C1154.86 335.9 1160.26 338.55 1167.46 338.55ZM1348.21 348H1332.31L1294.36 296.85L1283.41 306.45V348H1269.91V240.9H1283.41V293.7C1286.41 290.3 1289.46 286.9 1292.56 283.5C1295.66 280.1 1298.76 276.7 1301.86 273.3L1330.81 240.9H1346.56L1304.11 287.55L1348.21 348ZM1430.88 307.65C1430.88 320.95 1427.48 331.25 1420.68 338.55C1413.98 345.85 1404.88 349.5 1393.38 349.5C1386.28 349.5 1379.93 347.9 1374.33 344.7C1368.83 341.4 1364.48 336.65 1361.28 330.45C1358.08 324.15 1356.48 316.55 1356.48 307.65C1356.48 294.35 1359.83 284.1 1366.53 276.9C1373.23 269.7 1382.33 266.1 1393.83 266.1C1401.13 266.1 1407.53 267.75 1413.03 271.05C1418.63 274.25 1422.98 278.95 1426.08 285.15C1429.28 291.25 1430.88 298.75 1430.88 307.65ZM1370.13 307.65C1370.13 317.15 1371.98 324.7 1375.68 330.3C1379.48 335.8 1385.48 338.55 1393.68 338.55C1401.78 338.55 1407.73 335.8 1411.53 330.3C1415.33 324.7 1417.23 317.15 1417.23 307.65C1417.23 298.15 1415.33 290.7 1411.53 285.3C1407.73 279.9 1401.73 277.2 1393.53 277.2C1385.33 277.2 1379.38 279.9 1375.68 285.3C1371.98 290.7 1370.13 298.15 1370.13 307.65ZM1478.65 338.7C1480.65 338.7 1482.7 338.55 1484.8 338.25C1486.9 337.85 1488.6 337.45 1489.9 337.05V347.1C1488.5 347.8 1486.5 348.35 1483.9 348.75C1481.3 349.25 1478.8 349.5 1476.4 349.5C1472.2 349.5 1468.3 348.8 1464.7 347.4C1461.2 345.9 1458.35 343.35 1456.15 339.75C1453.95 336.15 1452.85 331.1 1452.85 324.6V277.8H1441.45V271.5L1453 266.25L1458.25 249.15H1466.05V267.6H1489.3V277.8H1466.05V324.3C1466.05 329.2 1467.2 332.85 1469.5 335.25C1471.9 337.55 1474.95 338.7 1478.65 338.7ZM1519.2 348H1506V234H1519.2V348ZM1551.42 237.45C1553.42 237.45 1555.17 238.15 1556.67 239.55C1558.27 240.85 1559.07 242.95 1559.07 245.85C1559.07 248.65 1558.27 250.75 1556.67 252.15C1555.17 253.55 1553.42 254.25 1551.42 254.25C1549.22 254.25 1547.37 253.55 1545.87 252.15C1544.37 250.75 1543.62 248.65 1543.62 245.85C1543.62 242.95 1544.37 240.85 1545.87 239.55C1547.37 238.15 1549.22 237.45 1551.42 237.45ZM1557.87 267.6V348H1544.67V267.6H1557.87ZM1622.04 266.1C1631.64 266.1 1638.89 268.45 1643.79 273.15C1648.69 277.75 1651.14 285.25 1651.14 295.65V348H1638.09V296.55C1638.09 283.65 1632.09 277.2 1620.09 277.2C1611.19 277.2 1605.04 279.7 1601.64 284.7C1598.24 289.7 1596.54 296.9 1596.54 306.3V348H1583.34V267.6H1593.99L1595.94 278.55H1596.69C1599.29 274.35 1602.89 271.25 1607.49 269.25C1612.09 267.15 1616.94 266.1 1622.04 266.1Z" fill="#61DAFB"/>
<g id="Kotlin-logo" filter="url(#filter0_d)">
<path id="XMLID_2_" d="M1195 858L1357.54 695.46L1519 858H1195Z" fill="url(#paint1_linear)"/>
<path id="Shape" d="M1195 534H1357.54L1195 709.5V534Z" fill="url(#paint2_linear)"/>
<path id="Shape_2" d="M1357.54 534L1195 705.18V858L1357.54 695.46L1519 534H1357.54Z" fill="url(#paint3_linear)"/>
</g>
<g id="injection" filter="url(#filter1_d)">
<path id="Shape_3" fill-rule="evenodd" clip-rule="evenodd" d="M411.335 592.786L395.732 608.38C393.331 610.779 393.331 614.378 396.332 617.377C397.532 618.577 401.133 620.376 404.734 617.377L416.137 605.981L455.746 645.567L447.944 653.364C445.544 655.763 445.544 659.362 447.944 661.761L572.774 786.517C573.974 787.717 577.575 790.116 581.176 786.517L588.978 778.72L600.981 790.716C603.459 792.697 605.528 792.224 606.511 791.999L606.511 791.999C606.718 791.952 606.878 791.916 606.982 791.916L621.386 787.717L671.798 838.099C675.398 841.698 678.999 839.299 680.2 838.099C682.6 835.7 682.6 832.101 680.2 829.702L629.788 779.32L633.989 764.925C635.189 762.526 634.589 760.727 632.788 758.927L620.785 746.931L628.587 739.134C630.988 736.735 630.988 733.136 628.587 730.737L503.157 605.381C499.556 602.382 495.956 604.182 494.755 605.381L486.953 613.178L447.344 573.592L458.747 562.196C461.147 559.797 461.147 556.199 458.747 553.799C456.346 551.4 452.745 551.4 450.345 553.799L411.335 592.786ZM618.385 775.721L606.982 779.32L597.98 770.323L612.984 755.328L621.986 764.325L618.385 775.721ZM576.975 773.922L615.984 734.936L499.556 618.577L460.547 657.563L576.975 773.922ZM479.152 621.576L464.148 636.57L423.938 596.984L438.942 581.989L479.152 621.576Z" fill="#61DAFB"/>
<path id="Path" fill-rule="evenodd" clip-rule="evenodd" d="M510.235 641.774C512.588 644.139 512.588 647.687 510.235 650.052L492 668.382C489.059 671.339 484.941 669.565 483.765 668.382C481.412 666.017 481.412 662.469 483.765 660.104L502 641.774C504.353 639.409 507.882 639.409 510.235 641.774Z" fill="#61DAFB"/>
<path id="Path_2" fill-rule="evenodd" clip-rule="evenodd" d="M522 661.774C524.353 659.409 527.882 659.409 530.235 661.774C532.588 664.139 532.588 667.687 530.235 670.052L512 688.382C507.882 691.339 504.941 689.565 503.765 688.382C501.412 686.017 501.412 682.469 503.765 680.104L522 661.774Z" fill="#61DAFB"/>
<path id="Path_3" fill-rule="evenodd" clip-rule="evenodd" d="M544 681.759C546.353 679.414 549.882 679.414 552.235 681.759C554.588 684.104 554.588 687.622 552.235 689.967L534 708.142C530.471 711.66 526.941 709.315 525.765 708.142C523.412 705.797 523.412 702.279 525.765 699.934L544 681.759Z" fill="#61DAFB"/>
<path id="Path_4" fill-rule="evenodd" clip-rule="evenodd" d="M564 703.759C566.353 701.414 569.882 701.414 572.235 703.759C574.588 706.104 574.588 709.622 572.235 711.967L554 730.142C552.824 731.315 548.706 733.66 545.765 730.142C543.412 727.797 543.412 724.279 545.765 721.934L564 703.759Z" fill="#61DAFB"/>
<path id="Path_5" fill-rule="evenodd" clip-rule="evenodd" d="M584 723.759C586.353 721.414 589.882 721.414 592.235 723.759C594.588 726.104 594.588 729.622 592.235 731.967L574 750.142C572.824 751.315 568.706 753.66 565.765 750.142C563.412 747.797 563.412 744.279 565.765 741.934L584 723.759Z" fill="#61DAFB"/>
</g>
</g>
<defs>
<filter id="filter0_d" x="1179" y="518" width="378" height="378" filterUnits="userSpaceOnUse" color-interpolation-filters="sRGB">
<feFlood flood-opacity="0" result="BackgroundImageFix"/>
<feColorMatrix in="SourceAlpha" type="matrix" values="0 0 0 0 0 0 0 0 0 0 0 0 0 0 0 0 0 0 127 0"/>
<feOffset dx="11" dy="11"/>
<feGaussianBlur stdDeviation="13.5"/>
<feColorMatrix type="matrix" values="0 0 0 0 0 0 0 0 0 0 0 0 0 0 0 0 0 0 0.5 0"/>
<feBlend mode="normal" in2="BackgroundImageFix" result="effect1_dropShadow"/>
<feBlend mode="normal" in="SourceGraphic" in2="effect1_dropShadow" result="shape"/>
</filter>
<filter id="filter1_d" x="386" y="548" width="304" height="304" filterUnits="userSpaceOnUse" color-interpolation-filters="sRGB">
<feFlood flood-opacity="0" result="BackgroundImageFix"/>
<feColorMatrix in="SourceAlpha" type="matrix" values="0 0 0 0 0 0 0 0 0 0 0 0 0 0 0 0 0 0 127 0"/>
<feOffset dy="4"/>
<feGaussianBlur stdDeviation="4"/>
<feColorMatrix type="matrix" values="0 0 0 0 0 0 0 0 0 0 0 0 0 0 0 0 0 0 0.5 0"/>
<feBlend mode="normal" in2="BackgroundImageFix" result="effect1_dropShadow"/>
<feBlend mode="normal" in="SourceGraphic" in2="effect1_dropShadow" result="shape"/>
</filter>
<linearGradient id="paint0_linear" x1="948.605" y1="-540" x2="31.2584" y2="1110.2" gradientUnits="userSpaceOnUse">
<stop stop-color="#0B0B0B" stop-opacity="0.01"/>
<stop offset="1"/>
</linearGradient>
<linearGradient id="paint1_linear" x1="1433.75" y1="972.074" x2="1479.1" y2="791.885" gradientUnits="userSpaceOnUse">
<stop offset="0.09677" stop-color="#0095D5"/>
<stop offset="0.3007" stop-color="#238AD9"/>
<stop offset="0.6211" stop-color="#557BDE"/>
<stop offset="0.8643" stop-color="#7472E2"/>
<stop offset="1" stop-color="#806EE3"/>
</linearGradient>
<linearGradient id="paint2_linear" x1="1258.9" y1="647.117" x2="1354.06" y2="565.496" gradientUnits="userSpaceOnUse">
<stop offset="0.1183" stop-color="#0095D5"/>
<stop offset="0.4178" stop-color="#3C83DC"/>
<stop offset="0.6962" stop-color="#6D74E1"/>
<stop offset="0.8333" stop-color="#806EE3"/>
</linearGradient>
<linearGradient id="paint3_linear" x1="1291.2" y1="982.634" x2="1592.7" y2="681.135" gradientUnits="userSpaceOnUse">
<stop offset="0.1075" stop-color="#C757BC"/>
<stop offset="0.2138" stop-color="#D0609A"/>
<stop offset="0.4254" stop-color="#E1725C"/>
<stop offset="0.6048" stop-color="#EE7E2F"/>
<stop offset="0.743" stop-color="#F58613"/>
<stop offset="0.8232" stop-color="#F88909"/>
</linearGradient>
<clipPath id="clip0">
<rect width="1920" height="1080" fill="white"/>
</clipPath>
</defs>
</svg>
