<svg width="231" height="232" viewBox="0 0 231 232" fill="none" xmlns="http://www.w3.org/2000/svg">
<circle cx="115.655" cy="115.834" r="115.197" fill="white"/>
<circle cx="115.655" cy="115.834" r="104.201" fill="#192838"/>
<path fill-rule="evenodd" clip-rule="evenodd" d="M144.851 51.1621C145.635 49.7374 147.425 49.2178 148.85 50.0015L155.75 53.7972C157.175 54.5809 157.694 56.3711 156.911 57.7958L97.4214 165.941L101.921 168.416C103.346 169.2 103.865 170.99 103.081 172.415L99.2844 179.317C98.5007 180.742 96.7105 181.262 95.2859 180.478L81.3065 172.788C79.9752 172.056 79.4342 170.445 80.0085 169.074C80.0296 169.024 80.0522 168.974 80.0763 168.924C80.0983 168.879 80.1215 168.834 80.146 168.789L84.4249 161.011C74.1259 163.663 62.8339 162.548 52.7802 157.018C31.8379 145.498 24.1997 119.182 35.7198 98.2394C47.2399 77.2971 73.5559 69.6589 94.4981 81.179C104.552 86.7094 111.539 95.6496 114.813 105.768L144.851 51.1621ZM99.4347 133.287C91.5979 147.534 73.6961 152.73 59.4497 144.893C45.2034 137.056 40.0074 119.154 47.8441 104.908C55.6808 90.6617 73.5827 85.4657 87.829 93.3024C102.075 101.139 107.271 119.041 99.4347 133.287Z" fill="white"/>
<path d="M191.404 77.5414C191.42 77.5122 191.436 77.4829 191.451 77.4534L191.973 76.5105C192.759 75.0883 192.244 73.2978 190.822 72.5112L176.857 64.7878C175.435 64.0013 173.644 64.5166 172.858 65.9388L169.157 72.6305C168.37 74.0527 168.886 75.8432 170.308 76.6297L174.809 79.1193L120.042 178.146L115.429 175.595C114.007 174.809 112.216 175.324 111.43 176.746L107.729 183.438C106.942 184.86 107.458 186.651 108.88 187.437L130.144 199.198C131.566 199.984 133.357 199.469 134.143 198.047L137.274 192.385C138.376 190.394 137.654 187.887 135.663 186.786L132.08 184.804L188.231 83.276C188.245 83.2519 188.259 83.2275 188.273 83.2028L191.404 77.5414Z" fill="#07A8EB"/>
</svg>
