<svg width="236" height="237" viewBox="0 0 236 237" fill="none" xmlns="http://www.w3.org/2000/svg">
<circle cx="117.655" cy="118.404" r="117.612" fill="#B6B6B6"/>
<circle cx="117.654" cy="118.404" r="115.197" fill="white"/>
<circle cx="117.654" cy="118.404" r="104.201" fill="#192838"/>
<path fill-rule="evenodd" clip-rule="evenodd" d="M146.85 53.7319C147.634 52.3072 149.424 51.7876 150.849 52.5713L157.749 56.3671C159.174 57.1507 159.693 58.9409 158.91 60.3656L99.4204 168.511L103.92 170.986C105.345 171.77 105.864 173.56 105.081 174.985L101.283 181.887C100.5 183.312 98.7095 183.832 97.2849 183.048L83.3055 175.358C81.9742 174.626 81.4332 173.014 82.0075 171.644C82.0286 171.594 82.0512 171.544 82.0753 171.494C82.0973 171.449 82.1205 171.404 82.145 171.359L86.424 163.581C76.1249 166.233 64.8329 165.118 54.7792 159.588C33.8369 148.067 26.1987 121.752 37.7188 100.809C49.2389 79.8669 75.5549 72.2287 96.4972 83.7488C106.551 89.2792 113.538 98.2194 116.812 108.338L146.85 53.7319ZM101.434 135.857C93.597 150.104 75.6951 155.3 61.4488 147.463C47.2024 139.626 42.0064 121.724 49.8431 107.478C57.6799 93.2316 75.5817 88.0355 89.8281 95.8723C104.074 103.709 109.27 121.611 101.434 135.857Z" fill="white"/>
<path d="M193.403 80.1112C193.419 80.082 193.435 80.0527 193.45 80.0233L193.972 79.0803C194.758 77.6581 194.243 75.8676 192.821 75.081L178.856 67.3577C177.434 66.5711 175.643 67.0864 174.857 68.5086L171.156 75.2003C170.369 76.6225 170.885 78.413 172.307 79.1996L176.808 81.6891L122.041 180.716L117.428 178.165C116.006 177.379 114.215 177.894 113.429 179.316L109.728 186.008C108.941 187.43 109.457 189.221 110.879 190.007L132.143 201.768C133.565 202.554 135.356 202.039 136.142 200.617L139.273 194.955C140.375 192.964 139.653 190.457 137.662 189.356L134.079 187.374L190.23 85.8459C190.244 85.8217 190.258 85.7973 190.272 85.7726L193.403 80.1112Z" fill="#07A8EB"/>
</svg>
