<svg width="1920" height="1080" viewBox="0 0 1920 1080" fill="none" xmlns="http://www.w3.org/2000/svg">
<g id="java-vs-kotlin" clip-path="url(#clip0)">
<g id="Rectangle">
<rect width="1920" height="1080" fill="#323232"/>
<rect width="1920" height="1080" fill="url(#paint0_linear)" fill-opacity="0.15"/>
</g>
<g id="Java-Logo" filter="url(#filter0_d)">
<path id="_227268128" fill-rule="evenodd" clip-rule="evenodd" d="M540.389 678.877C598.526 648.771 571.534 619.702 552.847 623.336C548.175 624.374 546.099 625.412 546.099 625.412C546.099 625.412 547.656 622.298 551.289 621.26C588.145 608.282 617.213 660.19 539.351 680.435C539.351 680.435 539.87 679.916 540.389 678.877ZM418.923 640.465C382.587 635.794 439.167 622.298 439.167 622.298L439.167 622.298C439.167 622.298 416.847 620.74 389.854 633.717C358.19 649.29 468.755 656.038 526.373 640.985C532.083 637.351 540.389 633.717 540.389 633.717C540.389 633.717 517.03 637.87 493.671 639.946C465.121 642.023 434.496 642.541 418.923 640.465ZM432.938 669.534C412.734 667.462 425.62 657.634 425.671 657.596C373.244 675.244 455.259 694.969 528.45 673.168C520.663 670.572 515.992 665.381 515.992 665.381C480.175 672.648 459.412 672.13 432.938 669.534ZM441.763 700.679C421.518 698.603 433.457 691.336 433.457 691.336L433.457 691.336C385.702 704.832 462.526 732.343 523.259 706.389C513.396 702.755 506.129 698.084 506.129 698.084C479.137 703.275 466.159 703.793 441.763 700.679ZM568.938 716.771L568.939 716.772L568.937 716.771L568.938 716.771ZM568.939 716.772C601.117 731.306 498.859 760.373 374.8 740.129C329.64 732.862 397.121 707.427 409.06 715.733C409.06 715.733 405.426 715.733 398.678 717.29C391.93 718.328 371.167 725.076 382.067 729.748C413.212 743.244 524.297 740.13 559.076 729.748C577.653 724.072 569.04 716.856 568.939 716.772ZM588.663 732.343C586.587 758.816 500.939 764.527 444.877 760.893C408.022 758.816 400.755 752.587 400.755 752.587C435.534 758.297 494.709 759.336 542.465 750.511C584.511 742.725 588.663 732.343 588.663 732.343Z" fill="#4E7896"/>
</g>
<g id="Android_robot" filter="url(#filter1_d)">
<g id="Group">
<g id="b-link">
<g id="b">
<path id="Oval" fill-rule="evenodd" clip-rule="evenodd" d="M960.499 699.6C1005.66 699.6 1042.27 665.753 1042.27 624C1042.27 582.247 1005.66 548.4 960.499 548.4C915.337 548.4 878.727 582.247 878.727 624C878.727 665.753 915.337 699.6 960.499 699.6Z" fill="#A4C639" stroke="white" stroke-width="12.96"/>
<rect id="Rectangle_2" x="878.727" y="605.1" width="163.545" height="163.8" rx="19.8" fill="#A4C639" stroke="white" stroke-width="12.96"/>
</g>
</g>
<g id="a-link">
<g id="a">
<path id="Rectangle_3" fill-rule="evenodd" clip-rule="evenodd" d="M914.864 530.632C913.3 527.806 909.74 526.785 906.915 528.353C904.097 529.918 903.078 533.47 904.639 536.291L936.446 593.762C938.011 596.588 941.571 597.609 944.395 596.041C947.214 594.476 948.232 590.924 946.671 588.103L914.864 530.632Z" fill="#A4C639" stroke="white" stroke-width="6.48"/>
<rect id="c" width="43.1329" height="119.7" rx="21.5664" transform="matrix(-1 0 0 1 1089 624)" fill="#A4C639" stroke="white" stroke-width="6.48"/>
<g id="c-link">
<rect id="c_2" width="43.1329" height="119.7" rx="21.5664" transform="matrix(-1 0 0 1 1012.62 711.3)" fill="#A4C639" stroke="white" stroke-width="6.48"/>
</g>
</g>
</g>
<g id="a_2">
<path id="Rectangle_4" fill-rule="evenodd" clip-rule="evenodd" d="M1006.14 530.632C1007.7 527.806 1011.26 526.785 1014.08 528.353C1016.9 529.918 1017.92 533.47 1016.36 536.291L984.554 593.762C982.989 596.588 979.429 597.609 976.605 596.041C973.786 594.476 972.768 590.924 974.329 588.103L1006.14 530.632Z" fill="#A4C639" stroke="white" stroke-width="6.48"/>
<rect id="c_3" x="832" y="624" width="43.1329" height="119.7" rx="21.5664" fill="#A4C639" stroke="white" stroke-width="6.48"/>
<g id="c-link_2">
<rect id="c_4" x="908.381" y="711.3" width="43.1329" height="119.7" rx="21.5664" fill="#A4C639" stroke="white" stroke-width="6.48"/>
</g>
</g>
<g id="b_2">
<path id="Oval_2" fill-rule="evenodd" clip-rule="evenodd" d="M960.499 699.6C1005.66 699.6 1042.27 665.753 1042.27 624C1042.27 582.247 1005.66 548.4 960.499 548.4C915.337 548.4 878.727 582.247 878.727 624C878.727 665.753 915.337 699.6 960.499 699.6Z" fill="#A4C639"/>
<rect id="Rectangle_5" x="878.727" y="605.1" width="163.545" height="163.8" rx="19.8" fill="#A4C639"/>
</g>
</g>
<g id="Group_2">
<g id="Path">
<path fill-rule="evenodd" clip-rule="evenodd" d="M875.133 627.15H1045.87H875.133Z" fill="white"/>
<path d="M875.133 627.15H1045.87" stroke="white" stroke-width="6.48"/>
</g>
<path id="Oval_3" fill-rule="evenodd" clip-rule="evenodd" d="M922.758 590.7C924.744 590.7 926.353 589.088 926.353 587.1C926.353 585.112 924.744 583.5 922.758 583.5C920.773 583.5 919.164 585.112 919.164 587.1C919.164 589.088 920.773 590.7 922.758 590.7Z" fill="white" stroke="white" stroke-width="6.48"/>
<path id="Oval_4" fill-rule="evenodd" clip-rule="evenodd" d="M998.241 590.7C1000.23 590.7 1001.84 589.088 1001.84 587.1C1001.84 585.112 1000.23 583.5 998.241 583.5C996.256 583.5 994.646 585.112 994.646 587.1C994.646 589.088 996.256 590.7 998.241 590.7Z" fill="white" stroke="white" stroke-width="6.48"/>
</g>
</g>
<path id="Java vs Kotlin" d="M499.805 376.5C497.405 376.5 495.305 376.3 493.505 375.9C491.705 375.6 490.105 375.15 488.705 374.55V363.15C490.305 363.55 492.005 363.9 493.805 364.2C495.605 364.5 497.505 364.65 499.505 364.65C502.005 364.65 504.355 364.15 506.555 363.15C508.855 362.15 510.705 360.4 512.105 357.9C513.505 355.4 514.205 351.9 514.205 347.4V240.9H527.705V346.35C527.705 356.65 525.155 364.25 520.055 369.15C514.955 374.05 508.205 376.5 499.805 376.5ZM584.621 266.25C594.421 266.25 601.671 268.4 606.371 272.7C611.071 277 613.421 283.85 613.421 293.25V348H603.821L601.271 336.6H600.671C597.171 341 593.471 344.25 589.571 346.35C585.771 348.45 580.471 349.5 573.671 349.5C566.371 349.5 560.321 347.6 555.521 343.8C550.721 339.9 548.321 333.85 548.321 325.65C548.321 317.65 551.471 311.5 557.771 307.2C564.071 302.8 573.771 300.4 586.871 300L600.521 299.55V294.75C600.521 288.05 599.071 283.4 596.171 280.8C593.271 278.2 589.171 276.9 583.871 276.9C579.671 276.9 575.671 277.55 571.871 278.85C568.071 280.05 564.521 281.45 561.221 283.05L557.171 273.15C560.671 271.25 564.821 269.65 569.621 268.35C574.421 266.95 579.421 266.25 584.621 266.25ZM600.371 308.7L588.521 309.15C578.521 309.55 571.571 311.15 567.671 313.95C563.871 316.75 561.971 320.7 561.971 325.8C561.971 330.3 563.321 333.6 566.021 335.7C568.821 337.8 572.371 338.85 576.671 338.85C583.471 338.85 589.121 337 593.621 333.3C598.121 329.5 600.371 323.7 600.371 315.9V308.7ZM655.953 348L625.503 267.6H639.603L656.703 315C657.503 317.2 658.353 319.65 659.253 322.35C660.153 325.05 660.953 327.65 661.653 330.15C662.353 332.55 662.853 334.6 663.153 336.3H663.753C664.153 334.6 664.703 332.5 665.403 330C666.203 327.5 667.053 324.9 667.953 322.2C668.953 319.5 669.803 317.1 670.503 315L687.603 267.6H701.703L671.103 348H655.953ZM744.875 266.25C754.675 266.25 761.925 268.4 766.625 272.7C771.325 277 773.675 283.85 773.675 293.25V348H764.075L761.525 336.6H760.925C757.425 341 753.725 344.25 749.825 346.35C746.025 348.45 740.725 349.5 733.925 349.5C726.625 349.5 720.575 347.6 715.775 343.8C710.975 339.9 708.575 333.85 708.575 325.65C708.575 317.65 711.725 311.5 718.025 307.2C724.325 302.8 734.025 300.4 747.125 300L760.775 299.55V294.75C760.775 288.05 759.325 283.4 756.425 280.8C753.525 278.2 749.425 276.9 744.125 276.9C739.925 276.9 735.925 277.55 732.125 278.85C728.325 280.05 724.775 281.45 721.475 283.05L717.425 273.15C720.925 271.25 725.075 269.65 729.875 268.35C734.675 266.95 739.675 266.25 744.875 266.25ZM760.625 308.7L748.775 309.15C738.775 309.55 731.825 311.15 727.925 313.95C724.125 316.75 722.225 320.7 722.225 325.8C722.225 330.3 723.575 333.6 726.275 335.7C729.075 337.8 732.625 338.85 736.925 338.85C743.725 338.85 749.375 337 753.875 333.3C758.375 329.5 760.625 323.7 760.625 315.9V308.7ZM855.172 348L824.722 267.6H838.822L855.922 315C856.722 317.2 857.572 319.65 858.472 322.35C859.372 325.05 860.172 327.65 860.872 330.15C861.572 332.55 862.072 334.6 862.372 336.3H862.972C863.372 334.6 863.922 332.5 864.622 330C865.422 327.5 866.272 324.9 867.172 322.2C868.172 319.5 869.022 317.1 869.722 315L886.822 267.6H900.922L870.322 348H855.172ZM965.994 325.8C965.994 333.6 963.094 339.5 957.294 343.5C951.494 347.5 943.694 349.5 933.894 349.5C928.294 349.5 923.444 349.05 919.344 348.15C915.344 347.25 911.794 346 908.694 344.4V332.4C911.894 334 915.744 335.5 920.244 336.9C924.844 338.2 929.494 338.85 934.194 338.85C940.894 338.85 945.744 337.8 948.744 335.7C951.744 333.5 953.244 330.6 953.244 327C953.244 325 952.694 323.2 951.594 321.6C950.494 320 948.494 318.4 945.594 316.8C942.794 315.2 938.744 313.4 933.444 311.4C928.244 309.4 923.794 307.4 920.094 305.4C916.394 303.4 913.544 301 911.544 298.2C909.544 295.4 908.544 291.8 908.544 287.4C908.544 280.6 911.294 275.35 916.794 271.65C922.394 267.95 929.694 266.1 938.694 266.1C943.594 266.1 948.144 266.6 952.344 267.6C956.644 268.5 960.644 269.8 964.344 271.5L959.844 282C956.444 280.6 952.894 279.4 949.194 278.4C945.494 277.4 941.694 276.9 937.794 276.9C932.394 276.9 928.244 277.8 925.344 279.6C922.544 281.3 921.144 283.65 921.144 286.65C921.144 288.85 921.794 290.75 923.094 292.35C924.394 293.85 926.544 295.35 929.544 296.85C932.644 298.25 936.744 299.95 941.844 301.95C946.944 303.85 951.294 305.8 954.894 307.8C958.494 309.8 961.244 312.25 963.144 315.15C965.044 317.95 965.994 321.5 965.994 325.8ZM1104.49 348H1088.59L1050.64 296.85L1039.69 306.45V348H1026.19V240.9H1039.69V293.7C1042.69 290.3 1045.74 286.9 1048.84 283.5C1051.94 280.1 1055.04 276.7 1058.14 273.3L1087.09 240.9H1102.84L1060.39 287.55L1104.49 348ZM1187.16 307.65C1187.16 320.95 1183.76 331.25 1176.96 338.55C1170.26 345.85 1161.16 349.5 1149.66 349.5C1142.56 349.5 1136.21 347.9 1130.61 344.7C1125.11 341.4 1120.76 336.65 1117.56 330.45C1114.36 324.15 1112.76 316.55 1112.76 307.65C1112.76 294.35 1116.11 284.1 1122.81 276.9C1129.51 269.7 1138.61 266.1 1150.11 266.1C1157.41 266.1 1163.81 267.75 1169.31 271.05C1174.91 274.25 1179.26 278.95 1182.36 285.15C1185.56 291.25 1187.16 298.75 1187.16 307.65ZM1126.41 307.65C1126.41 317.15 1128.26 324.7 1131.96 330.3C1135.76 335.8 1141.76 338.55 1149.96 338.55C1158.06 338.55 1164.01 335.8 1167.81 330.3C1171.61 324.7 1173.51 317.15 1173.51 307.65C1173.51 298.15 1171.61 290.7 1167.81 285.3C1164.01 279.9 1158.01 277.2 1149.81 277.2C1141.61 277.2 1135.66 279.9 1131.96 285.3C1128.26 290.7 1126.41 298.15 1126.41 307.65ZM1234.93 338.7C1236.93 338.7 1238.98 338.55 1241.08 338.25C1243.18 337.85 1244.88 337.45 1246.18 337.05V347.1C1244.78 347.8 1242.78 348.35 1240.18 348.75C1237.58 349.25 1235.08 349.5 1232.68 349.5C1228.48 349.5 1224.58 348.8 1220.98 347.4C1217.48 345.9 1214.63 343.35 1212.43 339.75C1210.23 336.15 1209.13 331.1 1209.13 324.6V277.8H1197.73V271.5L1209.28 266.25L1214.53 249.15H1222.33V267.6H1245.58V277.8H1222.33V324.3C1222.33 329.2 1223.48 332.85 1225.78 335.25C1228.18 337.55 1231.23 338.7 1234.93 338.7ZM1275.48 348H1262.28V234H1275.48V348ZM1307.7 237.45C1309.7 237.45 1311.45 238.15 1312.95 239.55C1314.55 240.85 1315.35 242.95 1315.35 245.85C1315.35 248.65 1314.55 250.75 1312.95 252.15C1311.45 253.55 1309.7 254.25 1307.7 254.25C1305.5 254.25 1303.65 253.55 1302.15 252.15C1300.65 250.75 1299.9 248.65 1299.9 245.85C1299.9 242.95 1300.65 240.85 1302.15 239.55C1303.65 238.15 1305.5 237.45 1307.7 237.45ZM1314.15 267.6V348H1300.95V267.6H1314.15ZM1378.32 266.1C1387.92 266.1 1395.17 268.45 1400.07 273.15C1404.97 277.75 1407.42 285.25 1407.42 295.65V348H1394.37V296.55C1394.37 283.65 1388.37 277.2 1376.37 277.2C1367.47 277.2 1361.32 279.7 1357.92 284.7C1354.52 289.7 1352.82 296.9 1352.82 306.3V348H1339.62V267.6H1350.27L1352.22 278.55H1352.97C1355.57 274.35 1359.17 271.25 1363.77 269.25C1368.37 267.15 1373.22 266.1 1378.32 266.1Z" fill="#61DAFB"/>
<g id="Kotlin-logo" filter="url(#filter2_d)">
<path id="XMLID_2_" d="M1331 831L1493.54 668.46L1655 831H1331Z" fill="url(#paint1_linear)"/>
<path id="Shape" d="M1331 507H1493.54L1331 682.5V507Z" fill="url(#paint2_linear)"/>
<path id="Shape_2" d="M1493.54 507L1331 678.18V831L1493.54 668.46L1655 507H1493.54Z" fill="url(#paint3_linear)"/>
</g>
<path id="Android development" d="M505.038 179L498.158 161.32H475.518L468.718 179H461.438L483.758 121.64H490.238L512.478 179H505.038ZM495.998 154.92L489.598 137.64C489.438 137.213 489.171 136.44 488.798 135.32C488.424 134.2 488.051 133.053 487.678 131.88C487.358 130.653 487.091 129.72 486.878 129.08C486.504 130.733 486.078 132.36 485.598 133.96C485.118 135.507 484.718 136.733 484.398 137.64L477.918 154.92H495.998ZM539.971 135.32C545.091 135.32 548.958 136.573 551.571 139.08C554.185 141.533 555.491 145.533 555.491 151.08V179H548.531V151.56C548.531 144.68 545.331 141.24 538.931 141.24C534.185 141.24 530.905 142.573 529.091 145.24C527.278 147.907 526.371 151.747 526.371 156.76V179H519.331V136.12H525.011L526.051 141.96H526.451C527.838 139.72 529.758 138.067 532.211 137C534.665 135.88 537.251 135.32 539.971 135.32ZM583.984 179.8C578.651 179.8 574.384 177.96 571.184 174.28C567.984 170.547 566.384 165 566.384 157.64C566.384 150.28 567.984 144.733 571.184 141C574.438 137.213 578.731 135.32 584.064 135.32C587.371 135.32 590.064 135.933 592.144 137.16C594.278 138.387 596.011 139.88 597.344 141.64H597.824C597.771 140.947 597.664 139.933 597.504 138.6C597.398 137.213 597.344 136.12 597.344 135.32V118.2H604.384V179H598.704L597.664 173.24H597.344C596.064 175.053 594.358 176.6 592.224 177.88C590.091 179.16 587.344 179.8 583.984 179.8ZM585.104 173.96C589.638 173.96 592.811 172.733 594.624 170.28C596.491 167.773 597.424 164.013 597.424 159V157.72C597.424 152.387 596.544 148.307 594.784 145.48C593.024 142.6 589.771 141.16 585.024 141.16C581.238 141.16 578.384 142.68 576.464 145.72C574.598 148.707 573.664 152.733 573.664 157.8C573.664 162.92 574.598 166.893 576.464 169.72C578.384 172.547 581.264 173.96 585.104 173.96ZM638.003 135.32C638.803 135.32 639.656 135.373 640.563 135.48C641.523 135.533 642.35 135.64 643.043 135.8L642.163 142.28C641.47 142.12 640.696 141.987 639.843 141.88C639.043 141.773 638.27 141.72 637.523 141.72C635.336 141.72 633.283 142.333 631.363 143.56C629.443 144.733 627.896 146.413 626.723 148.6C625.603 150.733 625.043 153.24 625.043 156.12V179H618.003V136.12H623.763L624.563 143.96H624.883C626.27 141.613 628.056 139.587 630.243 137.88C632.43 136.173 635.016 135.32 638.003 135.32ZM686.767 157.48C686.767 164.573 684.954 170.067 681.328 173.96C677.754 177.853 672.901 179.8 666.768 179.8C662.981 179.8 659.594 178.947 656.608 177.24C653.674 175.48 651.354 172.947 649.648 169.64C647.941 166.28 647.088 162.227 647.088 157.48C647.088 150.387 648.874 144.92 652.448 141.08C656.021 137.24 660.874 135.32 667.008 135.32C670.901 135.32 674.314 136.2 677.248 137.96C680.234 139.667 682.554 142.173 684.208 145.48C685.914 148.733 686.767 152.733 686.767 157.48ZM654.368 157.48C654.368 162.547 655.354 166.573 657.328 169.56C659.354 172.493 662.554 173.96 666.928 173.96C671.248 173.96 674.421 172.493 676.448 169.56C678.474 166.573 679.488 162.547 679.488 157.48C679.488 152.413 678.474 148.44 676.448 145.56C674.421 142.68 671.221 141.24 666.848 141.24C662.474 141.24 659.301 142.68 657.328 145.56C655.354 148.44 654.368 152.413 654.368 157.48ZM701.525 120.04C702.592 120.04 703.525 120.413 704.325 121.16C705.178 121.853 705.605 122.973 705.605 124.52C705.605 126.013 705.178 127.133 704.325 127.88C703.525 128.627 702.592 129 701.525 129C700.352 129 699.365 128.627 698.565 127.88C697.765 127.133 697.365 126.013 697.365 124.52C697.365 122.973 697.765 121.853 698.565 121.16C699.365 120.413 700.352 120.04 701.525 120.04ZM704.965 136.12V179H697.925V136.12H704.965ZM733.75 179.8C728.417 179.8 724.15 177.96 720.95 174.28C717.75 170.547 716.15 165 716.15 157.64C716.15 150.28 717.75 144.733 720.95 141C724.203 137.213 728.497 135.32 733.83 135.32C737.137 135.32 739.83 135.933 741.91 137.16C744.043 138.387 745.777 139.88 747.11 141.64H747.59C747.537 140.947 747.43 139.933 747.27 138.6C747.163 137.213 747.11 136.12 747.11 135.32V118.2H754.15V179H748.47L747.43 173.24H747.11C745.83 175.053 744.123 176.6 741.99 177.88C739.857 179.16 737.11 179.8 733.75 179.8ZM734.87 173.96C739.403 173.96 742.577 172.733 744.39 170.28C746.257 167.773 747.19 164.013 747.19 159V157.72C747.19 152.387 746.31 148.307 744.55 145.48C742.79 142.6 739.537 141.16 734.79 141.16C731.003 141.16 728.15 142.68 726.23 145.72C724.363 148.707 723.43 152.733 723.43 157.8C723.43 162.92 724.363 166.893 726.23 169.72C728.15 172.547 731.03 173.96 734.87 173.96ZM803.75 179.8C798.417 179.8 794.15 177.96 790.95 174.28C787.75 170.547 786.15 165 786.15 157.64C786.15 150.28 787.75 144.733 790.95 141C794.203 137.213 798.497 135.32 803.83 135.32C807.137 135.32 809.83 135.933 811.91 137.16C814.043 138.387 815.777 139.88 817.11 141.64H817.59C817.537 140.947 817.43 139.933 817.27 138.6C817.163 137.213 817.11 136.12 817.11 135.32V118.2H824.15V179H818.47L817.43 173.24H817.11C815.83 175.053 814.123 176.6 811.99 177.88C809.857 179.16 807.11 179.8 803.75 179.8ZM804.87 173.96C809.403 173.96 812.577 172.733 814.39 170.28C816.257 167.773 817.19 164.013 817.19 159V157.72C817.19 152.387 816.31 148.307 814.55 145.48C812.79 142.6 809.537 141.16 804.79 141.16C801.003 141.16 798.15 142.68 796.23 145.72C794.363 148.707 793.43 152.733 793.43 157.8C793.43 162.92 794.363 166.893 796.23 169.72C798.15 172.547 801.03 173.96 804.87 173.96ZM854.329 135.32C858.009 135.32 861.155 136.12 863.769 137.72C866.435 139.32 868.462 141.587 869.849 144.52C871.289 147.4 872.009 150.787 872.009 154.68V158.92H842.649C842.755 163.773 843.982 167.48 846.329 170.04C848.729 172.547 852.062 173.8 856.329 173.8C859.049 173.8 861.449 173.56 863.529 173.08C865.662 172.547 867.849 171.8 870.089 170.84V177C867.902 177.96 865.742 178.653 863.609 179.08C861.475 179.56 858.942 179.8 856.009 179.8C851.955 179.8 848.355 178.973 845.209 177.32C842.115 175.667 839.689 173.213 837.929 169.96C836.222 166.653 835.369 162.627 835.369 157.88C835.369 153.187 836.142 149.16 837.689 145.8C839.289 142.44 841.502 139.853 844.329 138.04C847.209 136.227 850.542 135.32 854.329 135.32ZM854.249 141.08C850.889 141.08 848.222 142.173 846.249 144.36C844.329 146.493 843.182 149.48 842.809 153.32H864.649C864.595 149.693 863.742 146.76 862.089 144.52C860.435 142.227 857.822 141.08 854.249 141.08ZM890.803 179L874.562 136.12H882.083L891.203 161.4C891.629 162.573 892.083 163.88 892.563 165.32C893.043 166.76 893.469 168.147 893.843 169.48C894.216 170.76 894.483 171.853 894.643 172.76H894.963C895.176 171.853 895.469 170.733 895.843 169.4C896.269 168.067 896.723 166.68 897.203 165.24C897.736 163.8 898.189 162.52 898.563 161.4L907.683 136.12H915.203L898.883 179H890.803ZM938.548 135.32C942.228 135.32 945.374 136.12 947.988 137.72C950.654 139.32 952.681 141.587 954.068 144.52C955.508 147.4 956.228 150.787 956.228 154.68V158.92H926.868C926.974 163.773 928.201 167.48 930.548 170.04C932.948 172.547 936.281 173.8 940.548 173.8C943.268 173.8 945.668 173.56 947.748 173.08C949.881 172.547 952.068 171.8 954.308 170.84V177C952.121 177.96 949.961 178.653 947.828 179.08C945.694 179.56 943.161 179.8 940.228 179.8C936.174 179.8 932.574 178.973 929.428 177.32C926.334 175.667 923.908 173.213 922.148 169.96C920.441 166.653 919.588 162.627 919.588 157.88C919.588 153.187 920.361 149.16 921.908 145.8C923.508 142.44 925.721 139.853 928.548 138.04C931.428 136.227 934.761 135.32 938.548 135.32ZM938.468 141.08C935.108 141.08 932.441 142.173 930.468 144.36C928.548 146.493 927.401 149.48 927.028 153.32H948.868C948.814 149.693 947.961 146.76 946.308 144.52C944.654 142.227 942.041 141.08 938.468 141.08ZM974.184 179H967.144V118.2H974.184V179ZM1025.05 157.48C1025.05 164.573 1023.24 170.067 1019.61 173.96C1016.04 177.853 1011.18 179.8 1005.05 179.8C1001.26 179.8 997.875 178.947 994.889 177.24C991.955 175.48 989.635 172.947 987.929 169.64C986.222 166.28 985.369 162.227 985.369 157.48C985.369 150.387 987.155 144.92 990.729 141.08C994.302 137.24 999.155 135.32 1005.29 135.32C1009.18 135.32 1012.6 136.2 1015.53 137.96C1018.52 139.667 1020.84 142.173 1022.49 145.48C1024.2 148.733 1025.05 152.733 1025.05 157.48ZM992.649 157.48C992.649 162.547 993.635 166.573 995.609 169.56C997.635 172.493 1000.84 173.96 1005.21 173.96C1009.53 173.96 1012.7 172.493 1014.73 169.56C1016.76 166.573 1017.77 162.547 1017.77 157.48C1017.77 152.413 1016.76 148.44 1014.73 145.56C1012.7 142.68 1009.5 141.24 1005.13 141.24C1000.76 141.24 997.582 142.68 995.609 145.56C993.635 148.44 992.649 152.413 992.649 157.48ZM1056.61 135.32C1061.89 135.32 1066.13 137.16 1069.33 140.84C1072.58 144.52 1074.21 150.067 1074.21 157.48C1074.21 164.787 1072.58 170.333 1069.33 174.12C1066.13 177.907 1061.86 179.8 1056.53 179.8C1053.22 179.8 1050.47 179.187 1048.29 177.96C1046.15 176.68 1044.47 175.213 1043.25 173.56H1042.77C1042.87 174.467 1042.98 175.613 1043.09 177C1043.19 178.387 1043.25 179.587 1043.25 180.6V198.2H1036.21V136.12H1041.97L1042.93 141.96H1043.25C1044.53 140.093 1046.21 138.52 1048.29 137.24C1050.37 135.96 1053.14 135.32 1056.61 135.32ZM1055.33 141.24C1050.95 141.24 1047.86 142.467 1046.05 144.92C1044.29 147.373 1043.35 151.107 1043.25 156.12V157.48C1043.25 162.76 1044.1 166.84 1045.81 169.72C1047.57 172.547 1050.79 173.96 1055.49 173.96C1058.1 173.96 1060.23 173.24 1061.89 171.8C1063.59 170.36 1064.85 168.413 1065.65 165.96C1066.5 163.453 1066.93 160.6 1066.93 157.4C1066.93 152.493 1065.97 148.573 1064.05 145.64C1062.18 142.707 1059.27 141.24 1055.33 141.24ZM1132.47 135.32C1137.32 135.32 1140.95 136.573 1143.35 139.08C1145.75 141.533 1146.95 145.533 1146.95 151.08V179H1139.99V151.4C1139.99 144.627 1137.08 141.24 1131.27 141.24C1127.11 141.24 1124.12 142.44 1122.31 144.84C1120.55 147.24 1119.67 150.733 1119.67 155.32V179H1112.71V151.4C1112.71 144.627 1109.77 141.24 1103.91 141.24C1099.59 141.24 1096.6 142.573 1094.95 145.24C1093.29 147.907 1092.47 151.747 1092.47 156.76V179H1085.43V136.12H1091.11L1092.15 141.96H1092.55C1093.88 139.72 1095.67 138.067 1097.91 137C1100.2 135.88 1102.63 135.32 1105.19 135.32C1111.91 135.32 1116.28 137.72 1118.31 142.52H1118.71C1120.15 140.067 1122.09 138.253 1124.55 137.08C1127.05 135.907 1129.69 135.32 1132.47 135.32ZM1176.75 135.32C1180.43 135.32 1183.58 136.12 1186.19 137.72C1188.86 139.32 1190.88 141.587 1192.27 144.52C1193.71 147.4 1194.43 150.787 1194.43 154.68V158.92H1165.07C1165.18 163.773 1166.4 167.48 1168.75 170.04C1171.15 172.547 1174.48 173.8 1178.75 173.8C1181.47 173.8 1183.87 173.56 1185.95 173.08C1188.08 172.547 1190.27 171.8 1192.51 170.84V177C1190.32 177.96 1188.16 178.653 1186.03 179.08C1183.9 179.56 1181.36 179.8 1178.43 179.8C1174.38 179.8 1170.78 178.973 1167.63 177.32C1164.54 175.667 1162.11 173.213 1160.35 169.96C1158.64 166.653 1157.79 162.627 1157.79 157.88C1157.79 153.187 1158.56 149.16 1160.11 145.8C1161.71 142.44 1163.92 139.853 1166.75 138.04C1169.63 136.227 1172.96 135.32 1176.75 135.32ZM1176.67 141.08C1173.31 141.08 1170.64 142.173 1168.67 144.36C1166.75 146.493 1165.6 149.48 1165.23 153.32H1187.07C1187.02 149.693 1186.16 146.76 1184.51 144.52C1182.86 142.227 1180.24 141.08 1176.67 141.08ZM1225.99 135.32C1231.11 135.32 1234.97 136.573 1237.59 139.08C1240.2 141.533 1241.51 145.533 1241.51 151.08V179H1234.55V151.56C1234.55 144.68 1231.35 141.24 1224.95 141.24C1220.2 141.24 1216.92 142.573 1215.11 145.24C1213.29 147.907 1212.39 151.747 1212.39 156.76V179H1205.35V136.12H1211.03L1212.07 141.96H1212.47C1213.85 139.72 1215.77 138.067 1218.23 137C1220.68 135.88 1223.27 135.32 1225.99 135.32ZM1269.12 174.04C1270.19 174.04 1271.28 173.96 1272.4 173.8C1273.52 173.587 1274.43 173.373 1275.12 173.16V178.52C1274.37 178.893 1273.31 179.187 1271.92 179.4C1270.53 179.667 1269.2 179.8 1267.92 179.8C1265.68 179.8 1263.6 179.427 1261.68 178.68C1259.81 177.88 1258.29 176.52 1257.12 174.6C1255.95 172.68 1255.36 169.987 1255.36 166.52V141.56H1249.28V138.2L1255.44 135.4L1258.24 126.28H1262.4V136.12H1274.8V141.56H1262.4V166.36C1262.4 168.973 1263.01 170.92 1264.24 172.2C1265.52 173.427 1267.15 174.04 1269.12 174.04ZM1339.53 178.92L1332.17 154.76C1331.47 152.573 1330.86 150.44 1330.33 148.36C1329.85 146.227 1329.47 144.573 1329.21 143.4H1328.89C1328.67 144.573 1328.33 146.227 1327.85 148.36C1327.37 150.44 1326.75 152.6 1326.01 154.84L1318.33 178.92H1310.33L1298.57 136.04H1305.85L1311.77 158.92C1312.35 161.213 1312.91 163.533 1313.45 165.88C1313.98 168.227 1314.35 170.173 1314.57 171.72H1314.89C1315.1 170.813 1315.34 169.693 1315.61 168.36C1315.93 167.027 1316.27 165.64 1316.65 164.2C1317.02 162.707 1317.39 161.373 1317.77 160.2L1325.37 136.04H1333.05L1340.41 160.2C1340.99 162.013 1341.55 163.987 1342.09 166.12C1342.67 168.253 1343.07 170.093 1343.29 171.64H1343.61C1343.77 170.307 1344.11 168.467 1344.65 166.12C1345.23 163.773 1345.85 161.373 1346.49 158.92L1352.49 136.04H1359.69L1347.77 178.92H1339.53ZM1370.98 120.04C1372.04 120.04 1372.98 120.413 1373.78 121.16C1374.63 121.853 1375.06 122.973 1375.06 124.52C1375.06 126.013 1374.63 127.133 1373.78 127.88C1372.98 128.627 1372.04 129 1370.98 129C1369.8 129 1368.82 128.627 1368.02 127.88C1367.22 127.133 1366.82 126.013 1366.82 124.52C1366.82 122.973 1367.22 121.853 1368.02 121.16C1368.82 120.413 1369.8 120.04 1370.98 120.04ZM1374.42 136.12V179H1367.38V136.12H1374.42ZM1402.32 174.04C1403.39 174.04 1404.48 173.96 1405.6 173.8C1406.72 173.587 1407.63 173.373 1408.32 173.16V178.52C1407.58 178.893 1406.51 179.187 1405.12 179.4C1403.74 179.667 1402.4 179.8 1401.12 179.8C1398.88 179.8 1396.8 179.427 1394.88 178.68C1393.02 177.88 1391.5 176.52 1390.32 174.6C1389.15 172.68 1388.56 169.987 1388.56 166.52V141.56H1382.48V138.2L1388.64 135.4L1391.44 126.28H1395.6V136.12H1408V141.56H1395.6V166.36C1395.6 168.973 1396.22 170.92 1397.44 172.2C1398.72 173.427 1400.35 174.04 1402.32 174.04ZM1423.95 118.2V136.04C1423.95 138.173 1423.82 140.173 1423.55 142.04H1424.03C1425.42 139.853 1427.28 138.2 1429.63 137.08C1432.03 135.96 1434.62 135.4 1437.39 135.4C1442.62 135.4 1446.54 136.653 1449.15 139.16C1451.76 141.613 1453.07 145.587 1453.07 151.08V179H1446.11V151.56C1446.11 144.68 1442.91 141.24 1436.51 141.24C1431.71 141.24 1428.4 142.6 1426.59 145.32C1424.83 147.987 1423.95 151.827 1423.95 156.84V179H1416.91V118.2H1423.95Z" fill="#9B9B9B"/>
</g>
<defs>
<filter id="filter0_d" x="355.418" y="617.204" width="237.245" height="150.677" filterUnits="userSpaceOnUse" color-interpolation-filters="sRGB">
<feFlood flood-opacity="0" result="BackgroundImageFix"/>
<feColorMatrix in="SourceAlpha" type="matrix" values="0 0 0 0 0 0 0 0 0 0 0 0 0 0 0 0 0 0 127 0"/>
<feOffset dy="2"/>
<feGaussianBlur stdDeviation="2"/>
<feColorMatrix type="matrix" values="0 0 0 0 0 0 0 0 0 0 0 0 0 0 0 0 0 0 0.5 0"/>
<feBlend mode="normal" in2="BackgroundImageFix" result="effect1_dropShadow"/>
<feBlend mode="normal" in="SourceGraphic" in2="effect1_dropShadow" result="shape"/>
</filter>
<filter id="filter1_d" x="824.76" y="519.114" width="271.48" height="321.126" filterUnits="userSpaceOnUse" color-interpolation-filters="sRGB">
<feFlood flood-opacity="0" result="BackgroundImageFix"/>
<feColorMatrix in="SourceAlpha" type="matrix" values="0 0 0 0 0 0 0 0 0 0 0 0 0 0 0 0 0 0 127 0"/>
<feOffset dy="2"/>
<feGaussianBlur stdDeviation="2"/>
<feColorMatrix type="matrix" values="0 0 0 0 0 0 0 0 0 0 0 0 0 0 0 0 0 0 0.5 0"/>
<feBlend mode="normal" in2="BackgroundImageFix" result="effect1_dropShadow"/>
<feBlend mode="normal" in="SourceGraphic" in2="effect1_dropShadow" result="shape"/>
</filter>
<filter id="filter2_d" x="1315" y="491" width="378" height="378" filterUnits="userSpaceOnUse" color-interpolation-filters="sRGB">
<feFlood flood-opacity="0" result="BackgroundImageFix"/>
<feColorMatrix in="SourceAlpha" type="matrix" values="0 0 0 0 0 0 0 0 0 0 0 0 0 0 0 0 0 0 127 0"/>
<feOffset dx="11" dy="11"/>
<feGaussianBlur stdDeviation="13.5"/>
<feColorMatrix type="matrix" values="0 0 0 0 0 0 0 0 0 0 0 0 0 0 0 0 0 0 0.5 0"/>
<feBlend mode="normal" in2="BackgroundImageFix" result="effect1_dropShadow"/>
<feBlend mode="normal" in="SourceGraphic" in2="effect1_dropShadow" result="shape"/>
</filter>
<linearGradient id="paint0_linear" x1="948.605" y1="-540" x2="31.2584" y2="1110.2" gradientUnits="userSpaceOnUse">
<stop stop-color="#0B0B0B" stop-opacity="0.01"/>
<stop offset="1"/>
</linearGradient>
<linearGradient id="paint1_linear" x1="1569.75" y1="945.074" x2="1615.1" y2="764.885" gradientUnits="userSpaceOnUse">
<stop offset="0.09677" stop-color="#0095D5"/>
<stop offset="0.3007" stop-color="#238AD9"/>
<stop offset="0.6211" stop-color="#557BDE"/>
<stop offset="0.8643" stop-color="#7472E2"/>
<stop offset="1" stop-color="#806EE3"/>
</linearGradient>
<linearGradient id="paint2_linear" x1="1394.9" y1="620.117" x2="1490.06" y2="538.496" gradientUnits="userSpaceOnUse">
<stop offset="0.1183" stop-color="#0095D5"/>
<stop offset="0.4178" stop-color="#3C83DC"/>
<stop offset="0.6962" stop-color="#6D74E1"/>
<stop offset="0.8333" stop-color="#806EE3"/>
</linearGradient>
<linearGradient id="paint3_linear" x1="1427.2" y1="955.634" x2="1728.7" y2="654.135" gradientUnits="userSpaceOnUse">
<stop offset="0.1075" stop-color="#C757BC"/>
<stop offset="0.2138" stop-color="#D0609A"/>
<stop offset="0.4254" stop-color="#E1725C"/>
<stop offset="0.6048" stop-color="#EE7E2F"/>
<stop offset="0.743" stop-color="#F58613"/>
<stop offset="0.8232" stop-color="#F88909"/>
</linearGradient>
<clipPath id="clip0">
<rect width="1920" height="1080" fill="white"/>
</clipPath>
</defs>
</svg>
