<svg width="1920" height="1080" viewBox="0 0 1920 1080" fill="none" xmlns="http://www.w3.org/2000/svg">
<g clip-path="url(#clip0_1234_2)">
<path d="M1920 0H0V1080H1920V0Z" fill="url(#paint0_linear_1234_2)" fill-opacity="0.5"/>
<path d="M610.743 120.924V159.095C610.743 162.894 609.964 166.243 608.406 169.14C606.876 172.037 604.703 174.292 601.887 175.905C599.099 177.518 595.806 178.324 592.006 178.324C588.125 178.324 584.79 177.518 582.002 175.905C579.242 174.265 577.123 171.996 575.647 169.099C574.171 166.202 573.433 162.867 573.433 159.095V120.924H580.485V159.341C580.485 163.632 581.483 166.844 583.478 168.976C585.501 171.108 588.344 172.174 592.006 172.174C595.696 172.174 598.539 171.108 600.534 168.976C602.557 166.844 603.568 163.632 603.568 159.341V120.924H610.743ZM639.575 172.625C642.883 172.625 645.493 172.01 647.406 170.78C649.347 169.523 650.317 167.855 650.317 165.778C650.317 164.466 650.071 163.332 649.579 162.375C649.115 161.418 648.144 160.557 646.668 159.792C645.192 159.027 642.924 158.261 639.862 157.496C636.883 156.758 634.286 155.911 632.072 154.954C629.886 153.97 628.177 152.699 626.947 151.141C625.745 149.583 625.143 147.56 625.143 145.073C625.143 142.64 625.827 140.549 627.193 138.8C628.587 137.023 630.514 135.67 632.974 134.741C635.434 133.784 638.291 133.306 641.543 133.306C645.015 133.306 648.035 133.771 650.604 134.7C653.201 135.602 655.401 136.723 657.205 138.062L654.171 142.736C652.531 141.615 650.727 140.7 648.759 139.989C646.791 139.251 644.413 138.882 641.625 138.882C638.236 138.882 635.831 139.415 634.409 140.481C632.988 141.52 632.277 142.873 632.277 144.54C632.277 145.797 632.619 146.85 633.302 147.697C634.013 148.517 635.202 149.269 636.869 149.952C638.537 150.608 640.833 151.332 643.757 152.125C646.573 152.863 649.019 153.751 651.096 154.79C653.201 155.829 654.841 157.195 656.016 158.89C657.192 160.585 657.779 162.771 657.779 165.45C657.779 168.511 656.905 170.999 655.155 172.912C653.406 174.798 651.137 176.178 648.349 177.053C645.589 177.9 642.664 178.324 639.575 178.324C635.667 178.324 632.332 177.764 629.571 176.643C626.838 175.495 624.542 174.115 622.683 172.502L626.619 167.951C628.314 169.345 630.255 170.479 632.441 171.354C634.655 172.201 637.033 172.625 639.575 172.625ZM679.477 158.234C679.614 161.569 680.256 164.302 681.404 166.434C682.552 168.539 684.069 170.097 685.955 171.108C687.841 172.092 689.891 172.584 692.105 172.584C694.319 172.584 696.315 172.256 698.091 171.6C699.895 170.944 701.74 169.974 703.626 168.689L706.865 173.24C704.843 174.825 702.533 176.069 699.936 176.971C697.367 177.873 694.729 178.324 692.023 178.324C687.841 178.324 684.274 177.381 681.322 175.495C678.37 173.609 676.115 170.985 674.557 167.623C673.027 164.234 672.261 160.311 672.261 155.856C672.261 151.483 673.04 147.601 674.598 144.212C676.156 140.823 678.343 138.158 681.158 136.217C683.974 134.276 687.295 133.306 691.121 133.306C694.757 133.306 697.886 134.167 700.51 135.889C703.134 137.584 705.143 140.016 706.537 143.187C707.959 146.33 708.669 150.089 708.669 154.462C708.669 155.2 708.656 155.897 708.628 156.553C708.601 157.182 708.56 157.742 708.505 158.234H679.477ZM691.203 138.964C688.005 138.964 685.327 140.098 683.167 142.367C681.035 144.636 679.819 148.148 679.518 152.904H702.027C701.945 148.285 700.934 144.813 698.993 142.49C697.053 140.139 694.456 138.964 691.203 138.964ZM800.65 134.208V170.452C800.65 175.263 799.57 179.281 797.411 182.506C795.252 185.759 792.122 188.369 788.022 190.337C783.922 192.305 778.961 193.781 773.139 194.765L771.991 189.435C776.255 188.724 780.027 187.658 783.307 186.237C786.587 184.816 789.143 182.861 790.974 180.374C792.833 177.914 793.762 174.757 793.762 170.903V139.661H775.804V134.208H800.65ZM794.213 113.995C795.744 113.995 796.974 114.46 797.903 115.389C798.832 116.318 799.297 117.453 799.297 118.792C799.297 120.186 798.832 121.361 797.903 122.318C796.974 123.247 795.744 123.712 794.213 123.712C792.737 123.712 791.548 123.247 790.646 122.318C789.744 121.361 789.293 120.186 789.293 118.792C789.293 117.453 789.744 116.318 790.646 115.389C791.548 114.46 792.737 113.995 794.213 113.995ZM828.457 134.208V164.794C828.457 167.637 829.045 169.687 830.22 170.944C831.395 172.201 833.227 172.83 835.714 172.83C838.092 172.83 840.333 172.16 842.438 170.821C844.57 169.454 846.224 167.842 847.399 165.983V134.208H854.287V177.381H848.424L847.85 171.559C846.155 173.746 844.064 175.427 841.577 176.602C839.09 177.75 836.575 178.324 834.033 178.324C829.851 178.324 826.721 177.217 824.644 175.003C822.594 172.762 821.569 169.632 821.569 165.614V134.208H828.457ZM885.415 172.625C888.722 172.625 891.333 172.01 893.246 170.78C895.187 169.523 896.157 167.855 896.157 165.778C896.157 164.466 895.911 163.332 895.419 162.375C894.954 161.418 893.984 160.557 892.508 159.792C891.032 159.027 888.763 158.261 885.702 157.496C882.723 156.758 880.126 155.911 877.912 154.954C875.725 153.97 874.017 152.699 872.787 151.141C871.584 149.583 870.983 147.56 870.983 145.073C870.983 142.64 871.666 140.549 873.033 138.8C874.427 137.023 876.354 135.67 878.814 134.741C881.274 133.784 884.13 133.306 887.383 133.306C890.854 133.306 893.875 133.771 896.444 134.7C899.041 135.602 901.241 136.723 903.045 138.062L900.011 142.736C898.371 141.615 896.567 140.7 894.599 139.989C892.631 139.251 890.253 138.882 887.465 138.882C884.076 138.882 881.67 139.415 880.249 140.481C878.828 141.52 878.117 142.873 878.117 144.54C878.117 145.797 878.459 146.85 879.142 147.697C879.853 148.517 881.042 149.269 882.709 149.952C884.376 150.608 886.672 151.332 889.597 152.125C892.412 152.863 894.859 153.751 896.936 154.79C899.041 155.829 900.681 157.195 901.856 158.89C903.031 160.585 903.619 162.771 903.619 165.45C903.619 168.511 902.744 170.999 900.995 172.912C899.246 174.798 896.977 176.178 894.189 177.053C891.428 177.9 888.504 178.324 885.415 178.324C881.506 178.324 878.172 177.764 875.411 176.643C872.678 175.495 870.382 174.115 868.523 172.502L872.459 167.951C874.154 169.345 876.094 170.479 878.281 171.354C880.495 172.201 882.873 172.625 885.415 172.625ZM954.181 175.208C952.705 176.192 950.915 176.957 948.81 177.504C946.705 178.051 944.642 178.324 942.619 178.324C937.972 178.324 934.392 177.108 931.877 174.675C929.362 172.242 928.105 169.113 928.105 165.286V139.538H918.183V134.208H928.105V124.409L934.993 123.589V134.208H949.917L949.097 139.538H934.993V165.204C934.993 167.609 935.622 169.441 936.879 170.698C938.164 171.955 940.282 172.584 943.234 172.584C944.847 172.584 946.336 172.393 947.703 172.01C949.07 171.627 950.341 171.135 951.516 170.534L954.181 175.208ZM1052.52 175.208C1051.04 176.192 1049.25 176.957 1047.15 177.504C1045.04 178.051 1042.98 178.324 1040.96 178.324C1036.31 178.324 1032.73 177.108 1030.21 174.675C1027.7 172.242 1026.44 169.113 1026.44 165.286V139.538H1016.52V134.208H1026.44V124.409L1033.33 123.589V134.208H1048.25L1047.43 139.538H1033.33V165.204C1033.33 167.609 1033.96 169.441 1035.22 170.698C1036.5 171.955 1038.62 172.584 1041.57 172.584C1043.18 172.584 1044.67 172.393 1046.04 172.01C1047.41 171.627 1048.68 171.135 1049.85 170.534L1052.52 175.208ZM1083.85 133.306C1087.92 133.306 1091.33 134.235 1094.06 136.094C1096.82 137.925 1098.88 140.522 1100.25 143.884C1101.64 147.246 1102.34 151.209 1102.34 155.774C1102.34 160.175 1101.63 164.07 1100.21 167.459C1098.79 170.848 1096.7 173.513 1093.94 175.454C1091.2 177.367 1087.81 178.324 1083.77 178.324C1079.72 178.324 1076.32 177.395 1073.56 175.536C1070.8 173.677 1068.71 171.067 1067.29 167.705C1065.89 164.316 1065.19 160.366 1065.19 155.856C1065.19 151.401 1065.91 147.478 1067.33 144.089C1068.75 140.7 1070.84 138.062 1073.6 136.176C1076.39 134.263 1079.8 133.306 1083.85 133.306ZM1083.85 138.923C1080.13 138.923 1077.32 140.303 1075.4 143.064C1073.52 145.797 1072.57 150.061 1072.57 155.856C1072.57 161.541 1073.5 165.764 1075.36 168.525C1077.25 171.286 1080.05 172.666 1083.77 172.666C1087.49 172.666 1090.27 171.286 1092.13 168.525C1094.02 165.764 1094.96 161.514 1094.96 155.774C1094.96 150.034 1094.03 145.797 1092.17 143.064C1090.31 140.303 1087.54 138.923 1083.85 138.923ZM1194.2 133.306C1195.59 133.306 1196.92 133.607 1198.18 134.208C1199.46 134.809 1200.51 135.971 1201.33 137.693C1202.15 139.415 1202.56 141.93 1202.56 145.237V177.381H1196.17V146.344C1196.17 143.638 1196 141.684 1195.67 140.481C1195.35 139.278 1194.4 138.677 1192.85 138.677C1191.56 138.677 1190.28 139.087 1188.99 139.907C1187.73 140.7 1186.5 142.012 1185.3 143.843V177.381H1178.86V146.344C1178.86 143.638 1178.7 141.684 1178.37 140.481C1178.04 139.278 1177.1 138.677 1175.54 138.677C1174.2 138.677 1172.91 139.087 1171.65 139.907C1170.42 140.7 1169.2 142.012 1168 143.843V177.381H1161.64V134.208H1167.06L1167.47 139.21C1168.64 137.543 1169.95 136.149 1171.4 135.028C1172.88 133.88 1174.7 133.306 1176.86 133.306C1178.5 133.306 1180.04 133.702 1181.49 134.495C1182.94 135.26 1184 136.764 1184.69 139.005C1185.86 137.31 1187.19 135.944 1188.66 134.905C1190.14 133.839 1191.98 133.306 1194.2 133.306ZM1245.83 167.951C1245.83 169.673 1246.11 170.93 1246.69 171.723C1247.26 172.516 1248.15 173.103 1249.35 173.486L1247.67 178.324C1245.81 178.078 1244.19 177.49 1242.79 176.561C1241.4 175.604 1240.39 174.169 1239.76 172.256C1238.2 174.251 1236.26 175.768 1233.94 176.807C1231.61 177.818 1229.04 178.324 1226.23 178.324C1221.91 178.324 1218.51 177.108 1216.02 174.675C1213.53 172.242 1212.29 169.017 1212.29 164.999C1212.29 160.544 1214.02 157.127 1217.5 154.749C1220.97 152.371 1225.98 151.182 1232.54 151.182H1238.9V147.574C1238.9 144.458 1237.98 142.258 1236.15 140.973C1234.35 139.661 1231.83 139.005 1228.61 139.005C1227.19 139.005 1225.52 139.183 1223.6 139.538C1221.69 139.866 1219.61 140.426 1217.37 141.219L1215.57 136.012C1218.22 135.028 1220.71 134.331 1223.03 133.921C1225.35 133.511 1227.57 133.306 1229.67 133.306C1235.06 133.306 1239.09 134.563 1241.77 137.078C1244.47 139.565 1245.83 142.955 1245.83 147.246V167.951ZM1227.99 173.076C1230.12 173.076 1232.16 172.543 1234.1 171.477C1236.04 170.384 1237.64 168.88 1238.9 166.967V155.856H1232.67C1227.91 155.856 1224.55 156.676 1222.58 158.316C1220.64 159.956 1219.67 162.156 1219.67 164.917C1219.67 167.596 1220.35 169.632 1221.72 171.026C1223.11 172.393 1225.2 173.076 1227.99 173.076ZM1264.08 177.381V134.208H1269.94L1270.48 140.194C1272.23 137.98 1274.41 136.285 1277.04 135.11C1279.69 133.907 1282.26 133.306 1284.74 133.306C1288.98 133.306 1292.06 134.427 1293.97 136.668C1295.91 138.909 1296.88 142.025 1296.88 146.016V177.381H1289.99V151.1C1289.99 148.148 1289.83 145.77 1289.5 143.966C1289.17 142.135 1288.49 140.809 1287.45 139.989C1286.41 139.142 1284.8 138.718 1282.61 138.718C1280.92 138.718 1279.32 139.087 1277.82 139.825C1276.34 140.563 1275.01 141.492 1273.84 142.613C1272.69 143.706 1271.73 144.813 1270.97 145.934V177.381H1264.08ZM1344.16 167.951C1344.16 169.673 1344.45 170.93 1345.02 171.723C1345.6 172.516 1346.49 173.103 1347.69 173.486L1346.01 178.324C1344.15 178.078 1342.52 177.49 1341.13 176.561C1339.73 175.604 1338.72 174.169 1338.09 172.256C1336.54 174.251 1334.6 175.768 1332.27 176.807C1329.95 177.818 1327.38 178.324 1324.56 178.324C1320.25 178.324 1316.84 177.108 1314.36 174.675C1311.87 172.242 1310.62 169.017 1310.62 164.999C1310.62 160.544 1312.36 157.127 1315.83 154.749C1319.3 152.371 1324.32 151.182 1330.88 151.182H1337.23V147.574C1337.23 144.458 1336.32 142.258 1334.49 140.973C1332.68 139.661 1330.17 139.005 1326.94 139.005C1325.52 139.005 1323.85 139.183 1321.94 139.538C1320.03 139.866 1317.95 140.426 1315.71 141.219L1313.9 136.012C1316.56 135.028 1319.04 134.331 1321.37 133.921C1323.69 133.511 1325.9 133.306 1328.01 133.306C1333.39 133.306 1337.43 134.563 1340.1 137.078C1342.81 139.565 1344.16 142.955 1344.16 147.246V167.951ZM1326.33 173.076C1328.46 173.076 1330.5 172.543 1332.44 171.477C1334.38 170.384 1335.98 168.88 1337.23 166.967V155.856H1331C1326.25 155.856 1322.88 156.676 1320.92 158.316C1318.98 159.956 1318 162.156 1318 164.917C1318 167.596 1318.69 169.632 1320.05 171.026C1321.45 172.393 1323.54 173.076 1326.33 173.076ZM1397.51 129.616L1399.64 136.094C1397.81 136.668 1395.86 137.023 1393.78 137.16C1391.7 137.297 1389.45 137.365 1387.02 137.365C1389.5 138.513 1391.38 140.003 1392.63 141.834C1393.89 143.638 1394.52 145.77 1394.52 148.23C1394.52 151.073 1393.88 153.601 1392.59 155.815C1391.31 158.029 1389.45 159.765 1387.02 161.022C1384.61 162.279 1381.7 162.908 1378.28 162.908C1376.84 162.908 1375.62 162.84 1374.63 162.703C1373.68 162.566 1372.75 162.361 1371.85 162.088C1371.19 162.525 1370.64 163.127 1370.21 163.892C1369.8 164.657 1369.59 165.45 1369.59 166.27C1369.59 167.309 1370 168.17 1370.82 168.853C1371.64 169.536 1373.16 169.878 1375.37 169.878H1383.16C1386.06 169.878 1388.66 170.397 1390.95 171.436C1393.28 172.475 1395.09 173.869 1396.41 175.618C1397.75 177.367 1398.41 179.363 1398.41 181.604C1398.41 185.841 1396.61 189.093 1393 191.362C1389.42 193.631 1384.35 194.765 1377.79 194.765C1373.2 194.765 1369.58 194.287 1366.93 193.33C1364.28 192.401 1362.38 190.966 1361.23 189.025C1360.11 187.112 1359.55 184.693 1359.55 181.768H1365.78C1365.78 183.435 1366.11 184.816 1366.76 185.909C1367.42 187.002 1368.61 187.809 1370.33 188.328C1372.05 188.875 1374.53 189.148 1377.75 189.148C1380.92 189.148 1383.5 188.875 1385.5 188.328C1387.52 187.809 1389.01 187.016 1389.97 185.95C1390.95 184.911 1391.44 183.613 1391.44 182.055C1391.44 180.005 1390.52 178.461 1388.66 177.422C1386.8 176.383 1384.47 175.864 1381.69 175.864H1373.98C1370.26 175.864 1367.51 175.044 1365.74 173.404C1363.99 171.764 1363.11 169.878 1363.11 167.746C1363.11 166.352 1363.51 164.999 1364.3 163.687C1365.12 162.375 1366.31 161.213 1367.87 160.202C1365.38 158.89 1363.55 157.264 1362.38 155.323C1361.2 153.382 1360.61 151.032 1360.61 148.271C1360.61 145.346 1361.34 142.763 1362.79 140.522C1364.23 138.253 1366.26 136.477 1368.85 135.192C1371.45 133.907 1374.44 133.265 1377.83 133.265C1381.47 133.238 1384.42 133.087 1386.69 132.814C1388.96 132.513 1390.9 132.09 1392.51 131.543C1394.15 130.996 1395.82 130.354 1397.51 129.616ZM1377.83 138.308C1374.36 138.308 1371.79 139.251 1370.12 141.137C1368.48 142.996 1367.66 145.374 1367.66 148.271C1367.66 151.196 1368.51 153.601 1370.21 155.487C1371.9 157.373 1374.5 158.316 1378 158.316C1381.06 158.316 1383.38 157.428 1384.97 155.651C1386.58 153.874 1387.39 151.401 1387.39 148.23C1387.39 144.977 1386.58 142.517 1384.97 140.85C1383.38 139.155 1381 138.308 1377.83 138.308ZM1417 158.234C1417.13 161.569 1417.78 164.302 1418.92 166.434C1420.07 168.539 1421.59 170.097 1423.47 171.108C1425.36 172.092 1427.41 172.584 1429.62 172.584C1431.84 172.584 1433.83 172.256 1435.61 171.6C1437.41 170.944 1439.26 169.974 1441.15 168.689L1444.38 173.24C1442.36 174.825 1440.05 176.069 1437.46 176.971C1434.89 177.873 1432.25 178.324 1429.54 178.324C1425.36 178.324 1421.79 177.381 1418.84 175.495C1415.89 173.609 1413.63 170.985 1412.08 167.623C1410.55 164.234 1409.78 160.311 1409.78 155.856C1409.78 151.483 1410.56 147.601 1412.12 144.212C1413.68 140.823 1415.86 138.158 1418.68 136.217C1421.49 134.276 1424.81 133.306 1428.64 133.306C1432.28 133.306 1435.41 134.167 1438.03 135.889C1440.65 137.584 1442.66 140.016 1444.06 143.187C1445.48 146.33 1446.19 150.089 1446.19 154.462C1446.19 155.2 1446.18 155.897 1446.15 156.553C1446.12 157.182 1446.08 157.742 1446.02 158.234H1417ZM1428.72 138.964C1425.52 138.964 1422.85 140.098 1420.69 142.367C1418.55 144.636 1417.34 148.148 1417.04 152.904H1439.55C1439.46 148.285 1438.45 144.813 1436.51 142.49C1434.57 140.139 1431.98 138.964 1428.72 138.964Z" fill="#9CC1E4"/>
<path d="M421.952 282.946C425.779 282.946 428.827 283.875 431.095 285.734C433.391 287.593 435.045 290.217 436.056 293.606C437.068 296.968 437.573 300.904 437.573 305.414C437.573 309.76 436.958 313.641 435.728 317.058C434.526 320.447 432.694 323.112 430.234 325.053C427.774 326.994 424.672 327.964 420.927 327.964C416.199 327.964 412.399 326.297 409.529 322.962V343.544L402.641 344.405V283.848H408.504L409.078 289.875C410.664 287.661 412.55 285.953 414.736 284.75C416.95 283.547 419.356 282.946 421.952 282.946ZM420.312 288.481C417.934 288.481 415.83 289.205 413.998 290.654C412.194 292.075 410.705 293.661 409.529 295.41V316.812C410.65 318.479 412.058 319.805 413.752 320.789C415.474 321.746 417.36 322.224 419.41 322.224C422.991 322.224 425.683 320.857 427.487 318.124C429.291 315.391 430.193 311.14 430.193 305.373C430.193 301.601 429.838 298.471 429.127 295.984C428.417 293.469 427.337 291.597 425.888 290.367C424.44 289.11 422.581 288.481 420.312 288.481ZM452.219 327.021V321.732H458.943V289.137H452.219V283.848H464.191L465.462 294.057C467.13 290.504 469.152 287.757 471.53 285.816C473.908 283.875 477.052 282.905 480.96 282.905C482.163 282.905 483.229 283.001 484.158 283.192C485.115 283.356 486.085 283.575 487.069 283.848L485.06 289.998C484.158 289.752 483.338 289.574 482.6 289.465C481.862 289.328 481.015 289.26 480.058 289.26C476.751 289.26 473.908 290.435 471.53 292.786C469.152 295.137 467.253 298.69 465.831 303.446V321.732H474.605V327.021H452.219ZM480.427 298.444V289.055L481.124 283.848H487.069L486.085 298.444H480.427ZM517.418 282.946C521.491 282.946 524.894 283.875 527.627 285.734C530.388 287.565 532.452 290.162 533.818 293.524C535.212 296.886 535.909 300.849 535.909 305.414C535.909 309.815 535.199 313.71 533.777 317.099C532.356 320.488 530.265 323.153 527.504 325.094C524.771 327.007 521.382 327.964 517.336 327.964C513.291 327.964 509.888 327.035 507.127 325.176C504.367 323.317 502.276 320.707 500.854 317.345C499.46 313.956 498.763 310.006 498.763 305.496C498.763 301.041 499.474 297.118 500.895 293.729C502.317 290.34 504.408 287.702 507.168 285.816C509.956 283.903 513.373 282.946 517.418 282.946ZM517.418 288.563C513.701 288.563 510.886 289.943 508.972 292.704C507.086 295.437 506.143 299.701 506.143 305.496C506.143 311.181 507.073 315.404 508.931 318.165C510.817 320.926 513.619 322.306 517.336 322.306C521.054 322.306 523.842 320.926 525.7 318.165C527.586 315.404 528.529 311.154 528.529 305.414C528.529 299.674 527.6 295.437 525.741 292.704C523.883 289.943 521.108 288.563 517.418 288.563ZM578.394 283.848V320.092C578.394 324.903 577.315 328.921 575.155 332.146C572.996 335.399 569.866 338.009 565.766 339.977C561.666 341.945 556.705 343.421 550.883 344.405L549.735 339.075C553.999 338.364 557.771 337.298 561.051 335.877C564.331 334.456 566.887 332.501 568.718 330.014C570.577 327.554 571.506 324.397 571.506 320.543V289.301H553.548V283.848H578.394ZM571.957 263.635C573.488 263.635 574.718 264.1 575.647 265.029C576.577 265.958 577.041 267.093 577.041 268.432C577.041 269.826 576.577 271.001 575.647 271.958C574.718 272.887 573.488 273.352 571.957 273.352C570.481 273.352 569.292 272.887 568.39 271.958C567.488 271.001 567.037 269.826 567.037 268.432C567.037 267.093 567.488 265.958 568.39 265.029C569.292 264.1 570.481 263.635 571.957 263.635ZM604.725 307.874C604.862 311.209 605.504 313.942 606.652 316.074C607.8 318.179 609.317 319.737 611.203 320.748C613.089 321.732 615.139 322.224 617.353 322.224C619.567 322.224 621.563 321.896 623.339 321.24C625.143 320.584 626.988 319.614 628.874 318.329L632.113 322.88C630.091 324.465 627.781 325.709 625.184 326.611C622.615 327.513 619.977 327.964 617.271 327.964C613.089 327.964 609.522 327.021 606.57 325.135C603.618 323.249 601.363 320.625 599.805 317.263C598.275 313.874 597.509 309.951 597.509 305.496C597.509 301.123 598.288 297.241 599.846 293.852C601.404 290.463 603.591 287.798 606.406 285.857C609.222 283.916 612.543 282.946 616.369 282.946C620.005 282.946 623.134 283.807 625.758 285.529C628.382 287.224 630.391 289.656 631.785 292.827C633.207 295.97 633.917 299.729 633.917 304.102C633.917 304.84 633.904 305.537 633.876 306.193C633.849 306.822 633.808 307.382 633.753 307.874H604.725ZM616.451 288.604C613.253 288.604 610.575 289.738 608.415 292.007C606.283 294.276 605.067 297.788 604.766 302.544H627.275C627.193 297.925 626.182 294.453 624.241 292.13C622.301 289.779 619.704 288.604 616.451 288.604ZM667.997 322.019C670.157 322.019 672.166 321.664 674.024 320.953C675.91 320.242 677.646 319.34 679.231 318.247L682.593 322.757C680.707 324.37 678.439 325.641 675.787 326.57C673.136 327.499 670.539 327.964 667.997 327.964C663.706 327.964 660.043 327.048 657.009 325.217C654.003 323.358 651.707 320.762 650.121 317.427C648.536 314.065 647.743 310.129 647.743 305.619C647.743 301.3 648.536 297.433 650.121 294.016C651.734 290.572 654.044 287.866 657.05 285.898C660.084 283.93 663.761 282.946 668.079 282.946C670.84 282.946 673.423 283.37 675.828 284.217C678.261 285.037 680.489 286.281 682.511 287.948L679.149 292.54C677.318 291.255 675.473 290.299 673.614 289.67C671.783 289.014 669.911 288.686 667.997 288.686C664.28 288.686 661.219 290.08 658.813 292.868C656.408 295.656 655.205 299.906 655.205 305.619C655.205 309.446 655.752 312.575 656.845 315.008C657.966 317.413 659.483 319.19 661.396 320.338C663.337 321.459 665.537 322.019 667.997 322.019ZM731.925 324.848C730.449 325.832 728.659 326.597 726.554 327.144C724.45 327.691 722.386 327.964 720.363 327.964C715.717 327.964 712.136 326.748 709.621 324.315C707.107 321.882 705.849 318.753 705.849 314.926V289.178H695.927V283.848H705.849V274.049L712.737 273.229V283.848H727.661L726.841 289.178H712.737V314.844C712.737 317.249 713.366 319.081 714.623 320.338C715.908 321.595 718.026 322.224 720.978 322.224C722.591 322.224 724.081 322.033 725.447 321.65C726.814 321.267 728.085 320.775 729.26 320.174L731.925 324.848ZM810.663 322.265C813.97 322.265 816.581 321.65 818.494 320.42C820.435 319.163 821.405 317.495 821.405 315.418C821.405 314.106 821.159 312.972 820.667 312.015C820.202 311.058 819.232 310.197 817.756 309.432C816.28 308.667 814.011 307.901 810.95 307.136C807.971 306.398 805.374 305.551 803.16 304.594C800.973 303.61 799.265 302.339 798.035 300.781C796.832 299.223 796.231 297.2 796.231 294.713C796.231 292.28 796.914 290.189 798.281 288.44C799.675 286.663 801.602 285.31 804.062 284.381C806.522 283.424 809.378 282.946 812.631 282.946C816.102 282.946 819.123 283.411 821.692 284.34C824.289 285.242 826.489 286.363 828.293 287.702L825.259 292.376C823.619 291.255 821.815 290.34 819.847 289.629C817.879 288.891 815.501 288.522 812.713 288.522C809.324 288.522 806.918 289.055 805.497 290.121C804.076 291.16 803.365 292.513 803.365 294.18C803.365 295.437 803.707 296.49 804.39 297.337C805.101 298.157 806.29 298.909 807.957 299.592C809.624 300.248 811.92 300.972 814.845 301.765C817.66 302.503 820.107 303.391 822.184 304.43C824.289 305.469 825.929 306.835 827.104 308.53C828.279 310.225 828.867 312.411 828.867 315.09C828.867 318.151 827.992 320.639 826.243 322.552C824.494 324.438 822.225 325.818 819.437 326.693C816.676 327.54 813.752 327.964 810.663 327.964C806.754 327.964 803.42 327.404 800.659 326.283C797.926 325.135 795.63 323.755 793.771 322.142L797.707 317.591C799.402 318.985 801.342 320.119 803.529 320.994C805.743 321.841 808.121 322.265 810.663 322.265ZM864.464 282.946C868.291 282.946 871.338 283.875 873.607 285.734C875.903 287.593 877.557 290.217 878.568 293.606C879.579 296.968 880.085 300.904 880.085 305.414C880.085 309.76 879.47 313.641 878.24 317.058C877.037 320.447 875.206 323.112 872.746 325.053C870.286 326.994 867.184 327.964 863.439 327.964C858.71 327.964 854.911 326.297 852.041 322.962V343.544L845.153 344.405V283.848H851.016L851.59 289.875C853.175 287.661 855.061 285.953 857.248 284.75C859.462 283.547 861.867 282.946 864.464 282.946ZM862.824 288.481C860.446 288.481 858.341 289.205 856.51 290.654C854.706 292.075 853.216 293.661 852.041 295.41V316.812C853.162 318.479 854.569 319.805 856.264 320.789C857.986 321.746 859.872 322.224 861.922 322.224C865.503 322.224 868.195 320.857 869.999 318.124C871.803 315.391 872.705 311.14 872.705 305.373C872.705 301.601 872.35 298.471 871.639 295.984C870.928 293.469 869.849 291.597 868.4 290.367C866.951 289.11 865.093 288.481 862.824 288.481ZM899.733 307.874C899.87 311.209 900.512 313.942 901.66 316.074C902.808 318.179 904.325 319.737 906.211 320.748C908.097 321.732 910.147 322.224 912.361 322.224C914.575 322.224 916.57 321.896 918.347 321.24C920.151 320.584 921.996 319.614 923.882 318.329L927.121 322.88C925.098 324.465 922.789 325.709 920.192 326.611C917.623 327.513 914.985 327.964 912.279 327.964C908.097 327.964 904.53 327.021 901.578 325.135C898.626 323.249 896.371 320.625 894.813 317.263C893.282 313.874 892.517 309.951 892.517 305.496C892.517 301.123 893.296 297.241 894.854 293.852C896.412 290.463 898.599 287.798 901.414 285.857C904.229 283.916 907.55 282.946 911.377 282.946C915.012 282.946 918.142 283.807 920.766 285.529C923.39 287.224 925.399 289.656 926.793 292.827C928.214 295.97 928.925 299.729 928.925 304.102C928.925 304.84 928.911 305.537 928.884 306.193C928.857 306.822 928.816 307.382 928.761 307.874H899.733ZM911.459 288.604C908.261 288.604 905.582 289.738 903.423 292.007C901.291 294.276 900.075 297.788 899.774 302.544H922.283C922.201 297.925 921.19 294.453 919.249 292.13C917.308 289.779 914.712 288.604 911.459 288.604ZM963.005 322.019C965.164 322.019 967.173 321.664 969.032 320.953C970.918 320.242 972.654 319.34 974.239 318.247L977.601 322.757C975.715 324.37 973.446 325.641 970.795 326.57C968.144 327.499 965.547 327.964 963.005 327.964C958.714 327.964 955.051 327.048 952.017 325.217C949.01 323.358 946.714 320.762 945.129 317.427C943.544 314.065 942.751 310.129 942.751 305.619C942.751 301.3 943.544 297.433 945.129 294.016C946.742 290.572 949.051 287.866 952.058 285.898C955.092 283.93 958.768 282.946 963.087 282.946C965.848 282.946 968.431 283.37 970.836 284.217C973.269 285.037 975.496 286.281 977.519 287.948L974.157 292.54C972.326 291.255 970.481 290.299 968.622 289.67C966.791 289.014 964.918 288.686 963.005 288.686C959.288 288.686 956.226 290.08 953.821 292.868C951.416 295.656 950.213 299.906 950.213 305.619C950.213 309.446 950.76 312.575 951.853 315.008C952.974 317.413 954.491 319.19 956.404 320.338C958.345 321.459 960.545 322.019 963.005 322.019ZM1014.51 283.848V321.568H1026.69V327.021H994.297V321.568H1007.62V289.301H994.707V283.848H1014.51ZM1009.02 263.635C1010.55 263.635 1011.76 264.1 1012.67 265.029C1013.59 265.958 1014.06 267.093 1014.06 268.432C1014.06 269.826 1013.59 271.001 1012.67 271.958C1011.76 272.887 1010.55 273.352 1009.02 273.352C1007.57 273.352 1006.38 272.887 1005.45 271.958C1004.52 271.001 1004.06 269.826 1004.06 268.432C1004.06 267.093 1004.52 265.958 1005.45 265.029C1006.38 264.1 1007.57 263.635 1009.02 263.635ZM1067.33 265.603C1069.65 265.603 1071.75 265.808 1073.64 266.218C1075.53 266.628 1077.32 267.202 1079.01 267.94L1076.8 273.065C1075.4 272.464 1073.93 272.013 1072.37 271.712C1070.81 271.411 1069.2 271.261 1067.53 271.261C1064.53 271.261 1062.26 271.849 1060.73 273.024C1059.22 274.199 1058.47 276.003 1058.47 278.436V287.21H1073.11L1072.37 292.622H1058.47V327.021H1051.58V292.622H1041.29V287.21H1051.58V278.6C1051.58 275.921 1052.27 273.612 1053.63 271.671C1055.03 269.73 1056.91 268.241 1059.29 267.202C1061.67 266.136 1064.35 265.603 1067.33 265.603ZM1112.85 287.21V321.568H1125.02V327.021H1092.63V321.568H1105.96V292.622H1093.04V287.21H1112.85ZM1107.35 266.628C1108.88 266.628 1110.1 267.093 1111 268.022C1111.93 268.951 1112.39 270.086 1112.39 271.425C1112.39 272.819 1111.93 273.994 1111 274.951C1110.1 275.88 1108.88 276.345 1107.35 276.345C1105.9 276.345 1104.71 275.88 1103.78 274.951C1102.86 273.994 1102.39 272.819 1102.39 271.425C1102.39 270.086 1102.86 268.951 1103.78 268.022C1104.71 267.093 1105.9 266.628 1107.35 266.628ZM1159.68 322.019C1161.84 322.019 1163.85 321.664 1165.7 320.953C1167.59 320.242 1169.33 319.34 1170.91 318.247L1174.27 322.757C1172.39 324.37 1170.12 325.641 1167.47 326.57C1164.82 327.499 1162.22 327.964 1159.68 327.964C1155.39 327.964 1151.72 327.048 1148.69 325.217C1145.68 323.358 1143.39 320.762 1141.8 317.427C1140.22 314.065 1139.42 310.129 1139.42 305.619C1139.42 301.3 1140.22 297.433 1141.8 294.016C1143.41 290.572 1145.72 287.866 1148.73 285.898C1151.76 283.93 1155.44 282.946 1159.76 282.946C1162.52 282.946 1165.1 283.37 1167.51 284.217C1169.94 285.037 1172.17 286.281 1174.19 287.948L1170.83 292.54C1169 291.255 1167.15 290.299 1165.29 289.67C1163.46 289.014 1161.59 288.686 1159.68 288.686C1155.96 288.686 1152.9 290.08 1150.49 292.868C1148.09 295.656 1146.88 299.906 1146.88 305.619C1146.88 309.446 1147.43 312.575 1148.52 315.008C1149.65 317.413 1151.16 319.19 1153.08 320.338C1155.02 321.459 1157.22 322.019 1159.68 322.019ZM1258.01 322.019C1260.17 322.019 1262.18 321.664 1264.04 320.953C1265.93 320.242 1267.66 319.34 1269.25 318.247L1272.61 322.757C1270.72 324.37 1268.45 325.641 1265.8 326.57C1263.15 327.499 1260.55 327.964 1258.01 327.964C1253.72 327.964 1250.06 327.048 1247.02 325.217C1244.02 323.358 1241.72 320.762 1240.14 317.427C1238.55 314.065 1237.76 310.129 1237.76 305.619C1237.76 301.3 1238.55 297.433 1240.14 294.016C1241.75 290.572 1244.06 287.866 1247.07 285.898C1250.1 283.93 1253.78 282.946 1258.09 282.946C1260.86 282.946 1263.44 283.37 1265.84 284.217C1268.28 285.037 1270.5 286.281 1272.53 287.948L1269.16 292.54C1267.33 291.255 1265.49 290.299 1263.63 289.67C1261.8 289.014 1259.93 288.686 1258.01 288.686C1254.3 288.686 1251.23 290.08 1248.83 292.868C1246.42 295.656 1245.22 299.906 1245.22 305.619C1245.22 309.446 1245.77 312.575 1246.86 315.008C1247.98 317.413 1249.5 319.19 1251.41 320.338C1253.35 321.459 1255.55 322.019 1258.01 322.019ZM1304.11 282.946C1308.18 282.946 1311.58 283.875 1314.31 285.734C1317.08 287.565 1319.14 290.162 1320.51 293.524C1321.9 296.886 1322.6 300.849 1322.6 305.414C1322.6 309.815 1321.89 313.71 1320.46 317.099C1319.04 320.488 1316.95 323.153 1314.19 325.094C1311.46 327.007 1308.07 327.964 1304.02 327.964C1299.98 327.964 1296.58 327.035 1293.81 325.176C1291.05 323.317 1288.96 320.707 1287.54 317.345C1286.15 313.956 1285.45 310.006 1285.45 305.496C1285.45 301.041 1286.16 297.118 1287.58 293.729C1289 290.34 1291.1 287.702 1293.86 285.816C1296.64 283.903 1300.06 282.946 1304.11 282.946ZM1304.11 288.563C1300.39 288.563 1297.57 289.943 1295.66 292.704C1293.77 295.437 1292.83 299.701 1292.83 305.496C1292.83 311.181 1293.76 315.404 1295.62 318.165C1297.5 320.926 1300.31 322.306 1304.02 322.306C1307.74 322.306 1310.53 320.926 1312.39 318.165C1314.27 315.404 1315.22 311.154 1315.22 305.414C1315.22 299.674 1314.29 295.437 1312.43 292.704C1310.57 289.943 1307.8 288.563 1304.11 288.563ZM1365.29 282.946C1366.68 282.946 1368.01 283.247 1369.26 283.848C1370.55 284.449 1371.6 285.611 1372.42 287.333C1373.24 289.055 1373.65 291.57 1373.65 294.877V327.021H1367.25V295.984C1367.25 293.278 1367.09 291.324 1366.76 290.121C1366.43 288.918 1365.49 288.317 1363.93 288.317C1362.65 288.317 1361.36 288.727 1360.08 289.547C1358.82 290.34 1357.59 291.652 1356.39 293.483V327.021H1349.95V295.984C1349.95 293.278 1349.79 291.324 1349.46 290.121C1349.13 288.918 1348.19 288.317 1346.63 288.317C1345.29 288.317 1343.99 288.727 1342.74 289.547C1341.51 290.34 1340.29 291.652 1339.09 293.483V327.021H1332.73V283.848H1338.14L1338.55 288.85C1339.73 287.183 1341.04 285.789 1342.49 284.668C1343.97 283.52 1345.78 282.946 1347.94 282.946C1349.58 282.946 1351.13 283.342 1352.58 284.135C1354.03 284.9 1355.09 286.404 1355.77 288.645C1356.95 286.95 1358.28 285.584 1359.75 284.545C1361.23 283.479 1363.07 282.946 1365.29 282.946ZM1414.45 282.946C1415.85 282.946 1417.17 283.247 1418.43 283.848C1419.72 284.449 1420.77 285.611 1421.59 287.333C1422.41 289.055 1422.82 291.57 1422.82 294.877V327.021H1416.42V295.984C1416.42 293.278 1416.26 291.324 1415.93 290.121C1415.6 288.918 1414.66 288.317 1413.1 288.317C1411.82 288.317 1410.53 288.727 1409.25 289.547C1407.99 290.34 1406.76 291.652 1405.56 293.483V327.021H1399.12V295.984C1399.12 293.278 1398.96 291.324 1398.63 290.121C1398.3 288.918 1397.36 288.317 1395.8 288.317C1394.46 288.317 1393.16 288.727 1391.9 289.547C1390.67 290.34 1389.46 291.652 1388.26 293.483V327.021H1381.9V283.848H1387.31L1387.72 288.85C1388.9 287.183 1390.21 285.789 1391.66 284.668C1393.13 283.52 1394.95 282.946 1397.11 282.946C1398.75 282.946 1400.3 283.342 1401.74 284.135C1403.19 284.9 1404.26 286.404 1404.94 288.645C1406.12 286.95 1407.44 285.584 1408.92 284.545C1410.4 283.479 1412.24 282.946 1414.45 282.946ZM1466.08 317.591C1466.08 319.313 1466.37 320.57 1466.94 321.363C1467.52 322.156 1468.41 322.743 1469.61 323.126L1467.93 327.964C1466.07 327.718 1464.44 327.13 1463.05 326.201C1461.65 325.244 1460.64 323.809 1460.01 321.896C1458.46 323.891 1456.52 325.408 1454.19 326.447C1451.87 327.458 1449.3 327.964 1446.48 327.964C1442.17 327.964 1438.76 326.748 1436.28 324.315C1433.79 321.882 1432.54 318.657 1432.54 314.639C1432.54 310.184 1434.28 306.767 1437.75 304.389C1441.22 302.011 1446.24 300.822 1452.8 300.822H1459.15V297.214C1459.15 294.098 1458.24 291.898 1456.41 290.613C1454.6 289.301 1452.09 288.645 1448.86 288.645C1447.44 288.645 1445.77 288.823 1443.86 289.178C1441.95 289.506 1439.87 290.066 1437.63 290.859L1435.82 285.652C1438.48 284.668 1440.96 283.971 1443.29 283.561C1445.61 283.151 1447.82 282.946 1449.93 282.946C1455.31 282.946 1459.35 284.203 1462.02 286.718C1464.73 289.205 1466.08 292.595 1466.08 296.886V317.591ZM1448.25 322.716C1450.38 322.716 1452.42 322.183 1454.36 321.117C1456.3 320.024 1457.9 318.52 1459.15 316.607V305.496H1452.92C1448.17 305.496 1444.8 306.316 1442.84 307.956C1440.9 309.596 1439.92 311.796 1439.92 314.557C1439.92 317.236 1440.61 319.272 1441.97 320.666C1443.37 322.033 1445.46 322.716 1448.25 322.716ZM1484.34 327.021V283.848H1490.2L1490.73 289.834C1492.48 287.62 1494.67 285.925 1497.29 284.75C1499.94 283.547 1502.51 282.946 1505 282.946C1509.24 282.946 1512.31 284.067 1514.23 286.308C1516.17 288.549 1517.14 291.665 1517.14 295.656V327.021H1510.25V300.74C1510.25 297.788 1510.08 295.41 1509.76 293.606C1509.43 291.775 1508.75 290.449 1507.71 289.629C1506.67 288.782 1505.06 288.358 1502.87 288.358C1501.17 288.358 1499.58 288.727 1498.07 289.465C1496.6 290.203 1495.27 291.132 1494.09 292.253C1492.95 293.346 1491.99 294.453 1491.22 295.574V327.021H1484.34ZM1559.33 265.603L1566.22 266.464V327.021H1560.2L1559.54 321.322C1557.93 323.618 1556.07 325.299 1553.96 326.365C1551.89 327.431 1549.66 327.964 1547.28 327.964C1543.54 327.964 1540.45 327.021 1538.01 325.135C1535.58 323.249 1533.78 320.625 1532.6 317.263C1531.43 313.874 1530.84 309.951 1530.84 305.496C1530.84 301.177 1531.51 297.323 1532.85 293.934C1534.19 290.517 1536.12 287.839 1538.63 285.898C1541.17 283.93 1544.22 282.946 1547.77 282.946C1550.26 282.946 1552.45 283.383 1554.33 284.258C1556.22 285.105 1557.89 286.363 1559.33 288.03V265.603ZM1549.58 288.481C1545.97 288.481 1543.19 289.889 1541.25 292.704C1539.31 295.519 1538.34 299.783 1538.34 305.496C1538.34 309.213 1538.74 312.329 1539.53 314.844C1540.32 317.359 1541.49 319.245 1543.02 320.502C1544.57 321.759 1546.47 322.388 1548.72 322.388C1551.18 322.388 1553.27 321.691 1554.99 320.297C1556.74 318.903 1558.19 317.331 1559.33 315.582V294.016C1558.16 292.267 1556.74 290.914 1555.07 289.957C1553.4 288.973 1551.57 288.481 1549.58 288.481ZM1597.35 322.265C1600.66 322.265 1603.27 321.65 1605.18 320.42C1607.12 319.163 1608.09 317.495 1608.09 315.418C1608.09 314.106 1607.85 312.972 1607.35 312.015C1606.89 311.058 1605.92 310.197 1604.44 309.432C1602.97 308.667 1600.7 307.901 1597.64 307.136C1594.66 306.398 1592.06 305.551 1589.85 304.594C1587.66 303.61 1585.95 302.339 1584.72 300.781C1583.52 299.223 1582.92 297.2 1582.92 294.713C1582.92 292.28 1583.6 290.189 1584.97 288.44C1586.36 286.663 1588.29 285.31 1590.75 284.381C1593.21 283.424 1596.07 282.946 1599.32 282.946C1602.79 282.946 1605.81 283.411 1608.38 284.34C1610.98 285.242 1613.18 286.363 1614.98 287.702L1611.95 292.376C1610.31 291.255 1608.5 290.34 1606.53 289.629C1604.57 288.891 1602.19 288.522 1599.4 288.522C1596.01 288.522 1593.61 289.055 1592.18 290.121C1590.76 291.16 1590.05 292.513 1590.05 294.18C1590.05 295.437 1590.39 296.49 1591.08 297.337C1591.79 298.157 1592.98 298.909 1594.64 299.592C1596.31 300.248 1598.61 300.972 1601.53 301.765C1604.35 302.503 1606.79 303.391 1608.87 304.43C1610.98 305.469 1612.62 306.835 1613.79 308.53C1614.97 310.225 1615.55 312.411 1615.55 315.09C1615.55 318.151 1614.68 320.639 1612.93 322.552C1611.18 324.438 1608.91 325.818 1606.12 326.693C1603.36 327.54 1600.44 327.964 1597.35 327.964C1593.44 327.964 1590.11 327.404 1587.35 326.283C1584.61 325.135 1582.32 323.755 1580.46 322.142L1584.39 317.591C1586.09 318.985 1588.03 320.119 1590.22 320.994C1592.43 321.841 1594.81 322.265 1597.35 322.265Z" fill="white"/>
<g filter="url(#filter0_d_1234_2)">
<g filter="url(#filter1_d_1234_2)">
<path fill-rule="evenodd" clip-rule="evenodd" d="M254 643V649.252V993H542V643H254ZM266.522 655.504H529.478V880.51H266.522V655.504ZM366.696 674.188V667.935H429.304V717.953H404.408V755.417H479.538V802.87L508.715 832.031L473.302 867.395L437.864 832.031L467.016 802.919V767.922H404.408H329.277V806.363C340.022 809.174 348.06 818.922 348.06 830.492C348.06 844.231 336.773 855.501 323.016 855.501C309.259 855.501 297.973 844.231 297.973 830.492C297.973 818.922 306.01 809.174 316.755 806.363V755.417H391.886V717.953H366.696V674.188ZM379.217 680.44H416.783V705.449H379.217V680.44ZM491.008 832.031L473.302 814.349L455.571 832.031L473.302 849.713L491.008 832.031ZM323.016 817.988C330.006 817.988 335.538 823.512 335.538 830.492C335.538 837.472 330.006 842.997 323.016 842.997C316.027 842.997 310.495 837.472 310.495 830.492C310.495 823.512 316.027 817.988 323.016 817.988ZM391.739 893.014H266.522V980.496H391.739V893.014ZM404.261 893.014H529.478V980.496H404.261V893.014ZM279.043 918.023V905.518H379.217V918.023H279.043ZM423.043 905.518V918.023H510.696V905.518H423.043ZM423.043 943.031V930.527H510.696V943.031H423.043ZM279.043 955.536V968.04H379.217V955.536H279.043ZM423.043 968.04V955.536H510.696V968.04H423.043Z" fill="url(#paint1_linear_1234_2)"/>
</g>
</g>
<path d="M1760.21 814.149L1744.99 804.719C1744.86 803.235 1744.71 801.755 1744.56 800.281L1757.66 788.077C1758.99 786.836 1759.59 784.998 1759.23 783.223C1758.88 781.438 1757.63 779.968 1755.92 779.34L1739.18 773.099C1738.76 771.65 1738.32 770.211 1737.87 768.766L1748.3 754.273C1749.37 752.8 1749.59 750.883 1748.89 749.211C1748.2 747.537 1746.68 746.337 1744.91 746.043L1727.26 743.172C1726.57 741.834 1725.86 740.516 1725.14 739.219L1732.56 722.924C1733.32 721.267 1733.16 719.353 1732.15 717.828C1731.14 716.316 1729.43 715.432 1727.6 715.501L1709.68 716.125C1708.75 714.967 1707.81 713.82 1706.85 712.693L1710.98 695.254C1711.39 693.482 1710.87 691.613 1709.58 690.331C1708.3 689.048 1706.44 688.517 1704.66 688.933L1687.22 693.059C1686.09 692.102 1684.94 691.156 1683.78 690.23L1684.41 672.306C1684.47 670.492 1683.59 668.769 1682.08 667.764C1680.56 666.751 1678.65 666.599 1676.98 667.351L1660.72 674.771C1659.41 674.049 1658.09 673.335 1656.77 672.645L1653.89 654.998C1653.6 653.209 1652.4 651.69 1650.72 651.011C1649.05 650.314 1647.12 650.539 1645.66 651.6L1631.17 662.036C1629.74 661.582 1628.3 661.145 1626.87 660.729L1620.63 643.983C1619.99 642.277 1618.52 641.026 1616.75 640.672C1614.96 640.322 1613.14 640.915 1611.89 642.239L1599.69 655.345C1598.21 655.182 1596.73 655.033 1595.25 654.911L1585.82 639.656C1584.87 638.114 1583.18 637.174 1581.35 637.174C1579.52 637.174 1577.85 638.114 1576.91 639.656L1567.48 654.911C1566 655.033 1564.51 655.182 1563.04 655.345L1550.84 642.239C1549.6 640.915 1547.76 640.322 1545.98 640.672C1544.2 641.029 1542.73 642.277 1542.1 643.983L1535.86 660.729C1534.41 661.145 1532.98 661.585 1531.56 662.036L1517.07 651.6C1515.59 650.536 1513.67 650.311 1512.01 651.011C1510.33 651.704 1509.13 653.223 1508.84 654.998L1505.96 672.645C1504.63 673.335 1503.31 674.046 1502.01 674.771L1485.75 667.351C1484.09 666.595 1482.18 666.751 1480.65 667.764C1479.14 668.769 1478.25 670.492 1478.32 672.306L1478.95 690.23C1477.79 691.156 1476.64 692.102 1475.51 693.059L1458.07 688.933C1456.3 688.521 1454.43 689.048 1453.15 690.331C1451.86 691.617 1451.33 693.472 1451.75 695.254L1455.84 712.693C1454.89 713.823 1453.94 714.967 1453.02 716.125L1435.09 715.501C1433.29 715.449 1431.56 716.316 1430.55 717.828C1429.54 719.332 1429.39 721.26 1430.14 722.924L1437.56 739.219C1436.84 740.527 1436.12 741.844 1435.43 743.172L1417.79 746.043C1415.99 746.334 1414.48 747.533 1413.8 749.211C1413.1 750.893 1413.33 752.817 1414.39 754.273L1424.82 768.766C1424.37 770.198 1423.93 771.636 1423.51 773.099L1406.77 779.34C1405.07 779.975 1403.82 781.445 1403.46 783.223C1403.11 785.005 1403.7 786.829 1405.03 788.077L1418.14 800.281C1417.97 801.755 1417.83 803.238 1417.7 804.719L1402.48 814.149C1400.94 815.103 1400 816.788 1400 818.622C1400 820.456 1400.94 822.123 1402.48 823.06L1417.7 832.49C1417.83 833.974 1417.97 835.454 1418.14 836.928L1405.03 849.132C1403.7 850.369 1403.11 852.207 1403.46 853.986C1403.82 855.771 1405.07 857.238 1406.77 857.869L1423.51 864.109C1423.93 865.559 1424.37 866.997 1424.82 868.443L1414.39 882.935C1413.33 884.412 1413.1 886.33 1413.8 887.997C1414.5 889.679 1416.01 890.878 1417.82 891.166L1435.47 894.037C1436.16 895.375 1436.87 896.693 1437.59 897.989L1430.17 914.25C1429.42 915.904 1429.57 917.821 1430.59 919.346C1431.6 920.861 1433.32 921.745 1435.13 921.673L1453.02 921.045C1453.95 922.21 1454.89 923.351 1455.85 924.484L1451.76 941.924C1451.34 943.692 1451.86 945.529 1453.15 946.812C1454.43 948.105 1456.29 948.622 1458.08 948.206L1475.52 944.115C1476.65 945.079 1477.8 946.015 1478.95 946.937L1478.33 964.862C1478.26 966.675 1479.15 968.398 1480.66 969.403C1482.16 970.412 1484.09 970.565 1485.75 969.809L1502.01 962.39C1503.33 963.118 1504.64 963.825 1505.97 964.515L1508.84 982.162C1509.14 983.958 1510.33 985.477 1512.01 986.184C1513.69 986.881 1515.62 986.656 1517.07 985.598L1531.57 975.162C1533 975.616 1534.44 976.06 1535.9 976.476L1542.14 993.222C1542.78 994.921 1544.25 996.179 1546.03 996.526C1547.81 996.887 1549.63 996.29 1550.88 994.959L1563.08 981.854C1564.56 982.024 1566.04 982.166 1567.52 982.297L1576.95 997.518C1577.9 999.054 1579.59 1000 1581.39 1000C1583.19 1000 1584.89 999.057 1585.86 997.518L1595.29 982.297C1596.78 982.166 1598.26 982.024 1599.73 981.854L1611.93 994.959C1613.17 996.29 1615.01 996.887 1616.79 996.526C1618.57 996.176 1620.04 994.921 1620.67 993.222L1626.91 976.476C1628.36 976.06 1629.8 975.616 1631.24 975.162L1645.74 985.598C1647.21 986.656 1649.13 986.881 1650.8 986.184C1652.48 985.494 1653.68 983.972 1653.97 982.162L1656.85 964.515C1658.18 963.825 1659.49 963.107 1660.8 962.39L1677.06 969.809C1678.71 970.565 1680.63 970.412 1682.16 969.403C1683.67 968.391 1684.55 966.675 1684.48 964.862L1683.86 946.937C1685.02 946.011 1686.16 945.079 1687.29 944.115L1704.73 948.206C1706.5 948.622 1708.37 948.105 1709.66 946.812C1710.95 945.526 1711.47 943.678 1711.05 941.924L1706.96 924.484C1707.92 923.351 1708.86 922.21 1709.78 921.045L1727.71 921.673C1729.52 921.745 1731.25 920.861 1732.25 919.346C1733.26 917.835 1733.42 915.91 1732.66 914.25L1725.24 897.989C1725.96 896.675 1726.68 895.358 1727.36 894.037L1745.01 891.166C1746.81 890.878 1748.32 889.679 1749 887.997C1749.69 886.323 1749.47 884.392 1748.41 882.935L1737.97 868.443C1738.42 867.011 1738.86 865.572 1739.28 864.109L1756.03 857.869C1757.73 857.231 1758.99 855.764 1759.33 853.986C1759.69 852.204 1759.1 850.38 1757.76 849.132L1744.66 836.928C1744.82 835.454 1744.96 833.97 1745.09 832.49L1760.31 823.06C1761.85 822.11 1762.8 820.421 1762.8 818.622C1762.8 816.822 1761.86 815.12 1760.32 814.149H1760.21ZM1658.28 940.696C1652.45 939.441 1648.78 933.693 1650.03 927.868C1651.27 922.044 1656.99 918.334 1662.82 919.582C1668.64 920.827 1672.35 926.585 1671.11 932.41C1669.86 938.235 1664.14 941.944 1658.31 940.696H1658.28ZM1653.11 905.679C1647.81 904.542 1642.57 907.919 1641.46 913.237L1636.05 938.477C1619.38 946.036 1600.69 950.265 1581.27 950.265C1561.3 950.265 1542.44 945.862 1525.45 937.957L1520.05 912.717C1518.91 907.413 1513.7 904.015 1508.4 905.159L1486.1 909.944C1481.98 905.679 1478.13 901.137 1474.59 896.353H1583.11C1584.34 896.353 1585.16 896.131 1585.16 895.015V856.53C1585.16 855.414 1584.34 855.192 1583.11 855.192H1551.39V830.888H1585.68C1588.81 830.888 1602.42 831.783 1606.76 849.194C1608.12 854.533 1611.13 871.938 1613.17 877.52C1615.21 883.761 1623.5 896.242 1632.34 896.242H1686.43C1687.04 896.242 1687.7 896.173 1688.39 896.048C1684.64 901.144 1680.52 905.964 1676.11 910.471L1653.3 905.582L1653.11 905.679ZM1502.99 940.176C1497.16 941.431 1491.44 937.722 1490.19 931.89C1488.95 926.065 1492.65 920.31 1498.48 919.062C1504.31 917.817 1510.03 921.527 1511.28 927.348C1512.52 933.173 1508.82 938.928 1502.99 940.176ZM1461.73 773.411C1464.14 778.855 1461.69 785.234 1456.25 787.661C1450.81 790.078 1444.46 787.619 1442.04 782.183C1439.61 776.747 1442.08 770.36 1447.52 767.934C1452.96 765.52 1459.3 767.975 1461.73 773.411ZM1449.08 803.367L1472.31 793.035C1477.26 790.833 1479.52 785.026 1477.3 780.068L1472.51 769.251H1491.31V853.847H1453.51C1450.22 842.267 1448.45 830.063 1448.45 817.443C1448.45 812.624 1448.71 807.874 1449.21 803.193L1449.08 803.367ZM1551.01 795.15V770.187H1595.73C1598.04 770.187 1612.06 772.86 1612.06 783.327C1612.06 792.029 1601.31 795.15 1592.47 795.15H1550.87H1551.01ZM1713.61 817.616C1713.61 820.931 1713.49 824.204 1713.25 827.463H1699.62C1698.26 827.463 1697.71 828.357 1697.71 829.692V835.933C1697.71 850.633 1689.43 853.857 1682.15 854.655C1675.21 855.435 1667.55 851.756 1666.61 847.513C1662.52 824.526 1655.73 819.638 1644.98 811.109C1658.33 802.649 1672.19 790.133 1672.19 773.318C1672.19 755.255 1659.82 743.883 1651.39 738.301C1639.53 730.5 1626.43 728.94 1622.89 728.94H1482.13C1501.23 707.652 1527.2 692.536 1556.33 686.988L1572.93 704.393C1576.68 708.311 1582.88 708.484 1586.84 704.712L1605.42 686.961C1644.25 694.207 1677.19 718.407 1696.26 751.794L1683.53 780.502C1681.34 785.459 1683.58 791.284 1688.52 793.468L1713 804.355C1713.42 808.689 1713.65 813.092 1713.65 817.53L1713.61 817.616ZM1572.85 672.347C1577.15 668.221 1583.98 668.395 1588.07 672.697C1592.16 676.996 1592.02 683.826 1587.71 687.952C1583.41 692.078 1576.58 691.905 1572.49 687.599C1568.4 683.3 1568.54 676.469 1572.85 672.344V672.347ZM1699.05 773.932C1701.46 768.488 1707.82 766.027 1713.27 768.454C1718.71 770.867 1721.17 777.26 1718.74 782.703C1716.33 788.146 1709.97 790.608 1704.53 788.181C1699.08 785.768 1696.62 779.375 1699.05 773.932Z" fill="url(#paint2_linear_1234_2)"/>
</g>
<defs>
<filter id="filter0_d_1234_2" x="250" y="643" width="296" height="358" filterUnits="userSpaceOnUse" color-interpolation-filters="sRGB">
<feFlood flood-opacity="0" result="BackgroundImageFix"/>
<feColorMatrix in="SourceAlpha" type="matrix" values="0 0 0 0 0 0 0 0 0 0 0 0 0 0 0 0 0 0 127 0" result="hardAlpha"/>
<feOffset dy="4"/>
<feGaussianBlur stdDeviation="2"/>
<feComposite in2="hardAlpha" operator="out"/>
<feColorMatrix type="matrix" values="0 0 0 0 0 0 0 0 0 0 0 0 0 0 0 0 0 0 0.25 0"/>
<feBlend mode="normal" in2="BackgroundImageFix" result="effect1_dropShadow_1234_2"/>
<feBlend mode="normal" in="SourceGraphic" in2="effect1_dropShadow_1234_2" result="shape"/>
</filter>
<filter id="filter1_d_1234_2" x="242" y="631" width="328" height="390" filterUnits="userSpaceOnUse" color-interpolation-filters="sRGB">
<feFlood flood-opacity="0" result="BackgroundImageFix"/>
<feColorMatrix in="SourceAlpha" type="matrix" values="0 0 0 0 0 0 0 0 0 0 0 0 0 0 0 0 0 0 127 0" result="hardAlpha"/>
<feOffset dx="8" dy="8"/>
<feGaussianBlur stdDeviation="10"/>
<feColorMatrix type="matrix" values="0 0 0 0 0 0 0 0 0 0 0 0 0 0 0 0 0 0 0.5 0"/>
<feBlend mode="normal" in2="BackgroundImageFix" result="effect1_dropShadow_1234_2"/>
<feBlend mode="normal" in="SourceGraphic" in2="effect1_dropShadow_1234_2" result="shape"/>
</filter>
<linearGradient id="paint0_linear_1234_2" x1="960" y1="0" x2="960" y2="1080" gradientUnits="userSpaceOnUse">
<stop stop-color="#323232"/>
<stop offset="1"/>
</linearGradient>
<linearGradient id="paint1_linear_1234_2" x1="398" y1="643" x2="398" y2="993" gradientUnits="userSpaceOnUse">
<stop stop-color="#B32BD5"/>
<stop offset="1" stop-color="#DA3C8E"/>
</linearGradient>
<linearGradient id="paint2_linear_1234_2" x1="1581.4" y1="637.174" x2="1581.4" y2="1000" gradientUnits="userSpaceOnUse">
<stop stop-color="#B32BD5"/>
<stop offset="1" stop-color="#DA3C8E"/>
</linearGradient>
<clipPath id="clip0_1234_2">
<rect width="1920" height="1080" fill="white"/>
</clipPath>
</defs>
</svg>
