<svg width="1920" height="1080" viewBox="0 0 1920 1080" fill="none" xmlns="http://www.w3.org/2000/svg">
<g id="kotlin-awesomeness-hero">
<g id="Rectangle">
<rect width="1920" height="1080" fill="#323232"/>
<rect width="1920" height="1080" fill="url(#paint0_linear)" fill-opacity="0.15"/>
</g>
<path id="Kotlin" d="M849.371 348H833.471L795.521 296.85L784.571 306.45V348H771.071V240.9H784.571V293.7C787.571 290.3 790.621 286.9 793.721 283.5C796.821 280.1 799.921 276.7 803.021 273.3L831.971 240.9H847.721L805.271 287.55L849.371 348ZM932.042 307.65C932.042 320.95 928.642 331.25 921.842 338.55C915.142 345.85 906.042 349.5 894.542 349.5C887.442 349.5 881.092 347.9 875.492 344.7C869.992 341.4 865.642 336.65 862.442 330.45C859.242 324.15 857.642 316.55 857.642 307.65C857.642 294.35 860.992 284.1 867.692 276.9C874.392 269.7 883.492 266.1 894.992 266.1C902.292 266.1 908.692 267.75 914.192 271.05C919.792 274.25 924.142 278.95 927.242 285.15C930.442 291.25 932.042 298.75 932.042 307.65ZM871.292 307.65C871.292 317.15 873.142 324.7 876.842 330.3C880.642 335.8 886.642 338.55 894.842 338.55C902.942 338.55 908.892 335.8 912.692 330.3C916.492 324.7 918.392 317.15 918.392 307.65C918.392 298.15 916.492 290.7 912.692 285.3C908.892 279.9 902.892 277.2 894.692 277.2C886.492 277.2 880.542 279.9 876.842 285.3C873.142 290.7 871.292 298.15 871.292 307.65ZM979.812 338.7C981.812 338.7 983.862 338.55 985.962 338.25C988.062 337.85 989.762 337.45 991.062 337.05V347.1C989.662 347.8 987.662 348.35 985.062 348.75C982.462 349.25 979.962 349.5 977.562 349.5C973.362 349.5 969.462 348.8 965.862 347.4C962.362 345.9 959.512 343.35 957.312 339.75C955.112 336.15 954.012 331.1 954.012 324.6V277.8H942.612V271.5L954.162 266.25L959.412 249.15H967.212V267.6H990.462V277.8H967.212V324.3C967.212 329.2 968.362 332.85 970.662 335.25C973.062 337.55 976.112 338.7 979.812 338.7ZM1020.36 348H1007.16V234H1020.36V348ZM1052.58 237.45C1054.58 237.45 1056.33 238.15 1057.83 239.55C1059.43 240.85 1060.23 242.95 1060.23 245.85C1060.23 248.65 1059.43 250.75 1057.83 252.15C1056.33 253.55 1054.58 254.25 1052.58 254.25C1050.38 254.25 1048.53 253.55 1047.03 252.15C1045.53 250.75 1044.78 248.65 1044.78 245.85C1044.78 242.95 1045.53 240.85 1047.03 239.55C1048.53 238.15 1050.38 237.45 1052.58 237.45ZM1059.03 267.6V348H1045.83V267.6H1059.03ZM1123.2 266.1C1132.8 266.1 1140.05 268.45 1144.95 273.15C1149.85 277.75 1152.3 285.25 1152.3 295.65V348H1139.25V296.55C1139.25 283.65 1133.25 277.2 1121.25 277.2C1112.35 277.2 1106.2 279.7 1102.8 284.7C1099.4 289.7 1097.7 296.9 1097.7 306.3V348H1084.5V267.6H1095.15L1097.1 278.55H1097.85C1100.45 274.35 1104.05 271.25 1108.65 269.25C1113.25 267.15 1118.1 266.1 1123.2 266.1Z" fill="#61DAFB"/>
<g id="Kotlin-logo" filter="url(#filter0_d)">
<path id="XMLID_2_" d="M1195 858L1357.54 695.46L1519 858H1195Z" fill="url(#paint1_linear)"/>
<path id="Shape" d="M1195 534H1357.54L1195 709.5V534Z" fill="url(#paint2_linear)"/>
<path id="Shape_2" d="M1357.54 534L1195 705.18V858L1357.54 695.46L1519 534H1357.54Z" fill="url(#paint3_linear)"/>
</g>
<g id="Path" filter="url(#filter1_d)">
<path fill-rule="evenodd" clip-rule="evenodd" d="M509.014 534L466 713.979H492.525L466.717 872L615.116 670.784H559.556L642 534H509.014Z" fill="#F58613"/>
<path fill-rule="evenodd" clip-rule="evenodd" d="M509.014 534L466 713.979H492.525L466.717 872L615.116 670.784H559.556L642 534H509.014Z" stroke="url(#paint4_linear)" stroke-width="17" stroke-linecap="round" stroke-linejoin="round"/>
</g>
<path id="Awesome langage feat" d="M445.498 179L438.618 161.32H415.978L409.178 179H401.898L424.218 121.64H430.698L452.938 179H445.498ZM436.458 154.92L430.058 137.64C429.898 137.213 429.632 136.44 429.258 135.32C428.885 134.2 428.512 133.053 428.138 131.88C427.818 130.653 427.552 129.72 427.338 129.08C426.965 130.733 426.538 132.36 426.058 133.96C425.578 135.507 425.178 136.733 424.858 137.64L418.378 154.92H436.458ZM494.832 178.92L487.472 154.76C486.779 152.573 486.166 150.44 485.632 148.36C485.152 146.227 484.779 144.573 484.512 143.4H484.192C483.979 144.573 483.632 146.227 483.152 148.36C482.672 150.44 482.059 152.6 481.312 154.84L473.632 178.92H465.632L453.872 136.04H461.152L467.072 158.92C467.659 161.213 468.219 163.533 468.752 165.88C469.286 168.227 469.659 170.173 469.872 171.72H470.192C470.406 170.813 470.646 169.693 470.912 168.36C471.232 167.027 471.579 165.64 471.952 164.2C472.326 162.707 472.699 161.373 473.072 160.2L480.672 136.04H488.352L495.712 160.2C496.299 162.013 496.859 163.987 497.392 166.12C497.979 168.253 498.379 170.093 498.592 171.64H498.912C499.072 170.307 499.419 168.467 499.952 166.12C500.539 163.773 501.152 161.373 501.792 158.92L507.792 136.04H514.992L503.072 178.92H494.832ZM539.243 135.32C542.923 135.32 546.069 136.12 548.683 137.72C551.349 139.32 553.376 141.587 554.763 144.52C556.203 147.4 556.923 150.787 556.923 154.68V158.92H527.563C527.669 163.773 528.896 167.48 531.243 170.04C533.643 172.547 536.976 173.8 541.243 173.8C543.963 173.8 546.363 173.56 548.443 173.08C550.576 172.547 552.763 171.8 555.003 170.84V177C552.816 177.96 550.656 178.653 548.523 179.08C546.389 179.56 543.856 179.8 540.923 179.8C536.869 179.8 533.269 178.973 530.123 177.32C527.029 175.667 524.603 173.213 522.843 169.96C521.136 166.653 520.283 162.627 520.283 157.88C520.283 153.187 521.056 149.16 522.603 145.8C524.203 142.44 526.416 139.853 529.243 138.04C532.123 136.227 535.456 135.32 539.243 135.32ZM539.163 141.08C535.803 141.08 533.136 142.173 531.163 144.36C529.243 146.493 528.096 149.48 527.723 153.32H549.563C549.509 149.693 548.656 146.76 547.003 144.52C545.349 142.227 542.736 141.08 539.163 141.08ZM595.759 167.16C595.759 171.32 594.212 174.467 591.119 176.6C588.026 178.733 583.866 179.8 578.639 179.8C575.652 179.8 573.066 179.56 570.879 179.08C568.746 178.6 566.852 177.933 565.199 177.08V170.68C566.906 171.533 568.959 172.333 571.359 173.08C573.812 173.773 576.292 174.12 578.799 174.12C582.372 174.12 584.959 173.56 586.559 172.44C588.159 171.267 588.959 169.72 588.959 167.8C588.959 166.733 588.666 165.773 588.079 164.92C587.492 164.067 586.426 163.213 584.879 162.36C583.386 161.507 581.226 160.547 578.399 159.48C575.626 158.413 573.252 157.347 571.279 156.28C569.306 155.213 567.786 153.933 566.719 152.44C565.652 150.947 565.119 149.027 565.119 146.68C565.119 143.053 566.586 140.253 569.519 138.28C572.506 136.307 576.399 135.32 581.199 135.32C583.812 135.32 586.239 135.587 588.479 136.12C590.772 136.6 592.906 137.293 594.879 138.2L592.479 143.8C590.666 143.053 588.772 142.413 586.799 141.88C584.826 141.347 582.799 141.08 580.719 141.08C577.839 141.08 575.626 141.56 574.079 142.52C572.586 143.427 571.839 144.68 571.839 146.28C571.839 147.453 572.186 148.467 572.879 149.32C573.572 150.12 574.719 150.92 576.319 151.72C577.972 152.467 580.159 153.373 582.879 154.44C585.599 155.453 587.919 156.493 589.839 157.56C591.759 158.627 593.226 159.933 594.239 161.48C595.252 162.973 595.759 164.867 595.759 167.16ZM643.4 157.48C643.4 164.573 641.587 170.067 637.96 173.96C634.387 177.853 629.534 179.8 623.4 179.8C619.614 179.8 616.227 178.947 613.24 177.24C610.307 175.48 607.987 172.947 606.28 169.64C604.574 166.28 603.72 162.227 603.72 157.48C603.72 150.387 605.507 144.92 609.08 141.08C612.654 137.24 617.507 135.32 623.64 135.32C627.534 135.32 630.947 136.2 633.88 137.96C636.867 139.667 639.187 142.173 640.84 145.48C642.547 148.733 643.4 152.733 643.4 157.48ZM611 157.48C611 162.547 611.987 166.573 613.96 169.56C615.987 172.493 619.187 173.96 623.56 173.96C627.88 173.96 631.054 172.493 633.08 169.56C635.107 166.573 636.12 162.547 636.12 157.48C636.12 152.413 635.107 148.44 633.08 145.56C631.054 142.68 627.854 141.24 623.48 141.24C619.107 141.24 615.934 142.68 613.96 145.56C611.987 148.44 611 152.413 611 157.48ZM701.598 135.32C706.451 135.32 710.078 136.573 712.478 139.08C714.878 141.533 716.078 145.533 716.078 151.08V179H709.118V151.4C709.118 144.627 706.211 141.24 700.398 141.24C696.238 141.24 693.251 142.44 691.438 144.84C689.678 147.24 688.798 150.733 688.798 155.32V179H681.838V151.4C681.838 144.627 678.904 141.24 673.038 141.24C668.718 141.24 665.731 142.573 664.078 145.24C662.424 147.907 661.598 151.747 661.598 156.76V179H654.558V136.12H660.238L661.278 141.96H661.678C663.011 139.72 664.798 138.067 667.038 137C669.331 135.88 671.758 135.32 674.318 135.32C681.038 135.32 685.411 137.72 687.438 142.52H687.838C689.278 140.067 691.224 138.253 693.678 137.08C696.184 135.907 698.824 135.32 701.598 135.32ZM745.883 135.32C749.563 135.32 752.71 136.12 755.323 137.72C757.99 139.32 760.017 141.587 761.403 144.52C762.843 147.4 763.563 150.787 763.563 154.68V158.92H734.203C734.31 163.773 735.537 167.48 737.883 170.04C740.283 172.547 743.617 173.8 747.883 173.8C750.603 173.8 753.003 173.56 755.083 173.08C757.217 172.547 759.403 171.8 761.643 170.84V177C759.457 177.96 757.297 178.653 755.163 179.08C753.03 179.56 750.497 179.8 747.563 179.8C743.51 179.8 739.91 178.973 736.763 177.32C733.67 175.667 731.243 173.213 729.483 169.96C727.777 166.653 726.923 162.627 726.923 157.88C726.923 153.187 727.697 149.16 729.243 145.8C730.843 142.44 733.057 139.853 735.883 138.04C738.763 136.227 742.097 135.32 745.883 135.32ZM745.803 141.08C742.443 141.08 739.777 142.173 737.803 144.36C735.883 146.493 734.737 149.48 734.363 153.32H756.203C756.15 149.693 755.297 146.76 753.643 144.52C751.99 142.227 749.377 141.08 745.803 141.08ZM802.301 179H795.261V118.2H802.301V179ZM832.126 135.4C837.353 135.4 841.219 136.547 843.726 138.84C846.233 141.133 847.486 144.787 847.486 149.8V179H842.366L841.006 172.92H840.686C838.819 175.267 836.846 177 834.766 178.12C832.739 179.24 829.913 179.8 826.286 179.8C822.393 179.8 819.166 178.787 816.606 176.76C814.046 174.68 812.766 171.453 812.766 167.08C812.766 162.813 814.446 159.533 817.806 157.24C821.166 154.893 826.339 153.613 833.326 153.4L840.606 153.16V150.6C840.606 147.027 839.833 144.547 838.286 143.16C836.739 141.773 834.553 141.08 831.726 141.08C829.486 141.08 827.353 141.427 825.326 142.12C823.299 142.76 821.406 143.507 819.646 144.36L817.486 139.08C819.353 138.067 821.566 137.213 824.126 136.52C826.686 135.773 829.353 135.4 832.126 135.4ZM840.526 158.04L834.206 158.28C828.873 158.493 825.166 159.347 823.086 160.84C821.059 162.333 820.046 164.44 820.046 167.16C820.046 169.56 820.766 171.32 822.206 172.44C823.699 173.56 825.593 174.12 827.886 174.12C831.513 174.12 834.526 173.133 836.926 171.16C839.326 169.133 840.526 166.04 840.526 161.88V158.04ZM881.37 135.32C886.49 135.32 890.356 136.573 892.97 139.08C895.583 141.533 896.89 145.533 896.89 151.08V179H889.93V151.56C889.93 144.68 886.73 141.24 880.33 141.24C875.583 141.24 872.303 142.573 870.49 145.24C868.676 147.907 867.77 151.747 867.77 156.76V179H860.73V136.12H866.41L867.45 141.96H867.85C869.236 139.72 871.156 138.067 873.61 137C876.063 135.88 878.65 135.32 881.37 135.32ZM925.383 135.32C928.209 135.32 930.743 135.853 932.983 136.92C935.276 137.987 937.223 139.613 938.823 141.8H939.223L940.183 136.12H945.783V179.72C945.783 185.853 944.209 190.467 941.063 193.56C937.969 196.653 933.143 198.2 926.583 198.2C920.289 198.2 915.143 197.293 911.143 195.48V189C915.356 191.24 920.636 192.36 926.983 192.36C930.663 192.36 933.543 191.267 935.623 189.08C937.756 186.947 938.823 184.013 938.823 180.28V178.6C938.823 177.96 938.849 177.053 938.903 175.88C938.956 174.653 939.009 173.8 939.063 173.32H938.743C935.863 177.64 931.436 179.8 925.463 179.8C919.916 179.8 915.569 177.853 912.423 173.96C909.329 170.067 907.783 164.627 907.783 157.64C907.783 150.813 909.329 145.4 912.423 141.4C915.569 137.347 919.889 135.32 925.383 135.32ZM926.343 141.24C922.769 141.24 919.996 142.68 918.023 145.56C916.049 148.387 915.063 152.44 915.063 157.72C915.063 163 916.023 167.053 917.943 169.88C919.916 172.653 922.769 174.04 926.503 174.04C930.823 174.04 933.969 172.893 935.943 170.6C937.916 168.253 938.903 164.493 938.903 159.32V157.64C938.903 151.773 937.889 147.587 935.863 145.08C933.836 142.52 930.663 141.24 926.343 141.24ZM975.642 135.4C980.868 135.4 984.735 136.547 987.242 138.84C989.748 141.133 991.002 144.787 991.002 149.8V179H985.882L984.522 172.92H984.202C982.335 175.267 980.362 177 978.282 178.12C976.255 179.24 973.428 179.8 969.802 179.8C965.908 179.8 962.682 178.787 960.122 176.76C957.562 174.68 956.282 171.453 956.282 167.08C956.282 162.813 957.962 159.533 961.322 157.24C964.682 154.893 969.855 153.613 976.842 153.4L984.122 153.16V150.6C984.122 147.027 983.348 144.547 981.802 143.16C980.255 141.773 978.068 141.08 975.242 141.08C973.002 141.08 970.868 141.427 968.842 142.12C966.815 142.76 964.922 143.507 963.162 144.36L961.002 139.08C962.868 138.067 965.082 137.213 967.642 136.52C970.202 135.773 972.868 135.4 975.642 135.4ZM984.042 158.04L977.722 158.28C972.388 158.493 968.682 159.347 966.602 160.84C964.575 162.333 963.562 164.44 963.562 167.16C963.562 169.56 964.282 171.32 965.722 172.44C967.215 173.56 969.108 174.12 971.402 174.12C975.028 174.12 978.042 173.133 980.442 171.16C982.842 169.133 984.042 166.04 984.042 161.88V158.04ZM1019.45 135.32C1022.27 135.32 1024.81 135.853 1027.05 136.92C1029.34 137.987 1031.29 139.613 1032.89 141.8H1033.29L1034.25 136.12H1039.85V179.72C1039.85 185.853 1038.27 190.467 1035.13 193.56C1032.03 196.653 1027.21 198.2 1020.65 198.2C1014.35 198.2 1009.21 197.293 1005.21 195.48V189C1009.42 191.24 1014.7 192.36 1021.05 192.36C1024.73 192.36 1027.61 191.267 1029.69 189.08C1031.82 186.947 1032.89 184.013 1032.89 180.28V178.6C1032.89 177.96 1032.91 177.053 1032.97 175.88C1033.02 174.653 1033.07 173.8 1033.13 173.32H1032.81C1029.93 177.64 1025.5 179.8 1019.53 179.8C1013.98 179.8 1009.63 177.853 1006.49 173.96C1003.39 170.067 1001.85 164.627 1001.85 157.64C1001.85 150.813 1003.39 145.4 1006.49 141.4C1009.63 137.347 1013.95 135.32 1019.45 135.32ZM1020.41 141.24C1016.83 141.24 1014.06 142.68 1012.09 145.56C1010.11 148.387 1009.13 152.44 1009.13 157.72C1009.13 163 1010.09 167.053 1012.01 169.88C1013.98 172.653 1016.83 174.04 1020.57 174.04C1024.89 174.04 1028.03 172.893 1030.01 170.6C1031.98 168.253 1032.97 164.493 1032.97 159.32V157.64C1032.97 151.773 1031.95 147.587 1029.93 145.08C1027.9 142.52 1024.73 141.24 1020.41 141.24ZM1070.02 135.32C1073.7 135.32 1076.85 136.12 1079.46 137.72C1082.13 139.32 1084.16 141.587 1085.54 144.52C1086.98 147.4 1087.7 150.787 1087.7 154.68V158.92H1058.34C1058.45 163.773 1059.68 167.48 1062.02 170.04C1064.42 172.547 1067.76 173.8 1072.02 173.8C1074.74 173.8 1077.14 173.56 1079.22 173.08C1081.36 172.547 1083.54 171.8 1085.78 170.84V177C1083.6 177.96 1081.44 178.653 1079.3 179.08C1077.17 179.56 1074.64 179.8 1071.7 179.8C1067.65 179.8 1064.05 178.973 1060.9 177.32C1057.81 175.667 1055.38 173.213 1053.62 169.96C1051.92 166.653 1051.06 162.627 1051.06 157.88C1051.06 153.187 1051.84 149.16 1053.38 145.8C1054.98 142.44 1057.2 139.853 1060.02 138.04C1062.9 136.227 1066.24 135.32 1070.02 135.32ZM1069.94 141.08C1066.58 141.08 1063.92 142.173 1061.94 144.36C1060.02 146.493 1058.88 149.48 1058.5 153.32H1080.34C1080.29 149.693 1079.44 146.76 1077.78 144.52C1076.13 142.227 1073.52 141.08 1069.94 141.08ZM1139.16 141.56H1128.36V179H1121.32V141.56H1113.8V138.28L1121.32 135.88V133.4C1121.32 127.853 1122.55 123.88 1125 121.48C1127.45 119.027 1130.87 117.8 1135.24 117.8C1136.95 117.8 1138.49 117.96 1139.88 118.28C1141.32 118.547 1142.55 118.867 1143.56 119.24L1141.72 124.76C1140.87 124.493 1139.88 124.227 1138.76 123.96C1137.64 123.693 1136.49 123.56 1135.32 123.56C1132.97 123.56 1131.21 124.36 1130.04 125.96C1128.92 127.507 1128.36 129.96 1128.36 133.32V136.12H1139.16V141.56ZM1163.46 135.32C1167.14 135.32 1170.29 136.12 1172.9 137.72C1175.57 139.32 1177.59 141.587 1178.98 144.52C1180.42 147.4 1181.14 150.787 1181.14 154.68V158.92H1151.78C1151.89 163.773 1153.11 167.48 1155.46 170.04C1157.86 172.547 1161.19 173.8 1165.46 173.8C1168.18 173.8 1170.58 173.56 1172.66 173.08C1174.79 172.547 1176.98 171.8 1179.22 170.84V177C1177.03 177.96 1174.87 178.653 1172.74 179.08C1170.61 179.56 1168.07 179.8 1165.14 179.8C1161.09 179.8 1157.49 178.973 1154.34 177.32C1151.25 175.667 1148.82 173.213 1147.06 169.96C1145.35 166.653 1144.5 162.627 1144.5 157.88C1144.5 153.187 1145.27 149.16 1146.82 145.8C1148.42 142.44 1150.63 139.853 1153.46 138.04C1156.34 136.227 1159.67 135.32 1163.46 135.32ZM1163.38 141.08C1160.02 141.08 1157.35 142.173 1155.38 144.36C1153.46 146.493 1152.31 149.48 1151.94 153.32H1173.78C1173.73 149.693 1172.87 146.76 1171.22 144.52C1169.57 142.227 1166.95 141.08 1163.38 141.08ZM1208.3 135.4C1213.52 135.4 1217.39 136.547 1219.9 138.84C1222.4 141.133 1223.66 144.787 1223.66 149.8V179H1218.54L1217.18 172.92H1216.86C1214.99 175.267 1213.02 177 1210.94 178.12C1208.91 179.24 1206.08 179.8 1202.46 179.8C1198.56 179.8 1195.34 178.787 1192.78 176.76C1190.22 174.68 1188.94 171.453 1188.94 167.08C1188.94 162.813 1190.62 159.533 1193.98 157.24C1197.34 154.893 1202.51 153.613 1209.5 153.4L1216.78 153.16V150.6C1216.78 147.027 1216 144.547 1214.46 143.16C1212.91 141.773 1210.72 141.08 1207.9 141.08C1205.66 141.08 1203.52 141.427 1201.5 142.12C1199.47 142.76 1197.58 143.507 1195.82 144.36L1193.66 139.08C1195.52 138.067 1197.74 137.213 1200.3 136.52C1202.86 135.773 1205.52 135.4 1208.3 135.4ZM1216.7 158.04L1210.38 158.28C1205.04 158.493 1201.34 159.347 1199.26 160.84C1197.23 162.333 1196.22 164.44 1196.22 167.16C1196.22 169.56 1196.94 171.32 1198.38 172.44C1199.87 173.56 1201.76 174.12 1204.06 174.12C1207.68 174.12 1210.7 173.133 1213.1 171.16C1215.5 169.133 1216.7 166.04 1216.7 161.88V158.04ZM1251.22 174.04C1252.29 174.04 1253.38 173.96 1254.5 173.8C1255.62 173.587 1256.53 173.373 1257.22 173.16V178.52C1256.47 178.893 1255.41 179.187 1254.02 179.4C1252.63 179.667 1251.3 179.8 1250.02 179.8C1247.78 179.8 1245.7 179.427 1243.78 178.68C1241.91 177.88 1240.39 176.52 1239.22 174.6C1238.05 172.68 1237.46 169.987 1237.46 166.52V141.56H1231.38V138.2L1237.54 135.4L1240.34 126.28H1244.5V136.12H1256.9V141.56H1244.5V166.36C1244.5 168.973 1245.11 170.92 1246.34 172.2C1247.62 173.427 1249.25 174.04 1251.22 174.04ZM1301.65 136.12V179H1295.89L1294.85 173.32H1294.53C1293.14 175.56 1291.22 177.213 1288.77 178.28C1286.31 179.293 1283.7 179.8 1280.93 179.8C1275.75 179.8 1271.86 178.573 1269.25 176.12C1266.63 173.613 1265.33 169.64 1265.33 164.2V136.12H1272.45V163.72C1272.45 170.547 1275.62 173.96 1281.97 173.96C1286.71 173.96 1289.99 172.627 1291.81 169.96C1293.67 167.293 1294.61 163.453 1294.61 158.44V136.12H1301.65ZM1335.26 135.32C1336.06 135.32 1336.91 135.373 1337.82 135.48C1338.78 135.533 1339.61 135.64 1340.3 135.8L1339.42 142.28C1338.73 142.12 1337.95 141.987 1337.1 141.88C1336.3 141.773 1335.53 141.72 1334.78 141.72C1332.59 141.72 1330.54 142.333 1328.62 143.56C1326.7 144.733 1325.15 146.413 1323.98 148.6C1322.86 150.733 1322.3 153.24 1322.3 156.12V179H1315.26V136.12H1321.02L1321.82 143.96H1322.14C1323.53 141.613 1325.31 139.587 1327.5 137.88C1329.69 136.173 1332.27 135.32 1335.26 135.32ZM1363.31 135.32C1366.99 135.32 1370.13 136.12 1372.75 137.72C1375.41 139.32 1377.44 141.587 1378.83 144.52C1380.27 147.4 1380.99 150.787 1380.99 154.68V158.92H1351.63C1351.73 163.773 1352.96 167.48 1355.31 170.04C1357.71 172.547 1361.04 173.8 1365.31 173.8C1368.03 173.8 1370.43 173.56 1372.51 173.08C1374.64 172.547 1376.83 171.8 1379.07 170.84V177C1376.88 177.96 1374.72 178.653 1372.59 179.08C1370.45 179.56 1367.92 179.8 1364.99 179.8C1360.93 179.8 1357.33 178.973 1354.19 177.32C1351.09 175.667 1348.67 173.213 1346.91 169.96C1345.2 166.653 1344.35 162.627 1344.35 157.88C1344.35 153.187 1345.12 149.16 1346.67 145.8C1348.27 142.44 1350.48 139.853 1353.31 138.04C1356.19 136.227 1359.52 135.32 1363.31 135.32ZM1363.23 141.08C1359.87 141.08 1357.2 142.173 1355.23 144.36C1353.31 146.493 1352.16 149.48 1351.79 153.32H1373.63C1373.57 149.693 1372.72 146.76 1371.07 144.52C1369.41 142.227 1366.8 141.08 1363.23 141.08ZM1419.82 167.16C1419.82 171.32 1418.27 174.467 1415.18 176.6C1412.09 178.733 1407.93 179.8 1402.7 179.8C1399.71 179.8 1397.13 179.56 1394.94 179.08C1392.81 178.6 1390.91 177.933 1389.26 177.08V170.68C1390.97 171.533 1393.02 172.333 1395.42 173.08C1397.87 173.773 1400.35 174.12 1402.86 174.12C1406.43 174.12 1409.02 173.56 1410.62 172.44C1412.22 171.267 1413.02 169.72 1413.02 167.8C1413.02 166.733 1412.73 165.773 1412.14 164.92C1411.55 164.067 1410.49 163.213 1408.94 162.36C1407.45 161.507 1405.29 160.547 1402.46 159.48C1399.69 158.413 1397.31 157.347 1395.34 156.28C1393.37 155.213 1391.85 153.933 1390.78 152.44C1389.71 150.947 1389.18 149.027 1389.18 146.68C1389.18 143.053 1390.65 140.253 1393.58 138.28C1396.57 136.307 1400.46 135.32 1405.26 135.32C1407.87 135.32 1410.3 135.587 1412.54 136.12C1414.83 136.6 1416.97 137.293 1418.94 138.2L1416.54 143.8C1414.73 143.053 1412.83 142.413 1410.86 141.88C1408.89 141.347 1406.86 141.08 1404.78 141.08C1401.9 141.08 1399.69 141.56 1398.14 142.52C1396.65 143.427 1395.9 144.68 1395.9 146.28C1395.9 147.453 1396.25 148.467 1396.94 149.32C1397.63 150.12 1398.78 150.92 1400.38 151.72C1402.03 152.467 1404.22 153.373 1406.94 154.44C1409.66 155.453 1411.98 156.493 1413.9 157.56C1415.82 158.627 1417.29 159.933 1418.3 161.48C1419.31 162.973 1419.82 164.867 1419.82 167.16ZM1488.24 157.48C1488.24 164.573 1486.43 170.067 1482.8 173.96C1479.23 177.853 1474.38 179.8 1468.24 179.8C1464.46 179.8 1461.07 178.947 1458.08 177.24C1455.15 175.48 1452.83 172.947 1451.12 169.64C1449.42 166.28 1448.56 162.227 1448.56 157.48C1448.56 150.387 1450.35 144.92 1453.92 141.08C1457.5 137.24 1462.35 135.32 1468.48 135.32C1472.38 135.32 1475.79 136.2 1478.72 137.96C1481.71 139.667 1484.03 142.173 1485.68 145.48C1487.39 148.733 1488.24 152.733 1488.24 157.48ZM1455.84 157.48C1455.84 162.547 1456.83 166.573 1458.8 169.56C1460.83 172.493 1464.03 173.96 1468.4 173.96C1472.72 173.96 1475.9 172.493 1477.92 169.56C1479.95 166.573 1480.96 162.547 1480.96 157.48C1480.96 152.413 1479.95 148.44 1477.92 145.56C1475.9 142.68 1472.7 141.24 1468.32 141.24C1463.95 141.24 1460.78 142.68 1458.8 145.56C1456.83 148.44 1455.84 152.413 1455.84 157.48ZM1519.16 141.56H1508.36V179H1501.32V141.56H1493.8V138.28L1501.32 135.88V133.4C1501.32 127.853 1502.55 123.88 1505 121.48C1507.45 119.027 1510.87 117.8 1515.24 117.8C1516.95 117.8 1518.49 117.96 1519.88 118.28C1521.32 118.547 1522.55 118.867 1523.56 119.24L1521.72 124.76C1520.87 124.493 1519.88 124.227 1518.76 123.96C1517.64 123.693 1516.49 123.56 1515.32 123.56C1512.97 123.56 1511.21 124.36 1510.04 125.96C1508.92 127.507 1508.36 129.96 1508.36 133.32V136.12H1519.16V141.56Z" fill="#9B9B9B"/>
</g>
<defs>
<filter id="filter0_d" x="1179" y="518" width="378" height="378" filterUnits="userSpaceOnUse" color-interpolation-filters="sRGB">
<feFlood flood-opacity="0" result="BackgroundImageFix"/>
<feColorMatrix in="SourceAlpha" type="matrix" values="0 0 0 0 0 0 0 0 0 0 0 0 0 0 0 0 0 0 127 0"/>
<feOffset dx="11" dy="11"/>
<feGaussianBlur stdDeviation="13.5"/>
<feColorMatrix type="matrix" values="0 0 0 0 0 0 0 0 0 0 0 0 0 0 0 0 0 0 0.5 0"/>
<feBlend mode="normal" in2="BackgroundImageFix" result="effect1_dropShadow"/>
<feBlend mode="normal" in="SourceGraphic" in2="effect1_dropShadow" result="shape"/>
</filter>
<filter id="filter1_d" x="443.5" y="518.5" width="221" height="383.001" filterUnits="userSpaceOnUse" color-interpolation-filters="sRGB">
<feFlood flood-opacity="0" result="BackgroundImageFix"/>
<feColorMatrix in="SourceAlpha" type="matrix" values="0 0 0 0 0 0 0 0 0 0 0 0 0 0 0 0 0 0 127 0"/>
<feOffset dy="7"/>
<feGaussianBlur stdDeviation="7"/>
<feColorMatrix type="matrix" values="0 0 0 0 0 0 0 0 0 0 0 0 0 0 0 0 0 0 0.5 0"/>
<feBlend mode="normal" in2="BackgroundImageFix" result="effect1_dropShadow"/>
<feBlend mode="normal" in="SourceGraphic" in2="effect1_dropShadow" result="shape"/>
</filter>
<linearGradient id="paint0_linear" x1="948.605" y1="-540" x2="31.2584" y2="1110.2" gradientUnits="userSpaceOnUse">
<stop stop-color="#0B0B0B" stop-opacity="0.01"/>
<stop offset="1"/>
</linearGradient>
<linearGradient id="paint1_linear" x1="1433.75" y1="972.074" x2="1479.1" y2="791.885" gradientUnits="userSpaceOnUse">
<stop offset="0.09677" stop-color="#0095D5"/>
<stop offset="0.3007" stop-color="#238AD9"/>
<stop offset="0.6211" stop-color="#557BDE"/>
<stop offset="0.8643" stop-color="#7472E2"/>
<stop offset="1" stop-color="#806EE3"/>
</linearGradient>
<linearGradient id="paint2_linear" x1="1258.9" y1="647.117" x2="1354.06" y2="565.496" gradientUnits="userSpaceOnUse">
<stop offset="0.1183" stop-color="#0095D5"/>
<stop offset="0.4178" stop-color="#3C83DC"/>
<stop offset="0.6962" stop-color="#6D74E1"/>
<stop offset="0.8333" stop-color="#806EE3"/>
</linearGradient>
<linearGradient id="paint3_linear" x1="1291.2" y1="982.634" x2="1592.7" y2="681.135" gradientUnits="userSpaceOnUse">
<stop offset="0.1075" stop-color="#C757BC"/>
<stop offset="0.2138" stop-color="#D0609A"/>
<stop offset="0.4254" stop-color="#E1725C"/>
<stop offset="0.6048" stop-color="#EE7E2F"/>
<stop offset="0.743" stop-color="#F58613"/>
<stop offset="0.8232" stop-color="#F88909"/>
</linearGradient>
<linearGradient id="paint4_linear" x1="466.454" y1="872.845" x2="644.214" y2="872.845" gradientUnits="userSpaceOnUse">
<stop stop-color="#0095D5"/>
<stop offset="0.464053" stop-color="#7272E1"/>
<stop offset="1" stop-color="#7E6EE3"/>
</linearGradient>
</defs>
</svg>
