<svg width="1920" height="1080" viewBox="0 0 1920 1080" fill="none" xmlns="http://www.w3.org/2000/svg">
<g clip-path="url(#clip0_1347_2)">
<path d="M1920 0H0V1080H1920V0Z" fill="url(#paint0_linear_1347_2)" fill-opacity="0.5"/>
<path d="M896.239 136.75C896.239 139.565 895.624 142.025 894.394 144.13C893.191 146.235 891.551 147.97 889.474 149.337C887.397 150.704 885.06 151.701 882.463 152.33L899.191 177.381H890.663L875.247 153.15H867.621V177.381H860.487V120.924H875.001C881.971 120.924 887.246 122.263 890.827 124.942C894.435 127.593 896.239 131.529 896.239 136.75ZM888.613 136.75C888.613 133.115 887.574 130.518 885.497 128.96C883.42 127.375 880.194 126.582 875.821 126.582H867.621V147.574H875.821C879.866 147.574 883.01 146.754 885.251 145.114C887.492 143.447 888.613 140.659 888.613 136.75ZM916.461 134.208V164.794C916.461 167.637 917.049 169.687 918.224 170.944C919.399 172.201 921.231 172.83 923.718 172.83C926.096 172.83 928.337 172.16 930.442 170.821C932.574 169.454 934.228 167.842 935.403 165.983V134.208H942.291V177.381H936.428L935.854 171.559C934.159 173.746 932.068 175.427 929.581 176.602C927.094 177.75 924.579 178.324 922.037 178.324C917.855 178.324 914.725 177.217 912.648 175.003C910.598 172.762 909.573 169.632 909.573 165.614V134.208H916.461ZM973.419 172.625C976.726 172.625 979.337 172.01 981.25 170.78C983.191 169.523 984.161 167.855 984.161 165.778C984.161 164.466 983.915 163.332 983.423 162.375C982.958 161.418 981.988 160.557 980.512 159.792C979.036 159.027 976.767 158.261 973.706 157.496C970.727 156.758 968.13 155.911 965.916 154.954C963.729 153.97 962.021 152.699 960.791 151.141C959.588 149.583 958.987 147.56 958.987 145.073C958.987 142.64 959.67 140.549 961.037 138.8C962.431 137.023 964.358 135.67 966.818 134.741C969.278 133.784 972.134 133.306 975.387 133.306C978.858 133.306 981.879 133.771 984.448 134.7C987.045 135.602 989.245 136.723 991.049 138.062L988.015 142.736C986.375 141.615 984.571 140.7 982.603 139.989C980.635 139.251 978.257 138.882 975.469 138.882C972.08 138.882 969.674 139.415 968.253 140.481C966.832 141.52 966.121 142.873 966.121 144.54C966.121 145.797 966.463 146.85 967.146 147.697C967.857 148.517 969.046 149.269 970.713 149.952C972.38 150.608 974.676 151.332 977.601 152.125C980.416 152.863 982.863 153.751 984.94 154.79C987.045 155.829 988.685 157.195 989.86 158.89C991.035 160.585 991.623 162.771 991.623 165.45C991.623 168.511 990.748 170.999 988.999 172.912C987.25 174.798 984.981 176.178 982.193 177.053C979.432 177.9 976.508 178.324 973.419 178.324C969.51 178.324 966.176 177.764 963.415 176.643C960.682 175.495 958.386 174.115 956.527 172.502L960.463 167.951C962.158 169.345 964.098 170.479 966.285 171.354C968.499 172.201 970.877 172.625 973.419 172.625ZM1042.18 175.208C1040.71 176.192 1038.92 176.957 1036.81 177.504C1034.71 178.051 1032.65 178.324 1030.62 178.324C1025.98 178.324 1022.4 177.108 1019.88 174.675C1017.37 172.242 1016.11 169.113 1016.11 165.286V139.538H1006.19V134.208H1016.11V124.409L1023 123.589V134.208H1037.92L1037.1 139.538H1023V165.204C1023 167.609 1023.63 169.441 1024.88 170.698C1026.17 171.955 1028.29 172.584 1031.24 172.584C1032.85 172.584 1034.34 172.393 1035.71 172.01C1037.07 171.627 1038.34 171.135 1039.52 170.534L1042.18 175.208Z" fill="url(#paint1_linear_1347_2)"/>
<path d="M755.295 246.464V296.361C755.295 298.493 755.951 300.01 757.263 300.912C758.602 301.787 760.324 302.224 762.429 302.224C763.741 302.224 764.985 302.087 766.16 301.814C767.335 301.541 768.511 301.172 769.686 300.707L771.531 305.75C770.356 306.324 768.893 306.83 767.144 307.267C765.422 307.732 763.468 307.964 761.281 307.964C757.454 307.964 754.352 306.912 751.974 304.807C749.596 302.675 748.407 299.737 748.407 295.992V251.917H735.164V246.464H755.295ZM809.506 263.848V301.568H821.683V307.021H789.293V301.568H802.618V269.301H789.703V263.848H809.506ZM804.012 243.635C805.543 243.635 806.759 244.1 807.661 245.029C808.59 245.958 809.055 247.093 809.055 248.432C809.055 249.826 808.59 251.001 807.661 251.958C806.759 252.887 805.543 253.352 804.012 253.352C802.563 253.352 801.374 252.887 800.445 251.958C799.516 251.001 799.051 249.826 799.051 248.432C799.051 247.093 799.516 245.958 800.445 245.029C801.374 244.1 802.563 243.635 804.012 243.635ZM862.323 245.603C864.646 245.603 866.751 245.808 868.637 246.218C870.523 246.628 872.313 247.202 874.008 247.94L871.794 253.065C870.4 252.464 868.924 252.013 867.366 251.712C865.808 251.411 864.195 251.261 862.528 251.261C859.521 251.261 857.253 251.849 855.722 253.024C854.219 254.199 853.467 256.003 853.467 258.436V267.21H868.104L867.366 272.622H853.467V307.021H846.579V272.622H836.288V267.21H846.579V258.6C846.579 255.921 847.262 253.612 848.629 251.671C850.023 249.73 851.909 248.241 854.287 247.202C856.665 246.136 859.344 245.603 862.323 245.603ZM891.401 287.874C891.538 291.209 892.18 293.942 893.328 296.074C894.476 298.179 895.993 299.737 897.879 300.748C899.765 301.732 901.815 302.224 904.029 302.224C906.243 302.224 908.238 301.896 910.015 301.24C911.819 300.584 913.664 299.614 915.55 298.329L918.789 302.88C916.766 304.465 914.457 305.709 911.86 306.611C909.291 307.513 906.653 307.964 903.947 307.964C899.765 307.964 896.198 307.021 893.246 305.135C890.294 303.249 888.039 300.625 886.481 297.263C884.95 293.874 884.185 289.951 884.185 285.496C884.185 281.123 884.964 277.241 886.522 273.852C888.08 270.463 890.267 267.798 893.082 265.857C895.897 263.916 899.218 262.946 903.045 262.946C906.68 262.946 909.81 263.807 912.434 265.529C915.058 267.224 917.067 269.656 918.461 272.827C919.882 275.97 920.593 279.729 920.593 284.102C920.593 284.84 920.579 285.537 920.552 286.193C920.525 286.822 920.484 287.382 920.429 287.874H891.401ZM903.127 268.604C899.929 268.604 897.25 269.738 895.091 272.007C892.959 274.276 891.743 277.788 891.442 282.544H913.951C913.869 277.925 912.858 274.453 910.917 272.13C908.976 269.779 906.38 268.604 903.127 268.604ZM969.433 304.848C967.957 305.832 966.167 306.597 964.062 307.144C961.957 307.691 959.894 307.964 957.871 307.964C953.224 307.964 949.644 306.748 947.129 304.315C944.614 301.882 943.357 298.753 943.357 294.926V269.178H933.435V263.848H943.357V254.049L950.245 253.229V263.848H965.169L964.349 269.178H950.245V294.844C950.245 297.249 950.874 299.081 952.131 300.338C953.416 301.595 955.534 302.224 958.486 302.224C960.099 302.224 961.588 302.033 962.955 301.65C964.322 301.267 965.593 300.775 966.768 300.174L969.433 304.848ZM1006.18 263.848V301.568H1018.35V307.021H985.965V301.568H999.29V269.301H986.375V263.848H1006.18ZM1000.68 243.635C1002.21 243.635 1003.43 244.1 1004.33 245.029C1005.26 245.958 1005.73 247.093 1005.73 248.432C1005.73 249.826 1005.26 251.001 1004.33 251.958C1003.43 252.887 1002.21 253.352 1000.68 253.352C999.235 253.352 998.046 252.887 997.117 251.958C996.188 251.001 995.723 249.826 995.723 248.432C995.723 247.093 996.188 245.958 997.117 245.029C998.046 244.1 999.235 243.635 1000.68 243.635ZM1061.95 262.946C1063.34 262.946 1064.67 263.247 1065.92 263.848C1067.21 264.449 1068.26 265.611 1069.08 267.333C1069.9 269.055 1070.31 271.57 1070.31 274.877V307.021H1063.91V275.984C1063.91 273.278 1063.75 271.324 1063.42 270.121C1063.09 268.918 1062.15 268.317 1060.59 268.317C1059.31 268.317 1058.02 268.727 1056.74 269.547C1055.48 270.34 1054.25 271.652 1053.05 273.483V307.021H1046.61V275.984C1046.61 273.278 1046.45 271.324 1046.12 270.121C1045.79 268.918 1044.85 268.317 1043.29 268.317C1041.95 268.317 1040.65 268.727 1039.4 269.547C1038.17 270.34 1036.95 271.652 1035.75 273.483V307.021H1029.39V263.848H1034.8L1035.21 268.85C1036.39 267.183 1037.7 265.789 1039.15 264.668C1040.63 263.52 1042.44 262.946 1044.6 262.946C1046.24 262.946 1047.79 263.342 1049.24 264.135C1050.69 264.9 1051.75 266.404 1052.43 268.645C1053.61 266.95 1054.94 265.584 1056.41 264.545C1057.89 263.479 1059.73 262.946 1061.95 262.946ZM1088.07 287.874C1088.21 291.209 1088.85 293.942 1090 296.074C1091.15 298.179 1092.66 299.737 1094.55 300.748C1096.44 301.732 1098.49 302.224 1100.7 302.224C1102.91 302.224 1104.91 301.896 1106.69 301.24C1108.49 300.584 1110.34 299.614 1112.22 298.329L1115.46 302.88C1113.44 304.465 1111.13 305.709 1108.53 306.611C1105.96 307.513 1103.32 307.964 1100.62 307.964C1096.44 307.964 1092.87 307.021 1089.92 305.135C1086.97 303.249 1084.71 300.625 1083.15 297.263C1081.62 293.874 1080.86 289.951 1080.86 285.496C1080.86 281.123 1081.64 277.241 1083.19 273.852C1084.75 270.463 1086.94 267.798 1089.75 265.857C1092.57 263.916 1095.89 262.946 1099.72 262.946C1103.35 262.946 1106.48 263.807 1109.11 265.529C1111.73 267.224 1113.74 269.656 1115.13 272.827C1116.55 275.97 1117.26 279.729 1117.26 284.102C1117.26 284.84 1117.25 285.537 1117.22 286.193C1117.2 286.822 1117.16 287.382 1117.1 287.874H1088.07ZM1099.8 268.604C1096.6 268.604 1093.92 269.738 1091.76 272.007C1089.63 274.276 1088.41 277.788 1088.11 282.544H1110.62C1110.54 277.925 1109.53 274.453 1107.59 272.13C1105.65 269.779 1103.05 268.604 1099.8 268.604ZM1146.51 302.265C1149.81 302.265 1152.42 301.65 1154.34 300.42C1156.28 299.163 1157.25 297.495 1157.25 295.418C1157.25 294.106 1157 292.972 1156.51 292.015C1156.05 291.058 1155.08 290.197 1153.6 289.432C1152.12 288.667 1149.86 287.901 1146.79 287.136C1143.81 286.398 1141.22 285.551 1139 284.594C1136.82 283.61 1135.11 282.339 1133.88 280.781C1132.68 279.223 1132.07 277.2 1132.07 274.713C1132.07 272.28 1132.76 270.189 1134.12 268.44C1135.52 266.663 1137.45 265.31 1139.91 264.381C1142.37 263.424 1145.22 262.946 1148.47 262.946C1151.95 262.946 1154.97 263.411 1157.54 264.34C1160.13 265.242 1162.33 266.363 1164.14 267.702L1161.1 272.376C1159.46 271.255 1157.66 270.34 1155.69 269.629C1153.72 268.891 1151.34 268.522 1148.56 268.522C1145.17 268.522 1142.76 269.055 1141.34 270.121C1139.92 271.16 1139.21 272.513 1139.21 274.18C1139.21 275.437 1139.55 276.49 1140.23 277.337C1140.94 278.157 1142.13 278.909 1143.8 279.592C1145.47 280.248 1147.76 280.972 1150.69 281.765C1153.5 282.503 1155.95 283.391 1158.03 284.43C1160.13 285.469 1161.77 286.835 1162.95 288.53C1164.12 290.225 1164.71 292.411 1164.71 295.09C1164.71 298.151 1163.84 300.639 1162.09 302.552C1160.34 304.438 1158.07 305.818 1155.28 306.693C1152.52 307.54 1149.6 307.964 1146.51 307.964C1142.6 307.964 1139.26 307.404 1136.5 306.283C1133.77 305.135 1131.47 303.755 1129.61 302.142L1133.55 297.591C1135.25 298.985 1137.19 300.119 1139.37 300.994C1141.59 301.841 1143.96 302.265 1146.51 302.265Z" fill="url(#paint2_linear_1347_2)"/>
<path d="M1740.21 675.975L1724.99 666.545C1724.86 665.061 1724.71 663.581 1724.56 662.107L1737.66 649.903C1738.99 648.662 1739.59 646.824 1739.23 645.049C1738.88 643.264 1737.63 641.794 1735.92 641.166L1719.18 634.925C1718.76 633.476 1718.32 632.037 1717.87 630.592L1728.3 616.099C1729.37 614.626 1729.59 612.709 1728.89 611.037C1728.2 609.363 1726.68 608.163 1724.91 607.869L1707.26 604.998C1706.57 603.66 1705.86 602.342 1705.14 601.045L1712.56 584.75C1713.32 583.093 1713.16 581.179 1712.15 579.654C1711.14 578.142 1709.43 577.258 1707.6 577.327L1689.68 577.951C1688.75 576.793 1687.81 575.646 1686.85 574.519L1690.98 557.08C1691.39 555.308 1690.87 553.439 1689.58 552.157C1688.3 550.874 1686.44 550.343 1684.66 550.759L1667.22 554.885C1666.09 553.928 1664.94 552.982 1663.78 552.056L1664.41 534.132C1664.47 532.318 1663.59 530.595 1662.08 529.59C1660.56 528.577 1658.65 528.425 1656.98 529.177L1640.72 536.597C1639.41 535.875 1638.09 535.161 1636.77 534.471L1633.89 516.824C1633.6 515.035 1632.4 513.516 1630.72 512.837C1629.05 512.14 1627.12 512.365 1625.66 513.426L1611.17 523.862C1609.74 523.408 1608.3 522.971 1606.87 522.555L1600.63 505.809C1599.99 504.103 1598.52 502.852 1596.75 502.498C1594.96 502.148 1593.14 502.741 1591.89 504.065L1579.69 517.171C1578.21 517.008 1576.73 516.859 1575.25 516.737L1565.82 501.482C1564.87 499.94 1563.18 499 1561.35 499C1559.52 499 1557.85 499.94 1556.91 501.482L1547.48 516.737C1546 516.859 1544.51 517.008 1543.04 517.171L1530.84 504.065C1529.6 502.741 1527.76 502.148 1525.98 502.498C1524.2 502.855 1522.73 504.103 1522.1 505.809L1515.86 522.555C1514.41 522.971 1512.98 523.411 1511.56 523.862L1497.07 513.426C1495.59 512.362 1493.67 512.137 1492.01 512.837C1490.33 513.53 1489.13 515.049 1488.84 516.824L1485.96 534.471C1484.63 535.161 1483.31 535.872 1482.01 536.597L1465.75 529.177C1464.09 528.421 1462.18 528.577 1460.65 529.59C1459.14 530.595 1458.25 532.318 1458.32 534.132L1458.95 552.056C1457.79 552.982 1456.64 553.928 1455.51 554.885L1438.07 550.759C1436.3 550.347 1434.43 550.874 1433.15 552.157C1431.86 553.443 1431.33 555.298 1431.75 557.08L1435.84 574.519C1434.89 575.649 1433.94 576.793 1433.02 577.951L1415.09 577.327C1413.29 577.275 1411.56 578.142 1410.55 579.654C1409.54 581.158 1409.39 583.086 1410.14 584.75L1417.56 601.045C1416.84 602.353 1416.12 603.67 1415.43 604.998L1397.79 607.869C1395.99 608.16 1394.48 609.359 1393.8 611.037C1393.1 612.719 1393.33 614.643 1394.39 616.099L1404.82 630.592C1404.37 632.024 1403.93 633.462 1403.51 634.925L1386.77 641.166C1385.07 641.801 1383.82 643.271 1383.46 645.049C1383.11 646.831 1383.7 648.655 1385.03 649.903L1398.14 662.107C1397.97 663.581 1397.83 665.064 1397.7 666.545L1382.48 675.975C1380.94 676.929 1380 678.614 1380 680.448C1380 682.282 1380.94 683.949 1382.48 684.886L1397.7 694.316C1397.83 695.8 1397.97 697.28 1398.14 698.754L1385.03 710.958C1383.7 712.195 1383.11 714.033 1383.46 715.812C1383.82 717.597 1385.07 719.064 1386.77 719.695L1403.51 725.935C1403.93 727.385 1404.37 728.823 1404.82 730.269L1394.39 744.761C1393.33 746.238 1393.1 748.156 1393.8 749.823C1394.5 751.505 1396.01 752.704 1397.82 752.992L1415.47 755.863C1416.16 757.201 1416.87 758.519 1417.59 759.815L1410.17 776.076C1409.42 777.73 1409.57 779.647 1410.59 781.172C1411.6 782.687 1413.32 783.571 1415.13 783.499L1433.02 782.871C1433.95 784.036 1434.89 785.177 1435.85 786.31L1431.76 803.75C1431.34 805.518 1431.86 807.355 1433.15 808.638C1434.43 809.931 1436.29 810.448 1438.08 810.032L1455.52 805.941C1456.65 806.905 1457.8 807.841 1458.95 808.763L1458.33 826.688C1458.26 828.501 1459.15 830.224 1460.66 831.229C1462.16 832.238 1464.09 832.391 1465.75 831.635L1482.01 824.216C1483.33 824.944 1484.64 825.651 1485.97 826.341L1488.84 843.988C1489.14 845.784 1490.33 847.303 1492.01 848.01C1493.69 848.707 1495.62 848.482 1497.07 847.424L1511.57 836.988C1513 837.442 1514.44 837.886 1515.9 838.302L1522.14 855.048C1522.78 856.747 1524.25 858.005 1526.03 858.352C1527.81 858.713 1529.63 858.116 1530.88 856.785L1543.08 843.68C1544.56 843.85 1546.04 843.992 1547.52 844.123L1556.95 859.344C1557.9 860.88 1559.59 861.826 1561.39 861.826C1563.19 861.826 1564.89 860.883 1565.86 859.344L1575.29 844.123C1576.78 843.992 1578.26 843.85 1579.73 843.68L1591.93 856.785C1593.17 858.116 1595.01 858.713 1596.79 858.352C1598.57 858.002 1600.04 856.747 1600.67 855.048L1606.91 838.302C1608.36 837.886 1609.8 837.442 1611.24 836.988L1625.74 847.424C1627.21 848.482 1629.13 848.707 1630.8 848.01C1632.48 847.32 1633.68 845.798 1633.97 843.988L1636.85 826.341C1638.18 825.651 1639.49 824.933 1640.8 824.216L1657.06 831.635C1658.71 832.391 1660.63 832.238 1662.16 831.229C1663.67 830.217 1664.55 828.501 1664.48 826.688L1663.86 808.763C1665.02 807.837 1666.16 806.905 1667.29 805.941L1684.73 810.032C1686.5 810.448 1688.37 809.931 1689.66 808.638C1690.95 807.352 1691.47 805.504 1691.05 803.75L1686.96 786.31C1687.92 785.177 1688.86 784.036 1689.78 782.871L1707.71 783.499C1709.52 783.571 1711.24 782.687 1712.25 781.172C1713.26 779.661 1713.42 777.736 1712.66 776.076L1705.24 759.815C1705.96 758.501 1706.68 757.184 1707.36 755.863L1725.01 752.992C1726.81 752.704 1728.32 751.505 1729 749.823C1729.69 748.149 1729.47 746.218 1728.41 744.761L1717.97 730.269C1718.42 728.837 1718.86 727.398 1719.28 725.935L1736.03 719.695C1737.73 719.057 1738.99 717.59 1739.33 715.812C1739.69 714.03 1739.1 712.206 1737.76 710.958L1724.66 698.754C1724.82 697.28 1724.96 695.796 1725.09 694.316L1740.31 684.886C1741.85 683.936 1742.8 682.247 1742.8 680.448C1742.8 678.648 1741.86 676.946 1740.32 675.975H1740.21ZM1638.28 802.522C1632.45 801.267 1628.78 795.519 1630.03 789.694C1631.27 783.87 1636.99 780.16 1642.82 781.408C1648.64 782.653 1652.35 788.411 1651.11 794.236C1649.86 800.061 1644.14 803.77 1638.31 802.522H1638.28ZM1633.11 767.505C1627.81 766.368 1622.57 769.745 1621.46 775.063L1616.05 800.303C1599.38 807.862 1580.69 812.091 1561.27 812.091C1541.3 812.091 1522.44 807.688 1505.45 799.783L1500.05 774.543C1498.91 769.239 1493.7 765.841 1488.4 766.985L1466.1 771.77C1461.98 767.505 1458.13 762.963 1454.59 758.179H1563.11C1564.34 758.179 1565.16 757.957 1565.16 756.841V718.356C1565.16 717.24 1564.34 717.018 1563.11 717.018H1531.39V692.714H1565.68C1568.81 692.714 1582.42 693.609 1586.76 711.02C1588.12 716.359 1591.13 733.764 1593.17 739.346C1595.21 745.587 1603.5 758.068 1612.34 758.068H1666.43C1667.04 758.068 1667.7 757.999 1668.39 757.874C1664.64 762.97 1660.52 767.79 1656.11 772.297L1633.3 767.408L1633.11 767.505ZM1482.99 802.002C1477.16 803.257 1471.44 799.548 1470.19 793.716C1468.95 787.891 1472.65 782.136 1478.48 780.888C1484.31 779.643 1490.03 783.353 1491.28 789.174C1492.52 794.999 1488.82 800.754 1482.99 802.002ZM1441.73 635.237C1444.14 640.681 1441.69 647.06 1436.25 649.487C1430.81 651.904 1424.46 649.445 1422.04 644.009C1419.61 638.573 1422.08 632.186 1427.52 629.76C1432.96 627.346 1439.3 629.801 1441.73 635.237ZM1429.08 665.193L1452.31 654.861C1457.26 652.659 1459.52 646.852 1457.3 641.894L1452.51 631.077H1471.31V715.673H1433.51C1430.22 704.093 1428.45 691.889 1428.45 679.269C1428.45 674.45 1428.71 669.7 1429.21 665.019L1429.08 665.193ZM1531.01 656.976V632.013H1575.73C1578.04 632.013 1592.06 634.686 1592.06 645.153C1592.06 653.855 1581.31 656.976 1572.47 656.976H1530.87H1531.01ZM1693.61 679.442C1693.61 682.757 1693.49 686.03 1693.25 689.289H1679.62C1678.26 689.289 1677.71 690.183 1677.71 691.518V697.759C1677.71 712.459 1669.43 715.683 1662.15 716.481C1655.21 717.261 1647.55 713.582 1646.61 709.339C1642.52 686.352 1635.73 681.464 1624.98 672.935C1638.33 664.475 1652.19 651.959 1652.19 635.144C1652.19 617.081 1639.82 605.709 1631.39 600.127C1619.53 592.326 1606.43 590.766 1602.89 590.766H1462.13C1481.23 569.478 1507.2 554.362 1536.33 548.814L1552.93 566.219C1556.68 570.137 1562.88 570.31 1566.84 566.538L1585.42 548.787C1624.25 556.033 1657.19 580.233 1676.26 613.62L1663.53 642.328C1661.34 647.285 1663.58 653.11 1668.52 655.294L1693 666.181C1693.42 670.515 1693.65 674.918 1693.65 679.356L1693.61 679.442ZM1552.85 534.173C1557.15 530.047 1563.98 530.221 1568.07 534.523C1572.16 538.822 1572.02 545.652 1567.71 549.778C1563.41 553.904 1556.58 553.731 1552.49 549.425C1548.4 545.126 1548.54 538.295 1552.85 534.17V534.173ZM1679.05 635.758C1681.46 630.314 1687.82 627.853 1693.27 630.28C1698.71 632.693 1701.17 639.086 1698.74 644.529C1696.33 649.972 1689.97 652.434 1684.53 650.007C1679.08 647.594 1676.62 641.201 1679.05 635.758Z" fill="url(#paint3_linear_1347_2)"/>
<path d="M420.692 636.402H348.692C344.716 636.402 341.492 639.626 341.492 643.602V715.602C341.492 719.579 344.716 722.802 348.692 722.802H420.692C424.669 722.802 427.892 719.579 427.892 715.602V643.602C427.892 639.626 424.669 636.402 420.692 636.402Z" fill="url(#paint4_linear_1347_2)"/>
<path d="M527.098 614.874V600.474H492.682V571.674H463.882V537.258H449.482V571.674H427.882V537.258H413.482V571.674H391.882V537.258H377.482V571.674H355.882V537.258H341.482V571.674H319.882V537.258H305.482V571.674H276.682V600.474H242.266V614.874H276.682V636.474H242.266V650.874H276.682V672.474H242.266V686.874H276.682V708.474H242.266V722.874H276.682V744.474H242.266V758.874H276.682V787.674H305.482V822.162H319.882V787.674H341.482V822.162H355.882V787.674H377.482V822.162H391.882V787.674H413.482V822.162H427.882V787.674H449.482V822.162H463.882V787.674H492.682V758.874H527.098V744.474H492.682V722.874H527.098V708.474H492.682V686.874H527.098V672.474H492.682V650.874H527.098V636.474H492.682V614.874H527.098ZM442.282 744.474H327.082C325.172 744.474 323.341 743.716 321.99 742.365C320.64 741.015 319.882 739.184 319.882 737.274V622.074C319.882 620.165 320.64 618.333 321.99 616.983C323.341 615.633 325.172 614.874 327.082 614.874H442.282C444.191 614.874 446.023 615.633 447.373 616.983C448.723 618.333 449.482 620.165 449.482 622.074V737.274C449.482 739.184 448.723 741.015 447.373 742.365C446.023 743.716 444.191 744.474 442.282 744.474Z" fill="url(#paint5_linear_1347_2)"/>
</g>
<defs>
<linearGradient id="paint0_linear_1347_2" x1="960" y1="0" x2="960" y2="1080" gradientUnits="userSpaceOnUse">
<stop stop-color="#323232"/>
<stop offset="1"/>
</linearGradient>
<linearGradient id="paint1_linear_1347_2" x1="852.508" y1="204.651" x2="1051.48" y2="204.651" gradientUnits="userSpaceOnUse">
<stop stop-color="#0095D5"/>
<stop offset="0.464053" stop-color="#7272E1"/>
<stop offset="1" stop-color="#7E6EE3"/>
</linearGradient>
<linearGradient id="paint2_linear_1347_2" x1="951.501" y1="226.021" x2="951.501" y2="334.021" gradientUnits="userSpaceOnUse">
<stop stop-color="#B32BD5"/>
<stop offset="1" stop-color="#DA3C8E"/>
</linearGradient>
<linearGradient id="paint3_linear_1347_2" x1="1561.4" y1="499" x2="1561.4" y2="861.826" gradientUnits="userSpaceOnUse">
<stop stop-color="#B32BD5"/>
<stop offset="1" stop-color="#DA3C8E"/>
</linearGradient>
<linearGradient id="paint4_linear_1347_2" x1="341.715" y1="723.018" x2="428.979" y2="723.018" gradientUnits="userSpaceOnUse">
<stop stop-color="#0095D5"/>
<stop offset="0.464053" stop-color="#7272E1"/>
<stop offset="1" stop-color="#7E6EE3"/>
</linearGradient>
<linearGradient id="paint5_linear_1347_2" x1="243" y1="822.875" x2="530.68" y2="822.875" gradientUnits="userSpaceOnUse">
<stop stop-color="#0095D5"/>
<stop offset="0.464053" stop-color="#7272E1"/>
<stop offset="1" stop-color="#7E6EE3"/>
</linearGradient>
<clipPath id="clip0_1347_2">
<rect width="1920" height="1080" fill="white"/>
</clipPath>
</defs>
</svg>
