<svg width="1920" height="1080" viewBox="0 0 1920 1080" fill="none" xmlns="http://www.w3.org/2000/svg">
<g clip-path="url(#clip0_1246_19)">
<path d="M1920 0H0V1080H1920V0Z" fill="url(#paint0_linear_1246_19)" fill-opacity="0.5"/>
<path d="M432.136 161.514C432.136 158.671 431.576 156.485 430.455 154.954C429.362 153.396 427.9 152.316 426.068 151.715C424.237 151.114 422.228 150.813 420.041 150.813H410.406V171.518H419.713C421.107 171.518 422.529 171.381 423.977 171.108C425.426 170.835 426.765 170.343 427.995 169.632C429.253 168.921 430.25 167.924 430.988 166.639C431.754 165.327 432.136 163.619 432.136 161.514ZM429.881 135.52C429.881 132.322 428.884 130.053 426.888 128.714C424.92 127.347 422.228 126.664 418.811 126.664H410.406V144.95H419.508C422.843 144.95 425.399 144.212 427.175 142.736C428.979 141.233 429.881 138.827 429.881 135.52ZM439.639 161.268C439.639 164.329 439.024 166.899 437.794 168.976C436.592 171.053 434.965 172.707 432.915 173.937C430.893 175.167 428.624 176.055 426.109 176.602C423.622 177.121 421.08 177.381 418.483 177.381H403.313V120.924H417.212C419.7 120.924 422.119 121.156 424.469 121.621C426.847 122.058 428.979 122.824 430.865 123.917C432.779 124.983 434.309 126.432 435.457 128.263C436.605 130.094 437.179 132.39 437.179 135.151C437.179 137.584 436.674 139.647 435.662 141.342C434.678 143.009 433.38 144.349 431.767 145.36C430.182 146.371 428.487 147.082 426.683 147.492C428.788 147.82 430.824 148.462 432.792 149.419C434.788 150.348 436.428 151.77 437.712 153.683C438.997 155.569 439.639 158.097 439.639 161.268ZM459.697 134.208V164.794C459.697 167.637 460.285 169.687 461.46 170.944C462.636 172.201 464.467 172.83 466.954 172.83C469.332 172.83 471.574 172.16 473.678 170.821C475.81 169.454 477.464 167.842 478.639 165.983V134.208H485.527V177.381H479.664L479.09 171.559C477.396 173.746 475.305 175.427 472.817 176.602C470.33 177.75 467.815 178.324 465.273 178.324C461.091 178.324 457.962 177.217 455.884 175.003C453.834 172.762 452.809 169.632 452.809 165.614V134.208H459.697ZM523.83 134.208V171.928H536.007V177.381H503.617V171.928H516.942V139.661H504.027V134.208H523.83ZM518.336 113.995C519.867 113.995 521.083 114.46 521.985 115.389C522.915 116.318 523.379 117.453 523.379 118.792C523.379 120.186 522.915 121.361 521.985 122.318C521.083 123.247 519.867 123.712 518.336 123.712C516.888 123.712 515.699 123.247 514.769 122.318C513.84 121.361 513.375 120.186 513.375 118.792C513.375 117.453 513.84 116.318 514.769 115.389C515.699 114.46 516.888 113.995 518.336 113.995ZM567.955 116.824V166.721C567.955 168.853 568.611 170.37 569.923 171.272C571.263 172.147 572.985 172.584 575.089 172.584C576.401 172.584 577.645 172.447 578.82 172.174C579.996 171.901 581.171 171.532 582.346 171.067L584.191 176.11C583.016 176.684 581.554 177.19 579.804 177.627C578.082 178.092 576.128 178.324 573.941 178.324C570.115 178.324 567.012 177.272 564.634 175.167C562.256 173.035 561.067 170.097 561.067 166.352V122.277H547.824V116.824H567.955ZM626.143 115.963L633.031 116.824V177.381H627.004L626.348 171.682C624.736 173.978 622.877 175.659 620.772 176.725C618.695 177.791 616.467 178.324 614.089 178.324C610.345 178.324 607.256 177.381 604.823 175.495C602.391 173.609 600.587 170.985 599.411 167.623C598.236 164.234 597.648 160.311 597.648 155.856C597.648 151.537 598.318 147.683 599.657 144.294C600.997 140.877 602.924 138.199 605.438 136.258C607.98 134.29 611.028 133.306 614.581 133.306C617.069 133.306 619.255 133.743 621.141 134.618C623.027 135.465 624.695 136.723 626.143 138.39V115.963ZM616.385 138.841C612.777 138.841 610.003 140.249 608.062 143.064C606.122 145.879 605.151 150.143 605.151 155.856C605.151 159.573 605.548 162.689 606.34 165.204C607.133 167.719 608.295 169.605 609.825 170.862C611.383 172.119 613.283 172.748 615.524 172.748C617.984 172.748 620.075 172.051 621.797 170.657C623.547 169.263 624.995 167.691 626.143 165.942V144.376C624.968 142.627 623.547 141.274 621.879 140.317C620.212 139.333 618.381 138.841 616.385 138.841ZM729.563 167.951C729.563 169.673 729.85 170.93 730.424 171.723C730.998 172.516 731.887 173.103 733.089 173.486L731.408 178.324C729.55 178.078 727.923 177.49 726.529 176.561C725.135 175.604 724.124 174.169 723.495 172.256C721.937 174.251 719.997 175.768 717.673 176.807C715.35 177.818 712.781 178.324 709.965 178.324C705.647 178.324 702.244 177.108 699.756 174.675C697.269 172.242 696.025 169.017 696.025 164.999C696.025 160.544 697.761 157.127 701.232 154.749C704.704 152.371 709.719 151.182 716.279 151.182H722.634V147.574C722.634 144.458 721.719 142.258 719.887 140.973C718.083 139.661 715.569 139.005 712.343 139.005C710.922 139.005 709.255 139.183 707.341 139.538C705.428 139.866 703.351 140.426 701.109 141.219L699.305 136.012C701.957 135.028 704.444 134.331 706.767 133.921C709.091 133.511 711.305 133.306 713.409 133.306C718.794 133.306 722.826 134.563 725.504 137.078C728.21 139.565 729.563 142.955 729.563 147.246V167.951ZM711.728 173.076C713.86 173.076 715.897 172.543 717.837 171.477C719.778 170.384 721.377 168.88 722.634 166.967V155.856H716.402C711.646 155.856 708.284 156.676 706.316 158.316C704.376 159.956 703.405 162.156 703.405 164.917C703.405 167.596 704.089 169.632 705.455 171.026C706.849 172.393 708.94 173.076 711.728 173.076ZM811.663 172.625C814.97 172.625 817.581 172.01 819.494 170.78C821.435 169.523 822.405 167.855 822.405 165.778C822.405 164.466 822.159 163.332 821.667 162.375C821.202 161.418 820.232 160.557 818.756 159.792C817.28 159.027 815.011 158.261 811.95 157.496C808.971 156.758 806.374 155.911 804.16 154.954C801.973 153.97 800.265 152.699 799.035 151.141C797.832 149.583 797.231 147.56 797.231 145.073C797.231 142.64 797.914 140.549 799.281 138.8C800.675 137.023 802.602 135.67 805.062 134.741C807.522 133.784 810.378 133.306 813.631 133.306C817.102 133.306 820.123 133.771 822.692 134.7C825.289 135.602 827.489 136.723 829.293 138.062L826.259 142.736C824.619 141.615 822.815 140.7 820.847 139.989C818.879 139.251 816.501 138.882 813.713 138.882C810.324 138.882 807.918 139.415 806.497 140.481C805.076 141.52 804.365 142.873 804.365 144.54C804.365 145.797 804.707 146.85 805.39 147.697C806.101 148.517 807.29 149.269 808.957 149.952C810.624 150.608 812.92 151.332 815.845 152.125C818.66 152.863 821.107 153.751 823.184 154.79C825.289 155.829 826.929 157.195 828.104 158.89C829.279 160.585 829.867 162.771 829.867 165.45C829.867 168.511 828.992 170.999 827.243 172.912C825.494 174.798 823.225 176.178 820.437 177.053C817.676 177.9 814.752 178.324 811.663 178.324C807.754 178.324 804.42 177.764 801.659 176.643C798.926 175.495 796.63 174.115 794.771 172.502L798.707 167.951C800.402 169.345 802.342 170.479 804.529 171.354C806.743 172.201 809.121 172.625 811.663 172.625ZM868.006 134.208V171.928H880.183V177.381H847.793V171.928H861.118V139.661H848.203V134.208H868.006ZM862.512 113.995C864.043 113.995 865.259 114.46 866.161 115.389C867.09 116.318 867.555 117.453 867.555 118.792C867.555 120.186 867.09 121.361 866.161 122.318C865.259 123.247 864.043 123.712 862.512 123.712C861.063 123.712 859.874 123.247 858.945 122.318C858.016 121.361 857.551 120.186 857.551 118.792C857.551 117.453 858.016 116.318 858.945 115.389C859.874 114.46 861.063 113.995 862.512 113.995ZM923.775 133.306C925.169 133.306 926.495 133.607 927.752 134.208C929.037 134.809 930.089 135.971 930.909 137.693C931.729 139.415 932.139 141.93 932.139 145.237V177.381H925.743V146.344C925.743 143.638 925.579 141.684 925.251 140.481C924.923 139.278 923.98 138.677 922.422 138.677C921.137 138.677 919.853 139.087 918.568 139.907C917.311 140.7 916.081 142.012 914.878 143.843V177.381H908.441V146.344C908.441 143.638 908.277 141.684 907.949 140.481C907.621 139.278 906.678 138.677 905.12 138.677C903.781 138.677 902.482 139.087 901.225 139.907C899.995 140.7 898.779 142.012 897.576 143.843V177.381H891.221V134.208H896.633L897.043 139.21C898.218 137.543 899.53 136.149 900.979 135.028C902.455 133.88 904.273 133.306 906.432 133.306C908.072 133.306 909.616 133.702 911.065 134.495C912.514 135.26 913.58 136.764 914.263 139.005C915.438 137.31 916.764 135.944 918.24 134.905C919.716 133.839 921.561 133.306 923.775 133.306ZM963.8 133.306C967.627 133.306 970.674 134.235 972.943 136.094C975.239 137.953 976.893 140.577 977.904 143.966C978.915 147.328 979.421 151.264 979.421 155.774C979.421 160.12 978.806 164.001 977.576 167.418C976.373 170.807 974.542 173.472 972.082 175.413C969.622 177.354 966.52 178.324 962.775 178.324C958.046 178.324 954.247 176.657 951.377 173.322V193.904L944.489 194.765V134.208H950.352L950.926 140.235C952.511 138.021 954.397 136.313 956.584 135.11C958.798 133.907 961.203 133.306 963.8 133.306ZM962.16 138.841C959.782 138.841 957.677 139.565 955.846 141.014C954.042 142.435 952.552 144.021 951.377 145.77V167.172C952.498 168.839 953.905 170.165 955.6 171.149C957.322 172.106 959.208 172.584 961.258 172.584C964.839 172.584 967.531 171.217 969.335 168.484C971.139 165.751 972.041 161.5 972.041 155.733C972.041 151.961 971.686 148.831 970.975 146.344C970.264 143.829 969.185 141.957 967.736 140.727C966.287 139.47 964.429 138.841 962.16 138.841ZM1010.47 116.824V166.721C1010.47 168.853 1011.12 170.37 1012.44 171.272C1013.77 172.147 1015.5 172.584 1017.6 172.584C1018.91 172.584 1020.16 172.447 1021.33 172.174C1022.51 171.901 1023.68 171.532 1024.86 171.067L1026.7 176.11C1025.53 176.684 1024.07 177.19 1022.32 177.627C1020.59 178.092 1018.64 178.324 1016.45 178.324C1012.63 178.324 1009.52 177.272 1007.15 175.167C1004.77 173.035 1003.58 170.097 1003.58 166.352V122.277H990.336V116.824H1010.47ZM1048.24 158.234C1048.37 161.569 1049.02 164.302 1050.16 166.434C1051.31 168.539 1052.83 170.097 1054.71 171.108C1056.6 172.092 1058.65 172.584 1060.86 172.584C1063.08 172.584 1065.07 172.256 1066.85 171.6C1068.65 170.944 1070.5 169.974 1072.39 168.689L1075.62 173.24C1073.6 174.825 1071.29 176.069 1068.7 176.971C1066.13 177.873 1063.49 178.324 1060.78 178.324C1056.6 178.324 1053.03 177.381 1050.08 175.495C1047.13 173.609 1044.87 170.985 1043.32 167.623C1041.79 164.234 1041.02 160.311 1041.02 155.856C1041.02 151.483 1041.8 147.601 1043.36 144.212C1044.92 140.823 1047.1 138.158 1049.92 136.217C1052.73 134.276 1056.05 133.306 1059.88 133.306C1063.52 133.306 1066.65 134.167 1069.27 135.889C1071.89 137.584 1073.9 140.016 1075.3 143.187C1076.72 146.33 1077.43 150.089 1077.43 154.462C1077.43 155.2 1077.42 155.897 1077.39 156.553C1077.36 157.182 1077.32 157.742 1077.26 158.234H1048.24ZM1059.96 138.964C1056.76 138.964 1054.09 140.098 1051.93 142.367C1049.79 144.636 1048.58 148.148 1048.28 152.904H1070.79C1070.7 148.285 1069.69 144.813 1067.75 142.49C1065.81 140.139 1063.22 138.964 1059.96 138.964ZM1141.16 177.381V134.208H1147.02L1147.56 140.194C1149.31 137.98 1151.49 136.285 1154.12 135.11C1156.77 133.907 1159.34 133.306 1161.82 133.306C1166.06 133.306 1169.14 134.427 1171.05 136.668C1172.99 138.909 1173.96 142.025 1173.96 146.016V177.381H1167.07V151.1C1167.07 148.148 1166.91 145.77 1166.58 143.966C1166.25 142.135 1165.57 140.809 1164.53 139.989C1163.49 139.142 1161.88 138.718 1159.69 138.718C1158 138.718 1156.4 139.087 1154.9 139.825C1153.42 140.563 1152.09 141.492 1150.92 142.613C1149.77 143.706 1148.81 144.813 1148.05 145.934V177.381H1141.16ZM1195.74 158.234C1195.88 161.569 1196.52 164.302 1197.67 166.434C1198.82 168.539 1200.33 170.097 1202.22 171.108C1204.1 172.092 1206.15 172.584 1208.37 172.584C1210.58 172.584 1212.58 172.256 1214.35 171.6C1216.16 170.944 1218 169.974 1219.89 168.689L1223.13 173.24C1221.11 174.825 1218.8 176.069 1216.2 176.971C1213.63 177.873 1210.99 178.324 1208.29 178.324C1204.1 178.324 1200.54 177.381 1197.59 175.495C1194.63 173.609 1192.38 170.985 1190.82 167.623C1189.29 164.234 1188.52 160.311 1188.52 155.856C1188.52 151.483 1189.3 147.601 1190.86 144.212C1192.42 140.823 1194.61 138.158 1197.42 136.217C1200.24 134.276 1203.56 133.306 1207.38 133.306C1211.02 133.306 1214.15 134.167 1216.77 135.889C1219.4 137.584 1221.41 140.016 1222.8 143.187C1224.22 146.33 1224.93 150.089 1224.93 154.462C1224.93 155.2 1224.92 155.897 1224.89 156.553C1224.86 157.182 1224.82 157.742 1224.77 158.234H1195.74ZM1207.47 138.964C1204.27 138.964 1201.59 140.098 1199.43 142.367C1197.3 144.636 1196.08 148.148 1195.78 152.904H1218.29C1218.21 148.285 1217.2 144.813 1215.26 142.49C1213.32 140.139 1210.72 138.964 1207.47 138.964ZM1273.77 175.208C1272.3 176.192 1270.51 176.957 1268.4 177.504C1266.3 178.051 1264.23 178.324 1262.21 178.324C1257.56 178.324 1253.98 177.108 1251.47 174.675C1248.95 172.242 1247.7 169.113 1247.7 165.286V139.538H1237.77V134.208H1247.7V124.409L1254.58 123.589V134.208H1269.51L1268.69 139.538H1254.58V165.204C1254.58 167.609 1255.21 169.441 1256.47 170.698C1257.76 171.955 1259.87 172.584 1262.83 172.584C1264.44 172.584 1265.93 172.393 1267.29 172.01C1268.66 171.627 1269.93 171.135 1271.11 170.534L1273.77 175.208ZM1308.18 172.379C1310.34 172.379 1312.35 172.024 1314.21 171.313C1316.09 170.602 1317.83 169.7 1319.41 168.607L1322.78 173.117C1320.89 174.73 1318.62 176.001 1315.97 176.93C1313.32 177.859 1310.72 178.324 1308.18 178.324C1303.89 178.324 1300.23 177.408 1297.19 175.577C1294.19 173.718 1291.89 171.122 1290.3 167.787C1288.72 164.425 1287.93 160.489 1287.93 155.979C1287.93 151.66 1288.72 147.793 1290.3 144.376C1291.92 140.932 1294.23 138.226 1297.23 136.258C1300.27 134.29 1303.94 133.306 1308.26 133.306C1311.02 133.306 1313.61 133.73 1316.01 134.577C1318.44 135.397 1320.67 136.641 1322.69 138.308L1319.33 142.9C1317.5 141.615 1315.66 140.659 1313.8 140.03C1311.97 139.374 1310.09 139.046 1308.18 139.046C1304.46 139.046 1301.4 140.44 1299 143.228C1296.59 146.016 1295.39 150.266 1295.39 155.979C1295.39 159.806 1295.94 162.935 1297.03 165.368C1298.15 167.773 1299.67 169.55 1301.58 170.698C1303.52 171.819 1305.72 172.379 1308.18 172.379ZM1368.75 167.951C1368.75 169.673 1369.03 170.93 1369.61 171.723C1370.18 172.516 1371.07 173.103 1372.27 173.486L1370.59 178.324C1368.73 178.078 1367.11 177.49 1365.71 176.561C1364.32 175.604 1363.31 174.169 1362.68 172.256C1361.12 174.251 1359.18 175.768 1356.86 176.807C1354.53 177.818 1351.96 178.324 1349.15 178.324C1344.83 178.324 1341.43 177.108 1338.94 174.675C1336.45 172.242 1335.21 169.017 1335.21 164.999C1335.21 160.544 1336.94 157.127 1340.42 154.749C1343.89 152.371 1348.9 151.182 1355.46 151.182H1361.82V147.574C1361.82 144.458 1360.9 142.258 1359.07 140.973C1357.27 139.661 1354.75 139.005 1351.53 139.005C1350.11 139.005 1348.44 139.183 1346.52 139.538C1344.61 139.866 1342.53 140.426 1340.29 141.219L1338.49 136.012C1341.14 135.028 1343.63 134.331 1345.95 133.921C1348.27 133.511 1350.49 133.306 1352.59 133.306C1357.98 133.306 1362.01 134.563 1364.69 137.078C1367.39 139.565 1368.75 142.955 1368.75 147.246V167.951ZM1350.91 173.076C1353.04 173.076 1355.08 172.543 1357.02 171.477C1358.96 170.384 1360.56 168.88 1361.82 166.967V155.856H1355.59C1350.83 155.856 1347.47 156.676 1345.5 158.316C1343.56 159.956 1342.59 162.156 1342.59 164.917C1342.59 167.596 1343.27 169.632 1344.64 171.026C1346.03 172.393 1348.12 173.076 1350.91 173.076ZM1421.28 175.208C1419.8 176.192 1418.01 176.957 1415.91 177.504C1413.8 178.051 1411.74 178.324 1409.71 178.324C1405.07 178.324 1401.49 177.108 1398.97 174.675C1396.46 172.242 1395.2 169.113 1395.2 165.286V139.538H1385.28V134.208H1395.2V124.409L1402.09 123.589V134.208H1417.01L1416.19 139.538H1402.09V165.204C1402.09 167.609 1402.72 169.441 1403.97 170.698C1405.26 171.955 1407.38 172.584 1410.33 172.584C1411.94 172.584 1413.43 172.393 1414.8 172.01C1416.17 171.627 1417.44 171.135 1418.61 170.534L1421.28 175.208ZM1516.25 167.951C1516.25 169.673 1516.54 170.93 1517.11 171.723C1517.69 172.516 1518.57 173.103 1519.78 173.486L1518.1 178.324C1516.24 178.078 1514.61 177.49 1513.22 176.561C1511.82 175.604 1510.81 174.169 1510.18 172.256C1508.62 174.251 1506.68 175.768 1504.36 176.807C1502.04 177.818 1499.47 178.324 1496.65 178.324C1492.33 178.324 1488.93 177.108 1486.44 174.675C1483.96 172.242 1482.71 169.017 1482.71 164.999C1482.71 160.544 1484.45 157.127 1487.92 154.749C1491.39 152.371 1496.41 151.182 1502.97 151.182H1509.32V147.574C1509.32 144.458 1508.41 142.258 1506.57 140.973C1504.77 139.661 1502.26 139.005 1499.03 139.005C1497.61 139.005 1495.94 139.183 1494.03 139.538C1492.12 139.866 1490.04 140.426 1487.8 141.219L1485.99 136.012C1488.64 135.028 1491.13 134.331 1493.45 133.921C1495.78 133.511 1497.99 133.306 1500.1 133.306C1505.48 133.306 1509.51 134.563 1512.19 137.078C1514.9 139.565 1516.25 142.955 1516.25 147.246V167.951ZM1498.42 173.076C1500.55 173.076 1502.58 172.543 1504.52 171.477C1506.47 170.384 1508.06 168.88 1509.32 166.967V155.856H1503.09C1498.33 155.856 1494.97 156.676 1493 158.316C1491.06 159.956 1490.09 162.156 1490.09 164.917C1490.09 167.596 1490.78 169.632 1492.14 171.026C1493.54 172.393 1495.63 173.076 1498.42 173.076ZM1553.82 133.306C1557.64 133.306 1560.69 134.235 1562.96 136.094C1565.25 137.953 1566.91 140.577 1567.92 143.966C1568.93 147.328 1569.44 151.264 1569.44 155.774C1569.44 160.12 1568.82 164.001 1567.59 167.418C1566.39 170.807 1564.56 173.472 1562.1 175.413C1559.64 177.354 1556.54 178.324 1552.79 178.324C1548.06 178.324 1544.26 176.657 1541.39 173.322V193.904L1534.5 194.765V134.208H1540.37L1540.94 140.235C1542.53 138.021 1544.41 136.313 1546.6 135.11C1548.81 133.907 1551.22 133.306 1553.82 133.306ZM1552.18 138.841C1549.8 138.841 1547.69 139.565 1545.86 141.014C1544.06 142.435 1542.57 144.021 1541.39 145.77V167.172C1542.51 168.839 1543.92 170.165 1545.62 171.149C1547.34 172.106 1549.22 172.584 1551.27 172.584C1554.85 172.584 1557.55 171.217 1559.35 168.484C1561.15 165.751 1562.06 161.5 1562.06 155.733C1562.06 151.961 1561.7 148.831 1560.99 146.344C1560.28 143.829 1559.2 141.957 1557.75 140.727C1556.3 139.47 1554.44 138.841 1552.18 138.841ZM1602.98 133.306C1606.81 133.306 1609.86 134.235 1612.13 136.094C1614.42 137.953 1616.08 140.577 1617.09 143.966C1618.1 147.328 1618.6 151.264 1618.6 155.774C1618.6 160.12 1617.99 164.001 1616.76 167.418C1615.56 170.807 1613.73 173.472 1611.27 175.413C1608.81 177.354 1605.7 178.324 1601.96 178.324C1597.23 178.324 1593.43 176.657 1590.56 173.322V193.904L1583.67 194.765V134.208H1589.54L1590.11 140.235C1591.69 138.021 1593.58 136.313 1595.77 135.11C1597.98 133.907 1600.39 133.306 1602.98 133.306ZM1601.34 138.841C1598.97 138.841 1596.86 139.565 1595.03 141.014C1593.23 142.435 1591.74 144.021 1590.56 145.77V167.172C1591.68 168.839 1593.09 170.165 1594.78 171.149C1596.51 172.106 1598.39 172.584 1600.44 172.584C1604.02 172.584 1606.71 171.217 1608.52 168.484C1610.32 165.751 1611.22 161.5 1611.22 155.733C1611.22 151.961 1610.87 148.831 1610.16 146.344C1609.45 143.829 1608.37 141.957 1606.92 140.727C1605.47 139.47 1603.61 138.841 1601.34 138.841Z" fill="url(#paint1_linear_1246_19)"/>
<path d="M868.506 283.848V321.568H880.683V327.021H848.293V321.568H861.618V289.301H848.703V283.848H868.506ZM863.012 263.635C864.543 263.635 865.759 264.1 866.661 265.029C867.59 265.958 868.055 267.093 868.055 268.432C868.055 269.826 867.59 271.001 866.661 271.958C865.759 272.887 864.543 273.352 863.012 273.352C861.563 273.352 860.374 272.887 859.445 271.958C858.516 271.001 858.051 269.826 858.051 268.432C858.051 267.093 858.516 265.958 859.445 265.029C860.374 264.1 861.563 263.635 863.012 263.635ZM895.821 327.021V283.848H901.684L902.217 289.834C903.966 287.62 906.153 285.925 908.777 284.75C911.428 283.547 913.998 282.946 916.485 282.946C920.722 282.946 923.797 284.067 925.71 286.308C927.651 288.549 928.621 291.665 928.621 295.656V327.021H921.733V300.74C921.733 297.788 921.569 295.41 921.241 293.606C920.913 291.775 920.23 290.449 919.191 289.629C918.152 288.782 916.54 288.358 914.353 288.358C912.658 288.358 911.059 288.727 909.556 289.465C908.08 290.203 906.754 291.132 905.579 292.253C904.431 293.346 903.474 294.453 902.709 295.574V327.021H895.821ZM1029.99 286.39C1029.99 289.205 1029.38 291.665 1028.15 293.77C1026.94 295.875 1025.3 297.61 1023.23 298.977C1021.15 300.344 1018.81 301.341 1016.22 301.97L1032.94 327.021H1024.42L1009 302.79H1001.37V327.021H994.239V270.564H1008.75C1015.72 270.564 1021 271.903 1024.58 274.582C1028.19 277.233 1029.99 281.169 1029.99 286.39ZM1022.37 286.39C1022.37 282.755 1021.33 280.158 1019.25 278.6C1017.17 277.015 1013.95 276.222 1009.57 276.222H1001.37V297.214H1009.57C1013.62 297.214 1016.76 296.394 1019 294.754C1021.24 293.087 1022.37 290.299 1022.37 286.39ZM1050.21 283.848V314.434C1050.21 317.277 1050.8 319.327 1051.98 320.584C1053.15 321.841 1054.98 322.47 1057.47 322.47C1059.85 322.47 1062.09 321.8 1064.19 320.461C1066.33 319.094 1067.98 317.482 1069.15 315.623V283.848H1076.04V327.021H1070.18L1069.61 321.199C1067.91 323.386 1065.82 325.067 1063.33 326.242C1060.85 327.39 1058.33 327.964 1055.79 327.964C1051.61 327.964 1048.48 326.857 1046.4 324.643C1044.35 322.402 1043.32 319.272 1043.32 315.254V283.848H1050.21ZM1107.17 322.265C1110.48 322.265 1113.09 321.65 1115 320.42C1116.94 319.163 1117.91 317.495 1117.91 315.418C1117.91 314.106 1117.67 312.972 1117.17 312.015C1116.71 311.058 1115.74 310.197 1114.26 309.432C1112.79 308.667 1110.52 307.901 1107.46 307.136C1104.48 306.398 1101.88 305.551 1099.67 304.594C1097.48 303.61 1095.77 302.339 1094.54 300.781C1093.34 299.223 1092.74 297.2 1092.74 294.713C1092.74 292.28 1093.42 290.189 1094.79 288.44C1096.18 286.663 1098.11 285.31 1100.57 284.381C1103.03 283.424 1105.89 282.946 1109.14 282.946C1112.61 282.946 1115.63 283.411 1118.2 284.34C1120.8 285.242 1123 286.363 1124.8 287.702L1121.77 292.376C1120.13 291.255 1118.32 290.34 1116.35 289.629C1114.39 288.891 1112.01 288.522 1109.22 288.522C1105.83 288.522 1103.43 289.055 1102 290.121C1100.58 291.16 1099.87 292.513 1099.87 294.18C1099.87 295.437 1100.21 296.49 1100.9 297.337C1101.61 298.157 1102.8 298.909 1104.46 299.592C1106.13 300.248 1108.43 300.972 1111.35 301.765C1114.17 302.503 1116.61 303.391 1118.69 304.43C1120.8 305.469 1122.44 306.835 1123.61 308.53C1124.79 310.225 1125.37 312.411 1125.37 315.09C1125.37 318.151 1124.5 320.639 1122.75 322.552C1121 324.438 1118.73 325.818 1115.94 326.693C1113.18 327.54 1110.26 327.964 1107.17 327.964C1103.26 327.964 1099.93 327.404 1097.17 326.283C1094.43 325.135 1092.14 323.755 1090.28 322.142L1094.21 317.591C1095.91 318.985 1097.85 320.119 1100.04 320.994C1102.25 321.841 1104.63 322.265 1107.17 322.265ZM1175.94 324.848C1174.46 325.832 1172.67 326.597 1170.57 327.144C1168.46 327.691 1166.4 327.964 1164.37 327.964C1159.73 327.964 1156.15 326.748 1153.63 324.315C1151.12 321.882 1149.86 318.753 1149.86 314.926V289.178H1139.94V283.848H1149.86V274.049L1156.75 273.229V283.848H1171.67L1170.85 289.178H1156.75V314.844C1156.75 317.249 1157.38 319.081 1158.63 320.338C1159.92 321.595 1162.04 322.224 1164.99 322.224C1166.6 322.224 1168.09 322.033 1169.46 321.65C1170.83 321.267 1172.1 320.775 1173.27 320.174L1175.94 324.848Z" fill="url(#paint2_linear_1246_19)"/>
<path d="M1671.21 716.975L1655.99 707.545C1655.86 706.061 1655.71 704.581 1655.56 703.107L1668.66 690.903C1669.99 689.662 1670.59 687.824 1670.23 686.049C1669.88 684.264 1668.63 682.794 1666.92 682.166L1650.18 675.925C1649.76 674.476 1649.32 673.037 1648.87 671.592L1659.3 657.099C1660.37 655.626 1660.59 653.709 1659.89 652.037C1659.2 650.363 1657.68 649.163 1655.91 648.869L1638.26 645.998C1637.57 644.66 1636.86 643.342 1636.14 642.045L1643.56 625.75C1644.32 624.093 1644.16 622.179 1643.15 620.654C1642.14 619.142 1640.43 618.258 1638.6 618.327L1620.68 618.951C1619.75 617.793 1618.81 616.646 1617.85 615.519L1621.98 598.08C1622.39 596.308 1621.87 594.439 1620.58 593.157C1619.3 591.874 1617.44 591.343 1615.66 591.759L1598.22 595.885C1597.09 594.928 1595.94 593.982 1594.78 593.056L1595.41 575.132C1595.47 573.318 1594.59 571.595 1593.08 570.59C1591.56 569.577 1589.65 569.425 1587.98 570.177L1571.72 577.597C1570.41 576.875 1569.09 576.161 1567.77 575.471L1564.89 557.824C1564.6 556.035 1563.4 554.516 1561.72 553.837C1560.05 553.14 1558.12 553.365 1556.66 554.426L1542.17 564.862C1540.74 564.408 1539.3 563.971 1537.87 563.555L1531.63 546.809C1530.99 545.103 1529.52 543.852 1527.75 543.498C1525.96 543.148 1524.14 543.741 1522.89 545.065L1510.69 558.171C1509.21 558.008 1507.73 557.859 1506.25 557.737L1496.82 542.482C1495.87 540.94 1494.18 540 1492.35 540C1490.52 540 1488.85 540.94 1487.91 542.482L1478.48 557.737C1477 557.859 1475.51 558.008 1474.04 558.171L1461.84 545.065C1460.6 543.741 1458.76 543.148 1456.98 543.498C1455.2 543.855 1453.73 545.103 1453.1 546.809L1446.86 563.555C1445.41 563.971 1443.98 564.411 1442.56 564.862L1428.07 554.426C1426.59 553.362 1424.67 553.137 1423.01 553.837C1421.33 554.53 1420.13 556.049 1419.84 557.824L1416.96 575.471C1415.63 576.161 1414.31 576.872 1413.01 577.597L1396.75 570.177C1395.09 569.421 1393.18 569.577 1391.65 570.59C1390.14 571.595 1389.25 573.318 1389.32 575.132L1389.95 593.056C1388.79 593.982 1387.64 594.928 1386.51 595.885L1369.07 591.759C1367.3 591.347 1365.43 591.874 1364.15 593.157C1362.86 594.443 1362.33 596.298 1362.75 598.08L1366.84 615.519C1365.89 616.649 1364.94 617.793 1364.02 618.951L1346.09 618.327C1344.29 618.275 1342.56 619.142 1341.55 620.654C1340.54 622.158 1340.39 624.086 1341.14 625.75L1348.56 642.045C1347.84 643.353 1347.12 644.67 1346.43 645.998L1328.79 648.869C1326.99 649.16 1325.48 650.359 1324.8 652.037C1324.1 653.719 1324.33 655.643 1325.39 657.099L1335.82 671.592C1335.37 673.024 1334.93 674.462 1334.51 675.925L1317.77 682.166C1316.07 682.801 1314.82 684.271 1314.46 686.049C1314.11 687.831 1314.7 689.655 1316.03 690.903L1329.14 703.107C1328.97 704.581 1328.83 706.064 1328.7 707.545L1313.48 716.975C1311.94 717.929 1311 719.614 1311 721.448C1311 723.282 1311.94 724.949 1313.48 725.886L1328.7 735.316C1328.83 736.8 1328.97 738.28 1329.14 739.754L1316.03 751.958C1314.7 753.195 1314.11 755.033 1314.46 756.812C1314.82 758.597 1316.07 760.064 1317.77 760.695L1334.51 766.935C1334.93 768.385 1335.37 769.823 1335.82 771.269L1325.39 785.761C1324.33 787.238 1324.1 789.156 1324.8 790.823C1325.5 792.505 1327.01 793.704 1328.82 793.992L1346.47 796.863C1347.16 798.201 1347.87 799.519 1348.59 800.815L1341.17 817.076C1340.42 818.73 1340.57 820.647 1341.59 822.172C1342.6 823.687 1344.32 824.571 1346.13 824.499L1364.02 823.871C1364.95 825.036 1365.89 826.177 1366.85 827.31L1362.76 844.75C1362.34 846.518 1362.86 848.355 1364.15 849.638C1365.43 850.931 1367.29 851.448 1369.08 851.032L1386.52 846.941C1387.65 847.905 1388.8 848.841 1389.95 849.763L1389.33 867.688C1389.26 869.501 1390.15 871.224 1391.66 872.229C1393.16 873.238 1395.09 873.391 1396.75 872.635L1413.01 865.216C1414.33 865.944 1415.64 866.651 1416.97 867.341L1419.84 884.988C1420.14 886.784 1421.33 888.303 1423.01 889.01C1424.69 889.707 1426.62 889.482 1428.07 888.424L1442.57 877.988C1444 878.442 1445.44 878.886 1446.9 879.302L1453.14 896.048C1453.78 897.747 1455.25 899.005 1457.03 899.352C1458.81 899.713 1460.63 899.116 1461.88 897.785L1474.08 884.68C1475.56 884.85 1477.04 884.992 1478.52 885.123L1487.95 900.344C1488.9 901.88 1490.59 902.826 1492.39 902.826C1494.19 902.826 1495.89 901.883 1496.86 900.344L1506.29 885.123C1507.78 884.992 1509.26 884.85 1510.73 884.68L1522.93 897.785C1524.17 899.116 1526.01 899.713 1527.79 899.352C1529.57 899.002 1531.04 897.747 1531.67 896.048L1537.91 879.302C1539.36 878.886 1540.8 878.442 1542.24 877.988L1556.74 888.424C1558.21 889.482 1560.13 889.707 1561.8 889.01C1563.48 888.32 1564.68 886.798 1564.97 884.988L1567.85 867.341C1569.18 866.651 1570.49 865.933 1571.8 865.216L1588.06 872.635C1589.71 873.391 1591.63 873.238 1593.16 872.229C1594.67 871.217 1595.55 869.501 1595.48 867.688L1594.86 849.763C1596.02 848.837 1597.16 847.905 1598.29 846.941L1615.73 851.032C1617.5 851.448 1619.37 850.931 1620.66 849.638C1621.95 848.352 1622.47 846.504 1622.05 844.75L1617.96 827.31C1618.92 826.177 1619.86 825.036 1620.78 823.871L1638.71 824.499C1640.52 824.571 1642.24 823.687 1643.25 822.172C1644.26 820.661 1644.42 818.736 1643.66 817.076L1636.24 800.815C1636.96 799.501 1637.68 798.184 1638.36 796.863L1656.01 793.992C1657.81 793.704 1659.32 792.505 1660 790.823C1660.69 789.149 1660.47 787.218 1659.41 785.761L1648.97 771.269C1649.42 769.837 1649.86 768.398 1650.28 766.935L1667.03 760.695C1668.73 760.057 1669.99 758.59 1670.33 756.812C1670.69 755.03 1670.1 753.206 1668.76 751.958L1655.66 739.754C1655.82 738.28 1655.96 736.796 1656.09 735.316L1671.31 725.886C1672.85 724.936 1673.8 723.247 1673.8 721.448C1673.8 719.648 1672.86 717.946 1671.32 716.975H1671.21ZM1569.28 843.522C1563.45 842.267 1559.78 836.519 1561.03 830.694C1562.27 824.87 1567.99 821.16 1573.82 822.408C1579.64 823.653 1583.35 829.411 1582.11 835.236C1580.86 841.061 1575.14 844.77 1569.31 843.522H1569.28ZM1564.11 808.505C1558.81 807.368 1553.57 810.745 1552.46 816.063L1547.05 841.303C1530.38 848.862 1511.69 853.091 1492.27 853.091C1472.3 853.091 1453.44 848.688 1436.45 840.783L1431.05 815.543C1429.91 810.239 1424.7 806.841 1419.4 807.985L1397.1 812.77C1392.98 808.505 1389.13 803.963 1385.59 799.179H1494.11C1495.34 799.179 1496.16 798.957 1496.16 797.841V759.356C1496.16 758.24 1495.34 758.018 1494.11 758.018H1462.39V733.714H1496.68C1499.81 733.714 1513.42 734.609 1517.76 752.02C1519.12 757.359 1522.13 774.764 1524.17 780.346C1526.21 786.587 1534.5 799.068 1543.34 799.068H1597.43C1598.04 799.068 1598.7 798.999 1599.39 798.874C1595.64 803.97 1591.52 808.79 1587.11 813.297L1564.3 808.408L1564.11 808.505ZM1413.99 843.002C1408.16 844.257 1402.44 840.548 1401.19 834.716C1399.95 828.891 1403.65 823.136 1409.48 821.888C1415.31 820.643 1421.03 824.353 1422.28 830.174C1423.52 835.999 1419.82 841.754 1413.99 843.002ZM1372.73 676.237C1375.14 681.681 1372.69 688.06 1367.25 690.487C1361.81 692.904 1355.46 690.445 1353.04 685.009C1350.61 679.573 1353.08 673.186 1358.52 670.76C1363.96 668.346 1370.3 670.801 1372.73 676.237ZM1360.08 706.193L1383.31 695.861C1388.26 693.659 1390.52 687.852 1388.3 682.894L1383.51 672.077H1402.31V756.673H1364.51C1361.22 745.093 1359.45 732.889 1359.45 720.269C1359.45 715.45 1359.71 710.7 1360.21 706.019L1360.08 706.193ZM1462.01 697.976V673.013H1506.73C1509.04 673.013 1523.06 675.686 1523.06 686.153C1523.06 694.855 1512.31 697.976 1503.47 697.976H1461.87H1462.01ZM1624.61 720.442C1624.61 723.757 1624.49 727.03 1624.25 730.289H1610.62C1609.26 730.289 1608.71 731.183 1608.71 732.518V738.759C1608.71 753.459 1600.43 756.683 1593.15 757.481C1586.21 758.261 1578.55 754.582 1577.61 750.339C1573.52 727.352 1566.73 722.464 1555.98 713.935C1569.33 705.475 1583.19 692.959 1583.19 676.144C1583.19 658.081 1570.82 646.709 1562.39 641.127C1550.53 633.326 1537.43 631.766 1533.89 631.766H1393.13C1412.23 610.478 1438.2 595.362 1467.33 589.814L1483.93 607.219C1487.68 611.137 1493.88 611.31 1497.84 607.538L1516.42 589.787C1555.25 597.033 1588.19 621.233 1607.26 654.62L1594.53 683.328C1592.34 688.285 1594.58 694.11 1599.52 696.294L1624 707.181C1624.42 711.515 1624.65 715.918 1624.65 720.356L1624.61 720.442ZM1483.85 575.173C1488.15 571.047 1494.98 571.221 1499.07 575.523C1503.16 579.822 1503.02 586.652 1498.71 590.778C1494.41 594.904 1487.58 594.731 1483.49 590.425C1479.4 586.126 1479.54 579.295 1483.85 575.17V575.173ZM1610.05 676.758C1612.46 671.314 1618.82 668.853 1624.27 671.28C1629.71 673.693 1632.17 680.086 1629.74 685.529C1627.33 690.972 1620.97 693.434 1615.53 691.007C1610.08 688.594 1607.62 682.201 1610.05 676.758Z" fill="url(#paint3_linear_1246_19)"/>
<path d="M426.035 589.08C449.435 592.72 473.355 592.72 496.755 589.08C487.915 571.92 476.475 561 461.395 561C444.235 561 433.315 575.04 426.035 589.08Z" fill="url(#paint4_linear_1246_19)"/>
<path d="M399 680.6H347C348.56 712.32 363.12 740.92 385.48 760.68C394.32 757.56 402.64 755.48 411.48 753.4C403.68 732.6 399.52 706.08 399 680.6Z" fill="url(#paint5_linear_1246_19)"/>
<path d="M399 670.2C399.52 642.64 403.68 617.16 411.48 596.88C402.64 594.8 394.32 592.72 385.48 589.6C363.12 609.88 348.56 638.48 347 670.2H399Z" fill="url(#paint6_linear_1246_19)"/>
<path d="M493.129 565.68C498.329 571.4 503.529 579.2 507.169 587.52C513.929 585.96 520.689 584.4 527.449 582.32C517.049 574.52 505.609 569.32 493.129 565.68Z" fill="url(#paint7_linear_1246_19)"/>
<path d="M461.398 602.6C448.398 602.6 434.878 601.56 421.878 598.96C414.078 618.2 409.918 643.16 409.398 670.2H513.398C512.878 644.2 508.718 618.72 500.918 598.96C487.918 601.56 474.398 602.6 461.398 602.6Z" fill="url(#paint8_linear_1246_19)"/>
<path d="M537.328 590.121C528.488 593.241 520.168 595.321 511.328 597.401C519.128 618.201 523.288 644.721 523.808 670.201H575.808C574.248 638.481 559.688 609.881 537.328 590.121Z" fill="url(#paint9_linear_1246_19)"/>
<path d="M415.643 763.8C408.883 765.36 402.123 766.92 395.363 769C405.763 776.28 417.203 782 429.683 785.64C424.483 779.4 419.803 772.12 415.643 763.8Z" fill="url(#paint10_linear_1246_19)"/>
<path d="M415.643 587C419.803 578.68 424.483 571.4 429.683 565.68C417.203 569.32 405.763 575.04 395.363 582.32C402.123 583.88 408.883 585.96 415.643 587Z" fill="url(#paint11_linear_1246_19)"/>
<path d="M482.195 759.64C463.475 758.08 444.755 758.6 426.035 761.72C434.355 778.88 446.315 789.8 461.395 789.8C469.715 789.8 476.475 786.68 482.195 781.48V759.64Z" fill="url(#paint12_linear_1246_19)"/>
<path d="M482.198 696.2H512.358C512.878 691 512.878 685.8 512.878 680.6H409.398C409.918 706.6 414.078 732.08 421.878 751.84C442.158 748.2 461.918 747.68 482.198 749.24V696.2Z" fill="url(#paint13_linear_1246_19)"/>
<path d="M573.713 696.2C574.753 691 575.273 685.8 575.273 680.6H523.793C523.793 685.8 523.273 691 523.273 696.2H573.713Z" fill="url(#paint14_linear_1246_19)"/>
<path d="M492.602 706.6V769H659.002V706.6H492.602ZM513.402 758.6H503.002V717H513.402V758.6ZM534.202 758.6H523.802V717H534.202V758.6ZM555.002 758.6H544.602V717H555.002V758.6ZM607.002 727.4H596.602V717H607.002V727.4ZM627.802 727.4H617.402V717H627.802V727.4ZM648.602 727.4H638.202V717H648.602V727.4Z" fill="url(#paint15_linear_1246_19)"/>
<path d="M659 841.8V779.4H492.6V841.8H570.6V862.6H347V873H659V862.6H581V841.8H659ZM638.2 789.8H648.6V800.2H638.2V789.8ZM617.4 789.8H627.8V800.2H617.4V789.8ZM596.6 789.8H607V800.2H596.6V789.8ZM513.4 831.4H503V789.8H513.4V831.4ZM534.2 831.4H523.8V789.8H534.2V831.4ZM555 831.4H544.6V789.8H555V831.4Z" fill="url(#paint16_linear_1246_19)"/>
</g>
<defs>
<linearGradient id="paint0_linear_1246_19" x1="960" y1="0" x2="960" y2="1080" gradientUnits="userSpaceOnUse">
<stop stop-color="#323232"/>
<stop offset="1"/>
</linearGradient>
<linearGradient id="paint1_linear_1246_19" x1="398.171" y1="204.651" x2="1640.47" y2="204.651" gradientUnits="userSpaceOnUse">
<stop stop-color="#0095D5"/>
<stop offset="0.464053" stop-color="#7272E1"/>
<stop offset="1" stop-color="#7E6EE3"/>
</linearGradient>
<linearGradient id="paint2_linear_1246_19" x1="1010.5" y1="246.021" x2="1010.5" y2="354.021" gradientUnits="userSpaceOnUse">
<stop stop-color="#B32BD5"/>
<stop offset="1" stop-color="#DA3C8E"/>
</linearGradient>
<linearGradient id="paint3_linear_1246_19" x1="1492.4" y1="540" x2="1492.4" y2="902.826" gradientUnits="userSpaceOnUse">
<stop stop-color="#B32BD5"/>
<stop offset="1" stop-color="#DA3C8E"/>
</linearGradient>
<linearGradient id="paint4_linear_1246_19" x1="426.217" y1="591.887" x2="497.645" y2="591.887" gradientUnits="userSpaceOnUse">
<stop stop-color="#0095D5"/>
<stop offset="0.464053" stop-color="#7272E1"/>
<stop offset="1" stop-color="#7E6EE3"/>
</linearGradient>
<linearGradient id="paint5_linear_1246_19" x1="347.166" y1="760.88" x2="412.291" y2="760.88" gradientUnits="userSpaceOnUse">
<stop stop-color="#0095D5"/>
<stop offset="0.464053" stop-color="#7272E1"/>
<stop offset="1" stop-color="#7E6EE3"/>
</linearGradient>
<linearGradient id="paint6_linear_1246_19" x1="347.166" y1="670.402" x2="412.291" y2="670.402" gradientUnits="userSpaceOnUse">
<stop stop-color="#0095D5"/>
<stop offset="0.464053" stop-color="#7272E1"/>
<stop offset="1" stop-color="#7E6EE3"/>
</linearGradient>
<linearGradient id="paint7_linear_1246_19" x1="493.217" y1="587.574" x2="527.881" y2="587.574" gradientUnits="userSpaceOnUse">
<stop stop-color="#0095D5"/>
<stop offset="0.464053" stop-color="#7272E1"/>
<stop offset="1" stop-color="#7E6EE3"/>
</linearGradient>
<linearGradient id="paint8_linear_1246_19" x1="409.667" y1="670.378" x2="514.707" y2="670.378" gradientUnits="userSpaceOnUse">
<stop stop-color="#0095D5"/>
<stop offset="0.464053" stop-color="#7272E1"/>
<stop offset="1" stop-color="#7E6EE3"/>
</linearGradient>
<linearGradient id="paint9_linear_1246_19" x1="511.494" y1="670.401" x2="576.619" y2="670.401" gradientUnits="userSpaceOnUse">
<stop stop-color="#0095D5"/>
<stop offset="0.464053" stop-color="#7272E1"/>
<stop offset="1" stop-color="#7E6EE3"/>
</linearGradient>
<linearGradient id="paint10_linear_1246_19" x1="395.452" y1="785.694" x2="430.115" y2="785.694" gradientUnits="userSpaceOnUse">
<stop stop-color="#0095D5"/>
<stop offset="0.464053" stop-color="#7272E1"/>
<stop offset="1" stop-color="#7E6EE3"/>
</linearGradient>
<linearGradient id="paint11_linear_1246_19" x1="395.452" y1="587.053" x2="430.115" y2="587.053" gradientUnits="userSpaceOnUse">
<stop stop-color="#0095D5"/>
<stop offset="0.464053" stop-color="#7272E1"/>
<stop offset="1" stop-color="#7E6EE3"/>
</linearGradient>
<linearGradient id="paint12_linear_1246_19" x1="426.18" y1="789.877" x2="482.902" y2="789.877" gradientUnits="userSpaceOnUse">
<stop stop-color="#0095D5"/>
<stop offset="0.464053" stop-color="#7272E1"/>
<stop offset="1" stop-color="#7E6EE3"/>
</linearGradient>
<linearGradient id="paint13_linear_1246_19" x1="409.665" y1="752.018" x2="514.18" y2="752.018" gradientUnits="userSpaceOnUse">
<stop stop-color="#0095D5"/>
<stop offset="0.464053" stop-color="#7272E1"/>
<stop offset="1" stop-color="#7E6EE3"/>
</linearGradient>
<linearGradient id="paint14_linear_1246_19" x1="523.408" y1="696.239" x2="575.927" y2="696.239" gradientUnits="userSpaceOnUse">
<stop stop-color="#0095D5"/>
<stop offset="0.464053" stop-color="#7272E1"/>
<stop offset="1" stop-color="#7E6EE3"/>
</linearGradient>
<linearGradient id="paint15_linear_1246_19" x1="493.031" y1="769.156" x2="661.095" y2="769.156" gradientUnits="userSpaceOnUse">
<stop stop-color="#0095D5"/>
<stop offset="0.464053" stop-color="#7272E1"/>
<stop offset="1" stop-color="#7E6EE3"/>
</linearGradient>
<linearGradient id="paint16_linear_1246_19" x1="347.804" y1="873.234" x2="662.924" y2="873.234" gradientUnits="userSpaceOnUse">
<stop stop-color="#0095D5"/>
<stop offset="0.464053" stop-color="#7272E1"/>
<stop offset="1" stop-color="#7E6EE3"/>
</linearGradient>
<clipPath id="clip0_1246_19">
<rect width="1920" height="1080" fill="white"/>
</clipPath>
</defs>
</svg>
