<svg width="1920" height="1080" viewBox="0 0 1920 1080" fill="none" xmlns="http://www.w3.org/2000/svg">
<g clip-path="url(#clip0_890_2)">
<path d="M1920 0H0V1080H1920V0Z" fill="url(#paint0_linear_890_2)" fill-opacity="0.5"/>
<path d="M692.031 178.324C687.576 178.324 683.695 177.244 680.387 175.085C677.107 172.926 674.565 169.687 672.761 165.368C670.957 161.049 670.055 155.637 670.055 149.132C670.055 144.267 670.698 140.016 671.982 136.381C673.294 132.746 675.057 129.712 677.271 127.279C679.513 124.846 682.041 123.029 684.856 121.826C687.699 120.623 690.637 120.022 693.671 120.022C697.361 120.022 700.423 120.555 702.855 121.621C705.288 122.66 707.611 124.19 709.825 126.213L705.52 130.682C703.798 129.069 701.981 127.88 700.067 127.115C698.181 126.35 696.063 125.967 693.712 125.967C691.662 125.967 689.681 126.363 687.767 127.156C685.854 127.949 684.132 129.247 682.601 131.051C681.098 132.828 679.895 135.192 678.993 138.144C678.119 141.096 677.681 144.759 677.681 149.132C677.681 154.571 678.242 158.999 679.362 162.416C680.51 165.833 682.191 168.347 684.405 169.96C686.647 171.545 689.407 172.338 692.687 172.338C694.655 172.338 696.514 172.106 698.263 171.641C700.04 171.176 701.762 170.507 703.429 169.632V152.412H692.318L691.457 146.508H710.481V173.404C707.939 174.771 705.233 175.932 702.363 176.889C699.493 177.846 696.049 178.324 692.031 178.324ZM730.621 134.208V164.794C730.621 167.637 731.209 169.687 732.384 170.944C733.56 172.201 735.391 172.83 737.878 172.83C740.256 172.83 742.498 172.16 744.602 170.821C746.734 169.454 748.388 167.842 749.563 165.983V134.208H756.451V177.381H750.588L750.014 171.559C748.32 173.746 746.229 175.427 743.741 176.602C741.254 177.75 738.739 178.324 736.197 178.324C732.015 178.324 728.886 177.217 726.808 175.003C724.758 172.762 723.733 169.632 723.733 165.614V134.208H730.621ZM794.754 134.208V171.928H806.931V177.381H774.541V171.928H787.866V139.661H774.951V134.208H794.754ZM789.26 113.995C790.791 113.995 792.007 114.46 792.909 115.389C793.838 116.318 794.303 117.453 794.303 118.792C794.303 120.186 793.838 121.361 792.909 122.318C792.007 123.247 790.791 123.712 789.26 123.712C787.811 123.712 786.622 123.247 785.693 122.318C784.764 121.361 784.299 120.186 784.299 118.792C784.299 117.453 784.764 116.318 785.693 115.389C786.622 114.46 787.811 113.995 789.26 113.995ZM847.899 115.963L854.787 116.824V177.381H848.76L848.104 171.682C846.491 173.978 844.633 175.659 842.528 176.725C840.451 177.791 838.223 178.324 835.845 178.324C832.1 178.324 829.012 177.381 826.579 175.495C824.146 173.609 822.342 170.985 821.167 167.623C819.992 164.234 819.404 160.311 819.404 155.856C819.404 151.537 820.074 147.683 821.413 144.294C822.752 140.877 824.679 138.199 827.194 136.258C829.736 134.29 832.784 133.306 836.337 133.306C838.824 133.306 841.011 133.743 842.897 134.618C844.783 135.465 846.45 136.723 847.899 138.39V115.963ZM838.141 138.841C834.533 138.841 831.759 140.249 829.818 143.064C827.877 145.879 826.907 150.143 826.907 155.856C826.907 159.573 827.303 162.689 828.096 165.204C828.889 167.719 830.05 169.605 831.581 170.862C833.139 172.119 835.039 172.748 837.28 172.748C839.74 172.748 841.831 172.051 843.553 170.657C845.302 169.263 846.751 167.691 847.899 165.942V144.376C846.724 142.627 845.302 141.274 843.635 140.317C841.968 139.333 840.136 138.841 838.141 138.841ZM876.649 158.234C876.786 161.569 877.428 164.302 878.576 166.434C879.724 168.539 881.241 170.097 883.127 171.108C885.013 172.092 887.063 172.584 889.277 172.584C891.491 172.584 893.486 172.256 895.263 171.6C897.067 170.944 898.912 169.974 900.798 168.689L904.037 173.24C902.014 174.825 899.705 176.069 897.108 176.971C894.539 177.873 891.901 178.324 889.195 178.324C885.013 178.324 881.446 177.381 878.494 175.495C875.542 173.609 873.287 170.985 871.729 167.623C870.198 164.234 869.433 160.311 869.433 155.856C869.433 151.483 870.212 147.601 871.77 144.212C873.328 140.823 875.515 138.158 878.33 136.217C881.145 134.276 884.466 133.306 888.293 133.306C891.928 133.306 895.058 134.167 897.682 135.889C900.306 137.584 902.315 140.016 903.709 143.187C905.13 146.33 905.841 150.089 905.841 154.462C905.841 155.2 905.827 155.897 905.8 156.553C905.773 157.182 905.732 157.742 905.677 158.234H876.649ZM888.375 138.964C885.177 138.964 882.498 140.098 880.339 142.367C878.207 144.636 876.991 148.148 876.69 152.904H899.199C899.117 148.285 898.106 144.813 896.165 142.49C894.224 140.139 891.628 138.964 888.375 138.964ZM1003.85 175.208C1002.37 176.192 1000.58 176.957 998.478 177.504C996.373 178.051 994.31 178.324 992.287 178.324C987.64 178.324 984.06 177.108 981.545 174.675C979.03 172.242 977.773 169.113 977.773 165.286V139.538H967.851V134.208H977.773V124.409L984.661 123.589V134.208H999.585L998.765 139.538H984.661V165.204C984.661 167.609 985.29 169.441 986.547 170.698C987.832 171.955 989.95 172.584 992.902 172.584C994.515 172.584 996.004 172.393 997.371 172.01C998.738 171.627 1000.01 171.135 1001.18 170.534L1003.85 175.208ZM1035.18 133.306C1039.25 133.306 1042.66 134.235 1045.39 136.094C1048.15 137.925 1050.22 140.522 1051.58 143.884C1052.98 147.246 1053.67 151.209 1053.67 155.774C1053.67 160.175 1052.96 164.07 1051.54 167.459C1050.12 170.848 1048.03 173.513 1045.27 175.454C1042.53 177.367 1039.15 178.324 1035.1 178.324C1031.05 178.324 1027.65 177.395 1024.89 175.536C1022.13 173.677 1020.04 171.067 1018.62 167.705C1017.22 164.316 1016.53 160.366 1016.53 155.856C1016.53 151.401 1017.24 147.478 1018.66 144.089C1020.08 140.7 1022.17 138.062 1024.93 136.176C1027.72 134.263 1031.14 133.306 1035.18 133.306ZM1035.18 138.923C1031.46 138.923 1028.65 140.303 1026.74 143.064C1024.85 145.797 1023.91 150.061 1023.91 155.856C1023.91 161.541 1024.84 165.764 1026.7 168.525C1028.58 171.286 1031.38 172.666 1035.1 172.666C1038.82 172.666 1041.61 171.286 1043.46 168.525C1045.35 165.764 1046.29 161.514 1046.29 155.774C1046.29 150.034 1045.36 145.797 1043.51 143.064C1041.65 140.303 1038.87 138.923 1035.18 138.923ZM1123.96 134.208V164.794C1123.96 167.637 1124.55 169.687 1125.73 170.944C1126.9 172.201 1128.73 172.83 1131.22 172.83C1133.6 172.83 1135.84 172.16 1137.95 170.821C1140.08 169.454 1141.73 167.842 1142.91 165.983V134.208H1149.79V177.381H1143.93L1143.36 171.559C1141.66 173.746 1139.57 175.427 1137.08 176.602C1134.6 177.75 1132.08 178.324 1129.54 178.324C1125.36 178.324 1122.23 177.217 1120.15 175.003C1118.1 172.762 1117.08 169.632 1117.08 165.614V134.208H1123.96ZM1180.92 172.625C1184.23 172.625 1186.84 172.01 1188.75 170.78C1190.69 169.523 1191.66 167.855 1191.66 165.778C1191.66 164.466 1191.42 163.332 1190.93 162.375C1190.46 161.418 1189.49 160.557 1188.02 159.792C1186.54 159.027 1184.27 158.261 1181.21 157.496C1178.23 156.758 1175.63 155.911 1173.42 154.954C1171.23 153.97 1169.52 152.699 1168.29 151.141C1167.09 149.583 1166.49 147.56 1166.49 145.073C1166.49 142.64 1167.17 140.549 1168.54 138.8C1169.93 137.023 1171.86 135.67 1174.32 134.741C1176.78 133.784 1179.64 133.306 1182.89 133.306C1186.36 133.306 1189.38 133.771 1191.95 134.7C1194.55 135.602 1196.75 136.723 1198.55 138.062L1195.52 142.736C1193.88 141.615 1192.07 140.7 1190.11 139.989C1188.14 139.251 1185.76 138.882 1182.97 138.882C1179.58 138.882 1177.18 139.415 1175.76 140.481C1174.34 141.52 1173.62 142.873 1173.62 144.54C1173.62 145.797 1173.97 146.85 1174.65 147.697C1175.36 148.517 1176.55 149.269 1178.22 149.952C1179.88 150.608 1182.18 151.332 1185.1 152.125C1187.92 152.863 1190.37 153.751 1192.44 154.79C1194.55 155.829 1196.19 157.195 1197.36 158.89C1198.54 160.585 1199.13 162.771 1199.13 165.45C1199.13 168.511 1198.25 170.999 1196.5 172.912C1194.75 174.798 1192.48 176.178 1189.7 177.053C1186.94 177.9 1184.01 178.324 1180.92 178.324C1177.01 178.324 1173.68 177.764 1170.92 176.643C1168.19 175.495 1165.89 174.115 1164.03 172.502L1167.97 167.951C1169.66 169.345 1171.6 170.479 1173.79 171.354C1176 172.201 1178.38 172.625 1180.92 172.625ZM1237.27 134.208V171.928H1249.44V177.381H1217.05V171.928H1230.38V139.661H1217.46V134.208H1237.27ZM1231.77 113.995C1233.3 113.995 1234.52 114.46 1235.42 115.389C1236.35 116.318 1236.81 117.453 1236.81 118.792C1236.81 120.186 1236.35 121.361 1235.42 122.318C1234.52 123.247 1233.3 123.712 1231.77 123.712C1230.32 123.712 1229.13 123.247 1228.2 122.318C1227.28 121.361 1226.81 120.186 1226.81 118.792C1226.81 117.453 1227.28 116.318 1228.2 115.389C1229.13 114.46 1230.32 113.995 1231.77 113.995ZM1264.58 177.381V134.208H1270.44L1270.98 140.194C1272.73 137.98 1274.91 136.285 1277.54 135.11C1280.19 133.907 1282.76 133.306 1285.24 133.306C1289.48 133.306 1292.56 134.427 1294.47 136.668C1296.41 138.909 1297.38 142.025 1297.38 146.016V177.381H1290.49V151.1C1290.49 148.148 1290.33 145.77 1290 143.966C1289.67 142.135 1288.99 140.809 1287.95 139.989C1286.91 139.142 1285.3 138.718 1283.11 138.718C1281.42 138.718 1279.82 139.087 1278.32 139.825C1276.84 140.563 1275.51 141.492 1274.34 142.613C1273.19 143.706 1272.23 144.813 1271.47 145.934V177.381H1264.58ZM1348.84 129.616L1350.98 136.094C1349.15 136.668 1347.19 137.023 1345.11 137.16C1343.04 137.297 1340.78 137.365 1338.35 137.365C1340.84 138.513 1342.71 140.003 1343.97 141.834C1345.22 143.638 1345.85 145.77 1345.85 148.23C1345.85 151.073 1345.21 153.601 1343.92 155.815C1342.64 158.029 1340.78 159.765 1338.35 161.022C1335.94 162.279 1333.03 162.908 1329.62 162.908C1328.17 162.908 1326.95 162.84 1325.97 162.703C1325.01 162.566 1324.08 162.361 1323.18 162.088C1322.52 162.525 1321.98 163.127 1321.54 163.892C1321.13 164.657 1320.92 165.45 1320.92 166.27C1320.92 167.309 1321.33 168.17 1322.15 168.853C1322.97 169.536 1324.49 169.878 1326.7 169.878H1334.49C1337.39 169.878 1339.99 170.397 1342.28 171.436C1344.61 172.475 1346.43 173.869 1347.74 175.618C1349.08 177.367 1349.75 179.363 1349.75 181.604C1349.75 185.841 1347.94 189.093 1344.33 191.362C1340.75 193.631 1335.68 194.765 1329.12 194.765C1324.53 194.765 1320.91 194.287 1318.26 193.33C1315.61 192.401 1313.71 190.966 1312.56 189.025C1311.44 187.112 1310.88 184.693 1310.88 181.768H1317.11C1317.11 183.435 1317.44 184.816 1318.09 185.909C1318.75 187.002 1319.94 187.809 1321.66 188.328C1323.38 188.875 1325.86 189.148 1329.08 189.148C1332.25 189.148 1334.84 188.875 1336.83 188.328C1338.85 187.809 1340.34 187.016 1341.3 185.95C1342.28 184.911 1342.78 183.613 1342.78 182.055C1342.78 180.005 1341.85 178.461 1339.99 177.422C1338.13 176.383 1335.81 175.864 1333.02 175.864H1325.31C1321.59 175.864 1318.85 175.044 1317.07 173.404C1315.32 171.764 1314.45 169.878 1314.45 167.746C1314.45 166.352 1314.84 164.999 1315.63 163.687C1316.45 162.375 1317.64 161.213 1319.2 160.202C1316.71 158.89 1314.88 157.264 1313.71 155.323C1312.53 153.382 1311.94 151.032 1311.94 148.271C1311.94 145.346 1312.67 142.763 1314.12 140.522C1315.57 138.253 1317.59 136.477 1320.19 135.192C1322.78 133.907 1325.78 133.265 1329.16 133.265C1332.8 133.238 1335.75 133.087 1338.02 132.814C1340.29 132.513 1342.23 132.09 1343.84 131.543C1345.48 130.996 1347.15 130.354 1348.84 129.616ZM1329.16 138.308C1325.69 138.308 1323.12 139.251 1321.46 141.137C1319.82 142.996 1319 145.374 1319 148.271C1319 151.196 1319.84 153.601 1321.54 155.487C1323.23 157.373 1325.83 158.316 1329.33 158.316C1332.39 158.316 1334.71 157.428 1336.3 155.651C1337.91 153.874 1338.72 151.401 1338.72 148.23C1338.72 144.977 1337.91 142.517 1336.3 140.85C1334.71 139.155 1332.34 138.308 1329.16 138.308Z" fill="#9CC1E4"/>
<path d="M304.305 327.021V283.848H310.168L310.701 289.834C312.451 287.62 314.637 285.925 317.261 284.75C319.913 283.547 322.482 282.946 324.969 282.946C329.206 282.946 332.281 284.067 334.194 286.308C336.135 288.549 337.105 291.665 337.105 295.656V327.021H330.217V300.74C330.217 297.788 330.053 295.41 329.725 293.606C329.397 291.775 328.714 290.449 327.675 289.629C326.637 288.782 325.024 288.358 322.837 288.358C321.143 288.358 319.544 288.727 318.04 289.465C316.564 290.203 315.239 291.132 314.063 292.253C312.915 293.346 311.959 294.453 311.193 295.574V327.021H304.305ZM369.914 282.946C373.987 282.946 377.39 283.875 380.123 285.734C382.884 287.565 384.948 290.162 386.314 293.524C387.708 296.886 388.405 300.849 388.405 305.414C388.405 309.815 387.695 313.71 386.273 317.099C384.852 320.488 382.761 323.153 380 325.094C377.267 327.007 373.878 327.964 369.832 327.964C365.787 327.964 362.384 327.035 359.623 325.176C356.863 323.317 354.772 320.707 353.35 317.345C351.956 313.956 351.259 310.006 351.259 305.496C351.259 301.041 351.97 297.118 353.391 293.729C354.813 290.34 356.904 287.702 359.664 285.816C362.452 283.903 365.869 282.946 369.914 282.946ZM369.914 288.563C366.197 288.563 363.382 289.943 361.468 292.704C359.582 295.437 358.639 299.701 358.639 305.496C358.639 311.181 359.569 315.404 361.427 318.165C363.313 320.926 366.115 322.306 369.832 322.306C373.55 322.306 376.338 320.926 378.196 318.165C380.082 315.404 381.025 311.154 381.025 305.414C381.025 299.674 380.096 295.437 378.237 292.704C376.379 289.943 373.604 288.563 369.914 288.563ZM431.095 282.946C432.489 282.946 433.815 283.247 435.072 283.848C436.357 284.449 437.409 285.611 438.229 287.333C439.049 289.055 439.459 291.57 439.459 294.877V327.021H433.063V295.984C433.063 293.278 432.899 291.324 432.571 290.121C432.243 288.918 431.3 288.317 429.742 288.317C428.458 288.317 427.173 288.727 425.888 289.547C424.631 290.34 423.401 291.652 422.198 293.483V327.021H415.761V295.984C415.761 293.278 415.597 291.324 415.269 290.121C414.941 288.918 413.998 288.317 412.44 288.317C411.101 288.317 409.803 288.727 408.545 289.547C407.315 290.34 406.099 291.652 404.896 293.483V327.021H398.541V283.848H403.953L404.363 288.85C405.539 287.183 406.851 285.789 408.299 284.668C409.775 283.52 411.593 282.946 413.752 282.946C415.392 282.946 416.937 283.342 418.385 284.135C419.834 284.9 420.9 286.404 421.583 288.645C422.759 286.95 424.084 285.584 425.56 284.545C427.036 283.479 428.881 282.946 431.095 282.946ZM520.288 282.946C524.115 282.946 527.163 283.875 529.431 285.734C531.727 287.593 533.381 290.217 534.392 293.606C535.404 296.968 535.909 300.904 535.909 305.414C535.909 309.76 535.294 313.641 534.064 317.058C532.862 320.447 531.03 323.112 528.57 325.053C526.11 326.994 523.008 327.964 519.263 327.964C514.535 327.964 510.735 326.297 507.865 322.962V343.544L500.977 344.405V283.848H506.84L507.414 289.875C509 287.661 510.886 285.953 513.072 284.75C515.286 283.547 517.692 282.946 520.288 282.946ZM518.648 288.481C516.27 288.481 514.166 289.205 512.334 290.654C510.53 292.075 509.041 293.661 507.865 295.41V316.812C508.986 318.479 510.394 319.805 512.088 320.789C513.81 321.746 515.696 322.224 517.746 322.224C521.327 322.224 524.019 320.857 525.823 318.124C527.627 315.391 528.529 311.14 528.529 305.373C528.529 301.601 528.174 298.471 527.463 295.984C526.753 293.469 525.673 291.597 524.224 290.367C522.776 289.11 520.917 288.481 518.648 288.481ZM581.059 317.591C581.059 319.313 581.346 320.57 581.92 321.363C582.494 322.156 583.383 322.743 584.585 323.126L582.904 327.964C581.046 327.718 579.419 327.13 578.025 326.201C576.631 325.244 575.62 323.809 574.991 321.896C573.433 323.891 571.493 325.408 569.169 326.447C566.846 327.458 564.277 327.964 561.461 327.964C557.143 327.964 553.74 326.748 551.252 324.315C548.765 321.882 547.521 318.657 547.521 314.639C547.521 310.184 549.257 306.767 552.728 304.389C556.2 302.011 561.215 300.822 567.775 300.822H574.13V297.214C574.13 294.098 573.215 291.898 571.383 290.613C569.579 289.301 567.065 288.645 563.839 288.645C562.418 288.645 560.751 288.823 558.837 289.178C556.924 289.506 554.847 290.066 552.605 290.859L550.801 285.652C553.453 284.668 555.94 283.971 558.263 283.561C560.587 283.151 562.801 282.946 564.905 282.946C570.29 282.946 574.322 284.203 577 286.718C579.706 289.205 581.059 292.595 581.059 296.886V317.591ZM563.224 322.716C565.356 322.716 567.393 322.183 569.333 321.117C571.274 320.024 572.873 318.52 574.13 316.607V305.496H567.898C563.142 305.496 559.78 306.316 557.812 307.956C555.872 309.596 554.901 311.796 554.901 314.557C554.901 317.236 555.585 319.272 556.951 320.666C558.345 322.033 560.436 322.716 563.224 322.716ZM599.723 327.021V321.732H606.447V289.137H599.723V283.848H611.695L612.966 294.057C614.634 290.504 616.656 287.757 619.034 285.816C621.412 283.875 624.556 282.905 628.464 282.905C629.667 282.905 630.733 283.001 631.662 283.192C632.619 283.356 633.589 283.575 634.573 283.848L632.564 289.998C631.662 289.752 630.842 289.574 630.104 289.465C629.366 289.328 628.519 289.26 627.562 289.26C624.255 289.26 621.412 290.435 619.034 292.786C616.656 295.137 614.757 298.69 613.335 303.446V321.732H622.109V327.021H599.723ZM627.931 298.444V289.055L628.628 283.848H634.573L633.589 298.444H627.931ZM663.159 322.265C666.467 322.265 669.077 321.65 670.99 320.42C672.931 319.163 673.901 317.495 673.901 315.418C673.901 314.106 673.655 312.972 673.163 312.015C672.699 311.058 671.728 310.197 670.252 309.432C668.776 308.667 666.508 307.901 663.446 307.136C660.467 306.398 657.87 305.551 655.656 304.594C653.47 303.61 651.761 302.339 650.531 300.781C649.329 299.223 648.727 297.2 648.727 294.713C648.727 292.28 649.411 290.189 650.777 288.44C652.171 286.663 654.098 285.31 656.558 284.381C659.018 283.424 661.875 282.946 665.127 282.946C668.599 282.946 671.619 283.411 674.188 284.34C676.785 285.242 678.985 286.363 680.789 287.702L677.755 292.376C676.115 291.255 674.311 290.34 672.343 289.629C670.375 288.891 667.997 288.522 665.209 288.522C661.82 288.522 659.415 289.055 657.993 290.121C656.572 291.16 655.861 292.513 655.861 294.18C655.861 295.437 656.203 296.49 656.886 297.337C657.597 298.157 658.786 298.909 660.453 299.592C662.121 300.248 664.417 300.972 667.341 301.765C670.157 302.503 672.603 303.391 674.68 304.43C676.785 305.469 678.425 306.835 679.6 308.53C680.776 310.225 681.363 312.411 681.363 315.09C681.363 318.151 680.489 320.639 678.739 322.552C676.99 324.438 674.721 325.818 671.933 326.693C669.173 327.54 666.248 327.964 663.159 327.964C659.251 327.964 655.916 327.404 653.155 326.283C650.422 325.135 648.126 323.755 646.267 322.142L650.203 317.591C651.898 318.985 653.839 320.119 656.025 320.994C658.239 321.841 660.617 322.265 663.159 322.265ZM703.061 307.874C703.198 311.209 703.84 313.942 704.988 316.074C706.136 318.179 707.653 319.737 709.539 320.748C711.425 321.732 713.475 322.224 715.689 322.224C717.903 322.224 719.899 321.896 721.675 321.24C723.479 320.584 725.324 319.614 727.21 318.329L730.449 322.88C728.427 324.465 726.117 325.709 723.52 326.611C720.951 327.513 718.313 327.964 715.607 327.964C711.425 327.964 707.858 327.021 704.906 325.135C701.954 323.249 699.699 320.625 698.141 317.263C696.611 313.874 695.845 309.951 695.845 305.496C695.845 301.123 696.624 297.241 698.182 293.852C699.74 290.463 701.927 287.798 704.742 285.857C707.558 283.916 710.879 282.946 714.705 282.946C718.341 282.946 721.47 283.807 724.094 285.529C726.718 287.224 728.727 289.656 730.121 292.827C731.543 295.97 732.253 299.729 732.253 304.102C732.253 304.84 732.24 305.537 732.212 306.193C732.185 306.822 732.144 307.382 732.089 307.874H703.061ZM714.787 288.604C711.589 288.604 708.911 289.738 706.751 292.007C704.619 294.276 703.403 297.788 703.102 302.544H725.611C725.529 297.925 724.518 294.453 722.577 292.13C720.637 289.779 718.04 288.604 714.787 288.604ZM747.227 327.021V321.732H753.951V289.137H747.227V283.848H759.199L760.47 294.057C762.138 290.504 764.16 287.757 766.538 285.816C768.916 283.875 772.06 282.905 775.968 282.905C777.171 282.905 778.237 283.001 779.166 283.192C780.123 283.356 781.093 283.575 782.077 283.848L780.068 289.998C779.166 289.752 778.346 289.574 777.608 289.465C776.87 289.328 776.023 289.26 775.066 289.26C771.759 289.26 768.916 290.435 766.538 292.786C764.16 295.137 762.261 298.69 760.839 303.446V321.732H769.613V327.021H747.227ZM775.435 298.444V289.055L776.132 283.848H782.077L781.093 298.444H775.435ZM864.669 322.019C866.828 322.019 868.837 321.664 870.696 320.953C872.582 320.242 874.318 319.34 875.903 318.247L879.265 322.757C877.379 324.37 875.11 325.641 872.459 326.57C869.808 327.499 867.211 327.964 864.669 327.964C860.378 327.964 856.715 327.048 853.681 325.217C850.674 323.358 848.378 320.762 846.793 317.427C845.208 314.065 844.415 310.129 844.415 305.619C844.415 301.3 845.208 297.433 846.793 294.016C848.406 290.572 850.715 287.866 853.722 285.898C856.756 283.93 860.432 282.946 864.751 282.946C867.512 282.946 870.095 283.37 872.5 284.217C874.933 285.037 877.16 286.281 879.183 287.948L875.821 292.54C873.99 291.255 872.145 290.299 870.286 289.67C868.455 289.014 866.582 288.686 864.669 288.686C860.952 288.686 857.89 290.08 855.485 292.868C853.08 295.656 851.877 299.906 851.877 305.619C851.877 309.446 852.424 312.575 853.517 315.008C854.638 317.413 856.155 319.19 858.068 320.338C860.009 321.459 862.209 322.019 864.669 322.019ZM910.762 282.946C914.835 282.946 918.238 283.875 920.971 285.734C923.732 287.565 925.795 290.162 927.162 293.524C928.556 296.886 929.253 300.849 929.253 305.414C929.253 309.815 928.542 313.71 927.121 317.099C925.7 320.488 923.609 323.153 920.848 325.094C918.115 327.007 914.725 327.964 910.68 327.964C906.635 327.964 903.232 327.035 900.471 325.176C897.71 323.317 895.619 320.707 894.198 317.345C892.804 313.956 892.107 310.006 892.107 305.496C892.107 301.041 892.818 297.118 894.239 293.729C895.66 290.34 897.751 287.702 900.512 285.816C903.3 283.903 906.717 282.946 910.762 282.946ZM910.762 288.563C907.045 288.563 904.229 289.943 902.316 292.704C900.43 295.437 899.487 299.701 899.487 305.496C899.487 311.181 900.416 315.404 902.275 318.165C904.161 320.926 906.963 322.306 910.68 322.306C914.397 322.306 917.185 320.926 919.044 318.165C920.93 315.404 921.873 311.154 921.873 305.414C921.873 299.674 920.944 295.437 919.085 292.704C917.226 289.943 914.452 288.563 910.762 288.563ZM971.943 282.946C973.337 282.946 974.663 283.247 975.92 283.848C977.205 284.449 978.257 285.611 979.077 287.333C979.897 289.055 980.307 291.57 980.307 294.877V327.021H973.911V295.984C973.911 293.278 973.747 291.324 973.419 290.121C973.091 288.918 972.148 288.317 970.59 288.317C969.305 288.317 968.021 288.727 966.736 289.547C965.479 290.34 964.249 291.652 963.046 293.483V327.021H956.609V295.984C956.609 293.278 956.445 291.324 956.117 290.121C955.789 288.918 954.846 288.317 953.288 288.317C951.949 288.317 950.65 288.727 949.393 289.547C948.163 290.34 946.947 291.652 945.744 293.483V327.021H939.389V283.848H944.801L945.211 288.85C946.386 287.183 947.698 285.789 949.147 284.668C950.623 283.52 952.441 282.946 954.6 282.946C956.24 282.946 957.784 283.342 959.233 284.135C960.682 284.9 961.748 286.404 962.431 288.645C963.606 286.95 964.932 285.584 966.408 284.545C967.884 283.479 969.729 282.946 971.943 282.946ZM999.545 289.465C1001.13 287.388 1002.95 285.789 1005 284.668C1007.08 283.52 1009.36 282.946 1011.85 282.946C1015.7 282.946 1018.82 283.875 1021.19 285.734C1023.57 287.593 1025.31 290.217 1026.4 293.606C1027.49 296.968 1028.04 300.904 1028.04 305.414C1028.04 309.76 1027.38 313.641 1026.07 317.058C1024.76 320.447 1022.83 323.112 1020.29 325.053C1017.78 326.994 1014.66 327.964 1010.94 327.964C1005.94 327.964 1002.02 326.16 999.176 322.552L998.684 327.021H992.657V266.464L999.545 265.603V289.465ZM1009.3 322.388C1012.91 322.388 1015.69 320.994 1017.63 318.206C1019.57 315.418 1020.54 311.14 1020.54 305.373C1020.54 301.601 1020.15 298.471 1019.39 295.984C1018.62 293.469 1017.48 291.597 1015.95 290.367C1014.44 289.11 1012.58 288.481 1010.37 288.481C1007.96 288.481 1005.85 289.205 1004.01 290.654C1002.21 292.075 1000.72 293.661 999.545 295.41V316.812C1000.67 318.507 1002.07 319.86 1003.77 320.871C1005.49 321.882 1007.34 322.388 1009.3 322.388ZM1063.68 283.848V321.568H1075.85V327.021H1043.46V321.568H1056.79V289.301H1043.87V283.848H1063.68ZM1058.18 263.635C1059.71 263.635 1060.93 264.1 1061.83 265.029C1062.76 265.958 1063.23 267.093 1063.23 268.432C1063.23 269.826 1062.76 271.001 1061.83 271.958C1060.93 272.887 1059.71 273.352 1058.18 273.352C1056.74 273.352 1055.55 272.887 1054.62 271.958C1053.69 271.001 1053.22 269.826 1053.22 268.432C1053.22 267.093 1053.69 265.958 1054.62 265.029C1055.55 264.1 1056.74 263.635 1058.18 263.635ZM1090.99 327.021V283.848H1096.86L1097.39 289.834C1099.14 287.62 1101.32 285.925 1103.95 284.75C1106.6 283.547 1109.17 282.946 1111.66 282.946C1115.89 282.946 1118.97 284.067 1120.88 286.308C1122.82 288.549 1123.79 291.665 1123.79 295.656V327.021H1116.9V300.74C1116.9 297.788 1116.74 295.41 1116.41 293.606C1116.08 291.775 1115.4 290.449 1114.36 289.629C1113.32 288.782 1111.71 288.358 1109.52 288.358C1107.83 288.358 1106.23 288.727 1104.73 289.465C1103.25 290.203 1101.93 291.132 1100.75 292.253C1099.6 293.346 1098.65 294.453 1097.88 295.574V327.021H1090.99ZM1171.07 317.591C1171.07 319.313 1171.36 320.57 1171.94 321.363C1172.51 322.156 1173.4 322.743 1174.6 323.126L1172.92 327.964C1171.06 327.718 1169.43 327.13 1168.04 326.201C1166.65 325.244 1165.64 323.809 1165.01 321.896C1163.45 323.891 1161.51 325.408 1159.18 326.447C1156.86 327.458 1154.29 327.964 1151.48 327.964C1147.16 327.964 1143.76 326.748 1141.27 324.315C1138.78 321.882 1137.54 318.657 1137.54 314.639C1137.54 310.184 1139.27 306.767 1142.74 304.389C1146.22 302.011 1151.23 300.822 1157.79 300.822H1164.15V297.214C1164.15 294.098 1163.23 291.898 1161.4 290.613C1159.59 289.301 1157.08 288.645 1153.85 288.645C1152.43 288.645 1150.77 288.823 1148.85 289.178C1146.94 289.506 1144.86 290.066 1142.62 290.859L1140.82 285.652C1143.47 284.668 1145.96 283.971 1148.28 283.561C1150.6 283.151 1152.82 282.946 1154.92 282.946C1160.31 282.946 1164.34 284.203 1167.02 286.718C1169.72 289.205 1171.07 292.595 1171.07 296.886V317.591ZM1153.24 322.716C1155.37 322.716 1157.41 322.183 1159.35 321.117C1161.29 320.024 1162.89 318.52 1164.15 316.607V305.496H1157.91C1153.16 305.496 1149.8 306.316 1147.83 307.956C1145.89 309.596 1144.92 311.796 1144.92 314.557C1144.92 317.236 1145.6 319.272 1146.97 320.666C1148.36 322.033 1150.45 322.716 1153.24 322.716ZM1223.6 324.848C1222.13 325.832 1220.34 326.597 1218.23 327.144C1216.13 327.691 1214.07 327.964 1212.04 327.964C1207.4 327.964 1203.82 326.748 1201.3 324.315C1198.79 321.882 1197.53 318.753 1197.53 314.926V289.178H1187.61V283.848H1197.53V274.049L1204.42 273.229V283.848H1219.34L1218.52 289.178H1204.42V314.844C1204.42 317.249 1205.05 319.081 1206.3 320.338C1207.59 321.595 1209.71 322.224 1212.66 322.224C1214.27 322.224 1215.76 322.033 1217.13 321.65C1218.49 321.267 1219.76 320.775 1220.94 320.174L1223.6 324.848ZM1254.94 282.946C1259.01 282.946 1262.41 283.875 1265.15 285.734C1267.91 287.565 1269.97 290.162 1271.34 293.524C1272.73 296.886 1273.43 300.849 1273.43 305.414C1273.43 309.815 1272.72 313.71 1271.3 317.099C1269.88 320.488 1267.78 323.153 1265.02 325.094C1262.29 327.007 1258.9 327.964 1254.86 327.964C1250.81 327.964 1247.41 327.035 1244.65 325.176C1241.89 323.317 1239.8 320.707 1238.37 317.345C1236.98 313.956 1236.28 310.006 1236.28 305.496C1236.28 301.041 1236.99 297.118 1238.41 293.729C1239.84 290.34 1241.93 287.702 1244.69 285.816C1247.48 283.903 1250.89 282.946 1254.94 282.946ZM1254.94 288.563C1251.22 288.563 1248.41 289.943 1246.49 292.704C1244.61 295.437 1243.66 299.701 1243.66 305.496C1243.66 311.181 1244.59 315.404 1246.45 318.165C1248.34 320.926 1251.14 322.306 1254.86 322.306C1258.57 322.306 1261.36 320.926 1263.22 318.165C1265.11 315.404 1266.05 311.154 1266.05 305.414C1266.05 299.674 1265.12 295.437 1263.26 292.704C1261.4 289.943 1258.63 288.563 1254.94 288.563ZM1288.07 327.021V321.732H1294.8V289.137H1288.07V283.848H1300.05L1301.32 294.057C1302.99 290.504 1305.01 287.757 1307.39 285.816C1309.76 283.875 1312.91 282.905 1316.82 282.905C1318.02 282.905 1319.08 283.001 1320.01 283.192C1320.97 283.356 1321.94 283.575 1322.92 283.848L1320.92 289.998C1320.01 289.752 1319.19 289.574 1318.46 289.465C1317.72 289.328 1316.87 289.26 1315.91 289.26C1312.61 289.26 1309.76 290.435 1307.39 292.786C1305.01 295.137 1303.11 298.69 1301.69 303.446V321.732H1310.46V327.021H1288.07ZM1316.28 298.444V289.055L1316.98 283.848H1322.92L1321.94 298.444H1316.28ZM1407.85 283.848V321.568H1420.03V327.021H1387.64V321.568H1400.97V289.301H1388.05V283.848H1407.85ZM1402.36 263.635C1403.89 263.635 1405.11 264.1 1406.01 265.029C1406.94 265.958 1407.4 267.093 1407.4 268.432C1407.4 269.826 1406.94 271.001 1406.01 271.958C1405.11 272.887 1403.89 273.352 1402.36 273.352C1400.91 273.352 1399.72 272.887 1398.79 271.958C1397.86 271.001 1397.4 269.826 1397.4 268.432C1397.4 267.093 1397.86 265.958 1398.79 265.029C1399.72 264.1 1400.91 263.635 1402.36 263.635ZM1435.17 327.021V283.848H1441.03L1441.56 289.834C1443.31 287.62 1445.5 285.925 1448.12 284.75C1450.78 283.547 1453.35 282.946 1455.83 282.946C1460.07 282.946 1463.14 284.067 1465.06 286.308C1467 288.549 1467.97 291.665 1467.97 295.656V327.021H1461.08V300.74C1461.08 297.788 1460.92 295.41 1460.59 293.606C1460.26 291.775 1459.58 290.449 1458.54 289.629C1457.5 288.782 1455.89 288.358 1453.7 288.358C1452.01 288.358 1450.41 288.727 1448.9 289.465C1447.43 290.203 1446.1 291.132 1444.93 292.253C1443.78 293.346 1442.82 294.453 1442.06 295.574V327.021H1435.17ZM1569.34 286.39C1569.34 289.205 1568.72 291.665 1567.49 293.77C1566.29 295.875 1564.65 297.61 1562.57 298.977C1560.5 300.344 1558.16 301.341 1555.56 301.97L1572.29 327.021H1563.76L1548.35 302.79H1540.72V327.021H1533.59V270.564H1548.1C1555.07 270.564 1560.35 271.903 1563.93 274.582C1567.53 277.233 1569.34 281.169 1569.34 286.39ZM1561.71 286.39C1561.71 282.755 1560.67 280.158 1558.6 278.6C1556.52 277.015 1553.29 276.222 1548.92 276.222H1540.72V297.214H1548.92C1552.97 297.214 1556.11 296.394 1558.35 294.754C1560.59 293.087 1561.71 290.299 1561.71 286.39ZM1589.56 283.848V314.434C1589.56 317.277 1590.15 319.327 1591.32 320.584C1592.5 321.841 1594.33 322.47 1596.82 322.47C1599.2 322.47 1601.44 321.8 1603.54 320.461C1605.67 319.094 1607.33 317.482 1608.5 315.623V283.848H1615.39V327.021H1609.53L1608.95 321.199C1607.26 323.386 1605.17 325.067 1602.68 326.242C1600.19 327.39 1597.68 327.964 1595.14 327.964C1590.95 327.964 1587.82 326.857 1585.75 324.643C1583.7 322.402 1582.67 319.272 1582.67 315.254V283.848H1589.56ZM1646.52 322.265C1649.83 322.265 1652.44 321.65 1654.35 320.42C1656.29 319.163 1657.26 317.495 1657.26 315.418C1657.26 314.106 1657.01 312.972 1656.52 312.015C1656.06 311.058 1655.09 310.197 1653.61 309.432C1652.14 308.667 1649.87 307.901 1646.81 307.136C1643.83 306.398 1641.23 305.551 1639.02 304.594C1636.83 303.61 1635.12 302.339 1633.89 300.781C1632.69 299.223 1632.09 297.2 1632.09 294.713C1632.09 292.28 1632.77 290.189 1634.14 288.44C1635.53 286.663 1637.46 285.31 1639.92 284.381C1642.38 283.424 1645.23 282.946 1648.49 282.946C1651.96 282.946 1654.98 283.411 1657.55 284.34C1660.14 285.242 1662.34 286.363 1664.15 287.702L1661.11 292.376C1659.47 291.255 1657.67 290.34 1655.7 289.629C1653.73 288.891 1651.36 288.522 1648.57 288.522C1645.18 288.522 1642.77 289.055 1641.35 290.121C1639.93 291.16 1639.22 292.513 1639.22 294.18C1639.22 295.437 1639.56 296.49 1640.25 297.337C1640.96 298.157 1642.15 298.909 1643.81 299.592C1645.48 300.248 1647.78 300.972 1650.7 301.765C1653.52 302.503 1655.96 303.391 1658.04 304.43C1660.14 305.469 1661.78 306.835 1662.96 308.53C1664.13 310.225 1664.72 312.411 1664.72 315.09C1664.72 318.151 1663.85 320.639 1662.1 322.552C1660.35 324.438 1658.08 325.818 1655.29 326.693C1652.53 327.54 1649.61 327.964 1646.52 327.964C1642.61 327.964 1639.28 327.404 1636.51 326.283C1633.78 325.135 1631.49 323.755 1629.63 322.142L1633.56 317.591C1635.26 318.985 1637.2 320.119 1639.38 320.994C1641.6 321.841 1643.98 322.265 1646.52 322.265ZM1715.28 324.848C1713.81 325.832 1712.02 326.597 1709.91 327.144C1707.81 327.691 1705.75 327.964 1703.72 327.964C1699.08 327.964 1695.5 326.748 1692.98 324.315C1690.47 321.882 1689.21 318.753 1689.21 314.926V289.178H1679.29V283.848H1689.21V274.049L1696.1 273.229V283.848H1711.02L1710.2 289.178H1696.1V314.844C1696.1 317.249 1696.73 319.081 1697.98 320.338C1699.27 321.595 1701.39 322.224 1704.34 322.224C1705.95 322.224 1707.44 322.033 1708.81 321.65C1710.17 321.267 1711.44 320.775 1712.62 320.174L1715.28 324.848Z" fill="white"/>
<g filter="url(#filter0_d_890_2)">
<g filter="url(#filter1_d_890_2)">
<path fill-rule="evenodd" clip-rule="evenodd" d="M254 643V649.252V993H542V643H254ZM266.522 655.504H529.478V880.51H266.522V655.504ZM366.696 674.188V667.935H429.304V717.953H404.408V755.417H479.538V802.87L508.715 832.031L473.302 867.395L437.864 832.031L467.016 802.919V767.922H404.408H329.277V806.363C340.022 809.174 348.06 818.922 348.06 830.492C348.06 844.231 336.773 855.501 323.016 855.501C309.259 855.501 297.973 844.231 297.973 830.492C297.973 818.922 306.01 809.174 316.755 806.363V755.417H391.886V717.953H366.696V674.188ZM379.217 680.44H416.783V705.449H379.217V680.44ZM491.008 832.031L473.302 814.349L455.571 832.031L473.302 849.713L491.008 832.031ZM323.016 817.988C330.006 817.988 335.538 823.512 335.538 830.492C335.538 837.472 330.006 842.997 323.016 842.997C316.027 842.997 310.495 837.472 310.495 830.492C310.495 823.512 316.027 817.988 323.016 817.988ZM391.739 893.014H266.522V980.496H391.739V893.014ZM404.261 893.014H529.478V980.496H404.261V893.014ZM279.043 918.023V905.518H379.217V918.023H279.043ZM423.043 905.518V918.023H510.696V905.518H423.043ZM423.043 943.031V930.527H510.696V943.031H423.043ZM279.043 955.536V968.04H379.217V955.536H279.043ZM423.043 968.04V955.536H510.696V968.04H423.043Z" fill="url(#paint1_linear_890_2)"/>
</g>
</g>
<path d="M1760.21 814.149L1744.99 804.719C1744.86 803.235 1744.71 801.755 1744.56 800.281L1757.66 788.077C1758.99 786.836 1759.59 784.998 1759.23 783.223C1758.88 781.438 1757.63 779.968 1755.92 779.34L1739.18 773.099C1738.76 771.65 1738.32 770.211 1737.87 768.766L1748.3 754.273C1749.37 752.8 1749.59 750.883 1748.89 749.211C1748.2 747.537 1746.68 746.337 1744.91 746.043L1727.26 743.172C1726.57 741.834 1725.86 740.516 1725.14 739.219L1732.56 722.924C1733.32 721.267 1733.16 719.353 1732.15 717.828C1731.14 716.316 1729.43 715.432 1727.6 715.501L1709.68 716.125C1708.75 714.967 1707.81 713.82 1706.85 712.693L1710.98 695.254C1711.39 693.482 1710.87 691.613 1709.58 690.331C1708.3 689.048 1706.44 688.517 1704.66 688.933L1687.22 693.059C1686.09 692.102 1684.94 691.156 1683.78 690.23L1684.41 672.306C1684.47 670.492 1683.59 668.769 1682.08 667.764C1680.56 666.751 1678.65 666.599 1676.98 667.351L1660.72 674.771C1659.41 674.049 1658.09 673.335 1656.77 672.645L1653.89 654.998C1653.6 653.209 1652.4 651.69 1650.72 651.011C1649.05 650.314 1647.12 650.539 1645.66 651.6L1631.17 662.036C1629.74 661.582 1628.3 661.145 1626.87 660.729L1620.63 643.983C1619.99 642.277 1618.52 641.026 1616.75 640.672C1614.96 640.322 1613.14 640.915 1611.89 642.239L1599.69 655.345C1598.21 655.182 1596.73 655.033 1595.25 654.911L1585.82 639.656C1584.87 638.114 1583.18 637.174 1581.35 637.174C1579.52 637.174 1577.85 638.114 1576.91 639.656L1567.48 654.911C1566 655.033 1564.51 655.182 1563.04 655.345L1550.84 642.239C1549.6 640.915 1547.76 640.322 1545.98 640.672C1544.2 641.029 1542.73 642.277 1542.1 643.983L1535.86 660.729C1534.41 661.145 1532.98 661.585 1531.56 662.036L1517.07 651.6C1515.59 650.536 1513.67 650.311 1512.01 651.011C1510.33 651.704 1509.13 653.223 1508.84 654.998L1505.96 672.645C1504.63 673.335 1503.31 674.046 1502.01 674.771L1485.75 667.351C1484.09 666.595 1482.18 666.751 1480.65 667.764C1479.14 668.769 1478.25 670.492 1478.32 672.306L1478.95 690.23C1477.79 691.156 1476.64 692.102 1475.51 693.059L1458.07 688.933C1456.3 688.521 1454.43 689.048 1453.15 690.331C1451.86 691.617 1451.33 693.472 1451.75 695.254L1455.84 712.693C1454.89 713.823 1453.94 714.967 1453.02 716.125L1435.09 715.501C1433.29 715.449 1431.56 716.316 1430.55 717.828C1429.54 719.332 1429.39 721.26 1430.14 722.924L1437.56 739.219C1436.84 740.527 1436.12 741.844 1435.43 743.172L1417.79 746.043C1415.99 746.334 1414.48 747.533 1413.8 749.211C1413.1 750.893 1413.33 752.817 1414.39 754.273L1424.82 768.766C1424.37 770.198 1423.93 771.636 1423.51 773.099L1406.77 779.34C1405.07 779.975 1403.82 781.445 1403.46 783.223C1403.11 785.005 1403.7 786.829 1405.03 788.077L1418.14 800.281C1417.97 801.755 1417.83 803.238 1417.7 804.719L1402.48 814.149C1400.94 815.103 1400 816.788 1400 818.622C1400 820.456 1400.94 822.123 1402.48 823.06L1417.7 832.49C1417.83 833.974 1417.97 835.454 1418.14 836.928L1405.03 849.132C1403.7 850.369 1403.11 852.207 1403.46 853.986C1403.82 855.771 1405.07 857.238 1406.77 857.869L1423.51 864.109C1423.93 865.559 1424.37 866.997 1424.82 868.443L1414.39 882.935C1413.33 884.412 1413.1 886.33 1413.8 887.997C1414.5 889.679 1416.01 890.878 1417.82 891.166L1435.47 894.037C1436.16 895.375 1436.87 896.693 1437.59 897.989L1430.17 914.25C1429.42 915.904 1429.57 917.821 1430.59 919.346C1431.6 920.861 1433.32 921.745 1435.13 921.673L1453.02 921.045C1453.95 922.21 1454.89 923.351 1455.85 924.484L1451.76 941.924C1451.34 943.692 1451.86 945.529 1453.15 946.812C1454.43 948.105 1456.29 948.622 1458.08 948.206L1475.52 944.115C1476.65 945.079 1477.8 946.015 1478.95 946.937L1478.33 964.862C1478.26 966.675 1479.15 968.398 1480.66 969.403C1482.16 970.412 1484.09 970.565 1485.75 969.809L1502.01 962.39C1503.33 963.118 1504.64 963.825 1505.97 964.515L1508.84 982.162C1509.14 983.958 1510.33 985.477 1512.01 986.184C1513.69 986.881 1515.62 986.656 1517.07 985.598L1531.57 975.162C1533 975.616 1534.44 976.06 1535.9 976.476L1542.14 993.222C1542.78 994.921 1544.25 996.179 1546.03 996.526C1547.81 996.887 1549.63 996.29 1550.88 994.959L1563.08 981.854C1564.56 982.024 1566.04 982.166 1567.52 982.297L1576.95 997.518C1577.9 999.054 1579.59 1000 1581.39 1000C1583.19 1000 1584.89 999.057 1585.86 997.518L1595.29 982.297C1596.78 982.166 1598.26 982.024 1599.73 981.854L1611.93 994.959C1613.17 996.29 1615.01 996.887 1616.79 996.526C1618.57 996.176 1620.04 994.921 1620.67 993.222L1626.91 976.476C1628.36 976.06 1629.8 975.616 1631.24 975.162L1645.74 985.598C1647.21 986.656 1649.13 986.881 1650.8 986.184C1652.48 985.494 1653.68 983.972 1653.97 982.162L1656.85 964.515C1658.18 963.825 1659.49 963.107 1660.8 962.39L1677.06 969.809C1678.71 970.565 1680.63 970.412 1682.16 969.403C1683.67 968.391 1684.55 966.675 1684.48 964.862L1683.86 946.937C1685.02 946.011 1686.16 945.079 1687.29 944.115L1704.73 948.206C1706.5 948.622 1708.37 948.105 1709.66 946.812C1710.95 945.526 1711.47 943.678 1711.05 941.924L1706.96 924.484C1707.92 923.351 1708.86 922.21 1709.78 921.045L1727.71 921.673C1729.52 921.745 1731.25 920.861 1732.25 919.346C1733.26 917.835 1733.42 915.91 1732.66 914.25L1725.24 897.989C1725.96 896.675 1726.68 895.358 1727.36 894.037L1745.01 891.166C1746.81 890.878 1748.32 889.679 1749 887.997C1749.69 886.323 1749.47 884.392 1748.41 882.935L1737.97 868.443C1738.42 867.011 1738.86 865.572 1739.28 864.109L1756.03 857.869C1757.73 857.231 1758.99 855.764 1759.33 853.986C1759.69 852.204 1759.1 850.38 1757.76 849.132L1744.66 836.928C1744.82 835.454 1744.96 833.97 1745.09 832.49L1760.31 823.06C1761.85 822.11 1762.8 820.421 1762.8 818.622C1762.8 816.822 1761.86 815.12 1760.32 814.149H1760.21ZM1658.28 940.696C1652.45 939.441 1648.78 933.693 1650.03 927.868C1651.27 922.044 1656.99 918.334 1662.82 919.582C1668.64 920.827 1672.35 926.585 1671.11 932.41C1669.86 938.235 1664.14 941.944 1658.31 940.696H1658.28ZM1653.11 905.679C1647.81 904.542 1642.57 907.919 1641.46 913.237L1636.05 938.477C1619.38 946.036 1600.69 950.265 1581.27 950.265C1561.3 950.265 1542.44 945.862 1525.45 937.957L1520.05 912.717C1518.91 907.413 1513.7 904.015 1508.4 905.159L1486.1 909.944C1481.98 905.679 1478.13 901.137 1474.59 896.353H1583.11C1584.34 896.353 1585.16 896.131 1585.16 895.015V856.53C1585.16 855.414 1584.34 855.192 1583.11 855.192H1551.39V830.888H1585.68C1588.81 830.888 1602.42 831.783 1606.76 849.194C1608.12 854.533 1611.13 871.938 1613.17 877.52C1615.21 883.761 1623.5 896.242 1632.34 896.242H1686.43C1687.04 896.242 1687.7 896.173 1688.39 896.048C1684.64 901.144 1680.52 905.964 1676.11 910.471L1653.3 905.582L1653.11 905.679ZM1502.99 940.176C1497.16 941.431 1491.44 937.722 1490.19 931.89C1488.95 926.065 1492.65 920.31 1498.48 919.062C1504.31 917.817 1510.03 921.527 1511.28 927.348C1512.52 933.173 1508.82 938.928 1502.99 940.176ZM1461.73 773.411C1464.14 778.855 1461.69 785.234 1456.25 787.661C1450.81 790.078 1444.46 787.619 1442.04 782.183C1439.61 776.747 1442.08 770.36 1447.52 767.934C1452.96 765.52 1459.3 767.975 1461.73 773.411ZM1449.08 803.367L1472.31 793.035C1477.26 790.833 1479.52 785.026 1477.3 780.068L1472.51 769.251H1491.31V853.847H1453.51C1450.22 842.267 1448.45 830.063 1448.45 817.443C1448.45 812.624 1448.71 807.874 1449.21 803.193L1449.08 803.367ZM1551.01 795.15V770.187H1595.73C1598.04 770.187 1612.06 772.86 1612.06 783.327C1612.06 792.029 1601.31 795.15 1592.47 795.15H1550.87H1551.01ZM1713.61 817.616C1713.61 820.931 1713.49 824.204 1713.25 827.463H1699.62C1698.26 827.463 1697.71 828.357 1697.71 829.692V835.933C1697.71 850.633 1689.43 853.857 1682.15 854.655C1675.21 855.435 1667.55 851.756 1666.61 847.513C1662.52 824.526 1655.73 819.638 1644.98 811.109C1658.33 802.649 1672.19 790.133 1672.19 773.318C1672.19 755.255 1659.82 743.883 1651.39 738.301C1639.53 730.5 1626.43 728.94 1622.89 728.94H1482.13C1501.23 707.652 1527.2 692.536 1556.33 686.988L1572.93 704.393C1576.68 708.311 1582.88 708.484 1586.84 704.712L1605.42 686.961C1644.25 694.207 1677.19 718.407 1696.26 751.794L1683.53 780.502C1681.34 785.459 1683.58 791.284 1688.52 793.468L1713 804.355C1713.42 808.689 1713.65 813.092 1713.65 817.53L1713.61 817.616ZM1572.85 672.347C1577.15 668.221 1583.98 668.395 1588.07 672.697C1592.16 676.996 1592.02 683.826 1587.71 687.952C1583.41 692.078 1576.58 691.905 1572.49 687.599C1568.4 683.3 1568.54 676.469 1572.85 672.344V672.347ZM1699.05 773.932C1701.46 768.488 1707.82 766.027 1713.27 768.454C1718.71 770.867 1721.17 777.26 1718.74 782.703C1716.33 788.146 1709.97 790.608 1704.53 788.181C1699.08 785.768 1696.62 779.375 1699.05 773.932Z" fill="url(#paint2_linear_890_2)"/>
</g>
<defs>
<filter id="filter0_d_890_2" x="250" y="643" width="296" height="358" filterUnits="userSpaceOnUse" color-interpolation-filters="sRGB">
<feFlood flood-opacity="0" result="BackgroundImageFix"/>
<feColorMatrix in="SourceAlpha" type="matrix" values="0 0 0 0 0 0 0 0 0 0 0 0 0 0 0 0 0 0 127 0" result="hardAlpha"/>
<feOffset dy="4"/>
<feGaussianBlur stdDeviation="2"/>
<feComposite in2="hardAlpha" operator="out"/>
<feColorMatrix type="matrix" values="0 0 0 0 0 0 0 0 0 0 0 0 0 0 0 0 0 0 0.25 0"/>
<feBlend mode="normal" in2="BackgroundImageFix" result="effect1_dropShadow_890_2"/>
<feBlend mode="normal" in="SourceGraphic" in2="effect1_dropShadow_890_2" result="shape"/>
</filter>
<filter id="filter1_d_890_2" x="242" y="631" width="328" height="390" filterUnits="userSpaceOnUse" color-interpolation-filters="sRGB">
<feFlood flood-opacity="0" result="BackgroundImageFix"/>
<feColorMatrix in="SourceAlpha" type="matrix" values="0 0 0 0 0 0 0 0 0 0 0 0 0 0 0 0 0 0 127 0" result="hardAlpha"/>
<feOffset dx="8" dy="8"/>
<feGaussianBlur stdDeviation="10"/>
<feColorMatrix type="matrix" values="0 0 0 0 0 0 0 0 0 0 0 0 0 0 0 0 0 0 0.5 0"/>
<feBlend mode="normal" in2="BackgroundImageFix" result="effect1_dropShadow_890_2"/>
<feBlend mode="normal" in="SourceGraphic" in2="effect1_dropShadow_890_2" result="shape"/>
</filter>
<linearGradient id="paint0_linear_890_2" x1="960" y1="0" x2="960" y2="1080" gradientUnits="userSpaceOnUse">
<stop stop-color="#323232"/>
<stop offset="1"/>
</linearGradient>
<linearGradient id="paint1_linear_890_2" x1="398" y1="643" x2="398" y2="993" gradientUnits="userSpaceOnUse">
<stop stop-color="#B32BD5"/>
<stop offset="1" stop-color="#DA3C8E"/>
</linearGradient>
<linearGradient id="paint2_linear_890_2" x1="1581.4" y1="637.174" x2="1581.4" y2="1000" gradientUnits="userSpaceOnUse">
<stop stop-color="#B32BD5"/>
<stop offset="1" stop-color="#DA3C8E"/>
</linearGradient>
<clipPath id="clip0_890_2">
<rect width="1920" height="1080" fill="white"/>
</clipPath>
</defs>
</svg>
