<svg width="1920" height="1080" viewBox="0 0 1920 1080" fill="none" xmlns="http://www.w3.org/2000/svg">
<g id="non-capturing-lambda">
<g id="Rectangle">
<rect width="1920" height="1080" fill="#323232"/>
<rect width="1920" height="1080" fill="url(#paint0_linear)" fill-opacity="0.15"/>
</g>
<path id="Java vs Kotlin" d="M224.855 348H209.105L151.805 259.05H151.205C151.405 262.55 151.655 266.9 151.955 272.1C152.255 277.3 152.405 282.65 152.405 288.15V348H139.955V240.9H155.555L212.705 329.55H213.305C213.205 327.95 213.055 325.55 212.855 322.35C212.755 319.15 212.605 315.65 212.405 311.85C212.305 308.05 212.255 304.55 212.255 301.35V240.9H224.855V348ZM322.02 307.65C322.02 320.95 318.62 331.25 311.82 338.55C305.12 345.85 296.02 349.5 284.52 349.5C277.42 349.5 271.07 347.9 265.47 344.7C259.97 341.4 255.62 336.65 252.42 330.45C249.22 324.15 247.62 316.55 247.62 307.65C247.62 294.35 250.97 284.1 257.67 276.9C264.37 269.7 273.47 266.1 284.97 266.1C292.27 266.1 298.67 267.75 304.17 271.05C309.77 274.25 314.12 278.95 317.22 285.15C320.42 291.25 322.02 298.75 322.02 307.65ZM261.27 307.65C261.27 317.15 263.12 324.7 266.82 330.3C270.62 335.8 276.62 338.55 284.82 338.55C292.92 338.55 298.87 335.8 302.67 330.3C306.47 324.7 308.37 317.15 308.37 307.65C308.37 298.15 306.47 290.7 302.67 285.3C298.87 279.9 292.87 277.2 284.67 277.2C276.47 277.2 270.52 279.9 266.82 285.3C263.12 290.7 261.27 298.15 261.27 307.65ZM381.64 266.1C391.24 266.1 398.49 268.45 403.39 273.15C408.29 277.75 410.74 285.25 410.74 295.65V348H397.69V296.55C397.69 283.65 391.69 277.2 379.69 277.2C370.79 277.2 364.64 279.7 361.24 284.7C357.84 289.7 356.14 296.9 356.14 306.3V348H342.94V267.6H353.59L355.54 278.55H356.29C358.89 274.35 362.49 271.25 367.09 269.25C371.69 267.15 376.54 266.1 381.64 266.1ZM428.915 313.65V301.95H465.215V313.65H428.915ZM516.255 349.5C509.155 349.5 502.805 348.05 497.205 345.15C491.705 342.25 487.355 337.75 484.155 331.65C481.055 325.55 479.505 317.75 479.505 308.25C479.505 298.35 481.155 290.3 484.455 284.1C487.755 277.9 492.205 273.35 497.805 270.45C503.505 267.55 509.955 266.1 517.155 266.1C521.255 266.1 525.205 266.55 529.005 267.45C532.805 268.25 535.905 269.25 538.305 270.45L534.255 281.4C531.855 280.5 529.055 279.65 525.855 278.85C522.655 278.05 519.655 277.65 516.855 277.65C501.055 277.65 493.155 287.8 493.155 308.1C493.155 317.8 495.055 325.25 498.855 330.45C502.755 335.55 508.505 338.1 516.105 338.1C520.505 338.1 524.355 337.65 527.655 336.75C531.055 335.85 534.155 334.75 536.955 333.45V345.15C534.255 346.55 531.255 347.6 527.955 348.3C524.755 349.1 520.855 349.5 516.255 349.5ZM586.525 266.25C596.325 266.25 603.575 268.4 608.275 272.7C612.975 277 615.325 283.85 615.325 293.25V348H605.725L603.175 336.6H602.575C599.075 341 595.375 344.25 591.475 346.35C587.675 348.45 582.375 349.5 575.575 349.5C568.275 349.5 562.225 347.6 557.425 343.8C552.625 339.9 550.225 333.85 550.225 325.65C550.225 317.65 553.375 311.5 559.675 307.2C565.975 302.8 575.675 300.4 588.775 300L602.425 299.55V294.75C602.425 288.05 600.975 283.4 598.075 280.8C595.175 278.2 591.075 276.9 585.775 276.9C581.575 276.9 577.575 277.55 573.775 278.85C569.975 280.05 566.425 281.45 563.125 283.05L559.075 273.15C562.575 271.25 566.725 269.65 571.525 268.35C576.325 266.95 581.325 266.25 586.525 266.25ZM602.275 308.7L590.425 309.15C580.425 309.55 573.475 311.15 569.575 313.95C565.775 316.75 563.875 320.7 563.875 325.8C563.875 330.3 565.225 333.6 567.925 335.7C570.725 337.8 574.275 338.85 578.575 338.85C585.375 338.85 591.025 337 595.525 333.3C600.025 329.5 602.275 323.7 602.275 315.9V308.7ZM678.407 266.1C688.307 266.1 696.257 269.55 702.257 276.45C708.357 283.35 711.407 293.75 711.407 307.65C711.407 321.35 708.357 331.75 702.257 338.85C696.257 345.95 688.257 349.5 678.257 349.5C672.057 349.5 666.907 348.35 662.807 346.05C658.807 343.65 655.657 340.9 653.357 337.8H652.457C652.657 339.5 652.857 341.65 653.057 344.25C653.257 346.85 653.357 349.1 653.357 351V384H640.157V267.6H650.957L652.757 278.55H653.357C655.757 275.05 658.907 272.1 662.807 269.7C666.707 267.3 671.907 266.1 678.407 266.1ZM676.007 277.2C667.807 277.2 662.007 279.5 658.607 284.1C655.307 288.7 653.557 295.7 653.357 305.1V307.65C653.357 317.55 654.957 325.2 658.157 330.6C661.457 335.9 667.507 338.55 676.307 338.55C681.207 338.55 685.207 337.2 688.307 334.5C691.507 331.8 693.857 328.15 695.357 323.55C696.957 318.85 697.757 313.5 697.757 307.5C697.757 298.3 695.957 290.95 692.357 285.45C688.857 279.95 683.407 277.2 676.007 277.2ZM759.292 338.7C761.292 338.7 763.342 338.55 765.442 338.25C767.542 337.85 769.242 337.45 770.542 337.05V347.1C769.142 347.8 767.142 348.35 764.542 348.75C761.942 349.25 759.442 349.5 757.042 349.5C752.842 349.5 748.942 348.8 745.342 347.4C741.842 345.9 738.992 343.35 736.792 339.75C734.592 336.15 733.492 331.1 733.492 324.6V277.8H722.092V271.5L733.642 266.25L738.892 249.15H746.692V267.6H769.942V277.8H746.692V324.3C746.692 329.2 747.842 332.85 750.142 335.25C752.542 337.55 755.592 338.7 759.292 338.7ZM853.842 267.6V348H843.042L841.092 337.35H840.492C837.892 341.55 834.292 344.65 829.692 346.65C825.092 348.55 820.192 349.5 814.992 349.5C805.292 349.5 797.992 347.2 793.092 342.6C788.192 337.9 785.742 330.45 785.742 320.25V267.6H799.092V319.35C799.092 332.15 805.042 338.55 816.942 338.55C825.842 338.55 831.992 336.05 835.392 331.05C838.892 326.05 840.642 318.85 840.642 309.45V267.6H853.842ZM916.866 266.1C918.366 266.1 919.966 266.2 921.666 266.4C923.466 266.5 925.016 266.7 926.316 267L924.666 279.15C923.366 278.85 921.916 278.6 920.316 278.4C918.816 278.2 917.366 278.1 915.966 278.1C911.866 278.1 908.016 279.25 904.416 281.55C900.816 283.75 897.916 286.9 895.716 291C893.616 295 892.566 299.7 892.566 305.1V348H879.366V267.6H890.166L891.666 282.3H892.266C894.866 277.9 898.216 274.1 902.316 270.9C906.416 267.7 911.266 266.1 916.866 266.1ZM948.079 237.45C950.079 237.45 951.829 238.15 953.329 239.55C954.929 240.85 955.729 242.95 955.729 245.85C955.729 248.65 954.929 250.75 953.329 252.15C951.829 253.55 950.079 254.25 948.079 254.25C945.879 254.25 944.029 253.55 942.529 252.15C941.029 250.75 940.279 248.65 940.279 245.85C940.279 242.95 941.029 240.85 942.529 239.55C944.029 238.15 945.879 237.45 948.079 237.45ZM954.529 267.6V348H941.329V267.6H954.529ZM1018.7 266.1C1028.3 266.1 1035.55 268.45 1040.45 273.15C1045.35 277.75 1047.8 285.25 1047.8 295.65V348H1034.75V296.55C1034.75 283.65 1028.75 277.2 1016.75 277.2C1007.85 277.2 1001.7 279.7 998.301 284.7C994.901 289.7 993.201 296.9 993.201 306.3V348H980.001V267.6H990.651L992.601 278.55H993.351C995.951 274.35 999.551 271.25 1004.15 269.25C1008.75 267.15 1013.6 266.1 1018.7 266.1ZM1101.23 266.1C1106.53 266.1 1111.28 267.1 1115.48 269.1C1119.78 271.1 1123.43 274.15 1126.43 278.25H1127.18L1128.98 267.6H1139.48V349.35C1139.48 360.85 1136.53 369.5 1130.63 375.3C1124.83 381.1 1115.78 384 1103.48 384C1091.68 384 1082.03 382.3 1074.53 378.9V366.75C1082.43 370.95 1092.33 373.05 1104.23 373.05C1111.13 373.05 1116.53 371 1120.43 366.9C1124.43 362.9 1126.43 357.4 1126.43 350.4V347.25C1126.43 346.05 1126.48 344.35 1126.58 342.15C1126.68 339.85 1126.78 338.25 1126.88 337.35H1126.28C1120.88 345.45 1112.58 349.5 1101.38 349.5C1090.98 349.5 1082.83 345.85 1076.93 338.55C1071.13 331.25 1068.23 321.05 1068.23 307.95C1068.23 295.15 1071.13 285 1076.93 277.5C1082.83 269.9 1090.93 266.1 1101.23 266.1ZM1103.03 277.2C1096.33 277.2 1091.13 279.9 1087.43 285.3C1083.73 290.6 1081.88 298.2 1081.88 308.1C1081.88 318 1083.68 325.6 1087.28 330.9C1090.98 336.1 1096.33 338.7 1103.33 338.7C1111.43 338.7 1117.33 336.55 1121.03 332.25C1124.73 327.85 1126.58 320.8 1126.58 311.1V307.95C1126.58 296.95 1124.68 289.1 1120.88 284.4C1117.08 279.6 1111.13 277.2 1103.03 277.2ZM1217.18 348H1203.98V234H1217.18V348ZM1273.1 266.25C1282.9 266.25 1290.15 268.4 1294.85 272.7C1299.55 277 1301.9 283.85 1301.9 293.25V348H1292.3L1289.75 336.6H1289.15C1285.65 341 1281.95 344.25 1278.05 346.35C1274.25 348.45 1268.95 349.5 1262.15 349.5C1254.85 349.5 1248.8 347.6 1244 343.8C1239.2 339.9 1236.8 333.85 1236.8 325.65C1236.8 317.65 1239.95 311.5 1246.25 307.2C1252.55 302.8 1262.25 300.4 1275.35 300L1289 299.55V294.75C1289 288.05 1287.55 283.4 1284.65 280.8C1281.75 278.2 1277.65 276.9 1272.35 276.9C1268.15 276.9 1264.15 277.55 1260.35 278.85C1256.55 280.05 1253 281.45 1249.7 283.05L1245.65 273.15C1249.15 271.25 1253.3 269.65 1258.1 268.35C1262.9 266.95 1267.9 266.25 1273.1 266.25ZM1288.85 308.7L1277 309.15C1267 309.55 1260.05 311.15 1256.15 313.95C1252.35 316.75 1250.45 320.7 1250.45 325.8C1250.45 330.3 1251.8 333.6 1254.5 335.7C1257.3 337.8 1260.85 338.85 1265.15 338.85C1271.95 338.85 1277.6 337 1282.1 333.3C1286.6 329.5 1288.85 323.7 1288.85 315.9V308.7ZM1414.93 266.1C1424.03 266.1 1430.83 268.45 1435.33 273.15C1439.83 277.75 1442.08 285.25 1442.08 295.65V348H1429.03V296.25C1429.03 283.55 1423.58 277.2 1412.68 277.2C1404.88 277.2 1399.28 279.45 1395.88 283.95C1392.58 288.45 1390.93 295 1390.93 303.6V348H1377.88V296.25C1377.88 283.55 1372.38 277.2 1361.38 277.2C1353.28 277.2 1347.68 279.7 1344.58 284.7C1341.48 289.7 1339.93 296.9 1339.93 306.3V348H1326.73V267.6H1337.38L1339.33 278.55H1340.08C1342.58 274.35 1345.93 271.25 1350.13 269.25C1354.43 267.15 1358.98 266.1 1363.78 266.1C1376.38 266.1 1384.58 270.6 1388.38 279.6H1389.13C1391.83 275 1395.48 271.6 1400.08 269.4C1404.78 267.2 1409.73 266.1 1414.93 266.1ZM1480.12 234V261.75C1480.12 265.15 1480.02 268.35 1479.82 271.35C1479.72 274.25 1479.57 276.55 1479.37 278.25H1480.12C1482.42 274.85 1485.57 272 1489.57 269.7C1493.57 267.4 1498.72 266.25 1505.02 266.25C1515.02 266.25 1523.02 269.75 1529.02 276.75C1535.12 283.65 1538.17 294 1538.17 307.8C1538.17 321.6 1535.12 332 1529.02 339C1522.92 346 1514.92 349.5 1505.02 349.5C1498.72 349.5 1493.57 348.35 1489.57 346.05C1485.57 343.75 1482.42 341 1480.12 337.8H1479.07L1476.37 348H1466.92V234H1480.12ZM1502.77 277.2C1494.27 277.2 1488.37 279.65 1485.07 284.55C1481.77 289.45 1480.12 297.05 1480.12 307.35V307.95C1480.12 317.85 1481.72 325.45 1484.92 330.75C1488.22 335.95 1494.27 338.55 1503.07 338.55C1510.27 338.55 1515.62 335.9 1519.12 330.6C1522.72 325.3 1524.52 317.65 1524.52 307.65C1524.52 287.35 1517.27 277.2 1502.77 277.2ZM1587.7 349.5C1577.7 349.5 1569.7 346.05 1563.7 339.15C1557.7 332.15 1554.7 321.75 1554.7 307.95C1554.7 294.15 1557.7 283.75 1563.7 276.75C1569.8 269.65 1577.85 266.1 1587.85 266.1C1594.05 266.1 1599.1 267.25 1603 269.55C1607 271.85 1610.25 274.65 1612.75 277.95H1613.65C1613.55 276.65 1613.35 274.75 1613.05 272.25C1612.85 269.65 1612.75 267.6 1612.75 266.1V234H1625.95V348H1615.3L1613.35 337.2H1612.75C1610.35 340.6 1607.15 343.5 1603.15 345.9C1599.15 348.3 1594 349.5 1587.7 349.5ZM1589.8 338.55C1598.3 338.55 1604.25 336.25 1607.65 331.65C1611.15 326.95 1612.9 319.9 1612.9 310.5V308.1C1612.9 298.1 1611.25 290.45 1607.95 285.15C1604.65 279.75 1598.55 277.05 1589.65 277.05C1582.55 277.05 1577.2 279.9 1573.6 285.6C1570.1 291.2 1568.35 298.75 1568.35 308.25C1568.35 317.85 1570.1 325.3 1573.6 330.6C1577.2 335.9 1582.6 338.55 1589.8 338.55ZM1681.94 266.25C1691.74 266.25 1698.99 268.4 1703.69 272.7C1708.39 277 1710.74 283.85 1710.74 293.25V348H1701.14L1698.59 336.6H1697.99C1694.49 341 1690.79 344.25 1686.89 346.35C1683.09 348.45 1677.79 349.5 1670.99 349.5C1663.69 349.5 1657.64 347.6 1652.84 343.8C1648.04 339.9 1645.64 333.85 1645.64 325.65C1645.64 317.65 1648.79 311.5 1655.09 307.2C1661.39 302.8 1671.09 300.4 1684.19 300L1697.84 299.55V294.75C1697.84 288.05 1696.39 283.4 1693.49 280.8C1690.59 278.2 1686.49 276.9 1681.19 276.9C1676.99 276.9 1672.99 277.55 1669.19 278.85C1665.39 280.05 1661.84 281.45 1658.54 283.05L1654.49 273.15C1657.99 271.25 1662.14 269.65 1666.94 268.35C1671.74 266.95 1676.74 266.25 1681.94 266.25ZM1697.69 308.7L1685.84 309.15C1675.84 309.55 1668.89 311.15 1664.99 313.95C1661.19 316.75 1659.29 320.7 1659.29 325.8C1659.29 330.3 1660.64 333.6 1663.34 335.7C1666.14 337.8 1669.69 338.85 1673.99 338.85C1680.79 338.85 1686.44 337 1690.94 333.3C1695.44 329.5 1697.69 323.7 1697.69 315.9V308.7ZM1787.92 325.8C1787.92 333.6 1785.02 339.5 1779.22 343.5C1773.42 347.5 1765.62 349.5 1755.82 349.5C1750.22 349.5 1745.37 349.05 1741.27 348.15C1737.27 347.25 1733.72 346 1730.62 344.4V332.4C1733.82 334 1737.67 335.5 1742.17 336.9C1746.77 338.2 1751.42 338.85 1756.12 338.85C1762.82 338.85 1767.67 337.8 1770.67 335.7C1773.67 333.5 1775.17 330.6 1775.17 327C1775.17 325 1774.62 323.2 1773.52 321.6C1772.42 320 1770.42 318.4 1767.52 316.8C1764.72 315.2 1760.67 313.4 1755.37 311.4C1750.17 309.4 1745.72 307.4 1742.02 305.4C1738.32 303.4 1735.47 301 1733.47 298.2C1731.47 295.4 1730.47 291.8 1730.47 287.4C1730.47 280.6 1733.22 275.35 1738.72 271.65C1744.32 267.95 1751.62 266.1 1760.62 266.1C1765.52 266.1 1770.07 266.6 1774.27 267.6C1778.57 268.5 1782.57 269.8 1786.27 271.5L1781.77 282C1778.37 280.6 1774.82 279.4 1771.12 278.4C1767.42 277.4 1763.62 276.9 1759.72 276.9C1754.32 276.9 1750.17 277.8 1747.27 279.6C1744.47 281.3 1743.07 283.65 1743.07 286.65C1743.07 288.85 1743.72 290.75 1745.02 292.35C1746.32 293.85 1748.47 295.35 1751.47 296.85C1754.57 298.25 1758.67 299.95 1763.77 301.95C1768.87 303.85 1773.22 305.8 1776.82 307.8C1780.42 309.8 1783.17 312.25 1785.07 315.15C1786.97 317.95 1787.92 321.5 1787.92 325.8Z" fill="#61DAFB"/>
<path id="Android development" d="M380.107 121.88C387.573 121.88 393.013 123.347 396.427 126.28C399.84 129.213 401.547 133.347 401.547 138.68C401.547 141.827 400.827 144.787 399.387 147.56C398 150.28 395.627 152.493 392.267 154.2C388.96 155.907 384.453 156.76 378.747 156.76H372.187V179H364.987V121.88H380.107ZM379.467 128.04H372.187V150.6H377.947C383.387 150.6 387.44 149.72 390.107 147.96C392.773 146.2 394.107 143.213 394.107 139C394.107 135.32 392.933 132.573 390.587 130.76C388.24 128.947 384.533 128.04 379.467 128.04ZM432.464 135.32C433.264 135.32 434.117 135.373 435.024 135.48C435.984 135.533 436.811 135.64 437.504 135.8L436.624 142.28C435.931 142.12 435.157 141.987 434.304 141.88C433.504 141.773 432.731 141.72 431.984 141.72C429.797 141.72 427.744 142.333 425.824 143.56C423.904 144.733 422.357 146.413 421.184 148.6C420.064 150.733 419.504 153.24 419.504 156.12V179H412.464V136.12H418.224L419.024 143.96H419.344C420.731 141.613 422.517 139.587 424.704 137.88C426.891 136.173 429.477 135.32 432.464 135.32ZM481.228 157.48C481.228 164.573 479.415 170.067 475.788 173.96C472.215 177.853 467.362 179.8 461.228 179.8C457.442 179.8 454.055 178.947 451.068 177.24C448.135 175.48 445.815 172.947 444.108 169.64C442.402 166.28 441.548 162.227 441.548 157.48C441.548 150.387 443.335 144.92 446.908 141.08C450.482 137.24 455.335 135.32 461.468 135.32C465.362 135.32 468.775 136.2 471.708 137.96C474.695 139.667 477.015 142.173 478.668 145.48C480.375 148.733 481.228 152.733 481.228 157.48ZM448.828 157.48C448.828 162.547 449.815 166.573 451.788 169.56C453.815 172.493 457.015 173.96 461.388 173.96C465.708 173.96 468.882 172.493 470.908 169.56C472.935 166.573 473.948 162.547 473.948 157.48C473.948 152.413 472.935 148.44 470.908 145.56C468.882 142.68 465.682 141.24 461.308 141.24C456.935 141.24 453.762 142.68 451.788 145.56C449.815 148.44 448.828 152.413 448.828 157.48ZM499.426 118.2V133C499.426 134.813 499.373 136.52 499.266 138.12C499.213 139.667 499.133 140.893 499.026 141.8H499.426C500.653 139.987 502.333 138.467 504.466 137.24C506.599 136.013 509.346 135.4 512.706 135.4C518.039 135.4 522.306 137.267 525.506 141C528.759 144.68 530.386 150.2 530.386 157.56C530.386 164.92 528.759 170.467 525.506 174.2C522.253 177.933 517.986 179.8 512.706 179.8C509.346 179.8 506.599 179.187 504.466 177.96C502.333 176.733 500.653 175.267 499.426 173.56H498.866L497.426 179H492.386V118.2H499.426ZM511.506 141.24C506.973 141.24 503.826 142.547 502.066 145.16C500.306 147.773 499.426 151.827 499.426 157.32V157.64C499.426 162.92 500.279 166.973 501.986 169.8C503.746 172.573 506.973 173.96 511.666 173.96C515.506 173.96 518.359 172.547 520.226 169.72C522.146 166.893 523.106 162.813 523.106 157.48C523.106 146.653 519.239 141.24 511.506 141.24ZM548.645 179H541.605V118.2H548.645V179ZM578.79 135.32C582.47 135.32 585.616 136.12 588.23 137.72C590.896 139.32 592.923 141.587 594.31 144.52C595.75 147.4 596.47 150.787 596.47 154.68V158.92H567.11C567.216 163.773 568.443 167.48 570.79 170.04C573.19 172.547 576.523 173.8 580.79 173.8C583.51 173.8 585.91 173.56 587.99 173.08C590.123 172.547 592.31 171.8 594.55 170.84V177C592.363 177.96 590.203 178.653 588.07 179.08C585.936 179.56 583.403 179.8 580.47 179.8C576.416 179.8 572.816 178.973 569.67 177.32C566.576 175.667 564.15 173.213 562.39 169.96C560.683 166.653 559.83 162.627 559.83 157.88C559.83 153.187 560.603 149.16 562.15 145.8C563.75 142.44 565.963 139.853 568.79 138.04C571.67 136.227 575.003 135.32 578.79 135.32ZM578.71 141.08C575.35 141.08 572.683 142.173 570.71 144.36C568.79 146.493 567.643 149.48 567.27 153.32H589.11C589.056 149.693 588.203 146.76 586.55 144.52C584.896 142.227 582.283 141.08 578.71 141.08ZM654.426 135.32C659.279 135.32 662.906 136.573 665.306 139.08C667.706 141.533 668.906 145.533 668.906 151.08V179H661.946V151.4C661.946 144.627 659.039 141.24 653.226 141.24C649.066 141.24 646.079 142.44 644.266 144.84C642.506 147.24 641.626 150.733 641.626 155.32V179H634.666V151.4C634.666 144.627 631.733 141.24 625.866 141.24C621.546 141.24 618.559 142.573 616.906 145.24C615.253 147.907 614.426 151.747 614.426 156.76V179H607.386V136.12H613.066L614.106 141.96H614.506C615.839 139.72 617.626 138.067 619.866 137C622.159 135.88 624.586 135.32 627.146 135.32C633.866 135.32 638.239 137.72 640.266 142.52H640.666C642.106 140.067 644.053 138.253 646.506 137.08C649.013 135.907 651.653 135.32 654.426 135.32ZM710.072 167.16C710.072 171.32 708.525 174.467 705.432 176.6C702.338 178.733 698.178 179.8 692.952 179.8C689.965 179.8 687.378 179.56 685.192 179.08C683.058 178.6 681.165 177.933 679.512 177.08V170.68C681.218 171.533 683.272 172.333 685.672 173.08C688.125 173.773 690.605 174.12 693.112 174.12C696.685 174.12 699.272 173.56 700.872 172.44C702.472 171.267 703.272 169.72 703.272 167.8C703.272 166.733 702.978 165.773 702.392 164.92C701.805 164.067 700.738 163.213 699.192 162.36C697.698 161.507 695.538 160.547 692.712 159.48C689.938 158.413 687.565 157.347 685.592 156.28C683.618 155.213 682.098 153.933 681.032 152.44C679.965 150.947 679.432 149.027 679.432 146.68C679.432 143.053 680.898 140.253 683.832 138.28C686.818 136.307 690.712 135.32 695.512 135.32C698.125 135.32 700.552 135.587 702.792 136.12C705.085 136.6 707.218 137.293 709.192 138.2L706.792 143.8C704.978 143.053 703.085 142.413 701.112 141.88C699.138 141.347 697.112 141.08 695.032 141.08C692.152 141.08 689.938 141.56 688.392 142.52C686.898 143.427 686.152 144.68 686.152 146.28C686.152 147.453 686.498 148.467 687.192 149.32C687.885 150.12 689.032 150.92 690.632 151.72C692.285 152.467 694.472 153.373 697.192 154.44C699.912 155.453 702.232 156.493 704.152 157.56C706.072 158.627 707.538 159.933 708.552 161.48C709.565 162.973 710.072 164.867 710.072 167.16ZM744.814 120.04C745.881 120.04 746.814 120.413 747.614 121.16C748.467 121.853 748.894 122.973 748.894 124.52C748.894 126.013 748.467 127.133 747.614 127.88C746.814 128.627 745.881 129 744.814 129C743.641 129 742.654 128.627 741.854 127.88C741.054 127.133 740.654 126.013 740.654 124.52C740.654 122.973 741.054 121.853 741.854 121.16C742.654 120.413 743.641 120.04 744.814 120.04ZM748.254 136.12V179H741.214V136.12H748.254ZM782.479 135.32C787.599 135.32 791.466 136.573 794.079 139.08C796.692 141.533 797.999 145.533 797.999 151.08V179H791.039V151.56C791.039 144.68 787.839 141.24 781.439 141.24C776.692 141.24 773.412 142.573 771.599 145.24C769.786 147.907 768.879 151.747 768.879 156.76V179H761.839V136.12H767.519L768.559 141.96H768.959C770.346 139.72 772.266 138.067 774.719 137C777.172 135.88 779.759 135.32 782.479 135.32ZM824.953 194.2C823.673 194.2 822.553 194.093 821.593 193.88C820.633 193.72 819.78 193.48 819.033 193.16V187.08C819.887 187.293 820.793 187.48 821.753 187.64C822.713 187.8 823.727 187.88 824.793 187.88C826.127 187.88 827.38 187.613 828.553 187.08C829.78 186.547 830.767 185.613 831.513 184.28C832.26 182.947 832.633 181.08 832.633 178.68V121.88H839.833V178.12C839.833 183.613 838.473 187.667 835.753 190.28C833.033 192.893 829.433 194.2 824.953 194.2ZM870.188 135.4C875.415 135.4 879.282 136.547 881.788 138.84C884.295 141.133 885.548 144.787 885.548 149.8V179H880.428L879.068 172.92H878.748C876.882 175.267 874.908 177 872.828 178.12C870.802 179.24 867.975 179.8 864.348 179.8C860.455 179.8 857.228 178.787 854.668 176.76C852.108 174.68 850.828 171.453 850.828 167.08C850.828 162.813 852.508 159.533 855.868 157.24C859.228 154.893 864.402 153.613 871.388 153.4L878.668 153.16V150.6C878.668 147.027 877.895 144.547 876.348 143.16C874.802 141.773 872.615 141.08 869.788 141.08C867.548 141.08 865.415 141.427 863.388 142.12C861.362 142.76 859.468 143.507 857.708 144.36L855.548 139.08C857.415 138.067 859.628 137.213 862.188 136.52C864.748 135.773 867.415 135.4 870.188 135.4ZM878.588 158.04L872.268 158.28C866.935 158.493 863.228 159.347 861.148 160.84C859.122 162.333 858.108 164.44 858.108 167.16C858.108 169.56 858.828 171.32 860.268 172.44C861.762 173.56 863.655 174.12 865.948 174.12C869.575 174.12 872.588 173.133 874.988 171.16C877.388 169.133 878.588 166.04 878.588 161.88V158.04ZM908.232 179L891.992 136.12H899.512L908.632 161.4C909.059 162.573 909.512 163.88 909.992 165.32C910.472 166.76 910.899 168.147 911.272 169.48C911.646 170.76 911.912 171.853 912.072 172.76H912.392C912.606 171.853 912.899 170.733 913.272 169.4C913.699 168.067 914.152 166.68 914.632 165.24C915.166 163.8 915.619 162.52 915.992 161.4L925.112 136.12H932.632L916.312 179H908.232ZM955.657 135.4C960.884 135.4 964.751 136.547 967.257 138.84C969.764 141.133 971.017 144.787 971.017 149.8V179H965.897L964.537 172.92H964.217C962.351 175.267 960.377 177 958.297 178.12C956.271 179.24 953.444 179.8 949.817 179.8C945.924 179.8 942.697 178.787 940.137 176.76C937.577 174.68 936.297 171.453 936.297 167.08C936.297 162.813 937.977 159.533 941.337 157.24C944.697 154.893 949.871 153.613 956.857 153.4L964.137 153.16V150.6C964.137 147.027 963.364 144.547 961.817 143.16C960.271 141.773 958.084 141.08 955.257 141.08C953.017 141.08 950.884 141.427 948.857 142.12C946.831 142.76 944.937 143.507 943.177 144.36L941.017 139.08C942.884 138.067 945.097 137.213 947.657 136.52C950.217 135.773 952.884 135.4 955.657 135.4ZM964.057 158.04L957.737 158.28C952.404 158.493 948.697 159.347 946.617 160.84C944.591 162.333 943.577 164.44 943.577 167.16C943.577 169.56 944.297 171.32 945.737 172.44C947.231 173.56 949.124 174.12 951.417 174.12C955.044 174.12 958.057 173.133 960.457 171.16C962.857 169.133 964.057 166.04 964.057 161.88V158.04ZM1021.28 135.4C1026.51 135.4 1030.38 136.547 1032.88 138.84C1035.39 141.133 1036.64 144.787 1036.64 149.8V179H1031.52L1030.16 172.92H1029.84C1027.98 175.267 1026 177 1023.92 178.12C1021.9 179.24 1019.07 179.8 1015.44 179.8C1011.55 179.8 1008.32 178.787 1005.76 176.76C1003.2 174.68 1001.92 171.453 1001.92 167.08C1001.92 162.813 1003.6 159.533 1006.96 157.24C1010.32 154.893 1015.5 153.613 1022.48 153.4L1029.76 153.16V150.6C1029.76 147.027 1028.99 144.547 1027.44 143.16C1025.9 141.773 1023.71 141.08 1020.88 141.08C1018.64 141.08 1016.51 141.427 1014.48 142.12C1012.46 142.76 1010.56 143.507 1008.8 144.36L1006.64 139.08C1008.51 138.067 1010.72 137.213 1013.28 136.52C1015.84 135.773 1018.51 135.4 1021.28 135.4ZM1029.68 158.04L1023.36 158.28C1018.03 158.493 1014.32 159.347 1012.24 160.84C1010.22 162.333 1009.2 164.44 1009.2 167.16C1009.2 169.56 1009.92 171.32 1011.36 172.44C1012.86 173.56 1014.75 174.12 1017.04 174.12C1020.67 174.12 1023.68 173.133 1026.08 171.16C1028.48 169.133 1029.68 166.04 1029.68 161.88V158.04ZM1070.53 135.32C1075.65 135.32 1079.51 136.573 1082.13 139.08C1084.74 141.533 1086.05 145.533 1086.05 151.08V179H1079.09V151.56C1079.09 144.68 1075.89 141.24 1069.49 141.24C1064.74 141.24 1061.46 142.573 1059.65 145.24C1057.83 147.907 1056.93 151.747 1056.93 156.76V179H1049.89V136.12H1055.57L1056.61 141.96H1057.01C1058.39 139.72 1060.31 138.067 1062.77 137C1065.22 135.88 1067.81 135.32 1070.53 135.32ZM1114.54 179.8C1109.21 179.8 1104.94 177.96 1101.74 174.28C1098.54 170.547 1096.94 165 1096.94 157.64C1096.94 150.28 1098.54 144.733 1101.74 141C1104.99 137.213 1109.29 135.32 1114.62 135.32C1117.93 135.32 1120.62 135.933 1122.7 137.16C1124.83 138.387 1126.57 139.88 1127.9 141.64H1128.38C1128.33 140.947 1128.22 139.933 1128.06 138.6C1127.95 137.213 1127.9 136.12 1127.9 135.32V118.2H1134.94V179H1129.26L1128.22 173.24H1127.9C1126.62 175.053 1124.91 176.6 1122.78 177.88C1120.65 179.16 1117.9 179.8 1114.54 179.8ZM1115.66 173.96C1120.19 173.96 1123.37 172.733 1125.18 170.28C1127.05 167.773 1127.98 164.013 1127.98 159V157.72C1127.98 152.387 1127.1 148.307 1125.34 145.48C1123.58 142.6 1120.33 141.16 1115.58 141.16C1111.79 141.16 1108.94 142.68 1107.02 145.72C1105.15 148.707 1104.22 152.733 1104.22 157.8C1104.22 162.92 1105.15 166.893 1107.02 169.72C1108.94 172.547 1111.82 173.96 1115.66 173.96ZM1212.06 179H1203.58L1183.34 151.72L1177.5 156.84V179H1170.3V121.88H1177.5V150.04C1179.1 148.227 1180.73 146.413 1182.38 144.6C1184.03 142.787 1185.69 140.973 1187.34 139.16L1202.78 121.88H1211.18L1188.54 146.76L1212.06 179ZM1256.15 157.48C1256.15 164.573 1254.34 170.067 1250.71 173.96C1247.14 177.853 1242.28 179.8 1236.15 179.8C1232.36 179.8 1228.98 178.947 1225.99 177.24C1223.06 175.48 1220.74 172.947 1219.03 169.64C1217.32 166.28 1216.47 162.227 1216.47 157.48C1216.47 150.387 1218.26 144.92 1221.83 141.08C1225.4 137.24 1230.26 135.32 1236.39 135.32C1240.28 135.32 1243.7 136.2 1246.63 137.96C1249.62 139.667 1251.94 142.173 1253.59 145.48C1255.3 148.733 1256.15 152.733 1256.15 157.48ZM1223.75 157.48C1223.75 162.547 1224.74 166.573 1226.71 169.56C1228.74 172.493 1231.94 173.96 1236.31 173.96C1240.63 173.96 1243.8 172.493 1245.83 169.56C1247.86 166.573 1248.87 162.547 1248.87 157.48C1248.87 152.413 1247.86 148.44 1245.83 145.56C1243.8 142.68 1240.6 141.24 1236.23 141.24C1231.86 141.24 1228.68 142.68 1226.71 145.56C1224.74 148.44 1223.75 152.413 1223.75 157.48ZM1281.63 174.04C1282.69 174.04 1283.79 173.96 1284.91 173.8C1286.03 173.587 1286.93 173.373 1287.63 173.16V178.52C1286.88 178.893 1285.81 179.187 1284.43 179.4C1283.04 179.667 1281.71 179.8 1280.43 179.8C1278.19 179.8 1276.11 179.427 1274.19 178.68C1272.32 177.88 1270.8 176.52 1269.63 174.6C1268.45 172.68 1267.87 169.987 1267.87 166.52V141.56H1261.79V138.2L1267.95 135.4L1270.75 126.28H1274.91V136.12H1287.31V141.56H1274.91V166.36C1274.91 168.973 1275.52 170.92 1276.75 172.2C1278.03 173.427 1279.65 174.04 1281.63 174.04ZM1303.25 179H1296.21V118.2H1303.25V179ZM1320.44 120.04C1321.51 120.04 1322.44 120.413 1323.24 121.16C1324.09 121.853 1324.52 122.973 1324.52 124.52C1324.52 126.013 1324.09 127.133 1323.24 127.88C1322.44 128.627 1321.51 129 1320.44 129C1319.27 129 1318.28 128.627 1317.48 127.88C1316.68 127.133 1316.28 126.013 1316.28 124.52C1316.28 122.973 1316.68 121.853 1317.48 121.16C1318.28 120.413 1319.27 120.04 1320.44 120.04ZM1323.88 136.12V179H1316.84V136.12H1323.88ZM1358.1 135.32C1363.22 135.32 1367.09 136.573 1369.7 139.08C1372.32 141.533 1373.62 145.533 1373.62 151.08V179H1366.66V151.56C1366.66 144.68 1363.46 141.24 1357.06 141.24C1352.32 141.24 1349.04 142.573 1347.22 145.24C1345.41 147.907 1344.5 151.747 1344.5 156.76V179H1337.46V136.12H1343.14L1344.18 141.96H1344.58C1345.97 139.72 1347.89 138.067 1350.34 137C1352.8 135.88 1355.38 135.32 1358.1 135.32ZM1442.74 178.92L1435.38 154.76C1434.69 152.573 1434.07 150.44 1433.54 148.36C1433.06 146.227 1432.69 144.573 1432.42 143.4H1432.1C1431.89 144.573 1431.54 146.227 1431.06 148.36C1430.58 150.44 1429.97 152.6 1429.22 154.84L1421.54 178.92H1413.54L1401.78 136.04H1409.06L1414.98 158.92C1415.57 161.213 1416.13 163.533 1416.66 165.88C1417.19 168.227 1417.57 170.173 1417.78 171.72H1418.1C1418.31 170.813 1418.55 169.693 1418.82 168.36C1419.14 167.027 1419.49 165.64 1419.86 164.2C1420.23 162.707 1420.61 161.373 1420.98 160.2L1428.58 136.04H1436.26L1443.62 160.2C1444.21 162.013 1444.77 163.987 1445.3 166.12C1445.89 168.253 1446.29 170.093 1446.5 171.64H1446.82C1446.98 170.307 1447.33 168.467 1447.86 166.12C1448.45 163.773 1449.06 161.373 1449.7 158.92L1455.7 136.04H1462.9L1450.98 178.92H1442.74ZM1474.19 120.04C1475.26 120.04 1476.19 120.413 1476.99 121.16C1477.84 121.853 1478.27 122.973 1478.27 124.52C1478.27 126.013 1477.84 127.133 1476.99 127.88C1476.19 128.627 1475.26 129 1474.19 129C1473.02 129 1472.03 128.627 1471.23 127.88C1470.43 127.133 1470.03 126.013 1470.03 124.52C1470.03 122.973 1470.43 121.853 1471.23 121.16C1472.03 120.413 1473.02 120.04 1474.19 120.04ZM1477.63 136.12V179H1470.59V136.12H1477.63ZM1505.53 174.04C1506.6 174.04 1507.69 173.96 1508.81 173.8C1509.93 173.587 1510.84 173.373 1511.53 173.16V178.52C1510.79 178.893 1509.72 179.187 1508.33 179.4C1506.95 179.667 1505.61 179.8 1504.33 179.8C1502.09 179.8 1500.01 179.427 1498.09 178.68C1496.23 177.88 1494.71 176.52 1493.53 174.6C1492.36 172.68 1491.77 169.987 1491.77 166.52V141.56H1485.69V138.2L1491.85 135.4L1494.65 126.28H1498.81V136.12H1511.21V141.56H1498.81V166.36C1498.81 168.973 1499.43 170.92 1500.65 172.2C1501.93 173.427 1503.56 174.04 1505.53 174.04ZM1527.16 118.2V136.04C1527.16 138.173 1527.03 140.173 1526.76 142.04H1527.24C1528.63 139.853 1530.49 138.2 1532.84 137.08C1535.24 135.96 1537.83 135.4 1540.6 135.4C1545.83 135.4 1549.75 136.653 1552.36 139.16C1554.97 141.613 1556.28 145.587 1556.28 151.08V179H1549.32V151.56C1549.32 144.68 1546.12 141.24 1539.72 141.24C1534.92 141.24 1531.61 142.6 1529.8 145.32C1528.04 147.987 1527.16 151.827 1527.16 156.84V179H1520.12V118.2H1527.16Z" fill="#9B9B9B"/>
<g id="java-seeklogo.com 1" filter="url(#filter0_d)">
<g id="Group">
<path id="Vector" d="M439.552 756.473C439.552 756.473 426.353 764.148 448.945 766.745C476.313 769.867 490.301 769.42 520.462 763.711C520.462 763.711 528.391 768.683 539.465 772.99C471.853 801.967 386.446 771.311 439.552 756.473Z" fill="#5382A1"/>
<path id="Vector_2" d="M431.292 718.659C431.292 718.659 416.489 729.617 439.097 731.955C468.333 734.971 491.421 735.218 531.373 727.525C531.373 727.525 536.899 733.127 545.588 736.191C463.841 760.095 372.79 738.076 431.292 718.659Z" fill="#5382A1"/>
<path id="Vector_3" d="M500.941 654.515C517.6 673.695 496.563 690.955 496.563 690.955C496.563 690.955 538.865 669.118 519.438 641.772C501.293 616.271 487.379 603.601 562.705 559.914C562.705 559.914 444.468 589.444 500.941 654.515Z" fill="#E76F00"/>
<path id="Vector_4" d="M590.363 784.442C590.363 784.442 600.13 792.489 579.606 798.715C540.58 810.538 417.174 814.108 382.892 799.186C370.569 793.825 393.678 786.385 400.948 784.824C408.529 783.18 412.862 783.487 412.862 783.487C399.157 773.832 324.279 802.444 374.828 810.637C512.68 832.993 626.12 800.571 590.363 784.442Z" fill="#5382A1"/>
<path id="Vector_5" d="M445.901 679.48C445.901 679.48 383.129 694.389 423.672 699.803C440.79 702.095 474.916 701.577 506.702 698.913C532.68 696.722 558.765 692.063 558.765 692.063C558.765 692.063 549.605 695.986 542.978 700.511C479.234 717.276 356.092 709.477 391.543 692.328C421.524 677.836 445.901 679.48 445.901 679.48Z" fill="#5382A1"/>
<path id="Vector_6" d="M558.505 742.422C623.304 708.75 593.344 676.392 572.432 680.751C567.306 681.818 565.021 682.743 565.021 682.743C565.021 682.743 566.924 679.762 570.558 678.472C611.928 663.927 643.745 721.369 557.203 744.119C557.203 744.12 558.206 743.224 558.505 742.422Z" fill="#5382A1"/>
<path id="Vector_7" d="M519.439 489.371C519.439 489.371 555.326 525.27 485.402 580.472C429.331 624.754 472.616 650.002 485.379 678.849C452.649 649.318 428.63 623.323 444.744 599.128C468.396 563.613 533.919 546.394 519.439 489.371Z" fill="#E76F00"/>
<path id="Vector_8" d="M452.266 833.665C514.465 837.647 609.978 831.456 612.24 802.026C612.24 802.026 607.892 813.183 560.837 822.043C507.749 832.033 442.272 830.867 403.438 824.464C403.438 824.463 411.387 831.044 452.266 833.665Z" fill="#5382A1"/>
</g>
</g>
<g id="lamda">
<g id="Group_2">
<g id="Group_3">
<path id="Vector_9" d="M1405.01 688.293C1402.37 680.771 1400.12 673.249 1397.48 664.222H1396.36C1394.85 671.744 1391.84 680.019 1389.21 687.541L1366.64 751.855H1345.58L1385.83 649.178C1386.58 646.545 1387.33 645.041 1387.33 643.912C1387.33 642.408 1386.95 640.527 1385.83 637.895C1378.68 618.337 1370.41 602.916 1356.87 602.916C1355.74 602.916 1354.23 602.916 1353.1 603.293L1354.61 587.496C1356.49 586.744 1359.5 586.744 1362.51 586.744C1384.32 586.744 1394.48 607.806 1406.51 639.399L1449.01 752.231H1427.57L1405.01 688.293Z" stroke="#A4C639" stroke-width="10"/>
</g>
</g>
<g id="Group_4">
<path id="Vector_10" d="M1515.59 834.599H1279.01C1253.06 834.599 1232 813.537 1232 787.586V551.014C1232 525.062 1253.06 504 1279.01 504H1515.59C1541.54 504 1562.6 525.062 1562.6 551.014V787.586C1562.6 813.537 1541.54 834.599 1515.59 834.599ZM1279.01 507.761C1255.32 507.761 1235.76 527.319 1235.76 551.014V787.586C1235.76 811.28 1255.32 830.838 1279.01 830.838H1515.59C1539.28 830.838 1558.84 811.28 1558.84 787.586V551.014C1558.84 527.319 1539.66 507.761 1515.59 507.761H1279.01Z" stroke="#A4C639" stroke-width="10"/>
</g>
</g>
</g>
<defs>
<filter id="filter0_d" x="353" y="489" width="264" height="354" filterUnits="userSpaceOnUse" color-interpolation-filters="sRGB">
<feFlood flood-opacity="0" result="BackgroundImageFix"/>
<feColorMatrix in="SourceAlpha" type="matrix" values="0 0 0 0 0 0 0 0 0 0 0 0 0 0 0 0 0 0 127 0"/>
<feOffset dy="4"/>
<feGaussianBlur stdDeviation="2"/>
<feColorMatrix type="matrix" values="0 0 0 0 0 0 0 0 0 0 0 0 0 0 0 0 0 0 0.25 0"/>
<feBlend mode="normal" in2="BackgroundImageFix" result="effect1_dropShadow"/>
<feBlend mode="normal" in="SourceGraphic" in2="effect1_dropShadow" result="shape"/>
</filter>
<linearGradient id="paint0_linear" x1="948.605" y1="-540" x2="31.2584" y2="1110.2" gradientUnits="userSpaceOnUse">
<stop stop-color="#0B0B0B" stop-opacity="0.01"/>
<stop offset="1"/>
</linearGradient>
</defs>
</svg>
