<svg width="1920" height="1080" viewBox="0 0 1920 1080" fill="none" xmlns="http://www.w3.org/2000/svg">
<g clip-path="url(#clip0_1283_2)">
<path d="M1920 0H0V1080H1920V0Z" fill="url(#paint0_linear_1283_2)" fill-opacity="0.5"/>
<path d="M102.213 161.514C102.213 158.671 101.652 156.485 100.532 154.954C99.4382 153.396 97.9759 152.316 96.1446 151.715C94.3132 151.114 92.3042 150.813 90.1176 150.813H80.4826V171.518H89.7896C91.1836 171.518 92.6049 171.381 94.0536 171.108C95.5022 170.835 96.8416 170.343 98.0716 169.632C99.3289 168.921 100.327 167.924 101.065 166.639C101.83 165.327 102.213 163.619 102.213 161.514ZM99.9576 135.52C99.9576 132.322 98.9599 130.053 96.9646 128.714C94.9966 127.347 92.3042 126.664 88.8876 126.664H80.4826V144.95H89.5846C92.9192 144.95 95.4749 144.212 97.2516 142.736C99.0556 141.233 99.9576 138.827 99.9576 135.52ZM109.716 161.268C109.716 164.329 109.101 166.899 107.871 168.976C106.668 171.053 105.042 172.707 102.992 173.937C100.969 175.167 98.7002 176.055 96.1856 176.602C93.6982 177.121 91.1562 177.381 88.5596 177.381H73.3896V120.924H87.2886C89.7759 120.924 92.1949 121.156 94.5456 121.621C96.9236 122.058 99.0556 122.824 100.942 123.917C102.855 124.983 104.386 126.432 105.534 128.263C106.682 130.094 107.256 132.39 107.256 135.151C107.256 137.584 106.75 139.647 105.739 141.342C104.755 143.009 103.456 144.349 101.844 145.36C100.258 146.371 98.5636 147.082 96.7596 147.492C98.8642 147.82 100.901 148.462 102.869 149.419C104.864 150.348 106.504 151.77 107.789 153.683C109.073 155.569 109.716 158.097 109.716 161.268ZM129.774 134.208V164.794C129.774 167.637 130.361 169.687 131.537 170.944C132.712 172.201 134.543 172.83 137.031 172.83C139.409 172.83 141.65 172.16 143.755 170.821C145.887 169.454 147.54 167.842 148.716 165.983V134.208H155.604V177.381H149.741L149.167 171.559C147.472 173.746 145.381 175.427 142.894 176.602C140.406 177.75 137.892 178.324 135.35 178.324C131.168 178.324 128.038 177.217 125.961 175.003C123.911 172.762 122.886 169.632 122.886 165.614V134.208H129.774ZM193.907 134.208V171.928H206.084V177.381H173.694V171.928H187.019V139.661H174.104V134.208H193.907ZM188.413 113.995C189.943 113.995 191.16 114.46 192.062 115.389C192.991 116.318 193.456 117.453 193.456 118.792C193.456 120.186 192.991 121.361 192.062 122.318C191.16 123.247 189.943 123.712 188.413 123.712C186.964 123.712 185.775 123.247 184.846 122.318C183.916 121.361 183.452 120.186 183.452 118.792C183.452 117.453 183.916 116.318 184.846 115.389C185.775 114.46 186.964 113.995 188.413 113.995ZM238.031 116.824V166.721C238.031 168.853 238.687 170.37 239.999 171.272C241.339 172.147 243.061 172.584 245.165 172.584C246.477 172.584 247.721 172.447 248.896 172.174C250.072 171.901 251.247 171.532 252.422 171.067L254.267 176.11C253.092 176.684 251.63 177.19 249.88 177.627C248.158 178.092 246.204 178.324 244.017 178.324C240.191 178.324 237.088 177.272 234.71 175.167C232.332 173.035 231.143 170.097 231.143 166.352V122.277H217.9V116.824H238.031ZM296.219 115.963L303.107 116.824V177.381H297.08L296.424 171.682C294.812 173.978 292.953 175.659 290.848 176.725C288.771 177.791 286.543 178.324 284.165 178.324C280.421 178.324 277.332 177.381 274.899 175.495C272.467 173.609 270.663 170.985 269.487 167.623C268.312 164.234 267.724 160.311 267.724 155.856C267.724 151.537 268.394 147.683 269.733 144.294C271.073 140.877 273 138.199 275.514 136.258C278.056 134.29 281.104 133.306 284.657 133.306C287.145 133.306 289.331 133.743 291.217 134.618C293.103 135.465 294.771 136.723 296.219 138.39V115.963ZM286.461 138.841C282.853 138.841 280.079 140.249 278.138 143.064C276.198 145.879 275.227 150.143 275.227 155.856C275.227 159.573 275.624 162.689 276.416 165.204C277.209 167.719 278.371 169.605 279.901 170.862C281.459 172.119 283.359 172.748 285.6 172.748C288.06 172.748 290.151 172.051 291.873 170.657C293.623 169.263 295.071 167.691 296.219 165.942V144.376C295.044 142.627 293.623 141.274 291.955 140.317C290.288 139.333 288.457 138.841 286.461 138.841ZM390.578 134.208V171.928H402.755V177.381H370.365V171.928H383.69V139.661H370.775V134.208H390.578ZM385.084 113.995C386.615 113.995 387.831 114.46 388.733 115.389C389.663 116.318 390.127 117.453 390.127 118.792C390.127 120.186 389.663 121.361 388.733 122.318C387.831 123.247 386.615 123.712 385.084 123.712C383.636 123.712 382.447 123.247 381.517 122.318C380.588 121.361 380.123 120.186 380.123 118.792C380.123 117.453 380.588 116.318 381.517 115.389C382.447 114.46 383.636 113.995 385.084 113.995ZM417.893 177.381V134.208H423.756L424.289 140.194C426.039 137.98 428.225 136.285 430.849 135.11C433.501 133.907 436.07 133.306 438.557 133.306C442.794 133.306 445.869 134.427 447.782 136.668C449.723 138.909 450.693 142.025 450.693 146.016V177.381H443.805V151.1C443.805 148.148 443.641 145.77 443.313 143.966C442.985 142.135 442.302 140.809 441.263 139.989C440.225 139.142 438.612 138.718 436.425 138.718C434.731 138.718 433.132 139.087 431.628 139.825C430.152 140.563 428.827 141.492 427.651 142.613C426.503 143.706 425.547 144.813 424.781 145.934V177.381H417.893ZM501.337 175.208C499.861 176.192 498.071 176.957 495.966 177.504C493.862 178.051 491.798 178.324 489.775 178.324C485.129 178.324 481.548 177.108 479.033 174.675C476.519 172.242 475.261 169.113 475.261 165.286V139.538H465.339V134.208H475.261V124.409L482.149 123.589V134.208H497.073L496.253 139.538H482.149V165.204C482.149 167.609 482.778 169.441 484.035 170.698C485.32 171.955 487.438 172.584 490.39 172.584C492.003 172.584 493.493 172.393 494.859 172.01C496.226 171.627 497.497 171.135 498.672 170.534L501.337 175.208ZM521.641 158.234C521.778 161.569 522.42 164.302 523.568 166.434C524.716 168.539 526.233 170.097 528.119 171.108C530.005 172.092 532.055 172.584 534.269 172.584C536.483 172.584 538.479 172.256 540.255 171.6C542.059 170.944 543.904 169.974 545.79 168.689L549.029 173.24C547.007 174.825 544.697 176.069 542.1 176.971C539.531 177.873 536.893 178.324 534.187 178.324C530.005 178.324 526.438 177.381 523.486 175.495C520.534 173.609 518.279 170.985 516.721 167.623C515.191 164.234 514.425 160.311 514.425 155.856C514.425 151.483 515.204 147.601 516.762 144.212C518.32 140.823 520.507 138.158 523.322 136.217C526.138 134.276 529.459 133.306 533.285 133.306C536.921 133.306 540.05 134.167 542.674 135.889C545.298 137.584 547.307 140.016 548.701 143.187C550.123 146.33 550.833 150.089 550.833 154.462C550.833 155.2 550.82 155.897 550.792 156.553C550.765 157.182 550.724 157.742 550.669 158.234H521.641ZM533.367 138.964C530.169 138.964 527.491 140.098 525.331 142.367C523.199 144.636 521.983 148.148 521.682 152.904H544.191C544.109 148.285 543.098 144.813 541.157 142.49C539.217 140.139 536.62 138.964 533.367 138.964ZM565.807 177.381V172.092H572.531V139.497H565.807V134.208H577.779L579.05 144.417C580.718 140.864 582.74 138.117 585.118 136.176C587.496 134.235 590.64 133.265 594.548 133.265C595.751 133.265 596.817 133.361 597.746 133.552C598.703 133.716 599.673 133.935 600.657 134.208L598.648 140.358C597.746 140.112 596.926 139.934 596.188 139.825C595.45 139.688 594.603 139.62 593.646 139.62C590.339 139.62 587.496 140.795 585.118 143.146C582.74 145.497 580.841 149.05 579.419 153.806V172.092H588.193V177.381H565.807ZM594.015 148.804V139.415L594.712 134.208H600.657L599.673 148.804H594.015ZM645.479 167.951C645.479 169.673 645.766 170.93 646.34 171.723C646.914 172.516 647.803 173.103 649.005 173.486L647.324 178.324C645.466 178.078 643.839 177.49 642.445 176.561C641.051 175.604 640.04 174.169 639.411 172.256C637.853 174.251 635.913 175.768 633.589 176.807C631.266 177.818 628.697 178.324 625.881 178.324C621.563 178.324 618.16 177.108 615.672 174.675C613.185 172.242 611.941 169.017 611.941 164.999C611.941 160.544 613.677 157.127 617.148 154.749C620.62 152.371 625.635 151.182 632.195 151.182H638.55V147.574C638.55 144.458 637.635 142.258 635.803 140.973C633.999 139.661 631.485 139.005 628.259 139.005C626.838 139.005 625.171 139.183 623.257 139.538C621.344 139.866 619.267 140.426 617.025 141.219L615.221 136.012C617.873 135.028 620.36 134.331 622.683 133.921C625.007 133.511 627.221 133.306 629.325 133.306C634.71 133.306 638.742 134.563 641.42 137.078C644.126 139.565 645.479 142.955 645.479 147.246V167.951ZM627.644 173.076C629.776 173.076 631.813 172.543 633.753 171.477C635.694 170.384 637.293 168.88 638.55 166.967V155.856H632.318C627.562 155.856 624.2 156.676 622.232 158.316C620.292 159.956 619.321 162.156 619.321 164.917C619.321 167.596 620.005 169.632 621.371 171.026C622.765 172.393 624.856 173.076 627.644 173.076ZM683.249 172.379C685.409 172.379 687.418 172.024 689.276 171.313C691.162 170.602 692.898 169.7 694.483 168.607L697.845 173.117C695.959 174.73 693.691 176.001 691.039 176.93C688.388 177.859 685.791 178.324 683.249 178.324C678.958 178.324 675.295 177.408 672.261 175.577C669.255 173.718 666.959 171.122 665.373 167.787C663.788 164.425 662.995 160.489 662.995 155.979C662.995 151.66 663.788 147.793 665.373 144.376C666.986 140.932 669.296 138.226 672.302 136.258C675.336 134.29 679.013 133.306 683.331 133.306C686.092 133.306 688.675 133.73 691.08 134.577C693.513 135.397 695.741 136.641 697.763 138.308L694.401 142.9C692.57 141.615 690.725 140.659 688.866 140.03C687.035 139.374 685.163 139.046 683.249 139.046C679.532 139.046 676.471 140.44 674.065 143.228C671.66 146.016 670.457 150.266 670.457 155.979C670.457 159.806 671.004 162.935 672.097 165.368C673.218 167.773 674.735 169.55 676.648 170.698C678.589 171.819 680.789 172.379 683.249 172.379ZM747.177 175.208C745.701 176.192 743.911 176.957 741.806 177.504C739.701 178.051 737.638 178.324 735.615 178.324C730.968 178.324 727.388 177.108 724.873 174.675C722.358 172.242 721.101 169.113 721.101 165.286V139.538H711.179V134.208H721.101V124.409L727.989 123.589V134.208H742.913L742.093 139.538H727.989V165.204C727.989 167.609 728.618 169.441 729.875 170.698C731.16 171.955 733.278 172.584 736.23 172.584C737.843 172.584 739.332 172.393 740.699 172.01C742.066 171.627 743.337 171.135 744.512 170.534L747.177 175.208ZM783.922 134.208V171.928H796.099V177.381H763.709V171.928H777.034V139.661H764.119V134.208H783.922ZM778.428 113.995C779.959 113.995 781.175 114.46 782.077 115.389C783.006 116.318 783.471 117.453 783.471 118.792C783.471 120.186 783.006 121.361 782.077 122.318C781.175 123.247 779.959 123.712 778.428 123.712C776.979 123.712 775.79 123.247 774.861 122.318C773.932 121.361 773.467 120.186 773.467 118.792C773.467 117.453 773.932 116.318 774.861 115.389C775.79 114.46 776.979 113.995 778.428 113.995ZM847.235 134.208L831.532 177.381H823.537L807.957 134.208H815.255L827.76 171.108L840.101 134.208H847.235ZM865.817 158.234C865.954 161.569 866.596 164.302 867.744 166.434C868.892 168.539 870.409 170.097 872.295 171.108C874.181 172.092 876.231 172.584 878.445 172.584C880.659 172.584 882.654 172.256 884.431 171.6C886.235 170.944 888.08 169.974 889.966 168.689L893.205 173.24C891.182 174.825 888.873 176.069 886.276 176.971C883.707 177.873 881.069 178.324 878.363 178.324C874.181 178.324 870.614 177.381 867.662 175.495C864.71 173.609 862.455 170.985 860.897 167.623C859.366 164.234 858.601 160.311 858.601 155.856C858.601 151.483 859.38 147.601 860.938 144.212C862.496 140.823 864.683 138.158 867.498 136.217C870.313 134.276 873.634 133.306 877.461 133.306C881.096 133.306 884.226 134.167 886.85 135.889C889.474 137.584 891.483 140.016 892.877 143.187C894.298 146.33 895.009 150.089 895.009 154.462C895.009 155.2 894.995 155.897 894.968 156.553C894.941 157.182 894.9 157.742 894.845 158.234H865.817ZM877.543 138.964C874.345 138.964 871.666 140.098 869.507 142.367C867.375 144.636 866.159 148.148 865.858 152.904H888.367C888.285 148.285 887.274 144.813 885.333 142.49C883.392 140.139 880.796 138.964 877.543 138.964ZM973.378 120.104C975.838 120.104 978.175 120.5 980.389 121.293C982.603 122.086 984.831 123.712 987.072 126.172L982.931 129.944C981.537 128.359 980.088 127.183 978.585 126.418C977.109 125.653 975.346 125.27 973.296 125.27C970.426 125.27 968.267 126.049 966.818 127.607C965.369 129.138 964.645 131.119 964.645 133.552C964.645 135.219 965.096 136.777 965.998 138.226C966.9 139.647 968.116 140.795 969.647 141.67C971.178 142.545 972.872 142.982 974.731 142.982H997.527V148.394H990.188V170.698C989.368 171.764 988.234 172.885 986.785 174.06C985.364 175.235 983.532 176.247 981.291 177.094C979.05 177.914 976.344 178.324 973.173 178.324C968.909 178.324 965.424 177.504 962.718 175.864C960.039 174.224 958.058 172.119 956.773 169.55C955.516 166.953 954.887 164.247 954.887 161.432C954.887 157.195 955.994 153.724 958.208 151.018C960.449 148.312 963.634 146.535 967.761 145.688V145.442C965.274 144.868 963.306 143.98 961.857 142.777C960.436 141.547 959.411 140.139 958.782 138.554C958.181 136.941 957.88 135.288 957.88 133.593C957.88 131.16 958.509 128.933 959.766 126.91C961.023 124.86 962.814 123.22 965.137 121.99C967.46 120.733 970.207 120.104 973.378 120.104ZM983.915 148.394H973.747C970.904 148.394 968.595 149.064 966.818 150.403C965.041 151.715 963.729 153.355 962.882 155.323C962.062 157.264 961.652 159.218 961.652 161.186C961.652 163.154 962.048 165.026 962.841 166.803C963.661 168.58 964.918 170.015 966.613 171.108C968.335 172.201 970.576 172.748 973.337 172.748C975.633 172.748 977.683 172.379 979.487 171.641C981.318 170.876 982.794 169.796 983.915 168.402V148.394ZM1057.08 177.381V134.208H1062.94L1063.47 140.194C1065.22 137.98 1067.41 136.285 1070.03 135.11C1072.68 133.907 1075.25 133.306 1077.74 133.306C1081.98 133.306 1085.05 134.427 1086.97 136.668C1088.91 138.909 1089.88 142.025 1089.88 146.016V177.381H1082.99V151.1C1082.99 148.148 1082.82 145.77 1082.5 143.966C1082.17 142.135 1081.49 140.809 1080.45 139.989C1079.41 139.142 1077.8 138.718 1075.61 138.718C1073.91 138.718 1072.32 139.087 1070.81 139.825C1069.34 140.563 1068.01 141.492 1066.83 142.613C1065.69 143.706 1064.73 144.813 1063.96 145.934V177.381H1057.08ZM1122.69 133.306C1126.76 133.306 1130.16 134.235 1132.89 136.094C1135.66 137.925 1137.72 140.522 1139.09 143.884C1140.48 147.246 1141.18 151.209 1141.18 155.774C1141.18 160.175 1140.47 164.07 1139.04 167.459C1137.62 170.848 1135.53 173.513 1132.77 175.454C1130.04 177.367 1126.65 178.324 1122.6 178.324C1118.56 178.324 1115.16 177.395 1112.39 175.536C1109.63 173.677 1107.54 171.067 1106.12 167.705C1104.73 164.316 1104.03 160.366 1104.03 155.856C1104.03 151.401 1104.74 147.478 1106.16 144.089C1107.58 140.7 1109.68 138.062 1112.44 136.176C1115.22 134.263 1118.64 133.306 1122.69 133.306ZM1122.69 138.923C1118.97 138.923 1116.15 140.303 1114.24 143.064C1112.35 145.797 1111.41 150.061 1111.41 155.856C1111.41 161.541 1112.34 165.764 1114.2 168.525C1116.08 171.286 1118.89 172.666 1122.6 172.666C1126.32 172.666 1129.11 171.286 1130.97 168.525C1132.85 165.764 1133.8 161.514 1133.8 155.774C1133.8 150.034 1132.87 145.797 1131.01 143.064C1129.15 140.303 1126.38 138.923 1122.69 138.923ZM1155.41 177.381V134.208H1161.28L1161.81 140.194C1163.56 137.98 1165.74 136.285 1168.37 135.11C1171.02 133.907 1173.59 133.306 1176.08 133.306C1180.31 133.306 1183.39 134.427 1185.3 136.668C1187.24 138.909 1188.21 142.025 1188.21 146.016V177.381H1181.32V151.1C1181.32 148.148 1181.16 145.77 1180.83 143.966C1180.5 142.135 1179.82 140.809 1178.78 139.989C1177.74 139.142 1176.13 138.718 1173.94 138.718C1172.25 138.718 1170.65 139.087 1169.15 139.825C1167.67 140.563 1166.35 141.492 1165.17 142.613C1164.02 143.706 1163.07 144.813 1162.3 145.934V177.381H1155.41ZM1204.5 157.988V152.002H1237.38V157.988H1204.5ZM1260.64 139.825C1262.22 137.748 1264.04 136.149 1266.09 135.028C1268.17 133.88 1270.45 133.306 1272.94 133.306C1276.79 133.306 1279.91 134.235 1282.28 136.094C1284.66 137.953 1286.4 140.577 1287.49 143.966C1288.59 147.328 1289.13 151.264 1289.13 155.774C1289.13 160.12 1288.48 164.001 1287.16 167.418C1285.85 170.807 1283.92 173.472 1281.38 175.413C1278.87 177.354 1275.75 178.324 1272.03 178.324C1267.03 178.324 1263.11 176.52 1260.27 172.912L1259.78 177.381H1253.75V116.824L1260.64 115.963V139.825ZM1270.39 172.748C1274 172.748 1276.78 171.354 1278.72 168.566C1280.66 165.778 1281.63 161.5 1281.63 155.733C1281.63 151.961 1281.25 148.831 1280.48 146.344C1279.72 143.829 1278.57 141.957 1277.04 140.727C1275.53 139.47 1273.67 138.841 1271.46 138.841C1269.06 138.841 1266.94 139.565 1265.11 141.014C1263.3 142.435 1261.81 144.021 1260.64 145.77V167.172C1261.76 168.867 1263.17 170.22 1264.86 171.231C1266.58 172.242 1268.43 172.748 1270.39 172.748ZM1319.73 116.824V166.721C1319.73 168.853 1320.38 170.37 1321.69 171.272C1323.03 172.147 1324.76 172.584 1326.86 172.584C1328.17 172.584 1329.42 172.447 1330.59 172.174C1331.77 171.901 1332.94 171.532 1334.12 171.067L1335.96 176.11C1334.79 176.684 1333.33 177.19 1331.58 177.627C1329.85 178.092 1327.9 178.324 1325.71 178.324C1321.89 178.324 1318.78 177.272 1316.41 175.167C1314.03 173.035 1312.84 170.097 1312.84 166.352V122.277H1299.6V116.824H1319.73ZM1368.53 133.306C1372.6 133.306 1376 134.235 1378.73 136.094C1381.5 137.925 1383.56 140.522 1384.93 143.884C1386.32 147.246 1387.02 151.209 1387.02 155.774C1387.02 160.175 1386.31 164.07 1384.88 167.459C1383.46 170.848 1381.37 173.513 1378.61 175.454C1375.88 177.367 1372.49 178.324 1368.44 178.324C1364.4 178.324 1361 177.395 1358.23 175.536C1355.47 173.677 1353.38 171.067 1351.96 167.705C1350.57 164.316 1349.87 160.366 1349.87 155.856C1349.87 151.401 1350.58 147.478 1352 144.089C1353.42 140.7 1355.52 138.062 1358.28 136.176C1361.06 134.263 1364.48 133.306 1368.53 133.306ZM1368.53 138.923C1364.81 138.923 1361.99 140.303 1360.08 143.064C1358.19 145.797 1357.25 150.061 1357.25 155.856C1357.25 161.541 1358.18 165.764 1360.04 168.525C1361.92 171.286 1364.73 172.666 1368.44 172.666C1372.16 172.666 1374.95 171.286 1376.81 168.525C1378.69 165.764 1379.64 161.514 1379.64 155.774C1379.64 150.034 1378.71 145.797 1376.85 143.064C1374.99 140.303 1372.22 138.923 1368.53 138.923ZM1420.77 172.379C1422.93 172.379 1424.94 172.024 1426.8 171.313C1428.68 170.602 1430.42 169.7 1432 168.607L1435.36 173.117C1433.48 174.73 1431.21 176.001 1428.56 176.93C1425.91 177.859 1423.31 178.324 1420.77 178.324C1416.48 178.324 1412.81 177.408 1409.78 175.577C1406.77 173.718 1404.48 171.122 1402.89 167.787C1401.31 164.425 1400.51 160.489 1400.51 155.979C1400.51 151.66 1401.31 147.793 1402.89 144.376C1404.51 140.932 1406.82 138.226 1409.82 136.258C1412.86 134.29 1416.53 133.306 1420.85 133.306C1423.61 133.306 1426.19 133.73 1428.6 134.577C1431.03 135.397 1433.26 136.641 1435.28 138.308L1431.92 142.9C1430.09 141.615 1428.24 140.659 1426.39 140.03C1424.55 139.374 1422.68 139.046 1420.77 139.046C1417.05 139.046 1413.99 140.44 1411.58 143.228C1409.18 146.016 1407.98 150.266 1407.98 155.979C1407.98 159.806 1408.52 162.935 1409.62 165.368C1410.74 167.773 1412.25 169.55 1414.17 170.698C1416.11 171.819 1418.31 172.379 1420.77 172.379ZM1486.58 134.208L1467.15 153.642L1488.84 177.381H1479.78L1458.54 153.806L1477.64 134.208H1486.58ZM1457.76 115.963V177.381H1450.87V116.824L1457.76 115.963ZM1521.44 134.208V171.928H1533.62V177.381H1501.23V171.928H1514.55V139.661H1501.64V134.208H1521.44ZM1515.95 113.995C1517.48 113.995 1518.69 114.46 1519.6 115.389C1520.53 116.318 1520.99 117.453 1520.99 118.792C1520.99 120.186 1520.53 121.361 1519.6 122.318C1518.69 123.247 1517.48 123.712 1515.95 123.712C1514.5 123.712 1513.31 123.247 1512.38 122.318C1511.45 121.361 1510.99 120.186 1510.99 118.792C1510.99 117.453 1511.45 116.318 1512.38 115.389C1513.31 114.46 1514.5 113.995 1515.95 113.995ZM1548.76 177.381V134.208H1554.62L1555.15 140.194C1556.9 137.98 1559.09 136.285 1561.71 135.11C1564.36 133.907 1566.93 133.306 1569.42 133.306C1573.66 133.306 1576.73 134.427 1578.65 136.668C1580.59 138.909 1581.56 142.025 1581.56 146.016V177.381H1574.67V151.1C1574.67 148.148 1574.5 145.77 1574.18 143.966C1573.85 142.135 1573.17 140.809 1572.13 139.989C1571.09 139.142 1569.48 138.718 1567.29 138.718C1565.59 138.718 1563.99 139.087 1562.49 139.825C1561.02 140.563 1559.69 141.492 1558.51 142.613C1557.37 143.706 1556.41 144.813 1555.64 145.934V177.381H1548.76ZM1633.02 129.616L1635.15 136.094C1633.32 136.668 1631.37 137.023 1629.29 137.16C1627.21 137.297 1624.96 137.365 1622.52 137.365C1625.01 138.513 1626.88 140.003 1628.14 141.834C1629.4 143.638 1630.03 145.77 1630.03 148.23C1630.03 151.073 1629.39 153.601 1628.1 155.815C1626.82 158.029 1624.96 159.765 1622.52 161.022C1620.12 162.279 1617.21 162.908 1613.79 162.908C1612.34 162.908 1611.13 162.84 1610.14 162.703C1609.19 162.566 1608.26 162.361 1607.35 162.088C1606.7 162.525 1606.15 163.127 1605.71 163.892C1605.3 164.657 1605.1 165.45 1605.1 166.27C1605.1 167.309 1605.51 168.17 1606.33 168.853C1607.15 169.536 1608.67 169.878 1610.88 169.878H1618.67C1621.57 169.878 1624.16 170.397 1626.46 171.436C1628.78 172.475 1630.6 173.869 1631.91 175.618C1633.25 177.367 1633.92 179.363 1633.92 181.604C1633.92 185.841 1632.12 189.093 1628.51 191.362C1624.93 193.631 1619.86 194.765 1613.3 194.765C1608.71 194.765 1605.09 194.287 1602.43 193.33C1599.78 192.401 1597.88 190.966 1596.74 189.025C1595.61 187.112 1595.05 184.693 1595.05 181.768H1601.29C1601.29 183.435 1601.61 184.816 1602.27 185.909C1602.93 187.002 1604.12 187.809 1605.84 188.328C1607.56 188.875 1610.03 189.148 1613.26 189.148C1616.43 189.148 1619.01 188.875 1621.01 188.328C1623.03 187.809 1624.52 187.016 1625.48 185.95C1626.46 184.911 1626.95 183.613 1626.95 182.055C1626.95 180.005 1626.02 178.461 1624.16 177.422C1622.31 176.383 1619.98 175.864 1617.19 175.864H1609.49C1605.77 175.864 1603.02 175.044 1601.25 173.404C1599.5 171.764 1598.62 169.878 1598.62 167.746C1598.62 166.352 1599.02 164.999 1599.81 163.687C1600.63 162.375 1601.82 161.213 1603.38 160.202C1600.89 158.89 1599.06 157.264 1597.88 155.323C1596.71 153.382 1596.12 151.032 1596.12 148.271C1596.12 145.346 1596.84 142.763 1598.29 140.522C1599.74 138.253 1601.76 136.477 1604.36 135.192C1606.96 133.907 1609.95 133.265 1613.34 133.265C1616.98 133.238 1619.93 133.087 1622.2 132.814C1624.47 132.513 1626.41 132.09 1628.02 131.543C1629.66 130.996 1631.33 130.354 1633.02 129.616ZM1613.34 138.308C1609.87 138.308 1607.3 139.251 1605.63 141.137C1603.99 142.996 1603.17 145.374 1603.17 148.271C1603.17 151.196 1604.02 153.601 1605.71 155.487C1607.41 157.373 1610.01 158.316 1613.5 158.316C1616.57 158.316 1618.89 157.428 1620.47 155.651C1622.09 153.874 1622.89 151.401 1622.89 148.23C1622.89 144.977 1622.09 142.517 1620.47 140.85C1618.89 139.155 1616.51 138.308 1613.34 138.308ZM1717.38 120.022C1721.07 120.022 1724.15 120.487 1726.64 121.416C1729.13 122.345 1731.49 123.712 1733.73 125.516L1729.76 130.149C1727.98 128.646 1726.09 127.58 1724.1 126.951C1722.13 126.295 1720.07 125.967 1717.91 125.967C1714.82 125.967 1711.96 126.705 1709.34 128.181C1706.72 129.63 1704.6 132.049 1702.98 135.438C1701.4 138.8 1700.61 143.365 1700.61 149.132C1700.61 154.735 1701.36 159.232 1702.86 162.621C1704.39 166.01 1706.46 168.457 1709.05 169.96C1711.65 171.463 1714.55 172.215 1717.74 172.215C1720.92 172.215 1723.51 171.737 1725.53 170.78C1727.58 169.823 1729.36 168.73 1730.86 167.5L1734.55 172.174C1732.83 173.841 1730.59 175.29 1727.83 176.52C1725.07 177.723 1721.68 178.324 1717.66 178.324C1713.1 178.324 1708.96 177.203 1705.24 174.962C1701.55 172.721 1698.62 169.441 1696.47 165.122C1694.31 160.776 1693.23 155.446 1693.23 149.132C1693.23 142.791 1694.32 137.461 1696.51 133.142C1698.72 128.823 1701.66 125.557 1705.32 123.343C1709.01 121.129 1713.03 120.022 1717.38 120.022ZM1748.3 177.381V120.924H1755.43V171.026H1781.18L1780.36 177.381H1748.3ZM1827.11 120.924V126.623H1814.56V171.682H1827.11V177.381H1794.8V171.682H1807.35V126.623H1794.8V120.924H1827.11ZM448.807 275.951C448.807 277.673 449.094 278.93 449.668 279.723C450.242 280.516 451.131 281.103 452.333 281.486L450.652 286.324C448.794 286.078 447.167 285.49 445.773 284.561C444.379 283.604 443.368 282.169 442.739 280.256C441.181 282.251 439.241 283.768 436.917 284.807C434.594 285.818 432.025 286.324 429.209 286.324C424.891 286.324 421.488 285.108 419 282.675C416.513 280.242 415.269 277.017 415.269 272.999C415.269 268.544 417.005 265.127 420.476 262.749C423.948 260.371 428.963 259.182 435.523 259.182H441.878V255.574C441.878 252.458 440.963 250.258 439.131 248.973C437.327 247.661 434.813 247.005 431.587 247.005C430.166 247.005 428.499 247.183 426.585 247.538C424.672 247.866 422.595 248.426 420.353 249.219L418.549 244.012C421.201 243.028 423.688 242.331 426.011 241.921C428.335 241.511 430.549 241.306 432.653 241.306C438.038 241.306 442.07 242.563 444.748 245.078C447.454 247.565 448.807 250.955 448.807 255.246V275.951ZM430.972 281.076C433.104 281.076 435.141 280.543 437.081 279.477C439.022 278.384 440.621 276.88 441.878 274.967V263.856H435.646C430.89 263.856 427.528 264.676 425.56 266.316C423.62 267.956 422.649 270.156 422.649 272.917C422.649 275.596 423.333 277.632 424.699 279.026C426.093 280.393 428.184 281.076 430.972 281.076ZM486.372 241.306C490.199 241.306 493.247 242.235 495.515 244.094C497.811 245.953 499.465 248.577 500.476 251.966C501.488 255.328 501.993 259.264 501.993 263.774C501.993 268.12 501.378 272.001 500.148 275.418C498.946 278.807 497.114 281.472 494.654 283.413C492.194 285.354 489.092 286.324 485.347 286.324C480.619 286.324 476.819 284.657 473.949 281.322V301.904L467.061 302.765V242.208H472.924L473.498 248.235C475.084 246.021 476.97 244.313 479.156 243.11C481.37 241.907 483.776 241.306 486.372 241.306ZM484.732 246.841C482.354 246.841 480.25 247.565 478.418 249.014C476.614 250.435 475.125 252.021 473.949 253.77V275.172C475.07 276.839 476.478 278.165 478.172 279.149C479.894 280.106 481.78 280.584 483.83 280.584C487.411 280.584 490.103 279.217 491.907 276.484C493.711 273.751 494.613 269.5 494.613 263.733C494.613 259.961 494.258 256.831 493.547 254.344C492.837 251.829 491.757 249.957 490.308 248.727C488.86 247.47 487.001 246.841 484.732 246.841ZM535.54 241.306C539.367 241.306 542.415 242.235 544.683 244.094C546.979 245.953 548.633 248.577 549.644 251.966C550.656 255.328 551.161 259.264 551.161 263.774C551.161 268.12 550.546 272.001 549.316 275.418C548.114 278.807 546.282 281.472 543.822 283.413C541.362 285.354 538.26 286.324 534.515 286.324C529.787 286.324 525.987 284.657 523.117 281.322V301.904L516.229 302.765V242.208H522.092L522.666 248.235C524.252 246.021 526.138 244.313 528.324 243.11C530.538 241.907 532.944 241.306 535.54 241.306ZM533.9 246.841C531.522 246.841 529.418 247.565 527.586 249.014C525.782 250.435 524.293 252.021 523.117 253.77V275.172C524.238 276.839 525.646 278.165 527.34 279.149C529.062 280.106 530.948 280.584 532.998 280.584C536.579 280.584 539.271 279.217 541.075 276.484C542.879 273.751 543.781 269.5 543.781 263.733C543.781 259.961 543.426 256.831 542.715 254.344C542.005 251.829 540.925 249.957 539.476 248.727C538.028 247.47 536.169 246.841 533.9 246.841ZM580.075 280.625C583.383 280.625 585.993 280.01 587.906 278.78C589.847 277.523 590.817 275.855 590.817 273.778C590.817 272.466 590.571 271.332 590.079 270.375C589.615 269.418 588.644 268.557 587.168 267.792C585.692 267.027 583.424 266.261 580.362 265.496C577.383 264.758 574.786 263.911 572.572 262.954C570.386 261.97 568.677 260.699 567.447 259.141C566.245 257.583 565.643 255.56 565.643 253.073C565.643 250.64 566.327 248.549 567.693 246.8C569.087 245.023 571.014 243.67 573.474 242.741C575.934 241.784 578.791 241.306 582.043 241.306C585.515 241.306 588.535 241.771 591.104 242.7C593.701 243.602 595.901 244.723 597.705 246.062L594.671 250.736C593.031 249.615 591.227 248.7 589.259 247.989C587.291 247.251 584.913 246.882 582.125 246.882C578.736 246.882 576.331 247.415 574.909 248.481C573.488 249.52 572.777 250.873 572.777 252.54C572.777 253.797 573.119 254.85 573.802 255.697C574.513 256.517 575.702 257.269 577.369 257.952C579.037 258.608 581.333 259.332 584.257 260.125C587.073 260.863 589.519 261.751 591.596 262.79C593.701 263.829 595.341 265.195 596.516 266.89C597.692 268.585 598.279 270.771 598.279 273.45C598.279 276.511 597.405 278.999 595.655 280.912C593.906 282.798 591.637 284.178 588.849 285.053C586.089 285.9 583.164 286.324 580.075 286.324C576.167 286.324 572.832 285.764 570.071 284.643C567.338 283.495 565.042 282.115 563.183 280.502L567.119 275.951C568.814 277.345 570.755 278.479 572.941 279.354C575.155 280.201 577.533 280.625 580.075 280.625ZM695.713 285.381H685.955L680.379 253.688L674.311 285.381H664.799L656.927 242.208H663.979L669.473 281.117L676.361 247.702H684.52L691.039 281.117L696.533 242.208H703.257L695.713 285.381ZM734.754 242.208V279.928H746.931V285.381H714.541V279.928H727.866V247.661H714.951V242.208H734.754ZM729.26 221.995C730.791 221.995 732.007 222.46 732.909 223.389C733.838 224.318 734.303 225.453 734.303 226.792C734.303 228.186 733.838 229.361 732.909 230.318C732.007 231.247 730.791 231.712 729.26 231.712C727.811 231.712 726.622 231.247 725.693 230.318C724.764 229.361 724.299 228.186 724.299 226.792C724.299 225.453 724.764 224.318 725.693 223.389C726.622 222.46 727.811 221.995 729.26 221.995ZM796.345 283.208C794.869 284.192 793.079 284.957 790.974 285.504C788.869 286.051 786.806 286.324 784.783 286.324C780.136 286.324 776.556 285.108 774.041 282.675C771.526 280.242 770.269 277.113 770.269 273.286V247.538H760.347V242.208H770.269V232.409L777.157 231.589V242.208H792.081L791.261 247.538H777.157V273.204C777.157 275.609 777.786 277.441 779.043 278.698C780.328 279.955 782.446 280.584 785.398 280.584C787.011 280.584 788.5 280.393 789.867 280.01C791.234 279.627 792.505 279.135 793.68 278.534L796.345 283.208ZM818.125 224.168V248.112C819.82 245.843 821.897 244.149 824.357 243.028C826.844 241.88 829.359 241.306 831.901 241.306C836.11 241.306 839.185 242.427 841.126 244.668C843.067 246.909 844.037 250.025 844.037 254.016V285.381H837.149V254.18C837.149 251.583 836.548 249.697 835.345 248.522C834.142 247.319 832.256 246.718 829.687 246.718C828.047 246.718 826.489 247.087 825.013 247.825C823.537 248.563 822.211 249.479 821.036 250.572C819.861 251.665 818.89 252.786 818.125 253.934V285.381H811.237V224.906L818.125 224.168ZM914.985 266.234C915.122 269.569 915.764 272.302 916.912 274.434C918.06 276.539 919.577 278.097 921.463 279.108C923.349 280.092 925.399 280.584 927.613 280.584C929.827 280.584 931.822 280.256 933.599 279.6C935.403 278.944 937.248 277.974 939.134 276.689L942.373 281.24C940.35 282.825 938.041 284.069 935.444 284.971C932.875 285.873 930.237 286.324 927.531 286.324C923.349 286.324 919.782 285.381 916.83 283.495C913.878 281.609 911.623 278.985 910.065 275.623C908.534 272.234 907.769 268.311 907.769 263.856C907.769 259.483 908.548 255.601 910.106 252.212C911.664 248.823 913.851 246.158 916.666 244.217C919.481 242.276 922.802 241.306 926.629 241.306C930.264 241.306 933.394 242.167 936.018 243.889C938.642 245.584 940.651 248.016 942.045 251.187C943.466 254.33 944.177 258.089 944.177 262.462C944.177 263.2 944.163 263.897 944.136 264.553C944.109 265.182 944.068 265.742 944.013 266.234H914.985ZM926.711 246.964C923.513 246.964 920.834 248.098 918.675 250.367C916.543 252.636 915.327 256.148 915.026 260.904H937.535C937.453 256.285 936.442 252.813 934.501 250.49C932.56 248.139 929.964 246.964 926.711 246.964ZM989.655 275.951C989.655 277.673 989.942 278.93 990.516 279.723C991.09 280.516 991.978 281.103 993.181 281.486L991.5 286.324C989.641 286.078 988.015 285.49 986.621 284.561C985.227 283.604 984.216 282.169 983.587 280.256C982.029 282.251 980.088 283.768 977.765 284.807C975.442 285.818 972.872 286.324 970.057 286.324C965.738 286.324 962.335 285.108 959.848 282.675C957.361 280.242 956.117 277.017 956.117 272.999C956.117 268.544 957.853 265.127 961.324 262.749C964.795 260.371 969.811 259.182 976.371 259.182H982.726V255.574C982.726 252.458 981.81 250.258 979.979 248.973C978.175 247.661 975.66 247.005 972.435 247.005C971.014 247.005 969.346 247.183 967.433 247.538C965.52 247.866 963.442 248.426 961.201 249.219L959.397 244.012C962.048 243.028 964.536 242.331 966.859 241.921C969.182 241.511 971.396 241.306 973.501 241.306C978.886 241.306 982.917 242.563 985.596 245.078C988.302 247.565 989.655 250.955 989.655 255.246V275.951ZM971.82 281.076C973.952 281.076 975.988 280.543 977.929 279.477C979.87 278.384 981.469 276.88 982.726 274.967V263.856H976.494C971.738 263.856 968.376 264.676 966.408 266.316C964.467 267.956 963.497 270.156 963.497 272.917C963.497 275.596 964.18 277.632 965.547 279.026C966.941 280.393 969.032 281.076 971.82 281.076ZM1022.59 280.625C1025.89 280.625 1028.5 280.01 1030.42 278.78C1032.36 277.523 1033.33 275.855 1033.33 273.778C1033.33 272.466 1033.08 271.332 1032.59 270.375C1032.13 269.418 1031.16 268.557 1029.68 267.792C1028.2 267.027 1025.94 266.261 1022.87 265.496C1019.89 264.758 1017.3 263.911 1015.08 262.954C1012.9 261.97 1011.19 260.699 1009.96 259.141C1008.76 257.583 1008.15 255.56 1008.15 253.073C1008.15 250.64 1008.84 248.549 1010.2 246.8C1011.6 245.023 1013.53 243.67 1015.99 242.741C1018.45 241.784 1021.3 241.306 1024.55 241.306C1028.03 241.306 1031.05 241.771 1033.62 242.7C1036.21 243.602 1038.41 244.723 1040.22 246.062L1037.18 250.736C1035.54 249.615 1033.74 248.7 1031.77 247.989C1029.8 247.251 1027.42 246.882 1024.64 246.882C1021.25 246.882 1018.84 247.415 1017.42 248.481C1016 249.52 1015.29 250.873 1015.29 252.54C1015.29 253.797 1015.63 254.85 1016.31 255.697C1017.02 256.517 1018.21 257.269 1019.88 257.952C1021.55 258.608 1023.84 259.332 1026.77 260.125C1029.58 260.863 1032.03 261.751 1034.11 262.79C1036.21 263.829 1037.85 265.195 1039.03 266.89C1040.2 268.585 1040.79 270.771 1040.79 273.45C1040.79 276.511 1039.92 278.999 1038.17 280.912C1036.42 282.798 1034.15 284.178 1031.36 285.053C1028.6 285.9 1025.68 286.324 1022.59 286.324C1018.68 286.324 1015.34 285.764 1012.58 284.643C1009.85 283.495 1007.55 282.115 1005.69 280.502L1009.63 275.951C1011.33 277.345 1013.27 278.479 1015.45 279.354C1017.67 280.201 1020.04 280.625 1022.59 280.625ZM1062.49 266.234C1062.63 269.569 1063.27 272.302 1064.42 274.434C1065.56 276.539 1067.08 278.097 1068.97 279.108C1070.85 280.092 1072.9 280.584 1075.12 280.584C1077.33 280.584 1079.33 280.256 1081.1 279.6C1082.91 278.944 1084.75 277.974 1086.64 276.689L1089.88 281.24C1087.85 282.825 1085.54 284.069 1082.95 284.971C1080.38 285.873 1077.74 286.324 1075.03 286.324C1070.85 286.324 1067.29 285.381 1064.33 283.495C1061.38 281.609 1059.13 278.985 1057.57 275.623C1056.04 272.234 1055.27 268.311 1055.27 263.856C1055.27 259.483 1056.05 255.601 1057.61 252.212C1059.17 248.823 1061.35 246.158 1064.17 244.217C1066.99 242.276 1070.31 241.306 1074.13 241.306C1077.77 241.306 1080.9 242.167 1083.52 243.889C1086.15 245.584 1088.15 248.016 1089.55 251.187C1090.97 254.33 1091.68 258.089 1091.68 262.462C1091.68 263.2 1091.67 263.897 1091.64 264.553C1091.61 265.182 1091.57 265.742 1091.52 266.234H1062.49ZM1074.21 246.964C1071.02 246.964 1068.34 248.098 1066.18 250.367C1064.05 252.636 1062.83 256.148 1062.53 260.904H1085.04C1084.96 256.285 1083.95 252.813 1082 250.49C1080.06 248.139 1077.47 246.964 1074.21 246.964ZM1177.27 242.208V279.928H1189.44V285.381H1157.05V279.928H1170.38V247.661H1157.46V242.208H1177.27ZM1171.77 221.995C1173.3 221.995 1174.52 222.46 1175.42 223.389C1176.35 224.318 1176.81 225.453 1176.81 226.792C1176.81 228.186 1176.35 229.361 1175.42 230.318C1174.52 231.247 1173.3 231.712 1171.77 231.712C1170.32 231.712 1169.13 231.247 1168.2 230.318C1167.28 229.361 1166.81 228.186 1166.81 226.792C1166.81 225.453 1167.28 224.318 1168.2 223.389C1169.13 222.46 1170.32 221.995 1171.77 221.995ZM1204.58 285.381V242.208H1210.44L1210.98 248.194C1212.73 245.98 1214.91 244.285 1217.54 243.11C1220.19 241.907 1222.76 241.306 1225.24 241.306C1229.48 241.306 1232.56 242.427 1234.47 244.668C1236.41 246.909 1237.38 250.025 1237.38 254.016V285.381H1230.49V259.1C1230.49 256.148 1230.33 253.77 1230 251.966C1229.67 250.135 1228.99 248.809 1227.95 247.989C1226.91 247.142 1225.3 246.718 1223.11 246.718C1221.42 246.718 1219.82 247.087 1218.32 247.825C1216.84 248.563 1215.51 249.492 1214.34 250.613C1213.19 251.706 1212.23 252.813 1211.47 253.934V285.381H1204.58ZM1338.75 244.75C1338.75 247.565 1338.14 250.025 1336.91 252.13C1335.7 254.235 1334.06 255.97 1331.99 257.337C1329.91 258.704 1327.57 259.701 1324.97 260.33L1341.7 285.381H1333.17L1317.76 261.15H1310.13V285.381H1303V228.924H1317.51C1324.48 228.924 1329.76 230.263 1333.34 232.942C1336.95 235.593 1338.75 239.529 1338.75 244.75ZM1331.12 244.75C1331.12 241.115 1330.09 238.518 1328.01 236.96C1325.93 235.375 1322.71 234.582 1318.33 234.582H1310.13V255.574H1318.33C1322.38 255.574 1325.52 254.754 1327.76 253.114C1330 251.447 1331.12 248.659 1331.12 244.75ZM1358.97 242.208V272.794C1358.97 275.637 1359.56 277.687 1360.74 278.944C1361.91 280.201 1363.74 280.83 1366.23 280.83C1368.61 280.83 1370.85 280.16 1372.95 278.821C1375.09 277.454 1376.74 275.842 1377.91 273.983V242.208H1384.8V285.381H1378.94L1378.37 279.559C1376.67 281.746 1374.58 283.427 1372.09 284.602C1369.61 285.75 1367.09 286.324 1364.55 286.324C1360.37 286.324 1357.24 285.217 1355.16 283.003C1353.11 280.762 1352.08 277.632 1352.08 273.614V242.208H1358.97ZM1415.93 280.625C1419.24 280.625 1421.85 280.01 1423.76 278.78C1425.7 277.523 1426.67 275.855 1426.67 273.778C1426.67 272.466 1426.43 271.332 1425.93 270.375C1425.47 269.418 1424.5 268.557 1423.02 267.792C1421.55 267.027 1419.28 266.261 1416.22 265.496C1413.24 264.758 1410.64 263.911 1408.43 262.954C1406.24 261.97 1404.53 260.699 1403.3 259.141C1402.1 257.583 1401.5 255.56 1401.5 253.073C1401.5 250.64 1402.18 248.549 1403.55 246.8C1404.94 245.023 1406.87 243.67 1409.33 242.741C1411.79 241.784 1414.65 241.306 1417.9 241.306C1421.37 241.306 1424.39 241.771 1426.96 242.7C1429.56 243.602 1431.76 244.723 1433.56 246.062L1430.53 250.736C1428.89 249.615 1427.08 248.7 1425.11 247.989C1423.15 247.251 1420.77 246.882 1417.98 246.882C1414.59 246.882 1412.19 247.415 1410.76 248.481C1409.34 249.52 1408.63 250.873 1408.63 252.54C1408.63 253.797 1408.97 254.85 1409.66 255.697C1410.37 256.517 1411.56 257.269 1413.22 257.952C1414.89 258.608 1417.19 259.332 1420.11 260.125C1422.93 260.863 1425.37 261.751 1427.45 262.79C1429.56 263.829 1431.2 265.195 1432.37 266.89C1433.55 268.585 1434.13 270.771 1434.13 273.45C1434.13 276.511 1433.26 278.999 1431.51 280.912C1429.76 282.798 1427.49 284.178 1424.7 285.053C1421.94 285.9 1419.02 286.324 1415.93 286.324C1412.02 286.324 1408.69 285.764 1405.93 284.643C1403.19 283.495 1400.9 282.115 1399.04 280.502L1402.97 275.951C1404.67 277.345 1406.61 278.479 1408.8 279.354C1411.01 280.201 1413.39 280.625 1415.93 280.625ZM1484.7 283.208C1483.22 284.192 1481.43 284.957 1479.33 285.504C1477.22 286.051 1475.16 286.324 1473.13 286.324C1468.49 286.324 1464.91 285.108 1462.39 282.675C1459.88 280.242 1458.62 277.113 1458.62 273.286V247.538H1448.7V242.208H1458.62V232.409L1465.51 231.589V242.208H1480.43L1479.61 247.538H1465.51V273.204C1465.51 275.609 1466.14 277.441 1467.39 278.698C1468.68 279.955 1470.8 280.584 1473.75 280.584C1475.36 280.584 1476.85 280.393 1478.22 280.01C1479.59 279.627 1480.86 279.135 1482.03 278.534L1484.7 283.208Z" fill="url(#paint1_linear_1283_2)"/>
<path d="M351.529 363.848V394.434C351.529 397.277 352.117 399.327 353.292 400.584C354.468 401.841 356.299 402.47 358.786 402.47C361.164 402.47 363.406 401.8 365.51 400.461C367.642 399.094 369.296 397.482 370.471 395.623V363.848H377.359V407.021H371.496L370.922 401.199C369.228 403.386 367.137 405.067 364.649 406.242C362.162 407.39 359.647 407.964 357.105 407.964C352.923 407.964 349.794 406.857 347.716 404.643C345.666 402.402 344.641 399.272 344.641 395.254V363.848H351.529ZM408.487 402.265C411.795 402.265 414.405 401.65 416.318 400.42C418.259 399.163 419.229 397.495 419.229 395.418C419.229 394.106 418.983 392.972 418.491 392.015C418.027 391.058 417.056 390.197 415.58 389.432C414.104 388.667 411.836 387.901 408.774 387.136C405.795 386.398 403.198 385.551 400.984 384.594C398.798 383.61 397.089 382.339 395.859 380.781C394.657 379.223 394.055 377.2 394.055 374.713C394.055 372.28 394.739 370.189 396.105 368.44C397.499 366.663 399.426 365.31 401.886 364.381C404.346 363.424 407.203 362.946 410.455 362.946C413.927 362.946 416.947 363.411 419.516 364.34C422.113 365.242 424.313 366.363 426.117 367.702L423.083 372.376C421.443 371.255 419.639 370.34 417.671 369.629C415.703 368.891 413.325 368.522 410.537 368.522C407.148 368.522 404.743 369.055 403.321 370.121C401.9 371.16 401.189 372.513 401.189 374.18C401.189 375.437 401.531 376.49 402.214 377.337C402.925 378.157 404.114 378.909 405.781 379.592C407.449 380.248 409.745 380.972 412.669 381.765C415.485 382.503 417.931 383.391 420.008 384.43C422.113 385.469 423.753 386.835 424.928 388.53C426.104 390.225 426.691 392.411 426.691 395.09C426.691 398.151 425.817 400.639 424.067 402.552C422.318 404.438 420.049 405.818 417.261 406.693C414.501 407.54 411.576 407.964 408.487 407.964C404.579 407.964 401.244 407.404 398.483 406.283C395.75 405.135 393.454 403.755 391.595 402.142L395.531 397.591C397.226 398.985 399.167 400.119 401.353 400.994C403.567 401.841 405.945 402.265 408.487 402.265ZM464.83 363.848V401.568H477.007V407.021H444.617V401.568H457.942V369.301H445.027V363.848H464.83ZM459.336 343.635C460.867 343.635 462.083 344.1 462.985 345.029C463.915 345.958 464.379 347.093 464.379 348.432C464.379 349.826 463.915 351.001 462.985 351.958C462.083 352.887 460.867 353.352 459.336 353.352C457.888 353.352 456.699 352.887 455.769 351.958C454.84 351.001 454.375 349.826 454.375 348.432C454.375 347.093 454.84 345.958 455.769 345.029C456.699 344.1 457.888 343.635 459.336 343.635ZM492.145 407.021V363.848H498.008L498.541 369.834C500.291 367.62 502.477 365.925 505.101 364.75C507.753 363.547 510.322 362.946 512.809 362.946C517.046 362.946 520.121 364.067 522.034 366.308C523.975 368.549 524.945 371.665 524.945 375.656V407.021H518.057V380.74C518.057 377.788 517.893 375.41 517.565 373.606C517.237 371.775 516.554 370.449 515.515 369.629C514.477 368.782 512.864 368.358 510.677 368.358C508.983 368.358 507.384 368.727 505.88 369.465C504.404 370.203 503.079 371.132 501.903 372.253C500.755 373.346 499.799 374.453 499.033 375.574V407.021H492.145ZM576.409 359.256L578.541 365.734C576.71 366.308 574.756 366.663 572.678 366.8C570.601 366.937 568.346 367.005 565.913 367.005C568.401 368.153 570.273 369.643 571.53 371.474C572.788 373.278 573.416 375.41 573.416 377.87C573.416 380.713 572.774 383.241 571.489 385.455C570.205 387.669 568.346 389.405 565.913 390.662C563.508 391.919 560.597 392.548 557.18 392.548C555.732 392.548 554.515 392.48 553.531 392.343C552.575 392.206 551.645 392.001 550.743 391.728C550.087 392.165 549.541 392.767 549.103 393.532C548.693 394.297 548.488 395.09 548.488 395.91C548.488 396.949 548.898 397.81 549.718 398.493C550.538 399.176 552.055 399.518 554.269 399.518H562.059C564.957 399.518 567.553 400.037 569.849 401.076C572.173 402.115 573.99 403.509 575.302 405.258C576.642 407.007 577.311 409.003 577.311 411.244C577.311 415.481 575.507 418.733 571.899 421.002C568.319 423.271 563.248 424.405 556.688 424.405C552.096 424.405 548.475 423.927 545.823 422.97C543.172 422.041 541.272 420.606 540.124 418.665C539.004 416.752 538.443 414.333 538.443 411.408H544.675C544.675 413.075 545.003 414.456 545.659 415.549C546.315 416.642 547.504 417.449 549.226 417.968C550.948 418.515 553.422 418.788 556.647 418.788C559.818 418.788 562.401 418.515 564.396 417.968C566.419 417.449 567.909 416.656 568.865 415.59C569.849 414.551 570.341 413.253 570.341 411.695C570.341 409.645 569.412 408.101 567.553 407.062C565.695 406.023 563.371 405.504 560.583 405.504H552.875C549.158 405.504 546.411 404.684 544.634 403.044C542.885 401.404 542.01 399.518 542.01 397.386C542.01 395.992 542.407 394.639 543.199 393.327C544.019 392.015 545.208 390.853 546.766 389.842C544.279 388.53 542.448 386.904 541.272 384.963C540.097 383.022 539.509 380.672 539.509 377.911C539.509 374.986 540.234 372.403 541.682 370.162C543.131 367.893 545.154 366.117 547.75 364.832C550.347 363.547 553.34 362.905 556.729 362.905C560.365 362.878 563.317 362.727 565.585 362.454C567.854 362.153 569.795 361.73 571.407 361.183C573.047 360.636 574.715 359.994 576.409 359.256ZM556.729 367.948C553.258 367.948 550.689 368.891 549.021 370.777C547.381 372.636 546.561 375.014 546.561 377.911C546.561 380.836 547.409 383.241 549.103 385.127C550.798 387.013 553.395 387.956 556.893 387.956C559.955 387.956 562.278 387.068 563.863 385.291C565.476 383.514 566.282 381.041 566.282 377.87C566.282 374.617 565.476 372.157 563.863 370.49C562.278 368.795 559.9 367.948 556.729 367.948ZM640.059 407.021V401.732H646.783V369.137H640.059V363.848H652.031L653.302 374.057C654.97 370.504 656.992 367.757 659.37 365.816C661.748 363.875 664.892 362.905 668.8 362.905C670.003 362.905 671.069 363.001 671.998 363.192C672.955 363.356 673.925 363.575 674.909 363.848L672.9 369.998C671.998 369.752 671.178 369.574 670.44 369.465C669.702 369.328 668.855 369.26 667.898 369.26C664.591 369.26 661.748 370.435 659.37 372.786C656.992 375.137 655.093 378.69 653.671 383.446V401.732H662.445V407.021H640.059ZM668.267 378.444V369.055L668.964 363.848H674.909L673.925 378.444H668.267ZM702.593 349.662C706.147 349.662 709.208 350.304 711.777 351.589C714.374 352.846 716.383 354.555 717.804 356.714C719.226 358.846 719.936 361.197 719.936 363.766C719.936 366.035 719.431 368.098 718.419 369.957C717.408 371.816 716.069 373.346 714.401 374.549C712.734 375.752 710.903 376.544 708.907 376.927C711.121 377.091 713.199 377.72 715.139 378.813C717.08 379.879 718.665 381.41 719.895 383.405C721.125 385.373 721.74 387.819 721.74 390.744C721.74 393.997 720.92 396.935 719.28 399.559C717.64 402.156 715.344 404.206 712.392 405.709C709.468 407.212 706.051 407.964 702.142 407.964C698.999 407.964 695.856 407.363 692.712 406.16C689.596 404.957 686.959 403.044 684.799 400.42L689.432 396.648C691.045 398.534 692.958 399.942 695.172 400.871C697.414 401.8 699.682 402.265 701.978 402.265C705.914 402.265 708.989 401.24 711.203 399.19C713.417 397.113 714.524 394.297 714.524 390.744C714.524 388.065 714.005 385.947 712.966 384.389C711.955 382.831 710.575 381.724 708.825 381.068C707.076 380.385 705.081 380.043 702.839 380.043H698.083L698.944 374.59H702.265C704.097 374.59 705.819 374.248 707.431 373.565C709.071 372.854 710.411 371.761 711.449 370.285C712.488 368.809 713.007 366.964 713.007 364.75C713.007 361.634 711.969 359.256 709.891 357.616C707.814 355.976 705.299 355.156 702.347 355.156C699.887 355.156 697.742 355.593 695.91 356.468C694.079 357.315 692.234 358.614 690.375 360.363L686.562 356.14C688.968 353.871 691.523 352.231 694.229 351.22C696.935 350.181 699.723 349.662 702.593 349.662ZM744.873 369.465C746.458 367.388 748.276 365.789 750.326 364.668C752.403 363.52 754.686 362.946 757.173 362.946C761.027 362.946 764.143 363.875 766.521 365.734C768.899 367.593 770.635 370.217 771.728 373.606C772.821 376.968 773.368 380.904 773.368 385.414C773.368 389.76 772.712 393.641 771.4 397.058C770.088 400.447 768.161 403.112 765.619 405.053C763.104 406.994 759.988 407.964 756.271 407.964C751.269 407.964 747.347 406.16 744.504 402.552L744.012 407.021H737.985V346.464L744.873 345.603V369.465ZM754.631 402.388C758.239 402.388 761.013 400.994 762.954 398.206C764.895 395.418 765.865 391.14 765.865 385.373C765.865 381.601 765.482 378.471 764.717 375.984C763.952 373.469 762.804 371.597 761.273 370.367C759.77 369.11 757.911 368.481 755.697 368.481C753.292 368.481 751.173 369.205 749.342 370.654C747.538 372.075 746.048 373.661 744.873 375.41V396.812C745.994 398.507 747.401 399.86 749.096 400.871C750.818 401.882 752.663 402.388 754.631 402.388ZM803.963 346.464V396.361C803.963 398.493 804.619 400.01 805.931 400.912C807.27 401.787 808.992 402.224 811.097 402.224C812.409 402.224 813.653 402.087 814.828 401.814C816.003 401.541 817.179 401.172 818.354 400.707L820.199 405.75C819.024 406.324 817.561 406.83 815.812 407.267C814.09 407.732 812.136 407.964 809.949 407.964C806.122 407.964 803.02 406.912 800.642 404.807C798.264 402.675 797.075 399.737 797.075 395.992V351.917H783.832V346.464H803.963ZM832.18 421.904V415.877H873.18V421.904H832.18ZM919.765 404.848C918.289 405.832 916.499 406.597 914.394 407.144C912.289 407.691 910.226 407.964 908.203 407.964C903.556 407.964 899.976 406.748 897.461 404.315C894.946 401.882 893.689 398.753 893.689 394.926V369.178H883.767V363.848H893.689V354.049L900.577 353.229V363.848H915.501L914.681 369.178H900.577V394.844C900.577 397.249 901.206 399.081 902.463 400.338C903.748 401.595 905.866 402.224 908.818 402.224C910.431 402.224 911.92 402.033 913.287 401.65C914.654 401.267 915.925 400.775 917.1 400.174L919.765 404.848ZM940.069 387.874C940.206 391.209 940.848 393.942 941.996 396.074C943.144 398.179 944.661 399.737 946.547 400.748C948.433 401.732 950.483 402.224 952.697 402.224C954.911 402.224 956.906 401.896 958.683 401.24C960.487 400.584 962.332 399.614 964.218 398.329L967.457 402.88C965.434 404.465 963.125 405.709 960.528 406.611C957.959 407.513 955.321 407.964 952.615 407.964C948.433 407.964 944.866 407.021 941.914 405.135C938.962 403.249 936.707 400.625 935.149 397.263C933.618 393.874 932.853 389.951 932.853 385.496C932.853 381.123 933.632 377.241 935.19 373.852C936.748 370.463 938.935 367.798 941.75 365.857C944.565 363.916 947.886 362.946 951.713 362.946C955.348 362.946 958.478 363.807 961.102 365.529C963.726 367.224 965.735 369.656 967.129 372.827C968.55 375.97 969.261 379.729 969.261 384.102C969.261 384.84 969.247 385.537 969.22 386.193C969.193 386.822 969.152 387.382 969.097 387.874H940.069ZM951.795 368.604C948.597 368.604 945.918 369.738 943.759 372.007C941.627 374.276 940.411 377.788 940.11 382.544H962.619C962.537 377.925 961.526 374.453 959.585 372.13C957.644 369.779 955.048 368.604 951.795 368.604ZM984.235 407.021V401.732H990.959V369.137H984.235V363.848H996.207L997.478 374.057C999.145 370.504 1001.17 367.757 1003.55 365.816C1005.92 363.875 1009.07 362.905 1012.98 362.905C1014.18 362.905 1015.24 363.001 1016.17 363.192C1017.13 363.356 1018.1 363.575 1019.08 363.848L1017.08 369.998C1016.17 369.752 1015.35 369.574 1014.62 369.465C1013.88 369.328 1013.03 369.26 1012.07 369.26C1008.77 369.26 1005.92 370.435 1003.55 372.786C1001.17 375.137 999.268 378.69 997.847 383.446V401.732H1006.62V407.021H984.235ZM1012.44 378.444V369.055L1013.14 363.848H1019.08L1018.1 378.444H1012.44ZM1061.45 362.946C1062.84 362.946 1064.17 363.247 1065.42 363.848C1066.71 364.449 1067.76 365.611 1068.58 367.333C1069.4 369.055 1069.81 371.57 1069.81 374.877V407.021H1063.41V375.984C1063.41 373.278 1063.25 371.324 1062.92 370.121C1062.59 368.918 1061.65 368.317 1060.09 368.317C1058.81 368.317 1057.52 368.727 1056.24 369.547C1054.98 370.34 1053.75 371.652 1052.55 373.483V407.021H1046.11V375.984C1046.11 373.278 1045.95 371.324 1045.62 370.121C1045.29 368.918 1044.35 368.317 1042.79 368.317C1041.45 368.317 1040.15 368.727 1038.9 369.547C1037.67 370.34 1036.45 371.652 1035.25 373.483V407.021H1028.89V363.848H1034.3L1034.71 368.85C1035.89 367.183 1037.2 365.789 1038.65 364.668C1040.13 363.52 1041.94 362.946 1044.1 362.946C1045.74 362.946 1047.29 363.342 1048.74 364.135C1050.19 364.9 1051.25 366.404 1051.93 368.645C1053.11 366.95 1054.44 365.584 1055.91 364.545C1057.39 363.479 1059.23 362.946 1061.45 362.946ZM1104.01 363.848V401.568H1116.19V407.021H1083.8V401.568H1097.13V369.301H1084.21V363.848H1104.01ZM1098.52 343.635C1100.05 343.635 1101.27 344.1 1102.17 345.029C1103.1 345.958 1103.56 347.093 1103.56 348.432C1103.56 349.826 1103.1 351.001 1102.17 351.958C1101.27 352.887 1100.05 353.352 1098.52 353.352C1097.07 353.352 1095.88 352.887 1094.95 351.958C1094.02 351.001 1093.56 349.826 1093.56 348.432C1093.56 347.093 1094.02 345.958 1094.95 345.029C1095.88 344.1 1097.07 343.635 1098.52 343.635ZM1131.33 407.021V363.848H1137.19L1137.72 369.834C1139.47 367.62 1141.66 365.925 1144.28 364.75C1146.94 363.547 1149.51 362.946 1151.99 362.946C1156.23 362.946 1159.3 364.067 1161.22 366.308C1163.16 368.549 1164.13 371.665 1164.13 375.656V407.021H1157.24V380.74C1157.24 377.788 1157.08 375.41 1156.75 373.606C1156.42 371.775 1155.74 370.449 1154.7 369.629C1153.66 368.782 1152.05 368.358 1149.86 368.358C1148.17 368.358 1146.57 368.727 1145.06 369.465C1143.59 370.203 1142.26 371.132 1141.09 372.253C1139.94 373.346 1138.98 374.453 1138.22 375.574V407.021H1131.33ZM1211.41 397.591C1211.41 399.313 1211.7 400.57 1212.27 401.363C1212.85 402.156 1213.73 402.743 1214.94 403.126L1213.26 407.964C1211.4 407.718 1209.77 407.13 1208.38 406.201C1206.98 405.244 1205.97 403.809 1205.34 401.896C1203.78 403.891 1201.84 405.408 1199.52 406.447C1197.2 407.458 1194.63 407.964 1191.81 407.964C1187.49 407.964 1184.09 406.748 1181.6 404.315C1179.12 401.882 1177.87 398.657 1177.87 394.639C1177.87 390.184 1179.61 386.767 1183.08 384.389C1186.55 382.011 1191.57 380.822 1198.13 380.822H1204.48V377.214C1204.48 374.098 1203.57 371.898 1201.73 370.613C1199.93 369.301 1197.42 368.645 1194.19 368.645C1192.77 368.645 1191.1 368.823 1189.19 369.178C1187.28 369.506 1185.2 370.066 1182.96 370.859L1181.15 365.652C1183.8 364.668 1186.29 363.971 1188.61 363.561C1190.94 363.151 1193.15 362.946 1195.26 362.946C1200.64 362.946 1204.67 364.203 1207.35 366.718C1210.06 369.205 1211.41 372.595 1211.41 376.886V397.591ZM1193.58 402.716C1195.71 402.716 1197.74 402.183 1199.68 401.117C1201.63 400.024 1203.22 398.52 1204.48 396.607V385.496H1198.25C1193.49 385.496 1190.13 386.316 1188.16 387.956C1186.22 389.596 1185.25 391.796 1185.25 394.557C1185.25 397.236 1185.94 399.272 1187.3 400.666C1188.7 402.033 1190.79 402.716 1193.58 402.716ZM1246.47 346.464V396.361C1246.47 398.493 1247.13 400.01 1248.44 400.912C1249.78 401.787 1251.5 402.224 1253.61 402.224C1254.92 402.224 1256.16 402.087 1257.34 401.814C1258.52 401.541 1259.69 401.172 1260.87 400.707L1262.71 405.75C1261.54 406.324 1260.07 406.83 1258.32 407.267C1256.6 407.732 1254.65 407.964 1252.46 407.964C1248.63 407.964 1245.53 406.912 1243.15 404.807C1240.78 402.675 1239.59 399.737 1239.59 395.992V351.917H1226.34V346.464H1246.47ZM1274.69 421.904V415.877H1315.69V421.904H1274.69ZM1358.91 397.591C1358.91 399.313 1359.2 400.57 1359.78 401.363C1360.35 402.156 1361.24 402.743 1362.44 403.126L1360.76 407.964C1358.9 407.718 1357.27 407.13 1355.88 406.201C1354.49 405.244 1353.48 403.809 1352.85 401.896C1351.29 403.891 1349.35 405.408 1347.02 406.447C1344.7 407.458 1342.13 407.964 1339.32 407.964C1335 407.964 1331.6 406.748 1329.11 404.315C1326.62 401.882 1325.38 398.657 1325.38 394.639C1325.38 390.184 1327.11 386.767 1330.58 384.389C1334.06 382.011 1339.07 380.822 1345.63 380.822H1351.99V377.214C1351.99 374.098 1351.07 371.898 1349.24 370.613C1347.43 369.301 1344.92 368.645 1341.69 368.645C1340.27 368.645 1338.61 368.823 1336.69 369.178C1334.78 369.506 1332.7 370.066 1330.46 370.859L1328.66 365.652C1331.31 364.668 1333.8 363.971 1336.12 363.561C1338.44 363.151 1340.66 362.946 1342.76 362.946C1348.15 362.946 1352.18 364.203 1354.86 366.718C1357.56 369.205 1358.91 372.595 1358.91 376.886V397.591ZM1341.08 402.716C1343.21 402.716 1345.25 402.183 1347.19 401.117C1349.13 400.024 1350.73 398.52 1351.99 396.607V385.496H1345.75C1341 385.496 1337.64 386.316 1335.67 387.956C1333.73 389.596 1332.76 391.796 1332.76 394.557C1332.76 397.236 1333.44 399.272 1334.81 400.666C1336.2 402.033 1338.29 402.716 1341.08 402.716ZM1391.85 402.265C1395.15 402.265 1397.76 401.65 1399.68 400.42C1401.62 399.163 1402.59 397.495 1402.59 395.418C1402.59 394.106 1402.34 392.972 1401.85 392.015C1401.39 391.058 1400.42 390.197 1398.94 389.432C1397.46 388.667 1395.2 387.901 1392.13 387.136C1389.15 386.398 1386.56 385.551 1384.34 384.594C1382.16 383.61 1380.45 382.339 1379.22 380.781C1378.02 379.223 1377.41 377.2 1377.41 374.713C1377.41 372.28 1378.1 370.189 1379.46 368.44C1380.86 366.663 1382.79 365.31 1385.25 364.381C1387.71 363.424 1390.56 362.946 1393.81 362.946C1397.29 362.946 1400.31 363.411 1402.88 364.34C1405.47 365.242 1407.67 366.363 1409.48 367.702L1406.44 372.376C1404.8 371.255 1403 370.34 1401.03 369.629C1399.06 368.891 1396.68 368.522 1393.9 368.522C1390.51 368.522 1388.1 369.055 1386.68 370.121C1385.26 371.16 1384.55 372.513 1384.55 374.18C1384.55 375.437 1384.89 376.49 1385.57 377.337C1386.28 378.157 1387.47 378.909 1389.14 379.592C1390.81 380.248 1393.1 380.972 1396.03 381.765C1398.84 382.503 1401.29 383.391 1403.37 384.43C1405.47 385.469 1407.11 386.835 1408.29 388.53C1409.46 390.225 1410.05 392.411 1410.05 395.09C1410.05 398.151 1409.18 400.639 1407.43 402.552C1405.68 404.438 1403.41 405.818 1400.62 406.693C1397.86 407.54 1394.94 407.964 1391.85 407.964C1387.94 407.964 1384.6 407.404 1381.84 406.283C1379.11 405.135 1376.81 403.755 1374.95 402.142L1378.89 397.591C1380.59 398.985 1382.53 400.119 1384.71 400.994C1386.93 401.841 1389.3 402.265 1391.85 402.265ZM1462.25 363.848L1447.08 407.308C1446.07 410.233 1444.79 412.911 1443.23 415.344C1441.7 417.777 1439.69 419.786 1437.2 421.371C1434.74 422.984 1431.61 423.981 1427.81 424.364L1426.75 418.87C1429.73 418.378 1432.08 417.626 1433.8 416.615C1435.52 415.604 1436.87 414.305 1437.86 412.72C1438.87 411.135 1439.76 409.235 1440.52 407.021H1438.23L1423.14 363.848H1430.52L1442.9 401.773L1455.12 363.848H1462.25ZM1475.5 407.021V363.848H1481.37L1481.9 369.834C1483.65 367.62 1485.84 365.925 1488.46 364.75C1491.11 363.547 1493.68 362.946 1496.17 362.946C1500.41 362.946 1503.48 364.067 1505.39 366.308C1507.33 368.549 1508.3 371.665 1508.3 375.656V407.021H1501.42V380.74C1501.42 377.788 1501.25 375.41 1500.92 373.606C1500.6 371.775 1499.91 370.449 1498.87 369.629C1497.84 368.782 1496.22 368.358 1494.04 368.358C1492.34 368.358 1490.74 368.727 1489.24 369.465C1487.76 370.203 1486.44 371.132 1485.26 372.253C1484.11 373.346 1483.16 374.453 1482.39 375.574V407.021H1475.5ZM1544.19 402.019C1546.35 402.019 1548.36 401.664 1550.22 400.953C1552.1 400.242 1553.84 399.34 1555.42 398.247L1558.78 402.757C1556.9 404.37 1554.63 405.641 1551.98 406.57C1549.33 407.499 1546.73 407.964 1544.19 407.964C1539.9 407.964 1536.23 407.048 1533.2 405.217C1530.19 403.358 1527.9 400.762 1526.31 397.427C1524.73 394.065 1523.93 390.129 1523.93 385.619C1523.93 381.3 1524.73 377.433 1526.31 374.016C1527.93 370.572 1530.23 367.866 1533.24 365.898C1536.28 363.93 1539.95 362.946 1544.27 362.946C1547.03 362.946 1549.61 363.37 1552.02 364.217C1554.45 365.037 1556.68 366.281 1558.7 367.948L1555.34 372.54C1553.51 371.255 1551.66 370.299 1549.81 369.67C1547.97 369.014 1546.1 368.686 1544.19 368.686C1540.47 368.686 1537.41 370.08 1535 372.868C1532.6 375.656 1531.4 379.906 1531.4 385.619C1531.4 389.446 1531.94 392.575 1533.04 395.008C1534.16 397.413 1535.67 399.19 1537.59 400.338C1539.53 401.459 1541.73 402.019 1544.19 402.019Z" fill="url(#paint2_linear_1283_2)"/>
<path d="M1704.21 716.975L1688.99 707.545C1688.86 706.061 1688.71 704.581 1688.56 703.107L1701.66 690.903C1702.99 689.662 1703.59 687.824 1703.23 686.049C1702.88 684.264 1701.63 682.794 1699.92 682.166L1683.18 675.925C1682.76 674.476 1682.32 673.037 1681.87 671.592L1692.3 657.099C1693.37 655.626 1693.59 653.709 1692.89 652.037C1692.2 650.363 1690.68 649.163 1688.91 648.869L1671.26 645.998C1670.57 644.66 1669.86 643.342 1669.14 642.045L1676.56 625.75C1677.32 624.093 1677.16 622.179 1676.15 620.654C1675.14 619.142 1673.43 618.258 1671.6 618.327L1653.68 618.951C1652.75 617.793 1651.81 616.646 1650.85 615.519L1654.98 598.08C1655.39 596.308 1654.87 594.439 1653.58 593.157C1652.3 591.874 1650.44 591.343 1648.66 591.759L1631.22 595.885C1630.09 594.928 1628.94 593.982 1627.78 593.056L1628.41 575.132C1628.47 573.318 1627.59 571.595 1626.08 570.59C1624.56 569.577 1622.65 569.425 1620.98 570.177L1604.72 577.597C1603.41 576.875 1602.09 576.161 1600.77 575.471L1597.89 557.824C1597.6 556.035 1596.4 554.516 1594.72 553.837C1593.05 553.14 1591.12 553.365 1589.66 554.426L1575.17 564.862C1573.74 564.408 1572.3 563.971 1570.87 563.555L1564.63 546.809C1563.99 545.103 1562.52 543.852 1560.75 543.498C1558.96 543.148 1557.14 543.741 1555.89 545.065L1543.69 558.171C1542.21 558.008 1540.73 557.859 1539.25 557.737L1529.82 542.482C1528.87 540.94 1527.18 540 1525.35 540C1523.52 540 1521.85 540.94 1520.91 542.482L1511.48 557.737C1510 557.859 1508.51 558.008 1507.04 558.171L1494.84 545.065C1493.6 543.741 1491.76 543.148 1489.98 543.498C1488.2 543.855 1486.73 545.103 1486.1 546.809L1479.86 563.555C1478.41 563.971 1476.98 564.411 1475.56 564.862L1461.07 554.426C1459.59 553.362 1457.67 553.137 1456.01 553.837C1454.33 554.53 1453.13 556.049 1452.84 557.824L1449.96 575.471C1448.63 576.161 1447.31 576.872 1446.01 577.597L1429.75 570.177C1428.09 569.421 1426.18 569.577 1424.65 570.59C1423.14 571.595 1422.25 573.318 1422.32 575.132L1422.95 593.056C1421.79 593.982 1420.64 594.928 1419.51 595.885L1402.07 591.759C1400.3 591.347 1398.43 591.874 1397.15 593.157C1395.86 594.443 1395.33 596.298 1395.75 598.08L1399.84 615.519C1398.89 616.649 1397.94 617.793 1397.02 618.951L1379.09 618.327C1377.29 618.275 1375.56 619.142 1374.55 620.654C1373.54 622.158 1373.39 624.086 1374.14 625.75L1381.56 642.045C1380.84 643.353 1380.12 644.67 1379.43 645.998L1361.79 648.869C1359.99 649.16 1358.48 650.359 1357.8 652.037C1357.1 653.719 1357.33 655.643 1358.39 657.099L1368.82 671.592C1368.37 673.024 1367.93 674.462 1367.51 675.925L1350.77 682.166C1349.07 682.801 1347.82 684.271 1347.46 686.049C1347.11 687.831 1347.7 689.655 1349.03 690.903L1362.14 703.107C1361.97 704.581 1361.83 706.064 1361.7 707.545L1346.48 716.975C1344.94 717.929 1344 719.614 1344 721.448C1344 723.282 1344.94 724.949 1346.48 725.886L1361.7 735.316C1361.83 736.8 1361.97 738.28 1362.14 739.754L1349.03 751.958C1347.7 753.195 1347.11 755.033 1347.46 756.812C1347.82 758.597 1349.07 760.064 1350.77 760.695L1367.51 766.935C1367.93 768.385 1368.37 769.823 1368.82 771.269L1358.39 785.761C1357.33 787.238 1357.1 789.156 1357.8 790.823C1358.5 792.505 1360.01 793.704 1361.82 793.992L1379.47 796.863C1380.16 798.201 1380.87 799.519 1381.59 800.815L1374.17 817.076C1373.42 818.73 1373.57 820.647 1374.59 822.172C1375.6 823.687 1377.32 824.571 1379.13 824.499L1397.02 823.871C1397.95 825.036 1398.89 826.177 1399.85 827.31L1395.76 844.75C1395.34 846.518 1395.86 848.355 1397.15 849.638C1398.43 850.931 1400.29 851.448 1402.08 851.032L1419.52 846.941C1420.65 847.905 1421.8 848.841 1422.95 849.763L1422.33 867.688C1422.26 869.501 1423.15 871.224 1424.66 872.229C1426.16 873.238 1428.09 873.391 1429.75 872.635L1446.01 865.216C1447.33 865.944 1448.64 866.651 1449.97 867.341L1452.84 884.988C1453.14 886.784 1454.33 888.303 1456.01 889.01C1457.69 889.707 1459.62 889.482 1461.07 888.424L1475.57 877.988C1477 878.442 1478.44 878.886 1479.9 879.302L1486.14 896.048C1486.78 897.747 1488.25 899.005 1490.03 899.352C1491.81 899.713 1493.63 899.116 1494.88 897.785L1507.08 884.68C1508.56 884.85 1510.04 884.992 1511.52 885.123L1520.95 900.344C1521.9 901.88 1523.59 902.826 1525.39 902.826C1527.19 902.826 1528.89 901.883 1529.86 900.344L1539.29 885.123C1540.78 884.992 1542.26 884.85 1543.73 884.68L1555.93 897.785C1557.17 899.116 1559.01 899.713 1560.79 899.352C1562.57 899.002 1564.04 897.747 1564.67 896.048L1570.91 879.302C1572.36 878.886 1573.8 878.442 1575.24 877.988L1589.74 888.424C1591.21 889.482 1593.13 889.707 1594.8 889.01C1596.48 888.32 1597.68 886.798 1597.97 884.988L1600.85 867.341C1602.18 866.651 1603.49 865.933 1604.8 865.216L1621.06 872.635C1622.71 873.391 1624.63 873.238 1626.16 872.229C1627.67 871.217 1628.55 869.501 1628.48 867.688L1627.86 849.763C1629.02 848.837 1630.16 847.905 1631.29 846.941L1648.73 851.032C1650.5 851.448 1652.37 850.931 1653.66 849.638C1654.95 848.352 1655.47 846.504 1655.05 844.75L1650.96 827.31C1651.92 826.177 1652.86 825.036 1653.78 823.871L1671.71 824.499C1673.52 824.571 1675.25 823.687 1676.25 822.172C1677.26 820.661 1677.42 818.736 1676.66 817.076L1669.24 800.815C1669.96 799.501 1670.68 798.184 1671.36 796.863L1689.01 793.992C1690.81 793.704 1692.32 792.505 1693 790.823C1693.69 789.149 1693.47 787.218 1692.41 785.761L1681.97 771.269C1682.42 769.837 1682.86 768.398 1683.28 766.935L1700.03 760.695C1701.73 760.057 1702.99 758.59 1703.33 756.812C1703.69 755.03 1703.1 753.206 1701.76 751.958L1688.66 739.754C1688.82 738.28 1688.96 736.796 1689.09 735.316L1704.31 725.886C1705.85 724.936 1706.8 723.247 1706.8 721.448C1706.8 719.648 1705.86 717.946 1704.32 716.975H1704.21ZM1602.28 843.522C1596.45 842.267 1592.78 836.519 1594.03 830.694C1595.27 824.87 1600.99 821.16 1606.82 822.408C1612.64 823.653 1616.35 829.411 1615.11 835.236C1613.86 841.061 1608.14 844.77 1602.31 843.522H1602.28ZM1597.11 808.505C1591.81 807.368 1586.57 810.745 1585.46 816.063L1580.05 841.303C1563.38 848.862 1544.69 853.091 1525.27 853.091C1505.3 853.091 1486.44 848.688 1469.45 840.783L1464.05 815.543C1462.91 810.239 1457.7 806.841 1452.4 807.985L1430.1 812.77C1425.98 808.505 1422.13 803.963 1418.59 799.179H1527.11C1528.34 799.179 1529.16 798.957 1529.16 797.841V759.356C1529.16 758.24 1528.34 758.018 1527.11 758.018H1495.39V733.714H1529.68C1532.81 733.714 1546.42 734.609 1550.76 752.02C1552.12 757.359 1555.13 774.764 1557.17 780.346C1559.21 786.587 1567.5 799.068 1576.34 799.068H1630.43C1631.04 799.068 1631.7 798.999 1632.39 798.874C1628.64 803.97 1624.52 808.79 1620.11 813.297L1597.3 808.408L1597.11 808.505ZM1446.99 843.002C1441.16 844.257 1435.44 840.548 1434.19 834.716C1432.95 828.891 1436.65 823.136 1442.48 821.888C1448.31 820.643 1454.03 824.353 1455.28 830.174C1456.52 835.999 1452.82 841.754 1446.99 843.002ZM1405.73 676.237C1408.14 681.681 1405.69 688.06 1400.25 690.487C1394.81 692.904 1388.46 690.445 1386.04 685.009C1383.61 679.573 1386.08 673.186 1391.52 670.76C1396.96 668.346 1403.3 670.801 1405.73 676.237ZM1393.08 706.193L1416.31 695.861C1421.26 693.659 1423.52 687.852 1421.3 682.894L1416.51 672.077H1435.31V756.673H1397.51C1394.22 745.093 1392.45 732.889 1392.45 720.269C1392.45 715.45 1392.71 710.7 1393.21 706.019L1393.08 706.193ZM1495.01 697.976V673.013H1539.73C1542.04 673.013 1556.06 675.686 1556.06 686.153C1556.06 694.855 1545.31 697.976 1536.47 697.976H1494.87H1495.01ZM1657.61 720.442C1657.61 723.757 1657.49 727.03 1657.25 730.289H1643.62C1642.26 730.289 1641.71 731.183 1641.71 732.518V738.759C1641.71 753.459 1633.43 756.683 1626.15 757.481C1619.21 758.261 1611.55 754.582 1610.61 750.339C1606.52 727.352 1599.73 722.464 1588.98 713.935C1602.33 705.475 1616.19 692.959 1616.19 676.144C1616.19 658.081 1603.82 646.709 1595.39 641.127C1583.53 633.326 1570.43 631.766 1566.89 631.766H1426.13C1445.23 610.478 1471.2 595.362 1500.33 589.814L1516.93 607.219C1520.68 611.137 1526.88 611.31 1530.84 607.538L1549.42 589.787C1588.25 597.033 1621.19 621.233 1640.26 654.62L1627.53 683.328C1625.34 688.285 1627.58 694.11 1632.52 696.294L1657 707.181C1657.42 711.515 1657.65 715.918 1657.65 720.356L1657.61 720.442ZM1516.85 575.173C1521.15 571.047 1527.98 571.221 1532.07 575.523C1536.16 579.822 1536.02 586.652 1531.71 590.778C1527.41 594.904 1520.58 594.731 1516.49 590.425C1512.4 586.126 1512.54 579.295 1516.85 575.17V575.173ZM1643.05 676.758C1645.46 671.314 1651.82 668.853 1657.27 671.28C1662.71 673.693 1665.17 680.086 1662.74 685.529C1660.33 690.972 1653.97 693.434 1648.53 691.007C1643.08 688.594 1640.62 682.201 1643.05 676.758Z" fill="url(#paint3_linear_1283_2)"/>
<path d="M394.035 593.906C417.435 597.546 441.355 597.546 464.755 593.906C455.915 576.746 444.475 565.826 429.395 565.826C412.235 565.826 401.315 579.866 394.035 593.906Z" fill="url(#paint4_linear_1283_2)"/>
<path d="M367 685.426H315C316.56 717.146 331.12 745.746 353.48 765.506C362.32 762.386 370.64 760.306 379.48 758.226C371.68 737.426 367.52 710.906 367 685.426Z" fill="url(#paint5_linear_1283_2)"/>
<path d="M367 675.026C367.52 647.466 371.68 621.986 379.48 601.706C370.64 599.626 362.32 597.546 353.48 594.426C331.12 614.706 316.56 643.306 315 675.026H367Z" fill="url(#paint6_linear_1283_2)"/>
<path d="M461.129 570.506C466.329 576.226 471.529 584.026 475.169 592.346C481.929 590.786 488.689 589.226 495.449 587.146C485.049 579.346 473.609 574.146 461.129 570.506Z" fill="url(#paint7_linear_1283_2)"/>
<path d="M429.398 607.426C416.398 607.426 402.878 606.386 389.878 603.786C382.078 623.026 377.918 647.986 377.398 675.026H481.398C480.878 649.026 476.718 623.546 468.918 603.786C455.918 606.386 442.398 607.426 429.398 607.426Z" fill="url(#paint8_linear_1283_2)"/>
<path d="M505.328 594.947C496.488 598.067 488.168 600.147 479.328 602.227C487.128 623.027 491.288 649.547 491.808 675.027H543.808C542.248 643.307 527.688 614.707 505.328 594.947Z" fill="url(#paint9_linear_1283_2)"/>
<path d="M383.643 768.626C376.883 770.186 370.123 771.746 363.363 773.826C373.763 781.106 385.203 786.826 397.683 790.466C392.483 784.226 387.803 776.946 383.643 768.626Z" fill="url(#paint10_linear_1283_2)"/>
<path d="M383.643 591.826C387.803 583.506 392.483 576.226 397.683 570.506C385.203 574.146 373.763 579.866 363.363 587.146C370.123 588.706 376.883 590.786 383.643 591.826Z" fill="url(#paint11_linear_1283_2)"/>
<path d="M450.195 764.466C431.475 762.906 412.755 763.426 394.035 766.546C402.355 783.706 414.315 794.626 429.395 794.626C437.715 794.626 444.475 791.506 450.195 786.306V764.466Z" fill="url(#paint12_linear_1283_2)"/>
<path d="M450.198 701.026H480.358C480.878 695.826 480.878 690.626 480.878 685.426H377.398C377.918 711.426 382.078 736.906 389.878 756.666C410.158 753.026 429.918 752.506 450.198 754.066V701.026Z" fill="url(#paint13_linear_1283_2)"/>
<path d="M541.713 701.026C542.753 695.826 543.273 690.626 543.273 685.426H491.793C491.793 690.626 491.273 695.826 491.273 701.026H541.713Z" fill="url(#paint14_linear_1283_2)"/>
<path d="M460.602 711.426V773.826H627.002V711.426H460.602ZM481.402 763.426H471.002V721.826H481.402V763.426ZM502.202 763.426H491.802V721.826H502.202V763.426ZM523.002 763.426H512.602V721.826H523.002V763.426ZM575.002 732.226H564.602V721.826H575.002V732.226ZM595.802 732.226H585.402V721.826H595.802V732.226ZM616.602 732.226H606.202V721.826H616.602V732.226Z" fill="url(#paint15_linear_1283_2)"/>
<path d="M627 846.626V784.226H460.6V846.626H538.6V867.426H315V877.826H627V867.426H549V846.626H627ZM606.2 794.626H616.6V805.026H606.2V794.626ZM585.4 794.626H595.8V805.026H585.4V794.626ZM564.6 794.626H575V805.026H564.6V794.626ZM481.4 836.226H471V794.626H481.4V836.226ZM502.2 836.226H491.8V794.626H502.2V836.226ZM523 836.226H512.6V794.626H523V836.226Z" fill="url(#paint16_linear_1283_2)"/>
</g>
<defs>
<linearGradient id="paint0_linear_1283_2" x1="960" y1="0" x2="960" y2="1080" gradientUnits="userSpaceOnUse">
<stop stop-color="#323232"/>
<stop offset="1"/>
</linearGradient>
<linearGradient id="paint1_linear_1283_2" x1="69.5659" y1="312.921" x2="1858.28" y2="312.921" gradientUnits="userSpaceOnUse">
<stop stop-color="#0095D5"/>
<stop offset="0.464053" stop-color="#7272E1"/>
<stop offset="1" stop-color="#7E6EE3"/>
</linearGradient>
<linearGradient id="paint2_linear_1283_2" x1="951.002" y1="326.021" x2="951.002" y2="434.021" gradientUnits="userSpaceOnUse">
<stop stop-color="#B32BD5"/>
<stop offset="1" stop-color="#DA3C8E"/>
</linearGradient>
<linearGradient id="paint3_linear_1283_2" x1="1525.4" y1="540" x2="1525.4" y2="902.826" gradientUnits="userSpaceOnUse">
<stop stop-color="#B32BD5"/>
<stop offset="1" stop-color="#DA3C8E"/>
</linearGradient>
<linearGradient id="paint4_linear_1283_2" x1="394.217" y1="596.713" x2="465.645" y2="596.713" gradientUnits="userSpaceOnUse">
<stop stop-color="#0095D5"/>
<stop offset="0.464053" stop-color="#7272E1"/>
<stop offset="1" stop-color="#7E6EE3"/>
</linearGradient>
<linearGradient id="paint5_linear_1283_2" x1="315.166" y1="765.706" x2="380.291" y2="765.706" gradientUnits="userSpaceOnUse">
<stop stop-color="#0095D5"/>
<stop offset="0.464053" stop-color="#7272E1"/>
<stop offset="1" stop-color="#7E6EE3"/>
</linearGradient>
<linearGradient id="paint6_linear_1283_2" x1="315.166" y1="675.228" x2="380.291" y2="675.228" gradientUnits="userSpaceOnUse">
<stop stop-color="#0095D5"/>
<stop offset="0.464053" stop-color="#7272E1"/>
<stop offset="1" stop-color="#7E6EE3"/>
</linearGradient>
<linearGradient id="paint7_linear_1283_2" x1="461.217" y1="592.4" x2="495.881" y2="592.4" gradientUnits="userSpaceOnUse">
<stop stop-color="#0095D5"/>
<stop offset="0.464053" stop-color="#7272E1"/>
<stop offset="1" stop-color="#7E6EE3"/>
</linearGradient>
<linearGradient id="paint8_linear_1283_2" x1="377.667" y1="675.204" x2="482.707" y2="675.204" gradientUnits="userSpaceOnUse">
<stop stop-color="#0095D5"/>
<stop offset="0.464053" stop-color="#7272E1"/>
<stop offset="1" stop-color="#7E6EE3"/>
</linearGradient>
<linearGradient id="paint9_linear_1283_2" x1="479.494" y1="675.227" x2="544.619" y2="675.227" gradientUnits="userSpaceOnUse">
<stop stop-color="#0095D5"/>
<stop offset="0.464053" stop-color="#7272E1"/>
<stop offset="1" stop-color="#7E6EE3"/>
</linearGradient>
<linearGradient id="paint10_linear_1283_2" x1="363.452" y1="790.521" x2="398.115" y2="790.521" gradientUnits="userSpaceOnUse">
<stop stop-color="#0095D5"/>
<stop offset="0.464053" stop-color="#7272E1"/>
<stop offset="1" stop-color="#7E6EE3"/>
</linearGradient>
<linearGradient id="paint11_linear_1283_2" x1="363.452" y1="591.879" x2="398.115" y2="591.879" gradientUnits="userSpaceOnUse">
<stop stop-color="#0095D5"/>
<stop offset="0.464053" stop-color="#7272E1"/>
<stop offset="1" stop-color="#7E6EE3"/>
</linearGradient>
<linearGradient id="paint12_linear_1283_2" x1="394.18" y1="794.704" x2="450.902" y2="794.704" gradientUnits="userSpaceOnUse">
<stop stop-color="#0095D5"/>
<stop offset="0.464053" stop-color="#7272E1"/>
<stop offset="1" stop-color="#7E6EE3"/>
</linearGradient>
<linearGradient id="paint13_linear_1283_2" x1="377.665" y1="756.844" x2="482.18" y2="756.844" gradientUnits="userSpaceOnUse">
<stop stop-color="#0095D5"/>
<stop offset="0.464053" stop-color="#7272E1"/>
<stop offset="1" stop-color="#7E6EE3"/>
</linearGradient>
<linearGradient id="paint14_linear_1283_2" x1="491.408" y1="701.065" x2="543.927" y2="701.065" gradientUnits="userSpaceOnUse">
<stop stop-color="#0095D5"/>
<stop offset="0.464053" stop-color="#7272E1"/>
<stop offset="1" stop-color="#7E6EE3"/>
</linearGradient>
<linearGradient id="paint15_linear_1283_2" x1="461.031" y1="773.982" x2="629.095" y2="773.982" gradientUnits="userSpaceOnUse">
<stop stop-color="#0095D5"/>
<stop offset="0.464053" stop-color="#7272E1"/>
<stop offset="1" stop-color="#7E6EE3"/>
</linearGradient>
<linearGradient id="paint16_linear_1283_2" x1="315.804" y1="878.06" x2="630.924" y2="878.06" gradientUnits="userSpaceOnUse">
<stop stop-color="#0095D5"/>
<stop offset="0.464053" stop-color="#7272E1"/>
<stop offset="1" stop-color="#7E6EE3"/>
</linearGradient>
<clipPath id="clip0_1283_2">
<rect width="1920" height="1080" fill="white"/>
</clipPath>
</defs>
</svg>
