<svg width="476" height="542" viewBox="0 0 476 542" fill="none" xmlns="http://www.w3.org/2000/svg">
<path d="M419.729 0H56.27C41.3618 0.0442694 27.0734 5.98881 16.5284 16.5302C5.98877 27.0752 0.0442694 41.3619 0 56.2701V283.73C0.0442694 298.638 5.98877 312.926 16.5284 323.471C27.0734 334.011 41.3618 339.956 56.27 340H419.729C434.637 339.956 448.924 334.011 459.469 323.471C470.01 312.926 475.955 298.638 475.999 283.73V56.2701C475.955 41.3619 470.01 27.0752 459.469 16.5302C448.924 5.98881 434.637 0.0442694 419.729 0ZM218.624 183.598L129.377 251.597C126.343 253.758 122.727 254.942 119.003 254.999C113.684 255.042 108.648 252.586 105.404 248.371C102.627 244.773 101.405 240.21 102.011 235.712C102.62 231.207 105.007 227.132 108.632 224.398L180.203 169.998L108.632 115.598C103.775 111.895 101.26 105.878 102.043 99.8187C102.82 93.7591 106.773 88.5743 112.414 86.2192C118.047 83.8658 124.514 84.6963 129.377 88.4008L218.624 156.399C222.905 159.611 225.424 164.65 225.424 169.998C225.424 175.351 222.905 180.389 218.624 183.598ZM357.005 254.999H252.964C246.892 254.999 241.281 251.759 238.244 246.499C235.207 241.24 235.207 234.759 238.244 229.5C241.281 224.241 246.892 220.998 252.964 220.998H357.005C363.078 220.998 368.69 224.241 371.727 229.5C374.762 234.759 374.762 241.24 371.727 246.499C368.69 251.759 363.078 254.999 357.005 254.999Z" fill="url(#paint0_linear_1282_2)"/>
<path d="M438.729 17.708H356.39C345.586 17.708 336.828 26.4662 336.828 37.27V119.609C336.828 130.413 345.586 139.171 356.39 139.171H438.729C449.533 139.171 458.291 130.413 458.291 119.609V37.27C458.291 26.4662 449.533 17.708 438.729 17.708Z" fill="url(#paint1_linear_1282_2)"/>
<path d="M397.559 28.0405H347.16V78.44H397.559V28.0405Z" fill="#161616"/>
<path fill-rule="evenodd" clip-rule="evenodd" d="M373.81 41.9001H383.7V47.621V51.7475C387.312 50.8428 390 47.4263 390 43.6293C390 39.1946 386.333 35.6001 381.81 35.6001C377.893 35.6001 374.617 38.2968 373.81 41.9001Z" fill="white"/>
<path fill-rule="evenodd" clip-rule="evenodd" d="M373.943 52.9509C374.932 56.3722 378.079 59.0366 381.81 59.0366C386.333 59.0366 390 55.1203 390 50.6856C390 46.8886 387.312 43.7079 383.7 42.8706V52.9509H373.943Z" fill="white"/>
<path d="M361.02 35.6001H354.721V70.8801H361.02V35.6001Z" fill="white"/>
<path d="M390 43.1602H383.7V50.9722H390V43.1602Z" fill="white"/>
<path fill-rule="evenodd" clip-rule="evenodd" d="M354.721 41.9001V35.6001H382.566V41.9001H354.721Z" fill="white"/>
<path fill-rule="evenodd" clip-rule="evenodd" d="M354.721 59.0367V52.7358H382.566V59.0367H354.721Z" fill="white"/>
<path fill-rule="evenodd" clip-rule="evenodd" d="M380.275 55.3071L374.932 58.6454L382.578 70.8804H390.006L380.275 55.3071Z" fill="white"/>
<path fill-rule="evenodd" clip-rule="evenodd" d="M383.952 41.6479H379.92V41.9003C382.007 41.9003 383.7 43.5924 383.7 45.6806H383.952V41.6479Z" fill="white"/>
<path fill-rule="evenodd" clip-rule="evenodd" d="M383.952 52.9878H379.92V52.7354C382.007 52.7354 383.7 51.0433 383.7 48.9561H383.952V52.9878Z" fill="white"/>
<path d="M447.707 28.0405H397.308V78.44H447.707V28.0405Z" fill="#161616"/>
<path fill-rule="evenodd" clip-rule="evenodd" d="M440.148 43.7897C440.148 48.3134 436.431 51.9803 431.846 51.9803C430.22 51.9803 428.702 51.5177 427.421 50.7195H433.848V41.9001H423.767C424.633 38.2879 427.921 35.6001 431.846 35.6001C436.431 35.6001 440.148 39.267 440.148 43.7897Z" fill="white"/>
<path fill-rule="evenodd" clip-rule="evenodd" d="M440.148 48.0739C440.148 52.5976 436.481 56.2635 431.958 56.2635C428.648 56.2635 425.797 54.3015 424.506 51.4757H434.081V40.8917H428.018C429.187 40.2491 430.53 39.8843 431.958 39.8843C436.481 39.8843 440.148 43.5512 440.148 48.0739Z" fill="white"/>
<path fill-rule="evenodd" clip-rule="evenodd" d="M440.148 58.4055C440.148 62.9292 436.431 66.596 431.846 66.596C430.22 66.596 428.702 66.1344 427.421 65.3363H433.912V56.2634H423.833C424.787 52.7795 428.013 50.2158 431.846 50.2158C436.431 50.2158 440.148 53.8828 440.148 58.4055Z" fill="white"/>
<path fill-rule="evenodd" clip-rule="evenodd" d="M440.148 62.6897C440.148 67.2134 436.481 70.8802 431.958 70.8802C428.648 70.8802 425.797 68.9172 424.506 66.0924H434.837V55.5084H428.018C429.187 54.8658 430.53 54.5 431.958 54.5C436.481 54.5 440.148 58.1669 440.148 62.6897Z" fill="white"/>
<path d="M440.148 43.916H433.848V47.6964H440.148V43.916Z" fill="white"/>
<path fill-rule="evenodd" clip-rule="evenodd" d="M433.848 58.5317H440.148V62.8158H433.848V59.9177V58.5317Z" fill="white"/>
<path d="M431.832 35.6001H412.428V41.9001H431.832V35.6001Z" fill="white"/>
<path d="M432.588 64.5806H412.428V70.8805H432.588V64.5806Z" fill="white"/>
<path d="M432.588 49.9639H416.208V56.2638H432.588V49.9639Z" fill="white"/>
<path fill-rule="evenodd" clip-rule="evenodd" d="M414.948 41.903C414.906 41.901 414.864 41.9001 414.822 41.9001C413.628 41.9001 412.639 42.7735 412.458 43.9159H404.869C404.869 43.8738 404.868 43.8318 404.868 43.7897C404.868 39.267 408.534 35.6001 413.058 35.6001C416.93 35.6001 420.176 38.2879 421.029 41.9001H414.948V41.903Z" fill="white"/>
<path fill-rule="evenodd" clip-rule="evenodd" d="M414.948 64.5764C414.906 64.5793 414.864 64.5803 414.822 64.5803C413.628 64.5803 412.639 63.7069 412.458 62.5645H404.869C404.869 62.6055 404.868 62.6476 404.868 62.6897C404.868 67.2134 408.534 70.8803 413.058 70.8803C416.93 70.8803 420.176 68.1915 421.029 64.5803H414.948V64.5764Z" fill="white"/>
<path fill-rule="evenodd" clip-rule="evenodd" d="M433.848 41.522H430.067V41.9005C432.155 41.9005 433.848 43.5926 433.848 45.6809V41.522Z" fill="white"/>
<path fill-rule="evenodd" clip-rule="evenodd" d="M433.848 50.8462H430.067V49.9639C432.155 49.9639 433.848 48.2718 433.848 46.1846V50.8462Z" fill="white"/>
<path fill-rule="evenodd" clip-rule="evenodd" d="M430.067 56.2637H434.1V60.044H433.848C433.848 57.9567 432.155 56.2637 430.067 56.2637Z" fill="white"/>
<path fill-rule="evenodd" clip-rule="evenodd" d="M434.1 65.4614H430.067V64.5801C432.155 64.5801 433.848 62.8871 433.848 60.7998H434.1V65.4614Z" fill="white"/>
<path d="M397.559 78.1875H347.16V128.587H397.559V78.1875Z" fill="#161616"/>
<path d="M360.516 85.748H354.216V121.028H360.516V85.748Z" fill="white"/>
<path d="M380.677 92.048V85.748H354.217V92.048H380.677Z" fill="white"/>
<path d="M380.172 106.538V100.238H354.342V106.538H380.172Z" fill="white"/>
<path d="M381.432 121.028V114.728H354.217V121.028H381.432Z" fill="white"/>
<path fill-rule="evenodd" clip-rule="evenodd" d="M389.496 109.057C389.496 113.581 385.829 117.248 381.306 117.248C378.983 117.248 376.886 116.281 375.397 114.727H383.884V110.066V106.412H373.553C374.653 103.187 377.709 100.868 381.306 100.868C385.829 100.868 389.496 104.535 389.496 109.057Z" fill="white"/>
<path fill-rule="evenodd" clip-rule="evenodd" d="M389.496 112.838C389.496 117.36 385.824 121.027 381.293 121.027C377.415 121.027 374.166 118.339 373.311 114.727H383.19V105.908H376.921C378.187 105.11 379.686 104.648 381.293 104.648C385.824 104.648 389.496 108.315 389.496 112.838Z" fill="white"/>
<path fill-rule="evenodd" clip-rule="evenodd" d="M389.496 93.9377C389.496 98.4604 385.824 102.127 381.293 102.127C379.301 102.127 377.474 101.417 376.053 100.238H383.895V92.048H373.311C374.166 88.4359 377.415 85.748 381.293 85.748C385.824 85.748 389.496 89.414 389.496 93.9377Z" fill="white"/>
<path fill-rule="evenodd" clip-rule="evenodd" d="M389.514 98.2218C389.514 102.745 385.848 106.411 381.324 106.411C378.015 106.411 375.164 104.448 373.872 101.624H383.196V92.0481H375.942C377.382 90.7922 379.264 90.0312 381.324 90.0312C385.848 90.0312 389.514 93.6981 389.514 98.2218Z" fill="white"/>
<path fill-rule="evenodd" clip-rule="evenodd" d="M383.852 91.7959H379.316V92.0492C379.349 92.0482 379.382 92.0482 379.416 92.0482C381.504 92.0482 383.196 93.7403 383.196 95.8276H383.852V91.7959Z" fill="white"/>
<path fill-rule="evenodd" clip-rule="evenodd" d="M383.196 96.4577C383.196 98.5459 381.504 100.238 379.416 100.238V100.616H383.448V96.3325H383.194C383.195 96.3736 383.196 96.4156 383.196 96.4577Z" fill="white"/>
<path fill-rule="evenodd" clip-rule="evenodd" d="M383.852 106.412H379.316V106.539C379.349 106.539 379.382 106.538 379.416 106.538C381.462 106.538 383.127 108.162 383.194 110.192H383.852V106.412Z" fill="white"/>
<path fill-rule="evenodd" clip-rule="evenodd" d="M383.196 110.948C383.196 113.036 381.504 114.728 379.416 114.728V115.232H383.448V110.948H383.196Z" fill="white"/>
<path d="M389.496 94.064H383.196V98.6004H389.496V94.064Z" fill="white"/>
<path d="M389.496 108.932H383.7V113.216H389.496V108.932Z" fill="white"/>
<path d="M447.707 78.1875H397.308V128.587H447.707V78.1875Z" fill="#161616"/>
<path d="M411.168 85.748H404.868V121.028H411.168V85.748Z" fill="white"/>
<path d="M440.167 121.051V114.751H404.887V121.051H440.167Z" fill="white"/>
<path d="M73.7303 492.342C67.917 492.342 62.7186 491.224 58.1351 488.988C53.6633 486.752 50.1419 483.678 47.5706 479.765C45.1112 475.852 43.8814 471.324 43.8814 466.182C43.8814 460.816 45.223 456.288 47.906 452.599C50.589 448.798 54.4459 445.947 59.4766 444.047C64.5073 442.035 70.5441 441.028 77.5871 441.028C80.7173 441.028 83.9034 441.364 87.1455 442.035C90.3875 442.705 93.909 443.823 97.7099 445.388V438.01C97.7099 433.762 96.3125 430.632 93.5177 428.619C90.7228 426.495 86.4188 425.433 80.6055 425.433C77.3635 425.433 73.7303 425.992 69.7057 427.11C65.7929 428.116 61.3212 429.681 56.2905 431.805L46.5645 412.521C53.831 409.279 60.7063 406.931 67.1903 405.478C73.7861 403.913 80.2702 403.13 86.6424 403.13C98.6043 403.13 107.883 405.981 114.479 411.683C121.187 417.384 124.54 425.377 124.54 435.662V491H97.7099V482.783C93.909 486.137 90.108 488.596 86.307 490.162C82.506 491.615 78.3138 492.342 73.7303 492.342ZM68.8672 465.679C68.8672 468.474 70.0411 470.654 72.3887 472.219C74.7364 473.672 77.9784 474.399 82.1148 474.399C85.0214 474.399 87.7603 474.007 90.3316 473.225C93.0146 472.331 95.4741 471.101 97.7099 469.536V459.307C95.2505 458.636 92.7351 458.133 90.1639 457.797C87.7044 457.35 85.245 457.127 82.7855 457.127C78.4256 457.127 75.0159 457.853 72.5564 459.307C70.097 460.76 68.8672 462.884 68.8672 465.679ZM146.442 526.047V404.472H172.602V412.856C175.397 409.726 178.527 407.323 181.992 405.646C185.57 403.969 189.427 403.13 193.563 403.13C200.606 403.13 207.034 405.087 212.847 409C218.661 412.912 223.3 418.223 226.766 424.93C230.231 431.638 231.964 439.24 231.964 447.736C231.964 456.12 230.231 463.722 226.766 470.542C223.3 477.249 218.661 482.56 212.847 486.472C207.034 490.385 200.606 492.342 193.563 492.342C189.762 492.342 186.129 491.615 182.663 490.162C179.309 488.596 176.291 486.472 173.608 483.789V526.047H146.442ZM187.191 470.877C190.992 470.877 194.234 469.927 196.917 468.026C199.6 466.126 201.668 463.443 203.121 459.977C204.575 456.4 205.301 452.32 205.301 447.736C205.301 443.041 204.575 438.96 203.121 435.495C201.668 432.029 199.6 429.346 196.917 427.445C194.234 425.545 190.992 424.595 187.191 424.595C184.62 424.595 182.16 425.098 179.813 426.104C177.577 426.998 175.508 428.284 173.608 429.961V465.511C175.508 467.188 177.577 468.53 179.813 469.536C182.16 470.43 184.62 470.877 187.191 470.877ZM246.991 526.047V404.472H273.15V412.856C275.945 409.726 279.075 407.323 282.541 405.646C286.118 403.969 289.975 403.13 294.112 403.13C301.155 403.13 307.583 405.087 313.396 409C319.209 412.912 323.849 418.223 327.314 424.93C330.78 431.638 332.513 439.24 332.513 447.736C332.513 456.12 330.78 463.722 327.314 470.542C323.849 477.249 319.209 482.56 313.396 486.472C307.583 490.385 301.155 492.342 294.112 492.342C290.311 492.342 286.677 491.615 283.212 490.162C279.858 488.596 276.84 486.472 274.156 483.789V526.047H246.991ZM287.739 470.877C291.54 470.877 294.782 469.927 297.465 468.026C300.148 466.126 302.217 463.443 303.67 459.977C305.123 456.4 305.85 452.32 305.85 447.736C305.85 443.041 305.123 438.96 303.67 435.495C302.217 432.029 300.148 429.346 297.465 427.445C294.782 425.545 291.54 424.595 287.739 424.595C285.168 424.595 282.709 425.098 280.361 426.104C278.125 426.998 276.057 428.284 274.156 429.961V465.511C276.057 467.188 278.125 468.53 280.361 469.536C282.709 470.43 285.168 470.877 287.739 470.877ZM387.449 492.677C379.065 492.677 371.239 491.615 363.973 489.491C356.818 487.255 350.669 484.237 345.527 480.436L358.104 462.996C364.476 466.685 369.842 469.256 374.202 470.71C378.674 472.051 383.145 472.722 387.617 472.722C392.871 472.722 396.84 472.107 399.523 470.877C402.318 469.647 403.715 467.915 403.715 465.679C403.715 463.89 402.709 462.493 400.697 461.487C398.796 460.48 396.225 459.698 392.983 459.139C389.853 458.468 386.387 457.797 382.586 457.127C378.785 456.456 374.929 455.617 371.016 454.611C367.215 453.493 363.693 451.984 360.451 450.084C357.321 448.183 354.75 445.724 352.738 442.705C350.837 439.575 349.887 435.662 349.887 430.967C349.887 424.818 351.452 419.676 354.582 415.539C357.712 411.403 362.128 408.273 367.83 406.149C373.643 403.913 380.351 402.795 387.953 402.795C394.66 402.795 401.424 403.745 408.243 405.646C415.062 407.546 421.323 410.453 427.024 414.366L413.944 430.967C409.585 428.06 405.113 425.936 400.529 424.595C396.058 423.253 391.642 422.582 387.282 422.582C382.81 422.582 379.4 423.141 377.053 424.259C374.817 425.266 373.699 426.719 373.699 428.619C373.699 430.408 374.649 431.805 376.55 432.812C378.562 433.706 381.189 434.433 384.431 434.992C387.785 435.551 391.418 436.165 395.331 436.836C399.244 437.395 403.101 438.234 406.901 439.351C410.814 440.358 414.392 441.867 417.634 443.879C420.987 445.78 423.615 448.295 425.515 451.425C427.527 454.555 428.533 458.58 428.533 463.499C428.533 469.424 426.689 474.566 423 478.926C419.422 483.286 414.503 486.696 408.243 489.155C402.094 491.503 395.163 492.677 387.449 492.677Z" fill="url(#paint2_linear_1282_2)"/>
<defs>
<linearGradient id="paint0_linear_1282_2" x1="237.998" y1="0.00106933" x2="237.998" y2="340.001" gradientUnits="userSpaceOnUse">
<stop stop-color="#B32BD5"/>
<stop offset="1" stop-color="#DA3C8E"/>
</linearGradient>
<linearGradient id="paint1_linear_1282_2" x1="397.56" y1="17.708" x2="397.56" y2="139.171" gradientUnits="userSpaceOnUse">
<stop stop-color="#161616"/>
<stop offset="1"/>
</linearGradient>
<linearGradient id="paint2_linear_1282_2" x1="237.5" y1="320" x2="237.5" y2="542" gradientUnits="userSpaceOnUse">
<stop stop-color="#B42BD5"/>
<stop offset="1" stop-color="#D83C92"/>
</linearGradient>
</defs>
</svg>
