<svg width="1920" height="1080" viewBox="0 0 1920 1080" fill="none" xmlns="http://www.w3.org/2000/svg">
<g id="react-hooks-handbook">
<g id="background">
<rect width="1920" height="1080" fill="#323232"/>
<rect width="1920" height="1080" fill="url(#paint0_linear_424:2)" fill-opacity="0.15"/>
</g>
<path id="line2" d="M307.347 240.9C320.647 240.9 330.447 243.45 336.747 248.55C343.147 253.55 346.347 261.15 346.347 271.35C346.347 277.05 345.297 281.8 343.197 285.6C341.097 289.4 338.397 292.45 335.097 294.75C331.897 296.95 328.497 298.7 324.897 300L354.297 348H338.547L312.597 303.75H291.297V348H277.797V240.9H307.347ZM306.597 252.6H291.297V292.35H307.347C316.047 292.35 322.397 290.65 326.397 287.25C330.397 283.75 332.397 278.65 332.397 271.95C332.397 264.95 330.297 260 326.097 257.1C321.897 254.1 315.397 252.6 306.597 252.6ZM400.358 266.1C407.258 266.1 413.158 267.6 418.058 270.6C423.058 273.6 426.858 277.85 429.458 283.35C432.158 288.75 433.508 295.1 433.508 302.4V310.35H378.458C378.658 319.45 380.958 326.4 385.358 331.2C389.858 335.9 396.108 338.25 404.108 338.25C409.208 338.25 413.708 337.8 417.608 336.9C421.608 335.9 425.708 334.5 429.908 332.7V344.25C425.808 346.05 421.758 347.35 417.758 348.15C413.758 349.05 409.008 349.5 403.508 349.5C395.908 349.5 389.158 347.95 383.258 344.85C377.458 341.75 372.908 337.15 369.608 331.05C366.408 324.85 364.808 317.3 364.808 308.4C364.808 299.6 366.258 292.05 369.158 285.75C372.158 279.45 376.308 274.6 381.608 271.2C387.008 267.8 393.258 266.1 400.358 266.1ZM400.208 276.9C393.908 276.9 388.908 278.95 385.208 283.05C381.608 287.05 379.458 292.65 378.758 299.85H419.708C419.608 293.05 418.008 287.55 414.908 283.35C411.808 279.05 406.908 276.9 400.208 276.9ZM484.426 266.25C494.226 266.25 501.476 268.4 506.176 272.7C510.876 277 513.226 283.85 513.226 293.25V348H503.626L501.076 336.6H500.476C496.976 341 493.276 344.25 489.376 346.35C485.576 348.45 480.276 349.5 473.476 349.5C466.176 349.5 460.126 347.6 455.326 343.8C450.526 339.9 448.126 333.85 448.126 325.65C448.126 317.65 451.276 311.5 457.576 307.2C463.876 302.8 473.576 300.4 486.676 300L500.326 299.55V294.75C500.326 288.05 498.876 283.4 495.976 280.8C493.076 278.2 488.976 276.9 483.676 276.9C479.476 276.9 475.476 277.55 471.676 278.85C467.876 280.05 464.326 281.45 461.026 283.05L456.976 273.15C460.476 271.25 464.626 269.65 469.426 268.35C474.226 266.95 479.226 266.25 484.426 266.25ZM488.326 309.15C478.326 309.55 471.376 311.15 467.476 313.95C463.676 316.75 461.776 320.7 461.776 325.8C461.776 330.3 463.126 333.6 465.826 335.7C468.626 337.8 472.176 338.85 476.476 338.85C483.276 338.85 488.926 337 493.426 333.3C497.926 329.5 500.176 323.7 500.176 315.9V308.7L488.326 309.15ZM570.308 349.5C563.208 349.5 556.858 348.05 551.258 345.15C545.758 342.25 541.408 337.75 538.208 331.65C535.108 325.55 533.558 317.75 533.558 308.25C533.558 298.35 535.208 290.3 538.508 284.1C541.808 277.9 546.258 273.35 551.858 270.45C557.558 267.55 564.008 266.1 571.208 266.1C575.308 266.1 579.258 266.55 583.058 267.45C586.858 268.25 589.958 269.25 592.358 270.45L588.308 281.4C585.908 280.5 583.108 279.65 579.908 278.85C576.708 278.05 573.708 277.65 570.908 277.65C555.108 277.65 547.208 287.8 547.208 308.1C547.208 317.8 549.108 325.25 552.908 330.45C556.808 335.55 562.558 338.1 570.158 338.1C574.558 338.1 578.408 337.65 581.708 336.75C585.108 335.85 588.208 334.75 591.008 333.45V345.15C588.308 346.55 585.308 347.6 582.008 348.3C578.808 349.1 574.908 349.5 570.308 349.5ZM636.978 338.7C638.978 338.7 641.028 338.55 643.128 338.25C645.228 337.85 646.928 337.45 648.228 337.05V347.1C646.828 347.8 644.828 348.35 642.228 348.75C639.628 349.25 637.128 349.5 634.728 349.5C630.528 349.5 626.628 348.8 623.028 347.4C619.528 345.9 616.678 343.35 614.478 339.75C612.278 336.15 611.178 331.1 611.178 324.6V277.8H599.778V271.5L611.328 266.25L616.578 249.15H624.378V267.6H647.628V277.8H624.378V324.3C624.378 329.2 625.528 332.85 627.828 335.25C630.228 337.55 633.278 338.7 636.978 338.7ZM786.992 348H773.492V298.05H718.592V348H705.092V240.9H718.592V286.2H773.492V240.9H786.992V348ZM884.374 307.65C884.374 320.95 880.974 331.25 874.174 338.55C867.474 345.85 858.374 349.5 846.874 349.5C839.774 349.5 833.424 347.9 827.824 344.7C822.324 341.4 817.974 336.65 814.774 330.45C811.574 324.15 809.974 316.55 809.974 307.65C809.974 294.35 813.324 284.1 820.024 276.9C826.724 269.7 835.824 266.1 847.324 266.1C854.624 266.1 861.024 267.75 866.524 271.05C872.124 274.25 876.474 278.95 879.574 285.15C882.774 291.25 884.374 298.75 884.374 307.65ZM823.624 307.65C823.624 317.15 825.474 324.7 829.174 330.3C832.974 335.8 838.974 338.55 847.174 338.55C855.274 338.55 861.224 335.8 865.024 330.3C868.824 324.7 870.724 317.15 870.724 307.65C870.724 298.15 868.824 290.7 865.024 285.3C861.224 279.9 855.224 277.2 847.024 277.2C838.824 277.2 832.874 279.9 829.174 285.3C825.474 290.7 823.624 298.15 823.624 307.65ZM975.194 307.65C975.194 320.95 971.794 331.25 964.994 338.55C958.294 345.85 949.194 349.5 937.694 349.5C930.594 349.5 924.244 347.9 918.644 344.7C913.144 341.4 908.794 336.65 905.594 330.45C902.394 324.15 900.794 316.55 900.794 307.65C900.794 294.35 904.144 284.1 910.844 276.9C917.544 269.7 926.644 266.1 938.144 266.1C945.444 266.1 951.844 267.75 957.344 271.05C962.944 274.25 967.294 278.95 970.394 285.15C973.594 291.25 975.194 298.75 975.194 307.65ZM914.444 307.65C914.444 317.15 916.294 324.7 919.994 330.3C923.794 335.8 929.794 338.55 937.994 338.55C946.094 338.55 952.044 335.8 955.844 330.3C959.644 324.7 961.544 317.15 961.544 307.65C961.544 298.15 959.644 290.7 955.844 285.3C952.044 279.9 946.044 277.2 937.844 277.2C929.644 277.2 923.694 279.9 919.994 285.3C916.294 290.7 914.444 298.15 914.444 307.65ZM1009.16 293.55C1009.16 295.15 1009.06 297.25 1008.86 299.85C1008.76 302.45 1008.66 304.7 1008.56 306.6H1009.16C1009.76 305.8 1010.66 304.65 1011.86 303.15C1013.06 301.65 1014.26 300.15 1015.46 298.65C1016.76 297.05 1017.86 295.75 1018.76 294.75L1044.41 267.6H1059.86L1027.31 301.95L1062.11 348H1046.21L1018.31 310.5L1009.16 318.45V348H996.114V234H1009.16V293.55ZM1128.59 325.8C1128.59 333.6 1125.69 339.5 1119.89 343.5C1114.09 347.5 1106.29 349.5 1096.49 349.5C1090.89 349.5 1086.04 349.05 1081.94 348.15C1077.94 347.25 1074.39 346 1071.29 344.4V332.4C1074.49 334 1078.34 335.5 1082.84 336.9C1087.44 338.2 1092.09 338.85 1096.79 338.85C1103.49 338.85 1108.34 337.8 1111.34 335.7C1114.34 333.5 1115.84 330.6 1115.84 327C1115.84 325 1115.29 323.2 1114.19 321.6C1113.09 320 1111.09 318.4 1108.19 316.8C1105.39 315.2 1101.34 313.4 1096.04 311.4C1090.84 309.4 1086.39 307.4 1082.69 305.4C1078.99 303.4 1076.14 301 1074.14 298.2C1072.14 295.4 1071.14 291.8 1071.14 287.4C1071.14 280.6 1073.89 275.35 1079.39 271.65C1084.99 267.95 1092.29 266.1 1101.29 266.1C1106.19 266.1 1110.74 266.6 1114.94 267.6C1119.24 268.5 1123.24 269.8 1126.94 271.5L1122.44 282C1119.04 280.6 1115.49 279.4 1111.79 278.4C1108.09 277.4 1104.29 276.9 1100.39 276.9C1094.99 276.9 1090.84 277.8 1087.94 279.6C1085.14 281.3 1083.74 283.65 1083.74 286.65C1083.74 288.85 1084.39 290.75 1085.69 292.35C1086.99 293.85 1089.14 295.35 1092.14 296.85C1095.24 298.25 1099.34 299.95 1104.44 301.95C1109.54 303.85 1113.89 305.8 1117.49 307.8C1121.09 309.8 1123.84 312.25 1125.74 315.15C1127.64 317.95 1128.59 321.5 1128.59 325.8ZM1164.07 332.25C1162.77 337.55 1160.87 343.35 1158.37 349.65C1155.97 356.05 1153.57 361.95 1151.17 367.35H1141.42C1142.82 361.65 1144.22 355.4 1145.62 348.6C1147.12 341.8 1148.22 335.8 1148.92 330.6H1163.02L1164.07 332.25ZM1258.47 240.9C1271.77 240.9 1281.57 243.45 1287.87 248.55C1294.27 253.55 1297.47 261.15 1297.47 271.35C1297.47 277.05 1296.42 281.8 1294.32 285.6C1292.22 289.4 1289.52 292.45 1286.22 294.75C1283.02 296.95 1279.62 298.7 1276.02 300L1305.42 348H1289.67L1263.72 303.75H1242.42V348H1228.92V240.9H1258.47ZM1257.72 252.6H1242.42V292.35H1258.47C1267.17 292.35 1273.52 290.65 1277.52 287.25C1281.52 283.75 1283.52 278.65 1283.52 271.95C1283.52 264.95 1281.42 260 1277.22 257.1C1273.02 254.1 1266.52 252.6 1257.72 252.6ZM1351.48 266.1C1358.38 266.1 1364.28 267.6 1369.18 270.6C1374.18 273.6 1377.98 277.85 1380.58 283.35C1383.28 288.75 1384.63 295.1 1384.63 302.4V310.35H1329.58C1329.78 319.45 1332.08 326.4 1336.48 331.2C1340.98 335.9 1347.23 338.25 1355.23 338.25C1360.33 338.25 1364.83 337.8 1368.73 336.9C1372.73 335.9 1376.83 334.5 1381.03 332.7V344.25C1376.93 346.05 1372.88 347.35 1368.88 348.15C1364.88 349.05 1360.13 349.5 1354.63 349.5C1347.03 349.5 1340.28 347.95 1334.38 344.85C1328.58 341.75 1324.03 337.15 1320.73 331.05C1317.53 324.85 1315.93 317.3 1315.93 308.4C1315.93 299.6 1317.38 292.05 1320.28 285.75C1323.28 279.45 1327.43 274.6 1332.73 271.2C1338.13 267.8 1344.38 266.1 1351.48 266.1ZM1351.33 276.9C1345.03 276.9 1340.03 278.95 1336.33 283.05C1332.73 287.05 1330.58 292.65 1329.88 299.85H1370.83C1370.73 293.05 1369.13 287.55 1366.03 283.35C1362.93 279.05 1358.03 276.9 1351.33 276.9ZM1433.6 349.5C1423.6 349.5 1415.6 346.05 1409.6 339.15C1403.6 332.15 1400.6 321.75 1400.6 307.95C1400.6 294.15 1403.6 283.75 1409.6 276.75C1415.7 269.65 1423.75 266.1 1433.75 266.1C1439.95 266.1 1445 267.25 1448.9 269.55C1452.9 271.85 1456.15 274.65 1458.65 277.95H1459.55C1459.45 276.65 1459.25 274.75 1458.95 272.25C1458.75 269.65 1458.65 267.6 1458.65 266.1V234H1471.85V348H1461.2L1459.25 337.2H1458.65C1456.25 340.6 1453.05 343.5 1449.05 345.9C1445.05 348.3 1439.9 349.5 1433.6 349.5ZM1435.7 338.55C1444.2 338.55 1450.15 336.25 1453.55 331.65C1457.05 326.95 1458.8 319.9 1458.8 310.5V308.1C1458.8 298.1 1457.15 290.45 1453.85 285.15C1450.55 279.75 1444.45 277.05 1435.55 277.05C1428.45 277.05 1423.1 279.9 1419.5 285.6C1416 291.2 1414.25 298.75 1414.25 308.25C1414.25 317.85 1416 325.3 1419.5 330.6C1423.1 335.9 1428.5 338.55 1435.7 338.55ZM1564.58 267.6V348H1553.78L1551.83 337.35H1551.23C1548.63 341.55 1545.03 344.65 1540.43 346.65C1535.83 348.55 1530.93 349.5 1525.73 349.5C1516.03 349.5 1508.73 347.2 1503.83 342.6C1498.93 337.9 1496.48 330.45 1496.48 320.25V267.6H1509.83V319.35C1509.83 332.15 1515.78 338.55 1527.68 338.55C1536.58 338.55 1542.73 336.05 1546.13 331.05C1549.63 326.05 1551.38 318.85 1551.38 309.45V267.6H1564.58ZM1609.16 306.9L1581.41 267.6H1596.41L1617.11 297.9L1637.66 267.6H1652.51L1624.76 306.9L1654.01 348H1639.01L1617.11 315.9L1594.91 348H1580.06L1609.16 306.9ZM339.779 510.9C339.779 498.7 341.529 486.95 345.029 475.65C348.629 464.25 354.229 454 361.829 444.9H374.279C367.279 454.3 361.979 464.65 358.379 475.95C354.879 487.25 353.129 498.85 353.129 510.75C353.129 522.35 354.879 533.75 358.379 544.95C361.979 556.05 367.229 566.3 374.129 575.7H361.829C354.229 566.9 348.629 556.95 345.029 545.85C341.529 534.65 339.779 523 339.779 510.9ZM458.7 471.6V552H447.9L445.95 541.35H445.35C442.75 545.55 439.15 548.65 434.55 550.65C429.95 552.55 425.05 553.5 419.85 553.5C410.15 553.5 402.85 551.2 397.95 546.6C393.05 541.9 390.6 534.45 390.6 524.25V471.6H403.95V523.35C403.95 536.15 409.9 542.55 421.8 542.55C430.7 542.55 436.85 540.05 440.25 535.05C443.75 530.05 445.5 522.85 445.5 513.45V471.6H458.7ZM536.575 529.8C536.575 537.6 533.675 543.5 527.875 547.5C522.075 551.5 514.275 553.5 504.475 553.5C498.875 553.5 494.025 553.05 489.925 552.15C485.925 551.25 482.375 550 479.275 548.4V536.4C482.475 538 486.325 539.5 490.825 540.9C495.425 542.2 500.075 542.85 504.775 542.85C511.475 542.85 516.325 541.8 519.325 539.7C522.325 537.5 523.825 534.6 523.825 531C523.825 529 523.275 527.2 522.175 525.6C521.075 524 519.075 522.4 516.175 520.8C513.375 519.2 509.325 517.4 504.025 515.4C498.825 513.4 494.375 511.4 490.675 509.4C486.975 507.4 484.125 505 482.125 502.2C480.125 499.4 479.125 495.8 479.125 491.4C479.125 484.6 481.875 479.35 487.375 475.65C492.975 471.95 500.275 470.1 509.275 470.1C514.175 470.1 518.725 470.6 522.925 471.6C527.225 472.5 531.225 473.8 534.925 475.5L530.425 486C527.025 484.6 523.475 483.4 519.775 482.4C516.075 481.4 512.275 480.9 508.375 480.9C502.975 480.9 498.825 481.8 495.925 483.6C493.125 485.3 491.725 487.65 491.725 490.65C491.725 492.85 492.375 494.75 493.675 496.35C494.975 497.85 497.125 499.35 500.125 500.85C503.225 502.25 507.325 503.95 512.425 505.95C517.525 507.85 521.875 509.8 525.475 511.8C529.075 513.8 531.825 516.25 533.725 519.15C535.625 521.95 536.575 525.5 536.575 529.8ZM562.752 441.45C564.752 441.45 566.502 442.15 568.002 443.55C569.602 444.85 570.402 446.95 570.402 449.85C570.402 452.65 569.602 454.75 568.002 456.15C566.502 457.55 564.752 458.25 562.752 458.25C560.552 458.25 558.702 457.55 557.202 456.15C555.702 454.75 554.952 452.65 554.952 449.85C554.952 446.95 555.702 444.85 557.202 443.55C558.702 442.15 560.552 441.45 562.752 441.45ZM569.202 471.6V552H556.002V471.6H569.202ZM633.374 470.1C642.974 470.1 650.224 472.45 655.124 477.15C660.024 481.75 662.474 489.25 662.474 499.65V552H649.424V500.55C649.424 487.65 643.424 481.2 631.424 481.2C622.524 481.2 616.374 483.7 612.974 488.7C609.574 493.7 607.874 500.9 607.874 510.3V552H594.674V471.6H605.324L607.274 482.55H608.024C610.624 478.35 614.224 475.25 618.824 473.25C623.424 471.15 628.274 470.1 633.374 470.1ZM715.898 470.1C721.198 470.1 725.948 471.1 730.148 473.1C734.448 475.1 738.098 478.15 741.098 482.25H741.848L743.648 471.6H754.148V553.35C754.148 564.85 751.198 573.5 745.298 579.3C739.498 585.1 730.448 588 718.148 588C706.348 588 696.698 586.3 689.198 582.9V570.75C697.098 574.95 706.998 577.05 718.898 577.05C725.798 577.05 731.198 575 735.098 570.9C739.098 566.9 741.098 561.4 741.098 554.4V551.25C741.098 550.05 741.148 548.35 741.248 546.15C741.348 543.85 741.448 542.25 741.548 541.35H740.948C735.548 549.45 727.248 553.5 716.048 553.5C705.648 553.5 697.498 549.85 691.598 542.55C685.798 535.25 682.898 525.05 682.898 511.95C682.898 499.15 685.798 489 691.598 481.5C697.498 473.9 705.598 470.1 715.898 470.1ZM717.698 481.2C710.998 481.2 705.798 483.9 702.098 489.3C698.398 494.6 696.548 502.2 696.548 512.1C696.548 522 698.348 529.6 701.948 534.9C705.648 540.1 710.998 542.7 717.998 542.7C726.098 542.7 731.998 540.55 735.698 536.25C739.398 531.85 741.248 524.8 741.248 515.1V511.95C741.248 500.95 739.348 493.1 735.548 488.4C731.748 483.6 725.798 481.2 717.698 481.2ZM854.348 552H840.848V456.75H807.398V444.9H887.648V456.75H854.348V552ZM886.468 471.6H900.568L917.968 517.35C919.468 521.35 920.818 525.2 922.018 528.9C923.218 532.5 924.118 535.95 924.718 539.25H925.318C925.918 536.75 926.868 533.5 928.168 529.5C929.468 525.4 930.818 521.3 932.218 517.2L948.568 471.6H962.818L928.168 563.1C925.368 570.7 921.718 576.75 917.218 581.25C912.818 585.75 906.718 588 898.918 588C896.518 588 894.418 587.85 892.618 587.55C890.818 587.35 889.268 587.1 887.968 586.8V576.3C889.068 576.5 890.368 576.7 891.868 576.9C893.468 577.1 895.118 577.2 896.818 577.2C901.418 577.2 905.118 575.9 907.918 573.3C910.818 570.7 913.068 567.25 914.668 562.95L918.868 552.3L886.468 471.6ZM1013.78 470.1C1023.68 470.1 1031.63 473.55 1037.63 480.45C1043.73 487.35 1046.78 497.75 1046.78 511.65C1046.78 525.35 1043.73 535.75 1037.63 542.85C1031.63 549.95 1023.63 553.5 1013.63 553.5C1007.43 553.5 1002.28 552.35 998.183 550.05C994.183 547.65 991.033 544.9 988.733 541.8H987.833C988.033 543.5 988.233 545.65 988.433 548.25C988.633 550.85 988.733 553.1 988.733 555V588H975.533V471.6H986.333L988.133 482.55H988.733C991.133 479.05 994.283 476.1 998.183 473.7C1002.08 471.3 1007.28 470.1 1013.78 470.1ZM1011.38 481.2C1003.18 481.2 997.383 483.5 993.983 488.1C990.683 492.7 988.933 499.7 988.733 509.1V511.65C988.733 521.55 990.333 529.2 993.533 534.6C996.833 539.9 1002.88 542.55 1011.68 542.55C1016.58 542.55 1020.58 541.2 1023.68 538.5C1026.88 535.8 1029.23 532.15 1030.73 527.55C1032.33 522.85 1033.13 517.5 1033.13 511.5C1033.13 502.3 1031.33 494.95 1027.73 489.45C1024.23 483.95 1018.78 481.2 1011.38 481.2ZM1098.87 470.1C1105.77 470.1 1111.67 471.6 1116.57 474.6C1121.57 477.6 1125.37 481.85 1127.97 487.35C1130.67 492.75 1132.02 499.1 1132.02 506.4V514.35H1076.97C1077.17 523.45 1079.47 530.4 1083.87 535.2C1088.37 539.9 1094.62 542.25 1102.62 542.25C1107.72 542.25 1112.22 541.8 1116.12 540.9C1120.12 539.9 1124.22 538.5 1128.42 536.7V548.25C1124.32 550.05 1120.27 551.35 1116.27 552.15C1112.27 553.05 1107.52 553.5 1102.02 553.5C1094.42 553.5 1087.67 551.95 1081.77 548.85C1075.97 545.75 1071.42 541.15 1068.12 535.05C1064.92 528.85 1063.32 521.3 1063.32 512.4C1063.32 503.6 1064.77 496.05 1067.67 489.75C1070.67 483.45 1074.82 478.6 1080.12 475.2C1085.52 471.8 1091.77 470.1 1098.87 470.1ZM1098.72 480.9C1092.42 480.9 1087.42 482.95 1083.72 487.05C1080.12 491.05 1077.97 496.65 1077.27 503.85H1118.22C1118.12 497.05 1116.52 491.55 1113.42 487.35C1110.32 483.05 1105.42 480.9 1098.72 480.9ZM1215.04 523.35C1215.04 532.85 1211.59 540.25 1204.69 545.55C1197.79 550.85 1188.49 553.5 1176.79 553.5C1170.79 553.5 1165.24 553.05 1160.14 552.15C1155.04 551.25 1150.79 550 1147.39 548.4V535.5C1150.99 537.1 1155.44 538.55 1160.74 539.85C1166.14 541.15 1171.69 541.8 1177.39 541.8C1185.39 541.8 1191.39 540.25 1195.39 537.15C1199.49 534.05 1201.54 529.85 1201.54 524.55C1201.54 521.05 1200.79 518.1 1199.29 515.7C1197.79 513.3 1195.19 511.1 1191.49 509.1C1187.89 507 1182.84 504.8 1176.34 502.5C1167.24 499.2 1160.34 495.15 1155.64 490.35C1151.04 485.55 1148.74 479 1148.74 470.7C1148.74 465 1150.19 460.15 1153.09 456.15C1155.99 452.05 1159.99 448.9 1165.09 446.7C1170.29 444.5 1176.24 443.4 1182.94 443.4C1188.84 443.4 1194.24 443.95 1199.14 445.05C1204.04 446.15 1208.49 447.6 1212.49 449.4L1208.29 460.95C1204.59 459.35 1200.54 458 1196.14 456.9C1191.84 455.8 1187.34 455.25 1182.64 455.25C1175.94 455.25 1170.89 456.7 1167.49 459.6C1164.09 462.4 1162.39 466.15 1162.39 470.85C1162.39 474.45 1163.14 477.45 1164.64 479.85C1166.14 482.25 1168.59 484.4 1171.99 486.3C1175.39 488.2 1179.99 490.25 1185.79 492.45C1192.09 494.75 1197.39 497.25 1201.69 499.95C1206.09 502.55 1209.39 505.7 1211.59 509.4C1213.89 513.1 1215.04 517.75 1215.04 523.35ZM1267.06 553.5C1259.96 553.5 1253.61 552.05 1248.01 549.15C1242.51 546.25 1238.16 541.75 1234.96 535.65C1231.86 529.55 1230.31 521.75 1230.31 512.25C1230.31 502.35 1231.96 494.3 1235.26 488.1C1238.56 481.9 1243.01 477.35 1248.61 474.45C1254.31 471.55 1260.76 470.1 1267.96 470.1C1272.06 470.1 1276.01 470.55 1279.81 471.45C1283.61 472.25 1286.71 473.25 1289.11 474.45L1285.06 485.4C1282.66 484.5 1279.86 483.65 1276.66 482.85C1273.46 482.05 1270.46 481.65 1267.66 481.65C1251.86 481.65 1243.96 491.8 1243.96 512.1C1243.96 521.8 1245.86 529.25 1249.66 534.45C1253.56 539.55 1259.31 542.1 1266.91 542.1C1271.31 542.1 1275.16 541.65 1278.46 540.75C1281.86 539.85 1284.96 538.75 1287.76 537.45V549.15C1285.06 550.55 1282.06 551.6 1278.76 552.3C1275.56 553.1 1271.66 553.5 1267.06 553.5ZM1344.38 470.1C1345.88 470.1 1347.48 470.2 1349.18 470.4C1350.98 470.5 1352.53 470.7 1353.83 471L1352.18 483.15C1350.88 482.85 1349.43 482.6 1347.83 482.4C1346.33 482.2 1344.88 482.1 1343.48 482.1C1339.38 482.1 1335.53 483.25 1331.93 485.55C1328.33 487.75 1325.43 490.9 1323.23 495C1321.13 499 1320.08 503.7 1320.08 509.1V552H1306.88V471.6H1317.68L1319.18 486.3H1319.78C1322.38 481.9 1325.73 478.1 1329.83 474.9C1333.93 471.7 1338.78 470.1 1344.38 470.1ZM1375.59 441.45C1377.59 441.45 1379.34 442.15 1380.84 443.55C1382.44 444.85 1383.24 446.95 1383.24 449.85C1383.24 452.65 1382.44 454.75 1380.84 456.15C1379.34 457.55 1377.59 458.25 1375.59 458.25C1373.39 458.25 1371.54 457.55 1370.04 456.15C1368.54 454.75 1367.79 452.65 1367.79 449.85C1367.79 446.95 1368.54 444.85 1370.04 443.55C1371.54 442.15 1373.39 441.45 1375.59 441.45ZM1382.04 471.6V552H1368.84V471.6H1382.04ZM1445.77 470.1C1455.67 470.1 1463.62 473.55 1469.62 480.45C1475.72 487.35 1478.77 497.75 1478.77 511.65C1478.77 525.35 1475.72 535.75 1469.62 542.85C1463.62 549.95 1455.62 553.5 1445.62 553.5C1439.42 553.5 1434.27 552.35 1430.17 550.05C1426.17 547.65 1423.02 544.9 1420.72 541.8H1419.82C1420.02 543.5 1420.22 545.65 1420.42 548.25C1420.62 550.85 1420.72 553.1 1420.72 555V588H1407.52V471.6H1418.32L1420.12 482.55H1420.72C1423.12 479.05 1426.27 476.1 1430.17 473.7C1434.07 471.3 1439.27 470.1 1445.77 470.1ZM1443.37 481.2C1435.17 481.2 1429.37 483.5 1425.97 488.1C1422.67 492.7 1420.92 499.7 1420.72 509.1V511.65C1420.72 521.55 1422.32 529.2 1425.52 534.6C1428.82 539.9 1434.87 542.55 1443.67 542.55C1448.57 542.55 1452.57 541.2 1455.67 538.5C1458.87 535.8 1461.22 532.15 1462.72 527.55C1464.32 522.85 1465.12 517.5 1465.12 511.5C1465.12 502.3 1463.32 494.95 1459.72 489.45C1456.22 483.95 1450.77 481.2 1443.37 481.2ZM1526.65 542.7C1528.65 542.7 1530.7 542.55 1532.8 542.25C1534.9 541.85 1536.6 541.45 1537.9 541.05V551.1C1536.5 551.8 1534.5 552.35 1531.9 552.75C1529.3 553.25 1526.8 553.5 1524.4 553.5C1520.2 553.5 1516.3 552.8 1512.7 551.4C1509.2 549.9 1506.35 547.35 1504.15 543.75C1501.95 540.15 1500.85 535.1 1500.85 528.6V481.8H1489.45V475.5L1501 470.25L1506.25 453.15H1514.05V471.6H1537.3V481.8H1514.05V528.3C1514.05 533.2 1515.2 536.85 1517.5 539.25C1519.9 541.55 1522.95 542.7 1526.65 542.7ZM1580.25 510.9C1580.25 523 1578.45 534.65 1574.85 545.85C1571.35 556.95 1565.8 566.9 1558.2 575.7H1545.9C1552.8 566.3 1558 556.05 1561.5 544.95C1565.1 533.75 1566.9 522.35 1566.9 510.75C1566.9 498.85 1565.1 487.25 1561.5 475.95C1558 464.65 1552.75 454.3 1545.75 444.9H1558.2C1565.8 454 1571.35 464.25 1574.85 475.65C1578.45 486.95 1580.25 498.7 1580.25 510.9Z" fill="#61DAFB"/>
<path id="line1" d="M528.715 121.88C535.809 121.88 541.035 123.24 544.395 125.96C547.809 128.627 549.515 132.68 549.515 138.12C549.515 141.16 548.955 143.693 547.835 145.72C546.715 147.747 545.275 149.373 543.515 150.6C541.809 151.773 539.995 152.707 538.075 153.4L553.755 179H545.355L531.515 155.4H520.155V179H512.955V121.88H528.715ZM528.315 128.12H520.155V149.32H528.715C533.355 149.32 536.742 148.413 538.875 146.6C541.009 144.733 542.075 142.013 542.075 138.44C542.075 134.707 540.955 132.067 538.715 130.52C536.475 128.92 533.009 128.12 528.315 128.12ZM578.321 135.32C582.001 135.32 585.148 136.12 587.761 137.72C590.428 139.32 592.454 141.587 593.841 144.52C595.281 147.4 596.001 150.787 596.001 154.68V158.92H566.641C566.748 163.773 567.974 167.48 570.321 170.04C572.721 172.547 576.054 173.8 580.321 173.8C583.041 173.8 585.441 173.56 587.521 173.08C589.654 172.547 591.841 171.8 594.081 170.84V177C591.894 177.96 589.734 178.653 587.601 179.08C585.468 179.56 582.934 179.8 580.001 179.8C575.948 179.8 572.348 178.973 569.201 177.32C566.108 175.667 563.681 173.213 561.921 169.96C560.214 166.653 559.361 162.627 559.361 157.88C559.361 153.187 560.134 149.16 561.681 145.8C563.281 142.44 565.494 139.853 568.321 138.04C571.201 136.227 574.534 135.32 578.321 135.32ZM578.241 141.08C574.881 141.08 572.214 142.173 570.241 144.36C568.321 146.493 567.174 149.48 566.801 153.32H588.641C588.588 149.693 587.734 146.76 586.081 144.52C584.428 142.227 581.814 141.08 578.241 141.08ZM626.677 141.56H615.877V179H608.837V141.56H601.317V138.28L608.837 135.88V133.4C608.837 127.853 610.064 123.88 612.517 121.48C614.971 119.027 618.384 117.8 622.757 117.8C624.464 117.8 626.011 117.96 627.397 118.28C628.837 118.547 630.064 118.867 631.077 119.24L629.237 124.76C628.384 124.493 627.397 124.227 626.277 123.96C625.157 123.693 624.011 123.56 622.837 123.56C620.491 123.56 618.731 124.36 617.557 125.96C616.437 127.507 615.877 129.96 615.877 133.32V136.12H626.677V141.56ZM650.977 135.32C654.657 135.32 657.804 136.12 660.417 137.72C663.084 139.32 665.111 141.587 666.497 144.52C667.937 147.4 668.657 150.787 668.657 154.68V158.92H639.297C639.404 163.773 640.631 167.48 642.977 170.04C645.377 172.547 648.711 173.8 652.977 173.8C655.697 173.8 658.097 173.56 660.177 173.08C662.311 172.547 664.497 171.8 666.737 170.84V177C664.551 177.96 662.391 178.653 660.257 179.08C658.124 179.56 655.591 179.8 652.657 179.8C648.604 179.8 645.004 178.973 641.857 177.32C638.764 175.667 636.337 173.213 634.577 169.96C632.871 166.653 632.017 162.627 632.017 157.88C632.017 153.187 632.791 149.16 634.337 145.8C635.937 142.44 638.151 139.853 640.977 138.04C643.857 136.227 647.191 135.32 650.977 135.32ZM650.897 141.08C647.537 141.08 644.871 142.173 642.897 144.36C640.977 146.493 639.831 149.48 639.457 153.32H661.297C661.244 149.693 660.391 146.76 658.737 144.52C657.084 142.227 654.471 141.08 650.897 141.08ZM699.573 135.32C700.373 135.32 701.227 135.373 702.133 135.48C703.093 135.533 703.92 135.64 704.613 135.8L703.733 142.28C703.04 142.12 702.267 141.987 701.413 141.88C700.613 141.773 699.84 141.72 699.093 141.72C696.907 141.72 694.853 142.333 692.933 143.56C691.013 144.733 689.467 146.413 688.293 148.6C687.173 150.733 686.613 153.24 686.613 156.12V179H679.573V136.12H685.333L686.133 143.96H686.453C687.84 141.613 689.627 139.587 691.813 137.88C694 136.173 696.587 135.32 699.573 135.32ZM727.618 135.32C731.298 135.32 734.444 136.12 737.058 137.72C739.724 139.32 741.751 141.587 743.138 144.52C744.578 147.4 745.298 150.787 745.298 154.68V158.92H715.938C716.044 163.773 717.271 167.48 719.618 170.04C722.018 172.547 725.351 173.8 729.618 173.8C732.338 173.8 734.738 173.56 736.818 173.08C738.951 172.547 741.138 171.8 743.378 170.84V177C741.191 177.96 739.031 178.653 736.898 179.08C734.764 179.56 732.231 179.8 729.298 179.8C725.244 179.8 721.644 178.973 718.498 177.32C715.404 175.667 712.978 173.213 711.218 169.96C709.511 166.653 708.658 162.627 708.658 157.88C708.658 153.187 709.431 149.16 710.978 145.8C712.578 142.44 714.791 139.853 717.618 138.04C720.498 136.227 723.831 135.32 727.618 135.32ZM727.538 141.08C724.178 141.08 721.511 142.173 719.538 144.36C717.618 146.493 716.471 149.48 716.098 153.32H737.938C737.884 149.693 737.031 146.76 735.378 144.52C733.724 142.227 731.111 141.08 727.538 141.08ZM776.854 135.32C781.974 135.32 785.841 136.573 788.454 139.08C791.067 141.533 792.374 145.533 792.374 151.08V179H785.414V151.56C785.414 144.68 782.214 141.24 775.814 141.24C771.067 141.24 767.787 142.573 765.974 145.24C764.161 147.907 763.254 151.747 763.254 156.76V179H756.214V136.12H761.894L762.934 141.96H763.334C764.721 139.72 766.641 138.067 769.094 137C771.547 135.88 774.134 135.32 776.854 135.32ZM822.867 179.8C819.081 179.8 815.694 179.027 812.707 177.48C809.774 175.933 807.454 173.533 805.747 170.28C804.094 167.027 803.267 162.867 803.267 157.8C803.267 152.52 804.147 148.227 805.907 144.92C807.667 141.613 810.041 139.187 813.027 137.64C816.067 136.093 819.507 135.32 823.347 135.32C825.534 135.32 827.641 135.56 829.667 136.04C831.694 136.467 833.347 137 834.627 137.64L832.467 143.48C831.187 143 829.694 142.547 827.987 142.12C826.281 141.693 824.681 141.48 823.187 141.48C814.761 141.48 810.547 146.893 810.547 157.72C810.547 162.893 811.561 166.867 813.587 169.64C815.667 172.36 818.734 173.72 822.787 173.72C825.134 173.72 827.187 173.48 828.947 173C830.761 172.52 832.414 171.933 833.907 171.24V177.48C832.467 178.227 830.867 178.787 829.107 179.16C827.401 179.587 825.321 179.8 822.867 179.8ZM860.665 135.32C864.345 135.32 867.491 136.12 870.105 137.72C872.771 139.32 874.798 141.587 876.185 144.52C877.625 147.4 878.345 150.787 878.345 154.68V158.92H848.985C849.091 163.773 850.318 167.48 852.665 170.04C855.065 172.547 858.398 173.8 862.665 173.8C865.385 173.8 867.785 173.56 869.865 173.08C871.998 172.547 874.185 171.8 876.425 170.84V177C874.238 177.96 872.078 178.653 869.945 179.08C867.811 179.56 865.278 179.8 862.345 179.8C858.291 179.8 854.691 178.973 851.545 177.32C848.451 175.667 846.025 173.213 844.265 169.96C842.558 166.653 841.705 162.627 841.705 157.88C841.705 153.187 842.478 149.16 844.025 145.8C845.625 142.44 847.838 139.853 850.665 138.04C853.545 136.227 856.878 135.32 860.665 135.32ZM860.585 141.08C857.225 141.08 854.558 142.173 852.585 144.36C850.665 146.493 849.518 149.48 849.145 153.32H870.985C870.931 149.693 870.078 146.76 868.425 144.52C866.771 142.227 864.158 141.08 860.585 141.08ZM917.082 136.04C917.082 138.173 916.949 140.173 916.682 142.04H917.162C918.549 139.853 920.416 138.2 922.762 137.08C925.162 135.96 927.749 135.4 930.522 135.4C935.749 135.4 939.669 136.653 942.282 139.16C944.896 141.613 946.202 145.587 946.202 151.08V179H939.242V151.56C939.242 144.68 936.042 141.24 929.642 141.24C924.842 141.24 921.536 142.6 919.722 145.32C917.962 147.987 917.082 151.827 917.082 156.84V179H910.042V118.2H917.082V136.04ZM975.735 135.4C980.962 135.4 984.829 136.547 987.335 138.84C989.842 141.133 991.095 144.787 991.095 149.8V179H985.975L984.615 172.92H984.295C982.429 175.267 980.455 177 978.375 178.12C976.349 179.24 973.522 179.8 969.895 179.8C966.002 179.8 962.775 178.787 960.215 176.76C957.655 174.68 956.375 171.453 956.375 167.08C956.375 162.813 958.055 159.533 961.415 157.24C964.775 154.893 969.949 153.613 976.935 153.4L984.215 153.16V150.6C984.215 147.027 983.442 144.547 981.895 143.16C980.349 141.773 978.162 141.08 975.335 141.08C973.095 141.08 970.962 141.427 968.935 142.12C966.909 142.76 965.015 143.507 963.255 144.36L961.095 139.08C962.962 138.067 965.175 137.213 967.735 136.52C970.295 135.773 972.962 135.4 975.735 135.4ZM977.815 158.28C972.482 158.493 968.775 159.347 966.695 160.84C964.669 162.333 963.655 164.44 963.655 167.16C963.655 169.56 964.375 171.32 965.815 172.44C967.309 173.56 969.202 174.12 971.495 174.12C975.122 174.12 978.135 173.133 980.535 171.16C982.935 169.133 984.135 166.04 984.135 161.88V158.04L977.815 158.28ZM1024.98 135.32C1030.1 135.32 1033.97 136.573 1036.58 139.08C1039.19 141.533 1040.5 145.533 1040.5 151.08V179H1033.54V151.56C1033.54 144.68 1030.34 141.24 1023.94 141.24C1019.19 141.24 1015.91 142.573 1014.1 145.24C1012.29 147.907 1011.38 151.747 1011.38 156.76V179H1004.34V136.12H1010.02L1011.06 141.96H1011.46C1012.85 139.72 1014.77 138.067 1017.22 137C1019.67 135.88 1022.26 135.32 1024.98 135.32ZM1068.99 179.8C1063.66 179.8 1059.39 177.96 1056.19 174.28C1052.99 170.547 1051.39 165 1051.39 157.64C1051.39 150.28 1052.99 144.733 1056.19 141C1059.45 137.213 1063.74 135.32 1069.07 135.32C1072.38 135.32 1075.07 135.933 1077.15 137.16C1079.29 138.387 1081.02 139.88 1082.35 141.64H1082.83C1082.78 140.947 1082.67 139.933 1082.51 138.6C1082.41 137.213 1082.35 136.12 1082.35 135.32V118.2H1089.39V179H1083.71L1082.67 173.24H1082.35C1081.07 175.053 1079.37 176.6 1077.23 177.88C1075.1 179.16 1072.35 179.8 1068.99 179.8ZM1070.11 173.96C1074.65 173.96 1077.82 172.733 1079.63 170.28C1081.5 167.773 1082.43 164.013 1082.43 159V157.72C1082.43 152.387 1081.55 148.307 1079.79 145.48C1078.03 142.6 1074.78 141.16 1070.03 141.16C1066.25 141.16 1063.39 142.68 1061.47 145.72C1059.61 148.707 1058.67 152.733 1058.67 157.8C1058.67 162.92 1059.61 166.893 1061.47 169.72C1063.39 172.547 1066.27 173.96 1070.11 173.96ZM1110.05 133C1110.05 134.813 1110 136.52 1109.89 138.12C1109.84 139.667 1109.76 140.893 1109.65 141.8H1110.05C1111.28 139.987 1112.96 138.467 1115.09 137.24C1117.22 136.013 1119.97 135.4 1123.33 135.4C1128.66 135.4 1132.93 137.267 1136.13 141C1139.38 144.68 1141.01 150.2 1141.01 157.56C1141.01 164.92 1139.38 170.467 1136.13 174.2C1132.88 177.933 1128.61 179.8 1123.33 179.8C1119.97 179.8 1117.22 179.187 1115.09 177.96C1112.96 176.733 1111.28 175.267 1110.05 173.56H1109.49L1108.05 179H1103.01V118.2H1110.05V133ZM1122.13 141.24C1117.6 141.24 1114.45 142.547 1112.69 145.16C1110.93 147.773 1110.05 151.827 1110.05 157.32V157.64C1110.05 162.92 1110.9 166.973 1112.61 169.8C1114.37 172.573 1117.6 173.96 1122.29 173.96C1126.13 173.96 1128.98 172.547 1130.85 169.72C1132.77 166.893 1133.73 162.813 1133.73 157.48C1133.73 146.653 1129.86 141.24 1122.13 141.24ZM1189.51 157.48C1189.51 164.573 1187.7 170.067 1184.07 173.96C1180.5 177.853 1175.64 179.8 1169.51 179.8C1165.72 179.8 1162.34 178.947 1159.35 177.24C1156.42 175.48 1154.1 172.947 1152.39 169.64C1150.68 166.28 1149.83 162.227 1149.83 157.48C1149.83 150.387 1151.62 144.92 1155.19 141.08C1158.76 137.24 1163.62 135.32 1169.75 135.32C1173.64 135.32 1177.06 136.2 1179.99 137.96C1182.98 139.667 1185.3 142.173 1186.95 145.48C1188.66 148.733 1189.51 152.733 1189.51 157.48ZM1157.11 157.48C1157.11 162.547 1158.1 166.573 1160.07 169.56C1162.1 172.493 1165.3 173.96 1169.67 173.96C1173.99 173.96 1177.16 172.493 1179.19 169.56C1181.22 166.573 1182.23 162.547 1182.23 157.48C1182.23 152.413 1181.22 148.44 1179.19 145.56C1177.16 142.68 1173.96 141.24 1169.59 141.24C1165.22 141.24 1162.04 142.68 1160.07 145.56C1158.1 148.44 1157.11 152.413 1157.11 157.48ZM1237.95 157.48C1237.95 164.573 1236.13 170.067 1232.51 173.96C1228.93 177.853 1224.08 179.8 1217.95 179.8C1214.16 179.8 1210.77 178.947 1207.79 177.24C1204.85 175.48 1202.53 172.947 1200.83 169.64C1199.12 166.28 1198.27 162.227 1198.27 157.48C1198.27 150.387 1200.05 144.92 1203.63 141.08C1207.2 137.24 1212.05 135.32 1218.19 135.32C1222.08 135.32 1225.49 136.2 1228.43 137.96C1231.41 139.667 1233.73 142.173 1235.39 145.48C1237.09 148.733 1237.95 152.733 1237.95 157.48ZM1205.55 157.48C1205.55 162.547 1206.53 166.573 1208.51 169.56C1210.53 172.493 1213.73 173.96 1218.11 173.96C1222.43 173.96 1225.6 172.493 1227.63 169.56C1229.65 166.573 1230.67 162.547 1230.67 157.48C1230.67 152.413 1229.65 148.44 1227.63 145.56C1225.6 142.68 1222.4 141.24 1218.03 141.24C1213.65 141.24 1210.48 142.68 1208.51 145.56C1206.53 148.44 1205.55 152.413 1205.55 157.48ZM1256.06 149.96C1256.06 150.813 1256.01 151.933 1255.9 153.32C1255.85 154.707 1255.8 155.907 1255.74 156.92H1256.06C1256.38 156.493 1256.86 155.88 1257.5 155.08C1258.14 154.28 1258.78 153.48 1259.42 152.68C1260.12 151.827 1260.7 151.133 1261.18 150.6L1274.86 136.12H1283.1L1265.74 154.44L1284.3 179H1275.82L1260.94 159L1256.06 163.24V179H1249.1V118.2H1256.06V149.96ZM1332.38 141.56H1321.58V179H1314.54V141.56H1307.02V138.28L1314.54 135.88V133.4C1314.54 127.853 1315.77 123.88 1318.22 121.48C1320.67 119.027 1324.09 117.8 1328.46 117.8C1330.17 117.8 1331.71 117.96 1333.1 118.28C1334.54 118.547 1335.77 118.867 1336.78 119.24L1334.94 124.76C1334.09 124.493 1333.1 124.227 1331.98 123.96C1330.86 123.693 1329.71 123.56 1328.54 123.56C1326.19 123.56 1324.43 124.36 1323.26 125.96C1322.14 127.507 1321.58 129.96 1321.58 133.32V136.12H1332.38V141.56ZM1377.4 157.48C1377.4 164.573 1375.59 170.067 1371.96 173.96C1368.39 177.853 1363.53 179.8 1357.4 179.8C1353.61 179.8 1350.23 178.947 1347.24 177.24C1344.31 175.48 1341.99 172.947 1340.28 169.64C1338.57 166.28 1337.72 162.227 1337.72 157.48C1337.72 150.387 1339.51 144.92 1343.08 141.08C1346.65 137.24 1351.51 135.32 1357.64 135.32C1361.53 135.32 1364.95 136.2 1367.88 137.96C1370.87 139.667 1373.19 142.173 1374.84 145.48C1376.55 148.733 1377.4 152.733 1377.4 157.48ZM1345 157.48C1345 162.547 1345.99 166.573 1347.96 169.56C1349.99 172.493 1353.19 173.96 1357.56 173.96C1361.88 173.96 1365.05 172.493 1367.08 169.56C1369.11 166.573 1370.12 162.547 1370.12 157.48C1370.12 152.413 1369.11 148.44 1367.08 145.56C1365.05 142.68 1361.85 141.24 1357.48 141.24C1353.11 141.24 1349.93 142.68 1347.96 145.56C1345.99 148.44 1345 152.413 1345 157.48ZM1408.56 135.32C1409.36 135.32 1410.21 135.373 1411.12 135.48C1412.08 135.533 1412.9 135.64 1413.6 135.8L1412.72 142.28C1412.02 142.12 1411.25 141.987 1410.4 141.88C1409.6 141.773 1408.82 141.72 1408.08 141.72C1405.89 141.72 1403.84 142.333 1401.92 143.56C1400 144.733 1398.45 146.413 1397.28 148.6C1396.16 150.733 1395.6 153.24 1395.6 156.12V179H1388.56V136.12H1394.32L1395.12 143.96H1395.44C1396.82 141.613 1398.61 139.587 1400.8 137.88C1402.98 136.173 1405.57 135.32 1408.56 135.32Z" fill="#9B9B9B"/>
<g id="react-logo">
<path id="Vector" d="M505.32 848.981C505.32 828.755 479.99 809.587 441.156 797.7C450.118 758.12 446.135 726.629 428.585 716.547C424.54 714.182 419.81 713.062 414.645 713.062V726.94C417.508 726.94 419.81 727.501 421.739 728.558C430.203 733.413 433.875 751.896 431.012 775.67C430.328 781.52 429.208 787.681 427.838 793.966C415.641 790.979 402.322 788.676 388.32 787.183C379.918 775.67 371.206 765.214 362.431 756.066C382.719 737.209 401.762 726.878 414.707 726.878V713C397.593 713 375.188 725.198 352.535 746.357C329.882 725.322 307.478 713.249 290.364 713.249V727.127C303.246 727.127 322.352 737.396 342.64 756.128C333.927 765.276 325.215 775.67 316.938 787.183C302.873 788.676 289.555 790.979 277.357 794.029C275.925 787.805 274.867 781.768 274.121 775.981C271.196 752.207 274.805 733.724 283.207 728.807C285.074 727.687 287.501 727.189 290.364 727.189V713.311C285.136 713.311 280.406 714.431 276.299 716.796C258.811 726.878 254.89 758.306 263.914 797.763C225.205 809.712 200 828.817 200 848.981C200 869.207 225.329 888.375 264.163 900.262C255.201 939.843 259.184 971.333 276.734 981.415C280.78 983.78 285.509 984.9 290.737 984.9C307.851 984.9 330.256 972.702 352.909 951.543C375.562 972.578 397.966 984.651 415.08 984.651C420.308 984.651 425.038 983.531 429.145 981.166C446.633 971.084 450.554 939.656 441.53 900.2C480.115 888.313 505.32 869.145 505.32 848.981ZM424.291 807.471C421.988 815.499 419.126 823.776 415.889 832.053C413.338 827.075 410.662 822.096 407.737 817.117C404.874 812.139 401.825 807.284 398.775 802.555C407.612 803.862 416.138 805.48 424.291 807.471ZM395.788 873.75C390.934 882.152 385.955 890.118 380.79 897.524C371.517 898.333 362.119 898.768 352.66 898.768C343.262 898.768 333.865 898.333 324.655 897.586C319.489 890.18 314.448 882.276 309.594 873.937C304.864 865.784 300.57 857.507 296.649 849.168C300.508 840.828 304.864 832.489 309.532 824.336C314.386 815.935 319.365 807.969 324.53 800.563C333.803 799.754 343.2 799.318 352.66 799.318C362.057 799.318 371.454 799.754 380.665 800.501C385.83 807.907 390.871 815.81 395.726 824.15C400.455 832.302 404.75 840.58 408.67 848.919C404.75 857.258 400.455 865.598 395.788 873.75ZM415.889 865.66C419.25 873.999 422.113 882.339 424.478 890.429C416.325 892.42 407.737 894.101 398.837 895.408C401.887 890.616 404.936 885.699 407.799 880.658C410.662 875.679 413.338 870.639 415.889 865.66ZM352.784 932.063C346.997 926.089 341.209 919.43 335.483 912.149C341.084 912.397 346.81 912.584 352.598 912.584C358.448 912.584 364.235 912.46 369.899 912.149C364.298 919.43 358.51 926.089 352.784 932.063ZM306.482 895.408C297.645 894.101 289.119 892.483 280.966 890.491C283.269 882.463 286.132 874.186 289.368 865.909C291.92 870.887 294.596 875.866 297.521 880.845C300.446 885.824 303.433 890.678 306.482 895.408ZM352.473 765.899C358.261 771.873 364.049 778.532 369.774 785.814C364.173 785.565 358.448 785.378 352.66 785.378C346.81 785.378 341.022 785.503 335.359 785.814C340.96 778.532 346.748 771.873 352.473 765.899ZM306.42 802.555C303.371 807.347 300.321 812.263 297.458 817.304C294.596 822.283 291.92 827.261 289.368 832.24C286.007 823.901 283.145 815.562 280.78 807.471C288.932 805.542 297.521 803.862 306.42 802.555ZM250.098 880.471C228.068 871.074 213.816 858.752 213.816 848.981C213.816 839.21 228.068 826.826 250.098 817.491C255.45 815.188 261.3 813.134 267.337 811.205C270.884 823.403 275.552 836.099 281.34 849.106C275.614 862.05 271.009 874.684 267.524 886.819C261.363 884.89 255.513 882.774 250.098 880.471ZM283.58 969.404C275.116 964.55 271.445 946.066 274.307 922.293C274.992 916.443 276.112 910.282 277.481 903.996C289.679 906.983 302.997 909.286 317 910.779C325.401 922.293 334.114 932.748 342.889 941.896C322.601 960.753 303.557 971.084 290.613 971.084C287.812 971.022 285.447 970.462 283.58 969.404ZM431.199 921.982C434.124 945.755 430.514 964.238 422.113 969.155C420.246 970.275 417.819 970.773 414.956 970.773C402.074 970.773 382.968 960.504 362.679 941.772C371.392 932.624 380.105 922.23 388.382 910.717C402.447 909.224 415.765 906.921 427.963 903.871C429.394 910.157 430.514 916.194 431.199 921.982ZM455.159 880.471C449.807 882.774 443.957 884.828 437.92 886.757C434.373 874.559 429.705 861.864 423.918 848.857C429.643 835.912 434.248 823.279 437.734 811.143C443.895 813.072 449.745 815.188 455.221 817.491C477.252 826.888 491.504 839.21 491.504 848.981C491.441 858.752 477.19 871.136 455.159 880.471Z" fill="#61DAFB"/>
<path id="Vector_2" d="M352.597 877.422C368.305 877.422 381.038 864.689 381.038 848.981C381.038 833.274 368.305 820.54 352.597 820.54C336.89 820.54 324.156 833.274 324.156 848.981C324.156 864.689 336.89 877.422 352.597 877.422Z" fill="#61DAFB"/>
</g>
<g id="redux-logo">
<path id="Vector_3" d="M1018.56 898.558C1029.67 897.409 1038.09 887.833 1037.71 876.342C1037.33 864.852 1027.75 855.659 1016.26 855.659H1015.49C1003.62 856.042 994.427 866.001 994.81 877.875C995.193 883.62 997.491 888.599 1000.94 892.047C987.916 917.71 967.998 936.478 938.122 952.182C917.821 962.907 896.755 966.737 875.688 964.056C858.452 961.758 845.046 954.097 836.619 941.457C824.362 922.689 823.213 902.388 833.555 882.088C840.832 867.533 852.323 856.808 859.601 851.446C858.069 846.466 855.771 838.04 854.621 831.911C799.082 872.129 804.828 926.519 821.681 952.182C834.321 971.334 859.984 983.208 888.328 983.208C895.989 983.208 903.649 982.442 911.31 980.526C960.337 970.951 997.491 941.84 1018.56 898.558V898.558Z" fill="#764ABC"/>
<path id="Vector_4" d="M1085.98 851.063C1056.87 816.973 1013.97 798.205 964.94 798.205H958.812C955.364 791.31 948.087 786.714 940.043 786.714H939.277C927.403 787.097 918.211 797.055 918.594 808.929C918.977 820.42 928.552 829.613 940.043 829.613H940.809C949.236 829.23 956.513 823.867 959.578 816.59H966.472C995.582 816.59 1023.16 825.017 1048.06 841.487C1067.21 854.127 1081 870.597 1088.66 890.515C1095.17 906.602 1094.79 922.306 1087.89 935.712C1077.17 956.012 1059.17 967.12 1035.42 967.12C1020.1 967.12 1005.54 962.524 997.881 959.077C993.667 962.907 986.007 969.035 980.644 972.866C997.115 980.526 1013.97 984.74 1030.06 984.74C1066.83 984.74 1094.02 964.439 1104.36 944.139C1115.47 921.923 1114.7 883.62 1085.98 851.063Z" fill="#764ABC"/>
<path id="Vector_5" d="M891.386 905.07C891.769 916.561 901.345 925.753 912.836 925.753H913.602C925.476 925.37 934.669 915.411 934.285 903.538C933.902 892.047 924.327 882.854 912.836 882.854H912.07C911.304 882.854 910.155 882.854 909.389 883.237C893.684 857.191 887.173 828.847 889.471 798.205C891.003 775.223 898.664 755.305 912.07 738.835C923.178 724.663 944.627 717.768 959.182 717.385C999.783 716.619 1017.02 767.179 1018.17 787.48C1023.15 788.629 1031.57 791.31 1037.32 793.225C1032.72 731.174 994.421 699 957.65 699C923.178 699 891.386 723.897 878.746 760.668C861.127 809.695 872.618 856.808 894.067 893.962C892.152 896.643 891.003 900.856 891.386 905.07V905.07Z" fill="#764ABC"/>
</g>
<g id="ts-logo">
<path id="Vector_6" d="M1686.61 684H1444.39C1428.16 684 1415 697.16 1415 713.395V955.605C1415 971.84 1428.16 985 1444.39 985H1686.61C1702.84 985 1716 971.84 1716 955.605V713.395C1716 697.16 1702.84 684 1686.61 684Z" fill="#3178C6"/>
<path id="Vector_7" fill-rule="evenodd" clip-rule="evenodd" d="M1601.36 923.271V952.666C1606.12 955.135 1611.94 956.958 1618.41 958.192C1624.88 959.427 1631.93 960.015 1638.99 960.015C1646.04 960.015 1652.51 959.368 1658.97 958.016C1665.44 956.664 1670.73 954.43 1675.44 951.549C1680.2 948.433 1684.25 944.494 1686.61 939.203C1688.96 933.912 1690.78 928.033 1690.78 920.391C1690.78 915.041 1689.96 910.397 1688.37 906.281C1686.78 902.166 1684.49 898.639 1681.31 895.699C1678.32 892.584 1674.85 889.821 1670.73 887.469C1666.62 885.117 1661.91 882.648 1656.62 880.414C1652.74 878.827 1649.57 877.298 1646.04 875.77C1642.98 874.241 1640.34 872.713 1638.4 871.184C1636.22 869.597 1634.58 867.951 1633.4 866.246C1632.23 864.482 1631.64 862.542 1631.64 860.367C1631.64 858.368 1632.16 856.546 1633.23 854.9C1634.29 853.254 1635.75 851.902 1637.63 850.726C1639.52 849.55 1641.87 848.668 1644.69 848.021C1647.45 847.375 1650.51 847.081 1654.1 847.081C1656.56 847.081 1659.15 847.263 1661.74 847.633C1664.44 848.004 1667.21 848.574 1669.97 849.338C1672.73 850.103 1675.44 851.043 1678.2 852.219C1680.79 853.395 1683.2 854.747 1685.25 856.275V828.645C1680.79 826.94 1675.85 825.646 1670.56 824.823C1665.27 824 1659.39 823.589 1652.33 823.589C1645.28 823.589 1638.81 824.353 1632.34 825.823C1625.88 827.292 1620.59 829.644 1615.88 832.877C1611.12 836.052 1607.65 839.932 1604.71 845.223C1601.95 850.161 1600.6 855.805 1600.6 862.86C1600.6 871.678 1603.13 879.321 1608.24 885.2C1613.3 891.666 1621.17 896.37 1631.17 901.073C1635.22 902.719 1638.81 904.365 1642.34 905.952C1645.86 907.54 1648.8 909.186 1651.16 910.891C1653.68 912.595 1655.68 914.477 1657.03 916.475C1658.5 918.474 1659.27 920.826 1659.27 923.53C1659.27 925.411 1658.81 927.175 1657.92 928.821C1657.02 930.467 1655.62 931.878 1653.74 933.054C1651.86 934.23 1649.57 935.17 1646.69 935.876C1643.92 936.523 1640.81 936.875 1636.69 936.875C1630.23 936.875 1623.76 935.758 1617.88 933.524C1611.41 931.29 1605.54 927.939 1600.24 923.53L1601.36 923.271ZM1551.98 850.961H1589.6V826.857H1484.37V850.961H1522V958.545H1551.98V850.961Z" fill="white"/>
</g>
</g>
<defs>
<linearGradient id="paint0_linear_424:2" x1="948.605" y1="-540" x2="31.2584" y2="1110.2" gradientUnits="userSpaceOnUse">
<stop stop-color="#0B0B0B" stop-opacity="0.01"/>
<stop offset="1"/>
</linearGradient>
</defs>
</svg>
