<svg width="1920" height="1080" viewBox="0 0 1920 1080" fill="none" xmlns="http://www.w3.org/2000/svg">
<g clip-path="url(#clip0_1296_61)">
<path d="M1920 0H0V1080H1920V0Z" fill="url(#paint0_linear_1296_61)" fill-opacity="0.5"/>
<path d="M322.427 177.381V120.924H329.561V171.026H355.309L354.489 177.381H322.427ZM390.578 134.208V171.928H402.755V177.381H370.365V171.928H383.69V139.661H370.775V134.208H390.578ZM385.084 113.995C386.615 113.995 387.831 114.46 388.733 115.389C389.663 116.318 390.127 117.453 390.127 118.792C390.127 120.186 389.663 121.361 388.733 122.318C387.831 123.247 386.615 123.712 385.084 123.712C383.636 123.712 382.447 123.247 381.517 122.318C380.588 121.361 380.123 120.186 380.123 118.792C380.123 117.453 380.588 116.318 381.517 115.389C382.447 114.46 383.636 113.995 385.084 113.995ZM417.893 177.381V134.208H423.756L424.289 140.194C426.039 137.98 428.225 136.285 430.849 135.11C433.501 133.907 436.07 133.306 438.557 133.306C442.794 133.306 445.869 134.427 447.782 136.668C449.723 138.909 450.693 142.025 450.693 146.016V177.381H443.805V151.1C443.805 148.148 443.641 145.77 443.313 143.966C442.985 142.135 442.302 140.809 441.263 139.989C440.225 139.142 438.612 138.718 436.425 138.718C434.731 138.718 433.132 139.087 431.628 139.825C430.152 140.563 428.827 141.492 427.651 142.613C426.503 143.706 425.547 144.813 424.781 145.934V177.381H417.893ZM473.949 134.208V164.794C473.949 167.637 474.537 169.687 475.712 170.944C476.888 172.201 478.719 172.83 481.206 172.83C483.584 172.83 485.826 172.16 487.93 170.821C490.062 169.454 491.716 167.842 492.891 165.983V134.208H499.779V177.381H493.916L493.342 171.559C491.648 173.746 489.557 175.427 487.069 176.602C484.582 177.75 482.067 178.324 479.525 178.324C475.343 178.324 472.214 177.217 470.136 175.003C468.086 172.762 467.061 169.632 467.061 165.614V134.208H473.949ZM520.411 177.381H512.539L528.488 154.585L514.507 134.208H522.666L532.67 150.28L542.797 134.208H550.669L536.729 154.298L552.637 177.381H544.191L532.383 158.849L520.411 177.381ZM636.418 134.208V171.928H648.595V177.381H616.205V171.928H629.53V139.661H616.615V134.208H636.418ZM630.924 113.995C632.455 113.995 633.671 114.46 634.573 115.389C635.503 116.318 635.967 117.453 635.967 118.792C635.967 120.186 635.503 121.361 634.573 122.318C633.671 123.247 632.455 123.712 630.924 123.712C629.476 123.712 628.287 123.247 627.357 122.318C626.428 121.361 625.963 120.186 625.963 118.792C625.963 117.453 626.428 116.318 627.357 115.389C628.287 114.46 629.476 113.995 630.924 113.995ZM680.174 133.306C684.247 133.306 687.65 134.235 690.383 136.094C693.144 137.925 695.208 140.522 696.574 143.884C697.968 147.246 698.665 151.209 698.665 155.774C698.665 160.175 697.955 164.07 696.533 167.459C695.112 170.848 693.021 173.513 690.26 175.454C687.527 177.367 684.138 178.324 680.092 178.324C676.047 178.324 672.644 177.395 669.883 175.536C667.123 173.677 665.032 171.067 663.61 167.705C662.216 164.316 661.519 160.366 661.519 155.856C661.519 151.401 662.23 147.478 663.651 144.089C665.073 140.7 667.164 138.062 669.924 136.176C672.712 134.263 676.129 133.306 680.174 133.306ZM680.174 138.923C676.457 138.923 673.642 140.303 671.728 143.064C669.842 145.797 668.899 150.061 668.899 155.856C668.899 161.541 669.829 165.764 671.687 168.525C673.573 171.286 676.375 172.666 680.092 172.666C683.81 172.666 686.598 171.286 688.456 168.525C690.342 165.764 691.285 161.514 691.285 155.774C691.285 150.034 690.356 145.797 688.497 143.064C686.639 140.303 683.864 138.923 680.174 138.923ZM708.76 192.264V186.237H749.76V192.264H708.76ZM768.957 134.208V164.794C768.957 167.637 769.545 169.687 770.72 170.944C771.895 172.201 773.727 172.83 776.214 172.83C778.592 172.83 780.833 172.16 782.938 170.821C785.07 169.454 786.724 167.842 787.899 165.983V134.208H794.787V177.381H788.924L788.35 171.559C786.655 173.746 784.564 175.427 782.077 176.602C779.59 177.75 777.075 178.324 774.533 178.324C770.351 178.324 767.221 177.217 765.144 175.003C763.094 172.762 762.069 169.632 762.069 165.614V134.208H768.957ZM811.647 177.381V172.092H818.371V139.497H811.647V134.208H823.619L824.89 144.417C826.557 140.864 828.58 138.117 830.958 136.176C833.336 134.235 836.479 133.265 840.388 133.265C841.591 133.265 842.657 133.361 843.586 133.552C844.543 133.716 845.513 133.935 846.497 134.208L844.488 140.358C843.586 140.112 842.766 139.934 842.028 139.825C841.29 139.688 840.443 139.62 839.486 139.62C836.179 139.62 833.336 140.795 830.958 143.146C828.58 145.497 826.68 149.05 825.259 153.806V172.092H834.033V177.381H811.647ZM839.855 148.804V139.415L840.552 134.208H846.497L845.513 148.804H839.855ZM882.258 134.208V171.928H894.435V177.381H862.045V171.928H875.37V139.661H862.455V134.208H882.258ZM876.764 113.995C878.295 113.995 879.511 114.46 880.413 115.389C881.342 116.318 881.807 117.453 881.807 118.792C881.807 120.186 881.342 121.361 880.413 122.318C879.511 123.247 878.295 123.712 876.764 123.712C875.315 123.712 874.126 123.247 873.197 122.318C872.268 121.361 871.803 120.186 871.803 118.792C871.803 117.453 872.268 116.318 873.197 115.389C874.126 114.46 875.315 113.995 876.764 113.995ZM909.573 177.381V134.208H915.436L915.969 140.194C917.718 137.98 919.905 136.285 922.529 135.11C925.18 133.907 927.75 133.306 930.237 133.306C934.474 133.306 937.549 134.427 939.462 136.668C941.403 138.909 942.373 142.025 942.373 146.016V177.381H935.485V151.1C935.485 148.148 935.321 145.77 934.993 143.966C934.665 142.135 933.982 140.809 932.943 139.989C931.904 139.142 930.292 138.718 928.105 138.718C926.41 138.718 924.811 139.087 923.308 139.825C921.832 140.563 920.506 141.492 919.331 142.613C918.183 143.706 917.226 144.813 916.461 145.934V177.381H909.573ZM993.837 129.616L995.969 136.094C994.138 136.668 992.183 137.023 990.106 137.16C988.029 137.297 985.774 137.365 983.341 137.365C985.828 138.513 987.701 140.003 988.958 141.834C990.215 143.638 990.844 145.77 990.844 148.23C990.844 151.073 990.202 153.601 988.917 155.815C987.632 158.029 985.774 159.765 983.341 161.022C980.936 162.279 978.025 162.908 974.608 162.908C973.159 162.908 971.943 162.84 970.959 162.703C970.002 162.566 969.073 162.361 968.171 162.088C967.515 162.525 966.968 163.127 966.531 163.892C966.121 164.657 965.916 165.45 965.916 166.27C965.916 167.309 966.326 168.17 967.146 168.853C967.966 169.536 969.483 169.878 971.697 169.878H979.487C982.384 169.878 984.981 170.397 987.277 171.436C989.6 172.475 991.418 173.869 992.73 175.618C994.069 177.367 994.739 179.363 994.739 181.604C994.739 185.841 992.935 189.093 989.327 191.362C985.746 193.631 980.676 194.765 974.116 194.765C969.524 194.765 965.902 194.287 963.251 193.33C960.6 192.401 958.7 190.966 957.552 189.025C956.431 187.112 955.871 184.693 955.871 181.768H962.103C962.103 183.435 962.431 184.816 963.087 185.909C963.743 187.002 964.932 187.809 966.654 188.328C968.376 188.875 970.85 189.148 974.075 189.148C977.246 189.148 979.829 188.875 981.824 188.328C983.847 187.809 985.336 187.016 986.293 185.95C987.277 184.911 987.769 183.613 987.769 182.055C987.769 180.005 986.84 178.461 984.981 177.422C983.122 176.383 980.799 175.864 978.011 175.864H970.303C966.586 175.864 963.839 175.044 962.062 173.404C960.313 171.764 959.438 169.878 959.438 167.746C959.438 166.352 959.834 164.999 960.627 163.687C961.447 162.375 962.636 161.213 964.194 160.202C961.707 158.89 959.875 157.264 958.7 155.323C957.525 153.382 956.937 151.032 956.937 148.271C956.937 145.346 957.661 142.763 959.11 140.522C960.559 138.253 962.581 136.477 965.178 135.192C967.775 133.907 970.768 133.265 974.157 133.265C977.792 133.238 980.744 133.087 983.013 132.814C985.282 132.513 987.222 132.09 988.835 131.543C990.475 130.996 992.142 130.354 993.837 129.616ZM974.157 138.308C970.686 138.308 968.116 139.251 966.449 141.137C964.809 142.996 963.989 145.374 963.989 148.271C963.989 151.196 964.836 153.601 966.531 155.487C968.226 157.373 970.822 158.316 974.321 158.316C977.382 158.316 979.706 157.428 981.291 155.651C982.904 153.874 983.71 151.401 983.71 148.23C983.71 144.977 982.904 142.517 981.291 140.85C979.706 139.155 977.328 138.308 974.157 138.308ZM1062.49 158.234C1062.63 161.569 1063.27 164.302 1064.42 166.434C1065.56 168.539 1067.08 170.097 1068.97 171.108C1070.85 172.092 1072.9 172.584 1075.12 172.584C1077.33 172.584 1079.33 172.256 1081.1 171.6C1082.91 170.944 1084.75 169.974 1086.64 168.689L1089.88 173.24C1087.85 174.825 1085.54 176.069 1082.95 176.971C1080.38 177.873 1077.74 178.324 1075.03 178.324C1070.85 178.324 1067.29 177.381 1064.33 175.495C1061.38 173.609 1059.13 170.985 1057.57 167.623C1056.04 164.234 1055.27 160.311 1055.27 155.856C1055.27 151.483 1056.05 147.601 1057.61 144.212C1059.17 140.823 1061.35 138.158 1064.17 136.217C1066.99 134.276 1070.31 133.306 1074.13 133.306C1077.77 133.306 1080.9 134.167 1083.52 135.889C1086.15 137.584 1088.15 140.016 1089.55 143.187C1090.97 146.33 1091.68 150.089 1091.68 154.462C1091.68 155.2 1091.67 155.897 1091.64 156.553C1091.61 157.182 1091.57 157.742 1091.52 158.234H1062.49ZM1074.21 138.964C1071.02 138.964 1068.34 140.098 1066.18 142.367C1064.05 144.636 1062.83 148.148 1062.53 152.904H1085.04C1084.96 148.285 1083.95 144.813 1082 142.49C1080.06 140.139 1077.47 138.964 1074.21 138.964ZM1110.43 177.381H1102.55L1118.5 154.585L1104.52 134.208H1112.68L1122.69 150.28L1132.81 134.208H1140.68L1126.74 154.298L1142.65 177.381H1134.21L1122.4 158.849L1110.43 177.381ZM1174.72 133.306C1178.55 133.306 1181.6 134.235 1183.87 136.094C1186.16 137.953 1187.82 140.577 1188.83 143.966C1189.84 147.328 1190.34 151.264 1190.34 155.774C1190.34 160.12 1189.73 164.001 1188.5 167.418C1187.3 170.807 1185.47 173.472 1183.01 175.413C1180.55 177.354 1177.44 178.324 1173.7 178.324C1168.97 178.324 1165.17 176.657 1162.3 173.322V193.904L1155.41 194.765V134.208H1161.28L1161.85 140.235C1163.44 138.021 1165.32 136.313 1167.51 135.11C1169.72 133.907 1172.13 133.306 1174.72 133.306ZM1173.08 138.841C1170.71 138.841 1168.6 139.565 1166.77 141.014C1164.97 142.435 1163.48 144.021 1162.3 145.77V167.172C1163.42 168.839 1164.83 170.165 1166.52 171.149C1168.25 172.106 1170.13 172.584 1172.18 172.584C1175.76 172.584 1178.45 171.217 1180.26 168.484C1182.06 165.751 1182.96 161.5 1182.96 155.733C1182.96 151.961 1182.61 148.831 1181.9 146.344C1181.19 143.829 1180.11 141.957 1178.66 140.727C1177.21 139.47 1175.35 138.841 1173.08 138.841ZM1221.39 116.824V166.721C1221.39 168.853 1222.05 170.37 1223.36 171.272C1224.7 172.147 1226.42 172.584 1228.52 172.584C1229.84 172.584 1231.08 172.447 1232.26 172.174C1233.43 171.901 1234.61 171.532 1235.78 171.067L1237.63 176.11C1236.45 176.684 1234.99 177.19 1233.24 177.627C1231.52 178.092 1229.56 178.324 1227.38 178.324C1223.55 178.324 1220.45 177.272 1218.07 175.167C1215.69 173.035 1214.5 170.097 1214.5 166.352V122.277H1201.26V116.824H1221.39ZM1270.19 133.306C1274.26 133.306 1277.67 134.235 1280.4 136.094C1283.16 137.925 1285.22 140.522 1286.59 143.884C1287.98 147.246 1288.68 151.209 1288.68 155.774C1288.68 160.175 1287.97 164.07 1286.55 167.459C1285.13 170.848 1283.04 173.513 1280.28 175.454C1277.54 177.367 1274.15 178.324 1270.11 178.324C1266.06 178.324 1262.66 177.395 1259.9 175.536C1257.14 173.677 1255.05 171.067 1253.63 167.705C1252.23 164.316 1251.53 160.366 1251.53 155.856C1251.53 151.401 1252.25 147.478 1253.67 144.089C1255.09 140.7 1257.18 138.062 1259.94 136.176C1262.73 134.263 1266.14 133.306 1270.19 133.306ZM1270.19 138.923C1266.47 138.923 1263.66 140.303 1261.74 143.064C1259.86 145.797 1258.91 150.061 1258.91 155.856C1258.91 161.541 1259.84 165.764 1261.7 168.525C1263.59 171.286 1266.39 172.666 1270.11 172.666C1273.83 172.666 1276.61 171.286 1278.47 168.525C1280.36 165.764 1281.3 161.514 1281.3 155.774C1281.3 150.034 1280.37 145.797 1278.51 143.064C1276.65 140.303 1273.88 138.923 1270.19 138.923ZM1303.33 177.381V172.092H1310.05V139.497H1303.33V134.208H1315.3L1316.57 144.417C1318.24 140.864 1320.26 138.117 1322.64 136.176C1325.02 134.235 1328.16 133.265 1332.07 133.265C1333.27 133.265 1334.34 133.361 1335.27 133.552C1336.22 133.716 1337.19 133.935 1338.18 134.208L1336.17 140.358C1335.27 140.112 1334.45 139.934 1333.71 139.825C1332.97 139.688 1332.12 139.62 1331.17 139.62C1327.86 139.62 1325.02 140.795 1322.64 143.146C1320.26 145.497 1318.36 149.05 1316.94 153.806V172.092H1325.71V177.381H1303.33ZM1331.53 148.804V139.415L1332.23 134.208H1338.18L1337.19 148.804H1331.53ZM1383 167.951C1383 169.673 1383.29 170.93 1383.86 171.723C1384.43 172.516 1385.32 173.103 1386.52 173.486L1384.84 178.324C1382.99 178.078 1381.36 177.49 1379.96 176.561C1378.57 175.604 1377.56 174.169 1376.93 172.256C1375.37 174.251 1373.43 175.768 1371.11 176.807C1368.79 177.818 1366.22 178.324 1363.4 178.324C1359.08 178.324 1355.68 177.108 1353.19 174.675C1350.7 172.242 1349.46 169.017 1349.46 164.999C1349.46 160.544 1351.2 157.127 1354.67 154.749C1358.14 152.371 1363.15 151.182 1369.71 151.182H1376.07V147.574C1376.07 144.458 1375.15 142.258 1373.32 140.973C1371.52 139.661 1369 139.005 1365.78 139.005C1364.36 139.005 1362.69 139.183 1360.78 139.538C1358.86 139.866 1356.79 140.426 1354.54 141.219L1352.74 136.012C1355.39 135.028 1357.88 134.331 1360.2 133.921C1362.53 133.511 1364.74 133.306 1366.84 133.306C1372.23 133.306 1376.26 134.563 1378.94 137.078C1381.65 139.565 1383 142.955 1383 147.246V167.951ZM1365.16 173.076C1367.3 173.076 1369.33 172.543 1371.27 171.477C1373.21 170.384 1374.81 168.88 1376.07 166.967V155.856H1369.84C1365.08 155.856 1361.72 156.676 1359.75 158.316C1357.81 159.956 1356.84 162.156 1356.84 164.917C1356.84 167.596 1357.52 169.632 1358.89 171.026C1360.28 172.393 1362.38 173.076 1365.16 173.076ZM1435.53 175.208C1434.05 176.192 1432.26 176.957 1430.16 177.504C1428.05 178.051 1425.99 178.324 1423.97 178.324C1419.32 178.324 1415.74 177.108 1413.22 174.675C1410.71 172.242 1409.45 169.113 1409.45 165.286V139.538H1399.53V134.208H1409.45V124.409L1416.34 123.589V134.208H1431.26L1430.44 139.538H1416.34V165.204C1416.34 167.609 1416.97 169.441 1418.23 170.698C1419.51 171.955 1421.63 172.584 1424.58 172.584C1426.19 172.584 1427.68 172.393 1429.05 172.01C1430.42 171.627 1431.69 171.135 1432.86 170.534L1435.53 175.208ZM1472.27 134.208V171.928H1484.45V177.381H1452.06V171.928H1465.39V139.661H1452.47V134.208H1472.27ZM1466.78 113.995C1468.31 113.995 1469.53 114.46 1470.43 115.389C1471.36 116.318 1471.82 117.453 1471.82 118.792C1471.82 120.186 1471.36 121.361 1470.43 122.318C1469.53 123.247 1468.31 123.712 1466.78 123.712C1465.33 123.712 1464.14 123.247 1463.21 122.318C1462.28 121.361 1461.82 120.186 1461.82 118.792C1461.82 117.453 1462.28 116.318 1463.21 115.389C1464.14 114.46 1465.33 113.995 1466.78 113.995ZM1516.03 133.306C1520.1 133.306 1523.51 134.235 1526.24 136.094C1529 137.925 1531.06 140.522 1532.43 143.884C1533.82 147.246 1534.52 151.209 1534.52 155.774C1534.52 160.175 1533.81 164.07 1532.39 167.459C1530.97 170.848 1528.88 173.513 1526.12 175.454C1523.38 177.367 1519.99 178.324 1515.95 178.324C1511.9 178.324 1508.5 177.395 1505.74 175.536C1502.98 173.677 1500.89 171.067 1499.47 167.705C1498.07 164.316 1497.37 160.366 1497.37 155.856C1497.37 151.401 1498.09 147.478 1499.51 144.089C1500.93 140.7 1503.02 138.062 1505.78 136.176C1508.57 134.263 1511.98 133.306 1516.03 133.306ZM1516.03 138.923C1512.31 138.923 1509.5 140.303 1507.58 143.064C1505.7 145.797 1504.75 150.061 1504.75 155.856C1504.75 161.541 1505.68 165.764 1507.54 168.525C1509.43 171.286 1512.23 172.666 1515.95 172.666C1519.66 172.666 1522.45 171.286 1524.31 168.525C1526.2 165.764 1527.14 161.514 1527.14 155.774C1527.14 150.034 1526.21 145.797 1524.35 143.064C1522.49 140.303 1519.72 138.923 1516.03 138.923ZM1548.76 177.381V134.208H1554.62L1555.15 140.194C1556.9 137.98 1559.09 136.285 1561.71 135.11C1564.36 133.907 1566.93 133.306 1569.42 133.306C1573.66 133.306 1576.73 134.427 1578.65 136.668C1580.59 138.909 1581.56 142.025 1581.56 146.016V177.381H1574.67V151.1C1574.67 148.148 1574.5 145.77 1574.18 143.966C1573.85 142.135 1573.17 140.809 1572.13 139.989C1571.09 139.142 1569.48 138.718 1567.29 138.718C1565.59 138.718 1563.99 139.087 1562.49 139.825C1561.02 140.563 1559.69 141.492 1558.51 142.613C1557.37 143.706 1556.41 144.813 1555.64 145.934V177.381H1548.76ZM597.377 285.381H587.619L582.043 253.688L575.975 285.381H566.463L558.591 242.208H565.643L571.137 281.117L578.025 247.702H586.184L592.703 281.117L598.197 242.208H604.921L597.377 285.381ZM636.418 242.208V279.928H648.595V285.381H616.205V279.928H629.53V247.661H616.615V242.208H636.418ZM630.924 221.995C632.455 221.995 633.671 222.46 634.573 223.389C635.503 224.318 635.967 225.453 635.967 226.792C635.967 228.186 635.503 229.361 634.573 230.318C633.671 231.247 632.455 231.712 630.924 231.712C629.476 231.712 628.287 231.247 627.357 230.318C626.428 229.361 625.963 228.186 625.963 226.792C625.963 225.453 626.428 224.318 627.357 223.389C628.287 222.46 629.476 221.995 630.924 221.995ZM698.009 283.208C696.533 284.192 694.743 284.957 692.638 285.504C690.534 286.051 688.47 286.324 686.447 286.324C681.801 286.324 678.22 285.108 675.705 282.675C673.191 280.242 671.933 277.113 671.933 273.286V247.538H662.011V242.208H671.933V232.409L678.821 231.589V242.208H693.745L692.925 247.538H678.821V273.204C678.821 275.609 679.45 277.441 680.707 278.698C681.992 279.955 684.11 280.584 687.062 280.584C688.675 280.584 690.165 280.393 691.531 280.01C692.898 279.627 694.169 279.135 695.344 278.534L698.009 283.208ZM719.789 224.168V248.112C721.484 245.843 723.561 244.149 726.021 243.028C728.508 241.88 731.023 241.306 733.565 241.306C737.774 241.306 740.849 242.427 742.79 244.668C744.731 246.909 745.701 250.025 745.701 254.016V285.381H738.813V254.18C738.813 251.583 738.212 249.697 737.009 248.522C735.806 247.319 733.92 246.718 731.351 246.718C729.711 246.718 728.153 247.087 726.677 247.825C725.201 248.563 723.875 249.479 722.7 250.572C721.525 251.665 720.554 252.786 719.789 253.934V285.381H712.901V224.906L719.789 224.168ZM845.513 283.208C844.037 284.192 842.247 284.957 840.142 285.504C838.037 286.051 835.974 286.324 833.951 286.324C829.304 286.324 825.724 285.108 823.209 282.675C820.694 280.242 819.437 277.113 819.437 273.286V247.538H809.515V242.208H819.437V232.409L826.325 231.589V242.208H841.249L840.429 247.538H826.325V273.204C826.325 275.609 826.954 277.441 828.211 278.698C829.496 279.955 831.614 280.584 834.566 280.584C836.179 280.584 837.668 280.393 839.035 280.01C840.402 279.627 841.673 279.135 842.848 278.534L845.513 283.208ZM876.846 241.306C880.919 241.306 884.322 242.235 887.055 244.094C889.816 245.925 891.879 248.522 893.246 251.884C894.64 255.246 895.337 259.209 895.337 263.774C895.337 268.175 894.626 272.07 893.205 275.459C891.784 278.848 889.693 281.513 886.932 283.454C884.199 285.367 880.809 286.324 876.764 286.324C872.719 286.324 869.316 285.395 866.555 283.536C863.794 281.677 861.703 279.067 860.282 275.705C858.888 272.316 858.191 268.366 858.191 263.856C858.191 259.401 858.902 255.478 860.323 252.089C861.744 248.7 863.835 246.062 866.596 244.176C869.384 242.263 872.801 241.306 876.846 241.306ZM876.846 246.923C873.129 246.923 870.313 248.303 868.4 251.064C866.514 253.797 865.571 258.061 865.571 263.856C865.571 269.541 866.5 273.764 868.359 276.525C870.245 279.286 873.047 280.666 876.764 280.666C880.481 280.666 883.269 279.286 885.128 276.525C887.014 273.764 887.957 269.514 887.957 263.774C887.957 258.034 887.028 253.797 885.169 251.064C883.31 248.303 880.536 246.923 876.846 246.923ZM945.735 242.208L926.301 261.642L947.99 285.381H938.929L917.691 261.806L936.797 242.208H945.735ZM916.912 223.963V285.381H910.024V224.824L916.912 223.963ZM980.594 242.208V279.928H992.771V285.381H960.381V279.928H973.706V247.661H960.791V242.208H980.594ZM975.1 221.995C976.631 221.995 977.847 222.46 978.749 223.389C979.678 224.318 980.143 225.453 980.143 226.792C980.143 228.186 979.678 229.361 978.749 230.318C977.847 231.247 976.631 231.712 975.1 231.712C973.651 231.712 972.462 231.247 971.533 230.318C970.604 229.361 970.139 228.186 970.139 226.792C970.139 225.453 970.604 224.318 971.533 223.389C972.462 222.46 973.651 221.995 975.1 221.995ZM1024.35 241.306C1028.42 241.306 1031.83 242.235 1034.56 244.094C1037.32 245.925 1039.38 248.522 1040.75 251.884C1042.14 255.246 1042.84 259.209 1042.84 263.774C1042.84 268.175 1042.13 272.07 1040.71 275.459C1039.29 278.848 1037.2 281.513 1034.44 283.454C1031.7 285.367 1028.31 286.324 1024.27 286.324C1020.22 286.324 1016.82 285.395 1014.06 283.536C1011.3 281.677 1009.21 279.067 1007.79 275.705C1006.39 272.316 1005.69 268.366 1005.69 263.856C1005.69 259.401 1006.41 255.478 1007.83 252.089C1009.25 248.7 1011.34 246.062 1014.1 244.176C1016.89 242.263 1020.3 241.306 1024.35 241.306ZM1024.35 246.923C1020.63 246.923 1017.82 248.303 1015.9 251.064C1014.02 253.797 1013.07 258.061 1013.07 263.856C1013.07 269.541 1014 273.764 1015.86 276.525C1017.75 279.286 1020.55 280.666 1024.27 280.666C1027.99 280.666 1030.77 279.286 1032.63 276.525C1034.52 273.764 1035.46 269.514 1035.46 263.774C1035.46 258.034 1034.53 253.797 1032.67 251.064C1030.81 248.303 1028.04 246.923 1024.35 246.923ZM1056.99 265.988V260.002H1089.88V265.988H1056.99ZM1113.13 242.208V272.794C1113.13 275.637 1113.72 277.687 1114.9 278.944C1116.07 280.201 1117.9 280.83 1120.39 280.83C1122.77 280.83 1125.01 280.16 1127.11 278.821C1129.25 277.454 1130.9 275.842 1132.07 273.983V242.208H1138.96V285.381H1133.1L1132.53 279.559C1130.83 281.746 1128.74 283.427 1126.25 284.602C1123.77 285.75 1121.25 286.324 1118.71 286.324C1114.53 286.324 1111.4 285.217 1109.32 283.003C1107.27 280.762 1106.24 277.632 1106.24 273.614V242.208H1113.13ZM1155.82 285.381V280.092H1162.55V247.497H1155.82V242.208H1167.79L1169.07 252.417C1170.73 248.864 1172.76 246.117 1175.13 244.176C1177.51 242.235 1180.66 241.265 1184.56 241.265C1185.77 241.265 1186.83 241.361 1187.76 241.552C1188.72 241.716 1189.69 241.935 1190.67 242.208L1188.66 248.358C1187.76 248.112 1186.94 247.934 1186.2 247.825C1185.47 247.688 1184.62 247.62 1183.66 247.62C1180.35 247.62 1177.51 248.795 1175.13 251.146C1172.76 253.497 1170.86 257.05 1169.43 261.806V280.092H1178.21V285.381H1155.82ZM1184.03 256.804V247.415L1184.73 242.208H1190.67L1189.69 256.804H1184.03ZM1226.43 242.208V279.928H1238.61V285.381H1206.22V279.928H1219.55V247.661H1206.63V242.208H1226.43ZM1220.94 221.995C1222.47 221.995 1223.69 222.46 1224.59 223.389C1225.52 224.318 1225.98 225.453 1225.98 226.792C1225.98 228.186 1225.52 229.361 1224.59 230.318C1223.69 231.247 1222.47 231.712 1220.94 231.712C1219.49 231.712 1218.3 231.247 1217.37 230.318C1216.44 229.361 1215.98 228.186 1215.98 226.792C1215.98 225.453 1216.44 224.318 1217.37 223.389C1218.3 222.46 1219.49 221.995 1220.94 221.995ZM1253.75 285.381V242.208H1259.61L1260.14 248.194C1261.89 245.98 1264.08 244.285 1266.7 243.11C1269.36 241.907 1271.93 241.306 1274.41 241.306C1278.65 241.306 1281.72 242.427 1283.64 244.668C1285.58 246.909 1286.55 250.025 1286.55 254.016V285.381H1279.66V259.1C1279.66 256.148 1279.5 253.77 1279.17 251.966C1278.84 250.135 1278.16 248.809 1277.12 247.989C1276.08 247.142 1274.47 246.718 1272.28 246.718C1270.59 246.718 1268.99 247.087 1267.48 247.825C1266.01 248.563 1264.68 249.492 1263.51 250.613C1262.36 251.706 1261.4 252.813 1260.64 253.934V285.381H1253.75ZM1338.01 237.616L1340.14 244.094C1338.31 244.668 1336.36 245.023 1334.28 245.16C1332.2 245.297 1329.95 245.365 1327.52 245.365C1330 246.513 1331.88 248.003 1333.13 249.834C1334.39 251.638 1335.02 253.77 1335.02 256.23C1335.02 259.073 1334.38 261.601 1333.09 263.815C1331.81 266.029 1329.95 267.765 1327.52 269.022C1325.11 270.279 1322.2 270.908 1318.78 270.908C1317.34 270.908 1316.12 270.84 1315.13 270.703C1314.18 270.566 1313.25 270.361 1312.35 270.088C1311.69 270.525 1311.14 271.127 1310.71 271.892C1310.3 272.657 1310.09 273.45 1310.09 274.27C1310.09 275.309 1310.5 276.17 1311.32 276.853C1312.14 277.536 1313.66 277.878 1315.87 277.878H1323.66C1326.56 277.878 1329.16 278.397 1331.45 279.436C1333.78 280.475 1335.59 281.869 1336.91 283.618C1338.25 285.367 1338.91 287.363 1338.91 289.604C1338.91 293.841 1337.11 297.093 1333.5 299.362C1329.92 301.631 1324.85 302.765 1318.29 302.765C1313.7 302.765 1310.08 302.287 1307.43 301.33C1304.78 300.401 1302.88 298.966 1301.73 297.025C1300.61 295.112 1300.05 292.693 1300.05 289.768H1306.28C1306.28 291.435 1306.61 292.816 1307.26 293.909C1307.92 295.002 1309.11 295.809 1310.83 296.328C1312.55 296.875 1315.03 297.148 1318.25 297.148C1321.42 297.148 1324 296.875 1326 296.328C1328.02 295.809 1329.51 295.016 1330.47 293.95C1331.45 292.911 1331.94 291.613 1331.94 290.055C1331.94 288.005 1331.02 286.461 1329.16 285.422C1327.3 284.383 1324.97 283.864 1322.19 283.864H1314.48C1310.76 283.864 1308.01 283.044 1306.24 281.404C1304.49 279.764 1303.61 277.878 1303.61 275.746C1303.61 274.352 1304.01 272.999 1304.8 271.687C1305.62 270.375 1306.81 269.213 1308.37 268.202C1305.88 266.89 1304.05 265.264 1302.88 263.323C1301.7 261.382 1301.11 259.032 1301.11 256.271C1301.11 253.346 1301.84 250.763 1303.29 248.522C1304.73 246.253 1306.76 244.477 1309.35 243.192C1311.95 241.907 1314.94 241.265 1318.33 241.265C1321.97 241.238 1324.92 241.087 1327.19 240.814C1329.46 240.513 1331.4 240.09 1333.01 239.543C1334.65 238.996 1336.32 238.354 1338.01 237.616ZM1318.33 246.308C1314.86 246.308 1312.29 247.251 1310.62 249.137C1308.98 250.996 1308.16 253.374 1308.16 256.271C1308.16 259.196 1309.01 261.601 1310.71 263.487C1312.4 265.373 1315 266.316 1318.5 266.316C1321.56 266.316 1323.88 265.428 1325.47 263.651C1327.08 261.874 1327.89 259.401 1327.89 256.23C1327.89 252.977 1327.08 250.517 1325.47 248.85C1323.88 247.155 1321.5 246.308 1318.33 246.308Z" fill="url(#paint1_linear_1296_61)"/>
<path d="M809.506 353.848V391.568H821.683V397.021H789.293V391.568H802.618V359.301H789.703V353.848H809.506ZM804.012 333.635C805.543 333.635 806.759 334.1 807.661 335.029C808.59 335.958 809.055 337.093 809.055 338.432C809.055 339.826 808.59 341.001 807.661 341.958C806.759 342.887 805.543 343.352 804.012 343.352C802.563 343.352 801.374 342.887 800.445 341.958C799.516 341.001 799.051 339.826 799.051 338.432C799.051 337.093 799.516 335.958 800.445 335.029C801.374 334.1 802.563 333.635 804.012 333.635ZM836.821 397.021V353.848H842.684L843.217 359.834C844.966 357.62 847.153 355.925 849.777 354.75C852.428 353.547 854.998 352.946 857.485 352.946C861.722 352.946 864.797 354.067 866.71 356.308C868.651 358.549 869.621 361.665 869.621 365.656V397.021H862.733V370.74C862.733 367.788 862.569 365.41 862.241 363.606C861.913 361.775 861.23 360.449 860.191 359.629C859.152 358.782 857.54 358.358 855.353 358.358C853.658 358.358 852.059 358.727 850.556 359.465C849.08 360.203 847.754 361.132 846.579 362.253C845.431 363.346 844.474 364.453 843.709 365.574V397.021H836.821ZM970.991 356.39C970.991 359.205 970.376 361.665 969.146 363.77C967.943 365.875 966.303 367.61 964.226 368.977C962.149 370.344 959.812 371.341 957.215 371.97L973.943 397.021H965.415L949.999 372.79H942.373V397.021H935.239V340.564H949.753C956.723 340.564 961.998 341.903 965.579 344.582C969.187 347.233 970.991 351.169 970.991 356.39ZM963.365 356.39C963.365 352.755 962.326 350.158 960.249 348.6C958.172 347.015 954.946 346.222 950.573 346.222H942.373V367.214H950.573C954.618 367.214 957.762 366.394 960.003 364.754C962.244 363.087 963.365 360.299 963.365 356.39ZM991.213 353.848V384.434C991.213 387.277 991.801 389.327 992.976 390.584C994.151 391.841 995.983 392.47 998.47 392.47C1000.85 392.47 1003.09 391.8 1005.19 390.461C1007.33 389.094 1008.98 387.482 1010.15 385.623V353.848H1017.04V397.021H1011.18L1010.61 391.199C1008.91 393.386 1006.82 395.067 1004.33 396.242C1001.85 397.39 999.331 397.964 996.789 397.964C992.607 397.964 989.477 396.857 987.4 394.643C985.35 392.402 984.325 389.272 984.325 385.254V353.848H991.213ZM1048.17 392.265C1051.48 392.265 1054.09 391.65 1056 390.42C1057.94 389.163 1058.91 387.495 1058.91 385.418C1058.91 384.106 1058.67 382.972 1058.17 382.015C1057.71 381.058 1056.74 380.197 1055.26 379.432C1053.79 378.667 1051.52 377.901 1048.46 377.136C1045.48 376.398 1042.88 375.551 1040.67 374.594C1038.48 373.61 1036.77 372.339 1035.54 370.781C1034.34 369.223 1033.74 367.2 1033.74 364.713C1033.74 362.28 1034.42 360.189 1035.79 358.44C1037.18 356.663 1039.11 355.31 1041.57 354.381C1044.03 353.424 1046.89 352.946 1050.14 352.946C1053.61 352.946 1056.63 353.411 1059.2 354.34C1061.8 355.242 1064 356.363 1065.8 357.702L1062.77 362.376C1061.13 361.255 1059.32 360.34 1057.35 359.629C1055.39 358.891 1053.01 358.522 1050.22 358.522C1046.83 358.522 1044.43 359.055 1043 360.121C1041.58 361.16 1040.87 362.513 1040.87 364.18C1040.87 365.437 1041.21 366.49 1041.9 367.337C1042.61 368.157 1043.8 368.909 1045.46 369.592C1047.13 370.248 1049.43 370.972 1052.35 371.765C1055.17 372.503 1057.61 373.391 1059.69 374.43C1061.8 375.469 1063.44 376.835 1064.61 378.53C1065.79 380.225 1066.37 382.411 1066.37 385.09C1066.37 388.151 1065.5 390.639 1063.75 392.552C1062 394.438 1059.73 395.818 1056.94 396.693C1054.18 397.54 1051.26 397.964 1048.17 397.964C1044.26 397.964 1040.93 397.404 1038.17 396.283C1035.43 395.135 1033.14 393.755 1031.28 392.142L1035.21 387.591C1036.91 388.985 1038.85 390.119 1041.04 390.994C1043.25 391.841 1045.63 392.265 1048.17 392.265ZM1116.94 394.848C1115.46 395.832 1113.67 396.597 1111.57 397.144C1109.46 397.691 1107.4 397.964 1105.37 397.964C1100.73 397.964 1097.15 396.748 1094.63 394.315C1092.12 391.882 1090.86 388.753 1090.86 384.926V359.178H1080.94V353.848H1090.86V344.049L1097.75 343.229V353.848H1112.67L1111.85 359.178H1097.75V384.844C1097.75 387.249 1098.38 389.081 1099.63 390.338C1100.92 391.595 1103.04 392.224 1105.99 392.224C1107.6 392.224 1109.09 392.033 1110.46 391.65C1111.83 391.267 1113.1 390.775 1114.27 390.174L1116.94 394.848Z" fill="url(#paint2_linear_1296_61)"/>
<path d="M1704.21 716.975L1688.99 707.545C1688.86 706.061 1688.71 704.581 1688.56 703.107L1701.66 690.903C1702.99 689.662 1703.59 687.824 1703.23 686.049C1702.88 684.264 1701.63 682.794 1699.92 682.166L1683.18 675.925C1682.76 674.476 1682.32 673.037 1681.87 671.592L1692.3 657.099C1693.37 655.626 1693.59 653.709 1692.89 652.037C1692.2 650.363 1690.68 649.163 1688.91 648.869L1671.26 645.998C1670.57 644.66 1669.86 643.342 1669.14 642.045L1676.56 625.75C1677.32 624.093 1677.16 622.179 1676.15 620.654C1675.14 619.142 1673.43 618.258 1671.6 618.327L1653.68 618.951C1652.75 617.793 1651.81 616.646 1650.85 615.519L1654.98 598.08C1655.39 596.308 1654.87 594.439 1653.58 593.157C1652.3 591.874 1650.44 591.343 1648.66 591.759L1631.22 595.885C1630.09 594.928 1628.94 593.982 1627.78 593.056L1628.41 575.132C1628.47 573.318 1627.59 571.595 1626.08 570.59C1624.56 569.577 1622.65 569.425 1620.98 570.177L1604.72 577.597C1603.41 576.875 1602.09 576.161 1600.77 575.471L1597.89 557.824C1597.6 556.035 1596.4 554.516 1594.72 553.837C1593.05 553.14 1591.12 553.365 1589.66 554.426L1575.17 564.862C1573.74 564.408 1572.3 563.971 1570.87 563.555L1564.63 546.809C1563.99 545.103 1562.52 543.852 1560.75 543.498C1558.96 543.148 1557.14 543.741 1555.89 545.065L1543.69 558.171C1542.21 558.008 1540.73 557.859 1539.25 557.737L1529.82 542.482C1528.87 540.94 1527.18 540 1525.35 540C1523.52 540 1521.85 540.94 1520.91 542.482L1511.48 557.737C1510 557.859 1508.51 558.008 1507.04 558.171L1494.84 545.065C1493.6 543.741 1491.76 543.148 1489.98 543.498C1488.2 543.855 1486.73 545.103 1486.1 546.809L1479.86 563.555C1478.41 563.971 1476.98 564.411 1475.56 564.862L1461.07 554.426C1459.59 553.362 1457.67 553.137 1456.01 553.837C1454.33 554.53 1453.13 556.049 1452.84 557.824L1449.96 575.471C1448.63 576.161 1447.31 576.872 1446.01 577.597L1429.75 570.177C1428.09 569.421 1426.18 569.577 1424.65 570.59C1423.14 571.595 1422.25 573.318 1422.32 575.132L1422.95 593.056C1421.79 593.982 1420.64 594.928 1419.51 595.885L1402.07 591.759C1400.3 591.347 1398.43 591.874 1397.15 593.157C1395.86 594.443 1395.33 596.298 1395.75 598.08L1399.84 615.519C1398.89 616.649 1397.94 617.793 1397.02 618.951L1379.09 618.327C1377.29 618.275 1375.56 619.142 1374.55 620.654C1373.54 622.158 1373.39 624.086 1374.14 625.75L1381.56 642.045C1380.84 643.353 1380.12 644.67 1379.43 645.998L1361.79 648.869C1359.99 649.16 1358.48 650.359 1357.8 652.037C1357.1 653.719 1357.33 655.643 1358.39 657.099L1368.82 671.592C1368.37 673.024 1367.93 674.462 1367.51 675.925L1350.77 682.166C1349.07 682.801 1347.82 684.271 1347.46 686.049C1347.11 687.831 1347.7 689.655 1349.03 690.903L1362.14 703.107C1361.97 704.581 1361.83 706.064 1361.7 707.545L1346.48 716.975C1344.94 717.929 1344 719.614 1344 721.448C1344 723.282 1344.94 724.949 1346.48 725.886L1361.7 735.316C1361.83 736.8 1361.97 738.28 1362.14 739.754L1349.03 751.958C1347.7 753.195 1347.11 755.033 1347.46 756.812C1347.82 758.597 1349.07 760.064 1350.77 760.695L1367.51 766.935C1367.93 768.385 1368.37 769.823 1368.82 771.269L1358.39 785.761C1357.33 787.238 1357.1 789.156 1357.8 790.823C1358.5 792.505 1360.01 793.704 1361.82 793.992L1379.47 796.863C1380.16 798.201 1380.87 799.519 1381.59 800.815L1374.17 817.076C1373.42 818.73 1373.57 820.647 1374.59 822.172C1375.6 823.687 1377.32 824.571 1379.13 824.499L1397.02 823.871C1397.95 825.036 1398.89 826.177 1399.85 827.31L1395.76 844.75C1395.34 846.518 1395.86 848.355 1397.15 849.638C1398.43 850.931 1400.29 851.448 1402.08 851.032L1419.52 846.941C1420.65 847.905 1421.8 848.841 1422.95 849.763L1422.33 867.688C1422.26 869.501 1423.15 871.224 1424.66 872.229C1426.16 873.238 1428.09 873.391 1429.75 872.635L1446.01 865.216C1447.33 865.944 1448.64 866.651 1449.97 867.341L1452.84 884.988C1453.14 886.784 1454.33 888.303 1456.01 889.01C1457.69 889.707 1459.62 889.482 1461.07 888.424L1475.57 877.988C1477 878.442 1478.44 878.886 1479.9 879.302L1486.14 896.048C1486.78 897.747 1488.25 899.005 1490.03 899.352C1491.81 899.713 1493.63 899.116 1494.88 897.785L1507.08 884.68C1508.56 884.85 1510.04 884.992 1511.52 885.123L1520.95 900.344C1521.9 901.88 1523.59 902.826 1525.39 902.826C1527.19 902.826 1528.89 901.883 1529.86 900.344L1539.29 885.123C1540.78 884.992 1542.26 884.85 1543.73 884.68L1555.93 897.785C1557.17 899.116 1559.01 899.713 1560.79 899.352C1562.57 899.002 1564.04 897.747 1564.67 896.048L1570.91 879.302C1572.36 878.886 1573.8 878.442 1575.24 877.988L1589.74 888.424C1591.21 889.482 1593.13 889.707 1594.8 889.01C1596.48 888.32 1597.68 886.798 1597.97 884.988L1600.85 867.341C1602.18 866.651 1603.49 865.933 1604.8 865.216L1621.06 872.635C1622.71 873.391 1624.63 873.238 1626.16 872.229C1627.67 871.217 1628.55 869.501 1628.48 867.688L1627.86 849.763C1629.02 848.837 1630.16 847.905 1631.29 846.941L1648.73 851.032C1650.5 851.448 1652.37 850.931 1653.66 849.638C1654.95 848.352 1655.47 846.504 1655.05 844.75L1650.96 827.31C1651.92 826.177 1652.86 825.036 1653.78 823.871L1671.71 824.499C1673.52 824.571 1675.24 823.687 1676.25 822.172C1677.26 820.661 1677.42 818.736 1676.66 817.076L1669.24 800.815C1669.96 799.501 1670.68 798.184 1671.36 796.863L1689.01 793.992C1690.81 793.704 1692.32 792.505 1693 790.823C1693.69 789.149 1693.47 787.218 1692.41 785.761L1681.97 771.269C1682.42 769.837 1682.86 768.398 1683.28 766.935L1700.03 760.695C1701.73 760.057 1702.99 758.59 1703.33 756.812C1703.69 755.03 1703.1 753.206 1701.76 751.958L1688.66 739.754C1688.82 738.28 1688.96 736.796 1689.09 735.316L1704.31 725.886C1705.85 724.936 1706.8 723.247 1706.8 721.448C1706.8 719.648 1705.86 717.946 1704.32 716.975H1704.21ZM1602.28 843.522C1596.45 842.267 1592.78 836.519 1594.03 830.694C1595.27 824.87 1600.99 821.16 1606.82 822.408C1612.64 823.653 1616.35 829.411 1615.11 835.236C1613.86 841.061 1608.14 844.77 1602.31 843.522H1602.28ZM1597.11 808.505C1591.81 807.368 1586.57 810.745 1585.46 816.063L1580.05 841.303C1563.38 848.862 1544.69 853.091 1525.27 853.091C1505.3 853.091 1486.44 848.688 1469.45 840.783L1464.05 815.543C1462.91 810.239 1457.7 806.841 1452.4 807.985L1430.1 812.77C1425.98 808.505 1422.13 803.963 1418.59 799.179H1527.11C1528.34 799.179 1529.16 798.957 1529.16 797.841V759.356C1529.16 758.24 1528.34 758.018 1527.11 758.018H1495.39V733.714H1529.68C1532.81 733.714 1546.42 734.609 1550.76 752.02C1552.12 757.359 1555.13 774.764 1557.17 780.346C1559.21 786.587 1567.5 799.068 1576.34 799.068H1630.43C1631.04 799.068 1631.7 798.999 1632.39 798.874C1628.64 803.97 1624.52 808.79 1620.11 813.297L1597.3 808.408L1597.11 808.505ZM1446.99 843.002C1441.16 844.257 1435.44 840.548 1434.19 834.716C1432.95 828.891 1436.65 823.136 1442.48 821.888C1448.31 820.643 1454.03 824.353 1455.28 830.174C1456.52 835.999 1452.82 841.754 1446.99 843.002ZM1405.73 676.237C1408.14 681.681 1405.69 688.06 1400.25 690.487C1394.81 692.904 1388.46 690.445 1386.04 685.009C1383.61 679.573 1386.08 673.186 1391.52 670.76C1396.96 668.346 1403.3 670.801 1405.73 676.237ZM1393.08 706.193L1416.31 695.861C1421.26 693.659 1423.52 687.852 1421.3 682.894L1416.51 672.077H1435.31V756.673H1397.51C1394.22 745.093 1392.45 732.889 1392.45 720.269C1392.45 715.45 1392.71 710.7 1393.21 706.019L1393.08 706.193ZM1495.01 697.976V673.013H1539.73C1542.04 673.013 1556.06 675.686 1556.06 686.153C1556.06 694.855 1545.31 697.976 1536.47 697.976H1494.87H1495.01ZM1657.61 720.442C1657.61 723.757 1657.49 727.03 1657.25 730.289H1643.62C1642.26 730.289 1641.71 731.183 1641.71 732.518V738.759C1641.71 753.459 1633.43 756.683 1626.15 757.481C1619.21 758.261 1611.55 754.582 1610.61 750.339C1606.52 727.352 1599.73 722.464 1588.98 713.935C1602.33 705.475 1616.19 692.959 1616.19 676.144C1616.19 658.081 1603.82 646.709 1595.39 641.127C1583.53 633.326 1570.43 631.766 1566.89 631.766H1426.13C1445.23 610.478 1471.2 595.362 1500.33 589.814L1516.93 607.219C1520.68 611.137 1526.88 611.31 1530.84 607.538L1549.42 589.787C1588.25 597.033 1621.19 621.233 1640.26 654.62L1627.53 683.328C1625.34 688.285 1627.58 694.11 1632.52 696.294L1657 707.181C1657.42 711.515 1657.65 715.918 1657.65 720.356L1657.61 720.442ZM1516.85 575.173C1521.15 571.047 1527.98 571.221 1532.07 575.523C1536.16 579.822 1536.02 586.652 1531.71 590.778C1527.41 594.904 1520.58 594.731 1516.49 590.425C1512.4 586.126 1512.54 579.295 1516.85 575.17V575.173ZM1643.05 676.758C1645.46 671.314 1651.82 668.853 1657.27 671.28C1662.71 673.693 1665.17 680.086 1662.74 685.529C1660.33 690.972 1653.97 693.434 1648.53 691.007C1643.08 688.594 1640.62 682.201 1643.05 676.758Z" fill="url(#paint3_linear_1296_61)"/>
<g filter="url(#filter0_d_1296_61)">
<path d="M453.5 887C545.455 887 620 812.455 620 720.5C620 628.545 545.455 554 453.5 554C361.545 554 287 628.545 287 720.5C287 812.455 361.545 887 453.5 887Z" fill="url(#paint4_linear_1296_61)"/>
<path d="M437.512 661.226C435.181 661.559 436.18 663.557 434.848 663.557C433.849 663.557 433.849 660.893 437.512 661.226ZM444.505 661.559C446.503 660.893 446.836 663.224 447.835 662.891C448.834 662.558 447.835 660.227 444.505 661.559ZM518.764 804.083C512.104 807.413 503.446 814.739 500.116 818.069C497.785 820.4 487.795 821.399 482.134 818.735C475.474 815.405 479.137 810.077 468.814 809.744C463.819 809.744 458.824 809.744 453.829 809.744C449.5 809.744 445.171 810.077 440.509 810.077C425.191 810.077 423.526 820.067 413.869 819.734C407.209 819.401 398.884 814.073 384.232 811.076C373.909 809.078 364.252 808.412 362.254 804.083C360.256 799.754 364.918 794.426 365.251 790.097C365.584 784.103 360.922 776.444 364.252 773.114C367.249 770.45 373.576 772.448 377.572 770.117C381.901 767.786 383.899 765.788 383.899 760.127C385.564 765.455 383.899 770.117 380.236 772.448C378.238 773.78 373.909 774.446 370.912 774.113C368.248 773.78 366.583 774.446 365.917 775.445C364.918 776.777 365.251 779.108 366.583 782.105C367.915 785.102 369.247 787.1 369.247 790.763C368.914 794.426 364.918 798.755 365.584 802.085C365.917 803.417 366.916 804.416 369.913 805.082C374.575 806.414 382.9 807.746 391.225 809.744C400.216 812.075 409.873 816.071 415.534 815.405C433.183 813.074 423.193 794.093 420.196 789.764C405.544 766.454 395.554 751.136 387.895 757.13C385.897 758.795 385.897 753.134 385.897 751.136C386.23 743.477 390.226 740.813 392.557 734.819C396.886 723.497 400.216 710.843 406.876 704.183C411.871 697.856 419.53 687.2 421.195 681.872C419.863 669.884 419.53 657.23 419.53 645.908C419.197 634.253 421.195 623.597 434.515 616.604C437.845 614.939 441.841 614.273 446.503 614.273C454.495 614.273 463.486 616.271 468.814 620.6C477.805 627.26 483.466 641.579 482.8 651.569C482.134 659.561 483.799 667.553 486.13 676.211C489.127 686.201 493.789 693.194 501.448 701.519C510.439 711.176 517.765 730.157 519.763 742.478C521.761 753.8 519.097 760.793 516.766 761.126C513.103 761.792 510.772 773.447 499.117 772.781C491.791 772.448 491.125 768.119 489.127 764.456C485.797 758.462 482.467 760.46 481.135 766.454C480.469 769.451 480.802 774.113 481.801 777.776C483.799 785.102 483.133 791.762 481.801 800.087C479.47 816.071 492.79 819.068 502.114 811.409C511.105 804.083 513.103 802.751 524.425 798.755C541.741 792.761 535.747 787.766 526.756 784.436C518.431 781.772 518.098 767.786 521.095 765.122C521.761 780.107 529.42 782.438 532.75 784.436C546.736 792.761 527.089 800.087 518.764 804.083ZM480.802 760.127C482.467 758.129 484.132 758.129 486.796 758.129C487.129 749.138 501.448 749.804 506.11 753.467C506.11 751.469 501.781 749.471 499.783 748.472C502.78 738.149 501.448 734.153 499.45 724.163C497.785 716.837 491.125 706.847 485.797 703.517C487.129 704.849 489.793 708.179 492.457 713.174C497.119 721.832 501.781 734.486 498.784 745.142C497.452 749.138 494.788 749.804 493.123 749.804C484.798 750.803 489.793 740.147 486.463 725.828C482.8 709.844 478.804 708.512 477.805 707.18C473.143 686.201 467.815 688.199 466.483 680.54C465.151 673.547 472.477 667.886 462.487 665.888C459.49 665.222 455.161 662.225 453.163 661.892C451.498 661.559 450.499 650.237 456.826 649.904C463.153 649.571 464.485 657.23 463.153 660.227C461.488 663.224 463.153 664.223 466.483 663.224C469.147 662.558 467.482 655.565 468.148 654.566C466.483 644.909 462.487 643.577 458.158 642.911C442.174 644.243 449.5 661.559 447.835 659.894C445.504 657.563 438.844 659.894 438.844 658.229C438.844 649.238 435.847 643.91 431.851 643.91C427.189 643.91 425.191 650.237 425.191 653.9C424.858 657.23 427.189 664.556 428.854 664.223C429.853 663.89 431.851 661.559 429.853 661.559C428.854 661.559 427.189 659.228 427.189 656.231C427.189 653.234 428.188 650.237 432.184 650.237C436.846 650.57 436.846 659.228 436.18 659.894C434.848 660.893 432.85 662.891 432.517 663.224C431.185 665.555 428.188 666.221 427.189 667.22C425.191 669.218 424.858 671.549 426.19 672.548C431.518 675.545 429.853 678.875 437.179 679.208C441.841 679.541 445.504 678.542 448.834 677.543C451.498 676.877 459.49 674.879 461.488 671.882C462.154 670.55 463.153 670.55 463.819 670.883C464.818 671.549 465.151 673.547 462.154 674.546C458.158 675.545 453.829 677.876 450.499 679.208C446.836 680.54 445.837 681.206 442.507 681.872C434.848 683.204 429.187 679.208 434.515 684.203C436.18 685.868 437.845 686.867 442.174 686.867C451.831 686.534 462.487 674.879 463.486 680.207C463.819 681.206 460.489 682.871 457.825 683.87C448.834 688.199 442.507 697.19 436.846 693.86C431.518 691.196 426.523 678.209 426.523 684.203C426.523 693.194 414.868 700.853 420.196 710.843C416.533 711.842 408.541 728.825 407.542 737.483C406.876 742.478 407.875 748.805 406.876 752.135C405.211 757.13 397.219 747.473 399.883 735.152C400.216 733.154 399.883 732.488 399.217 733.487C395.887 739.148 397.885 747.14 400.216 752.468C401.215 754.799 403.879 755.798 405.877 758.129C409.873 762.791 425.857 774.446 428.521 777.443C431.851 780.773 431.185 788.765 423.526 789.431C427.189 796.424 430.852 797.09 430.852 809.078C435.181 806.747 433.516 801.752 431.518 798.422C430.186 796.091 428.521 795.092 428.854 794.759C429.187 794.426 431.185 792.428 432.517 794.093C436.513 798.422 443.839 799.088 451.831 798.422C459.823 797.423 468.148 794.759 472.144 788.432C474.142 785.435 475.141 784.436 476.14 785.102C477.139 785.768 477.472 787.766 477.139 791.096C477.139 794.759 475.474 798.755 474.475 801.752C473.476 805.415 473.143 807.746 476.473 807.746C477.472 801.419 479.137 794.759 479.803 788.432C480.136 780.773 474.808 767.12 480.802 760.127ZM432.184 656.231C431.851 657.563 432.184 658.562 433.183 658.562C433.183 658.562 433.516 658.562 433.516 658.229C433.849 655.232 432.517 653.234 431.851 653.234C430.519 652.901 430.519 654.899 431.185 654.899C431.851 654.566 432.517 655.232 432.184 656.231ZM458.158 652.235C456.826 652.235 457.159 653.234 457.825 653.234C458.824 653.567 459.49 655.232 459.823 656.897C459.823 656.897 461.155 656.564 461.155 656.231C461.488 653.567 458.824 652.235 458.158 652.235Z" fill="#222222"/>
</g>
</g>
<defs>
<filter id="filter0_d_1296_61" x="271" y="538" width="387" height="387" filterUnits="userSpaceOnUse" color-interpolation-filters="sRGB">
<feFlood flood-opacity="0" result="BackgroundImageFix"/>
<feColorMatrix in="SourceAlpha" type="matrix" values="0 0 0 0 0 0 0 0 0 0 0 0 0 0 0 0 0 0 127 0" result="hardAlpha"/>
<feOffset dx="11" dy="11"/>
<feGaussianBlur stdDeviation="13.5"/>
<feColorMatrix type="matrix" values="0 0 0 0 0 0 0 0 0 0 0 0 0 0 0 0 0 0 0.5 0"/>
<feBlend mode="normal" in2="BackgroundImageFix" result="effect1_dropShadow_1296_61"/>
<feBlend mode="normal" in="SourceGraphic" in2="effect1_dropShadow_1296_61" result="shape"/>
</filter>
<linearGradient id="paint0_linear_1296_61" x1="960" y1="0" x2="960" y2="1080" gradientUnits="userSpaceOnUse">
<stop stop-color="#323232"/>
<stop offset="1"/>
</linearGradient>
<linearGradient id="paint1_linear_1296_61" x1="314.297" y1="312.921" x2="1606.09" y2="312.921" gradientUnits="userSpaceOnUse">
<stop stop-color="#0095D5"/>
<stop offset="0.464053" stop-color="#7272E1"/>
<stop offset="1" stop-color="#7E6EE3"/>
</linearGradient>
<linearGradient id="paint2_linear_1296_61" x1="951.5" y1="316.021" x2="951.5" y2="424.021" gradientUnits="userSpaceOnUse">
<stop stop-color="#B32BD5"/>
<stop offset="1" stop-color="#DA3C8E"/>
</linearGradient>
<linearGradient id="paint3_linear_1296_61" x1="1525.4" y1="540" x2="1525.4" y2="902.826" gradientUnits="userSpaceOnUse">
<stop stop-color="#B32BD5"/>
<stop offset="1" stop-color="#DA3C8E"/>
</linearGradient>
<linearGradient id="paint4_linear_1296_61" x1="287.859" y1="887.832" x2="624.189" y2="887.832" gradientUnits="userSpaceOnUse">
<stop stop-color="#0095D5"/>
<stop offset="0.464053" stop-color="#7272E1"/>
<stop offset="1" stop-color="#7E6EE3"/>
</linearGradient>
<clipPath id="clip0_1296_61">
<rect width="1920" height="1080" fill="white"/>
</clipPath>
</defs>
</svg>
