<svg width="1920" height="1080" viewBox="0 0 1920 1080" fill="none" xmlns="http://www.w3.org/2000/svg">
<g clip-path="url(#clip0_1291_71)">
<path d="M1920 0H0V1080H1920V0Z" fill="url(#paint0_linear_1291_71)" fill-opacity="0.5"/>
<path d="M257.055 136.75C257.055 139.565 256.44 142.025 255.21 144.13C254.008 146.235 252.368 147.97 250.29 149.337C248.213 150.704 245.876 151.701 243.279 152.33L260.007 177.381H251.479L236.063 153.15H228.437V177.381H221.303V120.924H235.817C242.787 120.924 248.063 122.263 251.643 124.942C255.251 127.593 257.055 131.529 257.055 136.75ZM249.429 136.75C249.429 133.115 248.391 130.518 246.313 128.96C244.236 127.375 241.011 126.582 236.637 126.582H228.437V147.574H236.637C240.683 147.574 243.826 146.754 246.067 145.114C248.309 143.447 249.429 140.659 249.429 136.75ZM277.277 134.208V164.794C277.277 167.637 277.865 169.687 279.04 170.944C280.216 172.201 282.047 172.83 284.534 172.83C286.912 172.83 289.154 172.16 291.258 170.821C293.39 169.454 295.044 167.842 296.219 165.983V134.208H303.107V177.381H297.244L296.67 171.559C294.976 173.746 292.885 175.427 290.397 176.602C287.91 177.75 285.395 178.324 282.853 178.324C278.671 178.324 275.542 177.217 273.464 175.003C271.414 172.762 270.389 169.632 270.389 165.614V134.208H277.277ZM334.235 172.625C337.543 172.625 340.153 172.01 342.066 170.78C344.007 169.523 344.977 167.855 344.977 165.778C344.977 164.466 344.731 163.332 344.239 162.375C343.775 161.418 342.804 160.557 341.328 159.792C339.852 159.027 337.584 158.261 334.522 157.496C331.543 156.758 328.946 155.911 326.732 154.954C324.546 153.97 322.837 152.699 321.607 151.141C320.405 149.583 319.803 147.56 319.803 145.073C319.803 142.64 320.487 140.549 321.853 138.8C323.247 137.023 325.174 135.67 327.634 134.741C330.094 133.784 332.951 133.306 336.203 133.306C339.675 133.306 342.695 133.771 345.264 134.7C347.861 135.602 350.061 136.723 351.865 138.062L348.831 142.736C347.191 141.615 345.387 140.7 343.419 139.989C341.451 139.251 339.073 138.882 336.285 138.882C332.896 138.882 330.491 139.415 329.069 140.481C327.648 141.52 326.937 142.873 326.937 144.54C326.937 145.797 327.279 146.85 327.962 147.697C328.673 148.517 329.862 149.269 331.529 149.952C333.197 150.608 335.493 151.332 338.417 152.125C341.233 152.863 343.679 153.751 345.756 154.79C347.861 155.829 349.501 157.195 350.676 158.89C351.852 160.585 352.439 162.771 352.439 165.45C352.439 168.511 351.565 170.999 349.815 172.912C348.066 174.798 345.797 176.178 343.009 177.053C340.249 177.9 337.324 178.324 334.235 178.324C330.327 178.324 326.992 177.764 324.231 176.643C321.498 175.495 319.202 174.115 317.343 172.502L321.279 167.951C322.974 169.345 324.915 170.479 327.101 171.354C329.315 172.201 331.693 172.625 334.235 172.625ZM403.001 175.208C401.525 176.192 399.735 176.957 397.63 177.504C395.526 178.051 393.462 178.324 391.439 178.324C386.793 178.324 383.212 177.108 380.697 174.675C378.183 172.242 376.925 169.113 376.925 165.286V139.538H367.003V134.208H376.925V124.409L383.813 123.589V134.208H398.737L397.917 139.538H383.813V165.204C383.813 167.609 384.442 169.441 385.699 170.698C386.984 171.955 389.102 172.584 392.054 172.584C393.667 172.584 395.157 172.393 396.523 172.01C397.89 171.627 399.161 171.135 400.336 170.534L403.001 175.208ZM496.868 138.349C496.868 135.424 496.294 133.115 495.146 131.42C493.998 129.698 492.427 128.468 490.431 127.73C488.436 126.965 486.154 126.582 483.584 126.582H475.425V150.69H483.297C485.949 150.69 488.286 150.335 490.308 149.624C492.331 148.886 493.93 147.629 495.105 145.852C496.281 144.048 496.868 141.547 496.868 138.349ZM504.494 138.267C504.494 142.668 503.551 146.194 501.665 148.845C499.807 151.496 497.237 153.423 493.957 154.626C490.677 155.829 486.905 156.43 482.641 156.43H475.425V177.381H468.291V120.924H482.723C489.447 120.924 494.75 122.345 498.631 125.188C502.54 128.003 504.494 132.363 504.494 138.267ZM532.67 133.306C536.743 133.306 540.146 134.235 542.879 136.094C545.64 137.925 547.704 140.522 549.07 143.884C550.464 147.246 551.161 151.209 551.161 155.774C551.161 160.175 550.451 164.07 549.029 167.459C547.608 170.848 545.517 173.513 542.756 175.454C540.023 177.367 536.634 178.324 532.588 178.324C528.543 178.324 525.14 177.395 522.379 175.536C519.619 173.677 517.528 171.067 516.106 167.705C514.712 164.316 514.015 160.366 514.015 155.856C514.015 151.401 514.726 147.478 516.147 144.089C517.569 140.7 519.66 138.062 522.42 136.176C525.208 134.263 528.625 133.306 532.67 133.306ZM532.67 138.923C528.953 138.923 526.138 140.303 524.224 143.064C522.338 145.797 521.395 150.061 521.395 155.856C521.395 161.541 522.325 165.764 524.183 168.525C526.069 171.286 528.871 172.666 532.588 172.666C536.306 172.666 539.094 171.286 540.952 168.525C542.838 165.764 543.781 161.514 543.781 155.774C543.781 150.034 542.852 145.797 540.993 143.064C539.135 140.303 536.36 138.923 532.67 138.923ZM582.207 116.824V166.721C582.207 168.853 582.863 170.37 584.175 171.272C585.515 172.147 587.237 172.584 589.341 172.584C590.653 172.584 591.897 172.447 593.072 172.174C594.248 171.901 595.423 171.532 596.598 171.067L598.443 176.11C597.268 176.684 595.806 177.19 594.056 177.627C592.334 178.092 590.38 178.324 588.193 178.324C584.367 178.324 581.264 177.272 578.886 175.167C576.508 173.035 575.319 170.097 575.319 166.352V122.277H562.076V116.824H582.207ZM650.481 134.208L635.311 177.668C634.3 180.593 633.015 183.271 631.457 185.704C629.927 188.137 627.918 190.146 625.43 191.731C622.97 193.344 619.841 194.341 616.041 194.724L614.975 189.23C617.955 188.738 620.305 187.986 622.027 186.975C623.749 185.964 625.102 184.665 626.086 183.08C627.098 181.495 627.986 179.595 628.751 177.381H626.455L611.367 134.208H618.747L631.129 172.133L643.347 134.208H650.481ZM692.187 133.306C693.581 133.306 694.907 133.607 696.164 134.208C697.449 134.809 698.501 135.971 699.321 137.693C700.141 139.415 700.551 141.93 700.551 145.237V177.381H694.155V146.344C694.155 143.638 693.991 141.684 693.663 140.481C693.335 139.278 692.392 138.677 690.834 138.677C689.55 138.677 688.265 139.087 686.98 139.907C685.723 140.7 684.493 142.012 683.29 143.843V177.381H676.853V146.344C676.853 143.638 676.689 141.684 676.361 140.481C676.033 139.278 675.09 138.677 673.532 138.677C672.193 138.677 670.895 139.087 669.637 139.907C668.407 140.7 667.191 142.012 665.988 143.843V177.381H659.633V134.208H665.045L665.455 139.21C666.631 137.543 667.943 136.149 669.391 135.028C670.867 133.88 672.685 133.306 674.844 133.306C676.484 133.306 678.029 133.702 679.477 134.495C680.926 135.26 681.992 136.764 682.675 139.005C683.851 137.31 685.176 135.944 686.652 134.905C688.128 133.839 689.973 133.306 692.187 133.306ZM729.342 133.306C733.415 133.306 736.818 134.235 739.551 136.094C742.312 137.925 744.375 140.522 745.742 143.884C747.136 147.246 747.833 151.209 747.833 155.774C747.833 160.175 747.122 164.07 745.701 167.459C744.28 170.848 742.189 173.513 739.428 175.454C736.695 177.367 733.305 178.324 729.26 178.324C725.215 178.324 721.812 177.395 719.051 175.536C716.29 173.677 714.199 171.067 712.778 167.705C711.384 164.316 710.687 160.366 710.687 155.856C710.687 151.401 711.398 147.478 712.819 144.089C714.24 140.7 716.331 138.062 719.092 136.176C721.88 134.263 725.297 133.306 729.342 133.306ZM729.342 138.923C725.625 138.923 722.809 140.303 720.896 143.064C719.01 145.797 718.067 150.061 718.067 155.856C718.067 161.541 718.996 165.764 720.855 168.525C722.741 171.286 725.543 172.666 729.26 172.666C732.977 172.666 735.765 171.286 737.624 168.525C739.51 165.764 740.453 161.514 740.453 155.774C740.453 150.034 739.524 145.797 737.665 143.064C735.806 140.303 733.032 138.923 729.342 138.923ZM762.479 177.381V172.092H769.203V139.497H762.479V134.208H774.451L775.722 144.417C777.389 140.864 779.412 138.117 781.79 136.176C784.168 134.235 787.311 133.265 791.22 133.265C792.423 133.265 793.489 133.361 794.418 133.552C795.375 133.716 796.345 133.935 797.329 134.208L795.32 140.358C794.418 140.112 793.598 139.934 792.86 139.825C792.122 139.688 791.275 139.62 790.318 139.62C787.011 139.62 784.168 140.795 781.79 143.146C779.412 145.497 777.512 149.05 776.091 153.806V172.092H784.865V177.381H762.479ZM790.687 148.804V139.415L791.384 134.208H797.329L796.345 148.804H790.687ZM830.548 133.306C834.375 133.306 837.422 134.235 839.691 136.094C841.987 137.953 843.641 140.577 844.652 143.966C845.663 147.328 846.169 151.264 846.169 155.774C846.169 160.12 845.554 164.001 844.324 167.418C843.121 170.807 841.29 173.472 838.83 175.413C836.37 177.354 833.268 178.324 829.523 178.324C824.794 178.324 820.995 176.657 818.125 173.322V193.904L811.237 194.765V134.208H817.1L817.674 140.235C819.259 138.021 821.145 136.313 823.332 135.11C825.546 133.907 827.951 133.306 830.548 133.306ZM828.908 138.841C826.53 138.841 824.425 139.565 822.594 141.014C820.79 142.435 819.3 144.021 818.125 145.77V167.172C819.246 168.839 820.653 170.165 822.348 171.149C824.07 172.106 825.956 172.584 828.006 172.584C831.587 172.584 834.279 171.217 836.083 168.484C837.887 165.751 838.789 161.5 838.789 155.733C838.789 151.961 838.434 148.831 837.723 146.344C837.012 143.829 835.933 141.957 834.484 140.727C833.035 139.47 831.177 138.841 828.908 138.841ZM867.293 116.168V140.112C868.988 137.843 871.065 136.149 873.525 135.028C876.012 133.88 878.527 133.306 881.069 133.306C885.278 133.306 888.353 134.427 890.294 136.668C892.235 138.909 893.205 142.025 893.205 146.016V177.381H886.317V146.18C886.317 143.583 885.716 141.697 884.513 140.522C883.31 139.319 881.424 138.718 878.855 138.718C877.215 138.718 875.657 139.087 874.181 139.825C872.705 140.563 871.379 141.479 870.204 142.572C869.029 143.665 868.058 144.786 867.293 145.934V177.381H860.405V116.906L867.293 116.168ZM931.426 134.208V171.928H943.603V177.381H911.213V171.928H924.538V139.661H911.623V134.208H931.426ZM925.932 113.995C927.463 113.995 928.679 114.46 929.581 115.389C930.51 116.318 930.975 117.453 930.975 118.792C930.975 120.186 930.51 121.361 929.581 122.318C928.679 123.247 927.463 123.712 925.932 123.712C924.483 123.712 923.294 123.247 922.365 122.318C921.436 121.361 920.971 120.186 920.971 118.792C920.971 117.453 921.436 116.318 922.365 115.389C923.294 114.46 924.483 113.995 925.932 113.995ZM973.419 172.625C976.726 172.625 979.337 172.01 981.25 170.78C983.191 169.523 984.161 167.855 984.161 165.778C984.161 164.466 983.915 163.332 983.423 162.375C982.958 161.418 981.988 160.557 980.512 159.792C979.036 159.027 976.767 158.261 973.706 157.496C970.727 156.758 968.13 155.911 965.916 154.954C963.729 153.97 962.021 152.699 960.791 151.141C959.588 149.583 958.987 147.56 958.987 145.073C958.987 142.64 959.67 140.549 961.037 138.8C962.431 137.023 964.358 135.67 966.818 134.741C969.278 133.784 972.134 133.306 975.387 133.306C978.858 133.306 981.879 133.771 984.448 134.7C987.045 135.602 989.245 136.723 991.049 138.062L988.015 142.736C986.375 141.615 984.571 140.7 982.603 139.989C980.635 139.251 978.257 138.882 975.469 138.882C972.08 138.882 969.674 139.415 968.253 140.481C966.832 141.52 966.121 142.873 966.121 144.54C966.121 145.797 966.463 146.85 967.146 147.697C967.857 148.517 969.046 149.269 970.713 149.952C972.38 150.608 974.676 151.332 977.601 152.125C980.416 152.863 982.863 153.751 984.94 154.79C987.045 155.829 988.685 157.195 989.86 158.89C991.035 160.585 991.623 162.771 991.623 165.45C991.623 168.511 990.748 170.999 988.999 172.912C987.25 174.798 984.981 176.178 982.193 177.053C979.432 177.9 976.508 178.324 973.419 178.324C969.51 178.324 966.176 177.764 963.415 176.643C960.682 175.495 958.386 174.115 956.527 172.502L960.463 167.951C962.158 169.345 964.098 170.479 966.285 171.354C968.499 172.201 970.877 172.625 973.419 172.625ZM1036.36 133.306C1037.76 133.306 1039.08 133.607 1040.34 134.208C1041.62 134.809 1042.68 135.971 1043.5 137.693C1044.32 139.415 1044.73 141.93 1044.73 145.237V177.381H1038.33V146.344C1038.33 143.638 1038.17 141.684 1037.84 140.481C1037.51 139.278 1036.57 138.677 1035.01 138.677C1033.73 138.677 1032.44 139.087 1031.16 139.907C1029.9 140.7 1028.67 142.012 1027.47 143.843V177.381H1021.03V146.344C1021.03 143.638 1020.86 141.684 1020.54 140.481C1020.21 139.278 1019.27 138.677 1017.71 138.677C1016.37 138.677 1015.07 139.087 1013.81 139.907C1012.58 140.7 1011.37 142.012 1010.16 143.843V177.381H1003.81V134.208H1009.22L1009.63 139.21C1010.81 137.543 1012.12 136.149 1013.57 135.028C1015.04 133.88 1016.86 133.306 1019.02 133.306C1020.66 133.306 1022.2 133.702 1023.65 134.495C1025.1 135.26 1026.17 136.764 1026.85 139.005C1028.03 137.31 1029.35 135.944 1030.83 134.905C1032.3 133.839 1034.15 133.306 1036.36 133.306ZM1073.44 163.892C1075.32 163.892 1076.89 164.534 1078.15 165.819C1079.44 167.104 1080.08 168.648 1080.08 170.452C1080.08 171.436 1079.95 172.434 1079.71 173.445C1079.49 174.456 1079.08 175.604 1078.48 176.889L1071.84 192.1H1065.6L1069.54 175.905C1068.72 175.304 1068.06 174.525 1067.57 173.568C1067.11 172.584 1066.88 171.545 1066.88 170.452C1066.88 168.621 1067.5 167.076 1068.76 165.819C1070.02 164.534 1071.58 163.892 1073.44 163.892ZM1181.24 115.963L1188.13 116.824V177.381H1182.1L1181.45 171.682C1179.84 173.978 1177.98 175.659 1175.87 176.725C1173.79 177.791 1171.57 178.324 1169.19 178.324C1165.44 178.324 1162.36 177.381 1159.92 175.495C1157.49 173.609 1155.69 170.985 1154.51 167.623C1153.34 164.234 1152.75 160.311 1152.75 155.856C1152.75 151.537 1153.42 147.683 1154.76 144.294C1156.1 140.877 1158.02 138.199 1160.54 136.258C1163.08 134.29 1166.13 133.306 1169.68 133.306C1172.17 133.306 1174.35 133.743 1176.24 134.618C1178.13 135.465 1179.79 136.723 1181.24 138.39V115.963ZM1171.48 138.841C1167.88 138.841 1165.1 140.249 1163.16 143.064C1161.22 145.879 1160.25 150.143 1160.25 155.856C1160.25 159.573 1160.65 162.689 1161.44 165.204C1162.23 167.719 1163.39 169.605 1164.92 170.862C1166.48 172.119 1168.38 172.748 1170.62 172.748C1173.08 172.748 1175.17 172.051 1176.9 170.657C1178.65 169.263 1180.09 167.691 1181.24 165.942V144.376C1180.07 142.627 1178.65 141.274 1176.98 140.317C1175.31 139.333 1173.48 138.841 1171.48 138.841ZM1240.5 134.208L1225.33 177.668C1224.32 180.593 1223.03 183.271 1221.47 185.704C1219.94 188.137 1217.93 190.146 1215.45 191.731C1212.99 193.344 1209.86 194.341 1206.06 194.724L1204.99 189.23C1207.97 188.738 1210.32 187.986 1212.04 186.975C1213.76 185.964 1215.12 184.665 1216.1 183.08C1217.11 181.495 1218 179.595 1218.77 177.381H1216.47L1201.38 134.208H1208.76L1221.14 172.133L1233.36 134.208H1240.5ZM1253.75 177.381V134.208H1259.61L1260.14 140.194C1261.89 137.98 1264.08 136.285 1266.7 135.11C1269.36 133.907 1271.93 133.306 1274.41 133.306C1278.65 133.306 1281.72 134.427 1283.64 136.668C1285.58 138.909 1286.55 142.025 1286.55 146.016V177.381H1279.66V151.1C1279.66 148.148 1279.5 145.77 1279.17 143.966C1278.84 142.135 1278.16 140.809 1277.12 139.989C1276.08 139.142 1274.47 138.718 1272.28 138.718C1270.59 138.718 1268.99 139.087 1267.48 139.825C1266.01 140.563 1264.68 141.492 1263.51 142.613C1262.36 143.706 1261.4 144.813 1260.64 145.934V177.381H1253.75ZM1319.28 163.892C1321.16 163.892 1322.73 164.534 1323.99 165.819C1325.28 167.104 1325.92 168.648 1325.92 170.452C1325.92 171.436 1325.79 172.434 1325.55 173.445C1325.33 174.456 1324.92 175.604 1324.32 176.889L1317.68 192.1H1311.44L1315.38 175.905C1314.56 175.304 1313.9 174.525 1313.41 173.568C1312.95 172.584 1312.72 171.545 1312.72 170.452C1312.72 168.621 1313.34 167.076 1314.6 165.819C1315.86 164.534 1317.42 163.892 1319.28 163.892ZM1423.11 134.208V171.928H1435.28V177.381H1402.89V171.928H1416.22V139.661H1403.3V134.208H1423.11ZM1417.61 113.995C1419.14 113.995 1420.36 114.46 1421.26 115.389C1422.19 116.318 1422.65 117.453 1422.65 118.792C1422.65 120.186 1422.19 121.361 1421.26 122.318C1420.36 123.247 1419.14 123.712 1417.61 123.712C1416.16 123.712 1414.97 123.247 1414.04 122.318C1413.12 121.361 1412.65 120.186 1412.65 118.792C1412.65 117.453 1413.12 116.318 1414.04 115.389C1414.97 114.46 1416.16 113.995 1417.61 113.995ZM1478.87 133.306C1480.27 133.306 1481.59 133.607 1482.85 134.208C1484.14 134.809 1485.19 135.971 1486.01 137.693C1486.83 139.415 1487.24 141.93 1487.24 145.237V177.381H1480.84V146.344C1480.84 143.638 1480.68 141.684 1480.35 140.481C1480.02 139.278 1479.08 138.677 1477.52 138.677C1476.24 138.677 1474.95 139.087 1473.67 139.907C1472.41 140.7 1471.18 142.012 1469.98 143.843V177.381H1463.54V146.344C1463.54 143.638 1463.38 141.684 1463.05 140.481C1462.72 139.278 1461.78 138.677 1460.22 138.677C1458.88 138.677 1457.58 139.087 1456.32 139.907C1455.09 140.7 1453.88 142.012 1452.68 143.843V177.381H1446.32V134.208H1451.73L1452.14 139.21C1453.32 137.543 1454.63 136.149 1456.08 135.028C1457.55 133.88 1459.37 133.306 1461.53 133.306C1463.17 133.306 1464.72 133.702 1466.16 134.495C1467.61 135.26 1468.68 136.764 1469.36 139.005C1470.54 137.31 1471.86 135.944 1473.34 134.905C1474.82 133.839 1476.66 133.306 1478.87 133.306ZM1518.9 133.306C1522.73 133.306 1525.77 134.235 1528.04 136.094C1530.34 137.953 1531.99 140.577 1533 143.966C1534.01 147.328 1534.52 151.264 1534.52 155.774C1534.52 160.12 1533.91 164.001 1532.68 167.418C1531.47 170.807 1529.64 173.472 1527.18 175.413C1524.72 177.354 1521.62 178.324 1517.87 178.324C1513.15 178.324 1509.35 176.657 1506.48 173.322V193.904L1499.59 194.765V134.208H1505.45L1506.03 140.235C1507.61 138.021 1509.5 136.313 1511.68 135.11C1513.9 133.907 1516.3 133.306 1518.9 133.306ZM1517.26 138.841C1514.88 138.841 1512.78 139.565 1510.95 141.014C1509.14 142.435 1507.65 144.021 1506.48 145.77V167.172C1507.6 168.839 1509 170.165 1510.7 171.149C1512.42 172.106 1514.31 172.584 1516.36 172.584C1519.94 172.584 1522.63 171.217 1524.43 168.484C1526.24 165.751 1527.14 161.5 1527.14 155.733C1527.14 151.961 1526.79 148.831 1526.07 146.344C1525.36 143.829 1524.28 141.957 1522.84 140.727C1521.39 139.47 1519.53 138.841 1517.26 138.841ZM1565.57 116.824V166.721C1565.57 168.853 1566.22 170.37 1567.53 171.272C1568.87 172.147 1570.6 172.584 1572.7 172.584C1574.01 172.584 1575.26 172.447 1576.43 172.174C1577.61 171.901 1578.78 171.532 1579.96 171.067L1581.8 176.11C1580.63 176.684 1579.16 177.19 1577.42 177.627C1575.69 178.092 1573.74 178.324 1571.55 178.324C1567.73 178.324 1564.62 177.272 1562.25 175.167C1559.87 173.035 1558.68 170.097 1558.68 166.352V122.277H1545.44V116.824H1565.57ZM1614.28 163.892C1616.17 163.892 1617.74 164.534 1619 165.819C1620.28 167.104 1620.93 168.648 1620.93 170.452C1620.93 171.436 1620.8 172.434 1620.56 173.445C1620.34 174.456 1619.93 175.604 1619.33 176.889L1612.68 192.1H1606.45L1610.39 175.905C1609.57 175.304 1608.91 174.525 1608.42 173.568C1607.96 172.584 1607.72 171.545 1607.72 170.452C1607.72 168.621 1608.35 167.076 1609.61 165.819C1610.87 164.534 1612.42 163.892 1614.28 163.892ZM80.6056 242.208V272.794C80.6056 275.637 81.1932 277.687 82.3686 278.944C83.5439 280.201 85.3752 280.83 87.8626 280.83C90.2406 280.83 92.4819 280.16 94.5866 278.821C96.7186 277.454 98.3722 275.842 99.5476 273.983V242.208H106.436V285.381H100.573L99.9986 279.559C98.3039 281.746 96.2129 283.427 93.7256 284.602C91.2382 285.75 88.7236 286.324 86.1816 286.324C81.9996 286.324 78.8699 285.217 76.7926 283.003C74.7426 280.762 73.7176 277.632 73.7176 273.614V242.208H80.6056ZM137.564 280.625C140.871 280.625 143.481 280.01 145.395 278.78C147.335 277.523 148.306 275.855 148.306 273.778C148.306 272.466 148.06 271.332 147.568 270.375C147.103 269.418 146.133 268.557 144.657 267.792C143.181 267.027 140.912 266.261 137.851 265.496C134.871 264.758 132.275 263.911 130.061 262.954C127.874 261.97 126.166 260.699 124.936 259.141C123.733 257.583 123.132 255.56 123.132 253.073C123.132 250.64 123.815 248.549 125.182 246.8C126.576 245.023 128.503 243.67 130.963 242.741C133.423 241.784 136.279 241.306 139.532 241.306C143.003 241.306 146.023 241.771 148.593 242.7C151.189 243.602 153.39 244.723 155.194 246.062L152.16 250.736C150.52 249.615 148.716 248.7 146.748 247.989C144.78 247.251 142.402 246.882 139.614 246.882C136.224 246.882 133.819 247.415 132.398 248.481C130.976 249.52 130.266 250.873 130.266 252.54C130.266 253.797 130.607 254.85 131.291 255.697C132.001 256.517 133.19 257.269 134.858 257.952C136.525 258.608 138.821 259.332 141.746 260.125C144.561 260.863 147.007 261.751 149.085 262.79C151.189 263.829 152.829 265.195 154.005 266.89C155.18 268.585 155.768 270.771 155.768 273.45C155.768 276.511 154.893 278.999 153.144 280.912C151.394 282.798 149.126 284.178 146.338 285.053C143.577 285.9 140.652 286.324 137.564 286.324C133.655 286.324 130.32 285.764 127.56 284.643C124.826 283.495 122.53 282.115 120.672 280.502L124.608 275.951C126.302 277.345 128.243 278.479 130.43 279.354C132.644 280.201 135.022 280.625 137.564 280.625ZM193.907 242.208V279.928H206.084V285.381H173.694V279.928H187.019V247.661H174.104V242.208H193.907ZM188.413 221.995C189.943 221.995 191.16 222.46 192.062 223.389C192.991 224.318 193.456 225.453 193.456 226.792C193.456 228.186 192.991 229.361 192.062 230.318C191.16 231.247 189.943 231.712 188.413 231.712C186.964 231.712 185.775 231.247 184.846 230.318C183.916 229.361 183.452 228.186 183.452 226.792C183.452 225.453 183.916 224.318 184.846 223.389C185.775 222.46 186.964 221.995 188.413 221.995ZM221.221 285.381V242.208H227.084L227.617 248.194C229.367 245.98 231.553 244.285 234.177 243.11C236.829 241.907 239.398 241.306 241.885 241.306C246.122 241.306 249.197 242.427 251.11 244.668C253.051 246.909 254.021 250.025 254.021 254.016V285.381H247.133V259.1C247.133 256.148 246.969 253.77 246.641 251.966C246.313 250.135 245.63 248.809 244.591 247.989C243.553 247.142 241.94 246.718 239.753 246.718C238.059 246.718 236.46 247.087 234.956 247.825C233.48 248.563 232.155 249.492 230.979 250.613C229.831 251.706 228.875 252.813 228.109 253.934V285.381H221.221ZM305.485 237.616L307.617 244.094C305.786 244.668 303.832 245.023 301.754 245.16C299.677 245.297 297.422 245.365 294.989 245.365C297.477 246.513 299.349 248.003 300.606 249.834C301.864 251.638 302.492 253.77 302.492 256.23C302.492 259.073 301.85 261.601 300.565 263.815C299.281 266.029 297.422 267.765 294.989 269.022C292.584 270.279 289.673 270.908 286.256 270.908C284.808 270.908 283.591 270.84 282.607 270.703C281.651 270.566 280.721 270.361 279.819 270.088C279.163 270.525 278.617 271.127 278.179 271.892C277.769 272.657 277.564 273.45 277.564 274.27C277.564 275.309 277.974 276.17 278.794 276.853C279.614 277.536 281.131 277.878 283.345 277.878H291.135C294.033 277.878 296.629 278.397 298.925 279.436C301.249 280.475 303.066 281.869 304.378 283.618C305.718 285.367 306.387 287.363 306.387 289.604C306.387 293.841 304.583 297.093 300.975 299.362C297.395 301.631 292.324 302.765 285.764 302.765C281.172 302.765 277.551 302.287 274.899 301.33C272.248 300.401 270.348 298.966 269.2 297.025C268.08 295.112 267.519 292.693 267.519 289.768H273.751C273.751 291.435 274.079 292.816 274.735 293.909C275.391 295.002 276.58 295.809 278.302 296.328C280.024 296.875 282.498 297.148 285.723 297.148C288.894 297.148 291.477 296.875 293.472 296.328C295.495 295.809 296.985 295.016 297.941 293.95C298.925 292.911 299.417 291.613 299.417 290.055C299.417 288.005 298.488 286.461 296.629 285.422C294.771 284.383 292.447 283.864 289.659 283.864H281.951C278.234 283.864 275.487 283.044 273.71 281.404C271.961 279.764 271.086 277.878 271.086 275.746C271.086 274.352 271.483 272.999 272.275 271.687C273.095 270.375 274.284 269.213 275.842 268.202C273.355 266.89 271.524 265.264 270.348 263.323C269.173 261.382 268.585 259.032 268.585 256.271C268.585 253.346 269.31 250.763 270.758 248.522C272.207 246.253 274.23 244.477 276.826 243.192C279.423 241.907 282.416 241.265 285.805 241.265C289.441 241.238 292.393 241.087 294.661 240.814C296.93 240.513 298.871 240.09 300.483 239.543C302.123 238.996 303.791 238.354 305.485 237.616ZM285.805 246.308C282.334 246.308 279.765 247.251 278.097 249.137C276.457 250.996 275.637 253.374 275.637 256.271C275.637 259.196 276.485 261.601 278.179 263.487C279.874 265.373 282.471 266.316 285.969 266.316C289.031 266.316 291.354 265.428 292.939 263.651C294.552 261.874 295.358 259.401 295.358 256.23C295.358 252.977 294.552 250.517 292.939 248.85C291.354 247.155 288.976 246.308 285.805 246.308ZM374.137 266.234C374.274 269.569 374.916 272.302 376.064 274.434C377.212 276.539 378.729 278.097 380.615 279.108C382.501 280.092 384.551 280.584 386.765 280.584C388.979 280.584 390.975 280.256 392.751 279.6C394.555 278.944 396.4 277.974 398.286 276.689L401.525 281.24C399.503 282.825 397.193 284.069 394.596 284.971C392.027 285.873 389.389 286.324 386.683 286.324C382.501 286.324 378.934 285.381 375.982 283.495C373.03 281.609 370.775 278.985 369.217 275.623C367.687 272.234 366.921 268.311 366.921 263.856C366.921 259.483 367.7 255.601 369.258 252.212C370.816 248.823 373.003 246.158 375.818 244.217C378.634 242.276 381.955 241.306 385.781 241.306C389.417 241.306 392.546 242.167 395.17 243.889C397.794 245.584 399.803 248.016 401.197 251.187C402.619 254.33 403.329 258.089 403.329 262.462C403.329 263.2 403.316 263.897 403.288 264.553C403.261 265.182 403.22 265.742 403.165 266.234H374.137ZM385.863 246.964C382.665 246.964 379.987 248.098 377.827 250.367C375.695 252.636 374.479 256.148 374.178 260.904H396.687C396.605 256.285 395.594 252.813 393.653 250.49C391.713 248.139 389.116 246.964 385.863 246.964ZM422.075 285.381H414.203L430.152 262.585L416.171 242.208H424.33L434.334 258.28L444.461 242.208H452.333L438.393 262.298L454.301 285.381H445.855L434.047 266.849L422.075 285.381ZM488.914 242.208V279.928H501.091V285.381H468.701V279.928H482.026V247.661H469.111V242.208H488.914ZM483.42 221.995C484.951 221.995 486.167 222.46 487.069 223.389C487.999 224.318 488.463 225.453 488.463 226.792C488.463 228.186 487.999 229.361 487.069 230.318C486.167 231.247 484.951 231.712 483.42 231.712C481.972 231.712 480.783 231.247 479.853 230.318C478.924 229.361 478.459 228.186 478.459 226.792C478.459 225.453 478.924 224.318 479.853 223.389C480.783 222.46 481.972 221.995 483.42 221.995ZM530.907 280.625C534.215 280.625 536.825 280.01 538.738 278.78C540.679 277.523 541.649 275.855 541.649 273.778C541.649 272.466 541.403 271.332 540.911 270.375C540.447 269.418 539.476 268.557 538 267.792C536.524 267.027 534.256 266.261 531.194 265.496C528.215 264.758 525.618 263.911 523.404 262.954C521.218 261.97 519.509 260.699 518.279 259.141C517.077 257.583 516.475 255.56 516.475 253.073C516.475 250.64 517.159 248.549 518.525 246.8C519.919 245.023 521.846 243.67 524.306 242.741C526.766 241.784 529.623 241.306 532.875 241.306C536.347 241.306 539.367 241.771 541.936 242.7C544.533 243.602 546.733 244.723 548.537 246.062L545.503 250.736C543.863 249.615 542.059 248.7 540.091 247.989C538.123 247.251 535.745 246.882 532.957 246.882C529.568 246.882 527.163 247.415 525.741 248.481C524.32 249.52 523.609 250.873 523.609 252.54C523.609 253.797 523.951 254.85 524.634 255.697C525.345 256.517 526.534 257.269 528.201 257.952C529.869 258.608 532.165 259.332 535.089 260.125C537.905 260.863 540.351 261.751 542.428 262.79C544.533 263.829 546.173 265.195 547.348 266.89C548.524 268.585 549.111 270.771 549.111 273.45C549.111 276.511 548.237 278.999 546.487 280.912C544.738 282.798 542.469 284.178 539.681 285.053C536.921 285.9 533.996 286.324 530.907 286.324C526.999 286.324 523.664 285.764 520.903 284.643C518.17 283.495 515.874 282.115 514.015 280.502L517.951 275.951C519.646 277.345 521.587 278.479 523.773 279.354C525.987 280.201 528.365 280.625 530.907 280.625ZM599.673 283.208C598.197 284.192 596.407 284.957 594.302 285.504C592.198 286.051 590.134 286.324 588.111 286.324C583.465 286.324 579.884 285.108 577.369 282.675C574.855 280.242 573.597 277.113 573.597 273.286V247.538H563.675V242.208H573.597V232.409L580.485 231.589V242.208H595.409L594.589 247.538H580.485V273.204C580.485 275.609 581.114 277.441 582.371 278.698C583.656 279.955 585.774 280.584 588.726 280.584C590.339 280.584 591.829 280.393 593.195 280.01C594.562 279.627 595.833 279.135 597.008 278.534L599.673 283.208ZM636.418 242.208V279.928H648.595V285.381H616.205V279.928H629.53V247.661H616.615V242.208H636.418ZM630.924 221.995C632.455 221.995 633.671 222.46 634.573 223.389C635.503 224.318 635.967 225.453 635.967 226.792C635.967 228.186 635.503 229.361 634.573 230.318C633.671 231.247 632.455 231.712 630.924 231.712C629.476 231.712 628.287 231.247 627.357 230.318C626.428 229.361 625.963 228.186 625.963 226.792C625.963 225.453 626.428 224.318 627.357 223.389C628.287 222.46 629.476 221.995 630.924 221.995ZM663.733 285.381V242.208H669.596L670.129 248.194C671.879 245.98 674.065 244.285 676.689 243.11C679.341 241.907 681.91 241.306 684.397 241.306C688.634 241.306 691.709 242.427 693.622 244.668C695.563 246.909 696.533 250.025 696.533 254.016V285.381H689.645V259.1C689.645 256.148 689.481 253.77 689.153 251.966C688.825 250.135 688.142 248.809 687.103 247.989C686.065 247.142 684.452 246.718 682.265 246.718C680.571 246.718 678.972 247.087 677.468 247.825C675.992 248.563 674.667 249.492 673.491 250.613C672.343 251.706 671.387 252.813 670.621 253.934V285.381H663.733ZM747.997 237.616L750.129 244.094C748.298 244.668 746.343 245.023 744.266 245.16C742.189 245.297 739.934 245.365 737.501 245.365C739.988 246.513 741.861 248.003 743.118 249.834C744.375 251.638 745.004 253.77 745.004 256.23C745.004 259.073 744.362 261.601 743.077 263.815C741.792 266.029 739.934 267.765 737.501 269.022C735.096 270.279 732.185 270.908 728.768 270.908C727.319 270.908 726.103 270.84 725.119 270.703C724.162 270.566 723.233 270.361 722.331 270.088C721.675 270.525 721.128 271.127 720.691 271.892C720.281 272.657 720.076 273.45 720.076 274.27C720.076 275.309 720.486 276.17 721.306 276.853C722.126 277.536 723.643 277.878 725.857 277.878H733.647C736.544 277.878 739.141 278.397 741.437 279.436C743.76 280.475 745.578 281.869 746.89 283.618C748.229 285.367 748.899 287.363 748.899 289.604C748.899 293.841 747.095 297.093 743.487 299.362C739.906 301.631 734.836 302.765 728.276 302.765C723.684 302.765 720.062 302.287 717.411 301.33C714.76 300.401 712.86 298.966 711.712 297.025C710.591 295.112 710.031 292.693 710.031 289.768H716.263C716.263 291.435 716.591 292.816 717.247 293.909C717.903 295.002 719.092 295.809 720.814 296.328C722.536 296.875 725.01 297.148 728.235 297.148C731.406 297.148 733.989 296.875 735.984 296.328C738.007 295.809 739.496 295.016 740.453 293.95C741.437 292.911 741.929 291.613 741.929 290.055C741.929 288.005 741 286.461 739.141 285.422C737.282 284.383 734.959 283.864 732.171 283.864H724.463C720.746 283.864 717.999 283.044 716.222 281.404C714.473 279.764 713.598 277.878 713.598 275.746C713.598 274.352 713.994 272.999 714.787 271.687C715.607 270.375 716.796 269.213 718.354 268.202C715.867 266.89 714.035 265.264 712.86 263.323C711.685 261.382 711.097 259.032 711.097 256.271C711.097 253.346 711.821 250.763 713.27 248.522C714.719 246.253 716.741 244.477 719.338 243.192C721.935 241.907 724.928 241.265 728.317 241.265C731.952 241.238 734.904 241.087 737.173 240.814C739.442 240.513 741.382 240.09 742.995 239.543C744.635 238.996 746.302 238.354 747.997 237.616ZM728.317 246.308C724.846 246.308 722.276 247.251 720.609 249.137C718.969 250.996 718.149 253.374 718.149 256.271C718.149 259.196 718.996 261.601 720.691 263.487C722.386 265.373 724.982 266.316 728.481 266.316C731.542 266.316 733.866 265.428 735.451 263.651C737.064 261.874 737.87 259.401 737.87 256.23C737.87 252.977 737.064 250.517 735.451 248.85C733.866 247.155 731.488 246.308 728.317 246.308ZM845.513 283.208C844.037 284.192 842.247 284.957 840.142 285.504C838.037 286.051 835.974 286.324 833.951 286.324C829.304 286.324 825.724 285.108 823.209 282.675C820.694 280.242 819.437 277.113 819.437 273.286V247.538H809.515V242.208H819.437V232.409L826.325 231.589V242.208H841.249L840.429 247.538H826.325V273.204C826.325 275.609 826.954 277.441 828.211 278.698C829.496 279.955 831.614 280.584 834.566 280.584C836.179 280.584 837.668 280.393 839.035 280.01C840.402 279.627 841.673 279.135 842.848 278.534L845.513 283.208ZM860.815 285.381V280.092H867.539V247.497H860.815V242.208H872.787L874.058 252.417C875.725 248.864 877.748 246.117 880.126 244.176C882.504 242.235 885.647 241.265 889.556 241.265C890.759 241.265 891.825 241.361 892.754 241.552C893.711 241.716 894.681 241.935 895.665 242.208L893.656 248.358C892.754 248.112 891.934 247.934 891.196 247.825C890.458 247.688 889.611 247.62 888.654 247.62C885.347 247.62 882.504 248.795 880.126 251.146C877.748 253.497 875.848 257.05 874.427 261.806V280.092H883.201V285.381H860.815ZM889.023 256.804V247.415L889.72 242.208H895.665L894.681 256.804H889.023ZM940.487 275.951C940.487 277.673 940.774 278.93 941.348 279.723C941.922 280.516 942.81 281.103 944.013 281.486L942.332 286.324C940.473 286.078 938.847 285.49 937.453 284.561C936.059 283.604 935.048 282.169 934.419 280.256C932.861 282.251 930.92 283.768 928.597 284.807C926.274 285.818 923.704 286.324 920.889 286.324C916.57 286.324 913.167 285.108 910.68 282.675C908.193 280.242 906.949 277.017 906.949 272.999C906.949 268.544 908.685 265.127 912.156 262.749C915.627 260.371 920.643 259.182 927.203 259.182H933.558V255.574C933.558 252.458 932.642 250.258 930.811 248.973C929.007 247.661 926.492 247.005 923.267 247.005C921.846 247.005 920.178 247.183 918.265 247.538C916.352 247.866 914.274 248.426 912.033 249.219L910.229 244.012C912.88 243.028 915.368 242.331 917.691 241.921C920.014 241.511 922.228 241.306 924.333 241.306C929.718 241.306 933.749 242.563 936.428 245.078C939.134 247.565 940.487 250.955 940.487 255.246V275.951ZM922.652 281.076C924.784 281.076 926.82 280.543 928.761 279.477C930.702 278.384 932.301 276.88 933.558 274.967V263.856H927.326C922.57 263.856 919.208 264.676 917.24 266.316C915.299 267.956 914.329 270.156 914.329 272.917C914.329 275.596 915.012 277.632 916.379 279.026C917.773 280.393 919.864 281.076 922.652 281.076ZM980.594 242.208V279.928H992.771V285.381H960.381V279.928H973.706V247.661H960.791V242.208H980.594ZM975.1 221.995C976.631 221.995 977.847 222.46 978.749 223.389C979.678 224.318 980.143 225.453 980.143 226.792C980.143 228.186 979.678 229.361 978.749 230.318C977.847 231.247 976.631 231.712 975.1 231.712C973.651 231.712 972.462 231.247 971.533 230.318C970.604 229.361 970.139 228.186 970.139 226.792C970.139 225.453 970.604 224.318 971.533 223.389C972.462 222.46 973.651 221.995 975.1 221.995ZM1042.18 283.208C1040.71 284.192 1038.92 284.957 1036.81 285.504C1034.71 286.051 1032.65 286.324 1030.62 286.324C1025.98 286.324 1022.4 285.108 1019.88 282.675C1017.37 280.242 1016.11 277.113 1016.11 273.286V247.538H1006.19V242.208H1016.11V232.409L1023 231.589V242.208H1037.92L1037.1 247.538H1023V273.204C1023 275.609 1023.63 277.441 1024.88 278.698C1026.17 279.955 1028.29 280.584 1031.24 280.584C1032.85 280.584 1034.34 280.393 1035.71 280.01C1037.07 279.627 1038.34 279.135 1039.52 278.534L1042.18 283.208ZM1071.75 280.625C1075.06 280.625 1077.67 280.01 1079.59 278.78C1081.53 277.523 1082.5 275.855 1082.5 273.778C1082.5 272.466 1082.25 271.332 1081.76 270.375C1081.29 269.418 1080.32 268.557 1078.85 267.792C1077.37 267.027 1075.1 266.261 1072.04 265.496C1069.06 264.758 1066.47 263.911 1064.25 262.954C1062.07 261.97 1060.36 260.699 1059.13 259.141C1057.92 257.583 1057.32 255.56 1057.32 253.073C1057.32 250.64 1058.01 248.549 1059.37 246.8C1060.77 245.023 1062.69 243.67 1065.15 242.741C1067.61 241.784 1070.47 241.306 1073.72 241.306C1077.19 241.306 1080.21 241.771 1082.78 242.7C1085.38 243.602 1087.58 244.723 1089.38 246.062L1086.35 250.736C1084.71 249.615 1082.91 248.7 1080.94 247.989C1078.97 247.251 1076.59 246.882 1073.8 246.882C1070.42 246.882 1068.01 247.415 1066.59 248.481C1065.17 249.52 1064.46 250.873 1064.46 252.54C1064.46 253.797 1064.8 254.85 1065.48 255.697C1066.19 256.517 1067.38 257.269 1069.05 257.952C1070.72 258.608 1073.01 259.332 1075.94 260.125C1078.75 260.863 1081.2 261.751 1083.28 262.79C1085.38 263.829 1087.02 265.195 1088.2 266.89C1089.37 268.585 1089.96 270.771 1089.96 273.45C1089.96 276.511 1089.08 278.999 1087.33 280.912C1085.59 282.798 1083.32 284.178 1080.53 285.053C1077.77 285.9 1074.84 286.324 1071.75 286.324C1067.85 286.324 1064.51 285.764 1061.75 284.643C1059.02 283.495 1056.72 282.115 1054.86 280.502L1058.8 275.951C1060.49 277.345 1062.43 278.479 1064.62 279.354C1066.83 280.201 1069.21 280.625 1071.75 280.625ZM1122.6 271.892C1124.49 271.892 1126.06 272.534 1127.32 273.819C1128.6 275.104 1129.25 276.648 1129.25 278.452C1129.25 279.436 1129.12 280.434 1128.88 281.445C1128.66 282.456 1128.25 283.604 1127.65 284.889L1121 300.1H1114.77L1118.71 283.905C1117.89 283.304 1117.23 282.525 1116.74 281.568C1116.28 280.584 1116.04 279.545 1116.04 278.452C1116.04 276.621 1116.67 275.076 1117.93 273.819C1119.19 272.534 1120.75 271.892 1122.6 271.892ZM1238.86 283.208C1237.38 284.192 1235.59 284.957 1233.49 285.504C1231.38 286.051 1229.32 286.324 1227.29 286.324C1222.65 286.324 1219.07 285.108 1216.55 282.675C1214.04 280.242 1212.78 277.113 1212.78 273.286V247.538H1202.86V242.208H1212.78V232.409L1219.67 231.589V242.208H1234.59L1233.77 247.538H1219.67V273.204C1219.67 275.609 1220.3 277.441 1221.55 278.698C1222.84 279.955 1224.96 280.584 1227.91 280.584C1229.52 280.584 1231.01 280.393 1232.38 280.01C1233.75 279.627 1235.02 279.135 1236.19 278.534L1238.86 283.208ZM1254.16 285.381V280.092H1260.88V247.497H1254.16V242.208H1266.13L1267.4 252.417C1269.07 248.864 1271.09 246.117 1273.47 244.176C1275.85 242.235 1278.99 241.265 1282.9 241.265C1284.1 241.265 1285.17 241.361 1286.1 241.552C1287.05 241.716 1288.02 241.935 1289.01 242.208L1287 248.358C1286.1 248.112 1285.28 247.934 1284.54 247.825C1283.8 247.688 1282.95 247.62 1282 247.62C1278.69 247.62 1275.85 248.795 1273.47 251.146C1271.09 253.497 1269.19 257.05 1267.77 261.806V280.092H1276.54V285.381H1254.16ZM1282.37 256.804V247.415L1283.06 242.208H1289.01L1288.02 256.804H1282.37ZM1333.83 275.951C1333.83 277.673 1334.12 278.93 1334.69 279.723C1335.27 280.516 1336.15 281.103 1337.36 281.486L1335.68 286.324C1333.82 286.078 1332.19 285.49 1330.8 284.561C1329.4 283.604 1328.39 282.169 1327.76 280.256C1326.2 282.251 1324.26 283.768 1321.94 284.807C1319.62 285.818 1317.05 286.324 1314.23 286.324C1309.91 286.324 1306.51 285.108 1304.02 282.675C1301.54 280.242 1300.29 277.017 1300.29 272.999C1300.29 268.544 1302.03 265.127 1305.5 262.749C1308.97 260.371 1313.99 259.182 1320.55 259.182H1326.9V255.574C1326.9 252.458 1325.99 250.258 1324.15 248.973C1322.35 247.661 1319.84 247.005 1316.61 247.005C1315.19 247.005 1313.52 247.183 1311.61 247.538C1309.7 247.866 1307.62 248.426 1305.38 249.219L1303.57 244.012C1306.22 243.028 1308.71 242.331 1311.03 241.921C1313.36 241.511 1315.57 241.306 1317.68 241.306C1323.06 241.306 1327.09 242.563 1329.77 245.078C1332.48 247.565 1333.83 250.955 1333.83 255.246V275.951ZM1316 281.076C1318.13 281.076 1320.16 280.543 1322.1 279.477C1324.05 278.384 1325.64 276.88 1326.9 274.967V263.856H1320.67C1315.91 263.856 1312.55 264.676 1310.58 266.316C1308.64 267.956 1307.67 270.156 1307.67 272.917C1307.67 275.596 1308.36 277.632 1309.72 279.026C1311.12 280.393 1313.21 281.076 1316 281.076ZM1373.94 242.208V279.928H1386.11V285.381H1353.72V279.928H1367.05V247.661H1354.13V242.208H1373.94ZM1368.44 221.995C1369.97 221.995 1371.19 222.46 1372.09 223.389C1373.02 224.318 1373.49 225.453 1373.49 226.792C1373.49 228.186 1373.02 229.361 1372.09 230.318C1371.19 231.247 1369.97 231.712 1368.44 231.712C1367 231.712 1365.81 231.247 1364.88 230.318C1363.95 229.361 1363.48 228.186 1363.48 226.792C1363.48 225.453 1363.95 224.318 1364.88 223.389C1365.81 222.46 1367 221.995 1368.44 221.995ZM1435.53 283.208C1434.05 284.192 1432.26 284.957 1430.16 285.504C1428.05 286.051 1425.99 286.324 1423.97 286.324C1419.32 286.324 1415.74 285.108 1413.22 282.675C1410.71 280.242 1409.45 277.113 1409.45 273.286V247.538H1399.53V242.208H1409.45V232.409L1416.34 231.589V242.208H1431.26L1430.44 247.538H1416.34V273.204C1416.34 275.609 1416.97 277.441 1418.23 278.698C1419.51 279.955 1421.63 280.584 1424.58 280.584C1426.19 280.584 1427.68 280.393 1429.05 280.01C1430.42 279.627 1431.69 279.135 1432.86 278.534L1435.53 283.208ZM1516.03 241.306C1520.1 241.306 1523.51 242.235 1526.24 244.094C1529 245.925 1531.06 248.522 1532.43 251.884C1533.82 255.246 1534.52 259.209 1534.52 263.774C1534.52 268.175 1533.81 272.07 1532.39 275.459C1530.97 278.848 1528.88 281.513 1526.12 283.454C1523.38 285.367 1519.99 286.324 1515.95 286.324C1511.9 286.324 1508.5 285.395 1505.74 283.536C1502.98 281.677 1500.89 279.067 1499.47 275.705C1498.07 272.316 1497.37 268.366 1497.37 263.856C1497.37 259.401 1498.09 255.478 1499.51 252.089C1500.93 248.7 1503.02 246.062 1505.78 244.176C1508.57 242.263 1511.98 241.306 1516.03 241.306ZM1516.03 246.923C1512.31 246.923 1509.5 248.303 1507.58 251.064C1505.7 253.797 1504.75 258.061 1504.75 263.856C1504.75 269.541 1505.68 273.764 1507.54 276.525C1509.43 279.286 1512.23 280.666 1515.95 280.666C1519.66 280.666 1522.45 279.286 1524.31 276.525C1526.2 273.764 1527.14 269.514 1527.14 263.774C1527.14 258.034 1526.21 253.797 1524.35 251.064C1522.49 248.303 1519.72 246.923 1516.03 246.923ZM1555.64 247.825C1557.23 245.748 1559.05 244.149 1561.1 243.028C1563.17 241.88 1565.46 241.306 1567.94 241.306C1571.8 241.306 1574.91 242.235 1577.29 244.094C1579.67 245.953 1581.41 248.577 1582.5 251.966C1583.59 255.328 1584.14 259.264 1584.14 263.774C1584.14 268.12 1583.48 272.001 1582.17 275.418C1580.86 278.807 1578.93 281.472 1576.39 283.413C1573.88 285.354 1570.76 286.324 1567.04 286.324C1562.04 286.324 1558.12 284.52 1555.28 280.912L1554.78 285.381H1548.76V224.824L1555.64 223.963V247.825ZM1565.4 280.748C1569.01 280.748 1571.78 279.354 1573.73 276.566C1575.67 273.778 1576.64 269.5 1576.64 263.733C1576.64 259.961 1576.25 256.831 1575.49 254.344C1574.72 251.829 1573.58 249.957 1572.04 248.727C1570.54 247.47 1568.68 246.841 1566.47 246.841C1564.06 246.841 1561.94 247.565 1560.11 249.014C1558.31 250.435 1556.82 252.021 1555.64 253.77V275.172C1556.77 276.867 1558.17 278.22 1559.87 279.231C1561.59 280.242 1563.43 280.748 1565.4 280.748ZM1626.17 242.208V278.452C1626.17 283.263 1625.09 287.281 1622.93 290.506C1620.78 293.759 1617.65 296.369 1613.55 298.337C1609.45 300.305 1604.48 301.781 1598.66 302.765L1597.51 297.435C1601.78 296.724 1605.55 295.658 1608.83 294.237C1612.11 292.816 1614.67 290.861 1616.5 288.374C1618.36 285.914 1619.29 282.757 1619.29 278.903V247.661H1601.33V242.208H1626.17ZM1619.74 221.995C1621.27 221.995 1622.5 222.46 1623.43 223.389C1624.36 224.318 1624.82 225.453 1624.82 226.792C1624.82 228.186 1624.36 229.361 1623.43 230.318C1622.5 231.247 1621.27 231.712 1619.74 231.712C1618.26 231.712 1617.07 231.247 1616.17 230.318C1615.27 229.361 1614.82 228.186 1614.82 226.792C1614.82 225.453 1615.27 224.318 1616.17 223.389C1617.07 222.46 1618.26 221.995 1619.74 221.995ZM1652.5 266.234C1652.64 269.569 1653.28 272.302 1654.43 274.434C1655.58 276.539 1657.1 278.097 1658.98 279.108C1660.87 280.092 1662.92 280.584 1665.13 280.584C1667.35 280.584 1669.34 280.256 1671.12 279.6C1672.92 278.944 1674.77 277.974 1676.65 276.689L1679.89 281.24C1677.87 282.825 1675.56 284.069 1672.96 284.971C1670.39 285.873 1667.76 286.324 1665.05 286.324C1660.87 286.324 1657.3 285.381 1654.35 283.495C1651.4 281.609 1649.14 278.985 1647.58 275.623C1646.05 272.234 1645.29 268.311 1645.29 263.856C1645.29 259.483 1646.07 255.601 1647.63 252.212C1649.18 248.823 1651.37 246.158 1654.19 244.217C1657 242.276 1660.32 241.306 1664.15 241.306C1667.78 241.306 1670.91 242.167 1673.54 243.889C1676.16 245.584 1678.17 248.016 1679.56 251.187C1680.99 254.33 1681.7 258.089 1681.7 262.462C1681.7 263.2 1681.68 263.897 1681.66 264.553C1681.63 265.182 1681.59 265.742 1681.53 266.234H1652.5ZM1664.23 246.964C1661.03 246.964 1658.35 248.098 1656.19 250.367C1654.06 252.636 1652.85 256.148 1652.55 260.904H1675.05C1674.97 256.285 1673.96 252.813 1672.02 250.49C1670.08 248.139 1667.48 246.964 1664.23 246.964ZM1715.78 280.379C1717.94 280.379 1719.94 280.024 1721.8 279.313C1723.69 278.602 1725.43 277.7 1727.01 276.607L1730.37 281.117C1728.49 282.73 1726.22 284.001 1723.57 284.93C1720.92 285.859 1718.32 286.324 1715.78 286.324C1711.49 286.324 1707.82 285.408 1704.79 283.577C1701.78 281.718 1699.49 279.122 1697.9 275.787C1696.32 272.425 1695.52 268.489 1695.52 263.979C1695.52 259.66 1696.32 255.793 1697.9 252.376C1699.51 248.932 1701.82 246.226 1704.83 244.258C1707.86 242.29 1711.54 241.306 1715.86 241.306C1718.62 241.306 1721.2 241.73 1723.61 242.577C1726.04 243.397 1728.27 244.641 1730.29 246.308L1726.93 250.9C1725.1 249.615 1723.25 248.659 1721.39 248.03C1719.56 247.374 1717.69 247.046 1715.78 247.046C1712.06 247.046 1709 248.44 1706.59 251.228C1704.19 254.016 1702.98 258.266 1702.98 263.979C1702.98 267.806 1703.53 270.935 1704.62 273.368C1705.75 275.773 1707.26 277.55 1709.18 278.698C1711.12 279.819 1713.32 280.379 1715.78 280.379ZM1779.7 283.208C1778.23 284.192 1776.44 284.957 1774.33 285.504C1772.23 286.051 1770.17 286.324 1768.14 286.324C1763.5 286.324 1759.92 285.108 1757.4 282.675C1754.89 280.242 1753.63 277.113 1753.63 273.286V247.538H1743.71V242.208H1753.63V232.409L1760.52 231.589V242.208H1775.44L1774.62 247.538H1760.52V273.204C1760.52 275.609 1761.15 277.441 1762.4 278.698C1763.69 279.955 1765.81 280.584 1768.76 280.584C1770.37 280.584 1771.86 280.393 1773.23 280.01C1774.59 279.627 1775.86 279.135 1777.04 278.534L1779.7 283.208ZM1809.27 280.625C1812.58 280.625 1815.19 280.01 1817.11 278.78C1819.05 277.523 1820.02 275.855 1820.02 273.778C1820.02 272.466 1819.77 271.332 1819.28 270.375C1818.81 269.418 1817.84 268.557 1816.37 267.792C1814.89 267.027 1812.62 266.261 1809.56 265.496C1806.58 264.758 1803.99 263.911 1801.77 262.954C1799.58 261.97 1797.88 260.699 1796.65 259.141C1795.44 257.583 1794.84 255.56 1794.84 253.073C1794.84 250.64 1795.53 248.549 1796.89 246.8C1798.29 245.023 1800.21 243.67 1802.67 242.741C1805.13 241.784 1807.99 241.306 1811.24 241.306C1814.71 241.306 1817.73 241.771 1820.3 242.7C1822.9 243.602 1825.1 244.723 1826.9 246.062L1823.87 250.736C1822.23 249.615 1820.43 248.7 1818.46 247.989C1816.49 247.251 1814.11 246.882 1811.32 246.882C1807.94 246.882 1805.53 247.415 1804.11 248.481C1802.69 249.52 1801.98 250.873 1801.98 252.54C1801.98 253.797 1802.32 254.85 1803 255.697C1803.71 256.517 1804.9 257.269 1806.57 257.952C1808.24 258.608 1810.53 259.332 1813.46 260.125C1816.27 260.863 1818.72 261.751 1820.8 262.79C1822.9 263.829 1824.54 265.195 1825.72 266.89C1826.89 268.585 1827.48 270.771 1827.48 273.45C1827.48 276.511 1826.6 278.999 1824.85 280.912C1823.11 282.798 1820.84 284.178 1818.05 285.053C1815.29 285.9 1812.36 286.324 1809.27 286.324C1805.37 286.324 1802.03 285.764 1799.27 284.643C1796.54 283.495 1794.24 282.115 1792.38 280.502L1796.32 275.951C1798.01 277.345 1799.95 278.479 1802.14 279.354C1804.35 280.201 1806.73 280.625 1809.27 280.625Z" fill="url(#paint1_linear_1291_71)"/>
<path d="M271.807 345.603C274.131 345.603 276.235 345.808 278.121 346.218C280.007 346.628 281.798 347.202 283.492 347.94L281.278 353.065C279.884 352.464 278.408 352.013 276.85 351.712C275.292 351.411 273.68 351.261 272.012 351.261C269.006 351.261 266.737 351.849 265.206 353.024C263.703 354.199 262.951 356.003 262.951 358.436V367.21H277.588L276.85 372.622H262.951V407.021H256.063V372.622H245.772V367.21H256.063V358.6C256.063 355.921 256.747 353.612 258.113 351.671C259.507 349.73 261.393 348.241 263.771 347.202C266.149 346.136 268.828 345.603 271.807 345.603ZM311.914 362.946C315.987 362.946 319.39 363.875 322.123 365.734C324.884 367.565 326.948 370.162 328.314 373.524C329.708 376.886 330.405 380.849 330.405 385.414C330.405 389.815 329.695 393.71 328.273 397.099C326.852 400.488 324.761 403.153 322 405.094C319.267 407.007 315.878 407.964 311.832 407.964C307.787 407.964 304.384 407.035 301.623 405.176C298.863 403.317 296.772 400.707 295.35 397.345C293.956 393.956 293.259 390.006 293.259 385.496C293.259 381.041 293.97 377.118 295.391 373.729C296.813 370.34 298.904 367.702 301.664 365.816C304.452 363.903 307.869 362.946 311.914 362.946ZM311.914 368.563C308.197 368.563 305.382 369.943 303.468 372.704C301.582 375.437 300.639 379.701 300.639 385.496C300.639 391.181 301.569 395.404 303.427 398.165C305.313 400.926 308.115 402.306 311.832 402.306C315.55 402.306 318.338 400.926 320.196 398.165C322.082 395.404 323.025 391.154 323.025 385.414C323.025 379.674 322.096 375.437 320.237 372.704C318.379 369.943 315.604 368.563 311.914 368.563ZM345.051 407.021V401.732H351.775V369.137H345.051V363.848H357.023L358.294 374.057C359.962 370.504 361.984 367.757 364.362 365.816C366.74 363.875 369.884 362.905 373.792 362.905C374.995 362.905 376.061 363.001 376.99 363.192C377.947 363.356 378.917 363.575 379.901 363.848L377.892 369.998C376.99 369.752 376.17 369.574 375.432 369.465C374.694 369.328 373.847 369.26 372.89 369.26C369.583 369.26 366.74 370.435 364.362 372.786C361.984 375.137 360.085 378.69 358.663 383.446V401.732H367.437V407.021H345.051ZM373.259 378.444V369.055L373.956 363.848H379.901L378.917 378.444H373.259ZM477.253 404.848C475.777 405.832 473.987 406.597 471.882 407.144C469.778 407.691 467.714 407.964 465.691 407.964C461.045 407.964 457.464 406.748 454.949 404.315C452.435 401.882 451.177 398.753 451.177 394.926V369.178H441.255V363.848H451.177V354.049L458.065 353.229V363.848H472.989L472.169 369.178H458.065V394.844C458.065 397.249 458.694 399.081 459.951 400.338C461.236 401.595 463.354 402.224 466.306 402.224C467.919 402.224 469.409 402.033 470.775 401.65C472.142 401.267 473.413 400.775 474.588 400.174L477.253 404.848ZM497.557 387.874C497.694 391.209 498.336 393.942 499.484 396.074C500.632 398.179 502.149 399.737 504.035 400.748C505.921 401.732 507.971 402.224 510.185 402.224C512.399 402.224 514.395 401.896 516.171 401.24C517.975 400.584 519.82 399.614 521.706 398.329L524.945 402.88C522.923 404.465 520.613 405.709 518.016 406.611C515.447 407.513 512.809 407.964 510.103 407.964C505.921 407.964 502.354 407.021 499.402 405.135C496.45 403.249 494.195 400.625 492.637 397.263C491.107 393.874 490.341 389.951 490.341 385.496C490.341 381.123 491.12 377.241 492.678 373.852C494.236 370.463 496.423 367.798 499.238 365.857C502.054 363.916 505.375 362.946 509.201 362.946C512.837 362.946 515.966 363.807 518.59 365.529C521.214 367.224 523.223 369.656 524.617 372.827C526.039 375.97 526.749 379.729 526.749 384.102C526.749 384.84 526.736 385.537 526.708 386.193C526.681 386.822 526.64 387.382 526.585 387.874H497.557ZM509.283 368.604C506.085 368.604 503.407 369.738 501.247 372.007C499.115 374.276 497.899 377.788 497.598 382.544H520.107C520.025 377.925 519.014 374.453 517.073 372.13C515.133 369.779 512.536 368.604 509.283 368.604ZM555.991 402.265C559.299 402.265 561.909 401.65 563.822 400.42C565.763 399.163 566.733 397.495 566.733 395.418C566.733 394.106 566.487 392.972 565.995 392.015C565.531 391.058 564.56 390.197 563.084 389.432C561.608 388.667 559.34 387.901 556.278 387.136C553.299 386.398 550.702 385.551 548.488 384.594C546.302 383.61 544.593 382.339 543.363 380.781C542.161 379.223 541.559 377.2 541.559 374.713C541.559 372.28 542.243 370.189 543.609 368.44C545.003 366.663 546.93 365.31 549.39 364.381C551.85 363.424 554.707 362.946 557.959 362.946C561.431 362.946 564.451 363.411 567.02 364.34C569.617 365.242 571.817 366.363 573.621 367.702L570.587 372.376C568.947 371.255 567.143 370.34 565.175 369.629C563.207 368.891 560.829 368.522 558.041 368.522C554.652 368.522 552.247 369.055 550.825 370.121C549.404 371.16 548.693 372.513 548.693 374.18C548.693 375.437 549.035 376.49 549.718 377.337C550.429 378.157 551.618 378.909 553.285 379.592C554.953 380.248 557.249 380.972 560.173 381.765C562.989 382.503 565.435 383.391 567.512 384.43C569.617 385.469 571.257 386.835 572.432 388.53C573.608 390.225 574.195 392.411 574.195 395.09C574.195 398.151 573.321 400.639 571.571 402.552C569.822 404.438 567.553 405.818 564.765 406.693C562.005 407.54 559.08 407.964 555.991 407.964C552.083 407.964 548.748 407.404 545.987 406.283C543.254 405.135 540.958 403.755 539.099 402.142L543.035 397.591C544.73 398.985 546.671 400.119 548.857 400.994C551.071 401.841 553.449 402.265 555.991 402.265ZM624.757 404.848C623.281 405.832 621.491 406.597 619.386 407.144C617.282 407.691 615.218 407.964 613.195 407.964C608.549 407.964 604.968 406.748 602.453 404.315C599.939 401.882 598.681 398.753 598.681 394.926V369.178H588.759V363.848H598.681V354.049L605.569 353.229V363.848H620.493L619.673 369.178H605.569V394.844C605.569 397.249 606.198 399.081 607.455 400.338C608.74 401.595 610.858 402.224 613.81 402.224C615.423 402.224 616.913 402.033 618.279 401.65C619.646 401.267 620.917 400.775 622.092 400.174L624.757 404.848ZM661.502 363.848V401.568H673.679V407.021H641.289V401.568H654.614V369.301H641.699V363.848H661.502ZM656.008 343.635C657.539 343.635 658.755 344.1 659.657 345.029C660.587 345.958 661.051 347.093 661.051 348.432C661.051 349.826 660.587 351.001 659.657 351.958C658.755 352.887 657.539 353.352 656.008 353.352C654.56 353.352 653.371 352.887 652.441 351.958C651.512 351.001 651.047 349.826 651.047 348.432C651.047 347.093 651.512 345.958 652.441 345.029C653.371 344.1 654.56 343.635 656.008 343.635ZM688.817 407.021V363.848H694.68L695.213 369.834C696.963 367.62 699.149 365.925 701.773 364.75C704.425 363.547 706.994 362.946 709.481 362.946C713.718 362.946 716.793 364.067 718.706 366.308C720.647 368.549 721.617 371.665 721.617 375.656V407.021H714.729V380.74C714.729 377.788 714.565 375.41 714.237 373.606C713.909 371.775 713.226 370.449 712.187 369.629C711.149 368.782 709.536 368.358 707.349 368.358C705.655 368.358 704.056 368.727 702.552 369.465C701.076 370.203 699.751 371.132 698.575 372.253C697.427 373.346 696.471 374.453 695.705 375.574V407.021H688.817ZM773.081 359.256L775.213 365.734C773.382 366.308 771.427 366.663 769.35 366.8C767.273 366.937 765.018 367.005 762.585 367.005C765.072 368.153 766.945 369.643 768.202 371.474C769.459 373.278 770.088 375.41 770.088 377.87C770.088 380.713 769.446 383.241 768.161 385.455C766.876 387.669 765.018 389.405 762.585 390.662C760.18 391.919 757.269 392.548 753.852 392.548C752.403 392.548 751.187 392.48 750.203 392.343C749.246 392.206 748.317 392.001 747.415 391.728C746.759 392.165 746.212 392.767 745.775 393.532C745.365 394.297 745.16 395.09 745.16 395.91C745.16 396.949 745.57 397.81 746.39 398.493C747.21 399.176 748.727 399.518 750.941 399.518H758.731C761.628 399.518 764.225 400.037 766.521 401.076C768.844 402.115 770.662 403.509 771.974 405.258C773.313 407.007 773.983 409.003 773.983 411.244C773.983 415.481 772.179 418.733 768.571 421.002C764.99 423.271 759.92 424.405 753.36 424.405C748.768 424.405 745.146 423.927 742.495 422.97C739.844 422.041 737.944 420.606 736.796 418.665C735.675 416.752 735.115 414.333 735.115 411.408H741.347C741.347 413.075 741.675 414.456 742.331 415.549C742.987 416.642 744.176 417.449 745.898 417.968C747.62 418.515 750.094 418.788 753.319 418.788C756.49 418.788 759.073 418.515 761.068 417.968C763.091 417.449 764.58 416.656 765.537 415.59C766.521 414.551 767.013 413.253 767.013 411.695C767.013 409.645 766.084 408.101 764.225 407.062C762.366 406.023 760.043 405.504 757.255 405.504H749.547C745.83 405.504 743.083 404.684 741.306 403.044C739.557 401.404 738.682 399.518 738.682 397.386C738.682 395.992 739.078 394.639 739.871 393.327C740.691 392.015 741.88 390.853 743.438 389.842C740.951 388.53 739.119 386.904 737.944 384.963C736.769 383.022 736.181 380.672 736.181 377.911C736.181 374.986 736.905 372.403 738.354 370.162C739.803 367.893 741.825 366.117 744.422 364.832C747.019 363.547 750.012 362.905 753.401 362.905C757.036 362.878 759.988 362.727 762.257 362.454C764.526 362.153 766.466 361.73 768.079 361.183C769.719 360.636 771.386 359.994 773.081 359.256ZM753.401 367.948C749.93 367.948 747.36 368.891 745.693 370.777C744.053 372.636 743.233 375.014 743.233 377.911C743.233 380.836 744.08 383.241 745.775 385.127C747.47 387.013 750.066 387.956 753.565 387.956C756.626 387.956 758.95 387.068 760.535 385.291C762.148 383.514 762.954 381.041 762.954 377.87C762.954 374.617 762.148 372.157 760.535 370.49C758.95 368.795 756.572 367.948 753.401 367.948ZM867.235 397.591C867.235 399.313 867.522 400.57 868.096 401.363C868.67 402.156 869.558 402.743 870.761 403.126L869.08 407.964C867.221 407.718 865.595 407.13 864.201 406.201C862.807 405.244 861.796 403.809 861.167 401.896C859.609 403.891 857.668 405.408 855.345 406.447C853.022 407.458 850.452 407.964 847.637 407.964C843.318 407.964 839.915 406.748 837.428 404.315C834.941 401.882 833.697 398.657 833.697 394.639C833.697 390.184 835.433 386.767 838.904 384.389C842.375 382.011 847.391 380.822 853.951 380.822H860.306V377.214C860.306 374.098 859.39 371.898 857.559 370.613C855.755 369.301 853.24 368.645 850.015 368.645C848.594 368.645 846.926 368.823 845.013 369.178C843.1 369.506 841.022 370.066 838.781 370.859L836.977 365.652C839.628 364.668 842.116 363.971 844.439 363.561C846.762 363.151 848.976 362.946 851.081 362.946C856.466 362.946 860.497 364.203 863.176 366.718C865.882 369.205 867.235 372.595 867.235 376.886V397.591ZM849.4 402.716C851.532 402.716 853.568 402.183 855.509 401.117C857.45 400.024 859.049 398.52 860.306 396.607V385.496H854.074C849.318 385.496 845.956 386.316 843.988 387.956C842.047 389.596 841.077 391.796 841.077 394.557C841.077 397.236 841.76 399.272 843.127 400.666C844.521 402.033 846.612 402.716 849.4 402.716ZM885.489 407.021V363.848H891.352L891.885 369.834C893.634 367.62 895.821 365.925 898.445 364.75C901.096 363.547 903.666 362.946 906.153 362.946C910.39 362.946 913.465 364.067 915.378 366.308C917.319 368.549 918.289 371.665 918.289 375.656V407.021H911.401V380.74C911.401 377.788 911.237 375.41 910.909 373.606C910.581 371.775 909.898 370.449 908.859 369.629C907.82 368.782 906.208 368.358 904.021 368.358C902.326 368.358 900.727 368.727 899.224 369.465C897.748 370.203 896.422 371.132 895.247 372.253C894.099 373.346 893.142 374.453 892.377 375.574V407.021H885.489ZM960.487 345.603L967.375 346.464V407.021H961.348L960.692 401.322C959.079 403.618 957.221 405.299 955.116 406.365C953.039 407.431 950.811 407.964 948.433 407.964C944.688 407.964 941.6 407.021 939.167 405.135C936.734 403.249 934.93 400.625 933.755 397.263C932.58 393.874 931.992 389.951 931.992 385.496C931.992 381.177 932.662 377.323 934.001 373.934C935.34 370.517 937.267 367.839 939.782 365.898C942.324 363.93 945.372 362.946 948.925 362.946C951.412 362.946 953.599 363.383 955.485 364.258C957.371 365.105 959.038 366.363 960.487 368.03V345.603ZM950.729 368.481C947.121 368.481 944.347 369.889 942.406 372.704C940.465 375.519 939.495 379.783 939.495 385.496C939.495 389.213 939.891 392.329 940.684 394.844C941.477 397.359 942.638 399.245 944.169 400.502C945.727 401.759 947.627 402.388 949.868 402.388C952.328 402.388 954.419 401.691 956.141 400.297C957.89 398.903 959.339 397.331 960.487 395.582V374.016C959.312 372.267 957.89 370.914 956.223 369.957C954.556 368.973 952.724 368.481 950.729 368.481ZM1038.4 387.874C1038.54 391.209 1039.18 393.942 1040.33 396.074C1041.48 398.179 1043 399.737 1044.88 400.748C1046.77 401.732 1048.82 402.224 1051.03 402.224C1053.25 402.224 1055.24 401.896 1057.02 401.24C1058.82 400.584 1060.67 399.614 1062.55 398.329L1065.79 402.88C1063.77 404.465 1061.46 405.709 1058.86 406.611C1056.29 407.513 1053.66 407.964 1050.95 407.964C1046.77 407.964 1043.2 407.021 1040.25 405.135C1037.3 403.249 1035.04 400.625 1033.48 397.263C1031.95 393.874 1031.19 389.951 1031.19 385.496C1031.19 381.123 1031.97 377.241 1033.53 373.852C1035.08 370.463 1037.27 367.798 1040.09 365.857C1042.9 363.916 1046.22 362.946 1050.05 362.946C1053.68 362.946 1056.81 363.807 1059.44 365.529C1062.06 367.224 1064.07 369.656 1065.46 372.827C1066.89 375.97 1067.6 379.729 1067.6 384.102C1067.6 384.84 1067.58 385.537 1067.56 386.193C1067.53 386.822 1067.49 387.382 1067.43 387.874H1038.4ZM1050.13 368.604C1046.93 368.604 1044.25 369.738 1042.09 372.007C1039.96 374.276 1038.75 377.788 1038.45 382.544H1060.95C1060.87 377.925 1059.86 374.453 1057.92 372.13C1055.98 369.779 1053.38 368.604 1050.13 368.604ZM1086.34 407.021H1078.47L1094.42 384.225L1080.44 363.848H1088.6L1098.6 379.92L1108.73 363.848H1116.6L1102.66 383.938L1118.57 407.021H1110.12L1098.31 388.489L1086.34 407.021ZM1165.6 404.848C1164.13 405.832 1162.34 406.597 1160.23 407.144C1158.13 407.691 1156.07 407.964 1154.04 407.964C1149.4 407.964 1145.82 406.748 1143.3 404.315C1140.79 401.882 1139.53 398.753 1139.53 394.926V369.178H1129.61V363.848H1139.53V354.049L1146.42 353.229V363.848H1161.34L1160.52 369.178H1146.42V394.844C1146.42 397.249 1147.05 399.081 1148.3 400.338C1149.59 401.595 1151.71 402.224 1154.66 402.224C1156.27 402.224 1157.76 402.033 1159.13 401.65C1160.49 401.267 1161.76 400.775 1162.94 400.174L1165.6 404.848ZM1185.91 387.874C1186.05 391.209 1186.69 393.942 1187.84 396.074C1188.98 398.179 1190.5 399.737 1192.39 400.748C1194.27 401.732 1196.32 402.224 1198.54 402.224C1200.75 402.224 1202.75 401.896 1204.52 401.24C1206.33 400.584 1208.17 399.614 1210.06 398.329L1213.3 402.88C1211.27 404.465 1208.96 405.709 1206.37 406.611C1203.8 407.513 1201.16 407.964 1198.45 407.964C1194.27 407.964 1190.71 407.021 1187.75 405.135C1184.8 403.249 1182.55 400.625 1180.99 397.263C1179.46 393.874 1178.69 389.951 1178.69 385.496C1178.69 381.123 1179.47 377.241 1181.03 373.852C1182.59 370.463 1184.77 367.798 1187.59 365.857C1190.41 363.916 1193.73 362.946 1197.55 362.946C1201.19 362.946 1204.32 363.807 1206.94 365.529C1209.57 367.224 1211.57 369.656 1212.97 372.827C1214.39 375.97 1215.1 379.729 1215.1 384.102C1215.1 384.84 1215.09 385.537 1215.06 386.193C1215.03 386.822 1214.99 387.382 1214.94 387.874H1185.91ZM1197.63 368.604C1194.44 368.604 1191.76 369.738 1189.6 372.007C1187.47 374.276 1186.25 377.788 1185.95 382.544H1208.46C1208.38 377.925 1207.37 374.453 1205.42 372.13C1203.48 369.779 1200.89 368.604 1197.63 368.604ZM1229.66 407.021V363.848H1235.53L1236.06 369.834C1237.81 367.62 1240 365.925 1242.62 364.75C1245.27 363.547 1247.84 362.946 1250.33 362.946C1254.57 362.946 1257.64 364.067 1259.55 366.308C1261.49 368.549 1262.46 371.665 1262.46 375.656V407.021H1255.58V380.74C1255.58 377.788 1255.41 375.41 1255.08 373.606C1254.76 371.775 1254.07 370.449 1253.03 369.629C1252 368.782 1250.38 368.358 1248.2 368.358C1246.5 368.358 1244.9 368.727 1243.4 369.465C1241.92 370.203 1240.6 371.132 1239.42 372.253C1238.27 373.346 1237.32 374.453 1236.55 375.574V407.021H1229.66ZM1293.51 402.265C1296.82 402.265 1299.43 401.65 1301.34 400.42C1303.28 399.163 1304.25 397.495 1304.25 395.418C1304.25 394.106 1304.01 392.972 1303.51 392.015C1303.05 391.058 1302.08 390.197 1300.6 389.432C1299.13 388.667 1296.86 387.901 1293.8 387.136C1290.82 386.398 1288.22 385.551 1286.01 384.594C1283.82 383.61 1282.11 382.339 1280.88 380.781C1279.68 379.223 1279.08 377.2 1279.08 374.713C1279.08 372.28 1279.76 370.189 1281.13 368.44C1282.52 366.663 1284.45 365.31 1286.91 364.381C1289.37 363.424 1292.23 362.946 1295.48 362.946C1298.95 362.946 1301.97 363.411 1304.54 364.34C1307.14 365.242 1309.34 366.363 1311.14 367.702L1308.11 372.376C1306.47 371.255 1304.66 370.34 1302.69 369.629C1300.73 368.891 1298.35 368.522 1295.56 368.522C1292.17 368.522 1289.77 369.055 1288.34 370.121C1286.92 371.16 1286.21 372.513 1286.21 374.18C1286.21 375.437 1286.55 376.49 1287.24 377.337C1287.95 378.157 1289.14 378.909 1290.8 379.592C1292.47 380.248 1294.77 380.972 1297.69 381.765C1300.51 382.503 1302.95 383.391 1305.03 384.43C1307.14 385.469 1308.78 386.835 1309.95 388.53C1311.13 390.225 1311.71 392.411 1311.71 395.09C1311.71 398.151 1310.84 400.639 1309.09 402.552C1307.34 404.438 1305.07 405.818 1302.28 406.693C1299.52 407.54 1296.6 407.964 1293.51 407.964C1289.6 407.964 1286.27 407.404 1283.51 406.283C1280.77 405.135 1278.48 403.755 1276.62 402.142L1280.55 397.591C1282.25 398.985 1284.19 400.119 1286.38 400.994C1288.59 401.841 1290.97 402.265 1293.51 402.265ZM1349.85 363.848V401.568H1362.03V407.021H1329.64V401.568H1342.97V369.301H1330.05V363.848H1349.85ZM1344.36 343.635C1345.89 343.635 1347.11 344.1 1348.01 345.029C1348.94 345.958 1349.4 347.093 1349.4 348.432C1349.4 349.826 1348.94 351.001 1348.01 351.958C1347.11 352.887 1345.89 353.352 1344.36 353.352C1342.91 353.352 1341.72 352.887 1340.79 351.958C1339.86 351.001 1339.4 349.826 1339.4 348.432C1339.4 347.093 1339.86 345.958 1340.79 345.029C1341.72 344.1 1342.91 343.635 1344.36 343.635ZM1384.06 369.465C1385.64 367.388 1387.46 365.789 1389.51 364.668C1391.59 363.52 1393.87 362.946 1396.36 362.946C1400.21 362.946 1403.33 363.875 1405.7 365.734C1408.08 367.593 1409.82 370.217 1410.91 373.606C1412.01 376.968 1412.55 380.904 1412.55 385.414C1412.55 389.76 1411.9 393.641 1410.58 397.058C1409.27 400.447 1407.34 403.112 1404.8 405.053C1402.29 406.994 1399.17 407.964 1395.45 407.964C1390.45 407.964 1386.53 406.16 1383.69 402.552L1383.2 407.021H1377.17V346.464L1384.06 345.603V369.465ZM1393.81 402.388C1397.42 402.388 1400.2 400.994 1402.14 398.206C1404.08 395.418 1405.05 391.14 1405.05 385.373C1405.05 381.601 1404.67 378.471 1403.9 375.984C1403.14 373.469 1401.99 371.597 1400.46 370.367C1398.95 369.11 1397.09 368.481 1394.88 368.481C1392.48 368.481 1390.36 369.205 1388.53 370.654C1386.72 372.075 1385.23 373.661 1384.06 375.41V396.812C1385.18 398.507 1386.59 399.86 1388.28 400.871C1390 401.882 1391.85 402.388 1393.81 402.388ZM1448.19 363.848V401.568H1460.37V407.021H1427.98V401.568H1441.3V369.301H1428.39V363.848H1448.19ZM1442.7 343.635C1444.23 343.635 1445.44 344.1 1446.34 345.029C1447.27 345.958 1447.74 347.093 1447.74 348.432C1447.74 349.826 1447.27 351.001 1446.34 351.958C1445.44 352.887 1444.23 353.352 1442.7 353.352C1441.25 353.352 1440.06 352.887 1439.13 351.958C1438.2 351.001 1437.73 349.826 1437.73 348.432C1437.73 347.093 1438.2 345.958 1439.13 345.029C1440.06 344.1 1441.25 343.635 1442.7 343.635ZM1492.31 346.464V396.361C1492.31 398.493 1492.97 400.01 1494.28 400.912C1495.62 401.787 1497.34 402.224 1499.45 402.224C1500.76 402.224 1502 402.087 1503.18 401.814C1504.36 401.541 1505.53 401.172 1506.71 400.707L1508.55 405.75C1507.38 406.324 1505.91 406.83 1504.16 407.267C1502.44 407.732 1500.49 407.964 1498.3 407.964C1494.47 407.964 1491.37 406.912 1488.99 404.807C1486.62 402.675 1485.43 399.737 1485.43 395.992V351.917H1472.18V346.464H1492.31ZM1546.53 363.848V401.568H1558.7V407.021H1526.31V401.568H1539.64V369.301H1526.72V363.848H1546.53ZM1541.03 343.635C1542.56 343.635 1543.78 344.1 1544.68 345.029C1545.61 345.958 1546.07 347.093 1546.07 348.432C1546.07 349.826 1545.61 351.001 1544.68 351.958C1543.78 352.887 1542.56 353.352 1541.03 353.352C1539.58 353.352 1538.39 352.887 1537.46 351.958C1536.54 351.001 1536.07 349.826 1536.07 348.432C1536.07 347.093 1536.54 345.958 1537.46 345.029C1538.39 344.1 1539.58 343.635 1541.03 343.635ZM1608.12 404.848C1606.64 405.832 1604.85 406.597 1602.75 407.144C1600.64 407.691 1598.58 407.964 1596.55 407.964C1591.91 407.964 1588.33 406.748 1585.81 404.315C1583.3 401.882 1582.04 398.753 1582.04 394.926V369.178H1572.12V363.848H1582.04V354.049L1588.93 353.229V363.848H1603.85L1603.03 369.178H1588.93V394.844C1588.93 397.249 1589.56 399.081 1590.81 400.338C1592.1 401.595 1594.22 402.224 1597.17 402.224C1598.78 402.224 1600.27 402.033 1601.64 401.65C1603.01 401.267 1604.28 400.775 1605.45 400.174L1608.12 404.848ZM1658.92 363.848L1643.75 407.308C1642.74 410.233 1641.46 412.911 1639.9 415.344C1638.37 417.777 1636.36 419.786 1633.87 421.371C1631.41 422.984 1628.28 423.981 1624.48 424.364L1623.42 418.87C1626.4 418.378 1628.75 417.626 1630.47 416.615C1632.19 415.604 1633.55 414.305 1634.53 412.72C1635.54 411.135 1636.43 409.235 1637.19 407.021H1634.9L1619.81 363.848H1627.19L1639.57 401.773L1651.79 363.848H1658.92Z" fill="url(#paint2_linear_1291_71)"/>
<path d="M1704.21 716.975L1688.99 707.545C1688.86 706.061 1688.71 704.581 1688.56 703.107L1701.66 690.903C1702.99 689.662 1703.59 687.824 1703.23 686.049C1702.88 684.264 1701.63 682.794 1699.92 682.166L1683.18 675.925C1682.76 674.476 1682.32 673.037 1681.87 671.592L1692.3 657.099C1693.37 655.626 1693.59 653.709 1692.89 652.037C1692.2 650.363 1690.68 649.163 1688.91 648.869L1671.26 645.998C1670.57 644.66 1669.86 643.342 1669.14 642.045L1676.56 625.75C1677.32 624.093 1677.16 622.179 1676.15 620.654C1675.14 619.142 1673.43 618.258 1671.6 618.327L1653.68 618.951C1652.75 617.793 1651.81 616.646 1650.85 615.519L1654.98 598.08C1655.39 596.308 1654.87 594.439 1653.58 593.157C1652.3 591.874 1650.44 591.343 1648.66 591.759L1631.22 595.885C1630.09 594.928 1628.94 593.982 1627.78 593.056L1628.41 575.132C1628.47 573.318 1627.59 571.595 1626.08 570.59C1624.56 569.577 1622.65 569.425 1620.98 570.177L1604.72 577.597C1603.41 576.875 1602.09 576.161 1600.77 575.471L1597.89 557.824C1597.6 556.035 1596.4 554.516 1594.72 553.837C1593.05 553.14 1591.12 553.365 1589.66 554.426L1575.17 564.862C1573.74 564.408 1572.3 563.971 1570.87 563.555L1564.63 546.809C1563.99 545.103 1562.52 543.852 1560.75 543.498C1558.96 543.148 1557.14 543.741 1555.89 545.065L1543.69 558.171C1542.21 558.008 1540.73 557.859 1539.25 557.737L1529.82 542.482C1528.87 540.94 1527.18 540 1525.35 540C1523.52 540 1521.85 540.94 1520.91 542.482L1511.48 557.737C1510 557.859 1508.51 558.008 1507.04 558.171L1494.84 545.065C1493.6 543.741 1491.76 543.148 1489.98 543.498C1488.2 543.855 1486.73 545.103 1486.1 546.809L1479.86 563.555C1478.41 563.971 1476.98 564.411 1475.56 564.862L1461.07 554.426C1459.59 553.362 1457.67 553.137 1456.01 553.837C1454.33 554.53 1453.13 556.049 1452.84 557.824L1449.96 575.471C1448.63 576.161 1447.31 576.872 1446.01 577.597L1429.75 570.177C1428.09 569.421 1426.18 569.577 1424.65 570.59C1423.14 571.595 1422.25 573.318 1422.32 575.132L1422.95 593.056C1421.79 593.982 1420.64 594.928 1419.51 595.885L1402.07 591.759C1400.3 591.347 1398.43 591.874 1397.15 593.157C1395.86 594.443 1395.33 596.298 1395.75 598.08L1399.84 615.519C1398.89 616.649 1397.94 617.793 1397.02 618.951L1379.09 618.327C1377.29 618.275 1375.56 619.142 1374.55 620.654C1373.54 622.158 1373.39 624.086 1374.14 625.75L1381.56 642.045C1380.84 643.353 1380.12 644.67 1379.43 645.998L1361.79 648.869C1359.99 649.16 1358.48 650.359 1357.8 652.037C1357.1 653.719 1357.33 655.643 1358.39 657.099L1368.82 671.592C1368.37 673.024 1367.93 674.462 1367.51 675.925L1350.77 682.166C1349.07 682.801 1347.82 684.271 1347.46 686.049C1347.11 687.831 1347.7 689.655 1349.03 690.903L1362.14 703.107C1361.97 704.581 1361.83 706.064 1361.7 707.545L1346.48 716.975C1344.94 717.929 1344 719.614 1344 721.448C1344 723.282 1344.94 724.949 1346.48 725.886L1361.7 735.316C1361.83 736.8 1361.97 738.28 1362.14 739.754L1349.03 751.958C1347.7 753.195 1347.11 755.033 1347.46 756.812C1347.82 758.597 1349.07 760.064 1350.77 760.695L1367.51 766.935C1367.93 768.385 1368.37 769.823 1368.82 771.269L1358.39 785.761C1357.33 787.238 1357.1 789.156 1357.8 790.823C1358.5 792.505 1360.01 793.704 1361.82 793.992L1379.47 796.863C1380.16 798.201 1380.87 799.519 1381.59 800.815L1374.17 817.076C1373.42 818.73 1373.57 820.647 1374.59 822.172C1375.6 823.687 1377.32 824.571 1379.13 824.499L1397.02 823.871C1397.95 825.036 1398.89 826.177 1399.85 827.31L1395.76 844.75C1395.34 846.518 1395.86 848.355 1397.15 849.638C1398.43 850.931 1400.29 851.448 1402.08 851.032L1419.52 846.941C1420.65 847.905 1421.8 848.841 1422.95 849.763L1422.33 867.688C1422.26 869.501 1423.15 871.224 1424.66 872.229C1426.16 873.238 1428.09 873.391 1429.75 872.635L1446.01 865.216C1447.33 865.944 1448.64 866.651 1449.97 867.341L1452.84 884.988C1453.14 886.784 1454.33 888.303 1456.01 889.01C1457.69 889.707 1459.62 889.482 1461.07 888.424L1475.57 877.988C1477 878.442 1478.44 878.886 1479.9 879.302L1486.14 896.048C1486.78 897.747 1488.25 899.005 1490.03 899.352C1491.81 899.713 1493.63 899.116 1494.88 897.785L1507.08 884.68C1508.56 884.85 1510.04 884.992 1511.52 885.123L1520.95 900.344C1521.9 901.88 1523.59 902.826 1525.39 902.826C1527.19 902.826 1528.89 901.883 1529.86 900.344L1539.29 885.123C1540.78 884.992 1542.26 884.85 1543.73 884.68L1555.93 897.785C1557.17 899.116 1559.01 899.713 1560.79 899.352C1562.57 899.002 1564.04 897.747 1564.67 896.048L1570.91 879.302C1572.36 878.886 1573.8 878.442 1575.24 877.988L1589.74 888.424C1591.21 889.482 1593.13 889.707 1594.8 889.01C1596.48 888.32 1597.68 886.798 1597.97 884.988L1600.85 867.341C1602.18 866.651 1603.49 865.933 1604.8 865.216L1621.06 872.635C1622.71 873.391 1624.63 873.238 1626.16 872.229C1627.67 871.217 1628.55 869.501 1628.48 867.688L1627.86 849.763C1629.02 848.837 1630.16 847.905 1631.29 846.941L1648.73 851.032C1650.5 851.448 1652.37 850.931 1653.66 849.638C1654.95 848.352 1655.47 846.504 1655.05 844.75L1650.96 827.31C1651.92 826.177 1652.86 825.036 1653.78 823.871L1671.71 824.499C1673.52 824.571 1675.24 823.687 1676.25 822.172C1677.26 820.661 1677.42 818.736 1676.66 817.076L1669.24 800.815C1669.96 799.501 1670.68 798.184 1671.36 796.863L1689.01 793.992C1690.81 793.704 1692.32 792.505 1693 790.823C1693.69 789.149 1693.47 787.218 1692.41 785.761L1681.97 771.269C1682.42 769.837 1682.86 768.398 1683.28 766.935L1700.03 760.695C1701.73 760.057 1702.99 758.59 1703.33 756.812C1703.69 755.03 1703.1 753.206 1701.76 751.958L1688.66 739.754C1688.82 738.28 1688.96 736.796 1689.09 735.316L1704.31 725.886C1705.85 724.936 1706.8 723.247 1706.8 721.448C1706.8 719.648 1705.86 717.946 1704.32 716.975H1704.21ZM1602.28 843.522C1596.45 842.267 1592.78 836.519 1594.03 830.694C1595.27 824.87 1600.99 821.16 1606.82 822.408C1612.64 823.653 1616.35 829.411 1615.11 835.236C1613.86 841.061 1608.14 844.77 1602.31 843.522H1602.28ZM1597.11 808.505C1591.81 807.368 1586.57 810.745 1585.46 816.063L1580.05 841.303C1563.38 848.862 1544.69 853.091 1525.27 853.091C1505.3 853.091 1486.44 848.688 1469.45 840.783L1464.05 815.543C1462.91 810.239 1457.7 806.841 1452.4 807.985L1430.1 812.77C1425.98 808.505 1422.13 803.963 1418.59 799.179H1527.11C1528.34 799.179 1529.16 798.957 1529.16 797.841V759.356C1529.16 758.24 1528.34 758.018 1527.11 758.018H1495.39V733.714H1529.68C1532.81 733.714 1546.42 734.609 1550.76 752.02C1552.12 757.359 1555.13 774.764 1557.17 780.346C1559.21 786.587 1567.5 799.068 1576.34 799.068H1630.43C1631.04 799.068 1631.7 798.999 1632.39 798.874C1628.64 803.97 1624.52 808.79 1620.11 813.297L1597.3 808.408L1597.11 808.505ZM1446.99 843.002C1441.16 844.257 1435.44 840.548 1434.19 834.716C1432.95 828.891 1436.65 823.136 1442.48 821.888C1448.31 820.643 1454.03 824.353 1455.28 830.174C1456.52 835.999 1452.82 841.754 1446.99 843.002ZM1405.73 676.237C1408.14 681.681 1405.69 688.06 1400.25 690.487C1394.81 692.904 1388.46 690.445 1386.04 685.009C1383.61 679.573 1386.08 673.186 1391.52 670.76C1396.96 668.346 1403.3 670.801 1405.73 676.237ZM1393.08 706.193L1416.31 695.861C1421.26 693.659 1423.52 687.852 1421.3 682.894L1416.51 672.077H1435.31V756.673H1397.51C1394.22 745.093 1392.45 732.889 1392.45 720.269C1392.45 715.45 1392.71 710.7 1393.21 706.019L1393.08 706.193ZM1495.01 697.976V673.013H1539.73C1542.04 673.013 1556.06 675.686 1556.06 686.153C1556.06 694.855 1545.31 697.976 1536.47 697.976H1494.87H1495.01ZM1657.61 720.442C1657.61 723.757 1657.49 727.03 1657.25 730.289H1643.62C1642.26 730.289 1641.71 731.183 1641.71 732.518V738.759C1641.71 753.459 1633.43 756.683 1626.15 757.481C1619.21 758.261 1611.55 754.582 1610.61 750.339C1606.52 727.352 1599.73 722.464 1588.98 713.935C1602.33 705.475 1616.19 692.959 1616.19 676.144C1616.19 658.081 1603.82 646.709 1595.39 641.127C1583.53 633.326 1570.43 631.766 1566.89 631.766H1426.13C1445.23 610.478 1471.2 595.362 1500.33 589.814L1516.93 607.219C1520.68 611.137 1526.88 611.31 1530.84 607.538L1549.42 589.787C1588.25 597.033 1621.19 621.233 1640.26 654.62L1627.53 683.328C1625.34 688.285 1627.58 694.11 1632.52 696.294L1657 707.181C1657.42 711.515 1657.65 715.918 1657.65 720.356L1657.61 720.442ZM1516.85 575.173C1521.15 571.047 1527.98 571.221 1532.07 575.523C1536.16 579.822 1536.02 586.652 1531.71 590.778C1527.41 594.904 1520.58 594.731 1516.49 590.425C1512.4 586.126 1512.54 579.295 1516.85 575.17V575.173ZM1643.05 676.758C1645.46 671.314 1651.82 668.853 1657.27 671.28C1662.71 673.693 1665.17 680.086 1662.74 685.529C1660.33 690.972 1653.97 693.434 1648.53 691.007C1643.08 688.594 1640.62 682.201 1643.05 676.758Z" fill="url(#paint3_linear_1291_71)"/>
<path d="M394.035 593.906C417.435 597.546 441.355 597.546 464.755 593.906C455.915 576.746 444.475 565.826 429.395 565.826C412.235 565.826 401.315 579.866 394.035 593.906Z" fill="url(#paint4_linear_1291_71)"/>
<path d="M367 685.426H315C316.56 717.146 331.12 745.746 353.48 765.506C362.32 762.386 370.64 760.306 379.48 758.226C371.68 737.426 367.52 710.906 367 685.426Z" fill="url(#paint5_linear_1291_71)"/>
<path d="M367 675.026C367.52 647.466 371.68 621.986 379.48 601.706C370.64 599.626 362.32 597.546 353.48 594.426C331.12 614.706 316.56 643.306 315 675.026H367Z" fill="url(#paint6_linear_1291_71)"/>
<path d="M461.129 570.506C466.329 576.226 471.529 584.026 475.169 592.346C481.929 590.786 488.689 589.226 495.449 587.146C485.049 579.346 473.609 574.146 461.129 570.506Z" fill="url(#paint7_linear_1291_71)"/>
<path d="M429.398 607.426C416.398 607.426 402.878 606.386 389.878 603.786C382.078 623.026 377.918 647.986 377.398 675.026H481.398C480.878 649.026 476.718 623.546 468.918 603.786C455.918 606.386 442.398 607.426 429.398 607.426Z" fill="url(#paint8_linear_1291_71)"/>
<path d="M505.328 594.947C496.488 598.067 488.168 600.147 479.328 602.227C487.128 623.027 491.288 649.547 491.808 675.027H543.808C542.248 643.307 527.688 614.707 505.328 594.947Z" fill="url(#paint9_linear_1291_71)"/>
<path d="M383.643 768.626C376.883 770.186 370.123 771.746 363.363 773.826C373.763 781.106 385.203 786.826 397.683 790.466C392.483 784.226 387.803 776.946 383.643 768.626Z" fill="url(#paint10_linear_1291_71)"/>
<path d="M383.643 591.826C387.803 583.506 392.483 576.226 397.683 570.506C385.203 574.146 373.763 579.866 363.363 587.146C370.123 588.706 376.883 590.786 383.643 591.826Z" fill="url(#paint11_linear_1291_71)"/>
<path d="M450.195 764.466C431.475 762.906 412.755 763.426 394.035 766.546C402.355 783.706 414.315 794.626 429.395 794.626C437.715 794.626 444.475 791.506 450.195 786.306V764.466Z" fill="url(#paint12_linear_1291_71)"/>
<path d="M450.198 701.026H480.358C480.878 695.826 480.878 690.626 480.878 685.426H377.398C377.918 711.426 382.078 736.906 389.878 756.666C410.158 753.026 429.918 752.506 450.198 754.066V701.026Z" fill="url(#paint13_linear_1291_71)"/>
<path d="M541.713 701.026C542.753 695.826 543.273 690.626 543.273 685.426H491.793C491.793 690.626 491.273 695.826 491.273 701.026H541.713Z" fill="url(#paint14_linear_1291_71)"/>
<path d="M460.602 711.426V773.826H627.002V711.426H460.602ZM481.402 763.426H471.002V721.826H481.402V763.426ZM502.202 763.426H491.802V721.826H502.202V763.426ZM523.002 763.426H512.602V721.826H523.002V763.426ZM575.002 732.226H564.602V721.826H575.002V732.226ZM595.802 732.226H585.402V721.826H595.802V732.226ZM616.602 732.226H606.202V721.826H616.602V732.226Z" fill="url(#paint15_linear_1291_71)"/>
<path d="M627 846.626V784.226H460.6V846.626H538.6V867.426H315V877.826H627V867.426H549V846.626H627ZM606.2 794.626H616.6V805.026H606.2V794.626ZM585.4 794.626H595.8V805.026H585.4V794.626ZM564.6 794.626H575V805.026H564.6V794.626ZM481.4 836.226H471V794.626H481.4V836.226ZM502.2 836.226H491.8V794.626H502.2V836.226ZM523 836.226H512.6V794.626H523V836.226Z" fill="url(#paint16_linear_1291_71)"/>
</g>
<defs>
<linearGradient id="paint0_linear_1291_71" x1="960" y1="0" x2="960" y2="1080" gradientUnits="userSpaceOnUse">
<stop stop-color="#323232"/>
<stop offset="1"/>
</linearGradient>
<linearGradient id="paint1_linear_1291_71" x1="69.5659" y1="312.921" x2="1858.28" y2="312.921" gradientUnits="userSpaceOnUse">
<stop stop-color="#0095D5"/>
<stop offset="0.464053" stop-color="#7272E1"/>
<stop offset="1" stop-color="#7E6EE3"/>
</linearGradient>
<linearGradient id="paint2_linear_1291_71" x1="951.002" y1="326.021" x2="951.002" y2="434.021" gradientUnits="userSpaceOnUse">
<stop stop-color="#B32BD5"/>
<stop offset="1" stop-color="#DA3C8E"/>
</linearGradient>
<linearGradient id="paint3_linear_1291_71" x1="1525.4" y1="540" x2="1525.4" y2="902.826" gradientUnits="userSpaceOnUse">
<stop stop-color="#B32BD5"/>
<stop offset="1" stop-color="#DA3C8E"/>
</linearGradient>
<linearGradient id="paint4_linear_1291_71" x1="394.217" y1="596.713" x2="465.645" y2="596.713" gradientUnits="userSpaceOnUse">
<stop stop-color="#0095D5"/>
<stop offset="0.464053" stop-color="#7272E1"/>
<stop offset="1" stop-color="#7E6EE3"/>
</linearGradient>
<linearGradient id="paint5_linear_1291_71" x1="315.166" y1="765.706" x2="380.291" y2="765.706" gradientUnits="userSpaceOnUse">
<stop stop-color="#0095D5"/>
<stop offset="0.464053" stop-color="#7272E1"/>
<stop offset="1" stop-color="#7E6EE3"/>
</linearGradient>
<linearGradient id="paint6_linear_1291_71" x1="315.166" y1="675.228" x2="380.291" y2="675.228" gradientUnits="userSpaceOnUse">
<stop stop-color="#0095D5"/>
<stop offset="0.464053" stop-color="#7272E1"/>
<stop offset="1" stop-color="#7E6EE3"/>
</linearGradient>
<linearGradient id="paint7_linear_1291_71" x1="461.217" y1="592.4" x2="495.881" y2="592.4" gradientUnits="userSpaceOnUse">
<stop stop-color="#0095D5"/>
<stop offset="0.464053" stop-color="#7272E1"/>
<stop offset="1" stop-color="#7E6EE3"/>
</linearGradient>
<linearGradient id="paint8_linear_1291_71" x1="377.667" y1="675.204" x2="482.707" y2="675.204" gradientUnits="userSpaceOnUse">
<stop stop-color="#0095D5"/>
<stop offset="0.464053" stop-color="#7272E1"/>
<stop offset="1" stop-color="#7E6EE3"/>
</linearGradient>
<linearGradient id="paint9_linear_1291_71" x1="479.494" y1="675.227" x2="544.619" y2="675.227" gradientUnits="userSpaceOnUse">
<stop stop-color="#0095D5"/>
<stop offset="0.464053" stop-color="#7272E1"/>
<stop offset="1" stop-color="#7E6EE3"/>
</linearGradient>
<linearGradient id="paint10_linear_1291_71" x1="363.452" y1="790.521" x2="398.115" y2="790.521" gradientUnits="userSpaceOnUse">
<stop stop-color="#0095D5"/>
<stop offset="0.464053" stop-color="#7272E1"/>
<stop offset="1" stop-color="#7E6EE3"/>
</linearGradient>
<linearGradient id="paint11_linear_1291_71" x1="363.452" y1="591.879" x2="398.115" y2="591.879" gradientUnits="userSpaceOnUse">
<stop stop-color="#0095D5"/>
<stop offset="0.464053" stop-color="#7272E1"/>
<stop offset="1" stop-color="#7E6EE3"/>
</linearGradient>
<linearGradient id="paint12_linear_1291_71" x1="394.18" y1="794.704" x2="450.902" y2="794.704" gradientUnits="userSpaceOnUse">
<stop stop-color="#0095D5"/>
<stop offset="0.464053" stop-color="#7272E1"/>
<stop offset="1" stop-color="#7E6EE3"/>
</linearGradient>
<linearGradient id="paint13_linear_1291_71" x1="377.665" y1="756.844" x2="482.18" y2="756.844" gradientUnits="userSpaceOnUse">
<stop stop-color="#0095D5"/>
<stop offset="0.464053" stop-color="#7272E1"/>
<stop offset="1" stop-color="#7E6EE3"/>
</linearGradient>
<linearGradient id="paint14_linear_1291_71" x1="491.408" y1="701.065" x2="543.927" y2="701.065" gradientUnits="userSpaceOnUse">
<stop stop-color="#0095D5"/>
<stop offset="0.464053" stop-color="#7272E1"/>
<stop offset="1" stop-color="#7E6EE3"/>
</linearGradient>
<linearGradient id="paint15_linear_1291_71" x1="461.031" y1="773.982" x2="629.095" y2="773.982" gradientUnits="userSpaceOnUse">
<stop stop-color="#0095D5"/>
<stop offset="0.464053" stop-color="#7272E1"/>
<stop offset="1" stop-color="#7E6EE3"/>
</linearGradient>
<linearGradient id="paint16_linear_1291_71" x1="315.804" y1="878.06" x2="630.924" y2="878.06" gradientUnits="userSpaceOnUse">
<stop stop-color="#0095D5"/>
<stop offset="0.464053" stop-color="#7272E1"/>
<stop offset="1" stop-color="#7E6EE3"/>
</linearGradient>
<clipPath id="clip0_1291_71">
<rect width="1920" height="1080" fill="white"/>
</clipPath>
</defs>
</svg>
