<svg width="1920" height="1080" viewBox="0 0 1920 1080" fill="none" xmlns="http://www.w3.org/2000/svg">
<g clip-path="url(#clip0_1303_61)">
<path d="M1920 0H0V1080H1920V0Z" fill="url(#paint0_linear_1303_61)" fill-opacity="0.5"/>
<path d="M560.075 127.033V177.381H552.982V127.033H535.352V120.924H577.951L577.213 127.033H560.075ZM625.397 134.208L610.227 177.668C609.216 180.593 607.931 183.271 606.373 185.704C604.843 188.137 602.834 190.146 600.346 191.731C597.886 193.344 594.757 194.341 590.957 194.724L589.891 189.23C592.871 188.738 595.221 187.986 596.943 186.975C598.665 185.964 600.018 184.665 601.002 183.08C602.014 181.495 602.902 179.595 603.667 177.381H601.371L586.283 134.208H593.663L606.045 172.133L618.263 134.208H625.397ZM657.96 133.306C661.787 133.306 664.835 134.235 667.103 136.094C669.399 137.953 671.053 140.577 672.064 143.966C673.076 147.328 673.581 151.264 673.581 155.774C673.581 160.12 672.966 164.001 671.736 167.418C670.534 170.807 668.702 173.472 666.242 175.413C663.782 177.354 660.68 178.324 656.935 178.324C652.207 178.324 648.407 176.657 645.537 173.322V193.904L638.649 194.765V134.208H644.512L645.086 140.235C646.672 138.021 648.558 136.313 650.744 135.11C652.958 133.907 655.364 133.306 657.96 133.306ZM656.32 138.841C653.942 138.841 651.838 139.565 650.006 141.014C648.202 142.435 646.713 144.021 645.537 145.77V167.172C646.658 168.839 648.066 170.165 649.76 171.149C651.482 172.106 653.368 172.584 655.418 172.584C658.999 172.584 661.691 171.217 663.495 168.484C665.299 165.751 666.201 161.5 666.201 155.733C666.201 151.961 665.846 148.831 665.135 146.344C664.425 143.829 663.345 141.957 661.896 140.727C660.448 139.47 658.589 138.841 656.32 138.841ZM693.229 158.234C693.366 161.569 694.008 164.302 695.156 166.434C696.304 168.539 697.821 170.097 699.707 171.108C701.593 172.092 703.643 172.584 705.857 172.584C708.071 172.584 710.067 172.256 711.843 171.6C713.647 170.944 715.492 169.974 717.378 168.689L720.617 173.24C718.595 174.825 716.285 176.069 713.688 176.971C711.119 177.873 708.481 178.324 705.775 178.324C701.593 178.324 698.026 177.381 695.074 175.495C692.122 173.609 689.867 170.985 688.309 167.623C686.779 164.234 686.013 160.311 686.013 155.856C686.013 151.483 686.792 147.601 688.35 144.212C689.908 140.823 692.095 138.158 694.91 136.217C697.726 134.276 701.047 133.306 704.873 133.306C708.509 133.306 711.638 134.167 714.262 135.889C716.886 137.584 718.895 140.016 720.289 143.187C721.711 146.33 722.421 150.089 722.421 154.462C722.421 155.2 722.408 155.897 722.38 156.553C722.353 157.182 722.312 157.742 722.257 158.234H693.229ZM704.955 138.964C701.757 138.964 699.079 140.098 696.919 142.367C694.787 144.636 693.571 148.148 693.27 152.904H715.779C715.697 148.285 714.686 144.813 712.745 142.49C710.805 140.139 708.208 138.964 704.955 138.964ZM751.663 172.625C754.97 172.625 757.581 172.01 759.494 170.78C761.435 169.523 762.405 167.855 762.405 165.778C762.405 164.466 762.159 163.332 761.667 162.375C761.202 161.418 760.232 160.557 758.756 159.792C757.28 159.027 755.011 158.261 751.95 157.496C748.971 156.758 746.374 155.911 744.16 154.954C741.973 153.97 740.265 152.699 739.035 151.141C737.832 149.583 737.231 147.56 737.231 145.073C737.231 142.64 737.914 140.549 739.281 138.8C740.675 137.023 742.602 135.67 745.062 134.741C747.522 133.784 750.378 133.306 753.631 133.306C757.102 133.306 760.123 133.771 762.692 134.7C765.289 135.602 767.489 136.723 769.293 138.062L766.259 142.736C764.619 141.615 762.815 140.7 760.847 139.989C758.879 139.251 756.501 138.882 753.713 138.882C750.324 138.882 747.918 139.415 746.497 140.481C745.076 141.52 744.365 142.873 744.365 144.54C744.365 145.797 744.707 146.85 745.39 147.697C746.101 148.517 747.29 149.269 748.957 149.952C750.624 150.608 752.92 151.332 755.845 152.125C758.66 152.863 761.107 153.751 763.184 154.79C765.289 155.829 766.929 157.195 768.104 158.89C769.279 160.585 769.867 162.771 769.867 165.45C769.867 168.511 768.992 170.999 767.243 172.912C765.494 174.798 763.225 176.178 760.437 177.053C757.676 177.9 754.752 178.324 751.663 178.324C747.754 178.324 744.42 177.764 741.659 176.643C738.926 175.495 736.63 174.115 734.771 172.502L738.707 167.951C740.402 169.345 742.342 170.479 744.529 171.354C746.743 172.201 749.121 172.625 751.663 172.625ZM820.429 175.208C818.953 176.192 817.163 176.957 815.058 177.504C812.953 178.051 810.89 178.324 808.867 178.324C804.22 178.324 800.64 177.108 798.125 174.675C795.61 172.242 794.353 169.113 794.353 165.286V139.538H784.431V134.208H794.353V124.409L801.241 123.589V134.208H816.165L815.345 139.538H801.241V165.204C801.241 167.609 801.87 169.441 803.127 170.698C804.412 171.955 806.53 172.584 809.482 172.584C811.095 172.584 812.584 172.393 813.951 172.01C815.318 171.627 816.589 171.135 817.764 170.534L820.429 175.208ZM866.235 167.951C866.235 169.673 866.522 170.93 867.096 171.723C867.67 172.516 868.558 173.103 869.761 173.486L868.08 178.324C866.221 178.078 864.595 177.49 863.201 176.561C861.807 175.604 860.796 174.169 860.167 172.256C858.609 174.251 856.668 175.768 854.345 176.807C852.022 177.818 849.452 178.324 846.637 178.324C842.318 178.324 838.915 177.108 836.428 174.675C833.941 172.242 832.697 169.017 832.697 164.999C832.697 160.544 834.433 157.127 837.904 154.749C841.375 152.371 846.391 151.182 852.951 151.182H859.306V147.574C859.306 144.458 858.39 142.258 856.559 140.973C854.755 139.661 852.24 139.005 849.015 139.005C847.594 139.005 845.926 139.183 844.013 139.538C842.1 139.866 840.022 140.426 837.781 141.219L835.977 136.012C838.628 135.028 841.116 134.331 843.439 133.921C845.762 133.511 847.976 133.306 850.081 133.306C855.466 133.306 859.497 134.563 862.176 137.078C864.882 139.565 866.235 142.955 866.235 147.246V167.951ZM848.4 173.076C850.532 173.076 852.568 172.543 854.509 171.477C856.45 170.384 858.049 168.88 859.306 166.967V155.856H853.074C848.318 155.856 844.956 156.676 842.988 158.316C841.047 159.956 840.077 162.156 840.077 164.917C840.077 167.596 840.76 169.632 842.127 171.026C843.521 172.393 845.612 173.076 848.4 173.076ZM918.765 175.208C917.289 176.192 915.499 176.957 913.394 177.504C911.289 178.051 909.226 178.324 907.203 178.324C902.556 178.324 898.976 177.108 896.461 174.675C893.946 172.242 892.689 169.113 892.689 165.286V139.538H882.767V134.208H892.689V124.409L899.577 123.589V134.208H914.501L913.681 139.538H899.577V165.204C899.577 167.609 900.206 169.441 901.463 170.698C902.748 171.955 904.866 172.584 907.818 172.584C909.431 172.584 910.92 172.393 912.287 172.01C913.654 171.627 914.925 171.135 916.1 170.534L918.765 175.208ZM939.069 158.234C939.206 161.569 939.848 164.302 940.996 166.434C942.144 168.539 943.661 170.097 945.547 171.108C947.433 172.092 949.483 172.584 951.697 172.584C953.911 172.584 955.906 172.256 957.683 171.6C959.487 170.944 961.332 169.974 963.218 168.689L966.457 173.24C964.434 174.825 962.125 176.069 959.528 176.971C956.959 177.873 954.321 178.324 951.615 178.324C947.433 178.324 943.866 177.381 940.914 175.495C937.962 173.609 935.707 170.985 934.149 167.623C932.618 164.234 931.853 160.311 931.853 155.856C931.853 151.483 932.632 147.601 934.19 144.212C935.748 140.823 937.935 138.158 940.75 136.217C943.565 134.276 946.886 133.306 950.713 133.306C954.348 133.306 957.478 134.167 960.102 135.889C962.726 137.584 964.735 140.016 966.129 143.187C967.55 146.33 968.261 150.089 968.261 154.462C968.261 155.2 968.247 155.897 968.22 156.553C968.193 157.182 968.152 157.742 968.097 158.234H939.069ZM950.795 138.964C947.597 138.964 944.918 140.098 942.759 142.367C940.627 144.636 939.411 148.148 939.11 152.904H961.619C961.537 148.285 960.526 144.813 958.585 142.49C956.644 140.139 954.048 138.964 950.795 138.964ZM1051.3 133.306C1055.13 133.306 1058.18 134.235 1060.45 136.094C1062.74 137.953 1064.4 140.577 1065.41 143.966C1066.42 147.328 1066.92 151.264 1066.92 155.774C1066.92 160.12 1066.31 164.001 1065.08 167.418C1063.88 170.807 1062.05 173.472 1059.59 175.413C1057.13 177.354 1054.02 178.324 1050.28 178.324C1045.55 178.324 1041.75 176.657 1038.88 173.322V193.904L1031.99 194.765V134.208H1037.86L1038.43 140.235C1040.02 138.021 1041.9 136.313 1044.09 135.11C1046.3 133.907 1048.71 133.306 1051.3 133.306ZM1049.66 138.841C1047.29 138.841 1045.18 139.565 1043.35 141.014C1041.55 142.435 1040.06 144.021 1038.88 145.77V167.172C1040 168.839 1041.41 170.165 1043.1 171.149C1044.83 172.106 1046.71 172.584 1048.76 172.584C1052.34 172.584 1055.03 171.217 1056.84 168.484C1058.64 165.751 1059.54 161.5 1059.54 155.733C1059.54 151.961 1059.19 148.831 1058.48 146.344C1057.77 143.829 1056.69 141.957 1055.24 140.727C1053.79 139.47 1051.93 138.841 1049.66 138.841ZM1112.07 167.951C1112.07 169.673 1112.36 170.93 1112.94 171.723C1113.51 172.516 1114.4 173.103 1115.6 173.486L1113.92 178.324C1112.06 178.078 1110.43 177.49 1109.04 176.561C1107.65 175.604 1106.64 174.169 1106.01 172.256C1104.45 174.251 1102.51 175.768 1100.18 176.807C1097.86 177.818 1095.29 178.324 1092.48 178.324C1088.16 178.324 1084.76 177.108 1082.27 174.675C1079.78 172.242 1078.54 169.017 1078.54 164.999C1078.54 160.544 1080.27 157.127 1083.74 154.749C1087.22 152.371 1092.23 151.182 1098.79 151.182H1105.15V147.574C1105.15 144.458 1104.23 142.258 1102.4 140.973C1100.59 139.661 1098.08 139.005 1094.85 139.005C1093.43 139.005 1091.77 139.183 1089.85 139.538C1087.94 139.866 1085.86 140.426 1083.62 141.219L1081.82 136.012C1084.47 135.028 1086.96 134.331 1089.28 133.921C1091.6 133.511 1093.82 133.306 1095.92 133.306C1101.31 133.306 1105.34 134.563 1108.02 137.078C1110.72 139.565 1112.07 142.955 1112.07 147.246V167.951ZM1094.24 173.076C1096.37 173.076 1098.41 172.543 1100.35 171.477C1102.29 170.384 1103.89 168.88 1105.15 166.967V155.856H1098.91C1094.16 155.856 1090.8 156.676 1088.83 158.316C1086.89 159.956 1085.92 162.156 1085.92 164.917C1085.92 167.596 1086.6 169.632 1087.97 171.026C1089.36 172.393 1091.45 173.076 1094.24 173.076ZM1164.6 175.208C1163.13 176.192 1161.34 176.957 1159.23 177.504C1157.13 178.051 1155.07 178.324 1153.04 178.324C1148.4 178.324 1144.82 177.108 1142.3 174.675C1139.79 172.242 1138.53 169.113 1138.53 165.286V139.538H1128.61V134.208H1138.53V124.409L1145.42 123.589V134.208H1160.34L1159.52 139.538H1145.42V165.204C1145.42 167.609 1146.05 169.441 1147.3 170.698C1148.59 171.955 1150.71 172.584 1153.66 172.584C1155.27 172.584 1156.76 172.393 1158.13 172.01C1159.49 171.627 1160.76 171.135 1161.94 170.534L1164.6 175.208ZM1213.77 175.208C1212.3 176.192 1210.51 176.957 1208.4 177.504C1206.3 178.051 1204.23 178.324 1202.21 178.324C1197.56 178.324 1193.98 177.108 1191.47 174.675C1188.95 172.242 1187.7 169.113 1187.7 165.286V139.538H1177.77V134.208H1187.7V124.409L1194.58 123.589V134.208H1209.51L1208.69 139.538H1194.58V165.204C1194.58 167.609 1195.21 169.441 1196.47 170.698C1197.76 171.955 1199.87 172.584 1202.83 172.584C1204.44 172.584 1205.93 172.393 1207.29 172.01C1208.66 171.627 1209.93 171.135 1211.11 170.534L1213.77 175.208ZM1234.08 158.234C1234.21 161.569 1234.86 164.302 1236 166.434C1237.15 168.539 1238.67 170.097 1240.55 171.108C1242.44 172.092 1244.49 172.584 1246.7 172.584C1248.92 172.584 1250.91 172.256 1252.69 171.6C1254.49 170.944 1256.34 169.974 1258.23 168.689L1261.46 173.24C1259.44 174.825 1257.13 176.069 1254.54 176.971C1251.97 177.873 1249.33 178.324 1246.62 178.324C1242.44 178.324 1238.87 177.381 1235.92 175.495C1232.97 173.609 1230.71 170.985 1229.16 167.623C1227.63 164.234 1226.86 160.311 1226.86 155.856C1226.86 151.483 1227.64 147.601 1229.2 144.212C1230.76 140.823 1232.94 138.158 1235.76 136.217C1238.57 134.276 1241.89 133.306 1245.72 133.306C1249.36 133.306 1252.49 134.167 1255.11 135.889C1257.73 137.584 1259.74 140.016 1261.14 143.187C1262.56 146.33 1263.27 150.089 1263.27 154.462C1263.27 155.2 1263.26 155.897 1263.23 156.553C1263.2 157.182 1263.16 157.742 1263.1 158.234H1234.08ZM1245.8 138.964C1242.6 138.964 1239.93 140.098 1237.77 142.367C1235.63 144.636 1234.42 148.148 1234.12 152.904H1256.63C1256.54 148.285 1255.53 144.813 1253.59 142.49C1251.65 140.139 1249.06 138.964 1245.8 138.964ZM1278.24 177.381V172.092H1284.97V139.497H1278.24V134.208H1290.21L1291.49 144.417C1293.15 140.864 1295.18 138.117 1297.55 136.176C1299.93 134.235 1303.08 133.265 1306.98 133.265C1308.19 133.265 1309.25 133.361 1310.18 133.552C1311.14 133.716 1312.11 133.935 1313.09 134.208L1311.08 140.358C1310.18 140.112 1309.36 139.934 1308.62 139.825C1307.89 139.688 1307.04 139.62 1306.08 139.62C1302.77 139.62 1299.93 140.795 1297.55 143.146C1295.18 145.497 1293.28 149.05 1291.85 153.806V172.092H1300.63V177.381H1278.24ZM1306.45 148.804V139.415L1307.15 134.208H1313.09L1312.11 148.804H1306.45ZM1327 177.381V134.208H1332.86L1333.4 140.194C1335.15 137.98 1337.33 136.285 1339.96 135.11C1342.61 133.907 1345.18 133.306 1347.66 133.306C1351.9 133.306 1354.98 134.427 1356.89 136.668C1358.83 138.909 1359.8 142.025 1359.8 146.016V177.381H1352.91V151.1C1352.91 148.148 1352.75 145.77 1352.42 143.966C1352.09 142.135 1351.41 140.809 1350.37 139.989C1349.33 139.142 1347.72 138.718 1345.53 138.718C1343.84 138.718 1342.24 139.087 1340.74 139.825C1339.26 140.563 1337.93 141.492 1336.76 142.613C1335.61 143.706 1334.65 144.813 1333.89 145.934V177.381H1327Z" fill="url(#paint1_linear_1303_61)"/>
<path d="M809.506 263.848V301.568H821.683V307.021H789.293V301.568H802.618V269.301H789.703V263.848H809.506ZM804.012 243.635C805.543 243.635 806.759 244.1 807.661 245.029C808.59 245.958 809.055 247.093 809.055 248.432C809.055 249.826 808.59 251.001 807.661 251.958C806.759 252.887 805.543 253.352 804.012 253.352C802.563 253.352 801.374 252.887 800.445 251.958C799.516 251.001 799.051 249.826 799.051 248.432C799.051 247.093 799.516 245.958 800.445 245.029C801.374 244.1 802.563 243.635 804.012 243.635ZM836.821 307.021V263.848H842.684L843.217 269.834C844.966 267.62 847.153 265.925 849.777 264.75C852.428 263.547 854.998 262.946 857.485 262.946C861.722 262.946 864.797 264.067 866.71 266.308C868.651 268.549 869.621 271.665 869.621 275.656V307.021H862.733V280.74C862.733 277.788 862.569 275.41 862.241 273.606C861.913 271.775 861.23 270.449 860.191 269.629C859.152 268.782 857.54 268.358 855.353 268.358C853.658 268.358 852.059 268.727 850.556 269.465C849.08 270.203 847.754 271.132 846.579 272.253C845.431 273.346 844.474 274.453 843.709 275.574V307.021H836.821ZM970.991 266.39C970.991 269.205 970.376 271.665 969.146 273.77C967.943 275.875 966.303 277.61 964.226 278.977C962.149 280.344 959.812 281.341 957.215 281.97L973.943 307.021H965.415L949.999 282.79H942.373V307.021H935.239V250.564H949.753C956.723 250.564 961.998 251.903 965.579 254.582C969.187 257.233 970.991 261.169 970.991 266.39ZM963.365 266.39C963.365 262.755 962.326 260.158 960.249 258.6C958.172 257.015 954.946 256.222 950.573 256.222H942.373V277.214H950.573C954.618 277.214 957.762 276.394 960.003 274.754C962.244 273.087 963.365 270.299 963.365 266.39ZM991.213 263.848V294.434C991.213 297.277 991.801 299.327 992.976 300.584C994.151 301.841 995.983 302.47 998.47 302.47C1000.85 302.47 1003.09 301.8 1005.19 300.461C1007.33 299.094 1008.98 297.482 1010.15 295.623V263.848H1017.04V307.021H1011.18L1010.61 301.199C1008.91 303.386 1006.82 305.067 1004.33 306.242C1001.85 307.39 999.331 307.964 996.789 307.964C992.607 307.964 989.477 306.857 987.4 304.643C985.35 302.402 984.325 299.272 984.325 295.254V263.848H991.213ZM1048.17 302.265C1051.48 302.265 1054.09 301.65 1056 300.42C1057.94 299.163 1058.91 297.495 1058.91 295.418C1058.91 294.106 1058.67 292.972 1058.17 292.015C1057.71 291.058 1056.74 290.197 1055.26 289.432C1053.79 288.667 1051.52 287.901 1048.46 287.136C1045.48 286.398 1042.88 285.551 1040.67 284.594C1038.48 283.61 1036.77 282.339 1035.54 280.781C1034.34 279.223 1033.74 277.2 1033.74 274.713C1033.74 272.28 1034.42 270.189 1035.79 268.44C1037.18 266.663 1039.11 265.31 1041.57 264.381C1044.03 263.424 1046.89 262.946 1050.14 262.946C1053.61 262.946 1056.63 263.411 1059.2 264.34C1061.8 265.242 1064 266.363 1065.8 267.702L1062.77 272.376C1061.13 271.255 1059.32 270.34 1057.35 269.629C1055.39 268.891 1053.01 268.522 1050.22 268.522C1046.83 268.522 1044.43 269.055 1043 270.121C1041.58 271.16 1040.87 272.513 1040.87 274.18C1040.87 275.437 1041.21 276.49 1041.9 277.337C1042.61 278.157 1043.8 278.909 1045.46 279.592C1047.13 280.248 1049.43 280.972 1052.35 281.765C1055.17 282.503 1057.61 283.391 1059.69 284.43C1061.8 285.469 1063.44 286.835 1064.61 288.53C1065.79 290.225 1066.37 292.411 1066.37 295.09C1066.37 298.151 1065.5 300.639 1063.75 302.552C1062 304.438 1059.73 305.818 1056.94 306.693C1054.18 307.54 1051.26 307.964 1048.17 307.964C1044.26 307.964 1040.93 307.404 1038.17 306.283C1035.43 305.135 1033.14 303.755 1031.28 302.142L1035.21 297.591C1036.91 298.985 1038.85 300.119 1041.04 300.994C1043.25 301.841 1045.63 302.265 1048.17 302.265ZM1116.94 304.848C1115.46 305.832 1113.67 306.597 1111.57 307.144C1109.46 307.691 1107.4 307.964 1105.37 307.964C1100.73 307.964 1097.15 306.748 1094.63 304.315C1092.12 301.882 1090.86 298.753 1090.86 294.926V269.178H1080.94V263.848H1090.86V254.049L1097.75 253.229V263.848H1112.67L1111.85 269.178H1097.75V294.844C1097.75 297.249 1098.38 299.081 1099.63 300.338C1100.92 301.595 1103.04 302.224 1105.99 302.224C1107.6 302.224 1109.09 302.033 1110.46 301.65C1111.83 301.267 1113.1 300.775 1114.27 300.174L1116.94 304.848Z" fill="url(#paint2_linear_1303_61)"/>
<path d="M1704.21 716.975L1688.99 707.545C1688.86 706.061 1688.71 704.581 1688.56 703.107L1701.66 690.903C1702.99 689.662 1703.59 687.824 1703.23 686.049C1702.88 684.264 1701.63 682.794 1699.92 682.166L1683.18 675.925C1682.76 674.476 1682.32 673.037 1681.87 671.592L1692.3 657.099C1693.37 655.626 1693.59 653.709 1692.89 652.037C1692.2 650.363 1690.68 649.163 1688.91 648.869L1671.26 645.998C1670.57 644.66 1669.86 643.342 1669.14 642.045L1676.56 625.75C1677.32 624.093 1677.16 622.179 1676.15 620.654C1675.14 619.142 1673.43 618.258 1671.6 618.327L1653.68 618.951C1652.75 617.793 1651.81 616.646 1650.85 615.519L1654.98 598.08C1655.39 596.308 1654.87 594.439 1653.58 593.157C1652.3 591.874 1650.44 591.343 1648.66 591.759L1631.22 595.885C1630.09 594.928 1628.94 593.982 1627.78 593.056L1628.41 575.132C1628.47 573.318 1627.59 571.595 1626.08 570.59C1624.56 569.577 1622.65 569.425 1620.98 570.177L1604.72 577.597C1603.41 576.875 1602.09 576.161 1600.77 575.471L1597.89 557.824C1597.6 556.035 1596.4 554.516 1594.72 553.837C1593.05 553.14 1591.12 553.365 1589.66 554.426L1575.17 564.862C1573.74 564.408 1572.3 563.971 1570.87 563.555L1564.63 546.809C1563.99 545.103 1562.52 543.852 1560.75 543.498C1558.96 543.148 1557.14 543.741 1555.89 545.065L1543.69 558.171C1542.21 558.008 1540.73 557.859 1539.25 557.737L1529.82 542.482C1528.87 540.94 1527.18 540 1525.35 540C1523.52 540 1521.85 540.94 1520.91 542.482L1511.48 557.737C1510 557.859 1508.51 558.008 1507.04 558.171L1494.84 545.065C1493.6 543.741 1491.76 543.148 1489.98 543.498C1488.2 543.855 1486.73 545.103 1486.1 546.809L1479.86 563.555C1478.41 563.971 1476.98 564.411 1475.56 564.862L1461.07 554.426C1459.59 553.362 1457.67 553.137 1456.01 553.837C1454.33 554.53 1453.13 556.049 1452.84 557.824L1449.96 575.471C1448.63 576.161 1447.31 576.872 1446.01 577.597L1429.75 570.177C1428.09 569.421 1426.18 569.577 1424.65 570.59C1423.14 571.595 1422.25 573.318 1422.32 575.132L1422.95 593.056C1421.79 593.982 1420.64 594.928 1419.51 595.885L1402.07 591.759C1400.3 591.347 1398.43 591.874 1397.15 593.157C1395.86 594.443 1395.33 596.298 1395.75 598.08L1399.84 615.519C1398.89 616.649 1397.94 617.793 1397.02 618.951L1379.09 618.327C1377.29 618.275 1375.56 619.142 1374.55 620.654C1373.54 622.158 1373.39 624.086 1374.14 625.75L1381.56 642.045C1380.84 643.353 1380.12 644.67 1379.43 645.998L1361.79 648.869C1359.99 649.16 1358.48 650.359 1357.8 652.037C1357.1 653.719 1357.33 655.643 1358.39 657.099L1368.82 671.592C1368.37 673.024 1367.93 674.462 1367.51 675.925L1350.77 682.166C1349.07 682.801 1347.82 684.271 1347.46 686.049C1347.11 687.831 1347.7 689.655 1349.03 690.903L1362.14 703.107C1361.97 704.581 1361.83 706.064 1361.7 707.545L1346.48 716.975C1344.94 717.929 1344 719.614 1344 721.448C1344 723.282 1344.94 724.949 1346.48 725.886L1361.7 735.316C1361.83 736.8 1361.97 738.28 1362.14 739.754L1349.03 751.958C1347.7 753.195 1347.11 755.033 1347.46 756.812C1347.82 758.597 1349.07 760.064 1350.77 760.695L1367.51 766.935C1367.93 768.385 1368.37 769.823 1368.82 771.269L1358.39 785.761C1357.33 787.238 1357.1 789.156 1357.8 790.823C1358.5 792.505 1360.01 793.704 1361.82 793.992L1379.47 796.863C1380.16 798.201 1380.87 799.519 1381.59 800.815L1374.17 817.076C1373.42 818.73 1373.57 820.647 1374.59 822.172C1375.6 823.687 1377.32 824.571 1379.13 824.499L1397.02 823.871C1397.95 825.036 1398.89 826.177 1399.85 827.31L1395.76 844.75C1395.34 846.518 1395.86 848.355 1397.15 849.638C1398.43 850.931 1400.29 851.448 1402.08 851.032L1419.52 846.941C1420.65 847.905 1421.8 848.841 1422.95 849.763L1422.33 867.688C1422.26 869.501 1423.15 871.224 1424.66 872.229C1426.16 873.238 1428.09 873.391 1429.75 872.635L1446.01 865.216C1447.33 865.944 1448.64 866.651 1449.97 867.341L1452.84 884.988C1453.14 886.784 1454.33 888.303 1456.01 889.01C1457.69 889.707 1459.62 889.482 1461.07 888.424L1475.57 877.988C1477 878.442 1478.44 878.886 1479.9 879.302L1486.14 896.048C1486.78 897.747 1488.25 899.005 1490.03 899.352C1491.81 899.713 1493.63 899.116 1494.88 897.785L1507.08 884.68C1508.56 884.85 1510.04 884.992 1511.52 885.123L1520.95 900.344C1521.9 901.88 1523.59 902.826 1525.39 902.826C1527.19 902.826 1528.89 901.883 1529.86 900.344L1539.29 885.123C1540.78 884.992 1542.26 884.85 1543.73 884.68L1555.93 897.785C1557.17 899.116 1559.01 899.713 1560.79 899.352C1562.57 899.002 1564.04 897.747 1564.67 896.048L1570.91 879.302C1572.36 878.886 1573.8 878.442 1575.24 877.988L1589.74 888.424C1591.21 889.482 1593.13 889.707 1594.8 889.01C1596.48 888.32 1597.68 886.798 1597.97 884.988L1600.85 867.341C1602.18 866.651 1603.49 865.933 1604.8 865.216L1621.06 872.635C1622.71 873.391 1624.63 873.238 1626.16 872.229C1627.67 871.217 1628.55 869.501 1628.48 867.688L1627.86 849.763C1629.02 848.837 1630.16 847.905 1631.29 846.941L1648.73 851.032C1650.5 851.448 1652.37 850.931 1653.66 849.638C1654.95 848.352 1655.47 846.504 1655.05 844.75L1650.96 827.31C1651.92 826.177 1652.86 825.036 1653.78 823.871L1671.71 824.499C1673.52 824.571 1675.25 823.687 1676.25 822.172C1677.26 820.661 1677.42 818.736 1676.66 817.076L1669.24 800.815C1669.96 799.501 1670.68 798.184 1671.36 796.863L1689.01 793.992C1690.81 793.704 1692.32 792.505 1693 790.823C1693.69 789.149 1693.47 787.218 1692.41 785.761L1681.97 771.269C1682.42 769.837 1682.86 768.398 1683.28 766.935L1700.03 760.695C1701.73 760.057 1702.99 758.59 1703.33 756.812C1703.69 755.03 1703.1 753.206 1701.76 751.958L1688.66 739.754C1688.82 738.28 1688.96 736.796 1689.09 735.316L1704.31 725.886C1705.85 724.936 1706.8 723.247 1706.8 721.448C1706.8 719.648 1705.86 717.946 1704.32 716.975H1704.21ZM1602.28 843.522C1596.45 842.267 1592.78 836.519 1594.03 830.694C1595.27 824.87 1600.99 821.16 1606.82 822.408C1612.64 823.653 1616.35 829.411 1615.11 835.236C1613.86 841.061 1608.14 844.77 1602.31 843.522H1602.28ZM1597.11 808.505C1591.81 807.368 1586.57 810.745 1585.46 816.063L1580.05 841.303C1563.38 848.862 1544.69 853.091 1525.27 853.091C1505.3 853.091 1486.44 848.688 1469.45 840.783L1464.05 815.543C1462.91 810.239 1457.7 806.841 1452.4 807.985L1430.1 812.77C1425.98 808.505 1422.13 803.963 1418.59 799.179H1527.11C1528.34 799.179 1529.16 798.957 1529.16 797.841V759.356C1529.16 758.24 1528.34 758.018 1527.11 758.018H1495.39V733.714H1529.68C1532.81 733.714 1546.42 734.609 1550.76 752.02C1552.12 757.359 1555.13 774.764 1557.17 780.346C1559.21 786.587 1567.5 799.068 1576.34 799.068H1630.43C1631.04 799.068 1631.7 798.999 1632.39 798.874C1628.64 803.97 1624.52 808.79 1620.11 813.297L1597.3 808.408L1597.11 808.505ZM1446.99 843.002C1441.16 844.257 1435.44 840.548 1434.19 834.716C1432.95 828.891 1436.65 823.136 1442.48 821.888C1448.31 820.643 1454.03 824.353 1455.28 830.174C1456.52 835.999 1452.82 841.754 1446.99 843.002ZM1405.73 676.237C1408.14 681.681 1405.69 688.06 1400.25 690.487C1394.81 692.904 1388.46 690.445 1386.04 685.009C1383.61 679.573 1386.08 673.186 1391.52 670.76C1396.96 668.346 1403.3 670.801 1405.73 676.237ZM1393.08 706.193L1416.31 695.861C1421.26 693.659 1423.52 687.852 1421.3 682.894L1416.51 672.077H1435.31V756.673H1397.51C1394.22 745.093 1392.45 732.889 1392.45 720.269C1392.45 715.45 1392.71 710.7 1393.21 706.019L1393.08 706.193ZM1495.01 697.976V673.013H1539.73C1542.04 673.013 1556.06 675.686 1556.06 686.153C1556.06 694.855 1545.31 697.976 1536.47 697.976H1494.87H1495.01ZM1657.61 720.442C1657.61 723.757 1657.49 727.03 1657.25 730.289H1643.62C1642.26 730.289 1641.71 731.183 1641.71 732.518V738.759C1641.71 753.459 1633.43 756.683 1626.15 757.481C1619.21 758.261 1611.55 754.582 1610.61 750.339C1606.52 727.352 1599.73 722.464 1588.98 713.935C1602.33 705.475 1616.19 692.959 1616.19 676.144C1616.19 658.081 1603.82 646.709 1595.39 641.127C1583.53 633.326 1570.43 631.766 1566.89 631.766H1426.13C1445.23 610.478 1471.2 595.362 1500.33 589.814L1516.93 607.219C1520.68 611.137 1526.88 611.31 1530.84 607.538L1549.42 589.787C1588.25 597.033 1621.19 621.233 1640.26 654.62L1627.53 683.328C1625.34 688.285 1627.58 694.11 1632.52 696.294L1657 707.181C1657.42 711.515 1657.65 715.918 1657.65 720.356L1657.61 720.442ZM1516.85 575.173C1521.15 571.047 1527.98 571.221 1532.07 575.523C1536.16 579.822 1536.02 586.652 1531.71 590.778C1527.41 594.904 1520.58 594.731 1516.49 590.425C1512.4 586.126 1512.54 579.295 1516.85 575.17V575.173ZM1643.05 676.758C1645.46 671.314 1651.82 668.853 1657.27 671.28C1662.71 673.693 1665.17 680.086 1662.74 685.529C1660.33 690.972 1653.97 693.434 1648.53 691.007C1643.08 688.594 1640.62 682.201 1643.05 676.758Z" fill="url(#paint3_linear_1303_61)"/>
<path d="M394.039 593.906C417.439 597.546 441.359 597.546 464.759 593.906C455.919 576.746 444.479 565.826 429.399 565.826C412.239 565.826 401.319 579.866 394.039 593.906Z" fill="url(#paint4_linear_1303_61)"/>
<path d="M367 685.426H315C316.56 717.146 331.12 745.746 353.48 765.506C362.32 762.386 370.64 760.306 379.48 758.226C371.68 737.426 367.52 710.906 367 685.426Z" fill="url(#paint5_linear_1303_61)"/>
<path d="M367 675.026C367.52 647.466 371.68 621.986 379.48 601.706C370.64 599.626 362.32 597.546 353.48 594.426C331.12 614.706 316.56 643.306 315 675.026H367Z" fill="url(#paint6_linear_1303_61)"/>
<path d="M461.125 570.506C466.325 576.226 471.525 584.026 475.165 592.346C481.925 590.786 488.685 589.226 495.445 587.146C485.045 579.346 473.605 574.146 461.125 570.506Z" fill="url(#paint7_linear_1303_61)"/>
<path d="M429.398 607.426C416.398 607.426 402.878 606.386 389.878 603.786C382.078 623.026 377.918 647.986 377.398 675.026H481.398C480.878 649.026 476.718 623.546 468.918 603.786C455.918 606.386 442.398 607.426 429.398 607.426Z" fill="url(#paint8_linear_1303_61)"/>
<path d="M505.328 594.947C496.488 598.067 488.168 600.147 479.328 602.227C487.128 623.027 491.288 649.547 491.808 675.027H543.808C542.248 643.307 527.688 614.707 505.328 594.947Z" fill="url(#paint9_linear_1303_61)"/>
<path d="M383.647 768.626C376.887 770.186 370.127 771.746 363.367 773.826C373.767 781.106 385.207 786.826 397.687 790.466C392.487 784.226 387.807 776.946 383.647 768.626Z" fill="url(#paint10_linear_1303_61)"/>
<path d="M383.647 591.826C387.807 583.506 392.487 576.226 397.687 570.506C385.207 574.146 373.767 579.866 363.367 587.146C370.127 588.706 376.887 590.786 383.647 591.826Z" fill="url(#paint11_linear_1303_61)"/>
<path d="M450.199 764.466C431.479 762.906 412.759 763.426 394.039 766.546C402.359 783.706 414.319 794.626 429.399 794.626C437.719 794.626 444.479 791.506 450.199 786.306V764.466Z" fill="url(#paint12_linear_1303_61)"/>
<path d="M450.198 701.026H480.358C480.878 695.826 480.878 690.626 480.878 685.426H377.398C377.918 711.426 382.078 736.906 389.878 756.666C410.158 753.026 429.918 752.506 450.198 754.066V701.026Z" fill="url(#paint13_linear_1303_61)"/>
<path d="M541.713 701.026C542.753 695.826 543.273 690.626 543.273 685.426H491.793C491.793 690.626 491.273 695.826 491.273 701.026H541.713Z" fill="url(#paint14_linear_1303_61)"/>
<path d="M460.602 711.426V773.826H627.002V711.426H460.602ZM481.402 763.426H471.002V721.826H481.402V763.426ZM502.202 763.426H491.802V721.826H502.202V763.426ZM523.002 763.426H512.602V721.826H523.002V763.426ZM575.002 732.226H564.602V721.826H575.002V732.226ZM595.802 732.226H585.402V721.826H595.802V732.226ZM616.602 732.226H606.202V721.826H616.602V732.226Z" fill="url(#paint15_linear_1303_61)"/>
<path d="M627 846.626V784.226H460.6V846.626H538.6V867.426H315V877.826H627V867.426H549V846.626H627ZM606.2 794.626H616.6V805.026H606.2V794.626ZM585.4 794.626H595.8V805.026H585.4V794.626ZM564.6 794.626H575V805.026H564.6V794.626ZM481.4 836.226H471V794.626H481.4V836.226ZM502.2 836.226H491.8V794.626H502.2V836.226ZM523 836.226H512.6V794.626H523V836.226Z" fill="url(#paint16_linear_1303_61)"/>
</g>
<defs>
<linearGradient id="paint0_linear_1303_61" x1="960" y1="0" x2="960" y2="1080" gradientUnits="userSpaceOnUse">
<stop stop-color="#323232"/>
<stop offset="1"/>
</linearGradient>
<linearGradient id="paint1_linear_1303_61" x1="534.155" y1="204.651" x2="1378.52" y2="204.651" gradientUnits="userSpaceOnUse">
<stop stop-color="#0095D5"/>
<stop offset="0.464053" stop-color="#7272E1"/>
<stop offset="1" stop-color="#7E6EE3"/>
</linearGradient>
<linearGradient id="paint2_linear_1303_61" x1="951.5" y1="226.021" x2="951.5" y2="334.021" gradientUnits="userSpaceOnUse">
<stop stop-color="#B32BD5"/>
<stop offset="1" stop-color="#DA3C8E"/>
</linearGradient>
<linearGradient id="paint3_linear_1303_61" x1="1525.4" y1="540" x2="1525.4" y2="902.826" gradientUnits="userSpaceOnUse">
<stop stop-color="#B32BD5"/>
<stop offset="1" stop-color="#DA3C8E"/>
</linearGradient>
<linearGradient id="paint4_linear_1303_61" x1="394.221" y1="596.713" x2="465.649" y2="596.713" gradientUnits="userSpaceOnUse">
<stop stop-color="#0095D5"/>
<stop offset="0.464053" stop-color="#7272E1"/>
<stop offset="1" stop-color="#7E6EE3"/>
</linearGradient>
<linearGradient id="paint5_linear_1303_61" x1="315.166" y1="765.706" x2="380.291" y2="765.706" gradientUnits="userSpaceOnUse">
<stop stop-color="#0095D5"/>
<stop offset="0.464053" stop-color="#7272E1"/>
<stop offset="1" stop-color="#7E6EE3"/>
</linearGradient>
<linearGradient id="paint6_linear_1303_61" x1="315.166" y1="675.228" x2="380.291" y2="675.228" gradientUnits="userSpaceOnUse">
<stop stop-color="#0095D5"/>
<stop offset="0.464053" stop-color="#7272E1"/>
<stop offset="1" stop-color="#7E6EE3"/>
</linearGradient>
<linearGradient id="paint7_linear_1303_61" x1="461.213" y1="592.4" x2="495.877" y2="592.4" gradientUnits="userSpaceOnUse">
<stop stop-color="#0095D5"/>
<stop offset="0.464053" stop-color="#7272E1"/>
<stop offset="1" stop-color="#7E6EE3"/>
</linearGradient>
<linearGradient id="paint8_linear_1303_61" x1="377.667" y1="675.204" x2="482.707" y2="675.204" gradientUnits="userSpaceOnUse">
<stop stop-color="#0095D5"/>
<stop offset="0.464053" stop-color="#7272E1"/>
<stop offset="1" stop-color="#7E6EE3"/>
</linearGradient>
<linearGradient id="paint9_linear_1303_61" x1="479.494" y1="675.227" x2="544.619" y2="675.227" gradientUnits="userSpaceOnUse">
<stop stop-color="#0095D5"/>
<stop offset="0.464053" stop-color="#7272E1"/>
<stop offset="1" stop-color="#7E6EE3"/>
</linearGradient>
<linearGradient id="paint10_linear_1303_61" x1="363.456" y1="790.521" x2="398.119" y2="790.521" gradientUnits="userSpaceOnUse">
<stop stop-color="#0095D5"/>
<stop offset="0.464053" stop-color="#7272E1"/>
<stop offset="1" stop-color="#7E6EE3"/>
</linearGradient>
<linearGradient id="paint11_linear_1303_61" x1="363.456" y1="591.879" x2="398.119" y2="591.879" gradientUnits="userSpaceOnUse">
<stop stop-color="#0095D5"/>
<stop offset="0.464053" stop-color="#7272E1"/>
<stop offset="1" stop-color="#7E6EE3"/>
</linearGradient>
<linearGradient id="paint12_linear_1303_61" x1="394.184" y1="794.704" x2="450.905" y2="794.704" gradientUnits="userSpaceOnUse">
<stop stop-color="#0095D5"/>
<stop offset="0.464053" stop-color="#7272E1"/>
<stop offset="1" stop-color="#7E6EE3"/>
</linearGradient>
<linearGradient id="paint13_linear_1303_61" x1="377.665" y1="756.844" x2="482.18" y2="756.844" gradientUnits="userSpaceOnUse">
<stop stop-color="#0095D5"/>
<stop offset="0.464053" stop-color="#7272E1"/>
<stop offset="1" stop-color="#7E6EE3"/>
</linearGradient>
<linearGradient id="paint14_linear_1303_61" x1="491.408" y1="701.065" x2="543.927" y2="701.065" gradientUnits="userSpaceOnUse">
<stop stop-color="#0095D5"/>
<stop offset="0.464053" stop-color="#7272E1"/>
<stop offset="1" stop-color="#7E6EE3"/>
</linearGradient>
<linearGradient id="paint15_linear_1303_61" x1="461.031" y1="773.982" x2="629.095" y2="773.982" gradientUnits="userSpaceOnUse">
<stop stop-color="#0095D5"/>
<stop offset="0.464053" stop-color="#7272E1"/>
<stop offset="1" stop-color="#7E6EE3"/>
</linearGradient>
<linearGradient id="paint16_linear_1303_61" x1="315.804" y1="878.06" x2="630.924" y2="878.06" gradientUnits="userSpaceOnUse">
<stop stop-color="#0095D5"/>
<stop offset="0.464053" stop-color="#7272E1"/>
<stop offset="1" stop-color="#7E6EE3"/>
</linearGradient>
<clipPath id="clip0_1303_61">
<rect width="1920" height="1080" fill="white"/>
</clipPath>
</defs>
</svg>
