<svg width="654" height="654" viewBox="0 0 654 654" fill="none" xmlns="http://www.w3.org/2000/svg">
<path d="M650.88 244.619C645.276 227.905 630.989 215.873 613.598 213.217L443.999 187.149L369.056 26.9893C361.259 10.344 345.034 0 326.67 0C308.306 0 292.082 10.3437 284.31 26.9787L209.228 187.232L39.7478 213.196C22.3625 215.863 8.07582 227.893 2.46649 244.608C-3.16378 261.357 1.00809 279.608 13.3154 292.233L137.455 420.009L108.377 598.863C106.168 612.488 109.97 626.275 118.835 636.712C132.939 653.311 158.075 658.087 177.215 647.41L326.708 564.593L476.095 647.41C483.09 651.285 490.929 653.337 498.767 653.337C512.507 653.337 525.517 647.274 534.497 636.712C543.361 626.274 547.168 612.477 544.955 598.873L515.924 419.806L639.998 292.249C652.331 279.619 656.498 261.364 650.872 244.618L650.88 244.619Z" fill="url(#paint0_linear_643_3)"/>
<defs>
<linearGradient id="paint0_linear_643_3" x1="91" y1="75" x2="531" y2="653" gradientUnits="userSpaceOnUse">
<stop stop-color="#FFDE69"/>
<stop offset="1" stop-color="#C69B04"/>
</linearGradient>
</defs>
</svg>
