<svg width="1920" height="1080" viewBox="0 0 1920 1080" fill="none" xmlns="http://www.w3.org/2000/svg">
<g id="ubuntu">
<g id="Rectangle">
<rect width="1920" height="1080" fill="#323232"/>
<rect width="1920" height="1080" fill="url(#paint0_linear)" fill-opacity="0.15"/>
</g>
<path id="Java vs Kotlin" d="M689.057 310.2C689.057 317.6 687.557 324.3 684.557 330.3C681.557 336.2 676.957 340.9 670.757 344.4C664.657 347.8 656.857 349.5 647.357 349.5C634.057 349.5 623.907 345.9 616.907 338.7C610.007 331.4 606.557 321.8 606.557 309.9V240.9H620.057V310.35C620.057 319.05 622.357 325.8 626.957 330.6C631.657 335.4 638.707 337.8 648.107 337.8C657.807 337.8 664.807 335.25 669.107 330.15C673.507 324.95 675.707 318.3 675.707 310.2V240.9H689.057V310.2ZM728.723 261.75C728.723 265.15 728.623 268.35 728.423 271.35C728.323 274.25 728.173 276.55 727.973 278.25H728.723C731.023 274.85 734.173 272 738.173 269.7C742.173 267.4 747.323 266.25 753.623 266.25C763.623 266.25 771.623 269.75 777.623 276.75C783.723 283.65 786.773 294 786.773 307.8C786.773 321.6 783.723 332 777.623 339C771.523 346 763.523 349.5 753.623 349.5C747.323 349.5 742.173 348.35 738.173 346.05C734.173 343.75 731.023 341 728.723 337.8H727.673L724.973 348H715.523V234H728.723V261.75ZM751.373 277.2C742.873 277.2 736.973 279.65 733.673 284.55C730.373 289.45 728.723 297.05 728.723 307.35V307.95C728.723 317.85 730.323 325.45 733.523 330.75C736.823 335.95 742.873 338.55 751.673 338.55C758.873 338.55 764.223 335.9 767.723 330.6C771.323 325.3 773.123 317.65 773.123 307.65C773.123 287.35 765.873 277.2 751.373 277.2ZM875.009 267.6V348H864.209L862.259 337.35H861.659C859.059 341.55 855.459 344.65 850.859 346.65C846.259 348.55 841.359 349.5 836.159 349.5C826.459 349.5 819.159 347.2 814.259 342.6C809.359 337.9 806.909 330.45 806.909 320.25V267.6H820.259V319.35C820.259 332.15 826.209 338.55 838.109 338.55C847.009 338.55 853.159 336.05 856.559 331.05C860.059 326.05 861.809 318.85 861.809 309.45V267.6H875.009ZM939.233 266.1C948.833 266.1 956.083 268.45 960.983 273.15C965.883 277.75 968.333 285.25 968.333 295.65V348H955.283V296.55C955.283 283.65 949.283 277.2 937.283 277.2C928.383 277.2 922.233 279.7 918.833 284.7C915.433 289.7 913.733 296.9 913.733 306.3V348H900.533V267.6H911.183L913.133 278.55H913.883C916.483 274.35 920.083 271.25 924.683 269.25C929.283 267.15 934.133 266.1 939.233 266.1ZM1020.11 338.7C1022.11 338.7 1024.16 338.55 1026.26 338.25C1028.36 337.85 1030.06 337.45 1031.36 337.05V347.1C1029.96 347.8 1027.96 348.35 1025.36 348.75C1022.76 349.25 1020.26 349.5 1017.86 349.5C1013.66 349.5 1009.76 348.8 1006.16 347.4C1002.66 345.9 999.808 343.35 997.608 339.75C995.408 336.15 994.308 331.1 994.308 324.6V277.8H982.908V271.5L994.458 266.25L999.708 249.15H1007.51V267.6H1030.76V277.8H1007.51V324.3C1007.51 329.2 1008.66 332.85 1010.96 335.25C1013.36 337.55 1016.41 338.7 1020.11 338.7ZM1114.66 267.6V348H1103.86L1101.91 337.35H1101.31C1098.71 341.55 1095.11 344.65 1090.51 346.65C1085.91 348.55 1081.01 349.5 1075.81 349.5C1066.11 349.5 1058.81 347.2 1053.91 342.6C1049.01 337.9 1046.56 330.45 1046.56 320.25V267.6H1059.91V319.35C1059.91 332.15 1065.86 338.55 1077.76 338.55C1086.66 338.55 1092.81 336.05 1096.21 331.05C1099.71 326.05 1101.46 318.85 1101.46 309.45V267.6H1114.66ZM1262.4 310.2C1262.4 317.6 1260.9 324.3 1257.9 330.3C1254.9 336.2 1250.3 340.9 1244.1 344.4C1238 347.8 1230.2 349.5 1220.7 349.5C1207.4 349.5 1197.25 345.9 1190.25 338.7C1183.35 331.4 1179.9 321.8 1179.9 309.9V240.9H1193.4V310.35C1193.4 319.05 1195.7 325.8 1200.3 330.6C1205 335.4 1212.05 337.8 1221.45 337.8C1231.15 337.8 1238.15 335.25 1242.45 330.15C1246.85 324.95 1249.05 318.3 1249.05 310.2V240.9H1262.4V310.2ZM1320.81 348H1282.11V340.2L1294.71 337.35V251.7L1282.11 248.7V240.9H1320.81V248.7L1308.21 251.7V337.35L1320.81 340.2V348Z" fill="#61DAFB"/>
<path id="Android development" d="M580.885 179H573.685V152.36H544.405V179H537.205V121.88H544.405V146.04H573.685V121.88H580.885V179ZM632.822 157.48C632.822 164.573 631.009 170.067 627.382 173.96C623.809 177.853 618.956 179.8 612.822 179.8C609.036 179.8 605.649 178.947 602.662 177.24C599.729 175.48 597.409 172.947 595.702 169.64C593.996 166.28 593.142 162.227 593.142 157.48C593.142 150.387 594.929 144.92 598.502 141.08C602.076 137.24 606.929 135.32 613.062 135.32C616.956 135.32 620.369 136.2 623.302 137.96C626.289 139.667 628.609 142.173 630.262 145.48C631.969 148.733 632.822 152.733 632.822 157.48ZM600.422 157.48C600.422 162.547 601.409 166.573 603.382 169.56C605.409 172.493 608.609 173.96 612.982 173.96C617.302 173.96 620.476 172.493 622.502 169.56C624.529 166.573 625.542 162.547 625.542 157.48C625.542 152.413 624.529 148.44 622.502 145.56C620.476 142.68 617.276 141.24 612.902 141.24C608.529 141.24 605.356 142.68 603.382 145.56C601.409 148.44 600.422 152.413 600.422 157.48ZM670.097 154.76C669.404 152.573 668.791 150.44 668.257 148.36C667.777 146.227 667.404 144.573 667.137 143.4H666.817C666.604 144.573 666.257 146.227 665.777 148.36C665.297 150.44 664.684 152.6 663.937 154.84L656.257 178.92H648.257L636.497 136.04H643.777L649.697 158.92C650.284 161.213 650.844 163.533 651.377 165.88C651.911 168.227 652.284 170.173 652.497 171.72H652.817C653.031 170.813 653.271 169.693 653.537 168.36C653.857 167.027 654.204 165.64 654.577 164.2C654.951 162.707 655.324 161.373 655.697 160.2L663.297 136.04H670.977L678.337 160.2C678.924 162.013 679.484 163.987 680.017 166.12C680.604 168.253 681.004 170.093 681.217 171.64H681.537C681.697 170.307 682.044 168.467 682.577 166.12C683.164 163.773 683.777 161.373 684.417 158.92L690.417 136.04H697.617L685.697 178.92H677.457L670.097 154.76ZM740.409 174.04C741.476 174.04 742.569 173.96 743.689 173.8C744.809 173.587 745.716 173.373 746.409 173.16V178.52C745.662 178.893 744.596 179.187 743.209 179.4C741.822 179.667 740.489 179.8 739.209 179.8C736.969 179.8 734.889 179.427 732.969 178.68C731.102 177.88 729.582 176.52 728.409 174.6C727.236 172.68 726.649 169.987 726.649 166.52V141.56H720.569V138.2L726.729 135.4L729.529 126.28H733.689V136.12H746.089V141.56H733.689V166.36C733.689 168.973 734.302 170.92 735.529 172.2C736.809 173.427 738.436 174.04 740.409 174.04ZM792.275 157.48C792.275 164.573 790.462 170.067 786.835 173.96C783.262 177.853 778.409 179.8 772.275 179.8C768.489 179.8 765.102 178.947 762.115 177.24C759.182 175.48 756.862 172.947 755.155 169.64C753.449 166.28 752.595 162.227 752.595 157.48C752.595 150.387 754.382 144.92 757.955 141.08C761.529 137.24 766.382 135.32 772.515 135.32C776.409 135.32 779.822 136.2 782.755 137.96C785.742 139.667 788.062 142.173 789.715 145.48C791.422 148.733 792.275 152.733 792.275 157.48ZM759.875 157.48C759.875 162.547 760.862 166.573 762.835 169.56C764.862 172.493 768.062 173.96 772.435 173.96C776.755 173.96 779.929 172.493 781.955 169.56C783.982 166.573 784.995 162.547 784.995 157.48C784.995 152.413 783.982 148.44 781.955 145.56C779.929 142.68 776.729 141.24 772.355 141.24C767.982 141.24 764.809 142.68 762.835 145.56C760.862 148.44 759.875 152.413 759.875 157.48ZM841.414 179.8C837.627 179.8 834.241 179.027 831.254 177.48C828.321 175.933 826.001 173.533 824.294 170.28C822.641 167.027 821.814 162.867 821.814 157.8C821.814 152.52 822.694 148.227 824.454 144.92C826.214 141.613 828.587 139.187 831.574 137.64C834.614 136.093 838.054 135.32 841.894 135.32C844.081 135.32 846.187 135.56 848.214 136.04C850.241 136.467 851.894 137 853.174 137.64L851.014 143.48C849.734 143 848.241 142.547 846.534 142.12C844.827 141.693 843.227 141.48 841.734 141.48C833.307 141.48 829.094 146.893 829.094 157.72C829.094 162.893 830.107 166.867 832.134 169.64C834.214 172.36 837.281 173.72 841.334 173.72C843.681 173.72 845.734 173.48 847.494 173C849.307 172.52 850.961 171.933 852.454 171.24V177.48C851.014 178.227 849.414 178.787 847.654 179.16C845.947 179.587 843.867 179.8 841.414 179.8ZM898.492 136.12V179H892.732L891.692 173.32H891.372C889.985 175.56 888.065 177.213 885.612 178.28C883.158 179.293 880.545 179.8 877.772 179.8C872.598 179.8 868.705 178.573 866.092 176.12C863.478 173.613 862.172 169.64 862.172 164.2V136.12H869.292V163.72C869.292 170.547 872.465 173.96 878.812 173.96C883.558 173.96 886.838 172.627 888.652 169.96C890.518 167.293 891.452 163.453 891.452 158.44V136.12H898.492ZM940.025 167.16C940.025 171.32 938.478 174.467 935.385 176.6C932.291 178.733 928.131 179.8 922.905 179.8C919.918 179.8 917.331 179.56 915.145 179.08C913.011 178.6 911.118 177.933 909.465 177.08V170.68C911.171 171.533 913.225 172.333 915.625 173.08C918.078 173.773 920.558 174.12 923.065 174.12C926.638 174.12 929.225 173.56 930.825 172.44C932.425 171.267 933.225 169.72 933.225 167.8C933.225 166.733 932.931 165.773 932.345 164.92C931.758 164.067 930.691 163.213 929.145 162.36C927.651 161.507 925.491 160.547 922.665 159.48C919.891 158.413 917.518 157.347 915.545 156.28C913.571 155.213 912.051 153.933 910.985 152.44C909.918 150.947 909.385 149.027 909.385 146.68C909.385 143.053 910.851 140.253 913.785 138.28C916.771 136.307 920.665 135.32 925.465 135.32C928.078 135.32 930.505 135.587 932.745 136.12C935.038 136.6 937.171 137.293 939.145 138.2L936.745 143.8C934.931 143.053 933.038 142.413 931.065 141.88C929.091 141.347 927.065 141.08 924.985 141.08C922.105 141.08 919.891 141.56 918.345 142.52C916.851 143.427 916.105 144.68 916.105 146.28C916.105 147.453 916.451 148.467 917.145 149.32C917.838 150.12 918.985 150.92 920.585 151.72C922.238 152.467 924.425 153.373 927.145 154.44C929.865 155.453 932.185 156.493 934.105 157.56C936.025 158.627 937.491 159.933 938.505 161.48C939.518 162.973 940.025 164.867 940.025 167.16ZM964.706 174.04C965.773 174.04 966.866 173.96 967.986 173.8C969.106 173.587 970.013 173.373 970.706 173.16V178.52C969.959 178.893 968.893 179.187 967.506 179.4C966.119 179.667 964.786 179.8 963.506 179.8C961.266 179.8 959.186 179.427 957.266 178.68C955.399 177.88 953.879 176.52 952.706 174.6C951.533 172.68 950.946 169.987 950.946 166.52V141.56H944.866V138.2L951.026 135.4L953.826 126.28H957.986V136.12H970.386V141.56H957.986V166.36C957.986 168.973 958.599 170.92 959.826 172.2C961.106 173.427 962.733 174.04 964.706 174.04ZM1016.57 157.48C1016.57 164.573 1014.76 170.067 1011.13 173.96C1007.56 177.853 1002.71 179.8 996.572 179.8C992.786 179.8 989.399 178.947 986.412 177.24C983.479 175.48 981.159 172.947 979.452 169.64C977.746 166.28 976.892 162.227 976.892 157.48C976.892 150.387 978.679 144.92 982.252 141.08C985.826 137.24 990.679 135.32 996.812 135.32C1000.71 135.32 1004.12 136.2 1007.05 137.96C1010.04 139.667 1012.36 142.173 1014.01 145.48C1015.72 148.733 1016.57 152.733 1016.57 157.48ZM984.172 157.48C984.172 162.547 985.159 166.573 987.132 169.56C989.159 172.493 992.359 173.96 996.732 173.96C1001.05 173.96 1004.23 172.493 1006.25 169.56C1008.28 166.573 1009.29 162.547 1009.29 157.48C1009.29 152.413 1008.28 148.44 1006.25 145.56C1004.23 142.68 1001.03 141.24 996.652 141.24C992.279 141.24 989.106 142.68 987.132 145.56C985.159 148.44 984.172 152.413 984.172 157.48ZM1074.77 135.32C1079.62 135.32 1083.25 136.573 1085.65 139.08C1088.05 141.533 1089.25 145.533 1089.25 151.08V179H1082.29V151.4C1082.29 144.627 1079.38 141.24 1073.57 141.24C1069.41 141.24 1066.42 142.44 1064.61 144.84C1062.85 147.24 1061.97 150.733 1061.97 155.32V179H1055.01V151.4C1055.01 144.627 1052.08 141.24 1046.21 141.24C1041.89 141.24 1038.9 142.573 1037.25 145.24C1035.6 147.907 1034.77 151.747 1034.77 156.76V179H1027.73V136.12H1033.41L1034.45 141.96H1034.85C1036.18 139.72 1037.97 138.067 1040.21 137C1042.5 135.88 1044.93 135.32 1047.49 135.32C1054.21 135.32 1058.58 137.72 1060.61 142.52H1061.01C1062.45 140.067 1064.4 138.253 1066.85 137.08C1069.36 135.907 1072 135.32 1074.77 135.32ZM1106.1 120.04C1107.16 120.04 1108.1 120.413 1108.9 121.16C1109.75 121.853 1110.18 122.973 1110.18 124.52C1110.18 126.013 1109.75 127.133 1108.9 127.88C1108.1 128.627 1107.16 129 1106.1 129C1104.92 129 1103.94 128.627 1103.14 127.88C1102.34 127.133 1101.94 126.013 1101.94 124.52C1101.94 122.973 1102.34 121.853 1103.14 121.16C1103.94 120.413 1104.92 120.04 1106.1 120.04ZM1109.54 136.12V179H1102.5V136.12H1109.54ZM1150.8 179H1119.44V174.36L1142.48 141.56H1120.8V136.12H1150.24V141.4L1127.52 173.56H1150.8V179ZM1177.26 135.32C1180.94 135.32 1184.09 136.12 1186.7 137.72C1189.37 139.32 1191.39 141.587 1192.78 144.52C1194.22 147.4 1194.94 150.787 1194.94 154.68V158.92H1165.58C1165.69 163.773 1166.91 167.48 1169.26 170.04C1171.66 172.547 1174.99 173.8 1179.26 173.8C1181.98 173.8 1184.38 173.56 1186.46 173.08C1188.59 172.547 1190.78 171.8 1193.02 170.84V177C1190.83 177.96 1188.67 178.653 1186.54 179.08C1184.41 179.56 1181.87 179.8 1178.94 179.8C1174.89 179.8 1171.29 178.973 1168.14 177.32C1165.05 175.667 1162.62 173.213 1160.86 169.96C1159.15 166.653 1158.3 162.627 1158.3 157.88C1158.3 153.187 1159.07 149.16 1160.62 145.8C1162.22 142.44 1164.43 139.853 1167.26 138.04C1170.14 136.227 1173.47 135.32 1177.26 135.32ZM1177.18 141.08C1173.82 141.08 1171.15 142.173 1169.18 144.36C1167.26 146.493 1166.11 149.48 1165.74 153.32H1187.58C1187.53 149.693 1186.67 146.76 1185.02 144.52C1183.37 142.227 1180.75 141.08 1177.18 141.08ZM1219.92 136.12H1227.44L1236.72 160.52C1237.52 162.653 1238.24 164.707 1238.88 166.68C1239.52 168.6 1240 170.44 1240.32 172.2H1240.64C1240.96 170.867 1241.46 169.133 1242.16 167C1242.85 164.813 1243.57 162.627 1244.32 160.44L1253.04 136.12H1260.64L1242.16 184.92C1240.66 188.973 1238.72 192.2 1236.32 194.6C1233.97 197 1230.72 198.2 1226.56 198.2C1225.28 198.2 1224.16 198.12 1223.2 197.96C1222.24 197.853 1221.41 197.72 1220.72 197.56V191.96C1221.3 192.067 1222 192.173 1222.8 192.28C1223.65 192.387 1224.53 192.44 1225.44 192.44C1227.89 192.44 1229.86 191.747 1231.36 190.36C1232.9 188.973 1234.1 187.133 1234.96 184.84L1237.2 179.16L1219.92 136.12ZM1304.7 157.48C1304.7 164.573 1302.88 170.067 1299.26 173.96C1295.68 177.853 1290.83 179.8 1284.7 179.8C1280.91 179.8 1277.52 178.947 1274.54 177.24C1271.6 175.48 1269.28 172.947 1267.58 169.64C1265.87 166.28 1265.02 162.227 1265.02 157.48C1265.02 150.387 1266.8 144.92 1270.38 141.08C1273.95 137.24 1278.8 135.32 1284.94 135.32C1288.83 135.32 1292.24 136.2 1295.18 137.96C1298.16 139.667 1300.48 142.173 1302.14 145.48C1303.84 148.733 1304.7 152.733 1304.7 157.48ZM1272.3 157.48C1272.3 162.547 1273.28 166.573 1275.26 169.56C1277.28 172.493 1280.48 173.96 1284.86 173.96C1289.18 173.96 1292.35 172.493 1294.38 169.56C1296.4 166.573 1297.42 162.547 1297.42 157.48C1297.42 152.413 1296.4 148.44 1294.38 145.56C1292.35 142.68 1289.15 141.24 1284.78 141.24C1280.4 141.24 1277.23 142.68 1275.26 145.56C1273.28 148.44 1272.3 152.413 1272.3 157.48ZM1351.69 136.12V179H1345.93L1344.89 173.32H1344.57C1343.19 175.56 1341.27 177.213 1338.81 178.28C1336.36 179.293 1333.75 179.8 1330.97 179.8C1325.8 179.8 1321.91 178.573 1319.29 176.12C1316.68 173.613 1315.37 169.64 1315.37 164.2V136.12H1322.49V163.72C1322.49 170.547 1325.67 173.96 1332.01 173.96C1336.76 173.96 1340.04 172.627 1341.85 169.96C1343.72 167.293 1344.65 163.453 1344.65 158.44V136.12H1351.69ZM1385.31 135.32C1386.11 135.32 1386.96 135.373 1387.87 135.48C1388.83 135.533 1389.65 135.64 1390.35 135.8L1389.47 142.28C1388.77 142.12 1388 141.987 1387.15 141.88C1386.35 141.773 1385.57 141.72 1384.83 141.72C1382.64 141.72 1380.59 142.333 1378.67 143.56C1376.75 144.733 1375.2 146.413 1374.03 148.6C1372.91 150.733 1372.35 153.24 1372.35 156.12V179H1365.31V136.12H1371.07L1371.87 143.96H1372.19C1373.57 141.613 1375.36 139.587 1377.55 137.88C1379.73 136.173 1382.32 135.32 1385.31 135.32Z" fill="#9B9B9B"/>
<g id="cof_orange_hex 1" filter="url(#filter0_d)">
<g id="Group">
<path id="Vector" d="M1587.33 672.595C1587.33 750.874 1523.88 814.33 1445.6 814.33C1367.32 814.33 1303.87 750.874 1303.87 672.595C1303.87 594.321 1367.32 530.867 1445.6 530.867C1523.88 530.867 1587.33 594.32 1587.33 672.595Z" fill="#E95420"/>
<path id="Vector_2" d="M1372.04 672.595C1372.04 682.659 1363.88 690.82 1353.81 690.82C1343.75 690.82 1335.59 682.66 1335.59 672.595C1335.59 662.535 1343.75 654.376 1353.81 654.376C1363.88 654.376 1372.04 662.535 1372.04 672.595ZM1475.72 761.201C1480.75 769.91 1491.89 772.897 1500.6 767.871C1509.32 762.838 1512.31 751.692 1507.27 742.976C1502.24 734.261 1491.1 731.281 1482.39 736.313C1473.67 741.346 1470.68 752.486 1475.72 761.201ZM1507.27 602.219C1512.3 593.502 1509.32 582.359 1500.6 577.332C1491.89 572.3 1480.75 575.286 1475.71 583.999C1470.68 592.714 1473.67 603.856 1482.38 608.888C1491.1 613.92 1502.25 610.934 1507.27 602.219ZM1445.6 620.632C1472.75 620.632 1495.03 641.446 1497.36 667.996L1523.73 667.58C1522.48 647.853 1513.92 630.111 1500.74 617.029C1493.76 619.722 1485.66 619.356 1478.67 615.319C1471.68 611.282 1467.31 604.448 1466.16 597.044C1459.6 595.264 1452.71 594.311 1445.6 594.311C1433.13 594.311 1421.34 597.227 1410.87 602.414L1423.71 625.457C1430.36 622.367 1437.78 620.632 1445.6 620.632ZM1393.63 672.595C1393.63 655.018 1402.37 639.474 1415.73 630.075L1402.19 607.441C1386.5 617.915 1374.82 633.892 1369.89 652.624C1375.73 657.321 1379.46 664.521 1379.46 672.596C1379.46 680.676 1375.72 687.876 1369.89 692.574C1374.82 711.305 1386.5 727.282 1402.19 737.762L1415.73 715.128C1402.37 705.722 1393.63 690.184 1393.63 672.595ZM1445.6 724.568C1437.78 724.568 1430.36 722.834 1423.71 719.738L1410.87 742.781C1421.34 747.972 1433.13 750.885 1445.6 750.885C1452.71 750.885 1459.6 749.939 1466.16 748.156C1467.31 740.747 1471.68 733.913 1478.67 729.883C1485.66 725.846 1493.76 725.479 1500.74 728.172C1513.93 715.084 1522.48 697.342 1523.73 677.615L1497.36 677.206C1495.03 703.749 1472.75 724.568 1445.6 724.568Z" fill="white"/>
</g>
</g>
<g id="browser" filter="url(#filter1_d)">
<path id="Shape" fill-rule="evenodd" clip-rule="evenodd" d="M340.938 812H660.062C663.878 812 667 808.872 667 805.05V540.95C667 537.127 663.878 534 660.062 534H340.938C337.108 534 334 537.127 334 540.95V805.05C334 808.872 337.108 812 340.938 812ZM653.125 798.1H347.875V547.9H653.125V798.1Z" fill="#61DAFB"/>
<path id="Shape_2" d="M653.065 604H347.935C344.107 604 341 600.85 341 597C341 593.15 344.107 590 347.935 590H653.065C656.879 590 660 593.15 660 597C660 600.85 656.879 604 653.065 604Z" fill="#61DAFB"/>
<path id="Shape_3" d="M445.083 776C442.783 776 440.524 774.864 439.208 772.785L397.059 705.795C395.549 703.356 395.66 700.308 397.35 697.993L439.499 640.829C441.771 637.711 446.094 637.073 449.184 639.402C452.26 641.674 452.925 646.012 450.639 649.088L411.303 702.456L450.93 765.44C452.966 768.669 451.996 772.965 448.754 774.975C447.632 775.681 446.343 776 445.083 776Z" fill="#61DAFB"/>
<path id="Shape_4" d="M555.94 776C554.679 776 553.391 775.681 552.254 774.933C549.011 772.91 548.028 768.628 550.079 765.4L589.712 702.422L550.356 649.047C548.083 645.957 548.734 641.634 551.811 639.362C554.887 637.075 559.225 637.74 561.497 640.816L603.639 697.974C605.343 700.274 605.454 703.364 603.93 705.775L561.775 772.758C560.486 774.864 558.241 776 555.94 776Z" fill="#61DAFB"/>
<path id="Shape_5" d="M472.956 764C471.801 764 470.646 763.709 469.56 763.127C466.207 761.258 465.01 757.048 466.889 753.655L521.963 655.546C523.842 652.194 528.058 650.99 531.453 652.928C534.793 654.798 535.989 658.994 534.111 662.36L479.036 760.468C477.756 762.726 475.391 764 472.956 764Z" fill="#61DAFB"/>
<path id="Shape_6" d="M376 569C376 572.868 372.868 576 369 576C365.132 576 362 572.868 362 569C362 565.132 365.132 562 369 562C372.868 562 376 565.132 376 569Z" fill="#61DAFB"/>
<path id="Shape_7" d="M403 569C403 572.868 399.868 576 396 576C392.132 576 389 572.868 389 569C389 565.132 392.132 562 396 562C399.868 562 403 565.132 403 569Z" fill="#61DAFB"/>
<path id="Shape_8" d="M431 569C431 572.868 427.868 576 424 576C420.132 576 417 572.868 417 569C417 565.132 420.132 562 424 562C427.868 562 431 565.132 431 569Z" fill="#61DAFB"/>
</g>
</g>
<defs>
<filter id="filter0_d" x="1217" y="444" width="479.197" height="479.197" filterUnits="userSpaceOnUse" color-interpolation-filters="sRGB">
<feFlood flood-opacity="0" result="BackgroundImageFix"/>
<feColorMatrix in="SourceAlpha" type="matrix" values="0 0 0 0 0 0 0 0 0 0 0 0 0 0 0 0 0 0 127 0"/>
<feOffset dx="11" dy="11"/>
<feGaussianBlur stdDeviation="13.5"/>
<feColorMatrix type="matrix" values="0 0 0 0 0 0 0 0 0 0 0 0 0 0 0 0 0 0 0.5 0"/>
<feBlend mode="normal" in2="BackgroundImageFix" result="effect1_dropShadow"/>
<feBlend mode="normal" in="SourceGraphic" in2="effect1_dropShadow" result="shape"/>
</filter>
<filter id="filter1_d" x="318" y="518" width="387" height="332" filterUnits="userSpaceOnUse" color-interpolation-filters="sRGB">
<feFlood flood-opacity="0" result="BackgroundImageFix"/>
<feColorMatrix in="SourceAlpha" type="matrix" values="0 0 0 0 0 0 0 0 0 0 0 0 0 0 0 0 0 0 127 0"/>
<feOffset dx="11" dy="11"/>
<feGaussianBlur stdDeviation="13.5"/>
<feColorMatrix type="matrix" values="0 0 0 0 0 0 0 0 0 0 0 0 0 0 0 0 0 0 0.5 0"/>
<feBlend mode="normal" in2="BackgroundImageFix" result="effect1_dropShadow"/>
<feBlend mode="normal" in="SourceGraphic" in2="effect1_dropShadow" result="shape"/>
</filter>
<linearGradient id="paint0_linear" x1="948.605" y1="-540" x2="31.2584" y2="1110.2" gradientUnits="userSpaceOnUse">
<stop stop-color="#0B0B0B" stop-opacity="0.01"/>
<stop offset="1"/>
</linearGradient>
</defs>
</svg>
