<svg width="1920" height="1080" viewBox="0 0 1920 1080" fill="none" xmlns="http://www.w3.org/2000/svg">
<g id="ubuntu-hw-review">
<g id="Rectangle">
<rect width="1920" height="1080" fill="#323232"/>
<rect width="1920" height="1080" fill="url(#paint0_linear)" fill-opacity="0.15"/>
</g>
<path id="Java vs Kotlin" d="M95.924 348V240.9H109.424V336H156.224V348H95.924ZM179.536 237.45C181.536 237.45 183.286 238.15 184.786 239.55C186.386 240.85 187.186 242.95 187.186 245.85C187.186 248.65 186.386 250.75 184.786 252.15C183.286 253.55 181.536 254.25 179.536 254.25C177.336 254.25 175.486 253.55 173.986 252.15C172.486 250.75 171.736 248.65 171.736 245.85C171.736 242.95 172.486 240.85 173.986 239.55C175.486 238.15 177.336 237.45 179.536 237.45ZM185.986 267.6V348H172.786V267.6H185.986ZM250.158 266.1C259.758 266.1 267.008 268.45 271.908 273.15C276.808 277.75 279.258 285.25 279.258 295.65V348H266.208V296.55C266.208 283.65 260.208 277.2 248.208 277.2C239.308 277.2 233.158 279.7 229.758 284.7C226.358 289.7 224.658 296.9 224.658 306.3V348H211.458V267.6H222.108L224.058 278.55H224.808C227.408 274.35 231.008 271.25 235.608 269.25C240.208 267.15 245.058 266.1 250.158 266.1ZM371.383 267.6V348H360.583L358.633 337.35H358.033C355.433 341.55 351.833 344.65 347.233 346.65C342.633 348.55 337.733 349.5 332.533 349.5C322.833 349.5 315.533 347.2 310.633 342.6C305.733 337.9 303.283 330.45 303.283 320.25V267.6H316.633V319.35C316.633 332.15 322.583 338.55 334.483 338.55C343.383 338.55 349.533 336.05 352.933 331.05C356.433 326.05 358.183 318.85 358.183 309.45V267.6H371.383ZM415.957 306.9L388.207 267.6H403.207L423.907 297.9L444.457 267.6H459.307L431.557 306.9L460.807 348H445.807L423.907 315.9L401.707 348H386.857L415.957 306.9ZM508.517 306.9C508.517 294.7 510.267 282.95 513.767 271.65C517.367 260.25 522.967 250 530.567 240.9H543.017C536.017 250.3 530.717 260.65 527.117 271.95C523.617 283.25 521.867 294.85 521.867 306.75C521.867 318.35 523.617 329.75 527.117 340.95C530.717 352.05 535.967 362.3 542.867 371.7H530.567C522.967 362.9 517.367 352.95 513.767 341.85C510.267 330.65 508.517 319 508.517 306.9ZM643.487 310.2C643.487 317.6 641.987 324.3 638.987 330.3C635.987 336.2 631.387 340.9 625.187 344.4C619.087 347.8 611.287 349.5 601.787 349.5C588.487 349.5 578.337 345.9 571.337 338.7C564.437 331.4 560.987 321.8 560.987 309.9V240.9H574.487V310.35C574.487 319.05 576.787 325.8 581.387 330.6C586.087 335.4 593.137 337.8 602.537 337.8C612.237 337.8 619.237 335.25 623.537 330.15C627.937 324.95 630.137 318.3 630.137 310.2V240.9H643.487V310.2ZM683.154 261.75C683.154 265.15 683.054 268.35 682.854 271.35C682.754 274.25 682.604 276.55 682.404 278.25H683.154C685.454 274.85 688.604 272 692.604 269.7C696.604 267.4 701.754 266.25 708.054 266.25C718.054 266.25 726.054 269.75 732.054 276.75C738.154 283.65 741.204 294 741.204 307.8C741.204 321.6 738.154 332 732.054 339C725.954 346 717.954 349.5 708.054 349.5C701.754 349.5 696.604 348.35 692.604 346.05C688.604 343.75 685.454 341 683.154 337.8H682.104L679.404 348H669.954V234H683.154V261.75ZM705.804 277.2C697.304 277.2 691.404 279.65 688.104 284.55C684.804 289.45 683.154 297.05 683.154 307.35V307.95C683.154 317.85 684.754 325.45 687.954 330.75C691.254 335.95 697.304 338.55 706.104 338.55C713.304 338.55 718.654 335.9 722.154 330.6C725.754 325.3 727.554 317.65 727.554 307.65C727.554 287.35 720.304 277.2 705.804 277.2ZM829.439 267.6V348H818.639L816.689 337.35H816.089C813.489 341.55 809.889 344.65 805.289 346.65C800.689 348.55 795.789 349.5 790.589 349.5C780.889 349.5 773.589 347.2 768.689 342.6C763.789 337.9 761.339 330.45 761.339 320.25V267.6H774.689V319.35C774.689 332.15 780.639 338.55 792.539 338.55C801.439 338.55 807.589 336.05 810.989 331.05C814.489 326.05 816.239 318.85 816.239 309.45V267.6H829.439ZM893.664 266.1C903.264 266.1 910.514 268.45 915.414 273.15C920.314 277.75 922.764 285.25 922.764 295.65V348H909.714V296.55C909.714 283.65 903.714 277.2 891.714 277.2C882.814 277.2 876.664 279.7 873.264 284.7C869.864 289.7 868.164 296.9 868.164 306.3V348H854.964V267.6H865.614L867.564 278.55H868.314C870.914 274.35 874.514 271.25 879.114 269.25C883.714 267.15 888.564 266.1 893.664 266.1ZM974.538 338.7C976.538 338.7 978.588 338.55 980.688 338.25C982.788 337.85 984.488 337.45 985.788 337.05V347.1C984.388 347.8 982.388 348.35 979.788 348.75C977.188 349.25 974.688 349.5 972.288 349.5C968.088 349.5 964.188 348.8 960.588 347.4C957.088 345.9 954.238 343.35 952.038 339.75C949.838 336.15 948.738 331.1 948.738 324.6V277.8H937.338V271.5L948.888 266.25L954.138 249.15H961.938V267.6H985.188V277.8H961.938V324.3C961.938 329.2 963.088 332.85 965.388 335.25C967.788 337.55 970.838 338.7 974.538 338.7ZM1069.09 267.6V348H1058.29L1056.34 337.35H1055.74C1053.14 341.55 1049.54 344.65 1044.94 346.65C1040.34 348.55 1035.44 349.5 1030.24 349.5C1020.54 349.5 1013.24 347.2 1008.34 342.6C1003.44 337.9 1000.99 330.45 1000.99 320.25V267.6H1014.34V319.35C1014.34 332.15 1020.29 338.55 1032.19 338.55C1041.09 338.55 1047.24 336.05 1050.64 331.05C1054.14 326.05 1055.89 318.85 1055.89 309.45V267.6H1069.09ZM1120.86 306.9C1120.86 319 1119.06 330.65 1115.46 341.85C1111.96 352.95 1106.41 362.9 1098.81 371.7H1086.51C1093.41 362.3 1098.61 352.05 1102.11 340.95C1105.71 329.75 1107.51 318.35 1107.51 306.75C1107.51 294.85 1105.71 283.25 1102.11 271.95C1098.61 260.65 1093.36 250.3 1086.36 240.9H1098.81C1106.41 250 1111.96 260.25 1115.46 271.65C1119.06 282.95 1120.86 294.7 1120.86 306.9ZM1191.75 267.45C1191.75 271.45 1191.5 275.2 1191 278.7H1191.9C1194.5 274.6 1198 271.5 1202.4 269.4C1206.9 267.3 1211.75 266.25 1216.95 266.25C1226.75 266.25 1234.1 268.6 1239 273.3C1243.9 277.9 1246.35 285.35 1246.35 295.65V348H1233.3V296.55C1233.3 283.65 1227.3 277.2 1215.3 277.2C1206.3 277.2 1200.1 279.75 1196.7 284.85C1193.4 289.85 1191.75 297.05 1191.75 306.45V348H1178.55V234H1191.75V267.45ZM1301.72 266.25C1311.52 266.25 1318.77 268.4 1323.47 272.7C1328.17 277 1330.52 283.85 1330.52 293.25V348H1320.92L1318.37 336.6H1317.77C1314.27 341 1310.57 344.25 1306.67 346.35C1302.87 348.45 1297.57 349.5 1290.77 349.5C1283.47 349.5 1277.42 347.6 1272.62 343.8C1267.82 339.9 1265.42 333.85 1265.42 325.65C1265.42 317.65 1268.57 311.5 1274.87 307.2C1281.17 302.8 1290.87 300.4 1303.97 300L1317.62 299.55V294.75C1317.62 288.05 1316.17 283.4 1313.27 280.8C1310.37 278.2 1306.27 276.9 1300.97 276.9C1296.77 276.9 1292.77 277.55 1288.97 278.85C1285.17 280.05 1281.62 281.45 1278.32 283.05L1274.27 273.15C1277.77 271.25 1281.92 269.65 1286.72 268.35C1291.52 266.95 1296.52 266.25 1301.72 266.25ZM1305.62 309.15C1295.62 309.55 1288.67 311.15 1284.77 313.95C1280.97 316.75 1279.07 320.7 1279.07 325.8C1279.07 330.3 1280.42 333.6 1283.12 335.7C1285.92 337.8 1289.47 338.85 1293.77 338.85C1300.57 338.85 1306.22 337 1310.72 333.3C1315.22 329.5 1317.47 323.7 1317.47 315.9V308.7L1305.62 309.15ZM1392.85 266.1C1394.35 266.1 1395.95 266.2 1397.65 266.4C1399.45 266.5 1401 266.7 1402.3 267L1400.65 279.15C1399.35 278.85 1397.9 278.6 1396.3 278.4C1394.8 278.2 1393.35 278.1 1391.95 278.1C1387.85 278.1 1384 279.25 1380.4 281.55C1376.8 283.75 1373.9 286.9 1371.7 291C1369.6 295 1368.55 299.7 1368.55 305.1V348H1355.35V267.6H1366.15L1367.65 282.3H1368.25C1370.85 277.9 1374.2 274.1 1378.3 270.9C1382.4 267.7 1387.25 266.1 1392.85 266.1ZM1442.89 349.5C1432.89 349.5 1424.89 346.05 1418.89 339.15C1412.89 332.15 1409.89 321.75 1409.89 307.95C1409.89 294.15 1412.89 283.75 1418.89 276.75C1424.99 269.65 1433.04 266.1 1443.04 266.1C1449.24 266.1 1454.29 267.25 1458.19 269.55C1462.19 271.85 1465.44 274.65 1467.94 277.95H1468.84C1468.74 276.65 1468.54 274.75 1468.24 272.25C1468.04 269.65 1467.94 267.6 1467.94 266.1V234H1481.14V348H1470.49L1468.54 337.2H1467.94C1465.54 340.6 1462.34 343.5 1458.34 345.9C1454.34 348.3 1449.19 349.5 1442.89 349.5ZM1444.99 338.55C1453.49 338.55 1459.44 336.25 1462.84 331.65C1466.34 326.95 1468.09 319.9 1468.09 310.5V308.1C1468.09 298.1 1466.44 290.45 1463.14 285.15C1459.84 279.75 1453.74 277.05 1444.84 277.05C1437.74 277.05 1432.39 279.9 1428.79 285.6C1425.29 291.2 1423.54 298.75 1423.54 308.25C1423.54 317.85 1425.29 325.3 1428.79 330.6C1432.39 335.9 1437.79 338.55 1444.99 338.55ZM1558.57 302.55C1557.27 298.45 1556.12 294.45 1555.12 290.55C1554.22 286.55 1553.52 283.45 1553.02 281.25H1552.42C1552.02 283.45 1551.37 286.55 1550.47 290.55C1549.57 294.45 1548.42 298.5 1547.02 302.7L1532.62 347.85H1517.62L1495.57 267.45H1509.22L1520.32 310.35C1521.42 314.65 1522.47 319 1523.47 323.4C1524.47 327.8 1525.17 331.45 1525.57 334.35H1526.17C1526.57 332.65 1527.02 330.55 1527.52 328.05C1528.12 325.55 1528.77 322.95 1529.47 320.25C1530.17 317.45 1530.87 314.95 1531.57 312.75L1545.82 267.45H1560.22L1574.02 312.75C1575.12 316.15 1576.17 319.85 1577.17 323.85C1578.27 327.85 1579.02 331.3 1579.42 334.2H1580.02C1580.32 331.7 1580.97 328.25 1581.97 323.85C1583.07 319.45 1584.22 314.95 1585.42 310.35L1596.67 267.45H1610.17L1587.82 347.85H1572.37L1558.57 302.55ZM1655.04 266.25C1664.84 266.25 1672.09 268.4 1676.79 272.7C1681.49 277 1683.84 283.85 1683.84 293.25V348H1674.24L1671.69 336.6H1671.09C1667.59 341 1663.89 344.25 1659.99 346.35C1656.19 348.45 1650.89 349.5 1644.09 349.5C1636.79 349.5 1630.74 347.6 1625.94 343.8C1621.14 339.9 1618.74 333.85 1618.74 325.65C1618.74 317.65 1621.89 311.5 1628.19 307.2C1634.49 302.8 1644.19 300.4 1657.29 300L1670.94 299.55V294.75C1670.94 288.05 1669.49 283.4 1666.59 280.8C1663.69 278.2 1659.59 276.9 1654.29 276.9C1650.09 276.9 1646.09 277.55 1642.29 278.85C1638.49 280.05 1634.94 281.45 1631.64 283.05L1627.59 273.15C1631.09 271.25 1635.24 269.65 1640.04 268.35C1644.84 266.95 1649.84 266.25 1655.04 266.25ZM1658.94 309.15C1648.94 309.55 1641.99 311.15 1638.09 313.95C1634.29 316.75 1632.39 320.7 1632.39 325.8C1632.39 330.3 1633.74 333.6 1636.44 335.7C1639.24 337.8 1642.79 338.85 1647.09 338.85C1653.89 338.85 1659.54 337 1664.04 333.3C1668.54 329.5 1670.79 323.7 1670.79 315.9V308.7L1658.94 309.15ZM1746.17 266.1C1747.67 266.1 1749.27 266.2 1750.97 266.4C1752.77 266.5 1754.32 266.7 1755.62 267L1753.97 279.15C1752.67 278.85 1751.22 278.6 1749.62 278.4C1748.12 278.2 1746.67 278.1 1745.27 278.1C1741.17 278.1 1737.32 279.25 1733.72 281.55C1730.12 283.75 1727.22 286.9 1725.02 291C1722.92 295 1721.87 299.7 1721.87 305.1V348H1708.67V267.6H1719.47L1720.97 282.3H1721.57C1724.17 277.9 1727.52 274.1 1731.62 270.9C1735.72 267.7 1740.57 266.1 1746.17 266.1ZM1798.76 266.1C1805.66 266.1 1811.56 267.6 1816.46 270.6C1821.46 273.6 1825.26 277.85 1827.86 283.35C1830.56 288.75 1831.91 295.1 1831.91 302.4V310.35H1776.86C1777.06 319.45 1779.36 326.4 1783.76 331.2C1788.26 335.9 1794.51 338.25 1802.51 338.25C1807.61 338.25 1812.11 337.8 1816.01 336.9C1820.01 335.9 1824.11 334.5 1828.31 332.7V344.25C1824.21 346.05 1820.16 347.35 1816.16 348.15C1812.16 349.05 1807.41 349.5 1801.91 349.5C1794.31 349.5 1787.56 347.95 1781.66 344.85C1775.86 341.75 1771.31 337.15 1768.01 331.05C1764.81 324.85 1763.21 317.3 1763.21 308.4C1763.21 299.6 1764.66 292.05 1767.56 285.75C1770.56 279.45 1774.71 274.6 1780.01 271.2C1785.41 267.8 1791.66 266.1 1798.76 266.1ZM1798.61 276.9C1792.31 276.9 1787.31 278.95 1783.61 283.05C1780.01 287.05 1777.86 292.65 1777.16 299.85H1818.11C1818.01 293.05 1816.41 287.55 1813.31 283.35C1810.21 279.05 1805.31 276.9 1798.61 276.9Z" fill="#61DAFB"/>
<path id="Android development" d="M511.801 149.88C511.801 159.533 509.161 166.813 503.881 171.72C498.655 176.573 491.348 179 481.961 179H466.041V121.88H483.641C489.401 121.88 494.388 122.947 498.601 125.08C502.815 127.213 506.068 130.36 508.361 134.52C510.655 138.627 511.801 143.747 511.801 149.88ZM504.201 150.12C504.201 142.493 502.308 136.92 498.521 133.4C494.788 129.827 489.481 128.04 482.601 128.04H473.241V172.84H481.001C496.468 172.84 504.201 165.267 504.201 150.12ZM540.079 135.32C543.759 135.32 546.905 136.12 549.519 137.72C552.185 139.32 554.212 141.587 555.599 144.52C557.039 147.4 557.759 150.787 557.759 154.68V158.92H528.399C528.505 163.773 529.732 167.48 532.079 170.04C534.479 172.547 537.812 173.8 542.079 173.8C544.799 173.8 547.199 173.56 549.279 173.08C551.412 172.547 553.599 171.8 555.839 170.84V177C553.652 177.96 551.492 178.653 549.359 179.08C547.225 179.56 544.692 179.8 541.759 179.8C537.705 179.8 534.105 178.973 530.959 177.32C527.865 175.667 525.439 173.213 523.679 169.96C521.972 166.653 521.119 162.627 521.119 157.88C521.119 153.187 521.892 149.16 523.439 145.8C525.039 142.44 527.252 139.853 530.079 138.04C532.959 136.227 536.292 135.32 540.079 135.32ZM539.999 141.08C536.639 141.08 533.972 142.173 531.999 144.36C530.079 146.493 528.932 149.48 528.559 153.32H550.399C550.345 149.693 549.492 146.76 547.839 144.52C546.185 142.227 543.572 141.08 539.999 141.08ZM576.553 179L560.312 136.12H567.833L576.953 161.4C577.379 162.573 577.833 163.88 578.313 165.32C578.793 166.76 579.219 168.147 579.593 169.48C579.966 170.76 580.233 171.853 580.393 172.76H580.713C580.926 171.853 581.219 170.733 581.593 169.4C582.019 168.067 582.473 166.68 582.953 165.24C583.486 163.8 583.939 162.52 584.313 161.4L593.433 136.12H600.953L584.633 179H576.553ZM624.298 135.32C627.978 135.32 631.124 136.12 633.738 137.72C636.404 139.32 638.431 141.587 639.818 144.52C641.258 147.4 641.978 150.787 641.978 154.68V158.92H612.618C612.724 163.773 613.951 167.48 616.298 170.04C618.698 172.547 622.031 173.8 626.298 173.8C629.018 173.8 631.418 173.56 633.498 173.08C635.631 172.547 637.818 171.8 640.058 170.84V177C637.871 177.96 635.711 178.653 633.578 179.08C631.444 179.56 628.911 179.8 625.978 179.8C621.924 179.8 618.324 178.973 615.178 177.32C612.084 175.667 609.658 173.213 607.898 169.96C606.191 166.653 605.338 162.627 605.338 157.88C605.338 153.187 606.111 149.16 607.658 145.8C609.258 142.44 611.471 139.853 614.298 138.04C617.178 136.227 620.511 135.32 624.298 135.32ZM624.218 141.08C620.858 141.08 618.191 142.173 616.218 144.36C614.298 146.493 613.151 149.48 612.778 153.32H634.618C634.564 149.693 633.711 146.76 632.058 144.52C630.404 142.227 627.791 141.08 624.218 141.08ZM659.934 179H652.894V118.2H659.934V179ZM710.799 157.48C710.799 164.573 708.985 170.067 705.359 173.96C701.785 177.853 696.932 179.8 690.799 179.8C687.012 179.8 683.625 178.947 680.639 177.24C677.705 175.48 675.385 172.947 673.679 169.64C671.972 166.28 671.119 162.227 671.119 157.48C671.119 150.387 672.905 144.92 676.479 141.08C680.052 137.24 684.905 135.32 691.039 135.32C694.932 135.32 698.345 136.2 701.279 137.96C704.265 139.667 706.585 142.173 708.239 145.48C709.945 148.733 710.799 152.733 710.799 157.48ZM678.399 157.48C678.399 162.547 679.385 166.573 681.359 169.56C683.385 172.493 686.585 173.96 690.959 173.96C695.279 173.96 698.452 172.493 700.479 169.56C702.505 166.573 703.519 162.547 703.519 157.48C703.519 152.413 702.505 148.44 700.479 145.56C698.452 142.68 695.252 141.24 690.879 141.24C686.505 141.24 683.332 142.68 681.359 145.56C679.385 148.44 678.399 152.413 678.399 157.48ZM742.356 135.32C747.636 135.32 751.876 137.16 755.076 140.84C758.33 144.52 759.956 150.067 759.956 157.48C759.956 164.787 758.33 170.333 755.076 174.12C751.876 177.907 747.61 179.8 742.276 179.8C738.97 179.8 736.223 179.187 734.036 177.96C731.903 176.68 730.223 175.213 728.996 173.56H728.516C728.623 174.467 728.73 175.613 728.836 177C728.943 178.387 728.996 179.587 728.996 180.6V198.2H721.956V136.12H727.716L728.676 141.96H728.996C730.276 140.093 731.956 138.52 734.036 137.24C736.116 135.96 738.89 135.32 742.356 135.32ZM741.076 141.24C736.703 141.24 733.61 142.467 731.796 144.92C730.036 147.373 729.103 151.107 728.996 156.12V157.48C728.996 162.76 729.85 166.84 731.556 169.72C733.316 172.547 736.543 173.96 741.236 173.96C743.85 173.96 745.983 173.24 747.636 171.8C749.343 170.36 750.596 168.413 751.396 165.96C752.25 163.453 752.676 160.6 752.676 157.4C752.676 152.493 751.716 148.573 749.796 145.64C747.93 142.707 745.023 141.24 741.076 141.24ZM787.735 135.32C791.415 135.32 794.562 136.12 797.175 137.72C799.842 139.32 801.868 141.587 803.255 144.52C804.695 147.4 805.415 150.787 805.415 154.68V158.92H776.055C776.162 163.773 777.388 167.48 779.735 170.04C782.135 172.547 785.468 173.8 789.735 173.8C792.455 173.8 794.855 173.56 796.935 173.08C799.068 172.547 801.255 171.8 803.495 170.84V177C801.308 177.96 799.148 178.653 797.015 179.08C794.882 179.56 792.348 179.8 789.415 179.8C785.362 179.8 781.762 178.973 778.615 177.32C775.522 175.667 773.095 173.213 771.335 169.96C769.628 166.653 768.775 162.627 768.775 157.88C768.775 153.187 769.548 149.16 771.095 145.8C772.695 142.44 774.908 139.853 777.735 138.04C780.615 136.227 783.948 135.32 787.735 135.32ZM787.655 141.08C784.295 141.08 781.628 142.173 779.655 144.36C777.735 146.493 776.588 149.48 776.215 153.32H798.055C798.002 149.693 797.148 146.76 795.495 144.52C793.842 142.227 791.228 141.08 787.655 141.08ZM836.331 135.32C837.131 135.32 837.985 135.373 838.891 135.48C839.851 135.533 840.678 135.64 841.371 135.8L840.491 142.28C839.798 142.12 839.025 141.987 838.171 141.88C837.371 141.773 836.598 141.72 835.851 141.72C833.665 141.72 831.611 142.333 829.691 143.56C827.771 144.733 826.225 146.413 825.051 148.6C823.931 150.733 823.371 153.24 823.371 156.12V179H816.331V136.12H822.091L822.891 143.96H823.211C824.598 141.613 826.385 139.587 828.571 137.88C830.758 136.173 833.345 135.32 836.331 135.32ZM889.919 141.56H879.119V179H872.079V141.56H864.559V138.28L872.079 135.88V133.4C872.079 127.853 873.306 123.88 875.759 121.48C878.213 119.027 881.626 117.8 885.999 117.8C887.706 117.8 889.253 117.96 890.639 118.28C892.079 118.547 893.306 118.867 894.319 119.24L892.479 124.76C891.626 124.493 890.639 124.227 889.519 123.96C888.399 123.693 887.253 123.56 886.079 123.56C883.733 123.56 881.973 124.36 880.799 125.96C879.679 127.507 879.119 129.96 879.119 133.32V136.12H889.919V141.56ZM934.939 157.48C934.939 164.573 933.126 170.067 929.499 173.96C925.926 177.853 921.073 179.8 914.939 179.8C911.153 179.8 907.766 178.947 904.779 177.24C901.846 175.48 899.526 172.947 897.819 169.64C896.113 166.28 895.259 162.227 895.259 157.48C895.259 150.387 897.046 144.92 900.619 141.08C904.193 137.24 909.046 135.32 915.179 135.32C919.073 135.32 922.486 136.2 925.419 137.96C928.406 139.667 930.726 142.173 932.379 145.48C934.086 148.733 934.939 152.733 934.939 157.48ZM902.539 157.48C902.539 162.547 903.526 166.573 905.499 169.56C907.526 172.493 910.726 173.96 915.099 173.96C919.419 173.96 922.593 172.493 924.619 169.56C926.646 166.573 927.659 162.547 927.659 157.48C927.659 152.413 926.646 148.44 924.619 145.56C922.593 142.68 919.393 141.24 915.019 141.24C910.646 141.24 907.473 142.68 905.499 145.56C903.526 148.44 902.539 152.413 902.539 157.48ZM963.297 179.8C959.51 179.8 956.124 179.027 953.137 177.48C950.204 175.933 947.884 173.533 946.177 170.28C944.524 167.027 943.697 162.867 943.697 157.8C943.697 152.52 944.577 148.227 946.337 144.92C948.097 141.613 950.47 139.187 953.457 137.64C956.497 136.093 959.937 135.32 963.777 135.32C965.964 135.32 968.07 135.56 970.097 136.04C972.124 136.467 973.777 137 975.057 137.64L972.897 143.48C971.617 143 970.124 142.547 968.417 142.12C966.71 141.693 965.11 141.48 963.617 141.48C955.19 141.48 950.977 146.893 950.977 157.72C950.977 162.893 951.99 166.867 954.017 169.64C956.097 172.36 959.164 173.72 963.217 173.72C965.564 173.72 967.617 173.48 969.377 173C971.19 172.52 972.844 171.933 974.337 171.24V177.48C972.897 178.227 971.297 178.787 969.537 179.16C967.83 179.587 965.75 179.8 963.297 179.8ZM1020.37 136.12V179H1014.61L1013.57 173.32H1013.25C1011.87 175.56 1009.95 177.213 1007.49 178.28C1005.04 179.293 1002.43 179.8 999.654 179.8C994.481 179.8 990.588 178.573 987.974 176.12C985.361 173.613 984.054 169.64 984.054 164.2V136.12H991.174V163.72C991.174 170.547 994.348 173.96 1000.69 173.96C1005.44 173.96 1008.72 172.627 1010.53 169.96C1012.4 167.293 1013.33 163.453 1013.33 158.44V136.12H1020.37ZM1061.91 167.16C1061.91 171.32 1060.36 174.467 1057.27 176.6C1054.17 178.733 1050.01 179.8 1044.79 179.8C1041.8 179.8 1039.21 179.56 1037.03 179.08C1034.89 178.6 1033 177.933 1031.35 177.08V170.68C1033.05 171.533 1035.11 172.333 1037.51 173.08C1039.96 173.773 1042.44 174.12 1044.95 174.12C1048.52 174.12 1051.11 173.56 1052.71 172.44C1054.31 171.267 1055.11 169.72 1055.11 167.8C1055.11 166.733 1054.81 165.773 1054.23 164.92C1053.64 164.067 1052.57 163.213 1051.03 162.36C1049.53 161.507 1047.37 160.547 1044.55 159.48C1041.77 158.413 1039.4 157.347 1037.43 156.28C1035.45 155.213 1033.93 153.933 1032.87 152.44C1031.8 150.947 1031.27 149.027 1031.27 146.68C1031.27 143.053 1032.73 140.253 1035.67 138.28C1038.65 136.307 1042.55 135.32 1047.35 135.32C1049.96 135.32 1052.39 135.587 1054.63 136.12C1056.92 136.6 1059.05 137.293 1061.03 138.2L1058.63 143.8C1056.81 143.053 1054.92 142.413 1052.95 141.88C1050.97 141.347 1048.95 141.08 1046.87 141.08C1043.99 141.08 1041.77 141.56 1040.23 142.52C1038.73 143.427 1037.99 144.68 1037.99 146.28C1037.99 147.453 1038.33 148.467 1039.03 149.32C1039.72 150.12 1040.87 150.92 1042.47 151.72C1044.12 152.467 1046.31 153.373 1049.03 154.44C1051.75 155.453 1054.07 156.493 1055.99 157.56C1057.91 158.627 1059.37 159.933 1060.39 161.48C1061.4 162.973 1061.91 164.867 1061.91 167.16ZM1088.83 135.32C1092.51 135.32 1095.66 136.12 1098.27 137.72C1100.94 139.32 1102.96 141.587 1104.35 144.52C1105.79 147.4 1106.51 150.787 1106.51 154.68V158.92H1077.15C1077.26 163.773 1078.48 167.48 1080.83 170.04C1083.23 172.547 1086.56 173.8 1090.83 173.8C1093.55 173.8 1095.95 173.56 1098.03 173.08C1100.16 172.547 1102.35 171.8 1104.59 170.84V177C1102.4 177.96 1100.24 178.653 1098.11 179.08C1095.98 179.56 1093.44 179.8 1090.51 179.8C1086.46 179.8 1082.86 178.973 1079.71 177.32C1076.62 175.667 1074.19 173.213 1072.43 169.96C1070.72 166.653 1069.87 162.627 1069.87 157.88C1069.87 153.187 1070.64 149.16 1072.19 145.8C1073.79 142.44 1076 139.853 1078.83 138.04C1081.71 136.227 1085.04 135.32 1088.83 135.32ZM1088.75 141.08C1085.39 141.08 1082.72 142.173 1080.75 144.36C1078.83 146.493 1077.68 149.48 1077.31 153.32H1099.15C1099.1 149.693 1098.24 146.76 1096.59 144.52C1094.94 142.227 1092.32 141.08 1088.75 141.08ZM1132.63 179.8C1127.29 179.8 1123.03 177.96 1119.83 174.28C1116.63 170.547 1115.03 165 1115.03 157.64C1115.03 150.28 1116.63 144.733 1119.83 141C1123.08 137.213 1127.37 135.32 1132.71 135.32C1136.01 135.32 1138.71 135.933 1140.79 137.16C1142.92 138.387 1144.65 139.88 1145.99 141.64H1146.47C1146.41 140.947 1146.31 139.933 1146.15 138.6C1146.04 137.213 1145.99 136.12 1145.99 135.32V118.2H1153.03V179H1147.35L1146.31 173.24H1145.99C1144.71 175.053 1143 176.6 1140.87 177.88C1138.73 179.16 1135.99 179.8 1132.63 179.8ZM1133.75 173.96C1138.28 173.96 1141.45 172.733 1143.27 170.28C1145.13 167.773 1146.07 164.013 1146.07 159V157.72C1146.07 152.387 1145.19 148.307 1143.43 145.48C1141.67 142.6 1138.41 141.16 1133.67 141.16C1129.88 141.16 1127.03 142.68 1125.11 145.72C1123.24 148.707 1122.31 152.733 1122.31 157.8C1122.31 162.92 1123.24 166.893 1125.11 169.72C1127.03 172.547 1129.91 173.96 1133.75 173.96ZM1207.43 135.32C1208.23 135.32 1209.08 135.373 1209.99 135.48C1210.95 135.533 1211.77 135.64 1212.47 135.8L1211.59 142.28C1210.89 142.12 1210.12 141.987 1209.27 141.88C1208.47 141.773 1207.69 141.72 1206.95 141.72C1204.76 141.72 1202.71 142.333 1200.79 143.56C1198.87 144.733 1197.32 146.413 1196.15 148.6C1195.03 150.733 1194.47 153.24 1194.47 156.12V179H1187.43V136.12H1193.19L1193.99 143.96H1194.31C1195.69 141.613 1197.48 139.587 1199.67 137.88C1201.85 136.173 1204.44 135.32 1207.43 135.32ZM1235.47 135.32C1239.15 135.32 1242.3 136.12 1244.91 137.72C1247.58 139.32 1249.6 141.587 1250.99 144.52C1252.43 147.4 1253.15 150.787 1253.15 154.68V158.92H1223.79C1223.9 163.773 1225.12 167.48 1227.47 170.04C1229.87 172.547 1233.2 173.8 1237.47 173.8C1240.19 173.8 1242.59 173.56 1244.67 173.08C1246.8 172.547 1248.99 171.8 1251.23 170.84V177C1249.04 177.96 1246.88 178.653 1244.75 179.08C1242.62 179.56 1240.08 179.8 1237.15 179.8C1233.1 179.8 1229.5 178.973 1226.35 177.32C1223.26 175.667 1220.83 173.213 1219.07 169.96C1217.36 166.653 1216.51 162.627 1216.51 157.88C1216.51 153.187 1217.28 149.16 1218.83 145.8C1220.43 142.44 1222.64 139.853 1225.47 138.04C1228.35 136.227 1231.68 135.32 1235.47 135.32ZM1235.39 141.08C1232.03 141.08 1229.36 142.173 1227.39 144.36C1225.47 146.493 1224.32 149.48 1223.95 153.32H1245.79C1245.74 149.693 1244.88 146.76 1243.23 144.52C1241.58 142.227 1238.96 141.08 1235.39 141.08ZM1271.94 179L1255.7 136.12H1263.22L1272.34 161.4C1272.77 162.573 1273.22 163.88 1273.7 165.32C1274.18 166.76 1274.61 168.147 1274.98 169.48C1275.36 170.76 1275.62 171.853 1275.78 172.76H1276.1C1276.32 171.853 1276.61 170.733 1276.98 169.4C1277.41 168.067 1277.86 166.68 1278.34 165.24C1278.88 163.8 1279.33 162.52 1279.7 161.4L1288.82 136.12H1296.34L1280.02 179H1271.94ZM1306.73 120.04C1307.79 120.04 1308.73 120.413 1309.53 121.16C1310.38 121.853 1310.81 122.973 1310.81 124.52C1310.81 126.013 1310.38 127.133 1309.53 127.88C1308.73 128.627 1307.79 129 1306.73 129C1305.55 129 1304.57 128.627 1303.77 127.88C1302.97 127.133 1302.57 126.013 1302.57 124.52C1302.57 122.973 1302.97 121.853 1303.77 121.16C1304.57 120.413 1305.55 120.04 1306.73 120.04ZM1310.17 136.12V179H1303.13V136.12H1310.17ZM1340.31 135.32C1343.99 135.32 1347.14 136.12 1349.75 137.72C1352.42 139.32 1354.45 141.587 1355.83 144.52C1357.27 147.4 1357.99 150.787 1357.99 154.68V158.92H1328.63C1328.74 163.773 1329.97 167.48 1332.31 170.04C1334.71 172.547 1338.05 173.8 1342.31 173.8C1345.03 173.8 1347.43 173.56 1349.51 173.08C1351.65 172.547 1353.83 171.8 1356.07 170.84V177C1353.89 177.96 1351.73 178.653 1349.59 179.08C1347.46 179.56 1344.93 179.8 1341.99 179.8C1337.94 179.8 1334.34 178.973 1331.19 177.32C1328.1 175.667 1325.67 173.213 1323.91 169.96C1322.21 166.653 1321.35 162.627 1321.35 157.88C1321.35 153.187 1322.13 149.16 1323.67 145.8C1325.27 142.44 1327.49 139.853 1330.31 138.04C1333.19 136.227 1336.53 135.32 1340.31 135.32ZM1340.23 141.08C1336.87 141.08 1334.21 142.173 1332.23 144.36C1330.31 146.493 1329.17 149.48 1328.79 153.32H1350.63C1350.58 149.693 1349.73 146.76 1348.07 144.52C1346.42 142.227 1343.81 141.08 1340.23 141.08ZM1395.03 154.76C1394.33 152.573 1393.72 150.44 1393.19 148.36C1392.71 146.227 1392.33 144.573 1392.07 143.4H1391.75C1391.53 144.573 1391.19 146.227 1390.71 148.36C1390.23 150.44 1389.61 152.6 1388.87 154.84L1381.19 178.92H1373.19L1361.43 136.04H1368.71L1374.63 158.92C1375.21 161.213 1375.77 163.533 1376.31 165.88C1376.84 168.227 1377.21 170.173 1377.43 171.72H1377.75C1377.96 170.813 1378.2 169.693 1378.47 168.36C1378.79 167.027 1379.13 165.64 1379.51 164.2C1379.88 162.707 1380.25 161.373 1380.63 160.2L1388.23 136.04H1395.91L1403.27 160.2C1403.85 162.013 1404.41 163.987 1404.95 166.12C1405.53 168.253 1405.93 170.093 1406.15 171.64H1406.47C1406.63 170.307 1406.97 168.467 1407.51 166.12C1408.09 163.773 1408.71 161.373 1409.35 158.92L1415.35 136.04H1422.55L1410.63 178.92H1402.39L1395.03 154.76ZM1458.16 167.16C1458.16 171.32 1456.61 174.467 1453.52 176.6C1450.42 178.733 1446.26 179.8 1441.04 179.8C1438.05 179.8 1435.46 179.56 1433.28 179.08C1431.14 178.6 1429.25 177.933 1427.6 177.08V170.68C1429.3 171.533 1431.36 172.333 1433.76 173.08C1436.21 173.773 1438.69 174.12 1441.2 174.12C1444.77 174.12 1447.36 173.56 1448.96 172.44C1450.56 171.267 1451.36 169.72 1451.36 167.8C1451.36 166.733 1451.06 165.773 1450.48 164.92C1449.89 164.067 1448.82 163.213 1447.28 162.36C1445.78 161.507 1443.62 160.547 1440.8 159.48C1438.02 158.413 1435.65 157.347 1433.68 156.28C1431.7 155.213 1430.18 153.933 1429.12 152.44C1428.05 150.947 1427.52 149.027 1427.52 146.68C1427.52 143.053 1428.98 140.253 1431.92 138.28C1434.9 136.307 1438.8 135.32 1443.6 135.32C1446.21 135.32 1448.64 135.587 1450.88 136.12C1453.17 136.6 1455.3 137.293 1457.28 138.2L1454.88 143.8C1453.06 143.053 1451.17 142.413 1449.2 141.88C1447.22 141.347 1445.2 141.08 1443.12 141.08C1440.24 141.08 1438.02 141.56 1436.48 142.52C1434.98 143.427 1434.24 144.68 1434.24 146.28C1434.24 147.453 1434.58 148.467 1435.28 149.32C1435.97 150.12 1437.12 150.92 1438.72 151.72C1440.37 152.467 1442.56 153.373 1445.28 154.44C1448 155.453 1450.32 156.493 1452.24 157.56C1454.16 158.627 1455.62 159.933 1456.64 161.48C1457.65 162.973 1458.16 164.867 1458.16 167.16Z" fill="#9B9B9B"/>
<g id="Group 1">
<g id="laptop" filter="url(#filter0_d)">
<path id="Vector" d="M1407.24 752H1193.75C1188.69 752 1184.6 756.107 1184.6 761.185V764.239V889.733C1184.6 894.799 1188.69 898.918 1193.75 898.918H1196.81H1404.22H1407.24C1412.28 898.918 1416.39 894.799 1416.39 889.733V764.239V761.185C1416.39 756.107 1412.31 752 1407.24 752ZM1404.22 886.654H1196.81V764.239H1404.22V886.654Z" fill="#0893D6"/>
<path id="Vector_2" d="M1416.72 905.073C1414.88 903.368 1411.29 901.97 1408.79 901.97H1192.22C1189.71 901.97 1186.14 903.368 1184.3 905.073L1148 938.685V944.815C1148 944.815 1148 954 1157.15 954H1443.85C1453 954 1453 944.815 1453 944.815V938.685L1416.72 905.073ZM1260.43 924.529H1340.57L1346.75 934.519H1254.24L1260.43 924.529ZM1321.84 941.764C1321.84 943.444 1320.47 944.815 1318.8 944.815H1282.2C1280.51 944.815 1279.16 943.444 1279.16 941.764V938.685H1321.84V941.764H1321.84Z" fill="#0893D6"/>
</g>
<g id="desktop" filter="url(#filter1_d)">
<g id="Group">
<path id="Vector_3" d="M1527 444.389H1389V461.577H1527V444.389Z" fill="#0893D6"/>
<path id="Vector_4" d="M1449.43 645.142L1449.5 645.324L1449.59 645.499C1449.95 646.226 1450.48 647.115 1451.29 647.919C1451.97 648.596 1452.89 649.285 1454.05 649.741C1455.15 650.188 1456.24 650.328 1457.18 650.328C1459.25 650.328 1461.44 649.547 1463.05 647.879C1464.56 646.36 1465.49 644.298 1465.49 642.031C1465.49 639.852 1464.59 637.704 1463 636.169C1459.84 633.006 1454.46 633.01 1451.31 636.17C1449.65 637.771 1448.86 639.952 1448.86 642.031C1448.86 643.014 1449.02 644.067 1449.43 645.142Z" fill="#A4C639" stroke="#A4C639" stroke-width="8"/>
<path id="Vector_5" d="M1527 494.652H1389V511.84H1527V494.652Z" fill="#0893D6"/>
<path id="Vector_6" d="M1527 470.171H1389V486.058H1527V470.171Z" fill="#0893D6"/>
<path id="Vector_7" d="M1527 414.297V435.781H1389V414.297C1389 411.934 1390.94 410 1393.31 410H1522.69C1525.06 410 1527 411.934 1527 414.297Z" fill="#0893D6"/>
<path id="Vector_8" d="M1389 520.43V680.703C1389 683.109 1390.94 685 1393.31 685H1522.69C1525.06 685 1527 683.109 1527 680.703V520.43H1389ZM1453.69 540.625C1453.69 538.262 1455.63 536.328 1458 536.328C1460.37 536.328 1462.31 538.262 1462.31 540.625V556.094C1462.31 558.5 1460.37 560.391 1458 560.391C1455.63 560.391 1453.69 558.5 1453.69 556.094V540.625ZM1457.18 573.281C1466.67 573.281 1474.43 581.016 1474.43 590.469C1474.43 594.035 1473.35 597.344 1471.45 600.094C1468.35 604.648 1463.13 607.656 1457.18 607.656C1447.65 607.656 1439.93 599.965 1439.93 590.469C1439.93 585.957 1441.7 581.875 1444.59 578.781C1447.74 575.43 1452.22 573.281 1457.18 573.281ZM1419.19 556.094C1419.19 558.5 1417.25 560.391 1414.88 560.391C1412.5 560.391 1410.56 558.5 1410.56 556.094V540.625C1410.56 538.262 1412.5 536.328 1414.88 536.328C1417.25 536.328 1419.19 538.262 1419.19 540.625V556.094ZM1432.12 556.094V540.625C1432.12 538.262 1434.07 536.328 1436.44 536.328C1438.81 536.328 1440.75 538.262 1440.75 540.625V556.094C1440.75 558.5 1438.81 560.391 1436.44 560.391C1434.07 560.391 1432.12 558.5 1432.12 556.094ZM1457.18 663.516C1445.28 663.516 1435.62 653.891 1435.62 642.031C1435.62 630.215 1445.28 620.547 1457.18 620.547C1469.04 620.547 1478.74 630.215 1478.74 642.031C1478.74 653.891 1469.04 663.516 1457.18 663.516ZM1483.88 556.094C1483.88 558.5 1481.93 560.391 1479.56 560.391C1477.19 560.391 1475.25 558.5 1475.25 556.094V540.625C1475.25 538.262 1477.19 536.328 1479.56 536.328C1481.93 536.328 1483.88 538.262 1483.88 540.625V556.094ZM1505.44 556.094C1505.44 558.5 1503.5 560.391 1501.12 560.391C1498.75 560.391 1496.81 558.5 1496.81 556.094V540.625C1496.81 538.262 1498.75 536.328 1501.12 536.328C1503.5 536.328 1505.44 538.262 1505.44 540.625V556.094Z" fill="#0893D6"/>
</g>
</g>
<g id="monitor" filter="url(#filter2_d)">
<path id="Vector_9" d="M1271.47 453C1274.54 453 1277 455.462 1277 458.538V641C1277 644.077 1274.54 646.538 1271.47 646.538H1152.21V667.769H1226.9C1229.97 667.769 1232.43 670.231 1232.43 673.308V683.462C1232.43 686.538 1229.97 689 1226.9 689H1035.1C1032.03 689 1029.57 686.538 1029.57 683.462V673.308C1029.57 670.231 1032.03 667.769 1035.1 667.769H1109.79V646.538H990.533C987.459 646.538 985 644.077 985 641V458.538C985 455.462 987.459 453 990.533 453H1271.47ZM1257.33 469.923H1004.67V630.231H1257.02V469.923H1257.33ZM1051.08 539.462L1047.09 535.462L1068.6 513.923L1072.6 517.923L1051.08 539.462ZM1030.18 537.615L1026.19 533.615L1066.76 493L1070.76 497L1030.18 537.615ZM1028.34 516.692L1024.34 512.692L1045.86 491.154L1049.85 495.154L1028.34 516.692Z" fill="#0893D6"/>
</g>
<g id="mouse" filter="url(#filter3_d)">
<path id="Vector_10" d="M1669 598.038C1669 603.811 1670.14 609.528 1672.35 614.861C1674.56 620.195 1677.8 625.041 1681.89 629.124C1690.14 637.368 1701.33 642 1713 642C1724.67 642 1735.86 637.368 1744.11 629.124C1752.36 620.879 1757 609.697 1757 598.038V554.004C1757 548.751 1755.96 543.549 1753.95 538.695C1751.94 533.842 1748.99 529.432 1745.27 525.717C1741.55 522.002 1737.14 519.056 1732.28 517.045C1727.43 515.035 1722.22 514 1716.96 514H1715.85V528.226C1718.13 528.849 1720.15 530.206 1721.59 532.088C1723.03 533.97 1723.81 536.273 1723.82 538.642V555.54C1723.81 557.909 1723.03 560.212 1721.59 562.094C1720.15 563.976 1718.13 565.333 1715.85 565.956V577.299C1715.85 578.053 1715.55 578.776 1715.01 579.31C1714.48 579.843 1713.75 580.143 1713 580.143C1712.24 580.143 1711.52 579.843 1710.99 579.31C1710.45 578.776 1710.15 578.053 1710.15 577.299V565.956C1707.87 565.333 1705.85 563.976 1704.41 562.094C1702.97 560.212 1702.18 557.909 1702.18 555.54V538.642C1702.18 536.273 1702.97 533.97 1704.41 532.088C1705.85 530.206 1707.87 528.849 1710.15 528.226V514H1709.04C1698.42 514 1688.24 518.215 1680.73 525.717C1673.22 533.219 1669 543.395 1669 554.004V598.038Z" fill="#0893D6"/>
<path id="Vector_11" d="M1707.61 539.678V554.499C1707.61 555.929 1708.17 557.3 1709.19 558.31C1710.2 559.321 1711.57 559.889 1713 559.889C1714.43 559.889 1715.8 559.321 1716.81 558.31C1717.83 557.3 1718.39 555.929 1718.39 554.499V539.678C1718.39 538.249 1717.83 536.878 1716.81 535.867C1715.8 534.857 1714.43 534.289 1713 534.289C1711.57 534.289 1710.2 534.857 1709.19 535.867C1708.17 536.878 1707.61 538.249 1707.61 539.678Z" fill="#E95420"/>
</g>
<g id="keyb" filter="url(#filter4_d)">
<g id="Group_2">
<path id="Vector_12" d="M1834.18 752.003H1714.17V736.703C1714.17 725.976 1705.41 717.241 1694.66 717.241H1624.43C1620.14 717.241 1616.67 713.783 1616.67 709.503V690.862C1616.67 687.638 1614.02 685 1610.79 685C1607.56 685 1604.92 687.638 1604.92 690.862V709.503C1604.92 720.231 1613.67 728.966 1624.43 728.966H1694.6C1698.89 728.966 1702.36 732.424 1702.36 736.703V752.003H1581.88C1578.64 752.003 1576 754.641 1576 757.866V883.138C1576 886.362 1578.64 889 1581.88 889H1834.12C1837.35 889 1840 886.362 1840 883.138V757.866C1840.06 754.641 1837.41 752.003 1834.18 752.003ZM1828.3 877.276H1587.81V763.728H1828.3V877.276Z" fill="#0893D6"/>
<path id="Vector_13" d="M1611.2 798.255H1619.55C1623.31 798.255 1626.31 795.207 1626.31 791.514V783.19C1626.31 779.438 1623.25 776.448 1619.55 776.448H1611.2C1607.44 776.448 1604.45 779.497 1604.45 783.19V791.514C1604.45 795.207 1607.44 798.255 1611.2 798.255Z" fill="#0893D6"/>
<path id="Vector_14" d="M1647.76 798.255H1656.1C1659.87 798.255 1662.86 795.207 1662.86 791.514V783.19C1662.86 779.438 1659.81 776.448 1656.1 776.448H1647.76C1644 776.448 1641 779.497 1641 783.19V791.514C1641 795.207 1644.06 798.255 1647.76 798.255Z" fill="#0893D6"/>
<path id="Vector_15" d="M1684.31 798.255H1692.66C1696.42 798.255 1699.42 795.207 1699.42 791.514V783.19C1699.42 779.438 1696.36 776.448 1692.66 776.448H1684.31C1680.55 776.448 1677.55 779.497 1677.55 783.19V791.514C1677.55 795.207 1680.61 798.255 1684.31 798.255Z" fill="#0893D6"/>
<path id="Vector_16" d="M1720.93 798.255H1729.27C1733.03 798.255 1736.03 795.207 1736.03 791.514V783.19C1736.03 779.438 1732.98 776.448 1729.27 776.448H1720.93C1717.17 776.448 1714.17 779.497 1714.17 783.19V791.514C1714.11 795.207 1717.17 798.255 1720.93 798.255Z" fill="#0893D6"/>
<path id="Vector_17" d="M1757.49 798.255H1765.83C1769.59 798.255 1772.59 795.207 1772.59 791.514V783.19C1772.59 779.438 1769.53 776.448 1765.83 776.448H1757.49C1753.72 776.448 1750.73 779.497 1750.73 783.19V791.514C1750.67 795.207 1753.72 798.255 1757.49 798.255Z" fill="#0893D6"/>
<path id="Vector_18" d="M1794.04 798.255H1802.39C1806.15 798.255 1809.14 795.207 1809.14 791.514V783.19C1809.14 779.438 1806.09 776.448 1802.39 776.448H1794.04C1790.28 776.448 1787.28 779.497 1787.28 783.19V791.514C1787.22 795.207 1790.28 798.255 1794.04 798.255Z" fill="#0893D6"/>
<path id="Vector_19" d="M1611.2 830.672H1619.55C1623.31 830.672 1626.31 827.624 1626.31 823.931V815.607C1626.31 811.855 1623.25 808.866 1619.55 808.866H1611.2C1607.44 808.866 1604.45 811.914 1604.45 815.607V823.931C1604.45 827.624 1607.44 830.672 1611.2 830.672Z" fill="#0893D6"/>
<path id="Vector_20" d="M1647.76 830.672H1656.1C1659.87 830.672 1662.86 827.624 1662.86 823.931V815.607C1662.86 811.855 1659.81 808.866 1656.1 808.866H1647.76C1644 808.866 1641 811.914 1641 815.607V823.931C1641 827.624 1644.06 830.672 1647.76 830.672Z" fill="#0893D6"/>
<path id="Vector_21" d="M1684.31 830.672H1692.66C1696.42 830.672 1699.42 827.624 1699.42 823.931V815.607C1699.42 811.855 1696.36 808.866 1692.66 808.866H1684.31C1680.55 808.866 1677.55 811.914 1677.55 815.607V823.931C1677.55 827.624 1680.61 830.672 1684.31 830.672Z" fill="#0893D6"/>
<path id="Vector_22" d="M1720.93 830.672H1729.27C1733.03 830.672 1736.03 827.624 1736.03 823.931V815.607C1736.03 811.855 1732.98 808.866 1729.27 808.866H1720.93C1717.17 808.866 1714.17 811.914 1714.17 815.607V823.931C1714.11 827.624 1717.17 830.672 1720.93 830.672Z" fill="#0893D6"/>
<path id="Vector_23" d="M1757.49 830.672H1765.83C1769.59 830.672 1772.59 827.624 1772.59 823.931V815.607C1772.59 811.855 1769.53 808.866 1765.83 808.866H1757.49C1753.72 808.866 1750.73 811.914 1750.73 815.607V823.931C1750.67 827.624 1753.72 830.672 1757.49 830.672Z" fill="#0893D6"/>
<path id="Vector_24" d="M1794.04 830.672H1802.39C1806.15 830.672 1809.14 827.624 1809.14 823.931V815.607C1809.14 811.855 1806.09 808.866 1802.39 808.866H1794.04C1790.28 808.866 1787.28 811.914 1787.28 815.607V823.931C1787.22 827.624 1790.28 830.672 1794.04 830.672Z" fill="#0893D6"/>
<path id="Vector_25" d="M1611.2 863.09H1619.55C1623.31 863.09 1626.31 860.041 1626.31 856.348V848.024C1626.31 844.272 1623.25 841.283 1619.55 841.283H1611.2C1607.44 841.283 1604.45 844.331 1604.45 848.024V856.348C1604.45 860.041 1607.44 863.09 1611.2 863.09Z" fill="#A4C639"/>
<path id="Vector_26" d="M1794.04 863.09H1802.39C1806.15 863.09 1809.14 860.041 1809.14 856.348V848.024C1809.14 844.272 1806.09 841.283 1802.39 841.283H1794.04C1790.28 841.283 1787.28 844.331 1787.28 848.024V856.348C1787.22 860.041 1790.28 863.09 1794.04 863.09Z" fill="#E95420"/>
<path id="Vector_27" d="M1647.76 863.09H1766.53C1770.3 863.09 1773.29 860.041 1773.29 856.348V848.024C1773.29 844.272 1770.24 841.283 1766.53 841.283H1647.76C1644 841.283 1641 844.331 1641 848.024V856.348C1641 860.041 1644.06 863.09 1647.76 863.09Z" fill="#0893D6"/>
</g>
</g>
</g>
<g id="Group 2">
<g id="cof_orange_hex 1" filter="url(#filter5_d)">
<g id="Group_3">
<path id="Vector_28" d="M734.331 690.595C734.331 768.874 670.881 832.33 592.602 832.33C514.323 832.33 450.867 768.874 450.867 690.595C450.867 612.321 514.324 548.867 592.602 548.867C670.881 548.867 734.331 612.32 734.331 690.595Z" fill="#E95420"/>
<path id="Vector_29" d="M519.042 690.595C519.042 700.659 510.883 708.82 500.812 708.82C490.753 708.82 482.594 700.66 482.594 690.595C482.594 680.535 490.753 672.376 500.812 672.376C510.883 672.376 519.042 680.535 519.042 690.595ZM622.716 779.201C627.749 787.91 638.889 790.897 647.605 785.871C656.32 780.838 659.306 769.692 654.274 760.976C649.242 752.261 638.101 749.281 629.386 754.313C620.67 759.346 617.684 770.486 622.716 779.201ZM654.273 620.219C659.305 611.502 656.325 600.359 647.604 595.332C638.894 590.3 627.749 593.286 622.715 601.999C617.683 610.714 620.669 621.856 629.385 626.888C638.101 631.92 649.247 628.934 654.273 620.219ZM592.601 638.632C619.754 638.632 642.035 659.446 644.362 685.996L670.734 685.58C669.482 665.853 660.925 648.111 647.739 635.029C640.759 637.722 632.66 637.356 625.673 633.319C618.681 629.282 614.314 622.448 613.159 615.044C606.605 613.264 599.711 612.311 592.601 612.311C580.13 612.311 568.342 615.227 557.874 620.414L570.706 643.457C577.356 640.367 584.783 638.632 592.601 638.632ZM540.632 690.595C540.632 673.018 549.366 657.474 562.729 648.075L549.189 625.441C533.505 635.915 521.822 651.892 516.893 670.624C522.726 675.321 526.463 682.521 526.463 690.596C526.463 698.676 522.725 705.876 516.893 710.574C521.822 729.305 533.505 745.282 549.189 755.762L562.729 733.128C549.366 723.722 540.632 708.184 540.632 690.595ZM592.601 742.568C584.784 742.568 577.357 740.834 570.706 737.738L557.874 760.781C568.342 765.972 580.129 768.885 592.601 768.885C599.71 768.885 606.605 767.939 613.159 766.156C614.313 758.747 618.68 751.913 625.673 747.883C632.66 743.846 640.759 743.479 647.739 746.172C660.926 733.084 669.482 715.342 670.734 695.615L644.362 695.206C642.034 721.749 619.754 742.568 592.601 742.568Z" fill="white"/>
</g>
</g>
<g id="linux" filter="url(#filter6_d)">
<g id="Group_4">
<g id="Group_5">
<path id="Vector_30" d="M257 832C337.634 832 403 766.634 403 686C403 605.366 337.634 540 257 540C176.366 540 111 605.366 111 686C111 766.634 176.366 832 257 832Z" fill="#F88909"/>
</g>
</g>
<path id="Vector_31" d="M242.978 634.024C240.934 634.316 241.81 636.068 240.642 636.068C239.766 636.068 239.766 633.732 242.978 634.024ZM249.11 634.316C250.862 633.732 251.154 635.776 252.03 635.484C252.906 635.192 252.03 633.148 249.11 634.316ZM314.226 759.292C308.386 762.212 300.794 768.636 297.874 771.556C295.83 773.6 287.07 774.476 282.106 772.14C276.266 769.22 279.478 764.548 270.426 764.256C266.046 764.256 261.666 764.256 257.286 764.256C253.49 764.256 249.694 764.548 245.606 764.548C232.174 764.548 230.714 773.308 222.246 773.016C216.406 772.724 209.106 768.052 196.258 765.424C187.206 763.672 178.738 763.088 176.986 759.292C175.234 755.496 179.322 750.824 179.614 747.028C179.906 741.772 175.818 735.056 178.738 732.136C181.366 729.8 186.914 731.552 190.418 729.508C194.214 727.464 195.966 725.712 195.966 720.748C197.426 725.42 195.966 729.508 192.754 731.552C191.002 732.72 187.206 733.304 184.578 733.012C182.242 732.72 180.782 733.304 180.198 734.18C179.322 735.348 179.614 737.392 180.782 740.02C181.95 742.648 183.118 744.4 183.118 747.612C182.826 750.824 179.322 754.62 179.906 757.54C180.198 758.708 181.074 759.584 183.702 760.168C187.79 761.336 195.09 762.504 202.39 764.256C210.274 766.3 218.742 769.804 223.706 769.22C239.182 767.176 230.422 750.532 227.794 746.736C214.946 726.296 206.186 712.864 199.47 718.12C197.718 719.58 197.718 714.616 197.718 712.864C198.01 706.148 201.514 703.812 203.558 698.556C207.354 688.628 210.274 677.532 216.114 671.692C220.494 666.144 227.21 656.8 228.67 652.128C227.502 641.616 227.21 630.52 227.21 620.592C226.918 610.372 228.67 601.028 240.35 594.896C243.27 593.436 246.774 592.852 250.862 592.852C257.87 592.852 265.754 594.604 270.426 598.4C278.31 604.24 283.274 616.796 282.69 625.556C282.106 632.564 283.566 639.572 285.61 647.164C288.238 655.924 292.326 662.056 299.042 669.356C306.926 677.824 313.35 694.468 315.102 705.272C316.854 715.2 314.518 721.332 312.474 721.624C309.262 722.208 307.218 732.428 296.998 731.844C290.574 731.552 289.99 727.756 288.238 724.544C285.318 719.288 282.398 721.04 281.23 726.296C280.646 728.924 280.938 733.012 281.814 736.224C283.566 742.648 282.982 748.488 281.814 755.788C279.77 769.804 291.45 772.432 299.626 765.716C307.51 759.292 309.262 758.124 319.19 754.62C334.374 749.364 329.118 744.984 321.234 742.064C313.934 739.728 313.642 727.464 316.27 725.128C316.854 738.268 323.57 740.312 326.49 742.064C338.754 749.364 321.526 755.788 314.226 759.292ZM280.938 720.748C282.398 718.996 283.858 718.996 286.194 718.996C286.486 711.112 299.042 711.696 303.13 714.908C303.13 713.156 299.334 711.404 297.582 710.528C300.21 701.476 299.042 697.972 297.29 689.212C295.83 682.788 289.99 674.028 285.318 671.108C286.486 672.276 288.822 675.196 291.158 679.576C295.246 687.168 299.334 698.264 296.706 707.608C295.538 711.112 293.202 711.696 291.742 711.696C284.442 712.572 288.822 703.228 285.902 690.672C282.69 676.656 279.186 675.488 278.31 674.32C274.222 655.924 269.55 657.676 268.382 650.96C267.214 644.828 273.638 639.864 264.878 638.112C262.25 637.528 258.454 634.9 256.702 634.608C255.242 634.316 254.366 624.388 259.914 624.096C265.462 623.804 266.63 630.52 265.462 633.148C264.002 635.776 265.462 636.652 268.382 635.776C270.718 635.192 269.258 629.06 269.842 628.184C268.382 619.716 264.878 618.548 261.082 617.964C247.066 619.132 253.49 634.316 252.03 632.856C249.986 630.812 244.146 632.856 244.146 631.396C244.146 623.512 241.518 618.84 238.014 618.84C233.926 618.84 232.174 624.388 232.174 627.6C231.882 630.52 233.926 636.944 235.386 636.652C236.262 636.36 238.014 634.316 236.262 634.316C235.386 634.316 233.926 632.272 233.926 629.644C233.926 627.016 234.802 624.388 238.306 624.388C242.394 624.68 242.394 632.272 241.81 632.856C240.642 633.732 238.89 635.484 238.598 635.776C237.43 637.82 234.802 638.404 233.926 639.28C232.174 641.032 231.882 643.076 233.05 643.952C237.722 646.58 236.262 649.5 242.686 649.792C246.774 650.084 249.986 649.208 252.906 648.332C255.242 647.748 262.25 645.996 264.002 643.368C264.586 642.2 265.462 642.2 266.046 642.492C266.922 643.076 267.214 644.828 264.586 645.704C261.082 646.58 257.286 648.624 254.366 649.792C251.154 650.96 250.278 651.544 247.358 652.128C240.642 653.296 235.678 649.792 240.35 654.172C241.81 655.632 243.27 656.508 247.066 656.508C255.534 656.216 264.878 645.996 265.754 650.668C266.046 651.544 263.126 653.004 260.79 653.88C252.906 657.676 247.358 665.56 242.394 662.64C237.722 660.304 233.342 648.916 233.342 654.172C233.342 662.056 223.122 668.772 227.794 677.532C224.582 678.408 217.574 693.3 216.698 700.892C216.114 705.272 216.99 710.82 216.114 713.74C214.654 718.12 207.646 709.652 209.982 698.848C210.274 697.096 209.982 696.512 209.398 697.388C206.478 702.352 208.23 709.36 210.274 714.032C211.15 716.076 213.486 716.952 215.238 718.996C218.742 723.084 232.758 733.304 235.094 735.932C238.014 738.852 237.43 745.86 230.714 746.444C233.926 752.576 237.138 753.16 237.138 763.672C240.934 761.628 239.474 757.248 237.722 754.328C236.554 752.284 235.094 751.408 235.386 751.116C235.678 750.824 237.43 749.072 238.598 750.532C242.102 754.328 248.526 754.912 255.534 754.328C262.542 753.452 269.842 751.116 273.346 745.568C275.098 742.94 275.974 742.064 276.85 742.648C277.726 743.232 278.018 744.984 277.726 747.904C277.726 751.116 276.266 754.62 275.39 757.248C274.514 760.46 274.222 762.504 277.142 762.504C278.018 756.956 279.478 751.116 280.062 745.568C280.354 738.852 275.682 726.88 280.938 720.748ZM238.306 629.644C238.014 630.812 238.306 631.688 239.182 631.688C239.182 631.688 239.474 631.688 239.474 631.396C239.766 628.768 238.598 627.016 238.014 627.016C236.846 626.724 236.846 628.476 237.43 628.476C238.014 628.184 238.598 628.768 238.306 629.644ZM261.082 626.14C259.914 626.14 260.206 627.016 260.79 627.016C261.666 627.308 262.25 628.768 262.542 630.228C262.542 630.228 263.71 629.936 263.71 629.644C264.002 627.308 261.666 626.14 261.082 626.14Z" fill="#222222"/>
</g>
</g>
</g>
<defs>
<filter id="filter0_d" x="1132" y="736" width="359" height="256" filterUnits="userSpaceOnUse" color-interpolation-filters="sRGB">
<feFlood flood-opacity="0" result="BackgroundImageFix"/>
<feColorMatrix in="SourceAlpha" type="matrix" values="0 0 0 0 0 0 0 0 0 0 0 0 0 0 0 0 0 0 127 0"/>
<feOffset dx="11" dy="11"/>
<feGaussianBlur stdDeviation="13.5"/>
<feColorMatrix type="matrix" values="0 0 0 0 0 0 0 0 0 0 0 0 0 0 0 0 0 0 0.5 0"/>
<feBlend mode="normal" in2="BackgroundImageFix" result="effect1_dropShadow"/>
<feBlend mode="normal" in="SourceGraphic" in2="effect1_dropShadow" result="shape"/>
</filter>
<filter id="filter1_d" x="1373" y="394" width="192" height="329" filterUnits="userSpaceOnUse" color-interpolation-filters="sRGB">
<feFlood flood-opacity="0" result="BackgroundImageFix"/>
<feColorMatrix in="SourceAlpha" type="matrix" values="0 0 0 0 0 0 0 0 0 0 0 0 0 0 0 0 0 0 127 0"/>
<feOffset dx="11" dy="11"/>
<feGaussianBlur stdDeviation="13.5"/>
<feColorMatrix type="matrix" values="0 0 0 0 0 0 0 0 0 0 0 0 0 0 0 0 0 0 0.5 0"/>
<feBlend mode="normal" in2="BackgroundImageFix" result="effect1_dropShadow"/>
<feBlend mode="normal" in="SourceGraphic" in2="effect1_dropShadow" result="shape"/>
</filter>
<filter id="filter2_d" x="969" y="437" width="346" height="290" filterUnits="userSpaceOnUse" color-interpolation-filters="sRGB">
<feFlood flood-opacity="0" result="BackgroundImageFix"/>
<feColorMatrix in="SourceAlpha" type="matrix" values="0 0 0 0 0 0 0 0 0 0 0 0 0 0 0 0 0 0 127 0"/>
<feOffset dx="11" dy="11"/>
<feGaussianBlur stdDeviation="13.5"/>
<feColorMatrix type="matrix" values="0 0 0 0 0 0 0 0 0 0 0 0 0 0 0 0 0 0 0.5 0"/>
<feBlend mode="normal" in2="BackgroundImageFix" result="effect1_dropShadow"/>
<feBlend mode="normal" in="SourceGraphic" in2="effect1_dropShadow" result="shape"/>
</filter>
<filter id="filter3_d" x="1653" y="498" width="142" height="182" filterUnits="userSpaceOnUse" color-interpolation-filters="sRGB">
<feFlood flood-opacity="0" result="BackgroundImageFix"/>
<feColorMatrix in="SourceAlpha" type="matrix" values="0 0 0 0 0 0 0 0 0 0 0 0 0 0 0 0 0 0 127 0"/>
<feOffset dx="11" dy="11"/>
<feGaussianBlur stdDeviation="13.5"/>
<feColorMatrix type="matrix" values="0 0 0 0 0 0 0 0 0 0 0 0 0 0 0 0 0 0 0.5 0"/>
<feBlend mode="normal" in2="BackgroundImageFix" result="effect1_dropShadow"/>
<feBlend mode="normal" in="SourceGraphic" in2="effect1_dropShadow" result="shape"/>
</filter>
<filter id="filter4_d" x="1560" y="669" width="318" height="258" filterUnits="userSpaceOnUse" color-interpolation-filters="sRGB">
<feFlood flood-opacity="0" result="BackgroundImageFix"/>
<feColorMatrix in="SourceAlpha" type="matrix" values="0 0 0 0 0 0 0 0 0 0 0 0 0 0 0 0 0 0 127 0"/>
<feOffset dx="11" dy="11"/>
<feGaussianBlur stdDeviation="13.5"/>
<feColorMatrix type="matrix" values="0 0 0 0 0 0 0 0 0 0 0 0 0 0 0 0 0 0 0.5 0"/>
<feBlend mode="normal" in2="BackgroundImageFix" result="effect1_dropShadow"/>
<feBlend mode="normal" in="SourceGraphic" in2="effect1_dropShadow" result="shape"/>
</filter>
<filter id="filter5_d" x="364" y="462" width="479.197" height="479.197" filterUnits="userSpaceOnUse" color-interpolation-filters="sRGB">
<feFlood flood-opacity="0" result="BackgroundImageFix"/>
<feColorMatrix in="SourceAlpha" type="matrix" values="0 0 0 0 0 0 0 0 0 0 0 0 0 0 0 0 0 0 127 0"/>
<feOffset dx="11" dy="11"/>
<feGaussianBlur stdDeviation="13.5"/>
<feColorMatrix type="matrix" values="0 0 0 0 0 0 0 0 0 0 0 0 0 0 0 0 0 0 0.5 0"/>
<feBlend mode="normal" in2="BackgroundImageFix" result="effect1_dropShadow"/>
<feBlend mode="normal" in="SourceGraphic" in2="effect1_dropShadow" result="shape"/>
</filter>
<filter id="filter6_d" x="95" y="524" width="346" height="346" filterUnits="userSpaceOnUse" color-interpolation-filters="sRGB">
<feFlood flood-opacity="0" result="BackgroundImageFix"/>
<feColorMatrix in="SourceAlpha" type="matrix" values="0 0 0 0 0 0 0 0 0 0 0 0 0 0 0 0 0 0 127 0"/>
<feOffset dx="11" dy="11"/>
<feGaussianBlur stdDeviation="13.5"/>
<feColorMatrix type="matrix" values="0 0 0 0 0 0 0 0 0 0 0 0 0 0 0 0 0 0 0.5 0"/>
<feBlend mode="normal" in2="BackgroundImageFix" result="effect1_dropShadow"/>
<feBlend mode="normal" in="SourceGraphic" in2="effect1_dropShadow" result="shape"/>
</filter>
<linearGradient id="paint0_linear" x1="948.605" y1="-540" x2="31.2584" y2="1110.2" gradientUnits="userSpaceOnUse">
<stop stop-color="#0B0B0B" stop-opacity="0.01"/>
<stop offset="1"/>
</linearGradient>
</defs>
</svg>
