<svg width="1920" height="1080" viewBox="0 0 1920 1080" fill="none" xmlns="http://www.w3.org/2000/svg">
<g clip-path="url(#clip0_1338_2)">
<path d="M1920 0H0V1080H1920V0Z" fill="url(#paint0_linear_1338_2)" fill-opacity="0.5"/>
<path d="M108.732 120.924V159.095C108.732 162.894 107.953 166.243 106.395 169.14C104.864 172.037 102.691 174.292 99.8756 175.905C97.0876 177.518 93.7939 178.324 89.9946 178.324C86.1132 178.324 82.7786 177.518 79.9906 175.905C77.2299 174.265 75.1116 171.996 73.6356 169.099C72.1596 166.202 71.4216 162.867 71.4216 159.095V120.924H78.4736V159.341C78.4736 163.632 79.4712 166.844 81.4666 168.976C83.4892 171.108 86.3319 172.174 89.9946 172.174C93.6846 172.174 96.5272 171.108 98.5226 168.976C100.545 166.844 101.557 163.632 101.557 159.341V120.924H108.732ZM129.774 139.825C131.359 137.748 133.177 136.149 135.227 135.028C137.304 133.88 139.586 133.306 142.074 133.306C145.928 133.306 149.044 134.235 151.422 136.094C153.8 137.953 155.535 140.577 156.629 143.966C157.722 147.328 158.269 151.264 158.269 155.774C158.269 160.12 157.613 164.001 156.301 167.418C154.989 170.807 153.062 173.472 150.52 175.413C148.005 177.354 144.889 178.324 141.172 178.324C136.17 178.324 132.247 176.52 129.405 172.912L128.913 177.381H122.886V116.824L129.774 115.963V139.825ZM139.532 172.748C143.14 172.748 145.914 171.354 147.855 168.566C149.795 165.778 150.766 161.5 150.766 155.733C150.766 151.961 150.383 148.831 149.618 146.344C148.852 143.829 147.704 141.957 146.174 140.727C144.67 139.47 142.812 138.841 140.598 138.841C138.192 138.841 136.074 139.565 134.243 141.014C132.439 142.435 130.949 144.021 129.774 145.77V167.172C130.894 168.867 132.302 170.22 133.997 171.231C135.719 172.242 137.564 172.748 139.532 172.748ZM178.942 134.208V164.794C178.942 167.637 179.529 169.687 180.705 170.944C181.88 172.201 183.711 172.83 186.199 172.83C188.577 172.83 190.818 172.16 192.923 170.821C195.055 169.454 196.708 167.842 197.884 165.983V134.208H204.772V177.381H198.909L198.335 171.559C196.64 173.746 194.549 175.427 192.062 176.602C189.574 177.75 187.06 178.324 184.517 178.324C180.336 178.324 177.206 177.217 175.129 175.003C173.079 172.762 172.054 169.632 172.054 165.614V134.208H178.942ZM221.221 177.381V134.208H227.084L227.617 140.194C229.367 137.98 231.553 136.285 234.177 135.11C236.829 133.907 239.398 133.306 241.885 133.306C246.122 133.306 249.197 134.427 251.11 136.668C253.051 138.909 254.021 142.025 254.021 146.016V177.381H247.133V151.1C247.133 148.148 246.969 145.77 246.641 143.966C246.313 142.135 245.63 140.809 244.591 139.989C243.553 139.142 241.94 138.718 239.753 138.718C238.059 138.718 236.46 139.087 234.956 139.825C233.48 140.563 232.155 141.492 230.979 142.613C229.831 143.706 228.875 144.813 228.109 145.934V177.381H221.221ZM304.665 175.208C303.189 176.192 301.399 176.957 299.294 177.504C297.19 178.051 295.126 178.324 293.103 178.324C288.457 178.324 284.876 177.108 282.361 174.675C279.847 172.242 278.589 169.113 278.589 165.286V139.538H268.667V134.208H278.589V124.409L285.477 123.589V134.208H300.401L299.581 139.538H285.477V165.204C285.477 167.609 286.106 169.441 287.363 170.698C288.648 171.955 290.766 172.584 293.718 172.584C295.331 172.584 296.821 172.393 298.187 172.01C299.554 171.627 300.825 171.135 302 170.534L304.665 175.208ZM326.445 134.208V164.794C326.445 167.637 327.033 169.687 328.208 170.944C329.384 172.201 331.215 172.83 333.702 172.83C336.08 172.83 338.322 172.16 340.426 170.821C342.558 169.454 344.212 167.842 345.387 165.983V134.208H352.275V177.381H346.412L345.838 171.559C344.144 173.746 342.053 175.427 339.565 176.602C337.078 177.75 334.563 178.324 332.021 178.324C327.839 178.324 324.71 177.217 322.632 175.003C320.582 172.762 319.557 169.632 319.557 165.614V134.208H326.445ZM431.751 120.022C435.305 120.022 438.339 120.705 440.853 122.072C443.395 123.439 445.35 125.311 446.716 127.689C448.083 130.067 448.766 132.759 448.766 135.766C448.766 138.363 448.315 140.905 447.413 143.392C446.511 145.852 445.063 148.449 443.067 151.182C441.099 153.888 438.503 156.895 435.277 160.202C432.079 163.509 428.143 167.281 423.469 171.518H450.078L449.217 177.381H415.638V171.764C419.902 167.691 423.524 164.124 426.503 161.063C429.51 158.002 431.984 155.323 433.924 153.027C435.892 150.704 437.423 148.599 438.516 146.713C439.637 144.827 440.416 143.037 440.853 141.342C441.291 139.62 441.509 137.843 441.509 136.012C441.509 132.841 440.607 130.34 438.803 128.509C437.027 126.678 434.567 125.762 431.423 125.762C428.635 125.762 426.353 126.24 424.576 127.197C422.8 128.154 421.023 129.684 419.246 131.789L414.49 128.099C416.732 125.366 419.219 123.343 421.952 122.031C424.686 120.692 427.952 120.022 431.751 120.022ZM481.288 120.022L487.028 122.441L472.022 158.152H502.157V163.646H464.724V158.644L481.288 120.022ZM494.859 142.121V177.381H488.217L488.176 159.464L489.119 142.121H494.859ZM525.331 171.067C525.331 169.728 525.646 168.525 526.274 167.459C526.903 166.366 527.75 165.505 528.816 164.876C529.91 164.22 531.14 163.892 532.506 163.892C533.9 163.892 535.144 164.22 536.237 164.876C537.331 165.505 538.192 166.366 538.82 167.459C539.449 168.525 539.763 169.728 539.763 171.067C539.763 172.406 539.449 173.636 538.82 174.757C538.192 175.85 537.331 176.725 536.237 177.381C535.144 178.01 533.9 178.324 532.506 178.324C531.14 178.324 529.91 178.01 528.816 177.381C527.75 176.725 526.903 175.85 526.274 174.757C525.646 173.636 525.331 172.406 525.331 171.067ZM581.756 120.022C587.852 120.022 592.457 122.537 595.573 127.566C598.689 132.595 600.247 139.784 600.247 149.132C600.247 158.507 598.689 165.723 595.573 170.78C592.457 175.809 587.852 178.324 581.756 178.324C575.688 178.324 571.083 175.809 567.939 170.78C564.823 165.723 563.265 158.507 563.265 149.132C563.265 139.784 564.823 132.595 567.939 127.566C571.083 122.537 575.688 120.022 581.756 120.022ZM581.756 125.557C578.285 125.557 575.552 127.402 573.556 131.092C571.561 134.755 570.563 140.768 570.563 149.132C570.563 153.369 570.782 156.99 571.219 159.997C571.657 163.004 572.326 165.45 573.228 167.336C574.158 169.195 575.319 170.561 576.713 171.436C578.135 172.311 579.816 172.748 581.756 172.748C584.107 172.748 586.116 171.942 587.783 170.329C589.478 168.716 590.763 166.174 591.637 162.703C592.539 159.204 592.99 154.681 592.99 149.132C592.99 143.501 592.594 138.95 591.801 135.479C591.036 132.008 589.82 129.493 588.152 127.935C586.512 126.35 584.38 125.557 581.756 125.557ZM590.079 127.566L591.883 133.593L573.925 169.96L571.383 165.163L590.079 127.566ZM628.792 120.022L634.532 122.441L619.526 158.152H649.661V163.646H612.228V158.644L628.792 120.022ZM642.363 142.121V177.381H635.721L635.68 159.464L636.623 142.121H642.363ZM727.579 172.625C730.886 172.625 733.497 172.01 735.41 170.78C737.351 169.523 738.321 167.855 738.321 165.778C738.321 164.466 738.075 163.332 737.583 162.375C737.118 161.418 736.148 160.557 734.672 159.792C733.196 159.027 730.927 158.261 727.866 157.496C724.887 156.758 722.29 155.911 720.076 154.954C717.889 153.97 716.181 152.699 714.951 151.141C713.748 149.583 713.147 147.56 713.147 145.073C713.147 142.64 713.83 140.549 715.197 138.8C716.591 137.023 718.518 135.67 720.978 134.741C723.438 133.784 726.294 133.306 729.547 133.306C733.018 133.306 736.039 133.771 738.608 134.7C741.205 135.602 743.405 136.723 745.209 138.062L742.175 142.736C740.535 141.615 738.731 140.7 736.763 139.989C734.795 139.251 732.417 138.882 729.629 138.882C726.24 138.882 723.834 139.415 722.413 140.481C720.992 141.52 720.281 142.873 720.281 144.54C720.281 145.797 720.623 146.85 721.306 147.697C722.017 148.517 723.206 149.269 724.873 149.952C726.54 150.608 728.836 151.332 731.761 152.125C734.576 152.863 737.023 153.751 739.1 154.79C741.205 155.829 742.845 157.195 744.02 158.89C745.195 160.585 745.783 162.771 745.783 165.45C745.783 168.511 744.908 170.999 743.159 172.912C741.41 174.798 739.141 176.178 736.353 177.053C733.592 177.9 730.668 178.324 727.579 178.324C723.67 178.324 720.336 177.764 717.575 176.643C714.842 175.495 712.546 174.115 710.687 172.502L714.623 167.951C716.318 169.345 718.258 170.479 720.445 171.354C722.659 172.201 725.037 172.625 727.579 172.625ZM767.481 158.234C767.618 161.569 768.26 164.302 769.408 166.434C770.556 168.539 772.073 170.097 773.959 171.108C775.845 172.092 777.895 172.584 780.109 172.584C782.323 172.584 784.318 172.256 786.095 171.6C787.899 170.944 789.744 169.974 791.63 168.689L794.869 173.24C792.846 174.825 790.537 176.069 787.94 176.971C785.371 177.873 782.733 178.324 780.027 178.324C775.845 178.324 772.278 177.381 769.326 175.495C766.374 173.609 764.119 170.985 762.561 167.623C761.03 164.234 760.265 160.311 760.265 155.856C760.265 151.483 761.044 147.601 762.602 144.212C764.16 140.823 766.347 138.158 769.162 136.217C771.977 134.276 775.298 133.306 779.125 133.306C782.76 133.306 785.89 134.167 788.514 135.889C791.138 137.584 793.147 140.016 794.541 143.187C795.962 146.33 796.673 150.089 796.673 154.462C796.673 155.2 796.659 155.897 796.632 156.553C796.605 157.182 796.564 157.742 796.509 158.234H767.481ZM779.207 138.964C776.009 138.964 773.33 140.098 771.171 142.367C769.039 144.636 767.823 148.148 767.522 152.904H790.031C789.949 148.285 788.938 144.813 786.997 142.49C785.056 140.139 782.46 138.964 779.207 138.964ZM845.513 175.208C844.037 176.192 842.247 176.957 840.142 177.504C838.037 178.051 835.974 178.324 833.951 178.324C829.304 178.324 825.724 177.108 823.209 174.675C820.694 172.242 819.437 169.113 819.437 165.286V139.538H809.515V134.208H819.437V124.409L826.325 123.589V134.208H841.249L840.429 139.538H826.325V165.204C826.325 167.609 826.954 169.441 828.211 170.698C829.496 171.955 831.614 172.584 834.566 172.584C836.179 172.584 837.668 172.393 839.035 172.01C840.402 171.627 841.673 171.135 842.848 170.534L845.513 175.208ZM867.293 134.208V164.794C867.293 167.637 867.881 169.687 869.056 170.944C870.231 172.201 872.063 172.83 874.55 172.83C876.928 172.83 879.169 172.16 881.274 170.821C883.406 169.454 885.06 167.842 886.235 165.983V134.208H893.123V177.381H887.26L886.686 171.559C884.991 173.746 882.9 175.427 880.413 176.602C877.926 177.75 875.411 178.324 872.869 178.324C868.687 178.324 865.557 177.217 863.48 175.003C861.43 172.762 860.405 169.632 860.405 165.614V134.208H867.293ZM928.884 133.306C932.711 133.306 935.758 134.235 938.027 136.094C940.323 137.953 941.977 140.577 942.988 143.966C943.999 147.328 944.505 151.264 944.505 155.774C944.505 160.12 943.89 164.001 942.66 167.418C941.457 170.807 939.626 173.472 937.166 175.413C934.706 177.354 931.604 178.324 927.859 178.324C923.13 178.324 919.331 176.657 916.461 173.322V193.904L909.573 194.765V134.208H915.436L916.01 140.235C917.595 138.021 919.481 136.313 921.668 135.11C923.882 133.907 926.287 133.306 928.884 133.306ZM927.244 138.841C924.866 138.841 922.761 139.565 920.93 141.014C919.126 142.435 917.636 144.021 916.461 145.77V167.172C917.582 168.839 918.989 170.165 920.684 171.149C922.406 172.106 924.292 172.584 926.342 172.584C929.923 172.584 932.615 171.217 934.419 168.484C936.223 165.751 937.125 161.5 937.125 155.733C937.125 151.961 936.77 148.831 936.059 146.344C935.348 143.829 934.269 141.957 932.82 140.727C931.371 139.47 929.513 138.841 927.244 138.841ZM1038.82 167.951C1038.82 169.673 1039.11 170.93 1039.68 171.723C1040.26 172.516 1041.15 173.103 1042.35 173.486L1040.67 178.324C1038.81 178.078 1037.18 177.49 1035.79 176.561C1034.39 175.604 1033.38 174.169 1032.75 172.256C1031.2 174.251 1029.26 175.768 1026.93 176.807C1024.61 177.818 1022.04 178.324 1019.22 178.324C1014.91 178.324 1011.5 177.108 1009.02 174.675C1006.53 172.242 1005.28 169.017 1005.28 164.999C1005.28 160.544 1007.02 157.127 1010.49 154.749C1013.96 152.371 1018.98 151.182 1025.54 151.182H1031.89V147.574C1031.89 144.458 1030.98 142.258 1029.15 140.973C1027.34 139.661 1024.83 139.005 1021.6 139.005C1020.18 139.005 1018.51 139.183 1016.6 139.538C1014.69 139.866 1012.61 140.426 1010.37 141.219L1008.56 136.012C1011.22 135.028 1013.7 134.331 1016.03 133.921C1018.35 133.511 1020.56 133.306 1022.67 133.306C1028.05 133.306 1032.09 134.563 1034.76 137.078C1037.47 139.565 1038.82 142.955 1038.82 147.246V167.951ZM1020.99 173.076C1023.12 173.076 1025.16 172.543 1027.1 171.477C1029.04 170.384 1030.64 168.88 1031.89 166.967V155.856H1025.66C1020.91 155.856 1017.54 156.676 1015.58 158.316C1013.64 159.956 1012.66 162.156 1012.66 164.917C1012.66 167.596 1013.35 169.632 1014.71 171.026C1016.11 172.393 1018.2 173.076 1020.99 173.076ZM1057.08 177.381V134.208H1062.94L1063.47 140.194C1065.22 137.98 1067.41 136.285 1070.03 135.11C1072.68 133.907 1075.25 133.306 1077.74 133.306C1081.98 133.306 1085.05 134.427 1086.97 136.668C1088.91 138.909 1089.88 142.025 1089.88 146.016V177.381H1082.99V151.1C1082.99 148.148 1082.82 145.77 1082.5 143.966C1082.17 142.135 1081.49 140.809 1080.45 139.989C1079.41 139.142 1077.8 138.718 1075.61 138.718C1073.91 138.718 1072.32 139.087 1070.81 139.825C1069.34 140.563 1068.01 141.492 1066.83 142.613C1065.69 143.706 1064.73 144.813 1063.96 145.934V177.381H1057.08ZM1132.07 115.963L1138.96 116.824V177.381H1132.94L1132.28 171.682C1130.67 173.978 1128.81 175.659 1126.7 176.725C1124.63 177.791 1122.4 178.324 1120.02 178.324C1116.28 178.324 1113.19 177.381 1110.75 175.495C1108.32 173.609 1106.52 170.985 1105.34 167.623C1104.17 164.234 1103.58 160.311 1103.58 155.856C1103.58 151.537 1104.25 147.683 1105.59 144.294C1106.93 140.877 1108.86 138.199 1111.37 136.258C1113.91 134.29 1116.96 133.306 1120.51 133.306C1123 133.306 1125.19 133.743 1127.07 134.618C1128.96 135.465 1130.63 136.723 1132.07 138.39V115.963ZM1122.32 138.841C1118.71 138.841 1115.93 140.249 1113.99 143.064C1112.05 145.879 1111.08 150.143 1111.08 155.856C1111.08 159.573 1111.48 162.689 1112.27 165.204C1113.06 167.719 1114.23 169.605 1115.76 170.862C1117.31 172.119 1119.21 172.748 1121.46 172.748C1123.92 172.748 1126.01 172.051 1127.73 170.657C1129.48 169.263 1130.93 167.691 1132.07 165.942V144.376C1130.9 142.627 1129.48 141.274 1127.81 140.317C1126.14 139.333 1124.31 138.841 1122.32 138.841ZM1224.1 172.379C1226.26 172.379 1228.27 172.024 1230.12 171.313C1232.01 170.602 1233.75 169.7 1235.33 168.607L1238.69 173.117C1236.81 174.73 1234.54 176.001 1231.89 176.93C1229.24 177.859 1226.64 178.324 1224.1 178.324C1219.81 178.324 1216.14 177.408 1213.11 175.577C1210.1 173.718 1207.81 171.122 1206.22 167.787C1204.64 164.425 1203.84 160.489 1203.84 155.979C1203.84 151.66 1204.64 147.793 1206.22 144.376C1207.83 140.932 1210.14 138.226 1213.15 136.258C1216.18 134.29 1219.86 133.306 1224.18 133.306C1226.94 133.306 1229.52 133.73 1231.93 134.577C1234.36 135.397 1236.59 136.641 1238.61 138.308L1235.25 142.9C1233.42 141.615 1231.57 140.659 1229.71 140.03C1227.88 139.374 1226.01 139.046 1224.1 139.046C1220.38 139.046 1217.32 140.44 1214.91 143.228C1212.51 146.016 1211.3 150.266 1211.3 155.979C1211.3 159.806 1211.85 162.935 1212.94 165.368C1214.07 167.773 1215.58 169.55 1217.5 170.698C1219.44 171.819 1221.64 172.379 1224.1 172.379ZM1270.19 133.306C1274.26 133.306 1277.67 134.235 1280.4 136.094C1283.16 137.925 1285.22 140.522 1286.59 143.884C1287.98 147.246 1288.68 151.209 1288.68 155.774C1288.68 160.175 1287.97 164.07 1286.55 167.459C1285.13 170.848 1283.04 173.513 1280.28 175.454C1277.54 177.367 1274.15 178.324 1270.11 178.324C1266.06 178.324 1262.66 177.395 1259.9 175.536C1257.14 173.677 1255.05 171.067 1253.63 167.705C1252.23 164.316 1251.53 160.366 1251.53 155.856C1251.53 151.401 1252.25 147.478 1253.67 144.089C1255.09 140.7 1257.18 138.062 1259.94 136.176C1262.73 134.263 1266.14 133.306 1270.19 133.306ZM1270.19 138.923C1266.47 138.923 1263.66 140.303 1261.74 143.064C1259.86 145.797 1258.91 150.061 1258.91 155.856C1258.91 161.541 1259.84 165.764 1261.7 168.525C1263.59 171.286 1266.39 172.666 1270.11 172.666C1273.83 172.666 1276.61 171.286 1278.47 168.525C1280.36 165.764 1281.3 161.514 1281.3 155.774C1281.3 150.034 1280.37 145.797 1278.51 143.064C1276.65 140.303 1273.88 138.923 1270.19 138.923ZM1302.92 177.381V134.208H1308.78L1309.31 140.194C1311.06 137.98 1313.25 136.285 1315.87 135.11C1318.52 133.907 1321.09 133.306 1323.58 133.306C1327.82 133.306 1330.89 134.427 1332.81 136.668C1334.75 138.909 1335.72 142.025 1335.72 146.016V177.381H1328.83V151.1C1328.83 148.148 1328.66 145.77 1328.34 143.966C1328.01 142.135 1327.33 140.809 1326.29 139.989C1325.25 139.142 1323.64 138.718 1321.45 138.718C1319.75 138.718 1318.16 139.087 1316.65 139.825C1315.18 140.563 1313.85 141.492 1312.67 142.613C1311.53 143.706 1310.57 144.813 1309.8 145.934V177.381H1302.92ZM1377.59 115.963C1379.91 115.963 1382.01 116.168 1383.9 116.578C1385.79 116.988 1387.58 117.562 1389.27 118.3L1387.06 123.425C1385.66 122.824 1384.19 122.373 1382.63 122.072C1381.07 121.771 1379.46 121.621 1377.79 121.621C1374.79 121.621 1372.52 122.209 1370.99 123.384C1369.48 124.559 1368.73 126.363 1368.73 128.796V137.57H1383.37L1382.63 142.982H1368.73V177.381H1361.84V142.982H1351.55V137.57H1361.84V128.96C1361.84 126.281 1362.53 123.972 1363.89 122.031C1365.29 120.09 1367.17 118.601 1369.55 117.562C1371.93 116.496 1374.61 115.963 1377.59 115.963ZM1423.11 137.57V171.928H1435.28V177.381H1402.89V171.928H1416.22V142.982H1403.3V137.57H1423.11ZM1417.61 116.988C1419.14 116.988 1420.36 117.453 1421.26 118.382C1422.19 119.311 1422.65 120.446 1422.65 121.785C1422.65 123.179 1422.19 124.354 1421.26 125.311C1420.36 126.24 1419.14 126.705 1417.61 126.705C1416.16 126.705 1414.97 126.24 1414.04 125.311C1413.12 124.354 1412.65 123.179 1412.65 121.785C1412.65 120.446 1413.12 119.311 1414.04 118.382C1414.97 117.453 1416.16 116.988 1417.61 116.988ZM1485.52 129.616L1487.65 136.094C1485.82 136.668 1483.86 137.023 1481.79 137.16C1479.71 137.297 1477.45 137.365 1475.02 137.365C1477.51 138.513 1479.38 140.003 1480.64 141.834C1481.9 143.638 1482.52 145.77 1482.52 148.23C1482.52 151.073 1481.88 153.601 1480.6 155.815C1479.31 158.029 1477.45 159.765 1475.02 161.022C1472.62 162.279 1469.7 162.908 1466.29 162.908C1464.84 162.908 1463.62 162.84 1462.64 162.703C1461.68 162.566 1460.75 162.361 1459.85 162.088C1459.19 162.525 1458.65 163.127 1458.21 163.892C1457.8 164.657 1457.6 165.45 1457.6 166.27C1457.6 167.309 1458.01 168.17 1458.83 168.853C1459.65 169.536 1461.16 169.878 1463.38 169.878H1471.17C1474.06 169.878 1476.66 170.397 1478.96 171.436C1481.28 172.475 1483.1 173.869 1484.41 175.618C1485.75 177.367 1486.42 179.363 1486.42 181.604C1486.42 185.841 1484.61 189.093 1481.01 191.362C1477.43 193.631 1472.36 194.765 1465.8 194.765C1461.2 194.765 1457.58 194.287 1454.93 193.33C1452.28 192.401 1450.38 190.966 1449.23 189.025C1448.11 187.112 1447.55 184.693 1447.55 181.768H1453.78C1453.78 183.435 1454.11 184.816 1454.77 185.909C1455.42 187.002 1456.61 187.809 1458.33 188.328C1460.06 188.875 1462.53 189.148 1465.75 189.148C1468.93 189.148 1471.51 188.875 1473.5 188.328C1475.53 187.809 1477.02 187.016 1477.97 185.95C1478.96 184.911 1479.45 183.613 1479.45 182.055C1479.45 180.005 1478.52 178.461 1476.66 177.422C1474.8 176.383 1472.48 175.864 1469.69 175.864H1461.98C1458.27 175.864 1455.52 175.044 1453.74 173.404C1451.99 171.764 1451.12 169.878 1451.12 167.746C1451.12 166.352 1451.51 164.999 1452.31 163.687C1453.13 162.375 1454.32 161.213 1455.87 160.202C1453.39 158.89 1451.56 157.264 1450.38 155.323C1449.2 153.382 1448.62 151.032 1448.62 148.271C1448.62 145.346 1449.34 142.763 1450.79 140.522C1452.24 138.253 1454.26 136.477 1456.86 135.192C1459.45 133.907 1462.45 133.265 1465.84 133.265C1469.47 133.238 1472.42 133.087 1474.69 132.814C1476.96 132.513 1478.9 132.09 1480.51 131.543C1482.15 130.996 1483.82 130.354 1485.52 129.616ZM1465.84 138.308C1462.37 138.308 1459.8 139.251 1458.13 141.137C1456.49 142.996 1455.67 145.374 1455.67 148.271C1455.67 151.196 1456.52 153.601 1458.21 155.487C1459.91 157.373 1462.5 158.316 1466 158.316C1469.06 158.316 1471.39 157.428 1472.97 155.651C1474.58 153.874 1475.39 151.401 1475.39 148.23C1475.39 144.977 1474.58 142.517 1472.97 140.85C1471.39 139.155 1469.01 138.308 1465.84 138.308ZM1506.48 134.208V164.794C1506.48 167.637 1507.06 169.687 1508.24 170.944C1509.41 172.201 1511.25 172.83 1513.73 172.83C1516.11 172.83 1518.35 172.16 1520.46 170.821C1522.59 169.454 1524.24 167.842 1525.42 165.983V134.208H1532.31V177.381H1526.44L1525.87 171.559C1524.17 173.746 1522.08 175.427 1519.6 176.602C1517.11 177.75 1514.59 178.324 1512.05 178.324C1507.87 178.324 1504.74 177.217 1502.66 175.003C1500.61 172.762 1499.59 169.632 1499.59 165.614V134.208H1506.48ZM1549.17 177.381V172.092H1555.89V139.497H1549.17V134.208H1561.14L1562.41 144.417C1564.08 140.864 1566.1 138.117 1568.48 136.176C1570.86 134.235 1574 133.265 1577.91 133.265C1579.11 133.265 1580.18 133.361 1581.11 133.552C1582.06 133.716 1583.03 133.935 1584.02 134.208L1582.01 140.358C1581.11 140.112 1580.29 139.934 1579.55 139.825C1578.81 139.688 1577.96 139.62 1577.01 139.62C1573.7 139.62 1570.86 140.795 1568.48 143.146C1566.1 145.497 1564.2 149.05 1562.78 153.806V172.092H1571.55V177.381H1549.17ZM1577.37 148.804V139.415L1578.07 134.208H1584.02L1583.03 148.804H1577.37ZM1628.84 167.951C1628.84 169.673 1629.13 170.93 1629.7 171.723C1630.27 172.516 1631.16 173.103 1632.36 173.486L1630.68 178.324C1628.82 178.078 1627.2 177.49 1625.8 176.561C1624.41 175.604 1623.4 174.169 1622.77 172.256C1621.21 174.251 1619.27 175.768 1616.95 176.807C1614.63 177.818 1612.06 178.324 1609.24 178.324C1604.92 178.324 1601.52 177.108 1599.03 174.675C1596.54 172.242 1595.3 169.017 1595.3 164.999C1595.3 160.544 1597.04 157.127 1600.51 154.749C1603.98 152.371 1608.99 151.182 1615.55 151.182H1621.91V147.574C1621.91 144.458 1620.99 142.258 1619.16 140.973C1617.36 139.661 1614.84 139.005 1611.62 139.005C1610.2 139.005 1608.53 139.183 1606.62 139.538C1604.7 139.866 1602.63 140.426 1600.38 141.219L1598.58 136.012C1601.23 135.028 1603.72 134.331 1606.04 133.921C1608.37 133.511 1610.58 133.306 1612.68 133.306C1618.07 133.306 1622.1 134.563 1624.78 137.078C1627.49 139.565 1628.84 142.955 1628.84 147.246V167.951ZM1611 173.076C1613.14 173.076 1615.17 172.543 1617.11 171.477C1619.05 170.384 1620.65 168.88 1621.91 166.967V155.856H1615.68C1610.92 155.856 1607.56 156.676 1605.59 158.316C1603.65 159.956 1602.68 162.156 1602.68 164.917C1602.68 167.596 1603.36 169.632 1604.73 171.026C1606.12 172.393 1608.22 173.076 1611 173.076ZM1681.37 175.208C1679.89 176.192 1678.1 176.957 1676 177.504C1673.89 178.051 1671.83 178.324 1669.81 178.324C1665.16 178.324 1661.58 177.108 1659.06 174.675C1656.55 172.242 1655.29 169.113 1655.29 165.286V139.538H1645.37V134.208H1655.29V124.409L1662.18 123.589V134.208H1677.1L1676.28 139.538H1662.18V165.204C1662.18 167.609 1662.81 169.441 1664.07 170.698C1665.35 171.955 1667.47 172.584 1670.42 172.584C1672.03 172.584 1673.52 172.393 1674.89 172.01C1676.26 171.627 1677.53 171.135 1678.7 170.534L1681.37 175.208ZM1718.11 134.208V171.928H1730.29V177.381H1697.9V171.928H1711.23V139.661H1698.31V134.208H1718.11ZM1712.62 113.995C1714.15 113.995 1715.37 114.46 1716.27 115.389C1717.2 116.318 1717.66 117.453 1717.66 118.792C1717.66 120.186 1717.2 121.361 1716.27 122.318C1715.37 123.247 1714.15 123.712 1712.62 123.712C1711.17 123.712 1709.98 123.247 1709.05 122.318C1708.12 121.361 1707.66 120.186 1707.66 118.792C1707.66 117.453 1708.12 116.318 1709.05 115.389C1709.98 114.46 1711.17 113.995 1712.62 113.995ZM1761.87 133.306C1765.94 133.306 1769.35 134.235 1772.08 136.094C1774.84 137.925 1776.9 140.522 1778.27 143.884C1779.66 147.246 1780.36 151.209 1780.36 155.774C1780.36 160.175 1779.65 164.07 1778.23 167.459C1776.81 170.848 1774.72 173.513 1771.96 175.454C1769.22 177.367 1765.83 178.324 1761.79 178.324C1757.74 178.324 1754.34 177.395 1751.58 175.536C1748.82 173.677 1746.73 171.067 1745.31 167.705C1743.91 164.316 1743.21 160.366 1743.21 155.856C1743.21 151.401 1743.93 147.478 1745.35 144.089C1746.77 140.7 1748.86 138.062 1751.62 136.176C1754.41 134.263 1757.82 133.306 1761.87 133.306ZM1761.87 138.923C1758.15 138.923 1755.34 140.303 1753.42 143.064C1751.54 145.797 1750.59 150.061 1750.59 155.856C1750.59 161.541 1751.52 165.764 1753.38 168.525C1755.27 171.286 1758.07 172.666 1761.79 172.666C1765.5 172.666 1768.29 171.286 1770.15 168.525C1772.04 165.764 1772.98 161.514 1772.98 155.774C1772.98 150.034 1772.05 145.797 1770.19 143.064C1768.33 140.303 1765.56 138.923 1761.87 138.923ZM1794.6 177.381V134.208H1800.46L1800.99 140.194C1802.74 137.98 1804.93 136.285 1807.55 135.11C1810.2 133.907 1812.77 133.306 1815.26 133.306C1819.5 133.306 1822.57 134.427 1824.49 136.668C1826.43 138.909 1827.4 142.025 1827.4 146.016V177.381H1820.51V151.1C1820.51 148.148 1820.34 145.77 1820.02 143.966C1819.69 142.135 1819.01 140.809 1817.97 139.989C1816.93 139.142 1815.32 138.718 1813.13 138.718C1811.43 138.718 1809.83 139.087 1808.33 139.825C1806.86 140.563 1805.53 141.492 1804.35 142.613C1803.21 143.706 1802.25 144.813 1801.48 145.934V177.381H1794.6Z" fill="url(#paint1_linear_1338_2)"/>
<path d="M346.059 245.603C348.383 245.603 350.487 245.808 352.373 246.218C354.259 246.628 356.05 247.202 357.744 247.94L355.53 253.065C354.136 252.464 352.66 252.013 351.102 251.712C349.544 251.411 347.932 251.261 346.264 251.261C343.258 251.261 340.989 251.849 339.458 253.024C337.955 254.199 337.203 256.003 337.203 258.436V267.21H351.84L351.102 272.622H337.203V307.021H330.315V272.622H320.024V267.21H330.315V258.6C330.315 255.921 330.999 253.612 332.365 251.671C333.759 249.73 335.645 248.241 338.023 247.202C340.401 246.136 343.08 245.603 346.059 245.603ZM386.166 262.946C390.239 262.946 393.642 263.875 396.375 265.734C399.136 267.565 401.2 270.162 402.566 273.524C403.96 276.886 404.657 280.849 404.657 285.414C404.657 289.815 403.947 293.71 402.525 297.099C401.104 300.488 399.013 303.153 396.252 305.094C393.519 307.007 390.13 307.964 386.084 307.964C382.039 307.964 378.636 307.035 375.875 305.176C373.115 303.317 371.024 300.707 369.602 297.345C368.208 293.956 367.511 290.006 367.511 285.496C367.511 281.041 368.222 277.118 369.643 273.729C371.065 270.34 373.156 267.702 375.916 265.816C378.704 263.903 382.121 262.946 386.166 262.946ZM386.166 268.563C382.449 268.563 379.634 269.943 377.72 272.704C375.834 275.437 374.891 279.701 374.891 285.496C374.891 291.181 375.821 295.404 377.679 298.165C379.565 300.926 382.367 302.306 386.084 302.306C389.802 302.306 392.59 300.926 394.448 298.165C396.334 295.404 397.277 291.154 397.277 285.414C397.277 279.674 396.348 275.437 394.489 272.704C392.631 269.943 389.856 268.563 386.166 268.563ZM419.303 307.021V301.732H426.027V269.137H419.303V263.848H431.275L432.546 274.057C434.214 270.504 436.236 267.757 438.614 265.816C440.992 263.875 444.136 262.905 448.044 262.905C449.247 262.905 450.313 263.001 451.242 263.192C452.199 263.356 453.169 263.575 454.153 263.848L452.144 269.998C451.242 269.752 450.422 269.574 449.684 269.465C448.946 269.328 448.099 269.26 447.142 269.26C443.835 269.26 440.992 270.435 438.614 272.786C436.236 275.137 434.337 278.69 432.915 283.446V301.732H441.689V307.021H419.303ZM447.511 278.444V269.055L448.208 263.848H454.153L453.169 278.444H447.511ZM543.059 245.603L549.947 246.464V307.021H543.92L543.264 301.322C541.652 303.618 539.793 305.299 537.688 306.365C535.611 307.431 533.383 307.964 531.005 307.964C527.261 307.964 524.172 307.021 521.739 305.135C519.307 303.249 517.503 300.625 516.327 297.263C515.152 293.874 514.564 289.951 514.564 285.496C514.564 281.177 515.234 277.323 516.573 273.934C517.913 270.517 519.84 267.839 522.354 265.898C524.896 263.93 527.944 262.946 531.497 262.946C533.985 262.946 536.171 263.383 538.057 264.258C539.943 265.105 541.611 266.363 543.059 268.03V245.603ZM533.301 268.481C529.693 268.481 526.919 269.889 524.978 272.704C523.038 275.519 522.067 279.783 522.067 285.496C522.067 289.213 522.464 292.329 523.256 294.844C524.049 297.359 525.211 299.245 526.741 300.502C528.299 301.759 530.199 302.388 532.44 302.388C534.9 302.388 536.991 301.691 538.713 300.297C540.463 298.903 541.911 297.331 543.059 295.582V274.016C541.884 272.267 540.463 270.914 538.795 269.957C537.128 268.973 535.297 268.481 533.301 268.481ZM571.809 287.874C571.946 291.209 572.588 293.942 573.736 296.074C574.884 298.179 576.401 299.737 578.287 300.748C580.173 301.732 582.223 302.224 584.437 302.224C586.651 302.224 588.647 301.896 590.423 301.24C592.227 300.584 594.072 299.614 595.958 298.329L599.197 302.88C597.175 304.465 594.865 305.709 592.268 306.611C589.699 307.513 587.061 307.964 584.355 307.964C580.173 307.964 576.606 307.021 573.654 305.135C570.702 303.249 568.447 300.625 566.889 297.263C565.359 293.874 564.593 289.951 564.593 285.496C564.593 281.123 565.372 277.241 566.93 273.852C568.488 270.463 570.675 267.798 573.49 265.857C576.306 263.916 579.627 262.946 583.453 262.946C587.089 262.946 590.218 263.807 592.842 265.529C595.466 267.224 597.475 269.656 598.869 272.827C600.291 275.97 601.001 279.729 601.001 284.102C601.001 284.84 600.988 285.537 600.96 286.193C600.933 286.822 600.892 287.382 600.837 287.874H571.809ZM583.535 268.604C580.337 268.604 577.659 269.738 575.499 272.007C573.367 274.276 572.151 277.788 571.85 282.544H594.359C594.277 277.925 593.266 274.453 591.325 272.13C589.385 269.779 586.788 268.604 583.535 268.604ZM651.563 263.848L635.86 307.021H627.865L612.285 263.848H619.583L632.088 300.748L644.429 263.848H651.563ZM670.145 287.874C670.282 291.209 670.924 293.942 672.072 296.074C673.22 298.179 674.737 299.737 676.623 300.748C678.509 301.732 680.559 302.224 682.773 302.224C684.987 302.224 686.983 301.896 688.759 301.24C690.563 300.584 692.408 299.614 694.294 298.329L697.533 302.88C695.511 304.465 693.201 305.709 690.604 306.611C688.035 307.513 685.397 307.964 682.691 307.964C678.509 307.964 674.942 307.021 671.99 305.135C669.038 303.249 666.783 300.625 665.225 297.263C663.695 293.874 662.929 289.951 662.929 285.496C662.929 281.123 663.708 277.241 665.266 273.852C666.824 270.463 669.011 267.798 671.826 265.857C674.642 263.916 677.963 262.946 681.789 262.946C685.425 262.946 688.554 263.807 691.178 265.529C693.802 267.224 695.811 269.656 697.205 272.827C698.627 275.97 699.337 279.729 699.337 284.102C699.337 284.84 699.324 285.537 699.296 286.193C699.269 286.822 699.228 287.382 699.173 287.874H670.145ZM681.871 268.604C678.673 268.604 675.995 269.738 673.835 272.007C671.703 274.276 670.487 277.788 670.186 282.544H692.695C692.613 277.925 691.602 274.453 689.661 272.13C687.721 269.779 685.124 268.604 681.871 268.604ZM730.711 246.464V296.361C730.711 298.493 731.367 300.01 732.679 300.912C734.018 301.787 735.74 302.224 737.845 302.224C739.157 302.224 740.401 302.087 741.576 301.814C742.751 301.541 743.927 301.172 745.102 300.707L746.947 305.75C745.772 306.324 744.309 306.83 742.56 307.267C740.838 307.732 738.884 307.964 736.697 307.964C732.87 307.964 729.768 306.912 727.39 304.807C725.012 302.675 723.823 299.737 723.823 295.992V251.917H710.58V246.464H730.711ZM779.51 262.946C783.583 262.946 786.986 263.875 789.719 265.734C792.48 267.565 794.543 270.162 795.91 273.524C797.304 276.886 798.001 280.849 798.001 285.414C798.001 289.815 797.29 293.71 795.869 297.099C794.448 300.488 792.357 303.153 789.596 305.094C786.863 307.007 783.473 307.964 779.428 307.964C775.383 307.964 771.98 307.035 769.219 305.176C766.458 303.317 764.367 300.707 762.946 297.345C761.552 293.956 760.855 290.006 760.855 285.496C760.855 281.041 761.566 277.118 762.987 273.729C764.408 270.34 766.499 267.702 769.26 265.816C772.048 263.903 775.465 262.946 779.51 262.946ZM779.51 268.563C775.793 268.563 772.977 269.943 771.064 272.704C769.178 275.437 768.235 279.701 768.235 285.496C768.235 291.181 769.164 295.404 771.023 298.165C772.909 300.926 775.711 302.306 779.428 302.306C783.145 302.306 785.933 300.926 787.792 298.165C789.678 295.404 790.621 291.154 790.621 285.414C790.621 279.674 789.692 275.437 787.833 272.704C785.974 269.943 783.2 268.563 779.51 268.563ZM831.548 262.946C835.375 262.946 838.422 263.875 840.691 265.734C842.987 267.593 844.641 270.217 845.652 273.606C846.663 276.968 847.169 280.904 847.169 285.414C847.169 289.76 846.554 293.641 845.324 297.058C844.121 300.447 842.29 303.112 839.83 305.053C837.37 306.994 834.268 307.964 830.523 307.964C825.794 307.964 821.995 306.297 819.125 302.962V323.544L812.237 324.405V263.848H818.1L818.674 269.875C820.259 267.661 822.145 265.953 824.332 264.75C826.546 263.547 828.951 262.946 831.548 262.946ZM829.908 268.481C827.53 268.481 825.425 269.205 823.594 270.654C821.79 272.075 820.3 273.661 819.125 275.41V296.812C820.246 298.479 821.653 299.805 823.348 300.789C825.07 301.746 826.956 302.224 829.006 302.224C832.587 302.224 835.279 300.857 837.083 298.124C838.887 295.391 839.789 291.14 839.789 285.373C839.789 281.601 839.434 278.471 838.723 275.984C838.012 273.469 836.933 271.597 835.484 270.367C834.035 269.11 832.177 268.481 829.908 268.481ZM866.817 287.874C866.954 291.209 867.596 293.942 868.744 296.074C869.892 298.179 871.409 299.737 873.295 300.748C875.181 301.732 877.231 302.224 879.445 302.224C881.659 302.224 883.654 301.896 885.431 301.24C887.235 300.584 889.08 299.614 890.966 298.329L894.205 302.88C892.182 304.465 889.873 305.709 887.276 306.611C884.707 307.513 882.069 307.964 879.363 307.964C875.181 307.964 871.614 307.021 868.662 305.135C865.71 303.249 863.455 300.625 861.897 297.263C860.366 293.874 859.601 289.951 859.601 285.496C859.601 281.123 860.38 277.241 861.938 273.852C863.496 270.463 865.683 267.798 868.498 265.857C871.313 263.916 874.634 262.946 878.461 262.946C882.096 262.946 885.226 263.807 887.85 265.529C890.474 267.224 892.483 269.656 893.877 272.827C895.298 275.97 896.009 279.729 896.009 284.102C896.009 284.84 895.995 285.537 895.968 286.193C895.941 286.822 895.9 287.382 895.845 287.874H866.817ZM878.543 268.604C875.345 268.604 872.666 269.738 870.507 272.007C868.375 274.276 867.159 277.788 866.858 282.544H889.367C889.285 277.925 888.274 274.453 886.333 272.13C884.392 269.779 881.796 268.604 878.543 268.604ZM910.983 307.021V301.732H917.707V269.137H910.983V263.848H922.955L924.226 274.057C925.893 270.504 927.916 267.757 930.294 265.816C932.672 263.875 935.815 262.905 939.724 262.905C940.927 262.905 941.993 263.001 942.922 263.192C943.879 263.356 944.849 263.575 945.833 263.848L943.824 269.998C942.922 269.752 942.102 269.574 941.364 269.465C940.626 269.328 939.779 269.26 938.822 269.26C935.515 269.26 932.672 270.435 930.294 272.786C927.916 275.137 926.016 278.69 924.595 283.446V301.732H933.369V307.021H910.983ZM939.191 278.444V269.055L939.888 263.848H945.833L944.849 278.444H939.191ZM1028.22 262.946C1032.05 262.946 1035.09 263.875 1037.36 265.734C1039.66 267.593 1041.31 270.217 1042.32 273.606C1043.34 276.968 1043.84 280.904 1043.84 285.414C1043.84 289.76 1043.23 293.641 1042 297.058C1040.79 300.447 1038.96 303.112 1036.5 305.053C1034.04 306.994 1030.94 307.964 1027.19 307.964C1022.47 307.964 1018.67 306.297 1015.8 302.962V323.544L1008.91 324.405V263.848H1014.77L1015.35 269.875C1016.93 267.661 1018.82 265.953 1021 264.75C1023.22 263.547 1025.62 262.946 1028.22 262.946ZM1026.58 268.481C1024.2 268.481 1022.1 269.205 1020.27 270.654C1018.46 272.075 1016.97 273.661 1015.8 275.41V296.812C1016.92 298.479 1018.33 299.805 1020.02 300.789C1021.74 301.746 1023.63 302.224 1025.68 302.224C1029.26 302.224 1031.95 300.857 1033.75 298.124C1035.56 295.391 1036.46 291.14 1036.46 285.373C1036.46 281.601 1036.11 278.471 1035.39 275.984C1034.68 273.469 1033.6 271.597 1032.16 270.367C1030.71 269.11 1028.85 268.481 1026.58 268.481ZM1058.49 307.021V301.732H1065.21V269.137H1058.49V263.848H1070.46L1071.73 274.057C1073.4 270.504 1075.42 267.757 1077.8 265.816C1080.18 263.875 1083.32 262.905 1087.23 262.905C1088.43 262.905 1089.5 263.001 1090.43 263.192C1091.38 263.356 1092.35 263.575 1093.34 263.848L1091.33 269.998C1090.43 269.752 1089.61 269.574 1088.87 269.465C1088.13 269.328 1087.28 269.26 1086.33 269.26C1083.02 269.26 1080.18 270.435 1077.8 272.786C1075.42 275.137 1073.52 278.69 1072.1 283.446V301.732H1080.87V307.021H1058.49ZM1086.69 278.444V269.055L1087.39 263.848H1093.34L1092.35 278.444H1086.69ZM1123.69 262.946C1127.76 262.946 1131.16 263.875 1133.89 265.734C1136.66 267.565 1138.72 270.162 1140.09 273.524C1141.48 276.886 1142.18 280.849 1142.18 285.414C1142.18 289.815 1141.47 293.71 1140.04 297.099C1138.62 300.488 1136.53 303.153 1133.77 305.094C1131.04 307.007 1127.65 307.964 1123.6 307.964C1119.56 307.964 1116.16 307.035 1113.39 305.176C1110.63 303.317 1108.54 300.707 1107.12 297.345C1105.73 293.956 1105.03 290.006 1105.03 285.496C1105.03 281.041 1105.74 277.118 1107.16 273.729C1108.58 270.34 1110.68 267.702 1113.44 265.816C1116.22 263.903 1119.64 262.946 1123.69 262.946ZM1123.69 268.563C1119.97 268.563 1117.15 269.943 1115.24 272.704C1113.35 275.437 1112.41 279.701 1112.41 285.496C1112.41 291.181 1113.34 295.404 1115.2 298.165C1117.08 300.926 1119.89 302.306 1123.6 302.306C1127.32 302.306 1130.11 300.926 1131.97 298.165C1133.85 295.404 1134.8 291.154 1134.8 285.414C1134.8 279.674 1133.87 275.437 1132.01 272.704C1130.15 269.943 1127.38 268.563 1123.69 268.563ZM1182.24 245.603L1189.13 246.464V307.021H1183.1L1182.45 301.322C1180.84 303.618 1178.98 305.299 1176.87 306.365C1174.79 307.431 1172.57 307.964 1170.19 307.964C1166.44 307.964 1163.36 307.021 1160.92 305.135C1158.49 303.249 1156.69 300.625 1155.51 297.263C1154.34 293.874 1153.75 289.951 1153.75 285.496C1153.75 281.177 1154.42 277.323 1155.76 273.934C1157.1 270.517 1159.02 267.839 1161.54 265.898C1164.08 263.93 1167.13 262.946 1170.68 262.946C1173.17 262.946 1175.35 263.383 1177.24 264.258C1179.13 265.105 1180.79 266.363 1182.24 268.03V245.603ZM1172.48 268.481C1168.88 268.481 1166.1 269.889 1164.16 272.704C1162.22 275.519 1161.25 279.783 1161.25 285.496C1161.25 289.213 1161.65 292.329 1162.44 294.844C1163.23 297.359 1164.39 299.245 1165.92 300.502C1167.48 301.759 1169.38 302.388 1171.62 302.388C1174.08 302.388 1176.17 301.691 1177.9 300.297C1179.65 298.903 1181.09 297.331 1182.24 295.582V274.016C1181.07 272.267 1179.65 270.914 1177.98 269.957C1176.31 268.973 1174.48 268.481 1172.48 268.481ZM1212.47 263.848V294.434C1212.47 297.277 1213.06 299.327 1214.23 300.584C1215.41 301.841 1217.24 302.47 1219.73 302.47C1222.1 302.47 1224.35 301.8 1226.45 300.461C1228.58 299.094 1230.24 297.482 1231.41 295.623V263.848H1238.3V307.021H1232.44L1231.86 301.199C1230.17 303.386 1228.08 305.067 1225.59 306.242C1223.1 307.39 1220.59 307.964 1218.04 307.964C1213.86 307.964 1210.73 306.857 1208.66 304.643C1206.61 302.402 1205.58 299.272 1205.58 295.254V263.848H1212.47ZM1274.26 302.019C1276.42 302.019 1278.43 301.664 1280.29 300.953C1282.18 300.242 1283.91 299.34 1285.5 298.247L1288.86 302.757C1286.97 304.37 1284.71 305.641 1282.05 306.57C1279.4 307.499 1276.81 307.964 1274.26 307.964C1269.97 307.964 1266.31 307.048 1263.28 305.217C1260.27 303.358 1257.97 300.762 1256.39 297.427C1254.8 294.065 1254.01 290.129 1254.01 285.619C1254.01 281.3 1254.8 277.433 1256.39 274.016C1258 270.572 1260.31 267.866 1263.32 265.898C1266.35 263.93 1270.03 262.946 1274.35 262.946C1277.11 262.946 1279.69 263.37 1282.1 264.217C1284.53 265.037 1286.76 266.281 1288.78 267.948L1285.42 272.54C1283.59 271.255 1281.74 270.299 1279.88 269.67C1278.05 269.014 1276.18 268.686 1274.26 268.686C1270.55 268.686 1267.49 270.08 1265.08 272.868C1262.68 275.656 1261.47 279.906 1261.47 285.619C1261.47 289.446 1262.02 292.575 1263.11 295.008C1264.23 297.413 1265.75 299.19 1267.66 300.338C1269.6 301.459 1271.8 302.019 1274.26 302.019ZM1338.19 304.848C1336.72 305.832 1334.93 306.597 1332.82 307.144C1330.72 307.691 1328.65 307.964 1326.63 307.964C1321.98 307.964 1318.4 306.748 1315.89 304.315C1313.37 301.882 1312.12 298.753 1312.12 294.926V269.178H1302.19V263.848H1312.12V254.049L1319 253.229V263.848H1333.93L1333.11 269.178H1319V294.844C1319 297.249 1319.63 299.081 1320.89 300.338C1322.18 301.595 1324.29 302.224 1327.25 302.224C1328.86 302.224 1330.35 302.033 1331.71 301.65C1333.08 301.267 1334.35 300.775 1335.53 300.174L1338.19 304.848ZM1374.94 263.848V301.568H1387.11V307.021H1354.72V301.568H1368.05V269.301H1355.13V263.848H1374.94ZM1369.44 243.635C1370.97 243.635 1372.19 244.1 1373.09 245.029C1374.02 245.958 1374.49 247.093 1374.49 248.432C1374.49 249.826 1374.02 251.001 1373.09 251.958C1372.19 252.887 1370.97 253.352 1369.44 253.352C1368 253.352 1366.81 252.887 1365.88 251.958C1364.95 251.001 1364.48 249.826 1364.48 248.432C1364.48 247.093 1364.95 245.958 1365.88 245.029C1366.81 244.1 1368 243.635 1369.44 243.635ZM1438.25 263.848L1422.55 307.021H1414.55L1398.97 263.848H1406.27L1418.78 300.748L1431.12 263.848H1438.25ZM1473.27 263.848V301.568H1485.45V307.021H1453.06V301.568H1466.39V269.301H1453.47V263.848H1473.27ZM1467.78 243.635C1469.31 243.635 1470.53 244.1 1471.43 245.029C1472.36 245.958 1472.82 247.093 1472.82 248.432C1472.82 249.826 1472.36 251.001 1471.43 251.958C1470.53 252.887 1469.31 253.352 1467.78 253.352C1466.33 253.352 1465.14 252.887 1464.21 251.958C1463.28 251.001 1462.82 249.826 1462.82 248.432C1462.82 247.093 1463.28 245.958 1464.21 245.029C1465.14 244.1 1466.33 243.635 1467.78 243.635ZM1534.86 304.848C1533.39 305.832 1531.6 306.597 1529.49 307.144C1527.39 307.691 1525.33 307.964 1523.3 307.964C1518.66 307.964 1515.08 306.748 1512.56 304.315C1510.05 301.882 1508.79 298.753 1508.79 294.926V269.178H1498.87V263.848H1508.79V254.049L1515.68 253.229V263.848H1530.6L1529.78 269.178H1515.68V294.844C1515.68 297.249 1516.31 299.081 1517.56 300.338C1518.85 301.595 1520.97 302.224 1523.92 302.224C1525.53 302.224 1527.02 302.033 1528.39 301.65C1529.75 301.267 1531.02 300.775 1532.2 300.174L1534.86 304.848ZM1585.67 263.848L1570.5 307.308C1569.49 310.233 1568.21 312.911 1566.65 315.344C1565.12 317.777 1563.11 319.786 1560.62 321.371C1558.16 322.984 1555.03 323.981 1551.23 324.364L1550.17 318.87C1553.15 318.378 1555.5 317.626 1557.22 316.615C1558.94 315.604 1560.29 314.305 1561.28 312.72C1562.29 311.135 1563.18 309.235 1563.94 307.021H1561.65L1546.56 263.848H1553.94L1566.32 301.773L1578.54 263.848H1585.67Z" fill="url(#paint2_linear_1338_2)"/>
<g filter="url(#filter0_d_1338_2)">
<path d="M477.331 706.595C477.331 784.874 413.881 848.33 335.602 848.33C257.323 848.33 193.867 784.874 193.867 706.595C193.867 628.321 257.324 564.867 335.602 564.867C413.881 564.867 477.331 628.32 477.331 706.595Z" fill="url(#paint3_linear_1338_2)"/>
<path d="M262.042 706.595C262.042 716.659 253.883 724.82 243.812 724.82C233.753 724.82 225.594 716.66 225.594 706.595C225.594 696.535 233.753 688.376 243.812 688.376C253.883 688.376 262.042 696.535 262.042 706.595ZM365.716 795.201C370.749 803.91 381.889 806.897 390.605 801.871C399.32 796.838 402.306 785.692 397.274 776.976C392.242 768.261 381.101 765.281 372.386 770.313C363.67 775.346 360.684 786.486 365.716 795.201ZM397.273 636.219C402.305 627.502 399.325 616.359 390.604 611.332C381.894 606.3 370.749 609.286 365.715 617.999C360.683 626.714 363.669 637.856 372.385 642.888C381.101 647.92 392.247 644.934 397.273 636.219ZM335.601 654.632C362.754 654.632 385.035 675.446 387.362 701.996L413.734 701.58C412.482 681.853 403.925 664.111 390.739 651.029C383.759 653.722 375.66 653.356 368.673 649.319C361.681 645.282 357.314 638.448 356.159 631.044C349.605 629.264 342.711 628.311 335.601 628.311C323.13 628.311 311.342 631.227 300.874 636.414L313.706 659.457C320.356 656.367 327.783 654.632 335.601 654.632ZM283.632 706.595C283.632 689.018 292.366 673.474 305.729 664.075L292.189 641.441C276.505 651.915 264.822 667.892 259.893 686.624C265.726 691.321 269.463 698.521 269.463 706.596C269.463 714.676 265.725 721.876 259.893 726.574C264.822 745.305 276.505 761.282 292.189 771.762L305.729 749.128C292.366 739.722 283.632 724.184 283.632 706.595ZM335.601 758.568C327.784 758.568 320.357 756.834 313.706 753.738L300.874 776.781C311.342 781.972 323.129 784.885 335.601 784.885C342.71 784.885 349.605 783.939 356.159 782.156C357.313 774.747 361.68 767.913 368.673 763.883C375.66 759.846 383.759 759.479 390.739 762.172C403.926 749.084 412.482 731.342 413.734 711.615L387.362 711.206C385.034 737.749 362.754 758.568 335.601 758.568Z" fill="white"/>
</g>
<g filter="url(#filter1_d_1338_2)">
<path d="M1590.5 873C1682.46 873 1757 798.455 1757 706.5C1757 614.545 1682.46 540 1590.5 540C1498.54 540 1424 614.545 1424 706.5C1424 798.455 1498.54 873 1590.5 873Z" fill="url(#paint4_linear_1338_2)"/>
<path d="M1574.51 647.226C1572.18 647.559 1573.18 649.557 1571.85 649.557C1570.85 649.557 1570.85 646.893 1574.51 647.226ZM1581.5 647.559C1583.5 646.893 1583.84 649.224 1584.83 648.891C1585.83 648.558 1584.83 646.227 1581.5 647.559ZM1655.76 790.083C1649.1 793.413 1640.45 800.739 1637.12 804.069C1634.78 806.4 1624.79 807.399 1619.13 804.735C1612.47 801.405 1616.14 796.077 1605.81 795.744C1600.82 795.744 1595.82 795.744 1590.83 795.744C1586.5 795.744 1582.17 796.077 1577.51 796.077C1562.19 796.077 1560.53 806.067 1550.87 805.734C1544.21 805.401 1535.88 800.073 1521.23 797.076C1510.91 795.078 1501.25 794.412 1499.25 790.083C1497.26 785.754 1501.92 780.426 1502.25 776.097C1502.58 770.103 1497.92 762.444 1501.25 759.114C1504.25 756.45 1510.58 758.448 1514.57 756.117C1518.9 753.786 1520.9 751.788 1520.9 746.127C1522.56 751.455 1520.9 756.117 1517.24 758.448C1515.24 759.78 1510.91 760.446 1507.91 760.113C1505.25 759.78 1503.58 760.446 1502.92 761.445C1501.92 762.777 1502.25 765.108 1503.58 768.105C1504.91 771.102 1506.25 773.1 1506.25 776.763C1505.91 780.426 1501.92 784.755 1502.58 788.085C1502.92 789.417 1503.92 790.416 1506.91 791.082C1511.57 792.414 1519.9 793.746 1528.22 795.744C1537.22 798.075 1546.87 802.071 1552.53 801.405C1570.18 799.074 1560.19 780.093 1557.2 775.764C1542.54 752.454 1532.55 737.136 1524.89 743.13C1522.9 744.795 1522.9 739.134 1522.9 737.136C1523.23 729.477 1527.23 726.813 1529.56 720.819C1533.89 709.497 1537.22 696.843 1543.88 690.183C1548.87 683.856 1556.53 673.2 1558.19 667.872C1556.86 655.884 1556.53 643.23 1556.53 631.908C1556.2 620.253 1558.19 609.597 1571.51 602.604C1574.84 600.939 1578.84 600.273 1583.5 600.273C1591.49 600.273 1600.49 602.271 1605.81 606.6C1614.8 613.26 1620.47 627.579 1619.8 637.569C1619.13 645.561 1620.8 653.553 1623.13 662.211C1626.13 672.201 1630.79 679.194 1638.45 687.519C1647.44 697.176 1654.76 716.157 1656.76 728.478C1658.76 739.8 1656.1 746.793 1653.77 747.126C1650.1 747.792 1647.77 759.447 1636.12 758.781C1628.79 758.448 1628.12 754.119 1626.13 750.456C1622.8 744.462 1619.47 746.46 1618.13 752.454C1617.47 755.451 1617.8 760.113 1618.8 763.776C1620.8 771.102 1620.13 777.762 1618.8 786.087C1616.47 802.071 1629.79 805.068 1639.11 797.409C1648.1 790.083 1650.1 788.751 1661.42 784.755C1678.74 778.761 1672.75 773.766 1663.76 770.436C1655.43 767.772 1655.1 753.786 1658.09 751.122C1658.76 766.107 1666.42 768.438 1669.75 770.436C1683.74 778.761 1664.09 786.087 1655.76 790.083ZM1617.8 746.127C1619.47 744.129 1621.13 744.129 1623.8 744.129C1624.13 735.138 1638.45 735.804 1643.11 739.467C1643.11 737.469 1638.78 735.471 1636.78 734.472C1639.78 724.149 1638.45 720.153 1636.45 710.163C1634.78 702.837 1628.12 692.847 1622.8 689.517C1624.13 690.849 1626.79 694.179 1629.46 699.174C1634.12 707.832 1638.78 720.486 1635.78 731.142C1634.45 735.138 1631.79 735.804 1630.12 735.804C1621.8 736.803 1626.79 726.147 1623.46 711.828C1619.8 695.844 1615.8 694.512 1614.8 693.18C1610.14 672.201 1604.81 674.199 1603.48 666.54C1602.15 659.547 1609.48 653.886 1599.49 651.888C1596.49 651.222 1592.16 648.225 1590.16 647.892C1588.5 647.559 1587.5 636.237 1593.83 635.904C1600.15 635.571 1601.48 643.23 1600.15 646.227C1598.49 649.224 1600.15 650.223 1603.48 649.224C1606.15 648.558 1604.48 641.565 1605.15 640.566C1603.48 630.909 1599.49 629.577 1595.16 628.911C1579.17 630.243 1586.5 647.559 1584.83 645.894C1582.5 643.563 1575.84 645.894 1575.84 644.229C1575.84 635.238 1572.85 629.91 1568.85 629.91C1564.19 629.91 1562.19 636.237 1562.19 639.9C1561.86 643.23 1564.19 650.556 1565.85 650.223C1566.85 649.89 1568.85 647.559 1566.85 647.559C1565.85 647.559 1564.19 645.228 1564.19 642.231C1564.19 639.234 1565.19 636.237 1569.18 636.237C1573.85 636.57 1573.85 645.228 1573.18 645.894C1571.85 646.893 1569.85 648.891 1569.52 649.224C1568.18 651.555 1565.19 652.221 1564.19 653.22C1562.19 655.218 1561.86 657.549 1563.19 658.548C1568.52 661.545 1566.85 664.875 1574.18 665.208C1578.84 665.541 1582.5 664.542 1585.83 663.543C1588.5 662.877 1596.49 660.879 1598.49 657.882C1599.15 656.55 1600.15 656.55 1600.82 656.883C1601.82 657.549 1602.15 659.547 1599.15 660.546C1595.16 661.545 1590.83 663.876 1587.5 665.208C1583.84 666.54 1582.84 667.206 1579.51 667.872C1571.85 669.204 1566.19 665.208 1571.51 670.203C1573.18 671.868 1574.84 672.867 1579.17 672.867C1588.83 672.534 1599.49 660.879 1600.49 666.207C1600.82 667.206 1597.49 668.871 1594.82 669.87C1585.83 674.199 1579.51 683.19 1573.85 679.86C1568.52 677.196 1563.52 664.209 1563.52 670.203C1563.52 679.194 1551.87 686.853 1557.2 696.843C1553.53 697.842 1545.54 714.825 1544.54 723.483C1543.88 728.478 1544.87 734.805 1543.88 738.135C1542.21 743.13 1534.22 733.473 1536.88 721.152C1537.22 719.154 1536.88 718.488 1536.22 719.487C1532.89 725.148 1534.88 733.14 1537.22 738.468C1538.21 740.799 1540.88 741.798 1542.88 744.129C1546.87 748.791 1562.86 760.446 1565.52 763.443C1568.85 766.773 1568.18 774.765 1560.53 775.431C1564.19 782.424 1567.85 783.09 1567.85 795.078C1572.18 792.747 1570.52 787.752 1568.52 784.422C1567.19 782.091 1565.52 781.092 1565.85 780.759C1566.19 780.426 1568.18 778.428 1569.52 780.093C1573.51 784.422 1580.84 785.088 1588.83 784.422C1596.82 783.423 1605.15 780.759 1609.14 774.432C1611.14 771.435 1612.14 770.436 1613.14 771.102C1614.14 771.768 1614.47 773.766 1614.14 777.096C1614.14 780.759 1612.47 784.755 1611.47 787.752C1610.48 791.415 1610.14 793.746 1613.47 793.746C1614.47 787.419 1616.14 780.759 1616.8 774.432C1617.14 766.773 1611.81 753.12 1617.8 746.127ZM1569.18 642.231C1568.85 643.563 1569.18 644.562 1570.18 644.562C1570.18 644.562 1570.52 644.562 1570.52 644.229C1570.85 641.232 1569.52 639.234 1568.85 639.234C1567.52 638.901 1567.52 640.899 1568.18 640.899C1568.85 640.566 1569.52 641.232 1569.18 642.231ZM1595.16 638.235C1593.83 638.235 1594.16 639.234 1594.82 639.234C1595.82 639.567 1596.49 641.232 1596.82 642.897C1596.82 642.897 1598.15 642.564 1598.15 642.231C1598.49 639.567 1595.82 638.235 1595.16 638.235Z" fill="#222222"/>
</g>
</g>
<defs>
<filter id="filter0_d_1338_2" x="107" y="478" width="479.195" height="479.197" filterUnits="userSpaceOnUse" color-interpolation-filters="sRGB">
<feFlood flood-opacity="0" result="BackgroundImageFix"/>
<feColorMatrix in="SourceAlpha" type="matrix" values="0 0 0 0 0 0 0 0 0 0 0 0 0 0 0 0 0 0 127 0" result="hardAlpha"/>
<feOffset dx="11" dy="11"/>
<feGaussianBlur stdDeviation="13.5"/>
<feColorMatrix type="matrix" values="0 0 0 0 0 0 0 0 0 0 0 0 0 0 0 0 0 0 0.5 0"/>
<feBlend mode="normal" in2="BackgroundImageFix" result="effect1_dropShadow_1338_2"/>
<feBlend mode="normal" in="SourceGraphic" in2="effect1_dropShadow_1338_2" result="shape"/>
</filter>
<filter id="filter1_d_1338_2" x="1408" y="524" width="387" height="387" filterUnits="userSpaceOnUse" color-interpolation-filters="sRGB">
<feFlood flood-opacity="0" result="BackgroundImageFix"/>
<feColorMatrix in="SourceAlpha" type="matrix" values="0 0 0 0 0 0 0 0 0 0 0 0 0 0 0 0 0 0 127 0" result="hardAlpha"/>
<feOffset dx="11" dy="11"/>
<feGaussianBlur stdDeviation="13.5"/>
<feColorMatrix type="matrix" values="0 0 0 0 0 0 0 0 0 0 0 0 0 0 0 0 0 0 0.5 0"/>
<feBlend mode="normal" in2="BackgroundImageFix" result="effect1_dropShadow_1338_2"/>
<feBlend mode="normal" in="SourceGraphic" in2="effect1_dropShadow_1338_2" result="shape"/>
</filter>
<linearGradient id="paint0_linear_1338_2" x1="960" y1="0" x2="960" y2="1080" gradientUnits="userSpaceOnUse">
<stop stop-color="#323232"/>
<stop offset="1"/>
</linearGradient>
<linearGradient id="paint1_linear_1338_2" x1="69.5659" y1="204.651" x2="1858.28" y2="204.651" gradientUnits="userSpaceOnUse">
<stop stop-color="#0095D5"/>
<stop offset="0.464053" stop-color="#7272E1"/>
<stop offset="1" stop-color="#7E6EE3"/>
</linearGradient>
<linearGradient id="paint2_linear_1338_2" x1="951.502" y1="226.021" x2="951.502" y2="334.021" gradientUnits="userSpaceOnUse">
<stop stop-color="#B32BD5"/>
<stop offset="1" stop-color="#DA3C8E"/>
</linearGradient>
<linearGradient id="paint3_linear_1338_2" x1="335.599" y1="564.867" x2="335.599" y2="848.33" gradientUnits="userSpaceOnUse">
<stop stop-color="#E95420"/>
<stop offset="1" stop-color="#832F12"/>
</linearGradient>
<linearGradient id="paint4_linear_1338_2" x1="1424.86" y1="873.832" x2="1761.19" y2="873.832" gradientUnits="userSpaceOnUse">
<stop stop-color="#0095D5"/>
<stop offset="0.464053" stop-color="#7272E1"/>
<stop offset="1" stop-color="#7E6EE3"/>
</linearGradient>
<clipPath id="clip0_1338_2">
<rect width="1920" height="1080" fill="white"/>
</clipPath>
</defs>
</svg>
